<svg class="main-svg" xmlns="http://www.w3.org/2000/svg" xmlns:xlink="http://www.w3.org/1999/xlink" width="800" height="200" style="" viewBox="0 0 800 200"><rect x="0" y="0" width="800" height="200" style="fill: rgb(0, 0, 0); fill-opacity: 0;"/><defs id="defs-e77129"><g class="clips"><clipPath id="clipe77129xyplot" class="plotclip"><rect width="798" height="159"/></clipPath><clipPath class="axesclip" id="clipe77129x"><rect x="0" y="0" width="798" height="200"/></clipPath><clipPath class="axesclip" id="clipe77129y"><rect x="0" y="0" width="800" height="159"/></clipPath><clipPath class="axesclip" id="clipe77129xy"><rect x="0" y="0" width="798" height="159"/></clipPath></g><g class="gradients"/><g class="patterns"/></defs><g class="bglayer"><rect class="bg" x="0" y="0" width="798" height="159" style="fill: rgb(0, 0, 0); fill-opacity: 0; stroke-width: 0;"/></g><g class="layer-below"><g class="imagelayer"/><g class="shapelayer"/></g><g class="cartesianlayer"><g class="subplot xy"><g class="layer-subplot"><g class="shapelayer"/><g class="imagelayer"/></g><g class="minor-gridlayer"><g class="x"/><g class="y"/></g><g class="gridlayer"><g class="x"><path class="xgrid crisp" transform="translate(139.71,0)" d="M0,0v159" style="stroke: rgb(40, 52, 66); stroke-opacity: 1; stroke-width: 1px;"/><path class="xgrid crisp" transform="translate(220.79,0)" d="M0,0v159" style="stroke: rgb(40, 52, 66); stroke-opacity: 1; stroke-width: 1px;"/><path class="xgrid crisp" transform="translate(301.87,0)" d="M0,0v159" style="stroke: rgb(40, 52, 66); stroke-opacity: 1; stroke-width: 1px;"/><path class="xgrid crisp" transform="translate(382.95,0)" d="M0,0v159" style="stroke: rgb(40, 52, 66); stroke-opacity: 1; stroke-width: 1px;"/><path class="xgrid crisp" transform="translate(464.03,0)" d="M0,0v159" style="stroke: rgb(40, 52, 66); stroke-opacity: 1; stroke-width: 1px;"/><path class="xgrid crisp" transform="translate(545.11,0)" d="M0,0v159" style="stroke: rgb(40, 52, 66); stroke-opacity: 1; stroke-width: 1px;"/><path class="xgrid crisp" transform="translate(626.19,0)" d="M0,0v159" style="stroke: rgb(40, 52, 66); stroke-opacity: 1; stroke-width: 1px;"/><path class="xgrid crisp" transform="translate(707.27,0)" d="M0,0v159" style="stroke: rgb(40, 52, 66); stroke-opacity: 1; stroke-width: 1px;"/><path class="xgrid crisp" transform="translate(788.35,0)" d="M0,0v159" style="stroke: rgb(40, 52, 66); stroke-opacity: 1; stroke-width: 1px;"/></g><g class="y"/></g><g class="zerolinelayer"><path class="xzl zl crisp" transform="translate(58.63,0)" d="M0,0v159" style="stroke: rgb(40, 52, 66); stroke-opacity: 1; stroke-width: 2px;"/></g><g class="layer-between"><g class="shapelayer"/><g class="imagelayer"/></g><path class="xlines-below"/><path class="ylines-below"/><g class="overlines-below"/><g class="xaxislayer-below"/><g class="yaxislayer-below"/><g class="overaxes-below"/><g class="plot" transform="" clip-path="url(#clipe77129xyplot)"><g class="violinlayer mlayer"><g class="trace violins" style="opacity: 1;"><path class="violin" d="M39.9,151.05L39.9,150.85Q43.77,150.72 45.7,150.62C47.63,150.52 49.56,150.4 51.49,150.23C53.42,150.06 55.36,149.85 57.29,149.59C59.22,149.33 61.15,149.03 63.08,148.69C65.02,148.35 66.95,147.96 68.88,147.55C70.82,147.14 72.75,146.69 74.68,146.25C76.61,145.81 78.54,145.35 80.47,144.92C82.4,144.5 84.33,144.07 86.27,143.7C88.2,143.33 90.13,142.98 92.06,142.68C93.99,142.38 95.93,142.11 97.86,141.88C99.79,141.65 101.72,141.46 103.65,141.29C105.58,141.12 107.52,140.98 109.45,140.86C111.38,140.74 113.32,140.65 115.25,140.58C117.18,140.51 119.11,140.47 121.04,140.43C122.97,140.39 124.91,140.37 126.84,140.34C128.77,140.31 130.7,140.29 132.63,140.23C134.56,140.17 136.5,140.09 138.43,139.97C140.36,139.85 142.3,139.69 144.23,139.52C146.16,139.34 148.09,139.12 150.02,138.92C151.95,138.72 153.89,138.49 155.82,138.32C157.75,138.15 159.68,137.99 161.61,137.91C163.54,137.83 165.48,137.8 167.41,137.85C169.34,137.9 171.28,138.02 173.21,138.2C175.14,138.38 177.07,138.63 179,138.91C180.94,139.19 182.87,139.53 184.8,139.86C186.73,140.19 188.66,140.56 190.59,140.89C192.52,141.21 194.45,141.54 196.39,141.81C198.32,142.08 200.26,142.34 202.19,142.53C204.12,142.72 206.05,142.87 207.98,142.96C209.91,143.05 211.85,143.08 213.78,143.05C215.71,143.02 217.64,142.94 219.57,142.79C221.5,142.64 223.44,142.43 225.37,142.17C227.3,141.91 229.23,141.6 231.16,141.25C233.1,140.9 235.03,140.49 236.96,140.09C238.89,139.69 240.83,139.25 242.76,138.84C244.69,138.43 246.62,138.01 248.55,137.65C250.48,137.29 252.41,136.94 254.35,136.66C256.28,136.38 258.21,136.15 260.14,135.98C262.07,135.81 264.01,135.71 265.94,135.64C267.87,135.57 269.81,135.57 271.74,135.57C273.67,135.57 275.6,135.63 277.53,135.65C279.46,135.67 281.4,135.71 283.33,135.68C285.26,135.65 287.19,135.61 289.12,135.48C291.05,135.35 292.99,135.16 294.92,134.88C296.86,134.6 298.8,134.24 300.72,133.79C302.66,133.34 304.59,132.8 306.51,132.16C308.46,131.51 310.4,130.77 312.31,129.92C314.26,129.05 316.19,128.08 318.1,127C320.06,125.89 321.99,124.67 323.9,123.36C325.86,122.01 327.79,120.53 329.7,119.01C331.65,117.45 333.57,115.77 335.49,114.11C337.43,112.43 339.35,110.66 341.29,108.99C343.21,107.33 345.12,105.63 347.08,104.12C348.98,102.66 350.9,101.22 352.88,100.06C354.77,98.96 356.7,97.97 358.67,97.29C360.57,96.64 362.53,96.22 364.47,96.01C366.39,95.8 368.34,95.9 370.27,96.03C372.2,96.16 374.13,96.52 376.06,96.77C377.99,97.02 379.92,97.34 381.86,97.53C383.79,97.71 385.72,97.83 387.65,97.88C389.58,97.93 391.52,97.83 393.45,97.82C395.38,97.81 397.32,97.71 399.25,97.83C401.18,97.95 403.13,98.14 405.04,98.53C406.99,98.93 408.93,99.53 410.84,100.22C412.79,100.93 414.71,101.87 416.63,102.75C418.57,103.64 420.49,104.66 422.43,105.55C424.35,106.43 426.28,107.3 428.23,108.04C430.15,108.77 432.08,109.38 434.02,109.98C435.95,110.57 437.89,111.02 439.82,111.61C441.76,112.21 443.7,112.77 445.61,113.55C447.57,114.35 449.52,115.28 451.41,116.38C453.39,117.53 455.32,118.91 457.21,120.37C459.18,121.89 461.08,123.63 463,125.33C464.95,127.05 466.85,128.92 468.8,130.64C470.72,132.33 472.62,134.07 474.59,135.57C476.48,137.01 478.41,138.39 480.39,139.48C482.28,140.52 484.22,141.4 486.18,142.03C488.08,142.64 490.04,143 491.98,143.24C493.9,143.47 495.85,143.46 497.78,143.45C499.71,143.44 501.64,143.27 503.57,143.19C505.5,143.11 507.44,142.98 509.37,142.99C511.3,143 513.23,143.05 515.16,143.22C517.1,143.39 519.03,143.67 520.96,144.01C522.9,144.35 524.83,144.82 526.76,145.27C528.69,145.72 530.62,146.25 532.55,146.72C534.48,147.19 536.41,147.69 538.35,148.11C540.28,148.53 542.2,148.92 544.14,149.24C546.07,149.56 548,149.82 549.94,150.04Q551.87,150.26 555.74,150.54L555.74,151.05" style="vector-effect: none; stroke-width: 2px; stroke: rgb(148, 133, 56); stroke-opacity: 1; fill: rgb(185, 166, 70); fill-opacity: 0.5;"/><path class="meanline" d="M344.54,106.18461608886719V151.05" style="fill: none; vector-effect: none; stroke-width: 2px; stroke-dasharray: 4px, 2px; stroke: rgb(148, 133, 56); stroke-opacity: 1;"/></g><g class="trace violins" style="opacity: 1;"><path class="violin" d="M252.79,129.03L252.79,128.88Q254.18,128.8 254.88,128.74C255.58,128.68 256.27,128.61 256.97,128.53C257.67,128.45 258.36,128.34 259.06,128.24C259.76,128.13 260.45,128.01 261.15,127.9C261.85,127.78 262.54,127.66 263.24,127.55C263.94,127.44 264.63,127.32 265.33,127.23C266.03,127.14 266.72,127.06 267.42,126.99C268.12,126.93 268.81,126.88 269.51,126.84C270.21,126.81 270.9,126.79 271.6,126.78C272.3,126.77 273,126.78 273.7,126.81C274.4,126.84 275.09,126.88 275.79,126.94C276.49,127 277.18,127.07 277.88,127.15C278.58,127.23 279.27,127.32 279.97,127.42C280.67,127.52 281.36,127.64 282.06,127.74C282.76,127.84 283.45,127.95 284.15,128.04C284.85,128.13 285.54,128.22 286.24,128.28C286.94,128.34 287.63,128.39 288.33,128.42C289.03,128.45 289.72,128.46 290.42,128.46C291.12,128.46 291.81,128.43 292.51,128.4C293.21,128.37 293.91,128.32 294.61,128.26C295.31,128.2 296,128.12 296.7,128.05C297.4,127.97 298.09,127.89 298.79,127.81C299.49,127.73 300.18,127.64 300.88,127.55C301.58,127.46 302.27,127.37 302.97,127.29C303.67,127.21 304.36,127.13 305.06,127.06C305.76,126.99 306.45,126.93 307.15,126.89C307.85,126.85 308.54,126.82 309.24,126.8C309.94,126.78 310.63,126.78 311.33,126.79C312.03,126.8 312.72,126.82 313.42,126.84C314.12,126.86 314.81,126.89 315.51,126.9C316.21,126.91 316.91,126.93 317.61,126.92C318.31,126.91 319,126.88 319.7,126.83C320.4,126.77 321.1,126.69 321.79,126.59C322.49,126.48 323.19,126.35 323.88,126.2C324.58,126.05 325.28,125.87 325.97,125.68C326.67,125.48 327.37,125.26 328.06,125.03C328.76,124.8 329.46,124.55 330.15,124.28C330.85,124.01 331.55,123.71 332.24,123.39C332.94,123.07 333.64,122.73 334.33,122.36C335.03,121.98 335.73,121.57 336.42,121.12C337.13,120.66 337.82,120.17 338.51,119.64C339.22,119.09 339.92,118.5 340.61,117.87C341.32,117.22 342.02,116.51 342.7,115.78C343.41,115.02 344.1,114.21 344.79,113.39C345.5,112.55 346.18,111.66 346.88,110.79C347.58,109.92 348.27,109.02 348.97,108.16C349.66,107.31 350.35,106.46 351.06,105.67C351.74,104.92 352.43,104.17 353.15,103.53C353.83,102.92 354.52,102.34 355.24,101.89C355.92,101.47 356.62,101.09 357.33,100.86C358.01,100.64 358.72,100.51 359.42,100.49C360.12,100.47 360.82,100.58 361.51,100.73C362.22,100.89 362.92,101.16 363.61,101.44C364.32,101.72 365,102.09 365.7,102.41C366.4,102.73 367.08,103.1 367.79,103.36C368.48,103.61 369.18,103.87 369.88,103.96C370.57,104.05 371.29,104.06 371.97,103.9C372.68,103.73 373.4,103.39 374.06,102.95C374.8,102.46 375.48,101.76 376.15,101.04C376.88,100.24 377.56,99.28 378.24,98.33C378.96,97.33 379.63,96.23 380.33,95.17C381.03,94.11 381.71,93.02 382.42,91.98C383.11,90.97 383.8,89.98 384.51,89.04C385.2,88.14 385.9,87.28 386.61,86.44C387.3,85.62 388,84.85 388.7,84.07C389.39,83.3 390.09,82.53 390.79,81.78C391.48,81.03 392.18,80.28 392.88,79.56C393.57,78.86 394.26,78.15 394.97,77.52C395.65,76.91 396.34,76.31 397.06,75.82C397.74,75.36 398.44,74.94 399.15,74.64C399.83,74.35 400.54,74.13 401.24,74.02C401.93,73.92 402.64,73.9 403.33,74C404.03,74.1 404.75,74.3 405.42,74.61C406.14,74.94 406.85,75.4 407.51,75.96C408.25,76.58 408.95,77.36 409.61,78.22C410.35,79.18 411.04,80.3 411.7,81.48C412.44,82.79 413.12,84.26 413.79,85.76C414.51,87.38 415.2,89.13 415.88,90.87C416.59,92.68 417.27,94.58 417.97,96.43C418.67,98.28 419.35,100.17 420.06,101.98C420.74,103.72 421.43,105.46 422.15,107.09C422.83,108.62 423.51,110.1 424.24,111.47C424.91,112.74 425.61,113.93 426.33,115.04C427,116.07 427.7,117.03 428.42,117.93C429.1,118.78 429.8,119.56 430.51,120.31C431.19,121.03 431.9,121.7 432.61,122.34C433.3,122.96 433.99,123.55 434.7,124.1C435.39,124.63 436.08,125.14 436.79,125.59C437.48,126.03 438.17,126.43 438.88,126.78C439.57,127.12 440.27,127.42 440.97,127.67C441.66,127.91 442.36,128.1 443.06,128.26C443.75,128.42 444.45,128.54 445.15,128.64C445.84,128.74 446.54,128.79 447.24,128.84C447.94,128.89 448.63,128.93 449.33,128.95C450.03,128.97 450.72,128.98 451.42,128.98C452.12,128.98 452.81,128.99 453.51,128.98C454.21,128.97 454.91,128.96 455.61,128.93C456.31,128.9 457,128.87 457.7,128.82C458.4,128.77 459.09,128.71 459.79,128.63C460.49,128.55 461.18,128.44 461.88,128.33C462.58,128.21 463.27,128.08 463.97,127.94C464.67,127.8 465.36,127.63 466.06,127.47C466.76,127.32 467.45,127.15 468.15,127.01C468.85,126.87 469.54,126.73 470.24,126.63C470.93,126.53 471.63,126.46 472.33,126.43C473.03,126.4 473.72,126.41 474.42,126.46C475.12,126.51 475.81,126.6 476.51,126.71C477.21,126.82 477.91,126.97 478.61,127.11C479.31,127.25 480,127.42 480.7,127.57C481.4,127.72 482.09,127.88 482.79,128.01C483.49,128.14 484.18,128.27 484.88,128.37C485.58,128.47 486.27,128.56 486.97,128.63C487.67,128.7 488.36,128.75 489.06,128.8C489.76,128.84 490.45,128.87 491.15,128.9C491.85,128.92 492.54,128.94 493.24,128.95C493.94,128.96 494.63,128.96 495.33,128.95C496.03,128.94 496.72,128.92 497.42,128.9C498.12,128.87 498.81,128.85 499.51,128.8C500.21,128.75 500.91,128.7 501.61,128.62C502.31,128.54 503.01,128.45 503.7,128.33C504.4,128.21 505.1,128.07 505.79,127.91C506.49,127.75 507.19,127.57 507.88,127.36C508.58,127.15 509.28,126.91 509.97,126.66C510.67,126.41 511.36,126.13 512.06,125.86C512.76,125.59 513.45,125.31 514.15,125.05C514.84,124.79 515.54,124.53 516.24,124.32C516.93,124.11 517.63,123.92 518.33,123.79C519.02,123.66 519.72,123.56 520.42,123.52C521.12,123.48 521.81,123.49 522.51,123.52C523.21,123.55 523.91,123.62 524.61,123.7C525.31,123.78 526,123.89 526.7,123.98C527.4,124.08 528.09,124.18 528.79,124.27C529.49,124.35 530.18,124.43 530.88,124.49C531.58,124.55 532.27,124.6 532.97,124.64C533.67,124.68 534.36,124.71 535.06,124.74C535.76,124.77 536.45,124.78 537.15,124.8C537.85,124.82 538.54,124.84 539.24,124.87C539.94,124.9 540.63,124.93 541.33,124.97C542.03,125.01 542.72,125.06 543.42,125.12C544.12,125.18 544.81,125.26 545.51,125.34C546.21,125.43 546.91,125.52 547.61,125.63C548.31,125.74 549,125.86 549.7,125.99C550.4,126.12 551.09,126.26 551.79,126.39C552.49,126.52 553.18,126.65 553.88,126.77C554.58,126.88 555.27,126.99 555.97,127.08C556.67,127.17 557.36,127.24 558.06,127.3C558.76,127.36 559.45,127.39 560.15,127.42C560.85,127.45 561.54,127.46 562.24,127.47C562.94,127.48 563.63,127.48 564.33,127.49C565.03,127.5 565.72,127.5 566.42,127.52C567.12,127.54 567.81,127.56 568.51,127.59C569.21,127.62 569.91,127.65 570.61,127.68C571.31,127.71 572,127.75 572.7,127.75C573.4,127.75 574.09,127.75 574.79,127.71C575.49,127.67 576.19,127.61 576.88,127.5C577.58,127.39 578.28,127.24 578.97,127.07C579.67,126.9 580.37,126.68 581.06,126.46C581.76,126.24 582.45,125.97 583.15,125.73C583.85,125.49 584.54,125.24 585.24,125.02C585.93,124.8 586.63,124.59 587.33,124.43C588.02,124.27 588.72,124.14 589.42,124.04C590.11,123.94 590.81,123.88 591.51,123.84C592.21,123.8 592.91,123.8 593.61,123.81C594.31,123.82 595,123.86 595.7,123.91C596.4,123.97 597.1,124.04 597.79,124.14C598.49,124.24 599.19,124.37 599.88,124.52C600.58,124.67 601.28,124.86 601.97,125.05C602.67,125.24 603.36,125.46 604.06,125.67C604.76,125.88 605.45,126.11 606.15,126.3C606.84,126.49 607.54,126.68 608.24,126.83C608.93,126.98 609.63,127.11 610.33,127.2C611.02,127.29 611.72,127.34 612.42,127.39C613.12,127.43 613.81,127.45 614.51,127.47C615.21,127.49 615.91,127.49 616.61,127.51C617.31,127.53 618,127.54 618.7,127.57C619.4,127.6 620.09,127.63 620.79,127.67C621.49,127.71 622.18,127.75 622.88,127.79C623.58,127.83 624.27,127.87 624.97,127.91C625.67,127.95 626.36,127.98 627.06,128.01C627.76,128.04 628.45,128.06 629.15,128.09C629.85,128.12 630.54,128.14 631.24,128.17C631.94,128.2 632.63,128.23 633.33,128.27C634.03,128.31 634.72,128.36 635.42,128.4C636.12,128.45 636.81,128.49 637.51,128.54C638.21,128.59 638.91,128.64 639.61,128.68C640.31,128.72 641,128.76 641.7,128.8C642.4,128.83 643.09,128.87 643.79,128.89C644.49,128.91 645.18,128.93 645.88,128.94C646.58,128.95 647.27,128.96 647.97,128.96C648.67,128.96 649.36,128.96 650.06,128.95C650.76,128.94 651.45,128.93 652.15,128.91C652.85,128.89 653.54,128.86 654.24,128.84C654.94,128.81 655.63,128.79 656.33,128.76C657.03,128.73 657.72,128.71 658.42,128.68C659.12,128.66 659.81,128.63 660.51,128.61C661.21,128.59 661.91,128.58 662.61,128.58C663.31,128.58 664,128.57 664.7,128.58C665.4,128.59 666.09,128.61 666.79,128.63C667.49,128.65 668.18,128.68 668.88,128.71C669.58,128.74 670.27,128.76 670.97,128.79C671.67,128.82 672.36,128.85 673.06,128.87C673.76,128.89 674.45,128.91 675.15,128.93C675.85,128.95 676.54,128.97 677.24,128.98Q677.94,128.99 679.33,129.01L679.33,129.03" style="vector-effect: none; stroke-width: 2px; stroke: rgb(30, 138, 174); stroke-opacity: 1; fill: rgb(37, 173, 218); fill-opacity: 0.5;"/><path class="meanline" d="M405.34,74.57356262207031V129.03" style="fill: none; vector-effect: none; stroke-width: 2px; stroke-dasharray: 4px, 2px; stroke: rgb(30, 138, 174); stroke-opacity: 1;"/></g><g class="trace violins" style="opacity: 1;"><path class="violin" d="M206.47,107.02L206.47,106.59Q212.05,106.34 214.84,106.14C217.63,105.93 220.42,105.69 223.21,105.36C226,105.03 228.8,104.64 231.58,104.15C234.37,103.66 237.16,103.09 239.94,102.43C242.74,101.76 245.53,101 248.31,100.16C251.11,99.32 253.9,98.38 256.68,97.39C259.48,96.39 262.27,95.3 265.05,94.2C267.85,93.09 270.63,91.91 273.42,90.75C276.21,89.59 278.99,88.37 281.79,87.24C284.57,86.11 287.36,84.97 290.16,83.96C292.94,82.96 295.72,82 298.53,81.22C301.3,80.45 304.1,79.78 306.9,79.3C309.68,78.82 312.48,78.51 315.27,78.33C318.06,78.15 320.85,78.15 323.64,78.2C326.43,78.25 329.22,78.45 332.01,78.62C334.8,78.79 337.59,79.04 340.38,79.23C343.17,79.42 345.96,79.61 348.75,79.77C351.54,79.93 354.33,80.03 357.12,80.18C359.91,80.33 362.7,80.43 365.49,80.65C368.28,80.87 371.08,81.11 373.86,81.5C376.66,81.89 379.45,82.37 382.23,82.98C385.03,83.59 387.82,84.36 390.6,85.17C393.4,85.99 396.18,86.96 398.97,87.89C401.76,88.82 404.54,89.86 407.34,90.76C410.12,91.66 412.9,92.59 415.71,93.29C418.48,93.98 421.28,94.63 424.08,94.96C426.86,95.29 429.67,95.46 432.45,95.28C435.25,95.1 438.07,94.65 440.82,93.87C443.66,93.06 446.47,91.88 449.19,90.46C452.05,88.97 454.83,87.07 457.56,85.04C460.42,82.91 463.18,80.41 465.93,77.91C468.76,75.34 471.5,72.48 474.3,69.8C477.08,67.13 479.81,64.28 482.67,61.85C485.4,59.53 488.14,57.14 491.04,55.47C493.73,53.92 496.56,52.51 499.41,51.98C502.15,51.47 505.06,51.56 507.78,52.21C510.64,52.89 513.46,54.47 516.15,56.17C519.06,58 521.79,60.53 524.52,62.98C527.37,65.53 530.09,68.49 532.89,71.21C535.67,73.92 538.41,76.8 541.26,79.29C543.99,81.67 546.75,84.04 549.63,85.89C552.34,87.63 555.14,89.18 558,90.18C560.73,91.14 563.57,91.72 566.37,91.88C569.15,92.04 571.98,91.71 574.74,91.18C577.56,90.64 580.34,89.64 583.11,88.65C585.93,87.64 588.69,86.33 591.48,85.16C594.27,83.99 597.04,82.69 599.85,81.64C602.62,80.61 605.4,79.6 608.22,78.91C610.98,78.23 613.79,77.73 616.59,77.5C619.37,77.27 622.17,77.31 624.95,77.52C627.75,77.73 630.54,78.21 633.32,78.76C636.12,79.32 638.91,80.08 641.69,80.87C644.49,81.67 647.28,82.59 650.06,83.54C652.86,84.5 655.65,85.53 658.43,86.59C661.23,87.65 664.01,88.78 666.8,89.91C669.59,91.04 672.38,92.22 675.17,93.36C677.96,94.5 680.74,95.67 683.54,96.74C686.32,97.81 689.11,98.86 691.91,99.79C694.69,100.71 697.48,101.57 700.28,102.31C703.06,103.04 705.85,103.66 708.65,104.19C711.43,104.71 714.22,105.12 717.02,105.46C719.81,105.8 722.6,106.03 725.39,106.23Q728.18,106.43 733.76,106.66L733.76,107.02" style="vector-effect: none; stroke-width: 2px; stroke: rgb(90, 114, 107); stroke-opacity: 1; fill: rgb(112, 143, 134); fill-opacity: 0.5;"/><path class="meanline" d="M474.17,69.9256820678711V107.02" style="fill: none; vector-effect: none; stroke-width: 2px; stroke-dasharray: 4px, 2px; stroke: rgb(90, 114, 107); stroke-opacity: 1;"/></g><g class="trace violins" style="opacity: 1;"><path class="violin" d="M356.45,85L356.45,84.67Q360.71,84.48 362.83,84.32C364.96,84.16 367.08,83.98 369.2,83.7C371.33,83.42 373.46,83.1 375.58,82.65C377.71,82.2 379.85,81.67 381.95,80.98C384.1,80.27 386.24,79.45 388.33,78.43C390.49,77.37 392.63,76.14 394.7,74.7C396.89,73.18 399.01,71.42 401.08,69.51C403.27,67.48 405.37,65.17 407.45,62.79C409.63,60.29 411.72,57.52 413.83,54.81C415.97,52.05 418.05,49.09 420.2,46.35C422.3,43.68 424.36,40.91 426.58,38.58C428.63,36.43 430.71,34.26 432.96,32.8C434.98,31.48 437.16,30.37 439.33,29.97C441.41,29.59 443.64,29.79 445.71,30.33C447.89,30.9 450.02,32.15 452.08,33.42C454.28,34.78 456.37,36.58 458.46,38.32C460.62,40.11 462.71,42.13 464.83,44.04C466.96,45.95 469.06,47.93 471.21,49.77C473.31,51.57 475.42,53.36 477.58,54.96C479.67,56.51 481.79,57.98 483.96,59.24C486.05,60.45 488.17,61.54 490.33,62.4C492.42,63.23 494.57,63.88 496.71,64.35C498.82,64.81 500.95,65.07 503.08,65.22C505.2,65.37 507.33,65.33 509.46,65.26C511.59,65.19 513.72,64.98 515.84,64.77C517.97,64.56 520.09,64.29 522.21,64.02C524.34,63.75 526.46,63.46 528.59,63.16C530.71,62.86 532.84,62.57 534.96,62.24C537.09,61.91 539.22,61.58 541.34,61.19C543.47,60.8 545.59,60.39 547.71,59.88C549.84,59.37 551.98,58.8 554.09,58.13C556.23,57.46 558.35,56.67 560.46,55.85C562.6,55.02 564.72,54.06 566.84,53.15C568.97,52.24 571.07,51.23 573.21,50.38C575.32,49.54 577.44,48.68 579.59,48.1C581.69,47.54 583.83,47.06 585.96,46.93C588.08,46.81 590.24,46.93 592.34,47.34C594.49,47.76 596.64,48.54 598.72,49.46C600.89,50.42 603,51.73 605.09,53.06C607.25,54.43 609.35,56.04 611.47,57.57C613.6,59.12 615.7,60.77 617.84,62.3C619.95,63.81 622.06,65.33 624.22,66.67C626.32,67.98 628.43,69.21 630.59,70.26C632.69,71.28 634.82,72.19 636.97,72.92C639.07,73.63 641.2,74.2 643.34,74.61C645.45,75.02 647.59,75.28 649.72,75.4C651.84,75.52 653.97,75.48 656.09,75.35C658.22,75.22 660.35,74.94 662.47,74.62C664.6,74.29 666.72,73.83 668.84,73.4C670.97,72.97 673.09,72.45 675.22,72.02C677.34,71.6 679.47,71.15 681.6,70.85C683.72,70.55 685.84,70.31 687.97,70.24C690.09,70.17 692.23,70.21 694.35,70.41C696.48,70.61 698.61,70.97 700.72,71.43C702.86,71.89 704.98,72.52 707.1,73.17C709.24,73.83 711.35,74.61 713.47,75.37C715.6,76.13 717.72,76.96 719.85,77.71C721.97,78.46 724.09,79.22 726.22,79.89C728.34,80.55 730.47,81.16 732.6,81.69C734.72,82.21 736.84,82.66 738.97,83.03C741.09,83.4 743.22,83.69 745.35,83.93C747.47,84.17 749.59,84.33 751.72,84.47Q753.84,84.61 758.1,84.76L758.1,85" style="vector-effect: none; stroke-width: 2px; stroke: rgb(144, 60, 130); stroke-opacity: 1; fill: rgb(180, 75, 162); fill-opacity: 0.5;"/><path class="meanline" d="M527.62,63.29558181762695V85" style="fill: none; vector-effect: none; stroke-width: 2px; stroke-dasharray: 4px, 2px; stroke: rgb(144, 60, 130); stroke-opacity: 1;"/></g><g class="trace violins" style="opacity: 1;"><path class="violin" d="M402.31,62.99L402.31,62.97Q405.1,62.97 406.49,62.96C407.88,62.96 409.27,62.95 410.66,62.94C412.05,62.93 413.44,62.93 414.83,62.92C416.22,62.91 417.61,62.9 419,62.89C420.39,62.88 421.79,62.87 423.18,62.87C424.57,62.87 425.96,62.87 427.35,62.87C428.74,62.87 430.13,62.87 431.52,62.87C432.91,62.87 434.3,62.88 435.69,62.89C437.08,62.9 438.47,62.9 439.86,62.91C441.25,62.92 442.65,62.93 444.04,62.94C445.43,62.95 446.82,62.95 448.21,62.95C449.6,62.95 450.99,62.96 452.38,62.96C453.77,62.96 455.16,62.96 456.55,62.96C457.94,62.96 459.33,62.95 460.72,62.94C462.11,62.93 463.51,62.91 464.9,62.89C466.29,62.87 467.68,62.84 469.07,62.81C470.46,62.78 471.85,62.74 473.24,62.69C474.63,62.64 476.02,62.58 477.41,62.5C478.8,62.42 480.2,62.33 481.59,62.23C482.98,62.13 484.37,62.02 485.76,61.88C487.15,61.74 488.54,61.58 489.93,61.41C491.32,61.24 492.71,61.05 494.1,60.84C495.49,60.63 496.88,60.41 498.27,60.16C499.66,59.91 501.06,59.64 502.45,59.34C503.84,59.04 505.24,58.71 506.62,58.34C508.02,57.96 509.41,57.55 510.79,57.08C512.19,56.61 513.58,56.08 514.96,55.51C516.36,54.93 517.75,54.3 519.14,53.64C520.54,52.98 521.92,52.26 523.31,51.55C524.7,50.84 526.08,50.09 527.48,49.4C528.87,48.71 530.25,48.01 531.65,47.4C533.03,46.8 534.42,46.22 535.82,45.74C537.2,45.26 538.6,44.85 540,44.52C541.38,44.19 542.78,43.96 544.17,43.75C545.56,43.54 546.95,43.43 548.34,43.28C549.73,43.13 551.12,43.04 552.51,42.86C553.9,42.67 555.3,42.49 556.68,42.17C558.08,41.84 559.49,41.43 560.86,40.91C562.27,40.37 563.66,39.71 565.03,38.98C566.44,38.23 567.82,37.34 569.2,36.46C570.6,35.57 571.97,34.58 573.37,33.68C574.76,32.79 576.14,31.86 577.55,31.07C578.92,30.31 580.31,29.58 581.72,29.02C583.09,28.48 584.49,28.04 585.89,27.75C587.27,27.47 588.67,27.33 590.06,27.31C591.45,27.29 592.85,27.42 594.23,27.62C595.63,27.82 597.03,28.16 598.41,28.53C599.81,28.9 601.2,29.38 602.58,29.85C603.98,30.33 605.36,30.88 606.75,31.38C608.14,31.88 609.52,32.43 610.92,32.86C612.3,33.28 613.69,33.71 615.09,33.94C616.47,34.17 617.88,34.34 619.27,34.25C620.67,34.16 622.08,33.9 623.44,33.42C624.87,32.92 626.27,32.13 627.61,31.23C629.06,30.26 630.43,29 631.78,27.71C633.22,26.34 634.58,24.74 635.96,23.18C637.37,21.59 638.72,19.86 640.13,18.26C641.51,16.7 642.86,15.08 644.3,13.7C645.65,12.41 647.02,11.13 648.47,10.2C649.81,9.35 651.21,8.61 652.64,8.24C654,7.89 655.44,7.81 656.82,7.95C658.22,8.09 659.63,8.57 660.99,9.09C662.41,9.63 663.79,10.42 665.16,11.19C666.57,11.97 667.94,12.88 669.33,13.75C670.73,14.63 672.12,15.53 673.51,16.43C674.9,17.33 676.29,18.21 677.68,19.13C679.07,20.05 680.47,20.98 681.85,21.95C683.25,22.94 684.64,23.96 686.02,25.01C687.42,26.08 688.81,27.2 690.19,28.33C691.59,29.47 692.98,30.65 694.37,31.81C695.76,32.96 697.14,34.13 698.54,35.26C699.92,36.37 701.31,37.47 702.71,38.53C704.09,39.57 705.48,40.58 706.88,41.57C708.26,42.55 709.66,43.48 711.05,44.42C712.44,45.36 713.84,46.28 715.23,47.21C716.62,48.14 718.01,49.07 719.4,50C720.79,50.93 722.17,51.87 723.57,52.77C724.95,53.66 726.34,54.56 727.74,55.39C729.12,56.2 730.51,57 731.92,57.7C733.3,58.39 734.69,59.02 736.09,59.57C737.47,60.1 738.86,60.56 740.26,60.95C741.64,61.33 743.03,61.63 744.43,61.88C745.81,62.13 747.21,62.29 748.6,62.43Q749.99,62.57 752.78,62.73L752.78,62.99" style="vector-effect: none; stroke-width: 2px; stroke: rgb(78, 50, 154); stroke-opacity: 1; fill: rgb(97, 62, 193); fill-opacity: 0.5;"/><path class="meanline" d="M628.91,30.273563385009766V62.99" style="fill: none; vector-effect: none; stroke-width: 2px; stroke-dasharray: 4px, 2px; stroke: rgb(78, 50, 154); stroke-opacity: 1;"/></g></g></g><g class="overplot"/><path class="xlines-above crisp" d="M0,0" style="fill: none;"/><path class="ylines-above crisp" d="M0,0" style="fill: none;"/><g class="overlines-above"/><g class="xaxislayer-above"><g class="xtick"><text text-anchor="middle" x="0" y="172" transform="translate(58.63,0)" style="font-family: 'Open Sans', verdana, arial, sans-serif; font-size: 12px; fill: rgb(242, 245, 250); fill-opacity: 1; white-space: pre; opacity: 1;">0</text></g><g class="xtick"><text text-anchor="middle" x="0" y="172" style="font-family: 'Open Sans', verdana, arial, sans-serif; font-size: 12px; fill: rgb(242, 245, 250); fill-opacity: 1; white-space: pre; opacity: 1;" transform="translate(139.71,0)">20</text></g><g class="xtick"><text text-anchor="middle" x="0" y="172" style="font-family: 'Open Sans', verdana, arial, sans-serif; font-size: 12px; fill: rgb(242, 245, 250); fill-opacity: 1; white-space: pre; opacity: 1;" transform="translate(220.79,0)">40</text></g><g class="xtick"><text text-anchor="middle" x="0" y="172" style="font-family: 'Open Sans', verdana, arial, sans-serif; font-size: 12px; fill: rgb(242, 245, 250); fill-opacity: 1; white-space: pre; opacity: 1;" transform="translate(301.87,0)">60</text></g><g class="xtick"><text text-anchor="middle" x="0" y="172" style="font-family: 'Open Sans', verdana, arial, sans-serif; font-size: 12px; fill: rgb(242, 245, 250); fill-opacity: 1; white-space: pre; opacity: 1;" transform="translate(382.95,0)">80</text></g><g class="xtick"><text text-anchor="middle" x="0" y="172" style="font-family: 'Open Sans', verdana, arial, sans-serif; font-size: 12px; fill: rgb(242, 245, 250); fill-opacity: 1; white-space: pre; opacity: 1;" transform="translate(464.03,0)">100</text></g><g class="xtick"><text text-anchor="middle" x="0" y="172" style="font-family: 'Open Sans', verdana, arial, sans-serif; font-size: 12px; fill: rgb(242, 245, 250); fill-opacity: 1; white-space: pre; opacity: 1;" transform="translate(545.11,0)">120</text></g><g class="xtick"><text text-anchor="middle" x="0" y="172" style="font-family: 'Open Sans', verdana, arial, sans-serif; font-size: 12px; fill: rgb(242, 245, 250); fill-opacity: 1; white-space: pre; opacity: 1;" transform="translate(626.19,0)">140</text></g><g class="xtick"><text text-anchor="middle" x="0" y="172" style="font-family: 'Open Sans', verdana, arial, sans-serif; font-size: 12px; fill: rgb(242, 245, 250); fill-opacity: 1; white-space: pre; opacity: 1;" transform="translate(707.27,0)">160</text></g><g class="xtick"><text text-anchor="middle" x="0" y="172" style="font-family: 'Open Sans', verdana, arial, sans-serif; font-size: 12px; fill: rgb(242, 245, 250); fill-opacity: 1; white-space: pre; opacity: 1;" transform="translate(788.35,0)">180</text></g></g><g class="yaxislayer-above"/><g class="overaxes-above"/></g></g><g class="polarlayer"/><g class="smithlayer"/><g class="ternarylayer"/><g class="geolayer"/><g class="funnelarealayer"/><g class="pielayer"/><g class="iciclelayer"/><g class="treemaplayer"/><g class="sunburstlayer"/><g class="glimages"/><defs id="topdefs-e77129"><g class="clips"/></defs><g class="layer-above"><g class="imagelayer"/><g class="shapelayer"/></g><g class="infolayer"><g class="g-gtitle"/><g class="g-xtitle" transform="translate(0,-2.3000000000000114)"><text class="xtitle" x="399" y="199.3" text-anchor="middle" style="font-family: 'Open Sans', verdana, arial, sans-serif; font-size: 14px; fill: rgb(242, 245, 250); opacity: 1; white-space: pre;">Max Energy</text></g><g class="g-ytitle"/></g></svg>