<svg class="main-svg" xmlns="http://www.w3.org/2000/svg" xmlns:xlink="http://www.w3.org/1999/xlink" width="800" height="200" style="" viewBox="0 0 800 200"><rect x="0" y="0" width="800" height="200" style="fill: rgb(0, 0, 0); fill-opacity: 0;"/><defs id="defs-fa7508"><g class="clips"><clipPath id="clipfa7508xyplot" class="plotclip"><rect width="800" height="159"/></clipPath><clipPath class="axesclip" id="clipfa7508x"><rect x="0" y="0" width="800" height="200"/></clipPath><clipPath class="axesclip" id="clipfa7508y"><rect x="0" y="0" width="800" height="159"/></clipPath><clipPath class="axesclip" id="clipfa7508xy"><rect x="0" y="0" width="800" height="159"/></clipPath></g><g class="gradients"/><g class="patterns"/></defs><g class="bglayer"><rect class="bg" x="0" y="0" width="800" height="159" style="fill: rgb(0, 0, 0); fill-opacity: 0; stroke-width: 0;"/></g><g class="layer-below"><g class="imagelayer"/><g class="shapelayer"/></g><g class="cartesianlayer"><g class="subplot xy"><g class="layer-subplot"><g class="shapelayer"/><g class="imagelayer"/></g><g class="minor-gridlayer"><g class="x"/><g class="y"/></g><g class="gridlayer"><g class="x"><path class="xgrid crisp" transform="translate(187.75,0)" d="M0,0v159" style="stroke: rgb(40, 52, 66); stroke-opacity: 1; stroke-width: 1px;"/><path class="xgrid crisp" transform="translate(318.5,0)" d="M0,0v159" style="stroke: rgb(40, 52, 66); stroke-opacity: 1; stroke-width: 1px;"/><path class="xgrid crisp" transform="translate(449.24,0)" d="M0,0v159" style="stroke: rgb(40, 52, 66); stroke-opacity: 1; stroke-width: 1px;"/><path class="xgrid crisp" transform="translate(579.99,0)" d="M0,0v159" style="stroke: rgb(40, 52, 66); stroke-opacity: 1; stroke-width: 1px;"/><path class="xgrid crisp" transform="translate(710.73,0)" d="M0,0v159" style="stroke: rgb(40, 52, 66); stroke-opacity: 1; stroke-width: 1px;"/></g><g class="y"/></g><g class="zerolinelayer"><path class="xzl zl crisp" transform="translate(57,0)" d="M0,0v159" style="stroke: rgb(40, 52, 66); stroke-opacity: 1; stroke-width: 2px;"/></g><g class="layer-between"><g class="shapelayer"/><g class="imagelayer"/></g><path class="xlines-below"/><path class="ylines-below"/><g class="overlines-below"/><g class="xaxislayer-below"/><g class="yaxislayer-below"/><g class="overaxes-below"/><g class="plot" transform="" clip-path="url(#clipfa7508xyplot)"><g class="violinlayer mlayer"><g class="trace violins" style="opacity: 1;"><path class="violin" d="M40,151.05L40,150.83Q42.17,150.7 43.25,150.59C44.33,150.48 45.42,150.35 46.5,150.17C47.59,149.99 48.67,149.78 49.75,149.52C50.84,149.26 51.92,148.96 53,148.63C54.09,148.29 55.17,147.9 56.25,147.51C57.34,147.12 58.42,146.69 59.5,146.29C60.58,145.89 61.66,145.47 62.75,145.1C63.83,144.73 64.91,144.38 66,144.07C67.08,143.77 68.16,143.5 69.25,143.27C70.33,143.04 71.41,142.87 72.5,142.71C73.58,142.55 74.67,142.42 75.75,142.29C76.83,142.16 77.92,142.04 79,141.91C80.08,141.78 81.17,141.65 82.25,141.5C83.33,141.35 84.42,141.18 85.5,141.01C86.58,140.84 87.67,140.66 88.75,140.49C89.83,140.32 90.92,140.15 92,140.01C93.08,139.87 94.17,139.74 95.25,139.67C96.33,139.6 97.42,139.55 98.5,139.58C99.58,139.61 100.67,139.69 101.75,139.84C102.84,139.99 103.92,140.21 105,140.48C106.09,140.75 107.17,141.1 108.25,141.45C109.34,141.81 110.42,142.23 111.5,142.62C112.58,143.01 113.66,143.44 114.75,143.81C115.83,144.18 116.91,144.55 118,144.86C119.08,145.17 120.16,145.45 121.25,145.67C122.33,145.89 123.41,146.06 124.5,146.19C125.58,146.32 126.67,146.4 127.75,146.44C128.83,146.48 129.92,146.49 131,146.46C132.08,146.43 133.17,146.37 134.25,146.28C135.33,146.19 136.42,146.07 137.5,145.92C138.59,145.77 139.67,145.59 140.75,145.39C141.84,145.19 142.92,144.96 144,144.73C145.08,144.5 146.17,144.25 147.25,144.01C148.33,143.78 149.42,143.54 150.5,143.32C151.58,143.1 152.67,142.89 153.75,142.71C154.83,142.53 155.92,142.37 157,142.22C158.08,142.07 159.17,141.94 160.25,141.81C161.33,141.69 162.42,141.57 163.5,141.47C164.58,141.37 165.67,141.27 166.75,141.23C167.83,141.19 168.92,141.17 170,141.24C171.09,141.31 172.17,141.44 173.25,141.66C174.34,141.89 175.43,142.21 176.5,142.59C177.6,142.98 178.67,143.47 179.75,143.97C180.84,144.48 181.92,145.06 183,145.61C184.08,146.15 185.16,146.74 186.25,147.24C187.33,147.74 188.41,148.22 189.5,148.62C190.57,149.02 191.66,149.36 192.75,149.64C193.83,149.92 194.91,150.13 196,150.31C197.08,150.49 198.17,150.6 199.25,150.7C200.33,150.8 201.42,150.85 202.5,150.9C203.58,150.95 204.67,150.97 205.75,150.99C206.83,151.01 207.92,151.02 209,151.02C210.08,151.02 211.17,151.02 212.25,151.02C213.33,151.02 214.42,151.01 215.5,150.99C216.58,150.97 217.67,150.94 218.75,150.9C219.83,150.86 220.92,150.81 222,150.73C223.08,150.65 224.17,150.56 225.25,150.42C226.34,150.28 227.42,150.12 228.5,149.91C229.59,149.7 230.67,149.45 231.75,149.15C232.84,148.85 233.92,148.49 235,148.11C236.09,147.72 237.17,147.28 238.25,146.83C239.34,146.37 240.42,145.88 241.5,145.39C242.59,144.89 243.67,144.38 244.75,143.86C245.84,143.34 246.92,142.82 248,142.26C249.09,141.7 250.18,141.15 251.25,140.5C252.35,139.83 253.45,139.14 254.5,138.31C255.62,137.44 256.71,136.46 257.75,135.36C258.88,134.17 259.96,132.81 261,131.36C262.13,129.78 263.2,128.02 264.25,126.22C265.37,124.31 266.43,122.24 267.5,120.2C268.6,118.12 269.66,115.93 270.75,113.84C271.82,111.79 272.88,109.72 274,107.8C275.05,105.99 276.11,104.2 277.25,102.64C278.29,101.22 279.35,99.82 280.51,98.76C281.54,97.82 282.62,96.92 283.76,96.47C284.8,96.06 285.95,95.84 287.01,96.01C288.12,96.19 289.25,96.83 290.26,97.6C291.44,98.49 292.49,99.85 293.51,101.22C294.67,102.77 295.71,104.65 296.76,106.51C297.88,108.49 298.93,110.67 300.01,112.76C301.1,114.85 302.15,117.04 303.26,119.06C304.32,120.98 305.37,122.9 306.51,124.6C307.55,126.15 308.61,127.65 309.76,128.88C310.79,129.98 311.87,130.98 313.01,131.71C314.05,132.37 315.15,132.87 316.26,133.16C317.32,133.44 318.43,133.5 319.51,133.48C320.59,133.46 321.68,133.24 322.76,133.05C323.85,132.86 324.92,132.54 326.01,132.35C327.09,132.16 328.17,131.94 329.26,131.89C330.34,131.84 331.44,131.88 332.51,132.06C333.6,132.24 334.69,132.59 335.76,132.99C336.86,133.4 337.94,133.96 339.01,134.51C340.1,135.07 341.17,135.72 342.26,136.3C343.34,136.88 344.42,137.48 345.51,138.01C346.58,138.53 347.67,139.01 348.76,139.44C349.84,139.87 350.92,140.23 352.01,140.59C353.09,140.95 354.18,141.26 355.26,141.6C356.34,141.94 357.43,142.26 358.51,142.62C359.6,142.98 360.68,143.35 361.76,143.75C362.85,144.15 363.93,144.58 365.01,145C366.09,145.42 367.18,145.87 368.26,146.29C369.34,146.71 370.42,147.15 371.51,147.54C372.59,147.93 373.67,148.29 374.76,148.62C375.84,148.95 376.92,149.25 378.01,149.5C379.09,149.75 380.17,149.95 381.26,150.13C382.34,150.3 383.43,150.44 384.51,150.55C385.59,150.66 386.68,150.73 387.76,150.8C388.84,150.86 389.93,150.91 391.01,150.94C392.09,150.97 393.18,150.98 394.26,151C395.34,151.01 396.43,151.02 397.51,151.03C398.59,151.04 399.68,151.04 400.76,151.04C401.84,151.04 402.93,151.05 404.01,151.05C405.09,151.05 406.18,151.05 407.26,151.05C408.34,151.05 409.43,151.05 410.51,151.05C411.59,151.05 412.68,151.05 413.76,151.05C414.84,151.05 415.93,151.04 417.01,151.04C418.09,151.04 419.18,151.03 420.26,151.03C421.34,151.02 422.43,151.02 423.51,151.01C424.59,151 425.68,150.99 426.76,150.97C427.84,150.95 428.93,150.93 430.01,150.9C431.09,150.87 432.18,150.83 433.26,150.78C434.34,150.73 435.43,150.67 436.51,150.6C437.59,150.53 438.68,150.45 439.76,150.35C440.84,150.25 441.93,150.14 443.01,150.01C444.09,149.88 445.18,149.73 446.26,149.55C447.35,149.37 448.43,149.17 449.51,148.95C450.6,148.73 451.68,148.48 452.76,148.23C453.84,147.98 454.93,147.7 456.01,147.45C457.09,147.2 458.17,146.93 459.26,146.72C460.34,146.51 461.42,146.31 462.51,146.18C463.59,146.05 464.68,145.96 465.76,145.95C466.84,145.94 467.93,145.99 469.01,146.1C470.1,146.21 471.18,146.4 472.26,146.61C473.35,146.82 474.43,147.11 475.51,147.38C476.6,147.66 477.68,147.97 478.76,148.26C479.84,148.55 480.92,148.84 482.01,149.1C483.09,149.36 484.17,149.6 485.26,149.8C486.34,150 487.42,150.18 488.51,150.32C489.59,150.46 490.68,150.57 491.76,150.66Q492.84,150.75 495.01,150.86L495.01,151.05" style="vector-effect: none; stroke-width: 2px; stroke: rgb(148, 133, 56); stroke-opacity: 1; fill: rgb(185, 166, 70); fill-opacity: 0.5;"/><path class="meanline" d="M259.21,133.70242309570312V151.05" style="fill: none; vector-effect: none; stroke-width: 2px; stroke-dasharray: 4px, 2px; stroke: rgb(148, 133, 56); stroke-opacity: 1;"/></g><g class="trace violins" style="opacity: 1;"><path class="violin" d="M124.68,129.03L124.68,128.75Q128.19,128.6 129.94,128.49C131.69,128.38 133.45,128.24 135.2,128.09C136.95,127.94 138.7,127.75 140.45,127.57C142.2,127.39 143.96,127.17 145.71,126.99C147.46,126.81 149.22,126.61 150.97,126.47C152.72,126.33 154.48,126.2 156.23,126.13C157.98,126.06 159.74,126.02 161.49,126.02C163.24,126.02 165,126.07 166.75,126.1C168.5,126.13 170.26,126.2 172.01,126.2C173.76,126.2 175.52,126.19 177.27,126.07C179.02,125.95 180.78,125.77 182.52,125.46C184.28,125.15 186.04,124.74 187.78,124.21C189.55,123.67 191.3,123 193.04,122.26C194.81,121.5 196.56,120.62 198.3,119.71C200.07,118.79 201.81,117.76 203.56,116.75C205.32,115.73 207.07,114.65 208.82,113.61C210.57,112.57 212.32,111.51 214.08,110.5C215.83,109.5 217.58,108.5 219.34,107.57C221.08,106.65 222.83,105.76 224.59,104.95C226.33,104.15 228.08,103.4 229.85,102.75C231.59,102.11 233.34,101.52 235.11,101.05C236.85,100.58 238.61,100.2 240.37,99.93C242.12,99.67 243.88,99.5 245.63,99.46C247.38,99.42 249.14,99.49 250.89,99.68C252.65,99.88 254.41,100.2 256.15,100.64C257.92,101.09 259.68,101.68 261.41,102.36C263.18,103.06 264.92,103.92 266.66,104.79C268.43,105.68 270.16,106.72 271.92,107.66C273.67,108.6 275.4,109.64 277.18,110.43C278.91,111.2 280.66,111.99 282.44,112.36C284.17,112.72 285.97,112.91 287.7,112.68C289.48,112.44 291.27,111.77 292.96,110.88C294.79,109.91 296.53,108.45 298.22,106.93C300.05,105.29 301.76,103.27 303.48,101.29C305.27,99.23 306.98,96.96 308.74,94.81C310.49,92.67 312.2,90.44 313.99,88.43C315.71,86.5 317.43,84.58 319.25,82.95C320.95,81.43 322.69,79.98 324.51,78.89C326.2,77.88 327.98,77.05 329.77,76.55C331.49,76.07 333.28,75.91 335.03,75.91C336.78,75.91 338.54,76.24 340.29,76.53C342.05,76.82 343.79,77.34 345.55,77.63C347.3,77.91 349.06,78.22 350.81,78.24C352.56,78.26 354.32,78.08 356.06,77.76C357.83,77.43 359.57,76.79 361.32,76.27C363.08,75.74 364.81,74.99 366.58,74.61C368.32,74.24 370.1,73.88 371.84,74C373.6,74.12 375.41,74.59 377.1,75.36C378.93,76.19 380.67,77.54 382.36,78.95C384.19,80.48 385.9,82.4 387.62,84.28C389.41,86.24 391.13,88.41 392.88,90.48C394.63,92.55 396.36,94.69 398.13,96.71C399.86,98.68 401.61,100.62 403.39,102.46C405.12,104.24 406.87,105.95 408.65,107.58C410.38,109.17 412.14,110.67 413.91,112.12C415.64,113.54 417.4,114.9 419.17,116.18C420.9,117.43 422.66,118.64 424.43,119.74C426.16,120.82 427.91,121.84 429.69,122.74C431.42,123.61 433.18,124.4 434.95,125.07C436.68,125.73 438.44,126.28 440.2,126.74C441.94,127.19 443.7,127.53 445.46,127.82C447.21,128.1 448.96,128.29 450.72,128.45C452.47,128.61 454.23,128.7 455.98,128.78C457.73,128.86 459.49,128.89 461.24,128.93C462.99,128.97 464.75,128.99 466.5,129C468.25,129.01 470.01,129.01 471.76,129.02C473.51,129.02 475.27,129.03 477.02,129.03C478.77,129.03 480.53,129.03 482.28,129.03C484.03,129.03 485.78,129.03 487.53,129.03C489.28,129.03 491.04,129.03 492.79,129.03C494.54,129.03 496.3,129.03 498.05,129.03C499.8,129.03 501.56,129.03 503.31,129.03C505.06,129.03 506.82,129.03 508.57,129.03C510.32,129.03 512.08,129.03 513.83,129.03C515.58,129.03 517.34,129.02 519.09,129.01C520.84,129 522.6,128.99 524.35,128.96C526.1,128.93 527.85,128.9 529.6,128.83C531.35,128.76 533.11,128.69 534.86,128.56C536.61,128.43 538.37,128.28 540.12,128.04C541.88,127.8 543.63,127.51 545.38,127.13C547.14,126.75 548.9,126.3 550.64,125.77C552.4,125.24 554.15,124.59 555.9,123.95C557.66,123.3 559.4,122.56 561.16,121.89C562.91,121.22 564.65,120.5 566.42,119.95C568.16,119.4 569.91,118.88 571.67,118.58C573.41,118.28 575.18,118.12 576.93,118.15C578.68,118.18 580.45,118.42 582.19,118.76C583.96,119.11 585.71,119.67 587.45,120.22C589.21,120.78 590.95,121.47 592.71,122.08C594.46,122.69 596.21,123.35 597.97,123.86C599.71,124.37 601.47,124.82 603.23,125.14C604.97,125.45 606.73,125.66 608.49,125.76C610.24,125.86 611.99,125.81 613.74,125.72C615.49,125.63 617.25,125.42 619,125.24C620.75,125.05 622.51,124.8 624.26,124.61C626.01,124.42 627.76,124.21 629.52,124.09C631.27,123.97 633.03,123.89 634.78,123.89C636.53,123.89 638.29,123.96 640.04,124.06C641.79,124.16 643.55,124.34 645.3,124.51C647.05,124.69 648.81,124.91 650.56,125.11C652.31,125.31 654.07,125.51 655.82,125.69C657.57,125.86 659.32,126.02 661.07,126.16C662.82,126.3 664.58,126.41 666.33,126.51C668.08,126.61 669.84,126.69 671.59,126.78C673.34,126.87 675.1,126.95 676.85,127.04C678.6,127.13 680.36,127.22 682.11,127.32C683.86,127.42 685.62,127.54 687.37,127.65C689.12,127.76 690.88,127.89 692.63,128C694.38,128.11 696.14,128.22 697.89,128.32C699.64,128.42 701.39,128.51 703.14,128.59C704.89,128.67 706.65,128.73 708.4,128.78Q710.15,128.83 713.66,128.9L713.66,129.03" style="vector-effect: none; stroke-width: 2px; stroke: rgb(30, 138, 174); stroke-opacity: 1; fill: rgb(37, 173, 218); fill-opacity: 0.5;"/><path class="meanline" d="M346.03,77.70743560791016V129.03" style="fill: none; vector-effect: none; stroke-width: 2px; stroke-dasharray: 4px, 2px; stroke: rgb(30, 138, 174); stroke-opacity: 1;"/></g><g class="trace violins" style="opacity: 1;"><path class="violin" d="M95.34,107.02L95.34,105.82Q102.99,105.1 106.8,104.49C110.63,103.88 114.47,103.14 118.26,102.16C122.11,101.17 125.94,99.96 129.72,98.55C133.58,97.11 137.4,95.39 141.18,93.56C145.03,91.7 148.83,89.56 152.63,87.46C156.46,85.35 160.25,83.03 164.09,80.93C167.89,78.85 171.68,76.7 175.55,74.94C179.32,73.22 183.14,71.59 187.01,70.44C190.78,69.32 194.63,68.49 198.47,68.07C202.27,67.66 206.12,67.67 209.93,67.92C213.76,68.17 217.59,68.85 221.39,69.57C225.23,70.3 229.04,71.33 232.85,72.29C236.68,73.25 240.48,74.36 244.31,75.32C248.12,76.28 251.94,77.27 255.77,78.06C259.58,78.85 263.4,79.59 267.23,80.07C271.04,80.54 274.87,80.91 278.69,80.92C282.51,80.93 286.36,80.73 290.15,80.12C294,79.51 297.84,78.52 301.61,77.23C305.49,75.9 309.3,74.09 313.07,72.19C316.94,70.23 320.71,67.82 324.53,65.61C328.35,63.4 332.11,60.9 335.99,58.92C339.76,57 343.56,55.04 347.45,53.88C351.2,52.76 355.09,52 358.91,51.98C362.73,51.96 366.61,52.68 370.37,53.73C374.26,54.82 378.06,56.67 381.83,58.5C385.7,60.38 389.48,62.73 393.29,64.89C397.12,67.06 400.9,69.39 404.75,71.47C408.54,73.52 412.36,75.51 416.21,77.28C420,79.02 423.82,80.58 427.67,82.01C431.47,83.42 435.29,84.67 439.13,85.83C442.93,86.98 446.76,88.01 450.59,88.97C454.4,89.93 458.22,90.81 462.05,91.58C465.86,92.35 469.68,93.05 473.51,93.6C477.32,94.15 481.14,94.61 484.97,94.9C488.78,95.19 492.61,95.34 496.43,95.36C500.25,95.38 504.07,95.23 507.89,95C511.71,94.77 515.53,94.38 519.35,93.97C523.17,93.55 526.99,93.03 530.81,92.51C534.63,91.99 538.45,91.42 542.27,90.84C546.09,90.26 549.91,89.67 553.73,89.02C557.55,88.37 561.37,87.7 565.18,86.92C569.01,86.14 572.83,85.29 576.64,84.32C580.47,83.34 584.29,82.24 588.1,81.08C591.93,79.92 595.74,78.58 599.56,77.36C603.38,76.14 607.18,74.8 611.02,73.78C614.82,72.77 618.64,71.77 622.48,71.25C626.28,70.73 630.13,70.45 633.94,70.64C637.77,70.84 641.62,71.48 645.4,72.43C649.26,73.4 653.08,74.88 656.86,76.44C660.73,78.04 664.52,80.05 668.32,81.96C672.16,83.89 675.95,86.02 679.78,87.96C683.59,89.89 687.39,91.85 691.24,93.56C695.03,95.25 698.85,96.82 702.7,98.17C706.49,99.5 710.32,100.64 714.16,101.6C717.96,102.55 721.79,103.3 725.62,103.93C729.43,104.56 733.25,105 737.08,105.38C740.89,105.76 744.72,106.01 748.54,106.22Q752.36,106.43 760,106.66L760,107.02" style="vector-effect: none; stroke-width: 2px; stroke: rgb(90, 114, 107); stroke-opacity: 1; fill: rgb(112, 143, 134); fill-opacity: 0.5;"/><path class="meanline" d="M397.46,67.3045883178711V107.02" style="fill: none; vector-effect: none; stroke-width: 2px; stroke-dasharray: 4px, 2px; stroke: rgb(90, 114, 107); stroke-opacity: 1;"/></g><g class="trace violins" style="opacity: 1;"><path class="violin" d="M205.96,85L205.96,84.87Q210.9,84.79 213.37,84.72C215.84,84.65 218.31,84.56 220.78,84.43C223.25,84.3 225.73,84.14 228.2,83.92C230.67,83.7 233.15,83.45 235.61,83.09C238.09,82.73 240.56,82.32 243.02,81.76C245.5,81.2 247.98,80.55 250.43,79.73C252.92,78.9 255.4,77.93 257.84,76.79C260.35,75.61 262.82,74.25 265.25,72.74C267.77,71.17 270.24,69.4 272.67,67.52C275.18,65.58 277.64,63.43 280.08,61.26C282.58,59.04 285.02,56.65 287.49,54.32C289.96,51.99 292.41,49.55 294.9,47.28C297.35,45.05 299.79,42.79 302.31,40.8C304.73,38.88 307.19,37.02 309.72,35.51C312.13,34.07 314.62,32.79 317.14,31.88C319.56,31 322.06,30.39 324.55,30.07C327,29.76 329.5,29.79 331.96,29.97C334.44,30.15 336.91,30.63 339.37,31.16C341.85,31.69 344.32,32.43 346.78,33.16C349.26,33.89 351.72,34.71 354.19,35.53C356.67,36.35 359.14,37.2 361.61,38.09C364.09,38.99 366.56,39.9 369.02,40.91C371.5,41.93 373.98,43.02 376.43,44.21C378.92,45.42 381.39,46.75 383.84,48.13C386.33,49.53 388.78,51.07 391.25,52.55C393.72,54.04 396.17,55.61 398.66,57.04C401.11,58.45 403.57,59.87 406.07,61.07C408.51,62.24 410.99,63.31 413.49,64.17C415.93,65.01 418.41,65.67 420.9,66.19C423.35,66.7 425.84,67.01 428.31,67.28C430.78,67.55 433.25,67.66 435.72,67.82C438.19,67.98 440.66,68.06 443.13,68.24C445.6,68.43 448.07,68.62 450.54,68.93C453.02,69.24 455.49,69.62 457.96,70.09C460.44,70.56 462.91,71.13 465.37,71.74C467.85,72.35 470.31,73.05 472.78,73.74C475.25,74.43 477.72,75.19 480.19,75.89C482.66,76.59 485.13,77.31 487.6,77.96C490.07,78.61 492.53,79.24 495.01,79.8C497.48,80.36 499.95,80.87 502.43,81.32C504.9,81.77 507.37,82.16 509.84,82.49C512.31,82.82 514.78,83.09 517.25,83.3C519.72,83.51 522.19,83.65 524.66,83.73C527.13,83.81 529.6,83.83 532.07,83.79C534.54,83.75 537.01,83.63 539.48,83.46C541.95,83.28 544.43,83.04 546.9,82.74C549.37,82.44 551.84,82.06 554.31,81.64C556.78,81.22 559.25,80.73 561.72,80.21C564.19,79.69 566.66,79.12 569.13,78.54C571.6,77.95 574.07,77.33 576.54,76.7C579.01,76.07 581.48,75.42 583.95,74.78C586.42,74.14 588.9,73.49 591.37,72.85C593.84,72.22 596.31,71.58 598.78,70.97C601.25,70.36 603.72,69.77 606.19,69.21C608.66,68.65 611.13,68.1 613.6,67.59C616.07,67.08 618.54,66.6 621.01,66.15C623.48,65.71 625.95,65.28 628.42,64.92C630.89,64.56 633.36,64.23 635.83,64.01C638.3,63.79 640.78,63.61 643.25,63.61C645.72,63.61 648.2,63.7 650.66,63.98C653.14,64.27 655.62,64.72 658.07,65.33C660.56,65.95 663.03,66.78 665.48,67.68C667.97,68.6 670.43,69.7 672.89,70.79C675.37,71.89 677.82,73.11 680.3,74.23C682.77,75.35 685.23,76.49 687.72,77.5C690.18,78.49 692.64,79.44 695.13,80.23C697.58,81.01 700.06,81.69 702.54,82.24C705,82.79 707.47,83.2 709.95,83.55Q712.41,83.89 717.36,84.31L717.36,85" style="vector-effect: none; stroke-width: 2px; stroke: rgb(144, 60, 130); stroke-opacity: 1; fill: rgb(180, 75, 162); fill-opacity: 0.5;"/><path class="meanline" d="M417.13,65.28746795654297V85" style="fill: none; vector-effect: none; stroke-width: 2px; stroke-dasharray: 4px, 2px; stroke: rgb(144, 60, 130); stroke-opacity: 1;"/></g><g class="trace violins" style="opacity: 1;"><path class="violin" d="M236.95,62.99L236.95,62.97Q240.9,62.96 242.88,62.96C244.86,62.96 246.84,62.96 248.82,62.95C250.8,62.94 252.77,62.93 254.75,62.92C256.73,62.91 258.71,62.91 260.69,62.9C262.67,62.9 264.65,62.89 266.63,62.89C268.61,62.89 270.58,62.88 272.56,62.88C274.54,62.88 276.52,62.88 278.5,62.88C280.48,62.88 282.45,62.87 284.43,62.87C286.41,62.86 288.39,62.86 290.37,62.85C292.35,62.84 294.33,62.82 296.31,62.78C298.29,62.75 300.26,62.71 302.24,62.64C304.22,62.57 306.2,62.49 308.18,62.38C310.16,62.27 312.13,62.14 314.11,61.97C316.09,61.8 318.07,61.61 320.05,61.38C322.03,61.15 324.01,60.89 325.99,60.57C327.97,60.25 329.95,59.89 331.92,59.46C333.91,59.02 335.89,58.54 337.86,57.96C339.85,57.37 341.83,56.69 343.79,55.94C345.78,55.17 347.76,54.29 349.73,53.39C351.72,52.48 353.69,51.45 355.67,50.52C357.64,49.59 359.6,48.59 361.6,47.81C363.56,47.05 365.54,46.3 367.54,45.88C369.5,45.47 371.5,45.23 373.47,45.27C375.45,45.31 377.45,45.67 379.41,46.14C381.41,46.62 383.37,47.41 385.34,48.14C387.33,48.88 389.29,49.82 391.28,50.55C393.25,51.27 395.22,52.04 397.22,52.52C399.18,52.99 401.17,53.36 403.15,53.44C405.12,53.52 407.13,53.36 409.09,53.03C411.08,52.69 413.06,52.08 415.02,51.41C417.02,50.73 418.99,49.84 420.96,48.96C422.95,48.07 424.92,47.06 426.9,46.12C428.88,45.18 430.84,44.21 432.83,43.33C434.8,42.45 436.78,41.6 438.77,40.84C440.74,40.09 442.71,39.41 444.7,38.8C446.67,38.19 448.65,37.66 450.64,37.18C452.61,36.71 454.6,36.3 456.58,35.95C458.55,35.6 460.53,35.31 462.51,35.08C464.49,34.86 466.47,34.69 468.45,34.6C470.43,34.51 472.4,34.51 474.38,34.56C476.36,34.61 478.34,34.77 480.32,34.93C482.3,35.09 484.28,35.35 486.26,35.5C488.24,35.64 490.21,35.84 492.19,35.8C494.17,35.76 496.17,35.65 498.13,35.24C500.13,34.82 502.13,34.15 504.06,33.25C506.1,32.3 508.07,31 510,29.59C512.04,28.1 513.98,26.28 515.93,24.49C517.94,22.64 519.87,20.56 521.87,18.66C523.83,16.79 525.76,14.79 527.81,13.2C529.73,11.71 531.68,10.19 533.74,9.31C535.65,8.5 537.71,7.9 539.68,7.95C541.66,8 543.72,8.68 545.61,9.63C547.7,10.68 549.65,12.44 551.55,14.23C553.63,16.2 555.56,18.66 557.49,21.07C559.52,23.6 561.44,26.41 563.42,29.08C565.4,31.75 567.34,34.55 569.36,37.11C571.3,39.56 573.24,42.02 575.29,44.14C577.2,46.12 579.17,48.01 581.23,49.52C583.14,50.92 585.13,52.13 587.17,53.01C589.1,53.84 591.1,54.39 593.1,54.74C595.06,55.09 597.06,55.15 599.04,55.14C601.02,55.13 603,54.92 604.97,54.7C606.95,54.48 608.93,54.15 610.91,53.8C612.89,53.45 614.88,53.06 616.85,52.58C618.84,52.1 620.82,51.58 622.78,50.92C624.78,50.25 626.77,49.48 628.72,48.58C630.72,47.66 632.69,46.57 634.65,45.43C636.65,44.27 638.61,42.92 640.59,41.66C642.57,40.4 644.52,39.02 646.53,37.89C648.48,36.8 650.44,35.67 652.46,34.98C654.4,34.32 656.42,33.8 658.4,33.75C660.37,33.7 662.4,34.05 664.33,34.66C666.36,35.3 668.34,36.41 670.27,37.58C672.3,38.81 674.24,40.4 676.2,41.92C678.2,43.48 680.15,45.22 682.14,46.83C684.11,48.42 686.07,50.06 688.08,51.51C690.03,52.92 692,54.28 694.01,55.44C695.95,56.56 697.94,57.56 699.95,58.39C701.9,59.2 703.89,59.85 705.88,60.4C707.84,60.94 709.83,61.32 711.82,61.65Q713.79,61.97 717.76,62.35L717.76,62.99" style="vector-effect: none; stroke-width: 2px; stroke: rgb(78, 50, 154); stroke-opacity: 1; fill: rgb(97, 62, 193); fill-opacity: 0.5;"/><path class="meanline" d="M524.47,16.14466667175293V62.99" style="fill: none; vector-effect: none; stroke-width: 2px; stroke-dasharray: 4px, 2px; stroke: rgb(78, 50, 154); stroke-opacity: 1;"/></g></g></g><g class="overplot"/><path class="xlines-above crisp" d="M0,0" style="fill: none;"/><path class="ylines-above crisp" d="M0,0" style="fill: none;"/><g class="overlines-above"/><g class="xaxislayer-above"><g class="xtick"><text text-anchor="middle" x="0" y="172" transform="translate(57,0)" style="font-family: 'Open Sans', verdana, arial, sans-serif; font-size: 12px; fill: rgb(242, 245, 250); fill-opacity: 1; white-space: pre; opacity: 1;">0</text></g><g class="xtick"><text text-anchor="middle" x="0" y="172" style="font-family: 'Open Sans', verdana, arial, sans-serif; font-size: 12px; fill: rgb(242, 245, 250); fill-opacity: 1; white-space: pre; opacity: 1;" transform="translate(187.75,0)">100</text></g><g class="xtick"><text text-anchor="middle" x="0" y="172" style="font-family: 'Open Sans', verdana, arial, sans-serif; font-size: 12px; fill: rgb(242, 245, 250); fill-opacity: 1; white-space: pre; opacity: 1;" transform="translate(318.5,0)">200</text></g><g class="xtick"><text text-anchor="middle" x="0" y="172" style="font-family: 'Open Sans', verdana, arial, sans-serif; font-size: 12px; fill: rgb(242, 245, 250); fill-opacity: 1; white-space: pre; opacity: 1;" transform="translate(449.24,0)">300</text></g><g class="xtick"><text text-anchor="middle" x="0" y="172" style="font-family: 'Open Sans', verdana, arial, sans-serif; font-size: 12px; fill: rgb(242, 245, 250); fill-opacity: 1; white-space: pre; opacity: 1;" transform="translate(579.99,0)">400</text></g><g class="xtick"><text text-anchor="middle" x="0" y="172" style="font-family: 'Open Sans', verdana, arial, sans-serif; font-size: 12px; fill: rgb(242, 245, 250); fill-opacity: 1; white-space: pre; opacity: 1;" transform="translate(710.73,0)">500</text></g></g><g class="yaxislayer-above"/><g class="overaxes-above"/></g></g><g class="polarlayer"/><g class="smithlayer"/><g class="ternarylayer"/><g class="geolayer"/><g class="funnelarealayer"/><g class="pielayer"/><g class="iciclelayer"/><g class="treemaplayer"/><g class="sunburstlayer"/><g class="glimages"/><defs id="topdefs-fa7508"><g class="clips"/></defs><g class="layer-above"><g class="imagelayer"/><g class="shapelayer"/></g><g class="infolayer"><g class="g-gtitle"/><g class="g-xtitle" transform="translate(0,-2.3000000000000114)"><text class="xtitle" x="400" y="199.3" text-anchor="middle" style="font-family: 'Open Sans', verdana, arial, sans-serif; font-size: 14px; fill: rgb(242, 245, 250); opacity: 1; white-space: pre;">Nkids</text></g><g class="g-ytitle"/></g></svg>