<svg class="main-svg" xmlns="http://www.w3.org/2000/svg" xmlns:xlink="http://www.w3.org/1999/xlink" width="800" height="200" style="" viewBox="0 0 800 200"><rect x="0" y="0" width="800" height="200" style="fill: rgb(0, 0, 0); fill-opacity: 0;"/><defs id="defs-7498c3"><g class="clips"><clipPath id="clip7498c3xyplot" class="plotclip"><rect width="800" height="159"/></clipPath><clipPath class="axesclip" id="clip7498c3x"><rect x="0" y="0" width="800" height="200"/></clipPath><clipPath class="axesclip" id="clip7498c3y"><rect x="0" y="0" width="800" height="159"/></clipPath><clipPath class="axesclip" id="clip7498c3xy"><rect x="0" y="0" width="800" height="159"/></clipPath></g><g class="gradients"/><g class="patterns"/></defs><g class="bglayer"><rect class="bg" x="0" y="0" width="800" height="159" style="fill: rgb(0, 0, 0); fill-opacity: 0; stroke-width: 0;"/></g><g class="layer-below"><g class="imagelayer"/><g class="shapelayer"/></g><g class="cartesianlayer"><g class="subplot xy"><g class="layer-subplot"><g class="shapelayer"/><g class="imagelayer"/></g><g class="minor-gridlayer"><g class="x"/><g class="y"/></g><g class="gridlayer"><g class="x"><path class="xgrid crisp" transform="translate(150.3,0)" d="M0,0v159" style="stroke: rgb(40, 52, 66); stroke-opacity: 1; stroke-width: 1px;"/><path class="xgrid crisp" transform="translate(248.31,0)" d="M0,0v159" style="stroke: rgb(40, 52, 66); stroke-opacity: 1; stroke-width: 1px;"/><path class="xgrid crisp" transform="translate(346.32,0)" d="M0,0v159" style="stroke: rgb(40, 52, 66); stroke-opacity: 1; stroke-width: 1px;"/><path class="xgrid crisp" transform="translate(444.33,0)" d="M0,0v159" style="stroke: rgb(40, 52, 66); stroke-opacity: 1; stroke-width: 1px;"/><path class="xgrid crisp" transform="translate(542.34,0)" d="M0,0v159" style="stroke: rgb(40, 52, 66); stroke-opacity: 1; stroke-width: 1px;"/><path class="xgrid crisp" transform="translate(640.35,0)" d="M0,0v159" style="stroke: rgb(40, 52, 66); stroke-opacity: 1; stroke-width: 1px;"/><path class="xgrid crisp" transform="translate(738.37,0)" d="M0,0v159" style="stroke: rgb(40, 52, 66); stroke-opacity: 1; stroke-width: 1px;"/></g><g class="y"/></g><g class="zerolinelayer"><path class="xzl zl crisp" transform="translate(52.29,0)" d="M0,0v159" style="stroke: rgb(40, 52, 66); stroke-opacity: 1; stroke-width: 2px;"/></g><g class="layer-between"><g class="shapelayer"/><g class="imagelayer"/></g><path class="xlines-below"/><path class="ylines-below"/><g class="overlines-below"/><g class="xaxislayer-below"/><g class="yaxislayer-below"/><g class="overaxes-below"/><g class="plot" transform="" clip-path="url(#clip7498c3xyplot)"><g class="violinlayer mlayer"><g class="trace violins" style="opacity: 1;"><path class="violin" d="M47.68,151.05L47.68,149.69Q48.66,148.84 49.1,148.27C49.62,147.6 50.08,146.76 50.52,145.85C51.04,144.77 51.49,143.49 51.93,142.15C52.44,140.6 52.9,138.86 53.35,137.06C53.85,135.07 54.31,132.9 54.77,130.73C55.26,128.44 55.71,126.01 56.18,123.64C56.65,121.26 57.12,118.81 57.6,116.48C58.06,114.25 58.52,112.01 59.02,109.95C59.47,108.07 59.93,106.23 60.44,104.59C60.88,103.16 61.33,101.8 61.85,100.64C62.29,99.67 62.74,98.77 63.27,98.06C63.71,97.47 64.18,96.96 64.69,96.61C65.13,96.31 65.62,96.11 66.1,96.01C66.56,95.92 67.05,95.95 67.52,96.02C68,96.1 68.48,96.27 68.94,96.47C69.42,96.68 69.89,96.97 70.35,97.29C70.84,97.62 71.31,98.02 71.77,98.43C72.26,98.87 72.73,99.35 73.19,99.85C73.67,100.37 74.15,100.93 74.61,101.51C75.09,102.11 75.56,102.75 76.02,103.39C76.5,104.05 76.97,104.74 77.44,105.44C77.92,106.16 78.39,106.9 78.86,107.64C79.34,108.4 79.8,109.17 80.27,109.94C80.74,110.72 81.22,111.5 81.69,112.28C82.16,113.05 82.64,113.83 83.11,114.59C83.58,115.34 84.04,116.09 84.52,116.82C84.99,117.54 85.46,118.25 85.94,118.95C86.41,119.64 86.88,120.32 87.36,120.99C87.83,121.66 88.31,122.32 88.78,122.98C89.25,123.64 89.72,124.29 90.19,124.94C90.66,125.58 91.13,126.22 91.61,126.84C92.08,127.45 92.55,128.05 93.03,128.62C93.49,129.17 93.96,129.72 94.44,130.22C94.9,130.7 95.38,131.16 95.86,131.57C96.32,131.97 96.8,132.33 97.28,132.66C97.75,132.98 98.22,133.26 98.7,133.53C99.17,133.8 99.64,134.04 100.11,134.29C100.58,134.54 101.06,134.78 101.53,135.04C102.01,135.3 102.48,135.58 102.95,135.87C103.42,136.17 103.89,136.48 104.36,136.8C104.84,137.13 105.31,137.48 105.78,137.82C106.25,138.16 106.73,138.52 107.2,138.86C107.67,139.19 108.13,139.53 108.61,139.84C109.08,140.14 109.55,140.44 110.03,140.7C110.5,140.96 110.97,141.19 111.45,141.4C111.92,141.6 112.39,141.78 112.87,141.93C113.34,142.08 113.81,142.2 114.28,142.32C114.75,142.43 115.23,142.52 115.7,142.62C116.17,142.71 116.65,142.79 117.12,142.89C117.59,142.98 118.06,143.08 118.53,143.19C119,143.3 119.48,143.43 119.95,143.56C120.42,143.7 120.9,143.85 121.37,144C121.84,144.16 122.32,144.33 122.79,144.49C123.26,144.65 123.73,144.82 124.2,144.98C124.67,145.14 125.15,145.29 125.62,145.44C126.09,145.58 126.57,145.72 127.04,145.85C127.51,145.98 127.98,146.09 128.45,146.2C128.92,146.31 129.4,146.41 129.87,146.51C130.34,146.61 130.82,146.7 131.29,146.79C131.76,146.88 132.23,146.96 132.7,147.03C133.17,147.11 133.65,147.18 134.12,147.24C134.59,147.3 135.07,147.36 135.54,147.41C136.01,147.46 136.49,147.52 136.96,147.56C137.43,147.6 137.9,147.64 138.37,147.67C138.84,147.7 139.32,147.73 139.79,147.75C140.26,147.77 140.74,147.79 141.21,147.81C141.68,147.83 142.15,147.85 142.62,147.87C143.09,147.89 143.57,147.92 144.04,147.95C144.51,147.98 144.99,148.02 145.46,148.06C145.93,148.1 146.41,148.15 146.88,148.21C147.35,148.27 147.82,148.34 148.29,148.4C148.76,148.46 149.24,148.53 149.71,148.59C150.18,148.65 150.66,148.72 151.13,148.78C151.6,148.84 152.07,148.89 152.54,148.94C153.01,148.99 153.49,149.03 153.96,149.06C154.43,149.09 154.91,149.12 155.38,149.14C155.85,149.16 156.32,149.17 156.79,149.19C157.26,149.21 157.74,149.23 158.21,149.25C158.68,149.27 159.16,149.29 159.63,149.31C160.1,149.34 160.58,149.37 161.05,149.4C161.52,149.43 161.99,149.47 162.46,149.5C162.93,149.53 163.41,149.57 163.88,149.6C164.35,149.63 164.83,149.67 165.3,149.7C165.77,149.73 166.24,149.75 166.71,149.77C167.18,149.79 167.66,149.8 168.13,149.81C168.6,149.82 169.08,149.83 169.55,149.83C170.02,149.83 170.5,149.83 170.97,149.82C171.44,149.81 171.91,149.8 172.38,149.79C172.85,149.78 173.33,149.77 173.8,149.76C174.27,149.75 174.75,149.75 175.22,149.75C175.69,149.75 176.16,149.76 176.63,149.77C177.1,149.78 177.58,149.8 178.05,149.83C178.52,149.86 179,149.89 179.47,149.93C179.94,149.97 180.41,150.01 180.88,150.05C181.35,150.09 181.83,150.13 182.3,150.17C182.77,150.21 183.25,150.25 183.72,150.28C184.19,150.31 184.67,150.34 185.14,150.36C185.61,150.38 186.08,150.4 186.55,150.42C187.02,150.44 187.5,150.45 187.97,150.46C188.44,150.47 188.92,150.47 189.39,150.48C189.86,150.49 190.33,150.5 190.8,150.5C191.27,150.5 191.75,150.5 192.22,150.5C192.69,150.5 193.17,150.5 193.64,150.5C194.11,150.5 194.58,150.49 195.05,150.49C195.52,150.49 196,150.48 196.47,150.48C196.94,150.47 197.42,150.47 197.89,150.46C198.36,150.46 198.84,150.45 199.31,150.45C199.78,150.45 200.25,150.45 200.72,150.45C201.19,150.45 201.67,150.45 202.14,150.46C202.61,150.47 203.09,150.48 203.56,150.5C204.03,150.52 204.5,150.54 204.97,150.56C205.44,150.58 205.92,150.6 206.39,150.62C206.86,150.64 207.34,150.67 207.81,150.69C208.28,150.71 208.76,150.73 209.23,150.74C209.7,150.75 210.17,150.76 210.64,150.76C211.11,150.76 211.59,150.76 212.06,150.76C212.53,150.76 213.01,150.74 213.48,150.73C213.95,150.72 214.42,150.7 214.89,150.69C215.36,150.68 215.84,150.67 216.31,150.66C216.78,150.65 217.26,150.64 217.73,150.63C218.2,150.62 218.67,150.62 219.14,150.61C219.61,150.6 220.09,150.6 220.56,150.59C221.03,150.59 221.51,150.58 221.98,150.58C222.45,150.58 222.93,150.57 223.4,150.57C223.87,150.57 224.34,150.57 224.81,150.57C225.28,150.57 225.76,150.57 226.23,150.58C226.7,150.59 227.18,150.61 227.65,150.62C228.12,150.63 228.59,150.65 229.06,150.66C229.53,150.67 230.01,150.69 230.48,150.7C230.95,150.71 231.43,150.72 231.9,150.73C232.37,150.74 232.85,150.74 233.32,150.74C233.79,150.74 234.26,150.73 234.73,150.73C235.2,150.73 235.68,150.72 236.15,150.72C236.62,150.71 237.1,150.71 237.57,150.7C238.04,150.7 238.51,150.69 238.98,150.69C239.45,150.69 239.93,150.69 240.4,150.7C240.87,150.71 241.35,150.73 241.82,150.74C242.29,150.75 242.76,150.77 243.23,150.78C243.7,150.8 244.18,150.81 244.65,150.83C245.12,150.85 245.6,150.87 246.07,150.89C246.54,150.91 247.02,150.92 247.49,150.94C247.96,150.95 248.43,150.97 248.9,150.98C249.37,150.99 249.85,150.99 250.32,151C250.79,151.01 251.27,151.02 251.74,151.02C252.21,151.02 252.68,151.02 253.15,151.02C253.62,151.02 254.1,151.02 254.57,151.02C255.04,151.02 255.52,151.01 255.99,151.01C256.46,151.01 256.94,151 257.41,151C257.88,151 258.35,150.99 258.82,150.99C259.29,150.99 259.77,150.99 260.24,150.99C260.71,150.99 261.19,150.99 261.66,150.99C262.13,150.99 262.6,150.99 263.07,150.99C263.54,150.99 264.02,151 264.49,151C264.96,151 265.44,151 265.91,151C266.38,151 266.85,151 267.32,151C267.79,151 268.27,150.99 268.74,150.99C269.21,150.99 269.69,150.98 270.16,150.98C270.63,150.98 271.11,150.97 271.58,150.97C272.05,150.97 272.52,150.96 272.99,150.96C273.46,150.96 273.94,150.95 274.41,150.95C274.88,150.95 275.36,150.94 275.83,150.94C276.3,150.94 276.77,150.93 277.24,150.93C277.71,150.93 278.19,150.92 278.66,150.92C279.13,150.92 279.61,150.91 280.08,150.91C280.55,150.91 281.03,150.91 281.5,150.91C281.97,150.91 282.44,150.92 282.91,150.92C283.38,150.92 283.86,150.93 284.33,150.93C284.8,150.93 285.28,150.94 285.75,150.94C286.22,150.94 286.69,150.95 287.16,150.95C287.63,150.95 288.11,150.96 288.58,150.96C289.05,150.96 289.53,150.96 290,150.96C290.47,150.96 290.94,150.96 291.41,150.96C291.88,150.96 292.36,150.96 292.83,150.96C293.3,150.96 293.78,150.97 294.25,150.97C294.72,150.97 295.2,150.97 295.67,150.97C296.14,150.97 296.61,150.97 297.08,150.97C297.55,150.97 298.03,150.98 298.5,150.98C298.97,150.98 299.45,150.98 299.92,150.99C300.39,150.99 300.86,151.01 301.33,151.01C301.8,151.02 302.28,151.02 302.75,151.02C303.22,151.02 303.7,151.03 304.17,151.03C304.64,151.03 305.11,151.04 305.58,151.04C306.05,151.04 306.53,151.05 307,151.05C307.47,151.05 307.95,151.05 308.42,151.05C308.89,151.05 309.37,151.05 309.84,151.05C310.31,151.05 310.78,151.05 311.25,151.05C311.72,151.05 312.2,151.05 312.67,151.05C313.14,151.05 313.62,151.05 314.09,151.05C314.56,151.05 315.03,151.05 315.5,151.05C315.97,151.05 316.45,151.05 316.92,151.05C317.39,151.05 317.87,151.05 318.34,151.05C318.81,151.05 319.29,151.05 319.76,151.05C320.23,151.05 320.7,151.05 321.17,151.05C321.64,151.05 322.12,151.05 322.59,151.05C323.06,151.05 323.54,151.05 324.01,151.05C324.48,151.05 324.95,151.05 325.42,151.05C325.89,151.05 326.37,151.05 326.84,151.05C327.31,151.05 327.79,151.05 328.26,151.05C328.73,151.05 329.2,151.05 329.67,151.05C330.14,151.05 330.62,151.05 331.09,151.05C331.56,151.05 332.04,151.05 332.51,151.05C332.98,151.05 333.46,151.04 333.93,151.04C334.4,151.04 334.87,151.03 335.34,151.03C335.81,151.03 336.29,151.02 336.76,151.02C337.23,151.02 337.71,151.01 338.18,151.01C338.65,151.01 339.12,151 339.59,151C340.06,151 340.54,150.99 341.01,150.99C341.48,150.99 341.96,150.99 342.43,150.99C342.9,150.99 343.38,150.99 343.85,150.99C344.32,150.99 344.79,151 345.26,151C345.73,151 346.21,151.01 346.68,151.01C347.15,151.01 347.63,151.02 348.1,151.02C348.57,151.02 349.04,151.03 349.51,151.03Q349.98,151.03 350.93,151.04L350.93,151.05" style="vector-effect: none; stroke-width: 2px; stroke: rgb(30, 138, 174); stroke-opacity: 1; fill: rgb(37, 173, 218); fill-opacity: 0.5;"/><path class="meanline" d="M84.71,117.11126708984375V151.05" style="fill: none; vector-effect: none; stroke-width: 2px; stroke-dasharray: 4px, 2px; stroke: rgb(30, 138, 174); stroke-opacity: 1;"/></g><g class="trace violins" style="opacity: 1;"><path class="violin" d="M41.73,129.03L41.73,128.12Q43.16,127.49 43.82,127C44.56,126.46 45.25,125.76 45.9,124.94C46.66,123.98 47.34,122.81 47.99,121.53C48.75,120.04 49.42,118.3 50.08,116.49C50.82,114.45 51.49,112.16 52.16,109.86C52.88,107.38 53.56,104.71 54.25,102.09C54.95,99.42 55.62,96.62 56.33,93.98C57.01,91.44 57.69,88.87 58.42,86.54C59.08,84.43 59.74,82.34 60.5,80.57C61.15,79.07 61.8,77.62 62.59,76.54C63.22,75.67 63.91,74.88 64.67,74.46C65.32,74.11 66.07,73.96 66.76,74C67.46,74.04 68.18,74.36 68.85,74.69C69.57,75.04 70.25,75.58 70.93,76.09C71.64,76.63 72.33,77.25 73.02,77.86C73.72,78.48 74.41,79.14 75.1,79.8C75.8,80.46 76.5,81.14 77.19,81.81C77.89,82.48 78.58,83.16 79.27,83.84C79.97,84.52 80.66,85.2 81.36,85.87C82.05,86.54 82.74,87.2 83.44,87.86C84.13,88.51 84.83,89.16 85.53,89.8C86.22,90.43 86.91,91.06 87.61,91.68C88.3,92.3 89,92.91 89.7,93.52C90.4,94.13 91.09,94.74 91.79,95.35C92.48,95.96 93.17,96.57 93.87,97.17C94.56,97.77 95.26,98.37 95.96,98.96C96.65,99.55 97.34,100.13 98.04,100.7C98.73,101.26 99.43,101.81 100.13,102.34C100.82,102.87 101.51,103.38 102.21,103.88C102.9,104.37 103.6,104.84 104.3,105.31C104.99,105.77 105.68,106.22 106.38,106.67C107.07,107.12 107.77,107.55 108.47,107.99C109.17,108.43 109.86,108.87 110.56,109.31C111.25,109.75 111.94,110.19 112.64,110.63C113.33,111.07 114.03,111.51 114.73,111.93C115.42,112.35 116.11,112.77 116.81,113.16C117.5,113.55 118.2,113.93 118.9,114.28C119.59,114.63 120.28,114.96 120.98,115.27C121.67,115.58 122.37,115.87 123.07,116.14C123.76,116.41 124.45,116.66 125.15,116.9C125.84,117.14 126.54,117.35 127.24,117.57C127.94,117.79 128.63,118 129.33,118.2C130.02,118.4 130.72,118.59 131.41,118.78C132.11,118.97 132.8,119.15 133.5,119.34C134.19,119.52 134.89,119.71 135.58,119.89C136.28,120.08 136.97,120.27 137.67,120.45C138.36,120.63 139.06,120.81 139.75,120.99C140.45,121.17 141.14,121.34 141.84,121.51C142.53,121.67 143.22,121.83 143.92,121.98C144.61,122.13 145.31,122.26 146.01,122.39C146.7,122.51 147.4,122.62 148.09,122.73C148.79,122.84 149.48,122.93 150.18,123.03C150.88,123.13 151.57,123.22 152.27,123.32C152.96,123.42 153.66,123.52 154.35,123.63C155.05,123.74 155.74,123.85 156.44,123.96C157.13,124.07 157.83,124.2 158.52,124.31C159.22,124.43 159.91,124.54 160.61,124.65C161.3,124.76 162,124.88 162.69,124.98C163.39,125.09 164.08,125.18 164.78,125.28C165.47,125.38 166.17,125.47 166.86,125.56C167.56,125.65 168.25,125.73 168.95,125.82C169.65,125.9 170.34,125.99 171.04,126.07C171.73,126.15 172.43,126.22 173.12,126.28C173.82,126.34 174.51,126.39 175.21,126.43C175.9,126.47 176.6,126.51 177.29,126.53C177.99,126.56 178.68,126.57 179.38,126.58C180.07,126.59 180.77,126.59 181.46,126.6C182.16,126.61 182.85,126.62 183.55,126.64C184.24,126.66 184.94,126.67 185.63,126.7C186.33,126.73 187.02,126.76 187.72,126.8C188.42,126.84 189.11,126.88 189.81,126.92C190.5,126.96 191.2,127.02 191.89,127.06C192.59,127.1 193.28,127.15 193.98,127.18C194.67,127.21 195.37,127.24 196.06,127.26C196.76,127.28 197.45,127.31 198.15,127.32C198.84,127.33 199.54,127.33 200.23,127.34C200.93,127.35 201.62,127.35 202.32,127.36C203.01,127.37 203.71,127.38 204.4,127.39C205.1,127.4 205.79,127.42 206.49,127.44C207.19,127.46 207.88,127.49 208.58,127.52C209.27,127.55 209.97,127.59 210.66,127.62C211.36,127.66 212.05,127.7 212.75,127.73C213.44,127.76 214.14,127.8 214.83,127.82C215.53,127.85 216.22,127.87 216.92,127.88C217.61,127.89 218.31,127.89 219,127.9C219.7,127.91 220.39,127.91 221.09,127.92C221.78,127.93 222.48,127.93 223.17,127.94C223.87,127.95 224.56,127.97 225.26,127.99C225.95,128.01 226.65,128.04 227.34,128.07C228.04,128.1 228.73,128.14 229.43,128.17C230.13,128.2 230.82,128.23 231.52,128.25C232.21,128.27 232.91,128.29 233.6,128.3C234.3,128.31 234.99,128.32 235.69,128.32C236.38,128.32 237.08,128.32 237.77,128.32C238.47,128.32 239.16,128.31 239.86,128.3C240.55,128.3 241.25,128.29 241.94,128.29C242.64,128.29 243.33,128.29 244.03,128.29C244.72,128.29 245.42,128.29 246.11,128.3C246.81,128.31 247.5,128.32 248.2,128.33C248.9,128.34 249.59,128.35 250.29,128.37C250.98,128.38 251.68,128.4 252.37,128.42C253.07,128.44 253.76,128.46 254.46,128.48C255.15,128.5 255.85,128.52 256.54,128.54C257.24,128.56 257.93,128.58 258.63,128.59C259.32,128.6 260.02,128.61 260.71,128.61C261.41,128.61 262.1,128.61 262.8,128.6C263.49,128.59 264.19,128.58 264.88,128.56C265.58,128.54 266.27,128.52 266.97,128.5C267.67,128.48 268.36,128.47 269.06,128.45C269.75,128.44 270.45,128.42 271.14,128.41C271.84,128.4 272.53,128.4 273.23,128.4C273.92,128.4 274.62,128.42 275.31,128.43C276.01,128.44 276.7,128.46 277.4,128.48C278.09,128.5 278.79,128.52 279.48,128.54C280.18,128.56 280.87,128.58 281.57,128.6C282.26,128.62 282.96,128.63 283.65,128.64C284.35,128.66 285.04,128.67 285.74,128.69C286.43,128.7 287.13,128.72 287.82,128.73C288.52,128.74 289.21,128.76 289.91,128.77C290.61,128.79 291.3,128.8 292,128.82C292.69,128.83 293.39,128.85 294.08,128.86C294.78,128.87 295.47,128.89 296.17,128.9C296.86,128.91 297.56,128.92 298.25,128.92C298.95,128.93 299.64,128.93 300.34,128.93C301.03,128.93 301.73,128.92 302.42,128.91C303.12,128.9 303.81,128.88 304.51,128.87C305.2,128.86 305.9,128.84 306.59,128.83C307.29,128.81 307.98,128.8 308.68,128.78C309.38,128.77 310.07,128.75 310.77,128.74C311.46,128.73 312.16,128.73 312.85,128.72C313.55,128.71 314.24,128.7 314.94,128.7C315.63,128.7 316.33,128.7 317.02,128.7C317.72,128.7 318.41,128.7 319.11,128.71C319.8,128.71 320.5,128.73 321.19,128.73C321.89,128.74 322.58,128.74 323.28,128.74C323.97,128.74 324.67,128.75 325.36,128.75C326.06,128.75 326.75,128.75 327.45,128.75C328.15,128.75 328.84,128.76 329.54,128.76C330.23,128.76 330.93,128.77 331.62,128.77C332.32,128.77 333.01,128.77 333.71,128.78C334.4,128.79 335.1,128.8 335.79,128.81C336.49,128.82 337.18,128.82 337.88,128.83C338.57,128.84 339.27,128.85 339.96,128.86C340.66,128.87 341.35,128.87 342.05,128.87C342.74,128.87 343.44,128.88 344.13,128.88C344.83,128.88 345.52,128.88 346.22,128.88C346.91,128.88 347.61,128.88 348.3,128.88C349,128.88 349.69,128.88 350.39,128.88C351.09,128.88 351.78,128.87 352.48,128.87C353.17,128.87 353.87,128.87 354.56,128.87C355.26,128.87 355.95,128.87 356.65,128.87C357.34,128.87 358.04,128.86 358.73,128.86C359.43,128.86 360.12,128.86 360.82,128.86C361.51,128.86 362.21,128.86 362.9,128.86C363.6,128.86 364.29,128.86 364.99,128.87C365.68,128.87 366.38,128.89 367.07,128.89C367.77,128.9 368.46,128.9 369.16,128.9C369.86,128.91 370.55,128.91 371.25,128.92C371.94,128.93 372.64,128.94 373.33,128.94C374.03,128.95 374.72,128.95 375.42,128.95C376.11,128.95 376.81,128.96 377.5,128.96C378.2,128.96 378.89,128.96 379.59,128.96C380.28,128.96 380.98,128.96 381.67,128.96C382.37,128.96 383.06,128.96 383.76,128.96C384.45,128.96 385.15,128.97 385.84,128.97C386.54,128.97 387.23,128.98 387.93,128.98C388.63,128.98 389.32,128.98 390.02,128.99C390.71,128.99 391.41,129.01 392.1,129.01C392.8,129.02 393.49,129.02 394.19,129.02C394.88,129.02 395.58,129.03 396.27,129.03C396.97,129.03 397.66,129.03 398.36,129.03C399.05,129.03 399.75,129.03 400.44,129.03C401.14,129.03 401.83,129.03 402.53,129.03C403.22,129.03 403.92,129.03 404.61,129.03C405.31,129.03 406,129.03 406.7,129.03C407.4,129.03 408.09,129.03 408.79,129.03C409.48,129.03 410.18,129.03 410.87,129.03C411.57,129.03 412.26,129.03 412.96,129.03C413.65,129.03 414.35,129.03 415.04,129.03C415.74,129.03 416.43,129.03 417.13,129.03C417.82,129.03 418.52,129.03 419.21,129.03C419.91,129.03 420.6,129.03 421.3,129.02C421.99,129.02 422.69,129 423.38,129C424.08,128.99 424.77,129 425.47,128.99C426.16,128.98 426.86,128.97 427.55,128.96C428.25,128.95 428.94,128.95 429.64,128.94C430.34,128.93 431.03,128.93 431.73,128.92C432.42,128.92 433.12,128.91 433.81,128.91C434.51,128.91 435.2,128.91 435.9,128.91C436.59,128.91 437.29,128.92 437.98,128.92C438.68,128.92 439.37,128.92 440.07,128.93C440.76,128.93 441.46,128.95 442.15,128.95C442.85,128.96 443.54,128.96 444.24,128.96C444.93,128.96 445.63,128.95 446.32,128.95C447.02,128.95 447.71,128.94 448.41,128.94C449.11,128.94 449.8,128.93 450.5,128.93C451.19,128.93 451.89,128.92 452.58,128.92C453.28,128.92 453.97,128.91 454.67,128.91C455.36,128.91 456.06,128.92 456.75,128.92C457.45,128.92 458.14,128.92 458.84,128.93C459.53,128.93 460.23,128.94 460.92,128.95C461.62,128.96 462.31,128.96 463.01,128.97C463.7,128.98 464.4,128.98 465.09,128.99C465.79,129 466.48,129 467.18,129.01C467.88,129.01 468.57,129.02 469.27,129.02C469.96,129.02 470.66,129.03 471.35,129.03C472.05,129.03 472.74,129.03 473.44,129.03C474.13,129.03 474.83,129.03 475.52,129.03C476.22,129.03 476.91,129.03 477.61,129.03C478.3,129.03 479,129.03 479.69,129.03C480.39,129.03 481.08,129.03 481.78,129.03C482.47,129.03 483.17,129.03 483.86,129.03C484.56,129.03 485.25,129.03 485.95,129.03C486.64,129.03 487.34,129.03 488.03,129.03C488.73,129.03 489.42,129.03 490.12,129.03C490.82,129.03 491.51,129.03 492.21,129.03C492.9,129.03 493.6,129.03 494.29,129.03C494.99,129.03 495.68,129.03 496.38,129.03C497.07,129.03 497.77,129.03 498.46,129.03C499.16,129.03 499.85,129.03 500.55,129.03C501.24,129.03 501.94,129.03 502.63,129.03C503.33,129.03 504.02,129.03 504.72,129.03C505.41,129.03 506.11,129.03 506.8,129.03C507.5,129.03 508.19,129.03 508.89,129.03C509.59,129.03 510.28,129.03 510.98,129.03C511.67,129.03 512.37,129.03 513.06,129.03C513.76,129.03 514.45,129.03 515.15,129.03C515.84,129.03 516.54,129.03 517.23,129.03C517.93,129.03 518.62,129.03 519.32,129.03C520.01,129.03 520.71,129.03 521.4,129.03C522.1,129.03 522.79,129.03 523.49,129.03C524.18,129.03 524.88,129.03 525.57,129.03C526.27,129.03 526.96,129.03 527.66,129.03C528.36,129.03 529.05,129.03 529.75,129.03C530.44,129.03 531.14,129.03 531.83,129.03C532.53,129.03 533.22,129.03 533.92,129.03C534.61,129.03 535.31,129.03 536,129.03C536.7,129.03 537.39,129.03 538.09,129.03C538.78,129.03 539.48,129.03 540.17,129.03C540.87,129.03 541.56,129.03 542.26,129.03C542.95,129.03 543.65,129.03 544.34,129.03C545.04,129.03 545.73,129.03 546.43,129.03C547.12,129.03 547.82,129.03 548.51,129.03C549.21,129.03 549.9,129.03 550.6,129.03C551.3,129.03 551.99,129.03 552.69,129.03C553.38,129.03 554.08,129.02 554.77,129.02C555.47,129.02 556.16,129.01 556.86,129.01C557.55,129.01 558.25,129 558.94,129C559.64,129 560.33,129 561.03,128.99C561.72,128.99 562.42,128.97 563.11,128.97C563.81,128.97 564.5,128.97 565.2,128.97C565.89,128.97 566.59,128.97 567.28,128.97C567.98,128.97 568.67,128.98 569.37,128.98C570.07,128.98 570.76,128.99 571.46,128.99C572.15,128.99 572.85,129 573.54,129C574.24,129 574.93,129.01 575.63,129.01C576.32,129.01 577.02,129.02 577.71,129.02C578.41,129.02 579.1,129.03 579.8,129.03C580.49,129.03 581.19,129.03 581.88,129.03C582.58,129.03 583.27,129.03 583.97,129.03C584.66,129.03 585.36,129.03 586.05,129.03C586.75,129.03 587.44,129.03 588.14,129.03C588.84,129.03 589.53,129.03 590.23,129.03C590.92,129.03 591.62,129.03 592.31,129.03C593.01,129.03 593.7,129.03 594.4,129.03C595.09,129.03 595.79,129.03 596.48,129.03C597.18,129.03 597.87,129.02 598.57,129.02C599.26,129.02 599.96,129.01 600.65,129.01C601.35,129 602.04,129 602.74,128.99C603.43,128.99 604.13,128.98 604.82,128.98C605.52,128.98 606.21,128.97 606.91,128.97C607.61,128.97 608.3,128.97 609,128.97C609.69,128.97 610.39,128.97 611.08,128.97C611.78,128.97 612.47,128.98 613.17,128.98C613.86,128.98 614.56,128.99 615.25,128.99C615.95,129 616.64,129 617.34,129.01C618.03,129.01 618.73,129.02 619.42,129.02Q620.12,129.02 621.51,129.03L621.51,129.03" style="vector-effect: none; stroke-width: 2px; stroke: rgb(148, 133, 56); stroke-opacity: 1; fill: rgb(185, 166, 70); fill-opacity: 0.5;"/><path class="meanline" d="M95.53,98.59662628173828V129.03" style="fill: none; vector-effect: none; stroke-width: 2px; stroke-dasharray: 4px, 2px; stroke: rgb(148, 133, 56); stroke-opacity: 1;"/></g><g class="trace violins" style="opacity: 1;"><path class="violin" d="M42.36,107.02L42.36,105.56Q43.94,104.62 44.67,103.96C45.49,103.21 46.25,102.27 46.97,101.21C47.81,99.98 48.56,98.5 49.28,96.94C50.11,95.15 50.85,93.11 51.58,91.02C52.39,88.72 53.13,86.19 53.88,83.67C54.67,81.04 55.42,78.24 56.19,75.55C56.95,72.88 57.69,70.13 58.49,67.59C59.23,65.22 59.96,62.83 60.79,60.75C61.51,58.93 62.24,57.15 63.1,55.75C63.81,54.61 64.54,53.49 65.4,52.86C66.11,52.34 66.94,52 67.71,51.98C68.47,51.96 69.28,52.33 70.01,52.73C70.82,53.18 71.57,53.93 72.31,54.66C73.11,55.45 73.87,56.39 74.62,57.32C75.41,58.29 76.16,59.35 76.92,60.38C77.69,61.42 78.45,62.5 79.22,63.55C79.99,64.59 80.75,65.64 81.53,66.65C82.29,67.65 83.05,68.63 83.83,69.58C84.59,70.52 85.36,71.43 86.14,72.32C86.9,73.2 87.67,74.05 88.44,74.9C89.2,75.73 89.97,76.55 90.74,77.36C91.51,78.16 92.28,78.96 93.05,79.73C93.81,80.49 94.58,81.24 95.35,81.97C96.11,82.69 96.87,83.4 97.65,84.07C98.41,84.73 99.18,85.37 99.96,85.97C100.72,86.56 101.49,87.12 102.26,87.66C103.02,88.19 103.8,88.69 104.57,89.17C105.33,89.64 106.1,90.09 106.87,90.52C107.63,90.95 108.4,91.36 109.17,91.76C109.94,92.16 110.71,92.54 111.48,92.92C112.25,93.29 113.01,93.66 113.78,94.01C114.54,94.36 115.31,94.69 116.08,95C116.85,95.31 117.62,95.6 118.39,95.87C119.15,96.13 119.92,96.38 120.69,96.59C121.46,96.8 122.23,96.99 123,97.15C123.77,97.31 124.53,97.44 125.3,97.56C126.07,97.68 126.83,97.77 127.6,97.85C128.37,97.94 129.14,97.99 129.91,98.07C130.68,98.14 131.44,98.22 132.21,98.3C132.98,98.38 133.75,98.47 134.52,98.57C135.29,98.68 136.05,98.79 136.82,98.93C137.59,99.07 138.35,99.23 139.12,99.39C139.89,99.55 140.66,99.73 141.43,99.91C142.2,100.09 142.96,100.28 143.73,100.45C144.5,100.62 145.26,100.79 146.03,100.95C146.8,101.11 147.57,101.27 148.34,101.41C149.11,101.55 149.87,101.69 150.64,101.81C151.41,101.94 152.18,102.05 152.95,102.16C153.72,102.27 154.48,102.38 155.25,102.48C156.02,102.58 156.78,102.68 157.55,102.77C158.32,102.86 159.09,102.93 159.86,103.01C160.63,103.09 161.39,103.16 162.16,103.23C162.93,103.3 163.69,103.36 164.46,103.42C165.23,103.48 166,103.53 166.77,103.59C167.54,103.64 168.3,103.7 169.07,103.75C169.84,103.8 170.61,103.84 171.38,103.89C172.15,103.93 172.91,103.98 173.68,104.02C174.45,104.06 175.21,104.1 175.98,104.13C176.75,104.17 177.52,104.19 178.29,104.23C179.06,104.27 179.82,104.31 180.59,104.35C181.36,104.4 182.12,104.45 182.89,104.5C183.66,104.56 184.43,104.62 185.2,104.68C185.97,104.74 186.73,104.81 187.5,104.88C188.27,104.95 189.04,105.02 189.81,105.08C190.58,105.14 191.34,105.21 192.11,105.26C192.88,105.31 193.64,105.36 194.41,105.4C195.18,105.44 195.95,105.47 196.72,105.5C197.49,105.53 198.25,105.55 199.02,105.56C199.79,105.58 200.56,105.58 201.33,105.59C202.1,105.6 202.86,105.6 203.63,105.6C204.4,105.6 205.16,105.59 205.93,105.59C206.7,105.58 207.47,105.58 208.24,105.57C209.01,105.56 209.77,105.55 210.54,105.54C211.31,105.53 212.07,105.52 212.84,105.51C213.61,105.5 214.38,105.5 215.15,105.49C215.92,105.49 216.68,105.48 217.45,105.48C218.22,105.48 218.99,105.49 219.76,105.51C220.53,105.53 221.29,105.55 222.06,105.58C222.83,105.61 223.59,105.64 224.36,105.68C225.13,105.72 225.9,105.76 226.67,105.8C227.44,105.84 228.2,105.88 228.97,105.92C229.74,105.96 230.5,105.99 231.27,106.02C232.04,106.05 232.81,106.07 233.58,106.08C234.35,106.09 235.11,106.1 235.88,106.1C236.65,106.1 237.42,106.1 238.19,106.1C238.96,106.1 239.72,106.09 240.49,106.08C241.26,106.08 242.02,106.07 242.79,106.07C243.56,106.07 244.33,106.06 245.1,106.06C245.87,106.06 246.63,106.07 247.4,106.07C248.17,106.07 248.93,106.08 249.7,106.08C250.47,106.09 251.24,106.09 252.01,106.1C252.78,106.11 253.54,106.12 254.31,106.13C255.08,106.14 255.85,106.15 256.62,106.17C257.39,106.18 258.15,106.2 258.92,106.22C259.69,106.24 260.45,106.26 261.22,106.28C261.99,106.3 262.76,106.32 263.53,106.34C264.3,106.36 265.06,106.37 265.83,106.39C266.6,106.41 267.36,106.43 268.13,106.44C268.9,106.45 269.67,106.46 270.44,106.47C271.21,106.48 271.97,106.48 272.74,106.48C273.51,106.48 274.28,106.49 275.05,106.48C275.82,106.47 276.58,106.46 277.35,106.45C278.12,106.44 278.88,106.43 279.65,106.43C280.42,106.42 281.19,106.42 281.96,106.42C282.73,106.42 283.49,106.42 284.26,106.43C285.03,106.44 285.8,106.44 286.57,106.46C287.34,106.48 288.1,106.51 288.87,106.53C289.64,106.55 290.4,106.58 291.17,106.6C291.94,106.62 292.71,106.65 293.48,106.67C294.25,106.69 295.01,106.71 295.78,106.72C296.55,106.73 297.31,106.74 298.08,106.74C298.85,106.74 299.62,106.74 300.39,106.74C301.16,106.74 301.92,106.73 302.69,106.73C303.46,106.73 304.23,106.73 305,106.73C305.77,106.73 306.53,106.74 307.3,106.75C308.07,106.76 308.83,106.77 309.6,106.78C310.37,106.79 311.14,106.81 311.91,106.82C312.68,106.83 313.44,106.85 314.21,106.85C314.98,106.85 315.74,106.85 316.51,106.85C317.28,106.85 318.05,106.84 318.82,106.82C319.59,106.81 320.35,106.78 321.12,106.76C321.89,106.74 322.66,106.71 323.43,106.69C324.2,106.67 324.96,106.64 325.73,106.62C326.5,106.6 327.26,106.57 328.03,106.55C328.8,106.53 329.57,106.52 330.34,106.51C331.11,106.5 331.87,106.49 332.64,106.48C333.41,106.47 334.17,106.47 334.94,106.47C335.71,106.47 336.48,106.47 337.25,106.47C338.02,106.47 338.78,106.48 339.55,106.49C340.32,106.5 341.09,106.52 341.86,106.54C342.63,106.56 343.39,106.58 344.16,106.6C344.93,106.62 345.69,106.66 346.46,106.68C347.23,106.71 348,106.73 348.77,106.75C349.54,106.77 350.3,106.78 351.07,106.8C351.84,106.81 352.6,106.83 353.37,106.84C354.14,106.85 354.91,106.86 355.68,106.87C356.45,106.88 357.21,106.88 357.98,106.88C358.75,106.88 359.52,106.88 360.29,106.88C361.06,106.88 361.82,106.88 362.59,106.88C363.36,106.88 364.12,106.88 364.89,106.88C365.66,106.88 366.43,106.88 367.2,106.88C367.97,106.88 368.73,106.87 369.5,106.87C370.27,106.87 371.04,106.87 371.81,106.87C372.58,106.87 373.34,106.87 374.11,106.87C374.88,106.87 375.64,106.87 376.41,106.87C377.18,106.87 377.95,106.88 378.72,106.88C379.49,106.88 380.25,106.89 381.02,106.89C381.79,106.89 382.55,106.9 383.32,106.9C384.09,106.9 384.86,106.91 385.63,106.91C386.4,106.91 387.16,106.91 387.93,106.91C388.7,106.91 389.47,106.9 390.24,106.9C391.01,106.9 391.77,106.89 392.54,106.89C393.31,106.88 394.07,106.87 394.84,106.87C395.61,106.86 396.38,106.86 397.15,106.86C397.92,106.86 398.68,106.85 399.45,106.85C400.22,106.85 400.98,106.85 401.75,106.85C402.52,106.85 403.29,106.86 404.06,106.86C404.83,106.86 405.59,106.87 406.36,106.87C407.13,106.87 407.9,106.88 408.67,106.88C409.44,106.88 410.2,106.89 410.97,106.89C411.74,106.89 412.5,106.9 413.27,106.9C414.04,106.9 414.81,106.9 415.58,106.91C416.35,106.91 417.11,106.92 417.88,106.93C418.65,106.94 419.41,106.94 420.18,106.95C420.95,106.96 421.72,106.96 422.49,106.97C423.26,106.98 424.02,106.99 424.79,106.99C425.56,107 426.33,107 427.1,107C427.87,107 428.63,107.01 429.4,107.01C430.17,107.01 430.93,107.01 431.7,107.01C432.47,107.01 433.24,107.02 434.01,107.02C434.78,107.02 435.54,107.02 436.31,107.02C437.08,107.02 437.84,107.02 438.61,107.02C439.38,107.02 440.15,107.02 440.92,107.02C441.69,107.02 442.45,107.02 443.22,107.02C443.99,107.02 444.76,107.02 445.53,107.02C446.3,107.02 447.06,107.02 447.83,107.02C448.6,107.02 449.36,107.02 450.13,107.02C450.9,107.02 451.67,107.02 452.44,107.02C453.21,107.02 453.97,107.02 454.74,107.02C455.51,107.02 456.28,107.02 457.05,107.02C457.82,107.02 458.58,107.02 459.35,107.02C460.12,107.02 460.88,107.02 461.65,107.02C462.42,107.02 463.19,107.02 463.96,107.02C464.73,107.02 465.49,107.01 466.26,107.01C467.03,107.01 467.79,107 468.56,107C469.33,107 470.1,106.99 470.87,106.99C471.64,106.99 472.4,106.98 473.17,106.98C473.94,106.97 474.71,106.97 475.48,106.96C476.25,106.95 477.01,106.95 477.78,106.94C478.55,106.94 479.31,106.93 480.08,106.93C480.85,106.93 481.62,106.93 482.39,106.93C483.16,106.93 483.92,106.94 484.69,106.94C485.46,106.94 486.22,106.95 486.99,106.95C487.76,106.96 488.53,106.96 489.3,106.97C490.07,106.98 490.83,106.99 491.6,106.99C492.37,107 493.14,107 493.91,107C494.68,107 495.44,107.01 496.21,107.01C496.98,107.01 497.74,107.01 498.51,107.01C499.28,107.01 500.05,107.02 500.82,107.02C501.59,107.02 502.35,107.02 503.12,107.02C503.89,107.02 504.65,107.02 505.42,107.02C506.19,107.02 506.96,107.02 507.73,107.02C508.5,107.02 509.26,107.02 510.03,107.02C510.8,107.02 511.57,107.02 512.34,107.02C513.11,107.02 513.87,107.02 514.64,107.02C515.41,107.02 516.17,107.02 516.94,107.02C517.71,107.02 518.48,107.02 519.25,107.02C520.02,107.02 520.78,107.02 521.55,107.02C522.32,107.02 523.09,107.01 523.86,107.01C524.63,107.01 525.39,107.01 526.16,107.01C526.93,107.01 527.69,107 528.46,107C529.23,106.99 530,106.99 530.77,106.98C531.54,106.98 532.3,106.97 533.07,106.97C533.84,106.96 534.6,106.96 535.37,106.95C536.14,106.94 536.91,106.93 537.68,106.93C538.45,106.93 539.21,106.93 539.98,106.93C540.75,106.93 541.52,106.93 542.29,106.93C543.06,106.93 543.82,106.94 544.59,106.94C545.36,106.95 546.12,106.95 546.89,106.96C547.66,106.97 548.43,106.97 549.2,106.98C549.97,106.98 550.73,106.99 551.5,106.99C552.27,107 553.03,107.01 553.8,107.01C554.57,107.01 555.34,107.01 556.11,107.01C556.88,107.01 557.64,107.02 558.41,107.02C559.18,107.02 559.95,107.02 560.72,107.02C561.49,107.02 562.25,107.02 563.02,107.02C563.79,107.02 564.55,107.02 565.32,107.02C566.09,107.02 566.86,107.01 567.63,107.01C568.4,107.01 569.16,107.01 569.93,107.01C570.7,107.01 571.46,106.99 572.23,106.99C573,106.98 573.77,106.99 574.54,106.98C575.31,106.98 576.07,106.97 576.84,106.96C577.61,106.95 578.38,106.95 579.15,106.94C579.92,106.94 580.68,106.93 581.45,106.93C582.22,106.93 582.98,106.93 583.75,106.93C584.52,106.93 585.29,106.93 586.06,106.93C586.83,106.93 587.59,106.94 588.36,106.95C589.13,106.96 589.89,106.97 590.66,106.97C591.43,106.98 592.2,106.97 592.97,106.98C593.74,106.98 594.5,107 595.27,107C596.04,107.01 596.81,107.01 597.58,107.01C598.35,107.01 599.11,107.01 599.88,107.01C600.65,107.01 601.41,107.02 602.18,107.02C602.95,107.02 603.72,107.02 604.49,107.02C605.26,107.02 606.02,107.02 606.79,107.02C607.56,107.02 608.33,107.02 609.1,107.02C609.87,107.02 610.63,107.02 611.4,107.02C612.17,107.02 612.93,107.02 613.7,107.02C614.47,107.02 615.24,107.02 616.01,107.02C616.78,107.02 617.54,107.02 618.31,107.02C619.08,107.02 619.84,107.02 620.61,107.02C621.38,107.02 622.15,107.02 622.92,107.02C623.69,107.02 624.45,107.02 625.22,107.02C625.99,107.02 626.76,107.02 627.53,107.02C628.3,107.02 629.06,107.02 629.83,107.02C630.6,107.02 631.36,107.02 632.13,107.02C632.9,107.02 633.67,107.02 634.44,107.02C635.21,107.02 635.97,107.02 636.74,107.02C637.51,107.02 638.27,107.02 639.04,107.02C639.81,107.02 640.58,107.02 641.35,107.02C642.12,107.02 642.88,107.02 643.65,107.02C644.42,107.02 645.19,107.02 645.96,107.02C646.73,107.02 647.49,107.02 648.26,107.02C649.03,107.02 649.79,107.02 650.56,107.02C651.33,107.02 652.1,107.02 652.87,107.02C653.64,107.02 654.4,107.02 655.17,107.02C655.94,107.02 656.7,107.02 657.47,107.02C658.24,107.02 659.01,107.02 659.78,107.02C660.55,107.02 661.31,107.02 662.08,107.02C662.85,107.02 663.62,107.02 664.39,107.02C665.16,107.02 665.92,107.02 666.69,107.02C667.46,107.02 668.22,107.02 668.99,107.02C669.76,107.02 670.53,107.01 671.3,107.01C672.07,107.01 672.83,107.01 673.6,107.01C674.37,107.01 675.13,107 675.9,107C676.67,106.99 677.44,106.99 678.21,106.98C678.98,106.97 679.74,106.96 680.51,106.96C681.28,106.95 682.05,106.96 682.82,106.95C683.59,106.95 684.35,106.93 685.12,106.93C685.89,106.93 686.65,106.93 687.42,106.93C688.19,106.93 688.96,106.93 689.73,106.93C690.5,106.93 691.26,106.95 692.03,106.95C692.8,106.96 693.57,106.95 694.34,106.96C695.11,106.96 695.87,106.97 696.64,106.98C697.41,106.99 698.17,107 698.94,107Q699.71,107.01 701.25,107.01L701.25,107.02" style="vector-effect: none; stroke-width: 2px; stroke: rgb(78, 50, 154); stroke-opacity: 1; fill: rgb(97, 62, 193); fill-opacity: 0.5;"/><path class="meanline" d="M97.11,83.5970458984375V107.02" style="fill: none; vector-effect: none; stroke-width: 2px; stroke-dasharray: 4px, 2px; stroke: rgb(78, 50, 154); stroke-opacity: 1;"/></g><g class="trace violins" style="opacity: 1;"><path class="violin" d="M40,85L40,83.8Q41.84,83.03 42.7,82.45C43.64,81.81 44.55,81.01 45.4,80.07C46.36,79 47.25,77.7 48.1,76.3C49.07,74.7 49.95,72.85 50.81,70.93C51.76,68.8 52.64,66.45 53.51,64.07C54.44,61.55 55.31,58.84 56.21,56.2C57.11,53.54 57.99,50.77 58.91,48.17C59.79,45.68 60.66,43.15 61.61,40.9C62.47,38.87 63.32,36.86 64.31,35.22C65.15,33.82 66.01,32.47 67.01,31.57C67.84,30.82 68.77,30.2 69.71,29.97C70.58,29.75 71.54,29.86 72.42,30.09C73.35,30.33 74.25,30.89 75.12,31.44C76.05,32.02 76.93,32.79 77.82,33.53C78.73,34.3 79.62,35.14 80.52,35.97C81.42,36.8 82.32,37.67 83.22,38.51C84.12,39.35 85.02,40.2 85.92,41.03C86.82,41.86 87.72,42.68 88.62,43.49C89.52,44.3 90.42,45.09 91.32,45.88C92.22,46.66 93.13,47.44 94.03,48.21C94.93,48.98 95.83,49.75 96.73,50.51C97.63,51.27 98.53,52.03 99.43,52.78C100.33,53.53 101.23,54.28 102.13,55.01C103.03,55.74 103.93,56.46 104.83,57.16C105.73,57.85 106.62,58.54 107.53,59.19C108.42,59.83 109.32,60.46 110.23,61.05C111.13,61.63 112.03,62.19 112.94,62.72C113.84,63.25 114.74,63.74 115.64,64.23C116.54,64.71 117.44,65.17 118.34,65.62C119.24,66.07 120.14,66.51 121.04,66.94C121.94,67.37 122.84,67.79 123.74,68.2C124.64,68.6 125.54,69 126.44,69.37C127.34,69.74 128.24,70.11 129.14,70.43C130.04,70.75 130.94,71.04 131.84,71.31C132.74,71.58 133.64,71.81 134.55,72.03C135.45,72.25 136.35,72.43 137.25,72.61C138.15,72.79 139.05,72.95 139.95,73.13C140.85,73.31 141.75,73.48 142.65,73.68C143.55,73.88 144.45,74.08 145.35,74.31C146.25,74.54 147.15,74.8 148.05,75.06C148.95,75.32 149.85,75.61 150.75,75.89C151.65,76.17 152.55,76.48 153.45,76.76C154.35,77.05 155.26,77.33 156.16,77.6C157.06,77.87 157.96,78.13 158.86,78.36C159.76,78.59 160.66,78.8 161.56,78.99C162.46,79.17 163.36,79.34 164.26,79.47C165.16,79.6 166.06,79.7 166.96,79.79C167.86,79.87 168.76,79.93 169.66,79.98C170.56,80.02 171.46,80.04 172.36,80.06C173.26,80.08 174.17,80.07 175.07,80.07C175.97,80.07 176.87,80.06 177.77,80.06C178.67,80.06 179.57,80.06 180.47,80.06C181.37,80.06 182.27,80.07 183.17,80.09C184.07,80.11 184.97,80.13 185.87,80.16C186.77,80.19 187.67,80.23 188.57,80.28C189.47,80.33 190.37,80.38 191.27,80.44C192.17,80.5 193.07,80.57 193.97,80.65C194.87,80.73 195.78,80.82 196.68,80.91C197.58,81 198.48,81.1 199.38,81.2C200.28,81.3 201.18,81.4 202.08,81.5C202.98,81.59 203.88,81.68 204.78,81.77C205.68,81.85 206.58,81.94 207.48,82.01C208.38,82.08 209.28,82.14 210.18,82.2C211.08,82.26 211.98,82.31 212.88,82.36C213.78,82.41 214.68,82.46 215.58,82.51C216.48,82.57 217.39,82.62 218.29,82.69C219.19,82.75 220.09,82.83 220.99,82.9C221.89,82.98 222.79,83.06 223.69,83.14C224.59,83.22 225.49,83.31 226.39,83.39C227.29,83.47 228.19,83.55 229.09,83.62C229.99,83.69 230.89,83.75 231.79,83.81C232.69,83.86 233.59,83.91 234.49,83.95C235.39,83.99 236.3,84.01 237.2,84.03C238.1,84.05 239,84.05 239.9,84.06C240.8,84.07 241.7,84.07 242.6,84.07C243.5,84.07 244.4,84.07 245.3,84.07C246.2,84.07 247.1,84.07 248,84.07C248.9,84.07 249.8,84.07 250.7,84.07C251.6,84.07 252.5,84.07 253.4,84.07C254.3,84.07 255.2,84.06 256.1,84.06C257,84.06 257.91,84.06 258.81,84.06C259.71,84.06 260.61,84.06 261.51,84.06C262.41,84.06 263.31,84.07 264.21,84.08C265.11,84.09 266.01,84.1 266.91,84.11C267.81,84.12 268.71,84.13 269.61,84.14C270.51,84.15 271.41,84.17 272.31,84.18C273.21,84.19 274.11,84.2 275.01,84.21C275.91,84.22 276.81,84.23 277.71,84.24C278.61,84.25 279.52,84.26 280.42,84.27C281.32,84.28 282.22,84.29 283.12,84.3C284.02,84.31 284.92,84.32 285.82,84.33C286.72,84.34 287.62,84.34 288.52,84.34C289.42,84.34 290.32,84.33 291.22,84.33C292.12,84.33 293.02,84.32 293.92,84.32C294.82,84.31 295.72,84.3 296.62,84.3C297.52,84.3 298.43,84.29 299.33,84.3C300.23,84.31 301.13,84.32 302.03,84.33C302.93,84.35 303.83,84.37 304.73,84.39C305.63,84.41 306.53,84.44 307.43,84.47C308.33,84.49 309.23,84.52 310.13,84.54C311.03,84.56 311.93,84.58 312.83,84.59C313.73,84.6 314.63,84.6 315.53,84.61C316.43,84.61 317.33,84.62 318.23,84.62C319.13,84.62 320.04,84.62 320.94,84.63C321.84,84.63 322.74,84.64 323.64,84.65C324.54,84.66 325.44,84.68 326.34,84.69C327.24,84.71 328.14,84.72 329.04,84.74C329.94,84.76 330.84,84.78 331.74,84.79C332.64,84.8 333.54,84.81 334.44,84.82C335.34,84.83 336.24,84.84 337.14,84.84C338.04,84.84 338.94,84.84 339.84,84.84C340.74,84.84 341.65,84.84 342.55,84.84C343.45,84.84 344.35,84.83 345.25,84.83C346.15,84.83 347.05,84.82 347.95,84.82C348.85,84.82 349.75,84.82 350.65,84.82C351.55,84.82 352.45,84.82 353.35,84.82C354.25,84.82 355.15,84.83 356.05,84.84C356.95,84.84 357.85,84.85 358.75,84.85C359.65,84.85 360.56,84.86 361.46,84.86C362.36,84.86 363.26,84.86 364.16,84.86C365.06,84.86 365.96,84.85 366.86,84.85C367.76,84.85 368.66,84.84 369.56,84.84C370.46,84.83 371.36,84.83 372.26,84.82C373.16,84.81 374.06,84.8 374.96,84.79C375.86,84.78 376.76,84.78 377.66,84.78C378.56,84.78 379.46,84.78 380.36,84.78C381.26,84.78 382.17,84.78 383.07,84.79C383.97,84.8 384.87,84.81 385.77,84.82C386.67,84.83 387.57,84.84 388.47,84.85C389.37,84.86 390.27,84.86 391.17,84.87C392.07,84.87 392.97,84.88 393.87,84.88C394.77,84.88 395.67,84.88 396.57,84.88C397.47,84.88 398.37,84.87 399.27,84.86C400.17,84.85 401.07,84.84 401.97,84.84C402.87,84.83 403.78,84.83 404.68,84.83C405.58,84.83 406.48,84.83 407.38,84.83C408.28,84.83 409.18,84.84 410.08,84.84C410.98,84.84 411.88,84.84 412.78,84.85C413.68,84.86 414.58,84.87 415.48,84.88C416.38,84.89 417.28,84.9 418.18,84.91C419.08,84.92 419.98,84.92 420.88,84.93C421.78,84.94 422.69,84.94 423.59,84.95C424.49,84.96 425.39,84.97 426.29,84.97C427.19,84.97 428.09,84.97 428.99,84.97C429.89,84.97 430.79,84.97 431.69,84.97C432.59,84.97 433.49,84.96 434.39,84.96C435.29,84.96 436.19,84.95 437.09,84.95C437.99,84.94 438.89,84.94 439.79,84.93C440.69,84.93 441.59,84.92 442.49,84.92C443.39,84.91 444.3,84.9 445.2,84.9C446.1,84.9 447,84.9 447.9,84.9C448.8,84.9 449.7,84.89 450.6,84.89C451.5,84.89 452.4,84.9 453.3,84.9C454.2,84.9 455.1,84.91 456,84.91C456.9,84.91 457.8,84.92 458.7,84.92C459.6,84.92 460.5,84.93 461.4,84.93C462.3,84.93 463.2,84.94 464.1,84.94C465,84.94 465.91,84.94 466.81,84.94C467.71,84.94 468.61,84.94 469.51,84.94C470.41,84.94 471.31,84.94 472.21,84.94C473.11,84.94 474.01,84.93 474.91,84.93C475.81,84.93 476.71,84.93 477.61,84.93C478.51,84.93 479.41,84.93 480.31,84.93C481.21,84.93 482.11,84.93 483.01,84.93C483.91,84.93 484.82,84.92 485.72,84.92C486.62,84.92 487.52,84.92 488.42,84.92C489.32,84.92 490.22,84.91 491.12,84.9C492.02,84.89 492.92,84.89 493.82,84.88C494.72,84.87 495.62,84.86 496.52,84.86C497.42,84.86 498.32,84.86 499.22,84.86C500.12,84.86 501.02,84.87 501.92,84.87C502.82,84.88 503.72,84.88 504.62,84.89C505.52,84.9 506.43,84.91 507.33,84.92C508.23,84.93 509.13,84.94 510.03,84.95C510.93,84.96 511.83,84.96 512.73,84.97Q513.63,84.97 515.43,84.98L515.43,85" style="vector-effect: none; stroke-width: 2px; stroke: rgb(144, 60, 130); stroke-opacity: 1; fill: rgb(180, 75, 162); fill-opacity: 0.5;"/><path class="meanline" d="M103.42,56.048309326171875V85" style="fill: none; vector-effect: none; stroke-width: 2px; stroke-dasharray: 4px, 2px; stroke: rgb(144, 60, 130); stroke-opacity: 1;"/></g><g class="trace violins" style="opacity: 1;"><path class="violin" d="M40.46,62.99L40.46,61.44Q42.24,60.46 43.07,59.76C44,58.97 44.87,57.98 45.69,56.86C46.64,55.57 47.49,54.02 48.31,52.37C49.25,50.49 50.09,48.34 50.92,46.14C51.84,43.72 52.69,41.06 53.54,38.42C54.43,35.66 55.28,32.72 56.16,29.91C57.03,27.13 57.86,24.27 58.77,21.65C59.61,19.24 60.44,16.81 61.39,14.76C62.2,13.01 63.01,11.25 64.01,10.06C64.8,9.12 65.69,8.21 66.62,7.95C67.45,7.72 68.42,7.91 69.24,8.28C70.18,8.7 71.02,9.65 71.85,10.53C72.78,11.52 73.62,12.8 74.47,14.01C75.36,15.28 76.22,16.68 77.09,18.01C77.96,19.34 78.81,20.7 79.7,21.99C80.56,23.24 81.43,24.46 82.32,25.61C83.17,26.7 84.05,27.75 84.94,28.72C85.79,29.65 86.66,30.51 87.55,31.33C88.41,32.12 89.29,32.85 90.17,33.55C91.03,34.23 91.91,34.87 92.79,35.49C93.65,36.1 94.53,36.68 95.4,37.26C96.27,37.83 97.15,38.39 98.02,38.95C98.89,39.51 99.77,40.06 100.64,40.61C101.51,41.16 102.38,41.71 103.25,42.26C104.12,42.81 105,43.37 105.87,43.92C106.74,44.47 107.62,45.01 108.49,45.55C109.36,46.08 110.22,46.61 111.1,47.12C111.97,47.62 112.84,48.11 113.72,48.57C114.59,49.03 115.46,49.47 116.34,49.88C117.21,50.28 118.07,50.66 118.95,51.01C119.82,51.36 120.69,51.69 121.57,51.99C122.44,52.29 123.31,52.57 124.19,52.83C125.06,53.09 125.93,53.33 126.8,53.55C127.67,53.77 128.55,53.98 129.42,54.17C130.29,54.36 131.16,54.53 132.03,54.69C132.9,54.84 133.78,54.98 134.65,55.1C135.52,55.22 136.4,55.31 137.27,55.41C138.14,55.51 139.01,55.6 139.88,55.68C140.75,55.76 141.63,55.83 142.5,55.91C143.37,55.99 144.25,56.07 145.12,56.15C145.99,56.23 146.86,56.32 147.73,56.4C148.6,56.48 149.48,56.56 150.35,56.64C151.22,56.71 152.1,56.79 152.97,56.85C153.84,56.91 154.71,56.97 155.58,57.02C156.45,57.07 157.33,57.1 158.2,57.14C159.07,57.17 159.95,57.2 160.82,57.23C161.69,57.26 162.56,57.28 163.43,57.3C164.3,57.33 165.18,57.35 166.05,57.38C166.92,57.42 167.8,57.46 168.67,57.51C169.54,57.56 170.41,57.62 171.28,57.69C172.15,57.76 173.03,57.85 173.9,57.94C174.77,58.03 175.65,58.13 176.52,58.23C177.39,58.33 178.26,58.43 179.13,58.54C180,58.65 180.88,58.76 181.75,58.87C182.62,58.98 183.5,59.08 184.37,59.18C185.24,59.28 186.11,59.38 186.98,59.47C187.85,59.56 188.73,59.65 189.6,59.72C190.47,59.79 191.34,59.86 192.21,59.91C193.08,59.97 193.96,60.01 194.83,60.05C195.7,60.09 196.58,60.11 197.45,60.13C198.32,60.15 199.19,60.16 200.06,60.16C200.93,60.16 201.81,60.15 202.68,60.15C203.55,60.14 204.43,60.14 205.3,60.13C206.17,60.13 207.04,60.12 207.91,60.12C208.78,60.12 209.66,60.13 210.53,60.14C211.4,60.15 212.28,60.17 213.15,60.2C214.02,60.23 214.89,60.27 215.76,60.31C216.63,60.35 217.51,60.41 218.38,60.46C219.25,60.51 220.13,60.57 221,60.63C221.87,60.69 222.74,60.75 223.61,60.81C224.48,60.87 225.36,60.93 226.23,60.99C227.1,61.04 227.98,61.1 228.85,61.14C229.72,61.18 230.59,61.22 231.46,61.25C232.33,61.28 233.21,61.3 234.08,61.31C234.95,61.32 235.83,61.32 236.7,61.32C237.57,61.32 238.44,61.3 239.31,61.29C240.18,61.28 241.06,61.26 241.93,61.24C242.8,61.23 243.68,61.21 244.55,61.2C245.42,61.19 246.29,61.18 247.16,61.18C248.03,61.18 248.91,61.19 249.78,61.21C250.65,61.23 251.52,61.26 252.39,61.29C253.26,61.33 254.14,61.37 255.01,61.42C255.88,61.47 256.76,61.52 257.63,61.58C258.5,61.64 259.37,61.7 260.24,61.76C261.11,61.82 261.99,61.88 262.86,61.93C263.73,61.98 264.61,62.04 265.48,62.08C266.35,62.12 267.22,62.16 268.09,62.19C268.96,62.22 269.84,62.25 270.71,62.26C271.58,62.27 272.46,62.28 273.33,62.28C274.2,62.28 275.07,62.28 275.94,62.27C276.81,62.26 277.69,62.24 278.56,62.23C279.43,62.22 280.31,62.21 281.18,62.19C282.05,62.18 282.92,62.16 283.79,62.14C284.66,62.12 285.54,62.11 286.41,62.09C287.28,62.08 288.16,62.06 289.03,62.05C289.9,62.04 290.77,62.04 291.64,62.04C292.51,62.04 293.39,62.04 294.26,62.05C295.13,62.06 296.01,62.07 296.88,62.09C297.75,62.11 298.62,62.13 299.49,62.15C300.36,62.17 301.24,62.19 302.11,62.21C302.98,62.23 303.86,62.25 304.73,62.27C305.6,62.28 306.47,62.29 307.34,62.3C308.21,62.31 309.09,62.31 309.96,62.32C310.83,62.32 311.7,62.33 312.57,62.33C313.44,62.34 314.32,62.34 315.19,62.35C316.06,62.36 316.94,62.36 317.81,62.37C318.68,62.38 319.55,62.39 320.42,62.4C321.29,62.41 322.17,62.42 323.04,62.43C323.91,62.44 324.79,62.45 325.66,62.45C326.53,62.45 327.4,62.45 328.27,62.45C329.14,62.45 330.02,62.44 330.89,62.43C331.76,62.42 332.64,62.41 333.51,62.4C334.38,62.39 335.25,62.37 336.12,62.36C336.99,62.35 337.87,62.34 338.74,62.33C339.61,62.32 340.49,62.32 341.36,62.32C342.23,62.32 343.1,62.32 343.97,62.32C344.84,62.32 345.72,62.33 346.59,62.34C347.46,62.35 348.34,62.35 349.21,62.36C350.08,62.37 350.95,62.38 351.82,62.39C352.69,62.4 353.57,62.41 354.44,62.42C355.31,62.43 356.19,62.45 357.06,62.46C357.93,62.47 358.8,62.48 359.67,62.49C360.54,62.5 361.42,62.51 362.29,62.52C363.16,62.53 364.04,62.53 364.91,62.54C365.78,62.55 366.65,62.55 367.52,62.56C368.39,62.57 369.27,62.57 370.14,62.58C371.01,62.58 371.88,62.59 372.75,62.59C373.62,62.59 374.5,62.6 375.37,62.6C376.24,62.61 377.12,62.61 377.99,62.62C378.86,62.63 379.73,62.63 380.6,62.64C381.47,62.65 382.35,62.66 383.22,62.67C384.09,62.68 384.97,62.68 385.84,62.69C386.71,62.7 387.58,62.71 388.45,62.72C389.32,62.73 390.2,62.73 391.07,62.74C391.94,62.75 392.82,62.76 393.69,62.76C394.56,62.76 395.43,62.76 396.3,62.76C397.17,62.76 398.05,62.75 398.92,62.75C399.79,62.74 400.67,62.74 401.54,62.73C402.41,62.72 403.28,62.71 404.15,62.7C405.02,62.69 405.9,62.68 406.77,62.67C407.64,62.66 408.52,62.66 409.39,62.65C410.26,62.64 411.13,62.63 412,62.62C412.87,62.61 413.75,62.61 414.62,62.6C415.49,62.59 416.37,62.58 417.24,62.57C418.11,62.56 418.98,62.54 419.85,62.53C420.72,62.52 421.6,62.51 422.47,62.5C423.34,62.49 424.22,62.48 425.09,62.47C425.96,62.46 426.83,62.46 427.7,62.46C428.57,62.46 429.45,62.45 430.32,62.45C431.19,62.45 432.06,62.46 432.93,62.47C433.8,62.48 434.68,62.49 435.55,62.5C436.42,62.51 437.3,62.52 438.17,62.54C439.04,62.55 439.91,62.57 440.78,62.59C441.65,62.61 442.53,62.63 443.4,62.65C444.27,62.67 445.15,62.69 446.02,62.71C446.89,62.73 447.76,62.75 448.63,62.77C449.5,62.79 450.38,62.8 451.25,62.81C452.12,62.82 453,62.83 453.87,62.84C454.74,62.85 455.61,62.86 456.48,62.86C457.35,62.86 458.23,62.86 459.1,62.86C459.97,62.86 460.85,62.86 461.72,62.86C462.59,62.86 463.46,62.86 464.33,62.86C465.2,62.86 466.08,62.86 466.95,62.86C467.82,62.86 468.7,62.87 469.57,62.87C470.44,62.87 471.31,62.88 472.18,62.88C473.05,62.88 473.93,62.89 474.8,62.89C475.67,62.9 476.55,62.9 477.42,62.91C478.29,62.91 479.16,62.92 480.03,62.92C480.9,62.93 481.78,62.93 482.65,62.94C483.52,62.94 484.4,62.95 485.27,62.95C486.14,62.95 487.01,62.96 487.88,62.96C488.75,62.96 489.63,62.96 490.5,62.96C491.37,62.96 492.24,62.96 493.11,62.96C493.98,62.96 494.86,62.95 495.73,62.95C496.6,62.95 497.48,62.94 498.35,62.94C499.22,62.94 500.09,62.93 500.96,62.93C501.83,62.92 502.71,62.92 503.58,62.91C504.45,62.9 505.33,62.9 506.2,62.89C507.07,62.88 507.94,62.87 508.81,62.87C509.68,62.86 510.56,62.86 511.43,62.86C512.3,62.85 513.18,62.85 514.05,62.84C514.92,62.84 515.79,62.83 516.66,62.83C517.53,62.83 518.41,62.83 519.28,62.83C520.15,62.83 521.03,62.83 521.9,62.83C522.77,62.83 523.64,62.84 524.51,62.85C525.38,62.86 526.26,62.86 527.13,62.87C528,62.88 528.88,62.89 529.75,62.9C530.62,62.91 531.49,62.92 532.36,62.92C533.23,62.93 534.11,62.93 534.98,62.93C535.85,62.93 536.73,62.94 537.6,62.94C538.47,62.94 539.34,62.94 540.21,62.94C541.08,62.94 541.96,62.93 542.83,62.93C543.7,62.93 544.58,62.93 545.45,62.93C546.32,62.93 547.19,62.93 548.06,62.93C548.93,62.93 549.81,62.93 550.68,62.93C551.55,62.93 552.42,62.93 553.29,62.93C554.16,62.93 555.04,62.93 555.91,62.93C556.78,62.93 557.66,62.93 558.53,62.92C559.4,62.91 560.27,62.9 561.14,62.89C562.01,62.88 562.89,62.88 563.76,62.87C564.63,62.86 565.51,62.86 566.38,62.85C567.25,62.84 568.12,62.83 568.99,62.83C569.86,62.83 570.74,62.83 571.61,62.83C572.48,62.83 573.36,62.84 574.23,62.85C575.1,62.86 575.97,62.86 576.84,62.87C577.71,62.88 578.59,62.89 579.46,62.9C580.33,62.91 581.21,62.92 582.08,62.93C582.95,62.94 583.82,62.94 584.69,62.95C585.56,62.96 586.44,62.96 587.31,62.97C588.18,62.97 589.06,62.98 589.93,62.98C590.8,62.98 591.67,62.98 592.54,62.98C593.41,62.98 594.29,62.99 595.16,62.99C596.03,62.99 596.91,62.99 597.78,62.99C598.65,62.99 599.52,62.98 600.39,62.98C601.26,62.98 602.14,62.98 603.01,62.98C603.88,62.98 604.76,62.97 605.63,62.97C606.5,62.97 607.37,62.96 608.24,62.96C609.11,62.95 609.99,62.95 610.86,62.94C611.73,62.93 612.6,62.93 613.47,62.92C614.34,62.91 615.22,62.91 616.09,62.9C616.96,62.89 617.84,62.88 618.71,62.88C619.58,62.88 620.45,62.88 621.32,62.88C622.19,62.88 623.07,62.89 623.94,62.89C624.81,62.89 625.69,62.89 626.56,62.9C627.43,62.9 628.3,62.91 629.17,62.92C630.04,62.93 630.92,62.94 631.79,62.94C632.66,62.94 633.54,62.94 634.41,62.94C635.28,62.94 636.15,62.94 637.02,62.94C637.89,62.94 638.77,62.94 639.64,62.94C640.51,62.94 641.39,62.94 642.26,62.93C643.13,62.93 644,62.91 644.87,62.91C645.74,62.9 646.62,62.9 647.49,62.9C648.36,62.89 649.24,62.89 650.11,62.88C650.98,62.88 651.85,62.87 652.72,62.87C653.59,62.86 654.47,62.86 655.34,62.85C656.21,62.84 657.09,62.83 657.96,62.83C658.83,62.83 659.7,62.83 660.57,62.83C661.44,62.83 662.32,62.82 663.19,62.82C664.06,62.82 664.94,62.83 665.81,62.83C666.68,62.83 667.55,62.84 668.42,62.84C669.29,62.85 670.17,62.85 671.04,62.86C671.91,62.86 672.78,62.87 673.65,62.87C674.52,62.88 675.4,62.88 676.27,62.89C677.14,62.9 678.02,62.9 678.89,62.91C679.76,62.91 680.63,62.92 681.5,62.92C682.37,62.93 683.25,62.93 684.12,62.94C684.99,62.94 685.87,62.95 686.74,62.95C687.61,62.95 688.48,62.95 689.35,62.95C690.22,62.95 691.1,62.95 691.97,62.95C692.84,62.95 693.72,62.94 694.59,62.94C695.46,62.94 696.33,62.94 697.2,62.94C698.07,62.94 698.95,62.93 699.82,62.93C700.69,62.93 701.57,62.93 702.44,62.93C703.31,62.93 704.18,62.94 705.05,62.94C705.92,62.94 706.8,62.94 707.67,62.94C708.54,62.94 709.42,62.95 710.29,62.95C711.16,62.95 712.03,62.95 712.9,62.95C713.77,62.95 714.65,62.95 715.52,62.95C716.39,62.95 717.27,62.94 718.14,62.94C719.01,62.94 719.88,62.94 720.75,62.94C721.62,62.94 722.5,62.93 723.37,62.93C724.24,62.93 725.12,62.93 725.99,62.93C726.86,62.93 727.73,62.93 728.6,62.93C729.47,62.93 730.35,62.94 731.22,62.94C732.09,62.94 732.96,62.94 733.83,62.94C734.7,62.94 735.58,62.94 736.45,62.94C737.32,62.94 738.2,62.93 739.07,62.93C739.94,62.93 740.81,62.93 741.68,62.93C742.55,62.93 743.43,62.93 744.3,62.93C745.17,62.93 746.05,62.94 746.92,62.94C747.79,62.94 748.66,62.94 749.53,62.94C750.4,62.94 751.28,62.95 752.15,62.95C753.02,62.96 753.9,62.97 754.77,62.97C755.64,62.97 756.51,62.97 757.38,62.97Q758.25,62.97 760,62.98L760,62.99" style="vector-effect: none; stroke-width: 2px; stroke: rgb(90, 114, 107); stroke-opacity: 1; fill: rgb(112, 143, 134); fill-opacity: 0.5;"/><path class="meanline" d="M108.91,45.80604553222656V62.99" style="fill: none; vector-effect: none; stroke-width: 2px; stroke-dasharray: 4px, 2px; stroke: rgb(90, 114, 107); stroke-opacity: 1;"/></g></g></g><g class="overplot"/><path class="xlines-above crisp" d="M0,0" style="fill: none;"/><path class="ylines-above crisp" d="M0,0" style="fill: none;"/><g class="overlines-above"/><g class="xaxislayer-above"><g class="xtick"><text text-anchor="middle" x="0" y="172" transform="translate(52.29,0)" style="font-family: 'Open Sans', verdana, arial, sans-serif; font-size: 12px; fill: rgb(242, 245, 250); fill-opacity: 1; white-space: pre; opacity: 1;">0</text></g><g class="xtick"><text text-anchor="middle" x="0" y="172" style="font-family: 'Open Sans', verdana, arial, sans-serif; font-size: 12px; fill: rgb(242, 245, 250); fill-opacity: 1; white-space: pre; opacity: 1;" transform="translate(150.3,0)">50</text></g><g class="xtick"><text text-anchor="middle" x="0" y="172" style="font-family: 'Open Sans', verdana, arial, sans-serif; font-size: 12px; fill: rgb(242, 245, 250); fill-opacity: 1; white-space: pre; opacity: 1;" transform="translate(248.31,0)">100</text></g><g class="xtick"><text text-anchor="middle" x="0" y="172" style="font-family: 'Open Sans', verdana, arial, sans-serif; font-size: 12px; fill: rgb(242, 245, 250); fill-opacity: 1; white-space: pre; opacity: 1;" transform="translate(346.32,0)">150</text></g><g class="xtick"><text text-anchor="middle" x="0" y="172" style="font-family: 'Open Sans', verdana, arial, sans-serif; font-size: 12px; fill: rgb(242, 245, 250); fill-opacity: 1; white-space: pre; opacity: 1;" transform="translate(444.33,0)">200</text></g><g class="xtick"><text text-anchor="middle" x="0" y="172" style="font-family: 'Open Sans', verdana, arial, sans-serif; font-size: 12px; fill: rgb(242, 245, 250); fill-opacity: 1; white-space: pre; opacity: 1;" transform="translate(542.34,0)">250</text></g><g class="xtick"><text text-anchor="middle" x="0" y="172" style="font-family: 'Open Sans', verdana, arial, sans-serif; font-size: 12px; fill: rgb(242, 245, 250); fill-opacity: 1; white-space: pre; opacity: 1;" transform="translate(640.35,0)">300</text></g><g class="xtick"><text text-anchor="middle" x="0" y="172" style="font-family: 'Open Sans', verdana, arial, sans-serif; font-size: 12px; fill: rgb(242, 245, 250); fill-opacity: 1; white-space: pre; opacity: 1;" transform="translate(738.37,0)">350</text></g></g><g class="yaxislayer-above"/><g class="overaxes-above"/></g></g><g class="polarlayer"/><g class="smithlayer"/><g class="ternarylayer"/><g class="geolayer"/><g class="funnelarealayer"/><g class="pielayer"/><g class="iciclelayer"/><g class="treemaplayer"/><g class="sunburstlayer"/><g class="glimages"/><defs id="topdefs-7498c3"><g class="clips"/></defs><g class="layer-above"><g class="imagelayer"/><g class="shapelayer"/></g><g class="infolayer"><g class="g-gtitle"/><g class="g-xtitle" transform="translate(0,-2.3000000000000114)"><text class="xtitle" x="400" y="199.3" text-anchor="middle" style="font-family: 'Open Sans', verdana, arial, sans-serif; font-size: 14px; fill: rgb(242, 245, 250); opacity: 1; white-space: pre;">Life Span</text></g><g class="g-ytitle"/></g></svg>