<svg class="main-svg" xmlns="http://www.w3.org/2000/svg" xmlns:xlink="http://www.w3.org/1999/xlink" width="800" height="200" style="" viewBox="0 0 800 200"><rect x="0" y="0" width="800" height="200" style="fill: rgb(0, 0, 0); fill-opacity: 0;"/><defs id="defs-6682a5"><g class="clips"><clipPath id="clip6682a5xyplot" class="plotclip"><rect width="800" height="159"/></clipPath><clipPath class="axesclip" id="clip6682a5x"><rect x="0" y="0" width="800" height="200"/></clipPath><clipPath class="axesclip" id="clip6682a5y"><rect x="0" y="0" width="800" height="159"/></clipPath><clipPath class="axesclip" id="clip6682a5xy"><rect x="0" y="0" width="800" height="159"/></clipPath></g><g class="gradients"/><g class="patterns"/></defs><g class="bglayer"><rect class="bg" x="0" y="0" width="800" height="159" style="fill: rgb(0, 0, 0); fill-opacity: 0; stroke-width: 0;"/></g><g class="layer-below"><g class="imagelayer"/><g class="shapelayer"/></g><g class="cartesianlayer"><g class="subplot xy"><g class="layer-subplot"><g class="shapelayer"/><g class="imagelayer"/></g><g class="minor-gridlayer"><g class="x"/><g class="y"/></g><g class="gridlayer"><g class="x"><path class="xgrid crisp" transform="translate(175.78,0)" d="M0,0v159" style="stroke: rgb(40, 52, 66); stroke-opacity: 1; stroke-width: 1px;"/><path class="xgrid crisp" transform="translate(314.56,0)" d="M0,0v159" style="stroke: rgb(40, 52, 66); stroke-opacity: 1; stroke-width: 1px;"/><path class="xgrid crisp" transform="translate(453.34,0)" d="M0,0v159" style="stroke: rgb(40, 52, 66); stroke-opacity: 1; stroke-width: 1px;"/><path class="xgrid crisp" transform="translate(592.12,0)" d="M0,0v159" style="stroke: rgb(40, 52, 66); stroke-opacity: 1; stroke-width: 1px;"/><path class="xgrid crisp" transform="translate(730.9,0)" d="M0,0v159" style="stroke: rgb(40, 52, 66); stroke-opacity: 1; stroke-width: 1px;"/></g><g class="y"/></g><g class="zerolinelayer"><path class="xzl zl crisp" transform="translate(37,0)" d="M0,0v159" style="stroke: rgb(40, 52, 66); stroke-opacity: 1; stroke-width: 2px;"/></g><g class="layer-between"><g class="shapelayer"/><g class="imagelayer"/></g><path class="xlines-below"/><path class="ylines-below"/><g class="overlines-below"/><g class="xaxislayer-below"/><g class="yaxislayer-below"/><g class="overaxes-below"/><g class="plot" transform="" clip-path="url(#clip6682a5xyplot)"><g class="violinlayer mlayer"><g class="trace violins" style="opacity: 1;"><path class="violin" d="M40,151.05L40,150.58Q42.9,150.3 44.35,150.08C45.8,149.86 47.26,149.6 48.7,149.25C50.16,148.9 51.61,148.47 53.05,147.97C54.51,147.46 55.96,146.87 57.4,146.23C58.86,145.58 60.31,144.84 61.75,144.09C63.21,143.33 64.65,142.51 66.1,141.72C67.55,140.93 68.99,140.1 70.45,139.35C71.89,138.6 73.33,137.87 74.79,137.22C76.23,136.58 77.68,136 79.14,135.5C80.58,135.01 82.03,134.6 83.49,134.26C84.93,133.93 86.39,133.68 87.84,133.49C89.29,133.3 90.74,133.19 92.19,133.14C93.64,133.09 95.09,133.1 96.54,133.18C97.99,133.26 99.44,133.4 100.89,133.61C102.34,133.82 103.8,134.11 105.24,134.45C106.7,134.8 108.15,135.23 109.59,135.69C111.05,136.15 112.49,136.69 113.94,137.21C115.39,137.74 116.84,138.31 118.29,138.84C119.74,139.36 121.18,139.9 122.64,140.36C124.08,140.81 125.53,141.24 126.99,141.57C128.43,141.9 129.89,142.17 131.34,142.36C132.78,142.55 134.23,142.66 135.68,142.69C137.13,142.72 138.58,142.67 140.03,142.53C141.48,142.39 142.94,142.17 144.38,141.86C145.84,141.55 147.29,141.13 148.73,140.66C150.19,140.18 151.64,139.59 153.08,138.98C154.54,138.36 155.98,137.64 157.43,136.98C158.88,136.32 160.32,135.6 161.78,135.04C163.22,134.49 164.66,133.93 166.13,133.62C167.56,133.31 169.03,133.12 170.48,133.16C171.93,133.2 173.4,133.48 174.83,133.89C176.31,134.32 177.75,135.01 179.18,135.72C180.65,136.45 182.09,137.37 183.53,138.23C184.99,139.1 186.42,140.06 187.88,140.91C189.32,141.75 190.76,142.58 192.23,143.3C193.66,144 195.11,144.63 196.57,145.17C198.01,145.7 199.46,146.13 200.92,146.52C202.36,146.91 203.82,147.21 205.27,147.51C206.72,147.81 208.17,148.05 209.62,148.3C211.07,148.54 212.52,148.77 213.97,148.98C215.42,149.19 216.87,149.39 218.32,149.56C219.77,149.73 221.22,149.88 222.67,149.98C224.12,150.08 225.57,150.16 227.02,150.16C228.47,150.16 229.92,150.11 231.37,149.96C232.82,149.81 234.28,149.59 235.72,149.23C237.18,148.86 238.65,148.39 240.07,147.76C241.55,147.1 243.01,146.29 244.42,145.34C245.92,144.33 247.36,143.12 248.77,141.81C250.27,140.41 251.71,138.81 253.12,137.15C254.61,135.4 256.04,133.48 257.47,131.56C258.94,129.58 260.36,127.48 261.81,125.44C263.26,123.4 264.69,121.29 266.16,119.31C267.59,117.39 269.02,115.46 270.51,113.72C271.92,112.08 273.35,110.48 274.86,109.12C276.26,107.85 277.71,106.7 279.21,105.77C280.62,104.89 282.08,104.2 283.56,103.63C284.99,103.08 286.45,102.74 287.91,102.39C289.35,102.04 290.81,101.83 292.26,101.52C293.71,101.21 295.17,100.91 296.61,100.52C298.07,100.12 299.52,99.64 300.96,99.15C302.42,98.65 303.85,98.03 305.31,97.55C306.75,97.07 308.2,96.53 309.66,96.27C311.1,96.02 312.58,95.84 314.01,96.01C315.48,96.18 316.97,96.65 318.36,97.34C319.87,98.09 321.31,99.25 322.7,100.47C324.22,101.81 325.64,103.47 327.05,105.13C328.54,106.88 329.96,108.84 331.4,110.74C332.86,112.66 334.29,114.69 335.75,116.6C337.19,118.48 338.62,120.36 340.1,122.12C341.52,123.81 342.97,125.45 344.45,126.96C345.87,128.41 347.32,129.78 348.8,131.02C350.22,132.21 351.67,133.31 353.15,134.28C354.57,135.21 356.02,136.06 357.5,136.75C358.92,137.41 360.38,137.99 361.85,138.35C363.28,138.7 364.75,138.91 366.2,138.88C367.65,138.85 369.13,138.61 370.55,138.17C372.03,137.71 373.49,136.97 374.9,136.13C376.39,135.24 377.83,134.09 379.25,132.95C380.73,131.77 382.14,130.38 383.6,129.13C385.04,127.89 386.45,126.54 387.94,125.47C389.35,124.45 390.79,123.43 392.29,122.82C393.7,122.24 395.19,121.83 396.64,121.8C398.09,121.77 399.58,122.13 400.99,122.65C402.49,123.2 403.93,124.15 405.34,125.11C406.83,126.13 408.26,127.4 409.69,128.63C411.16,129.89 412.59,131.27 414.04,132.58C415.49,133.88 416.92,135.21 418.39,136.45C419.82,137.66 421.27,138.84 422.74,139.92C424.17,140.97 425.62,141.97 427.09,142.88C428.52,143.76 429.97,144.58 431.44,145.31C432.87,146.02 434.33,146.67 435.79,147.23C437.23,147.78 438.68,148.26 440.14,148.67C441.58,149.07 443.04,149.4 444.49,149.67C445.93,149.94 447.38,150.14 448.83,150.3C450.28,150.46 451.73,150.57 453.18,150.65C454.63,150.73 456.08,150.78 457.53,150.8C458.98,150.82 460.43,150.82 461.88,150.8C463.33,150.78 464.78,150.74 466.23,150.68C467.68,150.62 469.13,150.55 470.58,150.46C472.03,150.37 473.48,150.25 474.93,150.12C476.38,149.98 477.83,149.83 479.28,149.65C480.73,149.47 482.18,149.27 483.63,149.04C485.08,148.81 486.53,148.55 487.98,148.26C489.43,147.97 490.88,147.65 492.33,147.32C493.78,146.99 495.23,146.62 496.68,146.28C498.13,145.94 499.58,145.57 501.03,145.27C502.48,144.97 503.93,144.67 505.38,144.48C506.82,144.29 508.27,144.14 509.72,144.11C511.17,144.08 512.62,144.15 514.07,144.29C515.52,144.43 516.98,144.69 518.42,144.98C519.88,145.27 521.32,145.67 522.77,146.05C524.22,146.43 525.67,146.87 527.12,147.27C528.57,147.67 530.02,148.08 531.47,148.44C532.92,148.79 534.37,149.12 535.82,149.4C537.27,149.68 538.72,149.91 540.17,150.1C541.62,150.29 543.07,150.43 544.52,150.55Q545.97,150.67 548.87,150.81L548.87,151.05" style="vector-effect: none; stroke-width: 2px; stroke: rgb(148, 133, 56); stroke-opacity: 1; fill: rgb(185, 166, 70); fill-opacity: 0.5;"/><path class="meanline" d="M283.87,103.51426696777344V151.05" style="fill: none; vector-effect: none; stroke-width: 2px; stroke-dasharray: 4px, 2px; stroke: rgb(148, 133, 56); stroke-opacity: 1;"/></g><g class="trace violins" style="opacity: 1;"><path class="violin" d="M132.27,129.03L132.27,128.81Q136.47,128.68 138.57,128.59C140.67,128.5 142.77,128.38 144.87,128.25C146.97,128.11 149.07,127.95 151.17,127.78C153.27,127.61 155.37,127.41 157.47,127.23C159.57,127.05 161.67,126.86 163.77,126.7C165.87,126.55 167.97,126.4 170.07,126.3C172.17,126.2 174.27,126.14 176.37,126.11C178.47,126.08 180.57,126.1 182.67,126.12C184.77,126.14 186.87,126.21 188.97,126.22C191.07,126.23 193.17,126.26 195.27,126.18C197.37,126.1 199.48,126 201.57,125.75C203.68,125.5 205.78,125.16 207.87,124.67C209.98,124.18 212.09,123.55 214.17,122.8C216.29,122.03 218.39,121.11 220.47,120.09C222.6,119.05 224.69,117.85 226.77,116.61C228.89,115.34 230.98,113.95 233.07,112.55C235.18,111.13 237.27,109.63 239.37,108.16C241.47,106.69 243.56,105.17 245.67,103.74C247.76,102.32 249.85,100.89 251.97,99.6C254.05,98.33 256.14,97.09 258.27,96.05C260.34,95.04 262.44,94.11 264.57,93.45C266.64,92.81 268.76,92.31 270.87,92.14C272.96,91.97 275.08,92.05 277.16,92.39C279.28,92.74 281.39,93.44 283.46,94.24C285.59,95.07 287.67,96.22 289.76,97.3C291.87,98.39 293.93,99.73 296.06,100.76C298.14,101.77 300.22,102.86 302.36,103.44C304.42,103.99 306.58,104.39 308.66,104.22C310.78,104.05 312.94,103.36 314.96,102.39C317.15,101.34 319.23,99.68 321.26,97.98C323.44,96.16 325.48,93.88 327.56,91.73C329.68,89.53 331.72,87.08 333.86,84.93C335.92,82.85 337.97,80.68 340.16,79.01C342.18,77.47 344.28,75.99 346.46,75.17C348.49,74.41 350.67,74 352.76,74.07C354.87,74.15 357.01,74.84 359.06,75.64C361.22,76.48 363.28,77.87 365.36,79.09C367.48,80.33 369.52,81.88 371.66,83.03C373.72,84.14 375.81,85.31 377.96,85.89C380.02,86.44 382.18,86.72 384.26,86.51C386.38,86.3 388.51,85.49 390.56,84.58C392.72,83.63 394.77,82.13 396.86,80.84C398.97,79.53 401.01,77.92 403.16,76.78C405.22,75.69 407.31,74.53 409.46,74.08C411.52,73.64 413.71,73.55 415.76,74C417.92,74.48 420.06,75.66 422.06,77.02C424.28,78.52 426.33,80.67 428.36,82.81C430.54,85.11 432.59,87.82 434.66,90.44C436.79,93.12 438.84,96.01 440.96,98.72C443.04,101.39 445.11,104.11 447.26,106.59C449.31,108.96 451.4,111.26 453.56,113.3C455.6,115.23 457.7,117.01 459.86,118.55C461.9,120.01 464.01,121.27 466.15,122.35C468.21,123.39 470.33,124.23 472.45,124.95C474.53,125.65 476.64,126.18 478.75,126.64C480.84,127.09 482.95,127.41 485.05,127.69C487.15,127.97 489.25,128.16 491.35,128.32C493.45,128.48 495.55,128.58 497.65,128.67C499.75,128.75 501.85,128.8 503.95,128.83C506.05,128.86 508.15,128.87 510.25,128.86C512.35,128.85 514.45,128.81 516.55,128.74C518.65,128.67 520.75,128.59 522.85,128.44C524.95,128.29 527.05,128.11 529.15,127.86C531.25,127.61 533.36,127.31 535.45,126.94C537.56,126.57 539.66,126.12 541.75,125.63C543.86,125.14 545.95,124.56 548.05,124.01C550.15,123.46 552.25,122.84 554.35,122.31C556.45,121.78 558.54,121.24 560.65,120.83C562.74,120.43 564.84,120.07 566.95,119.88C569.04,119.69 571.15,119.61 573.25,119.66C575.35,119.71 577.46,119.91 579.55,120.17C581.66,120.43 583.75,120.82 585.85,121.22C587.95,121.62 590.05,122.11 592.15,122.56C594.25,123.01 596.35,123.51 598.45,123.94C600.55,124.37 602.65,124.79 604.75,125.16C606.85,125.52 608.95,125.86 611.05,126.13C613.15,126.4 615.25,126.63 617.35,126.78C619.45,126.93 621.55,127.03 623.65,127.05C625.75,127.07 627.85,127.02 629.95,126.91C632.05,126.8 634.15,126.61 636.25,126.37C638.35,126.13 640.45,125.81 642.55,125.49C644.65,125.17 646.74,124.79 648.84,124.45C650.94,124.11 653.04,123.73 655.14,123.45C657.24,123.17 659.34,122.9 661.44,122.75C663.54,122.6 665.64,122.52 667.74,122.53C669.84,122.54 671.94,122.66 674.04,122.84C676.14,123.02 678.24,123.32 680.34,123.63C682.44,123.94 684.54,124.34 686.64,124.71C688.74,125.08 690.84,125.5 692.94,125.87C695.04,126.24 697.14,126.6 699.24,126.91C701.34,127.22 703.44,127.5 705.54,127.73C707.64,127.96 709.74,128.15 711.84,128.31C713.94,128.46 716.04,128.57 718.14,128.66Q720.24,128.75 724.44,128.86L724.44,129.03" style="vector-effect: none; stroke-width: 2px; stroke: rgb(30, 138, 174); stroke-opacity: 1; fill: rgb(37, 173, 218); fill-opacity: 0.5;"/><path class="meanline" d="M371.29,82.82660675048828V129.03" style="fill: none; vector-effect: none; stroke-width: 2px; stroke-dasharray: 4px, 2px; stroke: rgb(30, 138, 174); stroke-opacity: 1;"/></g><g class="trace violins" style="opacity: 1;"><path class="violin" d="M103.65,107.02L103.65,106.44Q110.95,106.08 114.59,105.75C118.24,105.42 121.89,105.04 125.53,104.47C129.19,103.9 132.85,103.21 136.47,102.31C140.14,101.4 143.8,100.3 147.41,99.01C151.09,97.69 154.74,96.14 158.35,94.46C162.03,92.74 165.67,90.78 169.29,88.79C172.96,86.77 176.58,84.55 180.23,82.43C183.88,80.31 187.5,78.08 191.17,76.09C194.79,74.13 198.41,72.16 202.1,70.56C205.7,69 209.35,67.58 213.04,66.58C216.65,65.6 220.32,64.9 223.98,64.56C227.61,64.22 231.28,64.27 234.92,64.53C238.58,64.79 242.23,65.43 245.86,66.11C249.52,66.8 253.16,67.76 256.8,68.65C260.45,69.55 264.09,70.57 267.74,71.48C271.38,72.39 275.03,73.3 278.68,74.11C282.32,74.92 285.97,75.67 289.62,76.35C293.26,77.03 296.91,77.63 300.56,78.19C304.2,78.75 307.85,79.26 311.5,79.7C315.14,80.14 318.78,80.55 322.43,80.82C326.07,81.09 329.72,81.33 333.37,81.34C337.02,81.35 340.67,81.26 344.31,80.88C347.97,80.5 351.63,79.92 355.25,79.07C358.93,78.2 362.58,77.04 366.19,75.69C369.88,74.31 373.51,72.58 377.13,70.83C380.81,69.05 384.42,66.98 388.07,65.07C391.71,63.16 395.33,61.09 399.01,59.37C402.62,57.68 406.25,56.02 409.95,54.83C413.55,53.67 417.22,52.73 420.89,52.26C424.51,51.79 428.2,51.73 431.83,51.98C435.49,52.24 439.16,52.93 442.77,53.8C446.45,54.69 450.09,55.94 453.7,57.29C457.38,58.66 461.02,60.3 464.64,61.99C468.31,63.7 471.94,65.62 475.58,67.5C479.24,69.39 482.86,71.42 486.52,73.31C490.16,75.19 493.78,77.13 497.46,78.79C501.07,80.42 504.71,81.99 508.4,83.18C512.01,84.35 515.67,85.29 519.34,85.91C522.96,86.52 526.63,86.79 530.28,86.9C533.92,87.01 537.58,86.77 541.22,86.56C544.87,86.35 548.51,85.94 552.16,85.64C555.81,85.34 559.45,85.02 563.1,84.77C566.74,84.52 570.39,84.36 574.03,84.13C577.68,83.9 581.33,83.76 584.97,83.39C588.62,83.02 592.28,82.6 595.91,81.92C599.57,81.24 603.23,80.33 606.85,79.29C610.52,78.24 614.15,76.89 617.79,75.63C621.44,74.36 625.06,72.87 628.73,71.7C632.36,70.55 635.99,69.33 639.67,68.65C643.29,67.98 646.97,67.52 650.61,67.61C654.26,67.7 657.95,68.28 661.55,69.21C665.25,70.17 668.9,71.71 672.49,73.35C676.19,75.04 679.81,77.19 683.43,79.26C687.1,81.36 690.71,83.72 694.37,85.87C698,88.01 701.62,90.2 705.3,92.13C708.91,94.02 712.55,95.81 716.24,97.34C719.85,98.83 723.5,100.13 727.18,101.21C730.8,102.28 734.46,103.11 738.12,103.81C741.75,104.5 745.41,104.98 749.06,105.39Q752.7,105.8 760,106.26L760,107.02" style="vector-effect: none; stroke-width: 2px; stroke: rgb(90, 114, 107); stroke-opacity: 1; fill: rgb(112, 143, 134); fill-opacity: 0.5;"/><path class="meanline" d="M425.91,51.862403869628906V107.02" style="fill: none; vector-effect: none; stroke-width: 2px; stroke-dasharray: 4px, 2px; stroke: rgb(90, 114, 107); stroke-opacity: 1;"/></g><g class="trace violins" style="opacity: 1;"><path class="violin" d="M227.96,85L227.96,84.76Q233.23,84.6 235.86,84.45C238.5,84.3 241.14,84.13 243.77,83.85C246.41,83.57 249.05,83.24 251.68,82.76C254.33,82.27 256.98,81.7 259.59,80.93C262.25,80.15 264.9,79.22 267.5,78.09C270.17,76.93 272.82,75.57 275.41,74.03C278.1,72.43 280.73,70.59 283.32,68.63C286,66.6 288.62,64.34 291.22,62.05C293.89,59.7 296.5,57.15 299.13,54.68C301.77,52.2 304.38,49.6 307.04,47.18C309.65,44.81 312.26,42.4 314.95,40.3C317.53,38.29 320.15,36.33 322.86,34.8C325.43,33.35 328.08,32.06 330.77,31.25C333.35,30.48 336.03,30.03 338.67,29.97C341.3,29.91 343.98,30.31 346.58,30.91C349.25,31.53 351.89,32.58 354.49,33.67C357.16,34.78 359.77,36.22 362.4,37.54C365.04,38.87 367.65,40.35 370.31,41.61C372.93,42.85 375.55,44.09 378.22,45.06C380.83,46.01 383.47,46.8 386.13,47.4C388.74,47.99 391.39,48.34 394.03,48.64C396.66,48.94 399.3,49.03 401.94,49.21C404.58,49.39 407.22,49.49 409.85,49.73C412.49,49.98 415.13,50.27 417.76,50.68C420.4,51.09 423.04,51.63 425.67,52.2C428.31,52.77 430.95,53.46 433.58,54.1C436.22,54.74 438.84,55.43 441.48,56.06C444.11,56.69 446.75,57.29 449.39,57.89C452.03,58.49 454.67,59.04 457.3,59.66C459.94,60.28 462.58,60.89 465.21,61.6C467.85,62.31 470.49,63.08 473.12,63.93C475.77,64.79 478.4,65.75 481.03,66.74C483.68,67.74 486.31,68.84 488.94,69.92C491.58,71 494.2,72.16 496.84,73.24C499.47,74.31 502.1,75.39 504.75,76.37C507.38,77.34 510.01,78.27 512.66,79.07C515.28,79.86 517.92,80.56 520.57,81.13C523.19,81.7 525.84,82.15 528.48,82.5C531.11,82.84 533.75,83.07 536.39,83.2C539.02,83.33 541.66,83.35 544.29,83.31C546.93,83.27 549.57,83.13 552.2,82.95C554.84,82.77 557.48,82.5 560.11,82.21C562.75,81.91 565.39,81.56 568.02,81.18C570.66,80.79 573.3,80.36 575.93,79.9C578.57,79.44 581.21,78.93 583.84,78.4C586.48,77.87 589.11,77.3 591.74,76.71C594.38,76.11 597.02,75.48 599.65,74.83C602.29,74.18 604.92,73.5 607.56,72.82C610.2,72.14 612.83,71.42 615.47,70.74C618.11,70.06 620.74,69.36 623.38,68.74C626.01,68.12 628.65,67.51 631.29,67.01C633.92,66.52 636.56,66.08 639.2,65.76C641.83,65.44 644.46,65.22 647.1,65.11C649.73,65 652.37,65.01 655.01,65.08C657.65,65.15 660.29,65.33 662.92,65.54C665.56,65.75 668.2,66.04 670.83,66.36C673.47,66.68 676.11,67.04 678.74,67.46C681.38,67.88 684.02,68.34 686.65,68.88C689.29,69.42 691.92,70.04 694.55,70.71C697.19,71.39 699.83,72.15 702.46,72.94C705.1,73.73 707.73,74.61 710.37,75.45C713.01,76.29 715.64,77.18 718.28,77.98C720.91,78.78 723.54,79.57 726.19,80.25C728.82,80.93 731.45,81.54 734.1,82.06C736.73,82.57 739.37,82.99 742.01,83.34C744.64,83.69 747.27,83.94 749.91,84.15Q752.54,84.36 757.82,84.6L757.82,85" style="vector-effect: none; stroke-width: 2px; stroke: rgb(144, 60, 130); stroke-opacity: 1; fill: rgb(180, 75, 162); fill-opacity: 0.5;"/><path class="meanline" d="M437.88,55.171607971191406V85" style="fill: none; vector-effect: none; stroke-width: 2px; stroke-dasharray: 4px, 2px; stroke: rgb(144, 60, 130); stroke-opacity: 1;"/></g><g class="trace violins" style="opacity: 1;"><path class="violin" d="M256.9,62.99L256.9,62.97Q260.19,62.96 261.84,62.96C263.48,62.96 265.13,62.95 266.77,62.95C268.42,62.94 270.06,62.94 271.71,62.93C273.35,62.92 275,62.92 276.64,62.91C278.29,62.9 279.93,62.89 281.58,62.89C283.23,62.89 284.87,62.89 286.52,62.89C288.16,62.89 289.81,62.89 291.45,62.89C293.1,62.89 294.74,62.9 296.39,62.91C298.03,62.91 299.68,62.92 301.32,62.92C302.97,62.93 304.61,62.93 306.26,62.94C307.9,62.95 309.55,62.96 311.19,62.96C312.84,62.97 314.48,62.97 316.13,62.97C317.78,62.97 319.42,62.97 321.07,62.96C322.71,62.96 324.36,62.95 326,62.94C327.65,62.93 329.29,62.91 330.94,62.88C332.58,62.85 334.23,62.8 335.87,62.75C337.52,62.69 339.16,62.64 340.81,62.55C342.45,62.47 344.1,62.36 345.74,62.24C347.39,62.12 349.03,61.97 350.68,61.82C352.32,61.67 353.97,61.5 355.61,61.33C357.26,61.16 358.9,60.98 360.55,60.81C362.2,60.64 363.84,60.48 365.49,60.32C367.13,60.16 368.78,60.01 370.42,59.83C372.07,59.65 373.72,59.48 375.36,59.25C377.01,59.01 378.65,58.76 380.29,58.42C381.94,58.07 383.6,57.67 385.23,57.17C386.89,56.67 388.53,56.06 390.16,55.42C391.82,54.77 393.46,54.02 395.1,53.3C396.75,52.58 398.38,51.78 400.04,51.11C401.67,50.45 403.31,49.77 404.97,49.28C406.6,48.8 408.25,48.4 409.91,48.2C411.54,48 413.2,47.98 414.84,48.08C416.49,48.18 418.14,48.5 419.78,48.82C421.43,49.15 423.07,49.64 424.71,50.04C426.36,50.44 428,50.92 429.65,51.22C431.29,51.52 432.93,51.79 434.58,51.84C436.22,51.89 437.89,51.8 439.52,51.54C441.18,51.27 442.84,50.79 444.46,50.23C446.13,49.65 447.76,48.88 449.39,48.09C451.05,47.29 452.69,46.35 454.33,45.46C455.98,44.56 457.61,43.6 459.26,42.71C460.9,41.83 462.54,40.94 464.2,40.16C465.83,39.39 467.47,38.67 469.13,38.06C470.76,37.46 472.41,36.93 474.07,36.53C475.7,36.14 477.36,35.84 479.01,35.67C480.65,35.51 482.3,35.46 483.94,35.53C485.59,35.6 487.24,35.82 488.88,36.11C490.53,36.4 492.17,36.84 493.81,37.28C495.46,37.73 497.1,38.3 498.75,38.79C500.39,39.28 502.02,39.86 503.68,40.24C505.31,40.62 506.97,41 508.62,41.07C510.26,41.14 511.95,41.07 513.56,40.68C515.24,40.27 516.91,39.55 518.49,38.6C520.21,37.57 521.85,36.14 523.43,34.61C525.15,32.95 526.75,30.94 528.36,28.94C530.05,26.84 531.65,24.49 533.3,22.29C534.94,20.1 536.53,17.76 538.23,15.76C539.82,13.89 541.41,11.94 543.17,10.6C544.73,9.42 546.4,8.28 548.1,7.95C549.7,7.64 551.48,7.86 553.04,8.48C554.79,9.18 556.43,10.7 557.98,12.24C559.75,14 561.32,16.36 562.91,18.66C564.62,21.15 566.22,23.97 567.85,26.7C569.51,29.48 571.11,32.43 572.78,35.2C574.4,37.9 576.02,40.62 577.72,43.11C579.32,45.45 580.93,47.73 582.65,49.73C584.23,51.57 585.87,53.28 587.59,54.71C589.18,56.03 590.83,57.17 592.53,58.06C594.13,58.9 595.79,59.54 597.46,59.99C599.08,60.43 600.75,60.65 602.4,60.77C604.04,60.89 605.69,60.82 607.33,60.69C608.98,60.56 610.63,60.29 612.27,59.98C613.92,59.67 615.56,59.26 617.2,58.84C618.85,58.42 620.5,57.92 622.14,57.44C623.79,56.96 625.43,56.44 627.07,55.94C628.72,55.43 630.36,54.92 632.01,54.41C633.66,53.9 635.31,53.4 636.95,52.88C638.6,52.36 640.24,51.84 641.88,51.29C643.53,50.74 645.18,50.19 646.82,49.6C648.47,49.01 650.11,48.4 651.75,47.77C653.4,47.14 655.04,46.48 656.69,45.84C658.33,45.2 659.97,44.54 661.62,43.93C663.26,43.33 664.9,42.71 666.56,42.21C668.2,41.71 669.84,41.23 671.5,40.93C673.13,40.63 674.79,40.41 676.43,40.39C678.08,40.37 679.74,40.51 681.37,40.83C683.03,41.15 684.68,41.7 686.3,42.34C687.97,43 689.61,43.88 691.24,44.77C692.9,45.68 694.53,46.74 696.17,47.76C697.82,48.79 699.46,49.89 701.11,50.9C702.75,51.9 704.38,52.9 706.04,53.8C707.67,54.69 709.32,55.52 710.98,56.27C712.61,57 714.26,57.65 715.92,58.24C717.55,58.82 719.2,59.32 720.85,59.76C722.49,60.2 724.14,60.57 725.79,60.89C727.43,61.21 729.07,61.47 730.72,61.7C732.36,61.93 734.01,62.1 735.66,62.25C737.3,62.4 738.95,62.5 740.59,62.59Q742.24,62.68 745.53,62.8L745.53,62.99" style="vector-effect: none; stroke-width: 2px; stroke: rgb(78, 50, 154); stroke-opacity: 1; fill: rgb(97, 62, 193); fill-opacity: 0.5;"/><path class="meanline" d="M542.66,11.00798225402832V62.99" style="fill: none; vector-effect: none; stroke-width: 2px; stroke-dasharray: 4px, 2px; stroke: rgb(78, 50, 154); stroke-opacity: 1;"/></g></g></g><g class="overplot"/><path class="xlines-above crisp" d="M0,0" style="fill: none;"/><path class="ylines-above crisp" d="M0,0" style="fill: none;"/><g class="overlines-above"/><g class="xaxislayer-above"><g class="xtick"><text text-anchor="middle" x="0" y="172" transform="translate(37,0)" style="font-family: 'Open Sans', verdana, arial, sans-serif; font-size: 12px; fill: rgb(242, 245, 250); fill-opacity: 1; white-space: pre; opacity: 1;">0</text></g><g class="xtick"><text text-anchor="middle" x="0" y="172" style="font-family: 'Open Sans', verdana, arial, sans-serif; font-size: 12px; fill: rgb(242, 245, 250); fill-opacity: 1; white-space: pre; opacity: 1;" transform="translate(175.78,0)">100</text></g><g class="xtick"><text text-anchor="middle" x="0" y="172" style="font-family: 'Open Sans', verdana, arial, sans-serif; font-size: 12px; fill: rgb(242, 245, 250); fill-opacity: 1; white-space: pre; opacity: 1;" transform="translate(314.56,0)">200</text></g><g class="xtick"><text text-anchor="middle" x="0" y="172" style="font-family: 'Open Sans', verdana, arial, sans-serif; font-size: 12px; fill: rgb(242, 245, 250); fill-opacity: 1; white-space: pre; opacity: 1;" transform="translate(453.34,0)">300</text></g><g class="xtick"><text text-anchor="middle" x="0" y="172" style="font-family: 'Open Sans', verdana, arial, sans-serif; font-size: 12px; fill: rgb(242, 245, 250); fill-opacity: 1; white-space: pre; opacity: 1;" transform="translate(592.12,0)">400</text></g><g class="xtick"><text text-anchor="middle" x="0" y="172" style="font-family: 'Open Sans', verdana, arial, sans-serif; font-size: 12px; fill: rgb(242, 245, 250); fill-opacity: 1; white-space: pre; opacity: 1;" transform="translate(730.9,0)">500</text></g></g><g class="yaxislayer-above"/><g class="overaxes-above"/></g></g><g class="polarlayer"/><g class="smithlayer"/><g class="ternarylayer"/><g class="geolayer"/><g class="funnelarealayer"/><g class="pielayer"/><g class="iciclelayer"/><g class="treemaplayer"/><g class="sunburstlayer"/><g class="glimages"/><defs id="topdefs-6682a5"><g class="clips"/></defs><g class="layer-above"><g class="imagelayer"/><g class="shapelayer"/></g><g class="infolayer"><g class="g-gtitle"/><g class="g-xtitle" transform="translate(0,-2.3000000000000114)"><text class="xtitle" x="400" y="199.3" text-anchor="middle" style="font-family: 'Open Sans', verdana, arial, sans-serif; font-size: 14px; fill: rgb(242, 245, 250); opacity: 1; white-space: pre;">Pgm Death</text></g><g class="g-ytitle"/></g></svg>