<svg class="main-svg" xmlns="http://www.w3.org/2000/svg" xmlns:xlink="http://www.w3.org/1999/xlink" width="800" height="200" style="" viewBox="0 0 800 200"><rect x="0" y="0" width="800" height="200" style="fill: rgb(0, 0, 0); fill-opacity: 0;"/><defs id="defs-5dc6c9"><g class="clips"><clipPath id="clip5dc6c9xyplot" class="plotclip"><rect width="800" height="159"/></clipPath><clipPath class="axesclip" id="clip5dc6c9x"><rect x="0" y="0" width="800" height="200"/></clipPath><clipPath class="axesclip" id="clip5dc6c9y"><rect x="0" y="0" width="800" height="159"/></clipPath><clipPath class="axesclip" id="clip5dc6c9xy"><rect x="0" y="0" width="800" height="159"/></clipPath></g><g class="gradients"/><g class="patterns"/></defs><g class="bglayer"><rect class="bg" x="0" y="0" width="800" height="159" style="fill: rgb(0, 0, 0); fill-opacity: 0; stroke-width: 0;"/></g><g class="layer-below"><g class="imagelayer"/><g class="shapelayer"/></g><g class="cartesianlayer"><g class="subplot xy"><g class="layer-subplot"><g class="shapelayer"/><g class="imagelayer"/></g><g class="minor-gridlayer"><g class="x"/><g class="y"/></g><g class="gridlayer"><g class="x"><path class="xgrid crisp" transform="translate(135.85,0)" d="M0,0v159" style="stroke: rgb(40, 52, 66); stroke-opacity: 1; stroke-width: 1px;"/><path class="xgrid crisp" transform="translate(221.17,0)" d="M0,0v159" style="stroke: rgb(40, 52, 66); stroke-opacity: 1; stroke-width: 1px;"/><path class="xgrid crisp" transform="translate(306.49,0)" d="M0,0v159" style="stroke: rgb(40, 52, 66); stroke-opacity: 1; stroke-width: 1px;"/><path class="xgrid crisp" transform="translate(391.81,0)" d="M0,0v159" style="stroke: rgb(40, 52, 66); stroke-opacity: 1; stroke-width: 1px;"/><path class="xgrid crisp" transform="translate(477.13,0)" d="M0,0v159" style="stroke: rgb(40, 52, 66); stroke-opacity: 1; stroke-width: 1px;"/><path class="xgrid crisp" transform="translate(562.45,0)" d="M0,0v159" style="stroke: rgb(40, 52, 66); stroke-opacity: 1; stroke-width: 1px;"/><path class="xgrid crisp" transform="translate(647.77,0)" d="M0,0v159" style="stroke: rgb(40, 52, 66); stroke-opacity: 1; stroke-width: 1px;"/><path class="xgrid crisp" transform="translate(733.09,0)" d="M0,0v159" style="stroke: rgb(40, 52, 66); stroke-opacity: 1; stroke-width: 1px;"/></g><g class="y"/></g><g class="zerolinelayer"><path class="xzl zl crisp" transform="translate(50.54,0)" d="M0,0v159" style="stroke: rgb(40, 52, 66); stroke-opacity: 1; stroke-width: 2px;"/></g><g class="layer-between"><g class="shapelayer"/><g class="imagelayer"/></g><path class="xlines-below"/><path class="ylines-below"/><g class="overlines-below"/><g class="xaxislayer-below"/><g class="yaxislayer-below"/><g class="overaxes-below"/><g class="plot" transform="" clip-path="url(#clip5dc6c9xyplot)"><g class="violinlayer mlayer"><g class="trace violins" style="opacity: 1;"><path class="violin" d="M40,151.05L40,150.94Q42.11,150.86 43.17,150.79C44.22,150.72 45.28,150.64 46.33,150.52C47.39,150.39 48.45,150.24 49.5,150.04C50.56,149.83 51.61,149.58 52.66,149.29C53.72,148.99 54.78,148.64 55.83,148.26C56.89,147.88 57.94,147.43 58.99,146.99C60.05,146.55 61.1,146.06 62.16,145.61C63.21,145.16 64.26,144.71 65.32,144.3C66.37,143.9 67.43,143.51 68.49,143.18C69.54,142.86 70.59,142.58 71.65,142.34C72.7,142.1 73.76,141.91 74.82,141.75C75.87,141.59 76.92,141.47 77.98,141.38C79.03,141.29 80.09,141.21 81.15,141.19C82.2,141.17 83.26,141.18 84.31,141.23C85.37,141.28 86.43,141.38 87.48,141.51C88.54,141.64 89.59,141.82 90.64,142.02C91.7,142.22 92.76,142.48 93.81,142.72C94.87,142.97 95.92,143.24 96.97,143.49C98.03,143.74 99.08,144.01 100.14,144.24C101.19,144.47 102.24,144.69 103.3,144.88C104.35,145.07 105.41,145.23 106.47,145.37C107.52,145.51 108.57,145.62 109.63,145.71C110.68,145.8 111.74,145.86 112.8,145.91C113.86,145.96 114.91,145.99 115.97,146.02C117.02,146.05 118.08,146.07 119.13,146.07C120.19,146.07 121.24,146.07 122.3,146.04C123.35,146.01 124.41,145.98 125.46,145.89C126.52,145.8 127.58,145.7 128.63,145.52C129.69,145.34 130.75,145.11 131.79,144.79C132.86,144.47 133.92,144.07 134.96,143.59C136.03,143.1 137.09,142.51 138.12,141.86C139.2,141.18 140.25,140.41 141.29,139.59C142.36,138.74 143.41,137.82 144.45,136.86C145.52,135.88 146.57,134.82 147.62,133.76C148.68,132.68 149.73,131.56 150.78,130.43C151.84,129.29 152.9,128.12 153.95,126.96C155.01,125.79 156.05,124.61 157.11,123.44C158.16,122.27 159.22,121.11 160.28,119.96C161.33,118.83 162.38,117.7 163.44,116.6C164.49,115.52 165.54,114.45 166.61,113.43C167.65,112.44 168.7,111.47 169.77,110.56C170.81,109.68 171.87,108.83 172.94,108.05C173.98,107.29 175.03,106.58 176.1,105.92C177.14,105.28 178.21,104.71 179.27,104.15C180.32,103.6 181.38,103.11 182.44,102.61C183.49,102.11 184.55,101.65 185.6,101.16C186.66,100.67 187.71,100.18 188.77,99.68C189.82,99.18 190.87,98.65 191.93,98.18C192.98,97.71 194.03,97.21 195.1,96.85C196.14,96.49 197.2,96.14 198.26,96.01C199.31,95.88 200.39,95.86 201.43,96.04C202.5,96.23 203.57,96.64 204.59,97.16C205.68,97.71 206.73,98.51 207.76,99.3C208.84,100.13 209.86,101.14 210.92,102.05C211.97,102.96 213.01,103.96 214.09,104.78C215.12,105.56 216.16,106.35 217.25,106.89C218.27,107.4 219.35,107.8 220.42,108C221.46,108.2 222.53,108.19 223.58,108.11C224.64,108.03 225.7,107.75 226.75,107.52C227.81,107.29 228.85,106.94 229.91,106.71C230.96,106.48 232.02,106.23 233.08,106.12C234.13,106.01 235.19,105.97 236.24,106.02C237.3,106.07 238.36,106.23 239.41,106.42C240.47,106.61 241.52,106.89 242.57,107.15C243.63,107.41 244.68,107.72 245.74,107.99C246.79,108.26 247.85,108.52 248.9,108.79C249.96,109.06 251.02,109.29 252.07,109.6C253.13,109.91 254.2,110.21 255.24,110.64C256.31,111.08 257.37,111.58 258.4,112.21C259.49,112.88 260.55,113.67 261.57,114.56C262.66,115.52 263.71,116.64 264.73,117.81C265.82,119.05 266.86,120.44 267.9,121.83C268.98,123.28 270.01,124.82 271.06,126.34C272.12,127.87 273.16,129.45 274.23,130.97C275.28,132.46 276.31,133.95 277.39,135.35C278.42,136.69 279.47,138.01 280.56,139.2C281.59,140.33 282.63,141.4 283.72,142.33C284.74,143.21 285.8,144 286.89,144.66C287.92,145.28 288.98,145.81 290.05,146.22C291.09,146.62 292.16,146.89 293.22,147.1C294.27,147.31 295.32,147.41 296.38,147.47C297.43,147.53 298.49,147.51 299.55,147.48C300.6,147.45 301.66,147.36 302.71,147.27C303.77,147.18 304.82,147.07 305.88,146.96C306.93,146.85 307.99,146.73 309.04,146.63C310.1,146.52 311.15,146.42 312.21,146.33C313.26,146.24 314.32,146.16 315.37,146.11C316.43,146.06 317.48,146.03 318.54,146.03C319.6,146.03 320.65,146.05 321.71,146.1C322.76,146.15 323.82,146.23 324.87,146.33C325.93,146.44 326.99,146.57 328.04,146.73C329.1,146.89 330.15,147.08 331.2,147.28C332.26,147.48 333.31,147.71 334.37,147.94C335.42,148.17 336.48,148.41 337.53,148.64C338.59,148.87 339.64,149.1 340.7,149.31C341.75,149.52 342.8,149.72 343.86,149.89C344.91,150.06 345.97,150.21 347.03,150.34C348.08,150.47 349.14,150.57 350.19,150.65C351.25,150.73 352.3,150.79 353.36,150.84C354.41,150.89 355.47,150.92 356.52,150.95Q357.58,150.98 359.69,151.01L359.69,151.05" style="vector-effect: none; stroke-width: 2px; stroke: rgb(148, 133, 56); stroke-opacity: 1; fill: rgb(185, 166, 70); fill-opacity: 0.5;"/><path class="meanline" d="M204.46,97.0948486328125V151.05" style="fill: none; vector-effect: none; stroke-width: 2px; stroke-dasharray: 4px, 2px; stroke: rgb(148, 133, 56); stroke-opacity: 1;"/></g><g class="trace violins" style="opacity: 1;"><path class="violin" d="M182.9,129.03L182.9,129.02Q185.25,129.01 186.42,129.01C187.59,129 188.77,129 189.94,128.99C191.11,128.98 192.29,128.97 193.46,128.96C194.63,128.95 195.81,128.94 196.98,128.92C198.16,128.9 199.33,128.88 200.51,128.86C201.68,128.84 202.86,128.81 204.03,128.78C205.2,128.74 206.38,128.71 207.55,128.65C208.72,128.59 209.9,128.52 211.07,128.41C212.24,128.3 213.42,128.18 214.59,127.97C215.77,127.76 216.95,127.52 218.11,127.16C219.3,126.8 220.48,126.35 221.63,125.8C222.83,125.23 224.01,124.54 225.16,123.76C226.37,122.94 227.53,121.97 228.68,120.96C229.88,119.91 231.04,118.72 232.2,117.55C233.39,116.36 234.54,115.06 235.72,113.86C236.88,112.68 238.03,111.44 239.24,110.39C240.38,109.4 241.54,108.42 242.76,107.71C243.89,107.05 245.08,106.48 246.28,106.19C247.43,105.91 248.64,105.84 249.81,105.94C250.99,106.04 252.17,106.4 253.33,106.78C254.52,107.18 255.68,107.75 256.85,108.3C258.03,108.85 259.19,109.49 260.37,110.08C261.54,110.66 262.71,111.26 263.89,111.81C265.06,112.35 266.23,112.88 267.41,113.35C268.58,113.82 269.75,114.26 270.93,114.63C272.1,115 273.28,115.34 274.46,115.58C275.63,115.82 276.8,116.01 277.98,116.07C279.15,116.13 280.34,116.1 281.5,115.93C282.68,115.75 283.87,115.44 285.02,115C286.22,114.54 287.4,113.91 288.54,113.18C289.75,112.41 290.91,111.46 292.06,110.47C293.27,109.42 294.43,108.23 295.59,107.02C296.79,105.77 297.94,104.41 299.11,103.08C300.29,101.74 301.44,100.34 302.63,99.03C303.79,97.76 304.94,96.46 306.15,95.33C307.29,94.26 308.45,93.22 309.67,92.41C310.8,91.66 311.99,91 313.19,90.58C314.33,90.18 315.53,89.97 316.71,89.92C317.88,89.87 319.07,90.04 320.24,90.26C321.42,90.48 322.59,90.89 323.76,91.25C324.94,91.61 326.1,92.08 327.28,92.44C328.45,92.8 329.62,93.18 330.8,93.4C331.96,93.62 333.15,93.77 334.32,93.78C335.49,93.79 336.68,93.67 337.84,93.45C339.02,93.23 340.2,92.84 341.36,92.44C342.55,92.03 343.72,91.51 344.89,91.02C346.07,90.53 347.23,89.97 348.41,89.49C349.58,89.01 350.75,88.55 351.93,88.13C353.1,87.71 354.27,87.35 355.45,86.98C356.62,86.61 357.8,86.31 358.97,85.92C360.15,85.53 361.33,85.14 362.49,84.65C363.68,84.15 364.86,83.6 366.02,82.96C367.21,82.31 368.38,81.54 369.54,80.77C370.73,79.98 371.88,79.09 373.06,78.28C374.23,77.48 375.38,76.61 376.58,75.94C377.73,75.3 378.9,74.65 380.1,74.33C381.25,74.02 382.46,73.85 383.62,74C384.81,74.15 386.02,74.64 387.14,75.29C388.38,76.01 389.54,77.1 390.67,78.23C391.9,79.47 393.04,80.98 394.19,82.47C395.39,84.03 396.54,85.76 397.71,87.42C398.89,89.09 400.04,90.82 401.23,92.46C402.39,94.06 403.55,95.65 404.75,97.15C405.9,98.59 407.07,99.98 408.27,101.3C409.42,102.57 410.6,103.78 411.79,104.93C412.95,106.05 414.13,107.11 415.32,108.11C416.48,109.09 417.65,110.01 418.84,110.88C420,111.72 421.17,112.51 422.36,113.24C423.52,113.95 424.69,114.6 425.88,115.19C427.04,115.77 428.22,116.28 429.4,116.77C430.57,117.25 431.74,117.68 432.92,118.1C434.09,118.52 435.26,118.9 436.44,119.28C437.61,119.66 438.79,120.02 439.97,120.36C441.14,120.7 442.31,121.03 443.49,121.32C444.66,121.61 445.83,121.88 447.01,122.08C448.18,122.28 449.35,122.43 450.53,122.54C451.7,122.64 452.88,122.69 454.05,122.71C455.22,122.73 456.4,122.67 457.57,122.64C458.75,122.61 459.92,122.53 461.1,122.51C462.27,122.49 463.45,122.47 464.62,122.51C465.79,122.55 466.97,122.63 468.14,122.77C469.32,122.91 470.49,123.12 471.66,123.36C472.84,123.6 474.01,123.92 475.18,124.23C476.36,124.55 477.53,124.91 478.7,125.25C479.87,125.59 481.04,125.94 482.22,126.26C483.39,126.57 484.57,126.88 485.75,127.14C486.92,127.4 488.09,127.64 489.27,127.84C490.44,128.04 491.61,128.2 492.79,128.33C493.96,128.46 495.14,128.56 496.31,128.64C497.48,128.72 498.66,128.78 499.83,128.83C501,128.88 502.18,128.91 503.35,128.94Q504.52,128.97 506.87,128.99L506.87,129.03" style="vector-effect: none; stroke-width: 2px; stroke: rgb(30, 138, 174); stroke-opacity: 1; fill: rgb(37, 173, 218); fill-opacity: 0.5;"/><path class="meanline" d="M347.53,89.86177825927734V129.03" style="fill: none; vector-effect: none; stroke-width: 2px; stroke-dasharray: 4px, 2px; stroke: rgb(30, 138, 174); stroke-opacity: 1;"/></g><g class="trace violins" style="opacity: 1;"><path class="violin" d="M201.56,107.02L201.56,106.89Q205.6,106.8 207.62,106.71C209.64,106.62 211.67,106.52 213.69,106.35C215.71,106.18 217.73,105.99 219.75,105.7C221.78,105.41 223.81,105.07 225.82,104.61C227.85,104.15 229.88,103.6 231.88,102.93C233.92,102.25 235.94,101.46 237.94,100.57C239.99,99.66 242.01,98.61 244.01,97.49C246.05,96.35 248.07,95.08 250.07,93.78C252.11,92.45 254.13,91.02 256.14,89.59C258.17,88.15 260.18,86.63 262.2,85.16C264.22,83.69 266.23,82.17 268.27,80.75C270.28,79.35 272.28,77.94 274.33,76.69C276.32,75.47 278.33,74.29 280.39,73.34C282.38,72.42 284.41,71.61 286.46,71.04C288.46,70.48 290.49,70.12 292.52,69.93C294.53,69.74 296.57,69.81 298.59,69.91C300.61,70.01 302.63,70.32 304.65,70.55C306.67,70.78 308.69,71.11 310.72,71.29C312.74,71.46 314.76,71.6 316.78,71.6C318.8,71.6 320.83,71.46 322.85,71.26C324.88,71.05 326.89,70.69 328.91,70.37C330.93,70.05 332.95,69.62 334.97,69.32C336.99,69.03 339.01,68.72 341.04,68.6C343.06,68.48 345.08,68.46 347.1,68.62C349.13,68.78 351.16,69.11 353.17,69.54C355.2,69.98 357.22,70.61 359.23,71.23C361.26,71.85 363.27,72.62 365.3,73.26C367.32,73.9 369.33,74.6 371.36,75.07C373.37,75.53 375.39,75.95 377.42,76.08C379.44,76.21 381.48,76.16 383.49,75.86C385.53,75.55 387.56,74.97 389.55,74.22C391.61,73.45 393.63,72.38 395.62,71.25C397.68,70.08 399.68,68.68 401.68,67.3C403.72,65.89 405.72,64.33 407.75,62.88C409.76,61.44 411.76,59.94 413.81,58.63C415.8,57.36 417.81,56.11 419.87,55.14C421.86,54.2 423.89,53.38 425.94,52.85C427.93,52.34 429.98,52.04 432,51.98C434.02,51.92 436.07,52.13 438.07,52.5C440.11,52.88 442.14,53.52 444.13,54.26C446.18,55.02 448.2,55.99 450.2,57.03C452.25,58.09 454.26,59.33 456.26,60.57C458.3,61.84 460.31,63.22 462.33,64.57C464.36,65.92 466.36,67.35 468.39,68.68C470.4,70 472.4,71.34 474.45,72.52C476.45,73.67 478.47,74.78 480.52,75.69C482.51,76.57 484.54,77.35 486.58,77.92C488.58,78.48 490.62,78.87 492.65,79.11C494.66,79.35 496.69,79.38 498.71,79.37C500.73,79.36 502.76,79.17 504.78,79.04C506.8,78.91 508.82,78.69 510.84,78.61C512.86,78.53 514.88,78.45 516.9,78.55C518.93,78.65 520.96,78.86 522.97,79.23C525,79.6 527.03,80.15 529.03,80.79C531.07,81.44 533.09,82.26 535.1,83.11C537.14,83.97 539.14,84.95 541.16,85.9C543.19,86.85 545.2,87.87 547.23,88.82C549.25,89.77 551.26,90.72 553.29,91.61C555.3,92.49 557.32,93.33 559.35,94.11C561.36,94.88 563.39,95.6 565.42,96.27C567.43,96.94 569.45,97.55 571.48,98.12C573.5,98.69 575.52,99.22 577.55,99.71C579.57,100.2 581.59,100.65 583.61,101.08C585.63,101.51 587.66,101.91 589.68,102.29C591.7,102.67 593.72,103.01 595.74,103.34C597.76,103.67 599.78,103.97 601.8,104.25C603.82,104.53 605.85,104.8 607.87,105.03C609.89,105.26 611.91,105.47 613.93,105.65C615.95,105.83 617.98,105.99 620,106.13C622.02,106.27 624.04,106.38 626.06,106.48C628.08,106.58 630.11,106.65 632.13,106.71C634.15,106.77 636.17,106.82 638.19,106.86C640.21,106.9 642.24,106.92 644.26,106.94Q646.28,106.96 650.32,106.98L650.32,107.02" style="vector-effect: none; stroke-width: 2px; stroke: rgb(90, 114, 107); stroke-opacity: 1; fill: rgb(112, 143, 134); fill-opacity: 0.5;"/><path class="meanline" d="M404.36,65.37066650390625V107.02" style="fill: none; vector-effect: none; stroke-width: 2px; stroke-dasharray: 4px, 2px; stroke: rgb(90, 114, 107); stroke-opacity: 1;"/></g><g class="trace violins" style="opacity: 1;"><path class="violin" d="M162.13,85L162.13,84.98Q165.84,84.96 167.69,84.95C169.54,84.93 171.4,84.91 173.25,84.89C175.11,84.87 176.96,84.85 178.82,84.82C180.67,84.79 182.53,84.75 184.38,84.71C186.23,84.67 188.09,84.62 189.94,84.57C191.79,84.52 193.65,84.47 195.5,84.42C197.35,84.37 199.21,84.32 201.06,84.27C202.91,84.23 204.77,84.18 206.62,84.15C208.48,84.11 210.33,84.08 212.19,84.06C214.04,84.04 215.9,84.04 217.75,84.04C219.6,84.04 221.46,84.06 223.31,84.08C225.16,84.1 227.02,84.13 228.87,84.16C230.72,84.19 232.58,84.24 234.43,84.28C236.29,84.32 238.14,84.36 240,84.4C241.85,84.43 243.71,84.47 245.56,84.49C247.41,84.51 249.27,84.53 251.12,84.53C252.97,84.53 254.83,84.52 256.68,84.5C258.53,84.48 260.39,84.45 262.24,84.41C264.09,84.37 265.95,84.32 267.8,84.27C269.66,84.22 271.51,84.16 273.37,84.1C275.22,84.05 277.08,83.99 278.93,83.94C280.78,83.9 282.64,83.86 284.49,83.83C286.34,83.8 288.2,83.78 290.05,83.78C291.9,83.78 293.76,83.8 295.61,83.83C297.47,83.86 299.32,83.9 301.18,83.95C303.03,84 304.89,84.07 306.74,84.14C308.59,84.21 310.45,84.28 312.3,84.35C314.15,84.42 316.01,84.48 317.86,84.54C319.71,84.59 321.57,84.65 323.42,84.68C325.28,84.71 327.13,84.74 328.99,84.74C330.84,84.74 332.7,84.74 334.55,84.7C336.4,84.66 338.26,84.61 340.11,84.52C341.96,84.43 343.82,84.32 345.67,84.17C347.52,84.02 349.38,83.83 351.23,83.6C353.09,83.37 354.94,83.09 356.79,82.77C358.65,82.45 360.51,82.08 362.36,81.67C364.22,81.25 366.07,80.79 367.92,80.28C369.78,79.77 371.64,79.21 373.48,78.59C375.34,77.96 377.2,77.31 379.04,76.54C380.91,75.76 382.77,74.93 384.6,73.94C386.49,72.92 388.36,71.79 390.17,70.48C392.07,69.11 393.93,67.56 395.73,65.86C397.64,64.05 399.48,62.01 401.29,59.89C403.19,57.66 405.02,55.2 406.85,52.77C408.72,50.29 410.53,47.63 412.41,45.17C414.24,42.77 416.04,40.28 417.97,38.17C419.76,36.22 421.58,34.26 423.54,32.89C425.31,31.65 427.19,30.6 429.1,30.12C430.9,29.67 432.83,29.69 434.66,29.97C436.54,30.26 438.4,31.08 440.22,31.89C442.11,32.73 443.94,33.89 445.78,34.96C447.65,36.04 449.49,37.24 451.35,38.36C453.2,39.48 455.05,40.58 456.91,41.68C458.76,42.78 460.62,43.83 462.47,44.95C464.33,46.08 466.19,47.22 468.03,48.41C469.89,49.62 471.74,50.89 473.59,52.15C475.45,53.41 477.28,54.75 479.15,55.95C480.99,57.13 482.83,58.34 484.72,59.32C486.54,60.26 488.4,61.14 490.28,61.75C492.1,62.34 493.98,62.75 495.84,62.94C497.68,63.13 499.55,63.07 501.4,62.89C503.26,62.71 505.12,62.29 506.96,61.84C508.83,61.38 510.68,60.77 512.53,60.16C514.39,59.54 516.24,58.84 518.09,58.16C519.95,57.48 521.8,56.77 523.65,56.06C525.51,55.35 527.36,54.63 529.21,53.89C531.07,53.15 532.92,52.41 534.77,51.64C536.63,50.87 538.49,50.06 540.34,49.26C542.2,48.46 544.04,47.62 545.9,46.83C547.75,46.04 549.59,45.22 551.46,44.52C553.3,43.83 555.15,43.16 557.02,42.65C558.86,42.15 560.72,41.73 562.58,41.48C564.42,41.23 566.29,41.12 568.14,41.15C570,41.18 571.86,41.36 573.71,41.66C575.57,41.96 577.43,42.41 579.27,42.96C581.14,43.52 583,44.22 584.83,45.02C586.71,45.85 588.56,46.81 590.39,47.87C592.27,48.96 594.12,50.21 595.95,51.5C597.83,52.83 599.68,54.29 601.52,55.74C603.39,57.21 605.22,58.78 607.08,60.29C608.93,61.79 610.77,63.32 612.64,64.76C614.48,66.17 616.32,67.57 618.2,68.85C620.03,70.1 621.88,71.29 623.76,72.38C625.59,73.44 627.45,74.41 629.32,75.3C631.16,76.17 633.02,76.96 634.89,77.66C636.73,78.35 638.59,78.95 640.45,79.48C642.29,80.01 644.15,80.46 646.01,80.85C647.86,81.24 649.71,81.56 651.57,81.84C653.42,82.12 655.27,82.33 657.13,82.53C658.98,82.73 660.84,82.88 662.7,83.02C664.55,83.16 666.41,83.27 668.26,83.38C670.11,83.49 671.97,83.58 673.82,83.67C675.67,83.76 677.53,83.85 679.38,83.93C681.23,84.01 683.09,84.09 684.94,84.17C686.79,84.24 688.65,84.31 690.5,84.38C692.36,84.45 694.21,84.51 696.07,84.57C697.92,84.63 699.78,84.68 701.63,84.72C703.48,84.76 705.34,84.8 707.19,84.83C709.04,84.86 710.9,84.89 712.75,84.91C714.6,84.93 716.46,84.94 718.31,84.95Q720.17,84.96 723.88,84.98L723.88,85" style="vector-effect: none; stroke-width: 2px; stroke: rgb(144, 60, 130); stroke-opacity: 1; fill: rgb(180, 75, 162); fill-opacity: 0.5;"/><path class="meanline" d="M498.94,63.047054290771484V85" style="fill: none; vector-effect: none; stroke-width: 2px; stroke-dasharray: 4px, 2px; stroke: rgb(144, 60, 130); stroke-opacity: 1;"/></g><g class="trace violins" style="opacity: 1;"><path class="violin" d="M399.03,62.99L399.03,62.97Q402,62.96 403.48,62.96C404.97,62.95 406.45,62.95 407.94,62.94C409.43,62.93 410.91,62.93 412.4,62.92C413.88,62.91 415.37,62.9 416.85,62.89C418.34,62.88 419.82,62.88 421.31,62.87C422.8,62.87 424.28,62.86 425.77,62.86C427.25,62.86 428.74,62.86 430.22,62.86C431.71,62.86 433.19,62.86 434.68,62.85C436.16,62.85 437.65,62.84 439.13,62.83C440.62,62.82 442.1,62.8 443.59,62.77C445.08,62.74 446.56,62.69 448.05,62.64C449.53,62.59 451.02,62.53 452.5,62.45C453.99,62.37 455.47,62.27 456.96,62.17C458.45,62.07 459.93,61.95 461.42,61.83C462.9,61.71 464.39,61.58 465.87,61.45C467.36,61.32 468.84,61.18 470.33,61.03C471.82,60.88 473.3,60.73 474.79,60.57C476.27,60.41 477.76,60.25 479.24,60.06C480.73,59.87 482.22,59.68 483.7,59.45C485.19,59.22 486.68,58.97 488.16,58.7C489.65,58.42 491.13,58.13 492.61,57.8C494.1,57.47 495.59,57.1 497.07,56.72C498.56,56.33 500.04,55.92 501.52,55.49C503.01,55.06 504.5,54.6 505.98,54.13C507.47,53.66 508.96,53.16 510.44,52.65C511.93,52.14 513.41,51.62 514.89,51.07C516.38,50.52 517.87,49.96 519.35,49.37C520.84,48.78 522.33,48.17 523.81,47.53C525.3,46.88 526.78,46.21 528.26,45.51C529.75,44.8 531.24,44.06 532.72,43.29C534.21,42.52 535.7,41.71 537.18,40.89C538.67,40.07 540.15,39.23 541.63,38.38C543.12,37.53 544.6,36.66 546.09,35.8C547.58,34.94 549.07,34.09 550.55,33.21C552.04,32.33 553.52,31.45 555,30.53C556.49,29.6 557.99,28.66 559.46,27.66C560.96,26.64 562.45,25.58 563.92,24.46C565.42,23.32 566.9,22.1 568.37,20.86C569.87,19.6 571.34,18.26 572.83,16.97C574.31,15.68 575.77,14.32 577.28,13.13C578.74,11.98 580.2,10.79 581.74,9.92C583.18,9.1 584.68,8.33 586.2,8.01C587.65,7.7 589.2,7.66 590.65,7.95C592.17,8.25 593.68,9.01 595.11,9.88C596.66,10.82 598.12,12.17 599.57,13.49C601.1,14.88 602.54,16.52 604.02,18.05C605.51,19.59 606.96,21.25 608.48,22.71C609.94,24.12 611.4,25.53 612.94,26.68C614.38,27.76 615.86,28.76 617.39,29.45C618.83,30.1 620.35,30.56 621.85,30.79C623.32,31.01 624.83,30.97 626.31,30.82C627.8,30.67 629.28,30.27 630.76,29.89C632.25,29.51 633.73,28.97 635.22,28.55C636.7,28.13 638.19,27.68 639.68,27.39C641.16,27.1 642.64,26.87 644.13,26.8C645.61,26.73 647.11,26.79 648.59,26.94C650.08,27.09 651.56,27.4 653.04,27.72C654.53,28.05 656.02,28.49 657.5,28.9C658.99,29.31 660.47,29.78 661.96,30.19C663.44,30.6 664.92,31.01 666.41,31.36C667.89,31.71 669.38,32.01 670.87,32.28C672.35,32.55 673.84,32.75 675.33,32.96C676.81,33.17 678.3,33.34 679.78,33.56C681.27,33.78 682.76,33.99 684.24,34.3C685.73,34.61 687.22,34.97 688.7,35.42C690.2,35.87 691.68,36.41 693.15,37.01C694.65,37.62 696.13,38.32 697.61,39.04C699.11,39.77 700.59,40.56 702.07,41.34C703.56,42.12 705.04,42.94 706.52,43.73C708.01,44.53 709.49,45.33 710.98,46.11C712.46,46.89 713.95,47.66 715.44,48.42C716.92,49.18 718.4,49.93 719.89,50.68C721.37,51.42 722.86,52.17 724.35,52.89C725.83,53.61 727.31,54.33 728.8,55.01C730.28,55.69 731.77,56.35 733.26,56.97C734.74,57.58 736.23,58.17 737.72,58.69C739.2,59.21 740.68,59.68 742.17,60.1C743.65,60.51 745.14,60.87 746.63,61.18C748.11,61.49 749.6,61.73 751.09,61.94C752.57,62.15 754.05,62.29 755.54,62.42Q757.02,62.55 760,62.71L760,62.99" style="vector-effect: none; stroke-width: 2px; stroke: rgb(78, 50, 154); stroke-opacity: 1; fill: rgb(97, 62, 193); fill-opacity: 0.5;"/><path class="meanline" d="M612.53,26.366270065307617V62.99" style="fill: none; vector-effect: none; stroke-width: 2px; stroke-dasharray: 4px, 2px; stroke: rgb(78, 50, 154); stroke-opacity: 1;"/></g></g></g><g class="overplot"/><path class="xlines-above crisp" d="M0,0" style="fill: none;"/><path class="ylines-above crisp" d="M0,0" style="fill: none;"/><g class="overlines-above"/><g class="xaxislayer-above"><g class="xtick"><text text-anchor="middle" x="0" y="172" transform="translate(50.54,0)" style="font-family: 'Open Sans', verdana, arial, sans-serif; font-size: 12px; fill: rgb(242, 245, 250); fill-opacity: 1; white-space: pre; opacity: 1;">0</text></g><g class="xtick"><text text-anchor="middle" x="0" y="172" style="font-family: 'Open Sans', verdana, arial, sans-serif; font-size: 12px; fill: rgb(242, 245, 250); fill-opacity: 1; white-space: pre; opacity: 1;" transform="translate(135.85,0)">10</text></g><g class="xtick"><text text-anchor="middle" x="0" y="172" style="font-family: 'Open Sans', verdana, arial, sans-serif; font-size: 12px; fill: rgb(242, 245, 250); fill-opacity: 1; white-space: pre; opacity: 1;" transform="translate(221.17,0)">20</text></g><g class="xtick"><text text-anchor="middle" x="0" y="172" style="font-family: 'Open Sans', verdana, arial, sans-serif; font-size: 12px; fill: rgb(242, 245, 250); fill-opacity: 1; white-space: pre; opacity: 1;" transform="translate(306.49,0)">30</text></g><g class="xtick"><text text-anchor="middle" x="0" y="172" style="font-family: 'Open Sans', verdana, arial, sans-serif; font-size: 12px; fill: rgb(242, 245, 250); fill-opacity: 1; white-space: pre; opacity: 1;" transform="translate(391.81,0)">40</text></g><g class="xtick"><text text-anchor="middle" x="0" y="172" style="font-family: 'Open Sans', verdana, arial, sans-serif; font-size: 12px; fill: rgb(242, 245, 250); fill-opacity: 1; white-space: pre; opacity: 1;" transform="translate(477.13,0)">50</text></g><g class="xtick"><text text-anchor="middle" x="0" y="172" style="font-family: 'Open Sans', verdana, arial, sans-serif; font-size: 12px; fill: rgb(242, 245, 250); fill-opacity: 1; white-space: pre; opacity: 1;" transform="translate(562.45,0)">60</text></g><g class="xtick"><text text-anchor="middle" x="0" y="172" style="font-family: 'Open Sans', verdana, arial, sans-serif; font-size: 12px; fill: rgb(242, 245, 250); fill-opacity: 1; white-space: pre; opacity: 1;" transform="translate(647.77,0)">70</text></g><g class="xtick"><text text-anchor="middle" x="0" y="172" style="font-family: 'Open Sans', verdana, arial, sans-serif; font-size: 12px; fill: rgb(242, 245, 250); fill-opacity: 1; white-space: pre; opacity: 1;" transform="translate(733.09,0)">80</text></g></g><g class="yaxislayer-above"/><g class="overaxes-above"/></g></g><g class="polarlayer"/><g class="smithlayer"/><g class="ternarylayer"/><g class="geolayer"/><g class="funnelarealayer"/><g class="pielayer"/><g class="iciclelayer"/><g class="treemaplayer"/><g class="sunburstlayer"/><g class="glimages"/><defs id="topdefs-5dc6c9"><g class="clips"/></defs><g class="layer-above"><g class="imagelayer"/><g class="shapelayer"/></g><g class="infolayer"><g class="g-gtitle"/><g class="g-xtitle" transform="translate(0,-2.3000000000000114)"><text class="xtitle" x="400" y="199.3" text-anchor="middle" style="font-family: 'Open Sans', verdana, arial, sans-serif; font-size: 14px; fill: rgb(242, 245, 250); opacity: 1; white-space: pre;">Kid Energy</text></g><g class="g-ytitle"/></g></svg>