<svg class="main-svg" xmlns="http://www.w3.org/2000/svg" xmlns:xlink="http://www.w3.org/1999/xlink" width="800" height="200" style="" viewBox="0 0 800 200"><rect x="0" y="0" width="800" height="200" style="fill: rgb(0, 0, 0); fill-opacity: 0;"/><defs id="defs-e93892"><g class="clips"><clipPath id="clipe93892xyplot" class="plotclip"><rect width="721" height="144"/></clipPath><clipPath class="axesclip" id="clipe93892x"><rect x="35" y="0" width="721" height="200"/></clipPath><clipPath class="axesclip" id="clipe93892y"><rect x="0" y="0" width="800" height="144"/></clipPath><clipPath class="axesclip" id="clipe93892xy"><rect x="35" y="0" width="721" height="144"/></clipPath></g><g class="gradients"/><g class="patterns"/></defs><g class="bglayer"><rect class="bg" x="35" y="0" width="721" height="144" style="fill: rgb(0, 0, 0); fill-opacity: 0; stroke-width: 0;"/></g><g class="layer-below"><g class="imagelayer"/><g class="shapelayer"/></g><g class="cartesianlayer"><g class="subplot xy"><g class="layer-subplot"><g class="shapelayer"/><g class="imagelayer"/></g><g class="minor-gridlayer"><g class="x"/><g class="y"/></g><g class="gridlayer"><g class="x"/><g class="y"/></g><g class="zerolinelayer"/><g class="layer-between"><g class="shapelayer"/><g class="imagelayer"/></g><path class="xlines-below"/><path class="ylines-below"/><g class="overlines-below"/><g class="xaxislayer-below"/><g class="yaxislayer-below"/><g class="overaxes-below"/><g class="plot" transform="translate(35,0)" clip-path="url(#clipe93892xyplot)"><g class="violinlayer mlayer"><g class="trace violins" style="opacity: 1;"><path class="violin" d="M-25.32,136.8L-25.32,133.8Q-22.49,132.19 -21.15,131.13C-19.7,129.99 -18.32,128.6 -16.97,127.13C-15.52,125.54 -14.15,123.7 -12.79,121.87C-11.37,119.96 -10.02,117.85 -8.62,115.87C-7.24,113.92 -5.89,111.85 -4.44,110.08C-3.1,108.44 -1.76,106.74 -0.27,105.57C1.05,104.53 2.47,103.58 3.91,103.23C5.26,102.9 6.74,103 8.09,103.38C9.53,103.79 10.92,104.76 12.26,105.73C13.72,106.78 15.07,108.21 16.44,109.55C17.86,110.94 19.22,112.51 20.62,113.96C22,115.39 23.37,116.88 24.79,118.19C26.15,119.45 27.53,120.69 28.97,121.69C30.32,122.63 31.71,123.51 33.14,124.09C34.5,124.64 35.92,125.06 37.32,125.17C38.7,125.28 40.14,125.15 41.5,124.77C42.93,124.37 44.34,123.63 45.67,122.74C47.13,121.76 48.52,120.43 49.85,119C51.32,117.43 52.67,115.54 54.02,113.62C55.47,111.55 56.82,109.24 58.2,106.97C59.61,104.64 60.96,102.14 62.38,99.82C63.75,97.58 65.07,95.22 66.55,93.29C67.87,91.56 69.21,89.75 70.73,88.68C72.03,87.77 73.5,86.99 74.9,86.95C76.29,86.91 77.77,87.61 79.08,88.44C80.59,89.39 81.92,91.06 83.26,92.61C84.72,94.3 86.04,96.36 87.43,98.24C88.82,100.12 90.17,102.15 91.61,103.89C92.96,105.51 94.31,107.14 95.78,108.38C97.11,109.5 98.51,110.49 99.96,111.13C101.31,111.73 102.74,112.04 104.14,112.21C105.52,112.38 106.92,112.25 108.31,112.18C109.7,112.11 111.1,111.87 112.49,111.79C113.88,111.71 115.27,111.61 116.66,111.71C118.06,111.81 119.46,112.02 120.84,112.38C122.25,112.75 123.65,113.29 125.02,113.91C126.43,114.54 127.81,115.35 129.19,116.15C130.6,116.97 131.98,117.9 133.37,118.78C134.76,119.66 136.14,120.6 137.54,121.45C138.92,122.29 140.31,123.12 141.72,123.85C143.1,124.57 144.49,125.23 145.9,125.81C147.28,126.38 148.67,126.86 150.07,127.29C151.45,127.71 152.85,128.06 154.25,128.37C155.64,128.68 157.03,128.92 158.42,129.15C159.81,129.38 161.2,129.58 162.6,129.74C163.99,129.9 165.39,130.04 166.78,130.13C168.17,130.22 169.56,130.29 170.95,130.27C172.34,130.25 173.74,130.18 175.13,130.03C176.52,129.87 177.92,129.64 179.3,129.34C180.7,129.04 182.09,128.64 183.48,128.23C184.88,127.81 186.27,127.31 187.66,126.84C189.05,126.37 190.43,125.85 191.83,125.4C193.22,124.95 194.61,124.5 196.01,124.14C197.39,123.78 198.78,123.47 200.18,123.23C201.57,122.99 202.96,122.83 204.36,122.72C205.75,122.61 207.15,122.58 208.54,122.59C209.93,122.6 211.32,122.66 212.71,122.77C214.1,122.88 215.5,123.04 216.89,123.25C218.29,123.47 219.68,123.73 221.06,124.06C222.46,124.39 223.86,124.79 225.24,125.24C226.64,125.69 228.04,126.22 229.42,126.77C230.82,127.33 232.2,127.96 233.59,128.57C234.98,129.18 236.37,129.84 237.77,130.45C239.16,131.06 240.54,131.69 241.94,132.24C243.32,132.79 244.72,133.3 246.12,133.75C247.51,134.19 248.9,134.59 250.3,134.92C251.68,135.25 253.08,135.51 254.47,135.73C255.86,135.95 257.26,136.11 258.65,136.24C260.04,136.37 261.43,136.46 262.82,136.53C264.21,136.6 265.61,136.64 267,136.68C268.39,136.71 269.79,136.73 271.18,136.74C272.57,136.75 273.96,136.75 275.35,136.75C276.74,136.75 278.14,136.73 279.53,136.71C280.92,136.69 282.31,136.66 283.7,136.61C285.09,136.56 286.49,136.51 287.88,136.42C289.27,136.33 290.67,136.23 292.06,136.09C293.45,135.95 294.84,135.79 296.23,135.6C297.62,135.41 299.02,135.19 300.41,134.95C301.8,134.71 303.19,134.44 304.58,134.18C305.97,133.92 307.37,133.64 308.76,133.39C310.15,133.15 311.55,132.9 312.94,132.71C314.33,132.52 315.72,132.35 317.11,132.24C318.5,132.13 319.9,132.08 321.29,132.07C322.68,132.06 324.07,132.12 325.46,132.2C326.85,132.29 328.25,132.43 329.64,132.58C331.03,132.74 332.43,132.93 333.82,133.13C335.21,133.33 336.6,133.56 337.99,133.77C339.38,133.99 340.78,134.21 342.17,134.42C343.56,134.63 344.96,134.83 346.35,135.02C347.74,135.21 349.13,135.39 350.52,135.55C351.91,135.71 353.31,135.85 354.7,135.97C356.09,136.09 357.48,136.19 358.87,136.28C360.26,136.37 361.66,136.44 363.05,136.5C364.44,136.56 365.84,136.6 367.23,136.64Q368.62,136.68 371.4,136.72L371.4,136.8" style="vector-effect: none; stroke-width: 2px; stroke: rgb(148, 133, 56); stroke-opacity: 1; fill: rgb(185, 166, 70); fill-opacity: 0.5;"/><path class="meanline" d="M97.12,109.43887329101562V136.8" style="fill: none; vector-effect: none; stroke-width: 2px; stroke-dasharray: 4px, 2px; stroke: rgb(148, 133, 56); stroke-opacity: 1;"/></g><g class="trace violins" style="opacity: 1;"><path class="violin" d="M-16.95,116.86L-16.95,116.24Q-13.48,115.86 -11.76,115.54C-10.02,115.21 -8.28,114.83 -6.57,114.28C-4.82,113.72 -3.07,113.04 -1.38,112.18C0.39,111.29 2.13,110.21 3.81,108.98C5.59,107.67 7.32,106.14 9,104.51C10.78,102.78 12.49,100.83 14.19,98.86C15.95,96.81 17.65,94.58 19.38,92.43C21.11,90.28 22.8,88.01 24.57,85.98C26.26,84.04 27.94,82.05 29.76,80.5C31.42,79.08 33.14,77.71 34.95,76.94C36.61,76.24 38.42,75.83 40.14,75.89C41.88,75.95 43.65,76.59 45.33,77.33C47.12,78.12 48.82,79.42 50.52,80.6C52.28,81.82 53.95,83.33 55.71,84.54C57.41,85.72 59.11,87.01 60.9,87.79C62.58,88.52 64.36,89.14 66.09,89.16C67.82,89.18 69.62,88.69 71.28,87.93C73.1,87.1 74.8,85.63 76.47,84.18C78.27,82.61 79.94,80.59 81.66,78.75C83.4,76.9 85.06,74.81 86.85,73.11C88.53,71.52 90.21,69.86 92.04,68.83C93.69,67.9 95.48,67.15 97.23,67.02C98.94,66.89 100.75,67.34 102.42,67.98C104.22,68.67 105.92,69.97 107.61,71.17C109.38,72.43 111.06,74.04 112.8,75.43C114.52,76.81 116.21,78.31 117.99,79.49C119.68,80.61 121.4,81.68 123.18,82.37C124.87,83.02 126.63,83.45 128.37,83.58C130.09,83.71 131.85,83.49 133.56,83.17C135.31,82.85 137.03,82.22 138.75,81.64C140.49,81.06 142.2,80.3 143.94,79.69C145.66,79.09 147.38,78.43 149.13,78.01C150.84,77.59 152.58,77.26 154.32,77.16C156.04,77.06 157.79,77.13 159.51,77.38C161.25,77.63 162.99,78.1 164.7,78.66C166.45,79.24 168.18,80 169.89,80.82C171.64,81.66 173.37,82.63 175.08,83.65C176.83,84.69 178.56,85.82 180.27,87C182.02,88.2 183.74,89.48 185.46,90.79C187.2,92.12 188.93,93.51 190.65,94.91C192.39,96.32 194.11,97.8 195.84,99.22C197.57,100.64 199.28,102.08 201.03,103.44C202.75,104.77 204.46,106.1 206.22,107.29C207.93,108.45 209.65,109.55 211.41,110.51C213.11,111.44 214.85,112.27 216.6,112.97C218.31,113.65 220.05,114.2 221.79,114.66C223.51,115.11 225.24,115.44 226.98,115.72C228.7,116 230.44,116.17 232.17,116.32C233.9,116.47 235.63,116.55 237.36,116.63C239.09,116.7 240.82,116.74 242.55,116.77C244.28,116.8 246,116.82 247.73,116.83C249.46,116.84 251.19,116.84 252.92,116.85C254.65,116.85 256.38,116.86 258.11,116.86C259.84,116.86 261.57,116.86 263.3,116.86C265.03,116.86 266.76,116.86 268.49,116.86C270.22,116.86 271.95,116.86 273.68,116.86C275.41,116.86 277.14,116.86 278.87,116.86C280.6,116.86 282.33,116.86 284.06,116.86C285.79,116.86 287.52,116.86 289.25,116.86C290.98,116.86 292.71,116.86 294.44,116.86C296.17,116.86 297.9,116.86 299.63,116.86C301.36,116.86 303.09,116.86 304.82,116.86C306.55,116.86 308.28,116.86 310.01,116.86C311.74,116.86 313.47,116.86 315.2,116.86C316.93,116.86 318.66,116.86 320.39,116.86C322.12,116.86 323.85,116.86 325.58,116.86C327.31,116.86 329.04,116.85 330.77,116.84C332.5,116.83 334.23,116.83 335.96,116.82C337.69,116.81 339.42,116.78 341.15,116.75C342.88,116.71 344.61,116.68 346.34,116.61C348.07,116.54 349.8,116.46 351.53,116.34C353.26,116.22 354.99,116.07 356.72,115.87C358.45,115.67 360.18,115.43 361.91,115.14C363.64,114.85 365.37,114.5 367.1,114.12C368.83,113.73 370.56,113.28 372.29,112.83C374.02,112.38 375.75,111.87 377.48,111.4C379.21,110.93 380.93,110.42 382.67,110C384.4,109.58 386.12,109.17 387.86,108.86C389.58,108.55 391.32,108.3 393.05,108.14C394.78,107.98 396.51,107.91 398.24,107.92C399.97,107.93 401.7,108.04 403.43,108.18C405.16,108.32 406.89,108.56 408.62,108.78C410.35,109 412.08,109.26 413.81,109.5C415.54,109.73 417.27,109.99 419,110.19C420.73,110.39 422.46,110.57 424.19,110.72C425.92,110.87 427.65,110.99 429.38,111.11C431.11,111.23 432.84,111.31 434.57,111.42C436.3,111.53 438.03,111.64 439.76,111.77C441.49,111.9 443.22,112.05 444.95,112.21C446.68,112.37 448.41,112.55 450.14,112.72C451.87,112.89 453.6,113.08 455.33,113.25C457.06,113.42 458.79,113.57 460.52,113.72C462.25,113.87 463.98,114.01 465.71,114.14C467.44,114.27 469.17,114.39 470.9,114.51C472.63,114.64 474.36,114.76 476.09,114.89C477.82,115.02 479.55,115.16 481.28,115.3C483.01,115.43 484.74,115.57 486.47,115.7C488.2,115.83 489.93,115.96 491.66,116.07C493.39,116.18 495.12,116.28 496.85,116.37C498.58,116.45 500.31,116.52 502.04,116.58Q503.77,116.64 507.23,116.72L507.23,116.86" style="vector-effect: none; stroke-width: 2px; stroke: rgb(30, 138, 174); stroke-opacity: 1; fill: rgb(37, 173, 218); fill-opacity: 0.5;"/><path class="meanline" d="M132.3,83.38265228271484V116.86" style="fill: none; vector-effect: none; stroke-width: 2px; stroke-dasharray: 4px, 2px; stroke: rgb(30, 138, 174); stroke-opacity: 1;"/></g><g class="trace violins" style="opacity: 1;"><path class="violin" d="M0.39,96.92L0.39,95.96Q5.95,95.34 8.71,94.79C11.5,94.23 14.29,93.57 17.03,92.63C19.84,91.67 22.64,90.5 25.36,89.07C28.2,87.58 30.97,85.77 33.68,83.8C36.52,81.73 39.28,79.33 42.01,76.88C44.83,74.35 47.56,71.53 50.33,68.84C53.11,66.15 55.83,63.28 58.66,60.74C61.39,58.28 64.11,55.79 66.98,53.81C69.67,51.95 72.45,50.23 75.31,49.1C78.01,48.03 80.84,47.35 83.63,47.08C86.39,46.82 89.2,47.08 91.96,47.48C94.75,47.89 97.52,48.73 100.28,49.52C103.07,50.31 105.82,51.34 108.6,52.23C111.37,53.12 114.14,54.05 116.93,54.84C119.69,55.62 122.47,56.33 125.25,56.95C128.02,57.56 130.8,58.06 133.58,58.53C136.35,59 139.13,59.37 141.9,59.77C144.68,60.18 147.46,60.54 150.23,60.96C153.01,61.38 155.78,61.8 158.55,62.29C161.33,62.78 164.11,63.3 166.88,63.88C169.66,64.46 172.43,65.1 175.2,65.79C177.98,66.48 180.75,67.22 183.52,68.02C186.3,68.82 189.08,69.68 191.85,70.59C194.63,71.51 197.4,72.5 200.17,73.52C202.95,74.55 205.73,75.65 208.5,76.76C211.28,77.87 214.04,79.04 216.82,80.16C219.59,81.28 222.36,82.43 225.15,83.49C227.91,84.54 230.68,85.57 233.47,86.48C236.23,87.38 239.01,88.2 241.8,88.9C244.56,89.59 247.34,90.18 250.12,90.67C252.89,91.15 255.67,91.51 258.45,91.82C261.22,92.13 264,92.33 266.77,92.53C269.54,92.73 272.32,92.86 275.09,93.02C277.87,93.18 280.64,93.33 283.42,93.5C286.19,93.67 288.97,93.86 291.74,94.05C294.52,94.24 297.29,94.46 300.07,94.65C302.84,94.84 305.61,95.06 308.39,95.21C311.16,95.36 313.94,95.5 316.72,95.57C319.49,95.64 322.27,95.68 325.04,95.64C327.82,95.6 330.6,95.51 333.37,95.33C336.15,95.15 338.92,94.91 341.69,94.58C344.47,94.25 347.25,93.84 350.02,93.37C352.8,92.89 355.57,92.34 358.34,91.73C361.12,91.12 363.89,90.42 366.66,89.7C369.44,88.97 372.22,88.17 374.99,87.38C377.77,86.58 380.53,85.73 383.31,84.93C386.08,84.13 388.86,83.32 391.64,82.6C394.41,81.89 397.18,81.2 399.96,80.65C402.73,80.1 405.51,79.63 408.29,79.28C411.06,78.93 413.83,78.7 416.61,78.55C419.38,78.4 422.16,78.37 424.94,78.37C427.71,78.37 430.49,78.45 433.26,78.56C436.03,78.67 438.81,78.81 441.58,79.02C444.36,79.23 447.14,79.47 449.91,79.82C452.69,80.17 455.47,80.58 458.23,81.11C461.02,81.64 463.79,82.29 466.56,83.01C469.34,83.73 472.11,84.58 474.88,85.43C477.66,86.28 480.43,87.23 483.21,88.11C485.98,88.99 488.75,89.89 491.53,90.69C494.3,91.48 497.07,92.24 499.86,92.88C502.62,93.52 505.4,94.07 508.18,94.53C510.95,94.99 513.73,95.34 516.51,95.63C519.28,95.92 522.06,96.11 524.83,96.28Q527.6,96.45 533.15,96.64L533.15,96.92" style="vector-effect: none; stroke-width: 2px; stroke: rgb(144, 60, 130); stroke-opacity: 1; fill: rgb(180, 75, 162); fill-opacity: 0.5;"/><path class="meanline" d="M194.11,71.35324096679688V96.92" style="fill: none; vector-effect: none; stroke-width: 2px; stroke-dasharray: 4px, 2px; stroke: rgb(144, 60, 130); stroke-opacity: 1;"/></g><g class="trace violins" style="opacity: 1;"><path class="violin" d="M-56.78,76.98L-56.78,74.14Q-48.86,72.49 -44.97,71.23C-40.99,69.95 -37.03,68.36 -33.16,66.48C-29.15,64.53 -25.22,62.17 -21.34,59.67C-17.34,57.09 -13.44,54.08 -9.53,51.17C-5.57,48.23 -1.7,44.97 2.28,42.1C6.18,39.29 10.06,36.35 14.1,34.1C17.95,31.95 21.89,29.95 25.91,28.79C29.77,27.68 33.79,27.09 37.72,27.14C41.66,27.19 45.65,28.03 49.53,29.09C53.53,30.18 57.45,31.96 61.35,33.69C65.33,35.46 69.23,37.63 73.16,39.63C77.1,41.64 81.01,43.79 84.97,45.72C88.89,47.63 92.82,49.52 96.79,51.14C100.69,52.74 104.63,54.24 108.6,55.4C112.5,56.54 116.45,57.52 120.41,58.08C124.32,58.63 128.29,58.91 132.22,58.75C136.17,58.59 140.14,58.01 144.04,57.1C148.02,56.17 151.96,54.73 155.85,53.17C159.83,51.57 163.74,49.53 167.66,47.6C171.62,45.65 175.51,43.41 179.48,41.53C183.39,39.68 187.3,37.76 191.29,36.38C195.17,35.04 199.13,33.88 203.1,33.31C207.01,32.75 211,32.63 214.92,32.95C218.88,33.27 222.84,34.16 226.73,35.26C230.71,36.39 234.64,38.01 238.54,39.67C242.51,41.36 246.42,43.39 250.35,45.33C254.3,47.28 258.22,49.4 262.17,51.33C266.09,53.24 270.01,55.18 273.98,56.85C277.88,58.49 281.82,60.04 285.79,61.27C289.69,62.48 293.65,63.49 297.61,64.19C301.52,64.88 305.48,65.29 309.42,65.47C313.35,65.65 317.3,65.51 321.23,65.27C325.17,65.03 329.11,64.5 333.04,64.01C336.98,63.52 340.92,62.86 344.86,62.33C348.8,61.8 352.73,61.24 356.67,60.85C360.6,60.46 364.54,60.19 368.48,60.01C372.42,59.83 376.36,59.82 380.3,59.79C384.24,59.76 388.17,59.85 392.11,59.81C396.05,59.77 399.99,59.75 403.92,59.56C407.86,59.37 411.81,59.05 415.74,58.65C419.68,58.24 423.62,57.68 427.55,57.13C431.49,56.58 435.42,55.9 439.36,55.36C443.29,54.82 447.23,54.25 451.17,53.88C455.1,53.51 459.05,53.23 462.99,53.16C466.93,53.09 470.87,53.19 474.8,53.44C478.74,53.69 482.68,54.14 486.61,54.68C490.56,55.22 494.5,55.93 498.43,56.68C502.38,57.43 506.31,58.31 510.24,59.19C514.18,60.07 518.12,61.01 522.05,61.95C525.99,62.89 529.92,63.87 533.86,64.81C537.8,65.75 541.74,66.7 545.68,67.59C549.61,68.48 553.55,69.36 557.49,70.16C561.42,70.96 565.36,71.71 569.3,72.37C573.23,73.03 577.18,73.6 581.12,74.1C585.05,74.59 588.99,75 592.93,75.34Q596.86,75.68 604.74,76.13L604.74,76.98" style="vector-effect: none; stroke-width: 2px; stroke: rgb(90, 114, 107); stroke-opacity: 1; fill: rgb(112, 143, 134); fill-opacity: 0.5;"/><path class="meanline" d="M217.45,33.22870635986328V76.98" style="fill: none; vector-effect: none; stroke-width: 2px; stroke-dasharray: 4px, 2px; stroke: rgb(90, 114, 107); stroke-opacity: 1;"/></g><g class="trace violins" style="opacity: 1;"><path class="violin" d="M19.48,57.05L19.48,57.03Q23.73,57.03 25.85,57.02C27.97,57.02 30.09,57.01 32.21,57C34.33,56.99 36.45,56.99 38.57,56.98C40.69,56.97 42.81,56.97 44.93,56.96C47.05,56.95 49.18,56.94 51.3,56.94C53.42,56.94 55.54,56.94 57.66,56.94C59.78,56.94 61.9,56.94 64.02,56.94C66.14,56.94 68.26,56.94 70.38,56.93C72.5,56.92 74.62,56.92 76.74,56.9C78.86,56.88 80.99,56.86 83.11,56.8C85.23,56.74 87.35,56.67 89.47,56.55C91.59,56.43 93.71,56.28 95.83,56.06C97.95,55.83 100.08,55.57 102.19,55.2C104.32,54.83 106.45,54.39 108.56,53.85C110.69,53.31 112.81,52.66 114.92,51.95C117.05,51.23 119.17,50.4 121.28,49.55C123.41,48.69 125.52,47.73 127.64,46.8C129.76,45.87 131.88,44.88 134.01,43.97C136.12,43.06 138.24,42.15 140.37,41.34C142.48,40.54 144.6,39.77 146.73,39.13C148.84,38.5 150.96,37.94 153.09,37.5C155.2,37.06 157.33,36.72 159.46,36.47C161.58,36.22 163.7,36.08 165.82,35.99C167.94,35.9 170.06,35.9 172.18,35.9C174.3,35.9 176.42,35.97 178.54,35.97C180.66,35.97 182.79,35.99 184.91,35.91C187.03,35.83 189.15,35.7 191.27,35.5C193.39,35.3 195.51,35 197.63,34.72C199.75,34.43 201.87,34.06 203.99,33.79C206.11,33.52 208.23,33.22 210.36,33.08C212.48,32.94 214.6,32.88 216.72,32.97C218.84,33.06 220.97,33.31 223.08,33.62C225.21,33.93 227.32,34.42 229.44,34.84C231.56,35.26 233.68,35.8 235.81,36.14C237.92,36.48 240.05,36.83 242.17,36.89C244.29,36.95 246.43,36.87 248.53,36.53C250.67,36.18 252.8,35.57 254.89,34.78C257.05,33.96 259.17,32.86 261.26,31.68C263.42,30.46 265.52,29.01 267.62,27.56C269.76,26.08 271.86,24.44 273.98,22.87C276.1,21.3 278.2,19.65 280.34,18.13C282.44,16.63 284.55,15.13 286.7,13.82C288.79,12.55 290.91,11.35 293.07,10.39C295.16,9.47 297.28,8.67 299.43,8.14C301.53,7.62 303.66,7.31 305.79,7.2C307.9,7.09 310.04,7.21 312.15,7.49C314.28,7.77 316.42,8.27 318.52,8.91C320.67,9.57 322.8,10.42 324.88,11.43C327.04,12.48 329.17,13.73 331.24,15.14C333.41,16.61 335.52,18.32 337.6,20.11C339.77,21.97 341.87,24.05 343.97,26.11C346.11,28.2 348.19,30.46 350.33,32.57C352.44,34.65 354.52,36.79 356.69,38.67C358.77,40.47 360.87,42.22 363.05,43.64C365.12,44.98 367.25,46.16 369.42,47.04C371.5,47.88 373.64,48.47 375.78,48.87C377.88,49.27 380.02,49.38 382.14,49.46C384.26,49.54 386.38,49.42 388.5,49.37C390.62,49.31 392.75,49.17 394.87,49.13C396.99,49.09 399.11,49.08 401.23,49.15C403.35,49.22 405.47,49.38 407.59,49.57C409.71,49.76 411.83,50.06 413.95,50.31C416.07,50.56 418.19,50.88 420.32,51.05C422.44,51.22 424.56,51.4 426.68,51.34C428.8,51.28 430.94,51.11 433.04,50.66C435.18,50.2 437.33,49.5 439.4,48.58C441.57,47.61 443.7,46.31 445.77,44.91C447.94,43.44 450.03,41.65 452.13,39.92C454.27,38.15 456.34,36.15 458.49,34.4C460.58,32.69 462.65,30.87 464.85,29.54C466.91,28.3 469.04,27.1 471.22,26.58C473.29,26.08 475.5,25.99 477.58,26.36C479.74,26.74 481.89,27.8 483.94,28.95C486.14,30.19 488.22,31.98 490.3,33.68C492.46,35.45 494.53,37.52 496.66,39.41C498.78,41.29 500.87,43.25 503.03,44.97C505.11,46.62 507.22,48.22 509.39,49.55C511.46,50.82 513.59,51.93 515.75,52.83C517.84,53.7 519.97,54.36 522.11,54.9Q524.21,55.43 528.48,56.06L528.48,57.05" style="vector-effect: none; stroke-width: 2px; stroke: rgb(78, 50, 154); stroke-opacity: 1; fill: rgb(97, 62, 193); fill-opacity: 0.5;"/><path class="meanline" d="M306.12,7.184780120849609V57.05" style="fill: none; vector-effect: none; stroke-width: 2px; stroke-dasharray: 4px, 2px; stroke: rgb(78, 50, 154); stroke-opacity: 1;"/></g></g></g><g class="overplot"/><path class="xlines-above crisp" d="M0,0" style="fill: none;"/><path class="ylines-above crisp" d="M0,0" style="fill: none;"/><g class="overlines-above"/><g class="xaxislayer-above"><g class="xtick"><text text-anchor="middle" x="0" y="157" transform="translate(35,0)" style="font-family: 'Open Sans', verdana, arial, sans-serif; font-size: 12px; fill: rgb(242, 245, 250); fill-opacity: 1; white-space: pre; opacity: 0;"><tspan class="line" dy="0em" x="0" y="157">00:00:00</tspan><tspan class="line" dy="1.3em" x="0" y="157">Jan 1, 1970</tspan></text></g><g class="xtick"><text text-anchor="middle" x="0" y="157" style="font-family: 'Open Sans', verdana, arial, sans-serif; font-size: 12px; fill: rgb(242, 245, 250); fill-opacity: 1; white-space: pre; opacity: 0;" transform="translate(756,0)">00:00:00.0001</text></g></g><g class="yaxislayer-above"/><g class="overaxes-above"/></g></g><g class="polarlayer"/><g class="smithlayer"/><g class="ternarylayer"/><g class="geolayer"/><g class="funnelarealayer"/><g class="pielayer"/><g class="iciclelayer"/><g class="treemaplayer"/><g class="sunburstlayer"/><g class="glimages"/><defs id="topdefs-e93892"><g class="clips"/></defs><g class="layer-above"><g class="imagelayer"/><g class="shapelayer"/></g><g class="infolayer"><g class="g-gtitle"/><g class="g-xtitle" transform="translate(0,-2.9093750000000114)"><text class="xtitle" x="395.5" y="199.909375" text-anchor="middle" style="font-family: 'Open Sans', verdana, arial, sans-serif; font-size: 14px; fill: rgb(242, 245, 250); opacity: 1; white-space: pre;">Created</text></g><g class="g-ytitle"/></g></svg>