<svg class="main-svg" xmlns="http://www.w3.org/2000/svg" xmlns:xlink="http://www.w3.org/1999/xlink" width="800" height="200" style="" viewBox="0 0 800 200"><rect x="0" y="0" width="800" height="200" style="fill: rgb(0, 0, 0); fill-opacity: 0;"/><defs id="defs-64bf9b"><g class="clips"><clipPath id="clip64bf9bxyplot" class="plotclip"><rect width="800" height="159"/></clipPath><clipPath class="axesclip" id="clip64bf9bx"><rect x="0" y="0" width="800" height="200"/></clipPath><clipPath class="axesclip" id="clip64bf9by"><rect x="0" y="0" width="800" height="159"/></clipPath><clipPath class="axesclip" id="clip64bf9bxy"><rect x="0" y="0" width="800" height="159"/></clipPath></g><g class="gradients"/><g class="patterns"/></defs><g class="bglayer"><rect class="bg" x="0" y="0" width="800" height="159" style="fill: rgb(0, 0, 0); fill-opacity: 0; stroke-width: 0;"/></g><g class="layer-below"><g class="imagelayer"/><g class="shapelayer"/></g><g class="cartesianlayer"><g class="subplot xy"><g class="layer-subplot"><g class="shapelayer"/><g class="imagelayer"/></g><g class="minor-gridlayer"><g class="x"/><g class="y"/></g><g class="gridlayer"><g class="x"><path class="xgrid crisp" transform="translate(187.83,0)" d="M0,0v159" style="stroke: rgb(40, 52, 66); stroke-opacity: 1; stroke-width: 1px;"/><path class="xgrid crisp" transform="translate(308.83,0)" d="M0,0v159" style="stroke: rgb(40, 52, 66); stroke-opacity: 1; stroke-width: 1px;"/><path class="xgrid crisp" transform="translate(429.82,0)" d="M0,0v159" style="stroke: rgb(40, 52, 66); stroke-opacity: 1; stroke-width: 1px;"/><path class="xgrid crisp" transform="translate(550.82,0)" d="M0,0v159" style="stroke: rgb(40, 52, 66); stroke-opacity: 1; stroke-width: 1px;"/><path class="xgrid crisp" transform="translate(671.81,0)" d="M0,0v159" style="stroke: rgb(40, 52, 66); stroke-opacity: 1; stroke-width: 1px;"/><path class="xgrid crisp" transform="translate(792.8,0)" d="M0,0v159" style="stroke: rgb(40, 52, 66); stroke-opacity: 1; stroke-width: 1px;"/></g><g class="y"/></g><g class="zerolinelayer"><path class="xzl zl crisp" transform="translate(66.84,0)" d="M0,0v159" style="stroke: rgb(40, 52, 66); stroke-opacity: 1; stroke-width: 2px;"/></g><g class="layer-between"><g class="shapelayer"/><g class="imagelayer"/></g><path class="xlines-below"/><path class="ylines-below"/><g class="overlines-below"/><g class="xaxislayer-below"/><g class="yaxislayer-below"/><g class="overaxes-below"/><g class="plot" transform="" clip-path="url(#clip64bf9bxyplot)"><g class="violinlayer mlayer"><g class="trace violins" style="opacity: 1;"><path class="violin" d="M40,151.05L40,147.06Q43,144.94 44.41,143.59C45.96,142.11 47.41,140.34 48.83,138.47C50.37,136.44 51.8,134.12 53.24,131.81C54.74,129.4 56.17,126.76 57.65,124.28C59.11,121.83 60.53,119.27 62.06,117.03C63.48,114.96 64.9,112.86 66.48,111.28C67.86,109.9 69.33,108.6 70.89,107.93C72.29,107.33 73.84,107.09 75.3,107.2C76.79,107.31 78.29,107.98 79.72,108.65C81.23,109.36 82.67,110.43 84.13,111.39C85.61,112.37 87.05,113.5 88.54,114.47C89.99,115.41 91.45,116.38 92.95,117.13C94.39,117.85 95.87,118.49 97.37,118.92C98.82,119.34 100.3,119.58 101.78,119.7C103.24,119.82 104.72,119.74 106.19,119.63C107.67,119.52 109.14,119.25 110.61,119.05C112.08,118.85 113.55,118.57 115.02,118.42C116.49,118.27 117.96,118.13 119.43,118.13C120.9,118.13 122.38,118.23 123.84,118.42C125.32,118.61 126.79,118.93 128.26,119.28C129.74,119.63 131.2,120.1 132.67,120.52C134.14,120.94 135.6,121.42 137.08,121.78C138.55,122.14 140.02,122.49 141.5,122.67C142.96,122.85 144.44,122.94 145.91,122.86C147.38,122.78 148.87,122.54 150.32,122.18C151.81,121.81 153.27,121.26 154.73,120.67C156.22,120.07 157.68,119.33 159.15,118.61C160.63,117.89 162.09,117.08 163.56,116.34C165.03,115.6 166.49,114.86 167.97,114.17C169.44,113.48 170.91,112.84 172.39,112.21C173.86,111.58 175.33,111.01 176.8,110.4C178.27,109.78 179.75,109.19 181.21,108.52C182.69,107.85 184.16,107.14 185.62,106.38C187.1,105.61 188.57,104.77 190.04,103.93C191.52,103.08 192.97,102.16 194.45,101.31C195.91,100.47 197.37,99.58 198.86,98.85C200.31,98.14 201.78,97.44 203.28,96.96C204.73,96.5 206.21,96.13 207.69,96.01C209.15,95.89 210.65,95.96 212.1,96.22C213.59,96.49 215.08,96.99 216.52,97.61C218.02,98.25 219.49,99.13 220.93,100.05C222.43,101 223.89,102.12 225.34,103.25C226.83,104.41 228.29,105.67 229.75,106.92C231.23,108.19 232.7,109.51 234.17,110.81C235.64,112.12 237.11,113.44 238.58,114.75C240.05,116.06 241.52,117.37 242.99,118.68C244.46,119.99 245.94,121.29 247.41,122.59C248.88,123.88 250.35,125.18 251.82,126.45C253.29,127.71 254.75,128.98 256.23,130.19C257.69,131.39 259.15,132.58 260.64,133.69C262.1,134.78 263.57,135.83 265.06,136.81C266.51,137.76 267.98,138.66 269.47,139.48C270.92,140.28 272.4,141.01 273.88,141.68C275.34,142.34 276.82,142.93 278.3,143.47C279.76,144 281.23,144.46 282.71,144.89C284.17,145.31 285.65,145.69 287.12,146.03C288.59,146.37 290.06,146.66 291.53,146.94C293,147.22 294.48,147.46 295.95,147.69C297.42,147.92 298.89,148.12 300.36,148.31C301.83,148.5 303.3,148.68 304.77,148.85C306.24,149.02 307.72,149.18 309.19,149.33C310.66,149.48 312.13,149.62 313.6,149.76C315.07,149.89 316.54,150.02 318.01,150.14C319.48,150.25 320.95,150.36 322.42,150.45C323.89,150.54 325.37,150.61 326.84,150.68C328.31,150.74 329.78,150.8 331.25,150.84Q332.72,150.88 335.66,150.94L335.66,151.05" style="vector-effect: none; stroke-width: 2px; stroke: rgb(148, 133, 56); stroke-opacity: 1; fill: rgb(185, 166, 70); fill-opacity: 0.5;"/><path class="meanline" d="M163.08,116.58454895019531V151.05" style="fill: none; vector-effect: none; stroke-width: 2px; stroke-dasharray: 4px, 2px; stroke: rgb(148, 133, 56); stroke-opacity: 1;"/></g><g class="trace violins" style="opacity: 1;"><path class="violin" d="M160.6,129.03L160.6,128.48Q163.62,128.18 165.12,127.94C166.63,127.7 168.14,127.41 169.64,127.05C171.15,126.68 172.66,126.25 174.16,125.75C175.68,125.24 177.18,124.65 178.68,124.01C180.2,123.36 181.7,122.64 183.2,121.9C184.71,121.16 186.21,120.35 187.71,119.57C189.22,118.79 190.72,117.98 192.23,117.23C193.73,116.49 195.23,115.75 196.75,115.09C198.25,114.44 199.75,113.83 201.27,113.31C202.77,112.79 204.27,112.34 205.79,111.97C207.29,111.61 208.79,111.33 210.3,111.11C211.8,110.9 213.31,110.76 214.82,110.68C216.32,110.6 217.83,110.61 219.34,110.63C220.85,110.65 222.35,110.75 223.86,110.83C225.37,110.91 226.87,111.05 228.38,111.12C229.89,111.19 231.39,111.28 232.9,111.27C234.4,111.26 235.91,111.22 237.41,111.09C238.92,110.96 240.43,110.76 241.93,110.48C243.44,110.2 244.95,109.82 246.45,109.4C247.96,108.98 249.47,108.47 250.97,107.94C252.48,107.4 253.99,106.8 255.49,106.2C257,105.6 258.5,104.96 260.01,104.35C261.51,103.75 263.01,103.12 264.52,102.57C266.02,102.02 267.52,101.5 269.04,101.06C270.54,100.62 272.05,100.26 273.56,99.94C275.06,99.63 276.57,99.41 278.08,99.17C279.59,98.93 281.1,98.77 282.6,98.49C284.11,98.21 285.63,97.93 287.12,97.49C288.64,97.04 290.16,96.49 291.63,95.78C293.17,95.04 294.68,94.12 296.15,93.1C297.7,92.03 299.19,90.76 300.67,89.48C302.2,88.15 303.69,86.67 305.19,85.25C306.7,83.83 308.18,82.31 309.71,80.97C311.19,79.67 312.67,78.34 314.22,77.3C315.68,76.32 317.19,75.39 318.74,74.84C320.21,74.32 321.75,74 323.26,74C324.77,74 326.31,74.36 327.78,74.87C329.33,75.41 330.83,76.31 332.3,77.24C333.85,78.22 335.33,79.45 336.82,80.63C338.34,81.83 339.82,83.17 341.33,84.4C342.83,85.62 344.32,86.87 345.85,87.97C347.33,89.03 348.84,90.04 350.37,90.91C351.85,91.75 353.37,92.47 354.89,93.12C356.38,93.75 357.9,94.25 359.41,94.76C360.91,95.26 362.43,95.67 363.93,96.14C365.44,96.61 366.94,97.07 368.44,97.56C369.95,98.06 371.45,98.59 372.96,99.11C374.47,99.63 375.97,100.2 377.48,100.7C378.98,101.19 380.48,101.7 382,102.08C383.5,102.46 385.01,102.79 386.52,103C388.02,103.21 389.52,103.31 391.03,103.36C392.53,103.41 394.04,103.34 395.55,103.28C397.06,103.22 398.56,103.06 400.07,102.98C401.58,102.9 403.08,102.79 404.59,102.78C406.1,102.77 407.61,102.78 409.11,102.89C410.62,103 412.13,103.18 413.63,103.42C415.14,103.66 416.64,103.99 418.14,104.35C419.65,104.71 421.16,105.14 422.66,105.59C424.17,106.04 425.68,106.54 427.18,107.06C428.69,107.59 430.2,108.15 431.7,108.74C433.21,109.34 434.72,109.96 436.22,110.62C437.73,111.29 439.24,111.99 440.74,112.72C442.25,113.46 443.75,114.24 445.25,115.02C446.76,115.81 448.26,116.63 449.77,117.43C451.28,118.23 452.78,119.05 454.29,119.82C455.79,120.58 457.29,121.34 458.81,122.03C460.31,122.71 461.81,123.37 463.33,123.95C464.82,124.52 466.33,125.04 467.84,125.49C469.34,125.94 470.85,126.31 472.36,126.64C473.86,126.96 475.37,127.23 476.88,127.45C478.38,127.67 479.89,127.83 481.4,127.97C482.91,128.11 484.41,128.2 485.92,128.29C487.43,128.38 488.93,128.43 490.44,128.49C491.94,128.54 493.45,128.58 494.95,128.62C496.46,128.66 497.96,128.7 499.47,128.73C500.98,128.76 502.48,128.79 503.99,128.82C505.5,128.85 507,128.87 508.51,128.89C510.02,128.91 511.52,128.93 513.03,128.95Q514.54,128.97 517.55,128.99L517.55,129.03" style="vector-effect: none; stroke-width: 2px; stroke: rgb(90, 114, 107); stroke-opacity: 1; fill: rgb(112, 143, 134); fill-opacity: 0.5;"/><path class="meanline" d="M325.48,74.2330093383789V129.03" style="fill: none; vector-effect: none; stroke-width: 2px; stroke-dasharray: 4px, 2px; stroke: rgb(90, 114, 107); stroke-opacity: 1;"/></g><g class="trace violins" style="opacity: 1;"><path class="violin" d="M217.43,107.02L217.43,106.91Q219.52,106.86 220.56,106.82C221.6,106.78 222.65,106.74 223.69,106.69C224.73,106.64 225.78,106.57 226.82,106.51C227.86,106.45 228.91,106.38 229.95,106.32C230.99,106.25 232.04,106.18 233.08,106.12C234.12,106.06 235.17,106.01 236.21,105.96C237.25,105.91 238.3,105.88 239.34,105.84C240.38,105.8 241.43,105.77 242.47,105.74C243.52,105.71 244.56,105.69 245.61,105.66C246.65,105.63 247.7,105.59 248.74,105.55C249.78,105.51 250.83,105.46 251.87,105.4C252.91,105.34 253.96,105.26 255,105.18C256.04,105.1 257.09,105 258.13,104.9C259.17,104.8 260.22,104.68 261.26,104.56C262.3,104.44 263.35,104.31 264.39,104.19C265.43,104.07 266.48,103.95 267.52,103.84C268.56,103.73 269.61,103.63 270.65,103.55C271.69,103.47 272.74,103.4 273.78,103.35C274.82,103.3 275.87,103.27 276.91,103.24C277.96,103.21 279,103.21 280.05,103.19C281.09,103.17 282.14,103.17 283.18,103.14C284.22,103.11 285.27,103.07 286.31,103C287.35,102.92 288.4,102.83 289.44,102.69C290.49,102.54 291.53,102.36 292.57,102.13C293.62,101.9 294.66,101.61 295.7,101.29C296.75,100.97 297.79,100.59 298.83,100.21C299.88,99.83 300.91,99.41 301.96,99.03C303,98.66 304.04,98.26 305.09,97.96C306.13,97.66 307.17,97.4 308.22,97.23C309.26,97.07 310.31,96.97 311.35,96.96C312.39,96.95 313.44,97.03 314.48,97.15C315.53,97.27 316.58,97.48 317.62,97.68C318.67,97.88 319.71,98.14 320.75,98.36C321.79,98.58 322.83,98.82 323.88,99.02C324.92,99.22 325.96,99.4 327.01,99.54C328.05,99.68 329.1,99.78 330.14,99.84C331.18,99.9 332.23,99.91 333.27,99.88C334.31,99.85 335.36,99.77 336.4,99.66C337.45,99.55 338.49,99.4 339.53,99.21C340.58,99.02 341.62,98.79 342.66,98.54C343.71,98.29 344.75,98 345.79,97.69C346.84,97.38 347.88,97.03 348.92,96.67C349.97,96.31 351.01,95.92 352.05,95.51C353.1,95.1 354.15,94.65 355.19,94.21C356.24,93.76 357.28,93.29 358.32,92.84C359.36,92.39 360.4,91.92 361.45,91.5C362.49,91.08 363.53,90.68 364.58,90.33C365.62,89.99 366.66,89.68 367.71,89.43C368.75,89.18 369.79,89 370.84,88.82C371.88,88.64 372.93,88.54 373.97,88.37C375.02,88.2 376.06,88.05 377.1,87.79C378.15,87.53 379.2,87.22 380.23,86.8C381.29,86.37 382.34,85.83 383.36,85.24C384.42,84.62 385.46,83.88 386.49,83.15C387.55,82.4 388.58,81.56 389.63,80.78C390.67,80 391.7,79.2 392.76,78.47C393.79,77.76 394.83,77.08 395.89,76.46C396.92,75.86 397.97,75.32 399.02,74.81C400.05,74.31 401.1,73.87 402.15,73.42C403.19,72.97 404.24,72.55 405.28,72.11C406.32,71.67 407.37,71.23 408.41,70.76C409.46,70.29 410.5,69.8 411.54,69.31C412.59,68.82 413.63,68.3 414.67,67.8C415.71,67.3 416.76,66.8 417.8,66.3C418.84,65.8 419.89,65.31 420.93,64.79C421.98,64.27 423.02,63.76 424.06,63.2C425.11,62.63 426.16,62.04 427.2,61.41C428.25,60.77 429.29,60.07 430.33,59.37C431.38,58.66 432.41,57.88 433.46,57.15C434.5,56.42 435.53,55.64 436.59,54.98C437.62,54.33 438.65,53.69 439.72,53.21C440.74,52.75 441.79,52.34 442.85,52.14C443.88,51.94 444.94,51.88 445.98,51.98C447.03,52.08 448.09,52.36 449.11,52.74C450.18,53.14 451.22,53.71 452.24,54.34C453.31,55 454.35,55.78 455.37,56.61C456.44,57.47 457.47,58.44 458.5,59.42C459.56,60.43 460.6,61.51 461.63,62.6C462.69,63.71 463.73,64.87 464.77,66.02C465.82,67.18 466.86,68.38 467.9,69.56C468.94,70.74 469.98,71.93 471.03,73.08C472.07,74.22 473.1,75.35 474.16,76.43C475.19,77.49 476.23,78.53 477.29,79.5C478.32,80.44 479.36,81.35 480.42,82.18C481.45,82.99 482.49,83.74 483.55,84.43C484.58,85.1 485.62,85.72 486.68,86.27C487.71,86.81 488.76,87.28 489.81,87.71C490.84,88.13 491.89,88.5 492.94,88.82C493.98,89.14 495.02,89.41 496.07,89.65C497.11,89.89 498.16,90.07 499.21,90.24C500.25,90.41 501.3,90.54 502.34,90.65C503.38,90.76 504.43,90.84 505.47,90.9C506.51,90.96 507.56,90.99 508.6,91.01C509.64,91.03 510.69,91.02 511.73,91C512.77,90.98 513.82,90.93 514.86,90.88C515.9,90.83 516.95,90.75 517.99,90.68C519.03,90.61 520.08,90.53 521.12,90.47C522.16,90.41 523.21,90.34 524.25,90.3C525.29,90.26 526.34,90.23 527.38,90.25C528.42,90.27 529.47,90.31 530.51,90.4C531.56,90.49 532.6,90.62 533.64,90.81C534.69,91 535.74,91.23 536.78,91.52C537.83,91.81 538.87,92.16 539.91,92.54C540.96,92.92 542,93.36 543.04,93.81C544.09,94.26 545.13,94.77 546.17,95.25C547.21,95.74 548.25,96.24 549.3,96.72C550.34,97.2 551.38,97.68 552.43,98.13C553.47,98.58 554.51,99.01 555.56,99.41C556.6,99.8 557.64,100.17 558.69,100.51C559.73,100.85 560.77,101.16 561.82,101.44C562.86,101.72 563.9,101.97 564.95,102.2C565.99,102.43 567.03,102.62 568.08,102.8C569.12,102.98 570.16,103.13 571.21,103.27C572.25,103.4 573.3,103.51 574.35,103.61C575.39,103.71 576.44,103.78 577.48,103.85C578.52,103.92 579.57,103.97 580.61,104.02C581.65,104.07 582.7,104.11 583.74,104.15C584.78,104.19 585.83,104.22 586.87,104.26C587.91,104.3 588.96,104.34 590,104.39C591.04,104.44 592.09,104.5 593.13,104.55C594.17,104.61 595.22,104.66 596.26,104.72C597.3,104.78 598.35,104.83 599.39,104.89C600.43,104.94 601.48,105 602.52,105.05C603.56,105.1 604.61,105.14 605.65,105.17C606.7,105.2 607.74,105.22 608.79,105.22C609.83,105.22 610.88,105.21 611.92,105.2C612.96,105.19 614.01,105.16 615.05,105.13C616.09,105.1 617.14,105.06 618.18,105.04C619.22,105.02 620.27,105.01 621.31,105.01C622.35,105.01 623.4,105.03 624.44,105.06C625.48,105.09 626.53,105.16 627.57,105.22C628.61,105.29 629.66,105.37 630.7,105.45C631.74,105.53 632.79,105.63 633.83,105.71C634.87,105.79 635.92,105.88 636.96,105.95C638,106.02 639.05,106.09 640.09,106.15C641.13,106.21 642.18,106.26 643.22,106.31C644.27,106.36 645.31,106.39 646.36,106.43C647.4,106.47 648.45,106.5 649.49,106.54C650.53,106.57 651.58,106.61 652.62,106.64C653.66,106.67 654.71,106.7 655.75,106.73C656.79,106.76 657.84,106.78 658.88,106.8C659.92,106.82 660.97,106.84 662.01,106.85C663.05,106.86 664.1,106.87 665.14,106.88C666.18,106.89 667.23,106.89 668.27,106.89C669.31,106.89 670.36,106.89 671.4,106.89C672.44,106.89 673.49,106.88 674.53,106.88C675.57,106.88 676.62,106.88 677.66,106.88C678.7,106.88 679.75,106.88 680.79,106.88C681.84,106.88 682.88,106.89 683.93,106.9C684.97,106.91 686.02,106.91 687.06,106.92C688.1,106.93 689.15,106.93 690.19,106.94C691.23,106.95 692.28,106.95 693.32,106.96C694.36,106.97 695.41,106.97 696.45,106.98C697.49,106.99 698.54,106.99 699.58,107Q700.62,107 702.71,107.01L702.71,107.02" style="vector-effect: none; stroke-width: 2px; stroke: rgb(30, 138, 174); stroke-opacity: 1; fill: rgb(37, 173, 218); fill-opacity: 0.5;"/><path class="meanline" d="M437.11,54.653690338134766V107.02" style="fill: none; vector-effect: none; stroke-width: 2px; stroke-dasharray: 4px, 2px; stroke: rgb(30, 138, 174); stroke-opacity: 1;"/></g><g class="trace violins" style="opacity: 1;"><path class="violin" d="M256.93,85L256.93,84.92Q261.34,84.87 263.55,84.83C265.76,84.79 267.96,84.75 270.17,84.69C272.38,84.63 274.58,84.56 276.79,84.47C279,84.38 281.2,84.27 283.41,84.15C285.62,84.03 287.82,83.89 290.03,83.73C292.24,83.57 294.44,83.38 296.65,83.17C298.86,82.96 301.07,82.73 303.27,82.47C305.48,82.21 307.69,81.92 309.89,81.59C312.1,81.26 314.31,80.91 316.51,80.5C318.72,80.09 320.93,79.65 323.13,79.15C325.34,78.65 327.55,78.11 329.75,77.52C331.96,76.92 334.17,76.27 336.37,75.57C338.58,74.87 340.79,74.11 342.99,73.31C345.2,72.51 347.4,71.65 349.6,70.77C351.81,69.88 354.02,68.95 356.22,67.99C358.43,67.03 360.64,66.04 362.84,65.01C365.05,63.98 367.26,62.92 369.46,61.8C371.68,60.67 373.89,59.5 376.08,58.26C378.3,57 380.51,55.67 382.7,54.27C384.93,52.85 387.13,51.33 389.32,49.78C391.54,48.21 393.73,46.54 395.94,44.91C398.15,43.28 400.33,41.57 402.56,40.01C404.75,38.48 406.93,36.92 409.18,35.62C411.35,34.36 413.55,33.18 415.8,32.3C417.97,31.45 420.19,30.79 422.42,30.4C424.61,30.02 426.84,29.92 429.04,29.97C431.25,30.02 433.46,30.34 435.66,30.71C437.87,31.09 440.07,31.65 442.27,32.22C444.48,32.8 446.69,33.46 448.89,34.15C451.1,34.85 453.31,35.6 455.51,36.4C457.73,37.21 459.94,38.07 462.13,39C464.35,39.94 466.55,40.97 468.75,42.03C470.97,43.1 473.17,44.26 475.37,45.4C477.58,46.54 479.78,47.75 481.99,48.87C484.19,49.99 486.39,51.1 488.61,52.12C490.8,53.13 493.01,54.08 495.23,54.95C497.42,55.81 499.63,56.58 501.85,57.31C504.05,58.03 506.26,58.69 508.47,59.3C510.67,59.91 512.88,60.49 515.09,60.99C517.29,61.49 519.5,61.96 521.71,62.3C523.91,62.64 526.12,62.93 528.33,63.04C530.53,63.15 532.74,63.15 534.94,62.97C537.15,62.79 539.37,62.43 541.56,61.97C543.78,61.5 545.98,60.84 548.18,60.18C550.4,59.51 552.59,58.68 554.8,57.96C557,57.24 559.2,56.46 561.42,55.86C563.61,55.27 565.82,54.73 568.04,54.4C570.24,54.07 572.45,53.89 574.66,53.88C576.87,53.87 579.08,54.05 581.28,54.31C583.49,54.57 585.7,55 587.9,55.43C590.11,55.87 592.32,56.4 594.52,56.92C596.73,57.44 598.94,57.99 601.14,58.55C603.35,59.11 605.56,59.68 607.76,60.29C609.97,60.91 612.18,61.54 614.38,62.24C616.59,62.95 618.8,63.7 621,64.51C623.21,65.33 625.41,66.23 627.61,67.13C629.82,68.04 632.02,69.01 634.23,69.95C636.44,70.89 638.64,71.87 640.85,72.79C643.05,73.7 645.25,74.6 647.47,75.43C649.67,76.25 651.87,77.03 654.09,77.74C656.29,78.44 658.5,79.09 660.71,79.66C662.91,80.23 665.12,80.74 667.33,81.18C669.53,81.62 671.74,81.98 673.95,82.29C676.15,82.6 678.36,82.83 680.57,83.03C682.77,83.22 684.98,83.36 687.19,83.46C689.4,83.56 691.6,83.61 693.81,83.65C696.02,83.69 698.22,83.7 700.43,83.72C702.64,83.74 704.84,83.75 707.05,83.78C709.26,83.81 711.46,83.84 713.67,83.88C715.87,83.92 718.08,83.98 720.28,84.04C722.49,84.1 724.69,84.19 726.9,84.26C729.11,84.33 731.31,84.41 733.52,84.48C735.73,84.55 737.93,84.61 740.14,84.67C742.35,84.72 744.55,84.77 746.76,84.81C748.97,84.85 751.17,84.87 753.38,84.9Q755.59,84.92 760,84.96L760,85" style="vector-effect: none; stroke-width: 2px; stroke: rgb(78, 50, 154); stroke-opacity: 1; fill: rgb(97, 62, 193); fill-opacity: 0.5;"/><path class="meanline" d="M481.19,48.46106719970703V85" style="fill: none; vector-effect: none; stroke-width: 2px; stroke-dasharray: 4px, 2px; stroke: rgb(78, 50, 154); stroke-opacity: 1;"/></g><g class="trace violins" style="opacity: 1;"><path class="violin" d="M386.45,62.99L386.45,62.59Q389.91,62.37 391.64,62.21C393.37,62.05 395.1,61.86 396.83,61.61C398.56,61.36 400.29,61.07 402.02,60.73C403.75,60.39 405.49,60 407.21,59.56C408.95,59.12 410.68,58.63 412.4,58.1C414.14,57.57 415.87,57 417.59,56.39C419.33,55.78 421.06,55.12 422.78,54.43C424.52,53.73 426.25,53 427.97,52.22C429.71,51.44 431.44,50.61 433.16,49.75C434.9,48.89 436.62,47.97 438.35,47.06C440.08,46.14 441.81,45.18 443.54,44.26C445.27,43.34 446.99,42.38 448.73,41.54C450.45,40.71 452.17,39.88 453.92,39.25C455.63,38.63 457.36,38.07 459.11,37.76C460.82,37.46 462.57,37.31 464.3,37.39C466.03,37.47 467.78,37.78 469.49,38.24C471.24,38.71 472.97,39.43 474.68,40.19C476.43,40.97 478.15,41.93 479.87,42.85C481.61,43.78 483.32,44.82 485.06,45.76C486.78,46.7 488.5,47.66 490.25,48.5C491.96,49.32 493.69,50.1 495.44,50.74C497.15,51.36 498.89,51.91 500.63,52.3C502.35,52.69 504.09,52.95 505.82,53.09C507.55,53.23 509.28,53.23 511.01,53.12C512.74,53.01 514.48,52.76 516.2,52.42C517.94,52.08 519.67,51.6 521.39,51.06C523.13,50.51 524.86,49.85 526.58,49.14C528.32,48.42 530.05,47.61 531.77,46.75C533.51,45.88 535.24,44.93 536.96,43.93C538.71,42.91 540.44,41.84 542.15,40.7C543.9,39.54 545.63,38.32 547.34,37.03C549.09,35.71 550.82,34.32 552.53,32.88C554.28,31.41 556,29.85 557.72,28.27C559.46,26.67 561.18,24.98 562.91,23.34C564.64,21.7 566.36,19.99 568.11,18.41C569.82,16.87 571.53,15.31 573.3,13.97C574.99,12.69 576.71,11.44 578.49,10.5C580.17,9.62 581.92,8.86 583.68,8.44C585.38,8.03 587.15,7.88 588.87,7.95C590.61,8.02 592.35,8.42 594.06,8.89C595.81,9.37 597.53,10.12 599.25,10.83C600.99,11.55 602.7,12.43 604.44,13.18C606.16,13.93 607.88,14.72 609.63,15.34C611.34,15.95 613.08,16.5 614.82,16.87C616.54,17.24 618.28,17.47 620.01,17.57C621.74,17.67 623.47,17.6 625.2,17.5C626.93,17.4 628.66,17.16 630.39,16.98C632.12,16.8 633.85,16.54 635.58,16.44C637.31,16.34 639.05,16.26 640.77,16.38C642.51,16.5 644.25,16.74 645.96,17.18C647.71,17.63 649.46,18.29 651.15,19.1C652.92,19.95 654.65,21.02 656.34,22.19C658.11,23.41 659.83,24.84 661.53,26.3C663.29,27.8 665,29.46 666.72,31.09C668.46,32.74 670.17,34.48 671.91,36.14C673.63,37.79 675.35,39.46 677.1,41.03C678.81,42.57 680.54,44.09 682.29,45.5C684,46.87 685.73,48.18 687.48,49.39C689.19,50.57 690.92,51.67 692.67,52.68C694.38,53.67 696.11,54.57 697.86,55.39C699.57,56.2 701.31,56.92 703.05,57.57C704.77,58.21 706.5,58.77 708.24,59.26C709.96,59.75 711.69,60.16 713.43,60.52C715.15,60.88 716.89,61.17 718.62,61.43C720.35,61.69 722.08,61.89 723.81,62.06C725.54,62.23 727.27,62.35 729,62.46C730.73,62.57 732.46,62.64 734.19,62.71Q735.92,62.77 739.38,62.85L739.38,62.99" style="vector-effect: none; stroke-width: 2px; stroke: rgb(144, 60, 130); stroke-opacity: 1; fill: rgb(180, 75, 162); fill-opacity: 0.5;"/><path class="meanline" d="M578.88,10.298606872558594V62.99" style="fill: none; vector-effect: none; stroke-width: 2px; stroke-dasharray: 4px, 2px; stroke: rgb(144, 60, 130); stroke-opacity: 1;"/></g></g></g><g class="overplot"/><path class="xlines-above crisp" d="M0,0" style="fill: none;"/><path class="ylines-above crisp" d="M0,0" style="fill: none;"/><g class="overlines-above"/><g class="xaxislayer-above"><g class="xtick"><text text-anchor="middle" x="0" y="172" transform="translate(66.84,0)" style="font-family: 'Open Sans', verdana, arial, sans-serif; font-size: 12px; fill: rgb(242, 245, 250); fill-opacity: 1; white-space: pre; opacity: 1;">0</text></g><g class="xtick"><text text-anchor="middle" x="0" y="172" style="font-family: 'Open Sans', verdana, arial, sans-serif; font-size: 12px; fill: rgb(242, 245, 250); fill-opacity: 1; white-space: pre; opacity: 1;" transform="translate(187.83,0)">10</text></g><g class="xtick"><text text-anchor="middle" x="0" y="172" style="font-family: 'Open Sans', verdana, arial, sans-serif; font-size: 12px; fill: rgb(242, 245, 250); fill-opacity: 1; white-space: pre; opacity: 1;" transform="translate(308.83,0)">20</text></g><g class="xtick"><text text-anchor="middle" x="0" y="172" style="font-family: 'Open Sans', verdana, arial, sans-serif; font-size: 12px; fill: rgb(242, 245, 250); fill-opacity: 1; white-space: pre; opacity: 1;" transform="translate(429.82,0)">30</text></g><g class="xtick"><text text-anchor="middle" x="0" y="172" style="font-family: 'Open Sans', verdana, arial, sans-serif; font-size: 12px; fill: rgb(242, 245, 250); fill-opacity: 1; white-space: pre; opacity: 1;" transform="translate(550.82,0)">40</text></g><g class="xtick"><text text-anchor="middle" x="0" y="172" style="font-family: 'Open Sans', verdana, arial, sans-serif; font-size: 12px; fill: rgb(242, 245, 250); fill-opacity: 1; white-space: pre; opacity: 1;" transform="translate(671.81,0)">50</text></g><g class="xtick"><text text-anchor="middle" x="0" y="172" style="font-family: 'Open Sans', verdana, arial, sans-serif; font-size: 12px; fill: rgb(242, 245, 250); fill-opacity: 1; white-space: pre; opacity: 0;" transform="translate(792.8,0)">60</text></g></g><g class="yaxislayer-above"/><g class="overaxes-above"/></g></g><g class="polarlayer"/><g class="smithlayer"/><g class="ternarylayer"/><g class="geolayer"/><g class="funnelarealayer"/><g class="pielayer"/><g class="iciclelayer"/><g class="treemaplayer"/><g class="sunburstlayer"/><g class="glimages"/><defs id="topdefs-64bf9b"><g class="clips"/></defs><g class="layer-above"><g class="imagelayer"/><g class="shapelayer"/></g><g class="infolayer"><g class="g-gtitle"/><g class="g-xtitle" transform="translate(0,-2.3000000000000114)"><text class="xtitle" x="400" y="199.3" text-anchor="middle" style="font-family: 'Open Sans', verdana, arial, sans-serif; font-size: 14px; fill: rgb(242, 245, 250); opacity: 1; white-space: pre;">Speed</text></g><g class="g-ytitle"/></g></svg>