<svg class="main-svg" xmlns="http://www.w3.org/2000/svg" xmlns:xlink="http://www.w3.org/1999/xlink" width="800" height="200" style="" viewBox="0 0 800 200"><rect x="0" y="0" width="800" height="200" style="fill: rgb(0, 0, 0); fill-opacity: 0;"/><defs id="defs-37a970"><g class="clips"><clipPath id="clip37a970xyplot" class="plotclip"><rect width="800" height="159"/></clipPath><clipPath class="axesclip" id="clip37a970x"><rect x="0" y="0" width="800" height="200"/></clipPath><clipPath class="axesclip" id="clip37a970y"><rect x="0" y="0" width="800" height="159"/></clipPath><clipPath class="axesclip" id="clip37a970xy"><rect x="0" y="0" width="800" height="159"/></clipPath></g><g class="gradients"/><g class="patterns"/></defs><g class="bglayer"><rect class="bg" x="0" y="0" width="800" height="159" style="fill: rgb(0, 0, 0); fill-opacity: 0; stroke-width: 0;"/></g><g class="layer-below"><g class="imagelayer"/><g class="shapelayer"/></g><g class="cartesianlayer"><g class="subplot xy"><g class="layer-subplot"><g class="shapelayer"/><g class="imagelayer"/></g><g class="minor-gridlayer"><g class="x"/><g class="y"/></g><g class="gridlayer"><g class="x"><path class="xgrid crisp" transform="translate(141.35,0)" d="M0,0v159" style="stroke: rgb(40, 52, 66); stroke-opacity: 1; stroke-width: 1px;"/><path class="xgrid crisp" transform="translate(224.01,0)" d="M0,0v159" style="stroke: rgb(40, 52, 66); stroke-opacity: 1; stroke-width: 1px;"/><path class="xgrid crisp" transform="translate(306.68,0)" d="M0,0v159" style="stroke: rgb(40, 52, 66); stroke-opacity: 1; stroke-width: 1px;"/><path class="xgrid crisp" transform="translate(389.35,0)" d="M0,0v159" style="stroke: rgb(40, 52, 66); stroke-opacity: 1; stroke-width: 1px;"/><path class="xgrid crisp" transform="translate(472.01,0)" d="M0,0v159" style="stroke: rgb(40, 52, 66); stroke-opacity: 1; stroke-width: 1px;"/><path class="xgrid crisp" transform="translate(554.68,0)" d="M0,0v159" style="stroke: rgb(40, 52, 66); stroke-opacity: 1; stroke-width: 1px;"/><path class="xgrid crisp" transform="translate(637.35,0)" d="M0,0v159" style="stroke: rgb(40, 52, 66); stroke-opacity: 1; stroke-width: 1px;"/><path class="xgrid crisp" transform="translate(720.02,0)" d="M0,0v159" style="stroke: rgb(40, 52, 66); stroke-opacity: 1; stroke-width: 1px;"/></g><g class="y"/></g><g class="zerolinelayer"><path class="xzl zl crisp" transform="translate(58.68,0)" d="M0,0v159" style="stroke: rgb(40, 52, 66); stroke-opacity: 1; stroke-width: 2px;"/></g><g class="layer-between"><g class="shapelayer"/><g class="imagelayer"/></g><path class="xlines-below"/><path class="ylines-below"/><g class="overlines-below"/><g class="xaxislayer-below"/><g class="yaxislayer-below"/><g class="overaxes-below"/><g class="plot" transform="" clip-path="url(#clip37a970xyplot)"><g class="violinlayer mlayer"><g class="trace violins" style="opacity: 1;"><path class="violin" d="M40,151.05L40,150.75Q43.88,150.57 45.82,150.41C47.76,150.25 49.7,150.07 51.63,149.81C53.57,149.55 55.52,149.24 57.45,148.86C59.4,148.47 61.34,148.01 63.27,147.5C65.22,146.99 67.16,146.39 69.09,145.78C71.03,145.16 72.96,144.47 74.9,143.81C76.84,143.15 78.78,142.44 80.72,141.8C82.66,141.16 84.59,140.53 86.54,139.96C88.47,139.4 90.41,138.87 92.36,138.41C94.29,137.95 96.23,137.54 98.17,137.18C100.1,136.82 102.05,136.52 103.99,136.24C105.93,135.96 107.87,135.73 109.81,135.51C111.75,135.29 113.69,135.1 115.63,134.91C117.57,134.72 119.5,134.57 121.44,134.37C123.38,134.17 125.32,133.99 127.26,133.72C129.2,133.45 131.15,133.16 133.08,132.75C135.03,132.33 136.98,131.83 138.9,131.22C140.85,130.6 142.79,129.85 144.71,129.04C146.66,128.22 148.6,127.27 150.53,126.34C152.48,125.41 154.4,124.37 156.35,123.46C158.28,122.56 160.21,121.64 162.17,120.93C164.09,120.24 166.02,119.6 167.98,119.23C169.9,118.87 171.86,118.69 173.8,118.73C175.74,118.77 177.7,119.06 179.62,119.46C181.58,119.87 183.51,120.53 185.44,121.17C187.39,121.82 189.31,122.64 191.25,123.34C193.19,124.04 195.12,124.79 197.07,125.37C199,125.95 200.94,126.47 202.89,126.83C204.82,127.19 206.77,127.41 208.71,127.54C210.64,127.67 212.58,127.65 214.52,127.59C216.46,127.53 218.4,127.37 220.34,127.18C222.28,126.99 224.23,126.77 226.16,126.47C228.1,126.17 230.04,125.85 231.97,125.39C233.92,124.93 235.87,124.4 237.79,123.7C239.75,122.98 241.7,122.13 243.61,121.12C245.59,120.07 247.52,118.82 249.43,117.49C251.4,116.12 253.32,114.54 255.24,112.99C257.19,111.41 259.11,109.7 261.06,108.11C262.99,106.54 264.9,104.93 266.88,103.53C268.79,102.18 270.72,100.89 272.7,99.85C274.6,98.86 276.54,98.01 278.51,97.39C280.42,96.79 282.38,96.39 284.33,96.16C286.26,95.93 288.21,95.9 290.15,96.01C292.09,96.12 294.05,96.41 295.97,96.85C297.93,97.3 299.87,97.91 301.78,98.69C303.75,99.49 305.7,100.5 307.6,101.63C309.58,102.8 311.51,104.19 313.42,105.63C315.39,107.12 317.32,108.79 319.24,110.45C321.2,112.14 323.11,113.94 325.05,115.69C326.99,117.44 328.92,119.23 330.87,120.96C332.8,122.67 334.74,124.36 336.69,126C338.62,127.61 340.56,129.18 342.51,130.71C344.43,132.21 346.37,133.69 348.32,135.09C350.24,136.47 352.18,137.82 354.14,139.08C356.06,140.32 358,141.51 359.96,142.59C361.88,143.64 363.82,144.63 365.78,145.48C367.7,146.31 369.64,147.04 371.59,147.66C373.51,148.27 375.46,148.75 377.41,149.16Q379.34,149.56 383.23,150.09L383.23,151.05" style="vector-effect: none; stroke-width: 2px; stroke: rgb(160, 156, 44); stroke-opacity: 1; fill: rgb(200, 195, 55); fill-opacity: 0.5;"/><path class="meanline" d="M237.98,123.62950897216797V151.05" style="fill: none; vector-effect: none; stroke-width: 2px; stroke-dasharray: 4px, 2px; stroke: rgb(160, 156, 44); stroke-opacity: 1;"/></g><g class="trace violins" style="opacity: 1;"><path class="violin" d="M280.98,129.03L280.98,128.99Q282.89,128.97 283.85,128.95C284.81,128.93 285.77,128.91 286.73,128.89C287.69,128.86 288.65,128.84 289.61,128.8C290.57,128.76 291.53,128.72 292.49,128.67C293.45,128.62 294.4,128.57 295.36,128.52C296.32,128.46 297.28,128.41 298.24,128.34C299.2,128.27 300.16,128.2 301.12,128.1C302.08,128 303.04,127.9 304,127.76C304.96,127.61 305.92,127.45 306.87,127.23C307.83,127 308.8,126.74 309.75,126.41C310.72,126.07 311.68,125.67 312.63,125.21C313.6,124.73 314.57,124.18 315.51,123.58C316.48,122.96 317.44,122.25 318.38,121.51C319.36,120.74 320.31,119.91 321.26,119.05C322.23,118.17 323.19,117.23 324.14,116.28C325.11,115.32 326.06,114.32 327.02,113.32C327.98,112.31 328.93,111.29 329.89,110.27C330.85,109.25 331.81,108.22 332.77,107.2C333.73,106.19 334.69,105.16 335.65,104.17C336.6,103.19 337.55,102.21 338.52,101.28C339.47,100.37 340.42,99.48 341.4,98.67C342.34,97.89 343.3,97.15 344.28,96.51C345.22,95.9 346.18,95.36 347.16,94.9C348.1,94.46 349.07,94.13 350.03,93.8C350.98,93.47 351.95,93.23 352.91,92.92C353.87,92.61 354.84,92.32 355.79,91.92C356.76,91.51 357.73,91.03 358.67,90.5C359.64,89.95 360.59,89.28 361.54,88.65C362.5,88.01 363.44,87.28 364.42,86.68C365.37,86.1 366.31,85.47 367.3,85.11C368.24,84.77 369.22,84.5 370.18,84.52C371.14,84.54 372.13,84.83 373.05,85.26C374.06,85.74 375.01,86.54 375.93,87.36C376.94,88.26 377.87,89.4 378.81,90.5C379.79,91.65 380.72,92.94 381.69,94.11C382.64,95.26 383.56,96.48 384.56,97.47C385.48,98.39 386.42,99.34 387.44,99.89C388.35,100.38 389.37,100.77 390.32,100.74C391.29,100.71 392.31,100.26 393.2,99.66C394.25,98.96 395.17,97.76 396.07,96.57C397.1,95.2 398.02,93.5 398.95,91.84C399.94,90.06 400.87,88.07 401.83,86.2C402.78,84.35 403.7,82.38 404.7,80.67C405.62,79.11 406.52,77.48 407.58,76.32C408.47,75.34 409.43,74.33 410.46,74C411.37,73.7 412.44,73.77 413.34,74.14C414.38,74.57 415.32,75.66 416.21,76.72C417.26,77.97 418.17,79.64 419.09,81.28C420.1,83.09 421.03,85.14 421.97,87.14C422.95,89.22 423.89,91.42 424.85,93.54C425.8,95.64 426.74,97.78 427.72,99.78C428.66,101.69 429.6,103.58 430.6,105.3C431.52,106.88 432.46,108.42 433.48,109.74C434.4,110.93 435.35,112.04 436.36,112.93C437.27,113.74 438.24,114.42 439.23,114.93C440.16,115.41 441.14,115.72 442.11,115.96C443.06,116.19 444.03,116.28 444.99,116.35C445.95,116.42 446.91,116.4 447.87,116.41C448.83,116.42 449.78,116.4 450.74,116.42C451.7,116.44 452.66,116.46 453.62,116.52C454.58,116.58 455.54,116.66 456.5,116.76C457.46,116.86 458.42,116.98 459.38,117.13C460.34,117.28 461.29,117.45 462.25,117.64C463.21,117.84 464.17,118.05 465.13,118.3C466.09,118.55 467.05,118.83 468.01,119.12C468.97,119.41 469.93,119.74 470.89,120.06C471.85,120.38 472.8,120.72 473.76,121.02C474.72,121.32 475.67,121.62 476.64,121.86C477.6,122.09 478.56,122.3 479.52,122.44C480.47,122.58 481.43,122.66 482.39,122.69C483.35,122.72 484.31,122.67 485.27,122.59C486.23,122.51 487.19,122.36 488.15,122.2C489.11,122.04 490.07,121.82 491.03,121.62C491.99,121.41 492.94,121.18 493.9,120.97C494.86,120.76 495.82,120.53 496.78,120.35C497.74,120.17 498.7,119.99 499.66,119.87C500.62,119.75 501.58,119.67 502.54,119.64C503.5,119.61 504.45,119.63 505.41,119.71C506.37,119.79 507.33,119.94 508.29,120.12C509.25,120.3 510.21,120.54 511.17,120.8C512.13,121.06 513.09,121.36 514.05,121.66C515.01,121.96 515.96,122.28 516.92,122.59C517.88,122.9 518.84,123.22 519.8,123.52C520.76,123.82 521.72,124.11 522.68,124.4C523.64,124.68 524.6,124.96 525.56,125.23C526.52,125.49 527.47,125.74 528.43,125.99C529.39,126.23 530.35,126.48 531.31,126.7C532.27,126.92 533.23,127.14 534.19,127.33C535.15,127.52 536.11,127.7 537.07,127.86C538.03,128.02 538.98,128.16 539.94,128.28C540.9,128.4 541.86,128.49 542.82,128.58C543.78,128.66 544.74,128.73 545.7,128.79C546.66,128.84 547.61,128.88 548.57,128.91Q549.53,128.94 551.45,128.98L551.45,129.03" style="vector-effect: none; stroke-width: 2px; stroke: rgb(62, 142, 64); stroke-opacity: 1; fill: rgb(78, 177, 79); fill-opacity: 0.5;"/><path class="meanline" d="M398.12,93.32107543945312V129.03" style="fill: none; vector-effect: none; stroke-width: 2px; stroke-dasharray: 4px, 2px; stroke: rgb(62, 142, 64); stroke-opacity: 1;"/></g><g class="trace violins" style="opacity: 1;"><path class="violin" d="M281.94,107.02L281.94,106.98Q283.76,106.95 284.67,106.93C285.58,106.91 286.49,106.88 287.4,106.85C288.31,106.81 289.22,106.78 290.13,106.72C291.04,106.66 291.95,106.59 292.86,106.51C293.77,106.42 294.68,106.32 295.59,106.21C296.5,106.1 297.4,105.97 298.31,105.83C299.22,105.69 300.13,105.52 301.04,105.35C301.95,105.18 302.86,104.99 303.77,104.8C304.68,104.61 305.59,104.4 306.5,104.21C307.41,104.02 308.32,103.83 309.23,103.64C310.14,103.46 311.05,103.27 311.96,103.1C312.87,102.93 313.78,102.78 314.69,102.62C315.6,102.46 316.5,102.31 317.41,102.14C318.32,101.97 319.23,101.8 320.14,101.59C321.05,101.38 321.96,101.14 322.87,100.87C323.78,100.6 324.7,100.29 325.6,99.96C326.52,99.62 327.42,99.24 328.33,98.85C329.24,98.46 330.16,98.04 331.06,97.6C331.97,97.15 332.88,96.7 333.78,96.19C334.7,95.67 335.62,95.15 336.51,94.53C337.44,93.89 338.36,93.2 339.24,92.41C340.18,91.57 341.09,90.63 341.97,89.59C342.92,88.47 343.82,87.21 344.7,85.88C345.65,84.45 346.54,82.88 347.43,81.28C348.36,79.59 349.25,77.79 350.15,76C351.07,74.17 351.96,72.27 352.88,70.43C353.78,68.62 354.67,66.78 355.61,65.06C356.5,63.43 357.39,61.82 358.34,60.38C359.21,59.06 360.1,57.78 361.07,56.74C361.93,55.81 362.84,54.95 363.8,54.35C364.67,53.81 365.59,53.41 366.52,53.2C367.41,53 368.34,53 369.25,53.07C370.16,53.14 371.07,53.39 371.98,53.6C372.89,53.81 373.8,54.12 374.71,54.33C375.62,54.54 376.53,54.75 377.44,54.84C378.35,54.93 379.26,54.95 380.17,54.87C381.08,54.79 381.99,54.59 382.89,54.36C383.81,54.13 384.71,53.78 385.62,53.48C386.53,53.18 387.43,52.82 388.35,52.57C389.25,52.32 390.16,52.09 391.08,51.99C391.99,51.89 392.91,51.87 393.81,51.98C394.73,52.09 395.65,52.35 396.54,52.68C397.47,53.03 398.37,53.51 399.26,54.05C400.19,54.61 401.1,55.3 401.99,56.01C402.92,56.75 403.82,57.58 404.72,58.43C405.65,59.31 406.55,60.25 407.45,61.21C408.37,62.2 409.28,63.24 410.18,64.31C411.1,65.41 412.01,66.55 412.91,67.71C413.83,68.9 414.73,70.13 415.63,71.37C416.55,72.63 417.45,73.93 418.36,75.23C419.27,76.54 420.18,77.88 421.09,79.19C422,80.5 422.9,81.82 423.82,83.1C424.72,84.36 425.63,85.61 426.55,86.8C427.45,87.96 428.35,89.09 429.28,90.16C430.17,91.19 431.08,92.17 432,93.1C432.89,94 433.81,94.85 434.73,95.65C435.63,96.43 436.54,97.16 437.46,97.86C438.36,98.54 439.27,99.19 440.19,99.81C441.09,100.41 442,100.98 442.92,101.52C443.82,102.05 444.73,102.55 445.65,103C446.55,103.44 447.45,103.86 448.37,104.22C449.27,104.58 450.18,104.9 451.1,105.16C452,105.42 452.92,105.62 453.83,105.78C454.74,105.94 455.65,106.05 456.56,106.12C457.47,106.19 458.38,106.21 459.29,106.2C460.2,106.19 461.11,106.13 462.02,106.05C462.93,105.97 463.83,105.85 464.74,105.73C465.65,105.6 466.56,105.45 467.47,105.3C468.38,105.15 469.29,104.99 470.2,104.84C471.11,104.69 472.02,104.54 472.93,104.42C473.84,104.3 474.75,104.2 475.66,104.1C476.57,104 477.48,103.94 478.39,103.84C479.3,103.74 480.21,103.67 481.12,103.51C482.03,103.35 482.94,103.17 483.84,102.89C484.76,102.6 485.68,102.24 486.57,101.77C487.5,101.28 488.42,100.66 489.3,99.98C490.24,99.25 491.14,98.39 492.03,97.5C492.96,96.57 493.86,95.53 494.76,94.51C495.68,93.47 496.58,92.35 497.49,91.3C498.39,90.26 499.28,89.19 500.21,88.23C501.1,87.31 502,86.4 502.94,85.65C503.82,84.94 504.73,84.29 505.67,83.81C506.55,83.36 507.48,83.02 508.4,82.82C509.3,82.63 510.22,82.59 511.13,82.63C512.04,82.67 512.96,82.85 513.86,83.05C514.77,83.25 515.68,83.55 516.58,83.85C517.49,84.15 518.4,84.49 519.31,84.84C520.22,85.19 521.14,85.56 522.04,85.96C522.96,86.37 523.87,86.8 524.77,87.28C525.69,87.78 526.6,88.32 527.5,88.91C528.42,89.52 529.33,90.2 530.23,90.91C531.15,91.64 532.05,92.43 532.95,93.22C533.87,94.02 534.77,94.87 535.68,95.69C536.59,96.5 537.49,97.34 538.41,98.11C539.31,98.87 540.22,99.61 541.14,100.29C542.04,100.95 542.95,101.57 543.87,102.12C544.77,102.66 545.68,103.14 546.6,103.57C547.5,103.98 548.4,104.34 549.32,104.65C550.22,104.96 551.14,105.21 552.05,105.43C552.96,105.65 553.87,105.82 554.78,105.97C555.69,106.12 556.6,106.23 557.51,106.34C558.42,106.44 559.33,106.53 560.24,106.6C561.15,106.67 562.06,106.71 562.97,106.76C563.88,106.8 564.78,106.84 565.69,106.87C566.6,106.9 567.51,106.92 568.42,106.94Q569.33,106.96 571.15,106.98L571.15,107.02" style="vector-effect: none; stroke-width: 2px; stroke: rgb(52, 152, 124); stroke-opacity: 1; fill: rgb(65, 190, 155); fill-opacity: 0.5;"/><path class="meanline" d="M408.72,62.61434555053711V107.02" style="fill: none; vector-effect: none; stroke-width: 2px; stroke-dasharray: 4px, 2px; stroke: rgb(52, 152, 124); stroke-opacity: 1;"/></g><g class="trace violins" style="opacity: 1;"><path class="violin" d="M363.7,85L363.7,84.64Q367,84.42 368.64,84.23C370.29,84.04 371.93,83.82 373.57,83.49C375.22,83.16 376.87,82.77 378.5,82.26C380.16,81.74 381.82,81.11 383.44,80.36C385.11,79.58 386.76,78.67 388.37,77.64C390.05,76.57 391.69,75.33 393.3,74.02C394.98,72.65 396.61,71.13 398.23,69.56C399.9,67.94 401.54,66.18 403.17,64.43C404.83,62.65 406.46,60.78 408.1,58.94C409.75,57.1 411.38,55.22 413.03,53.39C414.67,51.57 416.3,49.76 417.96,47.99C419.59,46.25 421.24,44.52 422.9,42.86C424.53,41.23 426.16,39.6 427.83,38.1C429.45,36.65 431.07,35.18 432.76,33.98C434.36,32.85 435.99,31.73 437.69,31.06C439.29,30.43 440.99,29.96 442.63,29.97C444.28,29.98 445.98,30.42 447.56,31.11C449.27,31.85 450.9,33.13 452.49,34.42C454.2,35.82 455.8,37.57 457.42,39.27C459.1,41.03 460.71,42.97 462.36,44.81C464,46.64 465.63,48.52 467.29,50.29C468.91,52.01 470.55,53.7 472.22,55.29C473.84,56.84 475.48,58.32 477.15,59.72C478.77,61.08 480.42,62.38 482.09,63.57C483.71,64.73 485.34,65.84 487.02,66.78C488.63,67.68 490.28,68.53 491.95,69.13C493.56,69.71 495.22,70.16 496.88,70.37C498.51,70.57 500.19,70.56 501.82,70.37C503.48,70.18 505.13,69.73 506.75,69.2C508.42,68.66 510.05,67.89 511.68,67.13C513.34,66.35 514.97,65.43 516.61,64.57C518.26,63.7 519.9,62.78 521.55,61.94C523.19,61.11 524.82,60.27 526.48,59.56C528.11,58.86 529.75,58.21 531.41,57.69C533.04,57.18 534.69,56.75 536.34,56.47C537.98,56.19 539.63,56.02 541.28,55.99C542.92,55.96 544.57,56.06 546.21,56.26C547.86,56.46 549.5,56.81 551.14,57.18C552.79,57.55 554.43,58.04 556.07,58.47C557.72,58.9 559.36,59.39 561.01,59.75C562.65,60.11 564.29,60.44 565.94,60.62C567.58,60.8 569.23,60.88 570.87,60.84C572.51,60.8 574.16,60.61 575.8,60.39C577.45,60.17 579.09,59.81 580.74,59.52C582.38,59.23 584.02,58.86 585.67,58.63C587.31,58.41 588.96,58.19 590.6,58.17C592.24,58.15 593.9,58.24 595.53,58.52C597.19,58.8 598.85,59.27 600.47,59.88C602.14,60.5 603.78,61.34 605.4,62.24C607.07,63.17 608.7,64.28 610.33,65.38C611.99,66.51 613.62,67.75 615.26,68.94C616.91,70.14 618.54,71.39 620.2,72.56C621.83,73.71 623.47,74.86 625.13,75.9C626.76,76.92 628.4,77.89 630.06,78.74C631.68,79.57 633.33,80.32 634.99,80.96C636.62,81.59 638.27,82.12 639.93,82.57C641.56,83.01 643.21,83.35 644.86,83.64C646.5,83.93 648.14,84.13 649.79,84.3Q651.43,84.47 654.72,84.67L654.72,85" style="vector-effect: none; stroke-width: 2px; stroke: rgb(70, 29, 175); stroke-opacity: 1; fill: rgb(88, 36, 219); fill-opacity: 0.5;"/><path class="meanline" d="M496.54,70.32354736328125V85" style="fill: none; vector-effect: none; stroke-width: 2px; stroke-dasharray: 4px, 2px; stroke: rgb(70, 29, 175); stroke-opacity: 1;"/></g><g class="trace violins" style="opacity: 1;"><path class="violin" d="M452.7,62.99L452.7,62.88Q454.83,62.82 455.9,62.77C456.97,62.72 458.03,62.66 459.1,62.58C460.17,62.5 461.23,62.41 462.3,62.3C463.37,62.19 464.43,62.06 465.5,61.93C466.57,61.8 467.63,61.66 468.7,61.52C469.77,61.39 470.83,61.24 471.9,61.12C472.97,61 474.03,60.88 475.1,60.8C476.17,60.72 477.24,60.65 478.31,60.62C479.38,60.59 480.44,60.58 481.51,60.59C482.58,60.6 483.64,60.64 484.71,60.69C485.78,60.74 486.84,60.82 487.91,60.9C488.98,60.98 490.04,61.08 491.11,61.17C492.18,61.26 493.24,61.37 494.31,61.46C495.38,61.55 496.44,61.64 497.51,61.72C498.58,61.8 499.64,61.86 500.71,61.92C501.78,61.97 502.84,62.03 503.91,62.05C504.98,62.07 506.05,62.08 507.12,62.06C508.19,62.04 509.25,62 510.32,61.93C511.39,61.85 512.46,61.75 513.52,61.61C514.59,61.47 515.66,61.29 516.72,61.07C517.79,60.84 518.86,60.58 519.92,60.26C520.99,59.94 522.06,59.57 523.12,59.16C524.19,58.75 525.26,58.28 526.32,57.81C527.39,57.33 528.45,56.81 529.52,56.31C530.59,55.81 531.65,55.28 532.72,54.81C533.78,54.34 534.84,53.88 535.92,53.49C536.98,53.11 538.05,52.77 539.13,52.5C540.19,52.24 541.26,52.04 542.33,51.9C543.39,51.76 544.46,51.69 545.53,51.66C546.6,51.63 547.66,51.66 548.73,51.71C549.8,51.76 550.86,51.85 551.93,51.95C553,52.05 554.06,52.18 555.13,52.3C556.2,52.42 557.26,52.56 558.33,52.68C559.4,52.8 560.46,52.93 561.53,53.04C562.6,53.15 563.66,53.25 564.73,53.32C565.8,53.4 566.87,53.46 567.94,53.49C569.01,53.52 570.07,53.52 571.14,53.5C572.21,53.48 573.27,53.44 574.34,53.35C575.41,53.26 576.48,53.16 577.54,52.97C578.61,52.78 579.69,52.57 580.74,52.23C581.82,51.88 582.9,51.46 583.94,50.91C585.03,50.33 586.11,49.63 587.14,48.82C588.24,47.96 589.3,46.94 590.34,45.86C591.44,44.71 592.49,43.42 593.54,42.11C594.63,40.75 595.69,39.29 596.75,37.86C597.82,36.42 598.87,34.92 599.95,33.51C601,32.13 602.06,30.75 603.15,29.49C604.19,28.29 605.25,27.13 606.35,26.12C607.38,25.18 608.45,24.3 609.55,23.61C610.58,22.96 611.66,22.41 612.75,22.05C613.79,21.7 614.88,21.5 615.95,21.45C617.01,21.4 618.1,21.54 619.15,21.77C620.23,22.01 621.3,22.42 622.35,22.88C623.44,23.36 624.5,24 625.55,24.63C626.63,25.28 627.69,26.03 628.76,26.74C629.83,27.46 630.88,28.23 631.96,28.93C633.02,29.62 634.08,30.32 635.16,30.9C636.21,31.46 637.27,32 638.36,32.38C639.41,32.74 640.49,33.04 641.56,33.14C642.62,33.24 643.71,33.21 644.76,32.99C645.85,32.76 646.93,32.32 647.96,31.74C649.07,31.11 650.14,30.23 651.16,29.27C652.28,28.22 653.33,26.94 654.36,25.63C655.47,24.23 656.51,22.65 657.57,21.11C658.65,19.54 659.68,17.86 660.77,16.32C661.82,14.84 662.84,13.29 663.97,12.04C664.99,10.91 666.03,9.77 667.17,9.08C668.18,8.47 669.3,8 670.37,7.95C671.43,7.9 672.55,8.26 673.57,8.74C674.69,9.27 675.74,10.21 676.77,11.13C677.88,12.13 678.92,13.37 679.97,14.57C681.06,15.81 682.1,17.16 683.17,18.46C684.24,19.76 685.3,21.1 686.38,22.38C687.44,23.64 688.5,24.88 689.58,26.08C690.64,27.25 691.7,28.39 692.78,29.5C693.84,30.59 694.91,31.65 695.98,32.7C697.04,33.74 698.11,34.75 699.18,35.75C700.24,36.74 701.31,37.73 702.38,38.69C703.44,39.64 704.5,40.57 705.58,41.47C706.64,42.35 707.7,43.21 708.78,44.02C709.84,44.82 710.9,45.58 711.98,46.3C713.04,47.01 714.11,47.66 715.18,48.3C716.24,48.93 717.32,49.52 718.39,50.11C719.45,50.7 720.52,51.26 721.59,51.83C722.66,52.4 723.72,52.95 724.79,53.51C725.86,54.07 726.92,54.63 727.99,55.18C729.05,55.73 730.12,56.27 731.19,56.79C732.25,57.3 733.32,57.81 734.39,58.27C735.45,58.73 736.52,59.16 737.59,59.56C738.65,59.95 739.72,60.31 740.79,60.63C741.85,60.94 742.92,61.21 743.99,61.45C745.06,61.69 746.13,61.88 747.2,62.05C748.27,62.22 749.33,62.35 750.4,62.46C751.47,62.57 752.53,62.64 753.6,62.71C754.67,62.77 755.73,62.81 756.8,62.85Q757.87,62.89 760,62.93L760,62.99" style="vector-effect: none; stroke-width: 2px; stroke: rgb(132, 72, 129); stroke-opacity: 1; fill: rgb(164, 91, 161); fill-opacity: 0.5;"/><path class="meanline" d="M640.74,33.026668548583984V62.99" style="fill: none; vector-effect: none; stroke-width: 2px; stroke-dasharray: 4px, 2px; stroke: rgb(132, 72, 129); stroke-opacity: 1;"/></g></g></g><g class="overplot"/><path class="xlines-above crisp" d="M0,0" style="fill: none;"/><path class="ylines-above crisp" d="M0,0" style="fill: none;"/><g class="overlines-above"/><g class="xaxislayer-above"><g class="xtick"><text text-anchor="middle" x="0" y="172" transform="translate(58.68,0)" style="font-family: 'Open Sans', verdana, arial, sans-serif; font-size: 12px; fill: rgb(242, 245, 250); fill-opacity: 1; white-space: pre; opacity: 1;">0</text></g><g class="xtick"><text text-anchor="middle" x="0" y="172" style="font-family: 'Open Sans', verdana, arial, sans-serif; font-size: 12px; fill: rgb(242, 245, 250); fill-opacity: 1; white-space: pre; opacity: 1;" transform="translate(141.35,0)">20</text></g><g class="xtick"><text text-anchor="middle" x="0" y="172" style="font-family: 'Open Sans', verdana, arial, sans-serif; font-size: 12px; fill: rgb(242, 245, 250); fill-opacity: 1; white-space: pre; opacity: 1;" transform="translate(224.01,0)">40</text></g><g class="xtick"><text text-anchor="middle" x="0" y="172" style="font-family: 'Open Sans', verdana, arial, sans-serif; font-size: 12px; fill: rgb(242, 245, 250); fill-opacity: 1; white-space: pre; opacity: 1;" transform="translate(306.68,0)">60</text></g><g class="xtick"><text text-anchor="middle" x="0" y="172" style="font-family: 'Open Sans', verdana, arial, sans-serif; font-size: 12px; fill: rgb(242, 245, 250); fill-opacity: 1; white-space: pre; opacity: 1;" transform="translate(389.35,0)">80</text></g><g class="xtick"><text text-anchor="middle" x="0" y="172" style="font-family: 'Open Sans', verdana, arial, sans-serif; font-size: 12px; fill: rgb(242, 245, 250); fill-opacity: 1; white-space: pre; opacity: 1;" transform="translate(472.01,0)">100</text></g><g class="xtick"><text text-anchor="middle" x="0" y="172" style="font-family: 'Open Sans', verdana, arial, sans-serif; font-size: 12px; fill: rgb(242, 245, 250); fill-opacity: 1; white-space: pre; opacity: 1;" transform="translate(554.68,0)">120</text></g><g class="xtick"><text text-anchor="middle" x="0" y="172" style="font-family: 'Open Sans', verdana, arial, sans-serif; font-size: 12px; fill: rgb(242, 245, 250); fill-opacity: 1; white-space: pre; opacity: 1;" transform="translate(637.35,0)">140</text></g><g class="xtick"><text text-anchor="middle" x="0" y="172" style="font-family: 'Open Sans', verdana, arial, sans-serif; font-size: 12px; fill: rgb(242, 245, 250); fill-opacity: 1; white-space: pre; opacity: 1;" transform="translate(720.02,0)">160</text></g></g><g class="yaxislayer-above"/><g class="overaxes-above"/></g></g><g class="polarlayer"/><g class="smithlayer"/><g class="ternarylayer"/><g class="geolayer"/><g class="funnelarealayer"/><g class="pielayer"/><g class="iciclelayer"/><g class="treemaplayer"/><g class="sunburstlayer"/><g class="glimages"/><defs id="topdefs-37a970"><g class="clips"/></defs><g class="layer-above"><g class="imagelayer"/><g class="shapelayer"/></g><g class="infolayer"><g class="g-gtitle"/><g class="g-xtitle" transform="translate(0,-2.3000000000000114)"><text class="xtitle" x="400" y="199.3" text-anchor="middle" style="font-family: 'Open Sans', verdana, arial, sans-serif; font-size: 14px; fill: rgb(242, 245, 250); opacity: 1; white-space: pre;">Max Energy</text></g><g class="g-ytitle"/></g></svg>