<svg class="main-svg" xmlns="http://www.w3.org/2000/svg" xmlns:xlink="http://www.w3.org/1999/xlink" width="800" height="200" style="" viewBox="0 0 800 200"><rect x="0" y="0" width="800" height="200" style="fill: rgb(0, 0, 0); fill-opacity: 0;"/><defs id="defs-b68186"><g class="clips"><clipPath id="clipb68186xyplot" class="plotclip"><rect width="800" height="159"/></clipPath><clipPath class="axesclip" id="clipb68186x"><rect x="0" y="0" width="800" height="200"/></clipPath><clipPath class="axesclip" id="clipb68186y"><rect x="0" y="0" width="800" height="159"/></clipPath><clipPath class="axesclip" id="clipb68186xy"><rect x="0" y="0" width="800" height="159"/></clipPath></g><g class="gradients"/><g class="patterns"/></defs><g class="bglayer"><rect class="bg" x="0" y="0" width="800" height="159" style="fill: rgb(0, 0, 0); fill-opacity: 0; stroke-width: 0;"/></g><g class="layer-below"><g class="imagelayer"/><g class="shapelayer"/></g><g class="cartesianlayer"><g class="subplot xy"><g class="layer-subplot"><g class="shapelayer"/><g class="imagelayer"/></g><g class="minor-gridlayer"><g class="x"/><g class="y"/></g><g class="gridlayer"><g class="x"><path class="xgrid crisp" transform="translate(201.84,0)" d="M0,0v159" style="stroke: rgb(40, 52, 66); stroke-opacity: 1; stroke-width: 1px;"/><path class="xgrid crisp" transform="translate(340.81,0)" d="M0,0v159" style="stroke: rgb(40, 52, 66); stroke-opacity: 1; stroke-width: 1px;"/><path class="xgrid crisp" transform="translate(479.78,0)" d="M0,0v159" style="stroke: rgb(40, 52, 66); stroke-opacity: 1; stroke-width: 1px;"/><path class="xgrid crisp" transform="translate(618.74,0)" d="M0,0v159" style="stroke: rgb(40, 52, 66); stroke-opacity: 1; stroke-width: 1px;"/><path class="xgrid crisp" transform="translate(757.71,0)" d="M0,0v159" style="stroke: rgb(40, 52, 66); stroke-opacity: 1; stroke-width: 1px;"/></g><g class="y"/></g><g class="zerolinelayer"><path class="xzl zl crisp" transform="translate(62.87,0)" d="M0,0v159" style="stroke: rgb(40, 52, 66); stroke-opacity: 1; stroke-width: 2px;"/></g><g class="layer-between"><g class="shapelayer"/><g class="imagelayer"/></g><path class="xlines-below"/><path class="ylines-below"/><g class="overlines-below"/><g class="xaxislayer-below"/><g class="yaxislayer-below"/><g class="overaxes-below"/><g class="plot" transform="" clip-path="url(#clipb68186xyplot)"><g class="violinlayer mlayer"><g class="trace violins" style="opacity: 1;"><path class="violin" d="M40,151.05L40,150.52Q42.85,150.21 44.26,149.95C45.69,149.69 47.11,149.36 48.52,148.94C49.95,148.51 51.37,148 52.77,147.4C54.21,146.78 55.63,146.04 57.03,145.26C58.47,144.46 59.88,143.54 61.29,142.62C62.72,141.69 64.13,140.67 65.55,139.69C66.97,138.72 68.38,137.71 69.81,136.77C71.22,135.84 72.64,134.94 74.07,134.09C75.48,133.25 76.89,132.46 78.32,131.7C79.73,130.94 81.16,130.24 82.58,129.52C84,128.8 85.42,128.1 86.84,127.36C88.26,126.62 89.68,125.86 91.1,125.09C92.52,124.31 93.94,123.49 95.36,122.72C96.78,121.95 98.19,121.16 99.62,120.47C101.02,119.79 102.44,119.14 103.87,118.62C105.27,118.11 106.7,117.68 108.13,117.37C109.54,117.06 110.97,116.88 112.39,116.75C113.81,116.62 115.23,116.61 116.65,116.6C118.07,116.59 119.49,116.64 120.91,116.69C122.33,116.74 123.75,116.81 125.17,116.92C126.59,117.03 128.01,117.13 129.42,117.33C130.84,117.54 132.27,117.78 133.68,118.15C135.11,118.52 136.53,119.01 137.94,119.55C139.37,120.1 140.78,120.79 142.2,121.43C143.62,122.07 145.02,122.84 146.46,123.4C147.86,123.95 149.28,124.53 150.72,124.78C152.12,125.02 153.58,125.14 154.97,124.91C156.41,124.67 157.87,124.08 159.23,123.3C160.72,122.45 162.13,121.19 163.49,119.86C164.98,118.41 166.36,116.62 167.75,114.86C169.21,113 170.59,110.93 172.01,108.97C173.43,107.02 174.8,104.92 176.27,103.12C177.64,101.44 179,99.68 180.52,98.46C181.86,97.38 183.31,96.34 184.78,96.01C186.15,95.7 187.69,95.86 189.04,96.36C190.54,96.91 191.95,98.17 193.3,99.41C194.81,100.79 196.17,102.64 197.56,104.39C199.02,106.23 200.4,108.29 201.82,110.23C203.24,112.16 204.63,114.15 206.07,116.01C207.47,117.81 208.88,119.55 210.33,121.21C211.72,122.81 213.15,124.31 214.59,125.78C215.99,127.21 217.42,128.57 218.85,129.91C220.26,131.23 221.68,132.52 223.11,133.78C224.52,135.02 225.93,136.26 227.37,137.42C228.77,138.55 230.17,139.69 231.62,140.67C233.01,141.62 234.43,142.54 235.88,143.24C237.27,143.91 238.7,144.49 240.14,144.83C241.54,145.16 242.98,145.32 244.4,145.28C245.82,145.24 247.26,144.97 248.66,144.61C250.1,144.24 251.51,143.63 252.92,143.04C254.35,142.44 255.75,141.68 257.17,141.02C258.59,140.36 259.99,139.62 261.43,139.08C262.83,138.55 264.25,138.05 265.69,137.8C267.1,137.56 268.54,137.47 269.95,137.59C271.38,137.71 272.81,138.08 274.21,138.55C275.66,139.03 277.07,139.76 278.47,140.48C279.91,141.22 281.3,142.11 282.72,142.93C284.14,143.75 285.55,144.63 286.98,145.4C288.39,146.15 289.8,146.89 291.24,147.5C292.64,148.1 294.07,148.61 295.5,149.03Q296.91,149.44 299.76,150.02L299.76,151.05" style="vector-effect: none; stroke-width: 2px; stroke: rgb(160, 156, 44); stroke-opacity: 1; fill: rgb(200, 195, 55); fill-opacity: 0.5;"/><path class="meanline" d="M162.2,121.07474517822266V151.05" style="fill: none; vector-effect: none; stroke-width: 2px; stroke-dasharray: 4px, 2px; stroke: rgb(160, 156, 44); stroke-opacity: 1;"/></g><g class="trace violins" style="opacity: 1;"><path class="violin" d="M178.55,129.03L178.55,129Q179.9,128.98 180.58,128.96C181.25,128.95 181.93,128.93 182.6,128.91C183.28,128.89 183.95,128.86 184.63,128.83C185.31,128.8 185.98,128.77 186.66,128.74C187.34,128.71 188.01,128.68 188.69,128.65C189.37,128.63 190.04,128.61 190.72,128.59C191.4,128.58 192.07,128.56 192.75,128.56C193.42,128.56 194.1,128.57 194.77,128.58C195.45,128.59 196.12,128.62 196.8,128.64C197.48,128.67 198.15,128.7 198.83,128.73C199.51,128.76 200.18,128.79 200.86,128.82C201.54,128.85 202.21,128.88 202.89,128.9C203.57,128.92 204.24,128.94 204.92,128.96C205.6,128.97 206.27,128.98 206.95,128.99C207.62,129 208.3,129.01 208.97,129.02C209.65,129.03 210.32,129.03 211,129.03C211.68,129.03 212.35,129.03 213.03,129.03C213.71,129.03 214.38,129.03 215.06,129.03C215.74,129.03 216.41,129.03 217.09,129.03C217.77,129.03 218.44,129.03 219.12,129.03C219.79,129.03 220.47,129.03 221.14,129.03C221.82,129.03 222.49,129.03 223.17,129.03C223.85,129.03 224.52,129.03 225.2,129.03C225.88,129.03 226.55,129.03 227.23,129.03C227.91,129.03 228.58,129.03 229.26,129.03C229.94,129.03 230.61,129.03 231.29,129.03C231.96,129.03 232.64,129.03 233.31,129.03C233.99,129.03 234.66,129.03 235.34,129.03C236.02,129.03 236.69,129.03 237.37,129.03C238.05,129.03 238.72,129.02 239.4,129.02C240.08,129.01 240.75,129.01 241.43,129C242.11,128.99 242.78,128.98 243.46,128.96C244.13,128.94 244.81,128.91 245.48,128.87C246.16,128.83 246.83,128.78 247.51,128.71C248.19,128.64 248.87,128.55 249.54,128.44C250.22,128.33 250.9,128.2 251.57,128.04C252.25,127.88 252.93,127.69 253.6,127.48C254.28,127.27 254.96,127.03 255.63,126.77C256.31,126.51 256.98,126.22 257.65,125.93C258.33,125.64 259,125.32 259.68,125.02C260.36,124.72 261.03,124.41 261.71,124.13C262.38,123.85 263.06,123.57 263.74,123.32C264.41,123.07 265.09,122.84 265.77,122.64C266.44,122.44 267.12,122.27 267.8,122.13C268.47,121.99 269.14,121.88 269.82,121.78C270.49,121.68 271.17,121.63 271.85,121.55C272.53,121.48 273.21,121.43 273.88,121.33C274.56,121.23 275.24,121.14 275.91,120.95C276.6,120.76 277.29,120.52 277.94,120.17C278.64,119.79 279.33,119.29 279.97,118.7C280.69,118.04 281.35,117.22 281.99,116.33C282.71,115.33 283.37,114.17 284.02,112.96C284.73,111.64 285.39,110.17 286.05,108.7C286.74,107.15 287.41,105.5 288.08,103.89C288.76,102.27 289.42,100.6 290.11,99.02C290.77,97.5 291.44,95.98 292.14,94.58C292.79,93.28 293.46,92.03 294.17,90.9C294.82,89.87 295.49,88.92 296.19,88.04C296.84,87.22 297.53,86.51 298.22,85.79C298.89,85.09 299.58,84.46 300.25,83.77C300.93,83.07 301.61,82.36 302.28,81.62C302.97,80.86 303.63,80.04 304.31,79.24C304.99,78.44 305.64,77.57 306.34,76.82C307,76.12 307.64,75.35 308.36,74.87C309,74.45 309.71,74.02 310.39,74C311.06,73.98 311.8,74.29 312.42,74.73C313.18,75.27 313.82,76.28 314.45,77.27C315.2,78.46 315.83,79.97 316.48,81.47C317.19,83.13 317.85,84.99 318.51,86.82C319.2,88.71 319.85,90.72 320.53,92.64C321.2,94.52 321.86,96.45 322.56,98.23C323.22,99.9 323.88,101.55 324.59,103.04C325.24,104.39 325.9,105.69 326.62,106.83C327.26,107.85 327.94,108.78 328.65,109.61C329.3,110.37 329.99,111.02 330.68,111.65C331.34,112.26 332.02,112.78 332.7,113.34C333.37,113.89 334.06,114.42 334.73,114.98C335.41,115.55 336.09,116.14 336.76,116.74C337.44,117.34 338.11,117.98 338.79,118.59C339.46,119.2 340.13,119.82 340.82,120.39C341.49,120.94 342.16,121.49 342.85,121.96C343.51,122.42 344.18,122.84 344.87,123.19C345.53,123.53 346.21,123.81 346.9,124.03C347.57,124.25 348.25,124.4 348.93,124.52C349.6,124.63 350.28,124.69 350.96,124.72C351.64,124.75 352.31,124.73 352.99,124.7C353.67,124.67 354.35,124.59 355.02,124.51C355.7,124.43 356.37,124.32 357.04,124.21C357.72,124.1 358.39,123.98 359.07,123.86C359.75,123.74 360.42,123.61 361.1,123.49C361.78,123.37 362.45,123.26 363.13,123.14C363.81,123.02 364.48,122.92 365.16,122.79C365.84,122.66 366.52,122.53 367.19,122.36C367.87,122.19 368.55,121.99 369.22,121.76C369.9,121.52 370.57,121.25 371.24,120.95C371.92,120.64 372.6,120.27 373.27,119.91C373.95,119.54 374.62,119.13 375.3,118.76C375.97,118.39 376.65,117.99 377.33,117.67C378,117.35 378.67,117.04 379.36,116.83C380.03,116.62 380.71,116.47 381.39,116.41C382.06,116.35 382.74,116.38 383.41,116.44C384.09,116.5 384.77,116.66 385.44,116.8C386.12,116.95 386.79,117.16 387.47,117.31C388.14,117.46 388.82,117.61 389.5,117.7C390.17,117.79 390.85,117.83 391.53,117.83C392.21,117.83 392.89,117.76 393.56,117.7C394.24,117.64 394.9,117.51 395.58,117.45C396.25,117.39 396.93,117.33 397.61,117.36C398.29,117.39 398.97,117.47 399.64,117.64C400.33,117.81 401.01,118.08 401.67,118.4C402.36,118.73 403.03,119.17 403.7,119.6C404.39,120.04 405.06,120.55 405.73,121.03C406.41,121.51 407.07,122.03 407.75,122.5C408.42,122.96 409.1,123.41 409.78,123.83C410.45,124.24 411.13,124.62 411.81,124.97C412.48,125.31 413.16,125.61 413.84,125.9C414.51,126.18 415.19,126.44 415.87,126.68C416.54,126.92 417.22,127.13 417.9,127.33C418.57,127.53 419.24,127.7 419.92,127.86C420.59,128.02 421.27,128.15 421.95,128.27C422.63,128.39 423.3,128.49 423.98,128.57C424.66,128.65 425.33,128.71 426.01,128.76C426.69,128.81 427.36,128.84 428.04,128.86C428.72,128.88 429.39,128.89 430.07,128.88C430.74,128.87 431.42,128.85 432.09,128.82C432.77,128.79 433.44,128.74 434.12,128.69C434.8,128.63 435.47,128.57 436.15,128.49C436.83,128.41 437.5,128.32 438.18,128.23C438.86,128.14 439.53,128.05 440.21,127.97C440.89,127.89 441.56,127.82 442.24,127.76C442.92,127.7 443.59,127.65 444.27,127.63C444.94,127.61 445.62,127.62 446.29,127.64C446.97,127.66 447.64,127.71 448.32,127.76C449,127.82 449.67,127.89 450.35,127.97C451.03,128.05 451.7,128.14 452.38,128.22C453.06,128.3 453.73,128.39 454.41,128.46C455.09,128.53 455.76,128.6 456.44,128.65C457.11,128.7 457.79,128.74 458.46,128.77C459.14,128.8 459.81,128.81 460.49,128.81C461.17,128.81 461.84,128.8 462.52,128.77C463.2,128.74 463.87,128.69 464.55,128.64C465.23,128.58 465.9,128.52 466.58,128.44C467.26,128.36 467.93,128.26 468.61,128.16C469.28,128.06 469.96,127.95 470.63,127.84C471.31,127.73 471.98,127.62 472.66,127.51C473.34,127.4 474.01,127.29 474.69,127.2C475.37,127.11 476.04,127.03 476.72,126.97C477.4,126.91 478.07,126.85 478.75,126.83C479.43,126.81 480.1,126.8 480.78,126.82C481.45,126.84 482.13,126.88 482.8,126.93C483.48,126.99 484.15,127.06 484.83,127.15C485.51,127.24 486.18,127.35 486.86,127.46C487.54,127.57 488.21,127.69 488.89,127.81C489.57,127.92 490.24,128.04 490.92,128.15C491.6,128.26 492.27,128.36 492.95,128.45C493.62,128.54 494.3,128.62 494.97,128.68C495.65,128.74 496.32,128.79 497,128.83C497.68,128.87 498.35,128.9 499.03,128.93C499.71,128.96 500.38,128.98 501.06,128.99C501.74,129 502.41,129 503.09,129.01C503.77,129.02 504.44,129.03 505.12,129.03C505.79,129.03 506.47,129.03 507.14,129.03C507.82,129.03 508.49,129.03 509.17,129.03C509.85,129.03 510.52,129.03 511.2,129.03C511.88,129.03 512.55,129.03 513.23,129.03C513.91,129.03 514.58,129.03 515.26,129.03C515.94,129.03 516.61,129.03 517.29,129.03C517.97,129.03 518.64,129.03 519.32,129.03C519.99,129.03 520.67,129.03 521.34,129.03C522.02,129.03 522.69,129.03 523.37,129.03C524.05,129.03 524.72,129.03 525.4,129.03C526.08,129.03 526.75,129.03 527.43,129.03C528.11,129.03 528.78,129.03 529.46,129.03C530.14,129.03 530.81,129.03 531.49,129.03C532.16,129.03 532.84,129.03 533.51,129.03C534.19,129.03 534.86,129.03 535.54,129.03C536.22,129.03 536.89,129.03 537.57,129.03C538.25,129.03 538.92,129.03 539.6,129.03C540.28,129.03 540.95,129.03 541.63,129.03C542.31,129.03 542.98,129.03 543.66,129.03C544.33,129.03 545.01,129.03 545.68,129.03C546.36,129.03 547.03,129.03 547.71,129.03C548.39,129.03 549.06,129.03 549.74,129.03C550.42,129.03 551.09,129.03 551.77,129.03C552.45,129.03 553.12,129.03 553.8,129.03C554.48,129.03 555.15,129.03 555.83,129.03C556.5,129.03 557.18,129.03 557.85,129.03C558.53,129.03 559.2,129.03 559.88,129.03C560.56,129.03 561.23,129.03 561.91,129.03C562.59,129.03 563.26,129.03 563.94,129.03C564.62,129.03 565.29,129.03 565.97,129.03C566.65,129.03 567.32,129.03 568,129.03C568.67,129.03 569.35,129.03 570.02,129.03C570.7,129.03 571.37,129.03 572.05,129.03C572.73,129.03 573.4,129.03 574.08,129.03C574.76,129.03 575.43,129.03 576.11,129.03C576.79,129.03 577.46,129.03 578.14,129.03C578.82,129.03 579.49,129.03 580.17,129.03C580.84,129.03 581.52,129.03 582.19,129.03C582.87,129.03 583.54,129.03 584.22,129.03C584.9,129.03 585.57,129.03 586.25,129.03C586.93,129.03 587.6,129.03 588.28,129.03C588.96,129.03 589.63,129.03 590.31,129.03C590.99,129.03 591.66,129.03 592.34,129.03C593.02,129.03 593.69,129.03 594.37,129.03C595.04,129.03 595.72,129.03 596.39,129.03C597.07,129.03 597.74,129.03 598.42,129.03C599.1,129.03 599.77,129.03 600.45,129.03C601.13,129.03 601.8,129.03 602.48,129.03C603.16,129.03 603.83,129.03 604.51,129.03C605.19,129.03 605.86,129.03 606.54,129.03C607.21,129.03 607.89,129.03 608.56,129.03C609.24,129.03 609.91,129.03 610.59,129.03C611.27,129.03 611.94,129.03 612.62,129.03C613.3,129.03 613.97,129.03 614.65,129.03C615.33,129.03 616,129.03 616.68,129.03C617.36,129.03 618.03,129.03 618.71,129.03C619.38,129.03 620.06,129.03 620.73,129.03C621.41,129.03 622.08,129.03 622.76,129.03C623.44,129.03 624.11,129.03 624.79,129.03C625.47,129.03 626.14,129.03 626.82,129.03C627.5,129.03 628.17,129.03 628.85,129.03C629.53,129.03 630.2,129.03 630.88,129.03C631.55,129.03 632.23,129.03 632.9,129.03C633.58,129.03 634.25,129.03 634.93,129.03C635.61,129.03 636.28,129.02 636.96,129.02C637.64,129.02 638.31,129.01 638.99,129.01C639.67,129 640.34,129 641.02,128.99C641.7,128.98 642.37,128.96 643.05,128.94C643.72,128.92 644.4,128.9 645.07,128.87C645.75,128.84 646.42,128.81 647.1,128.77C647.78,128.73 648.45,128.68 649.13,128.63C649.81,128.58 650.48,128.54 651.16,128.49C651.84,128.44 652.51,128.39 653.19,128.35C653.87,128.31 654.54,128.26 655.22,128.23C655.89,128.2 656.57,128.18 657.24,128.17C657.92,128.16 658.59,128.16 659.27,128.16C659.95,128.16 660.62,128.18 661.3,128.2C661.98,128.22 662.65,128.26 663.33,128.29C664.01,128.32 664.68,128.36 665.36,128.4C666.04,128.44 666.71,128.49 667.39,128.53C668.07,128.57 668.74,128.62 669.42,128.66C670.09,128.7 670.77,128.75 671.44,128.78C672.12,128.82 672.79,128.84 673.47,128.87C674.15,128.9 674.82,128.92 675.5,128.94C676.18,128.96 676.85,128.97 677.53,128.98Q678.21,128.99 679.56,129.01L679.56,129.03" style="vector-effect: none; stroke-width: 2px; stroke: rgb(62, 142, 64); stroke-opacity: 1; fill: rgb(78, 177, 79); fill-opacity: 0.5;"/><path class="meanline" d="M327.69,108.40254211425781V129.03" style="fill: none; vector-effect: none; stroke-width: 2px; stroke-dasharray: 4px, 2px; stroke: rgb(62, 142, 64); stroke-opacity: 1;"/></g><g class="trace violins" style="opacity: 1;"><path class="violin" d="M161.47,107.02L161.47,106.95Q164.55,106.92 166.09,106.89C167.63,106.86 169.16,106.83 170.7,106.79C172.24,106.75 173.77,106.7 175.31,106.64C176.85,106.58 178.38,106.52 179.92,106.43C181.46,106.34 182.99,106.25 184.53,106.12C186.07,105.98 187.61,105.84 189.14,105.62C190.68,105.4 192.22,105.15 193.75,104.78C195.3,104.41 196.84,103.97 198.36,103.4C199.92,102.81 201.46,102.1 202.97,101.27C204.54,100.4 206.07,99.38 207.58,98.28C209.15,97.13 210.67,95.82 212.19,94.49C213.75,93.13 215.26,91.63 216.8,90.19C218.34,88.75 219.86,87.24 221.41,85.85C222.93,84.49 224.45,83.14 226.02,81.93C227.53,80.77 229.07,79.68 230.63,78.71C232.14,77.77 233.69,76.97 235.24,76.2C236.76,75.45 238.31,74.81 239.85,74.15C241.38,73.5 242.92,72.9 244.46,72.28C246,71.66 247.53,71.03 249.07,70.43C250.6,69.84 252.13,69.21 253.68,68.71C255.21,68.22 256.74,67.73 258.29,67.44C259.81,67.15 261.36,66.95 262.9,66.95C264.44,66.95 266,67.12 267.52,67.42C269.07,67.73 270.61,68.23 272.13,68.8C273.69,69.38 275.22,70.11 276.74,70.88C278.29,71.66 279.83,72.53 281.35,73.45C282.9,74.39 284.44,75.4 285.96,76.46C287.51,77.55 289.05,78.72 290.57,79.92C292.12,81.15 293.64,82.47 295.18,83.75C296.72,85.02 298.22,86.4 299.79,87.57C301.3,88.7 302.81,89.89 304.4,90.68C305.89,91.42 307.45,92.1 309.01,92.26C310.53,92.41 312.14,92.19 313.62,91.66C315.22,91.08 316.76,89.94 318.23,88.76C319.85,87.46 321.34,85.72 322.84,84.06C324.41,82.32 325.91,80.35 327.45,78.52C328.98,76.71 330.48,74.83 332.06,73.16C333.56,71.57 335.09,70.04 336.67,68.7C338.17,67.43 339.71,66.3 341.28,65.27C342.79,64.28 344.34,63.44 345.89,62.6C347.41,61.77 348.96,61.02 350.5,60.27C352.03,59.52 353.57,58.79 355.11,58.1C356.64,57.42 358.17,56.74 359.72,56.16C361.25,55.58 362.78,55.05 364.33,54.61C365.86,54.18 367.41,53.84 368.95,53.54C370.48,53.25 372.02,53.03 373.56,52.83C375.09,52.63 376.63,52.47 378.17,52.33C379.71,52.19 381.24,52.05 382.78,51.99C384.32,51.93 385.86,51.87 387.39,51.98C388.93,52.09 390.48,52.27 392,52.67C393.56,53.08 395.11,53.67 396.61,54.42C398.19,55.21 399.72,56.25 401.22,57.36C402.8,58.53 404.32,59.91 405.83,61.29C407.39,62.71 408.9,64.27 410.44,65.77C411.98,67.27 413.5,68.83 415.05,70.28C416.57,71.7 418.1,73.1 419.66,74.41C421.18,75.68 422.71,76.88 424.27,78.02C425.79,79.13 427.33,80.15 428.88,81.15C430.41,82.14 431.95,83.06 433.49,83.99C435.02,84.92 436.57,85.81 438.1,86.73C439.64,87.65 441.18,88.58 442.71,89.52C444.25,90.46 445.78,91.43 447.32,92.38C448.86,93.33 450.39,94.31 451.93,95.24C453.46,96.16 454.99,97.08 456.54,97.91C458.06,98.73 459.6,99.51 461.15,100.19C462.67,100.85 464.21,101.45 465.76,101.95C467.29,102.44 468.83,102.84 470.38,103.16C471.91,103.48 473.45,103.69 474.99,103.87C476.52,104.05 478.06,104.14 479.6,104.23C481.14,104.32 482.67,104.35 484.21,104.39C485.75,104.43 487.28,104.44 488.82,104.48C490.36,104.52 491.89,104.56 493.43,104.63C494.97,104.7 496.5,104.78 498.04,104.88C499.58,104.98 501.11,105.12 502.65,105.25C504.19,105.38 505.72,105.53 507.26,105.67C508.8,105.81 510.33,105.95 511.87,106.08C513.41,106.21 514.94,106.33 516.48,106.43C518.02,106.53 519.55,106.61 521.09,106.68Q522.63,106.75 525.7,106.85L525.7,107.02" style="vector-effect: none; stroke-width: 2px; stroke: rgb(52, 152, 124); stroke-opacity: 1; fill: rgb(65, 190, 155); fill-opacity: 0.5;"/><path class="meanline" d="M339.09,66.7907943725586V107.02" style="fill: none; vector-effect: none; stroke-width: 2px; stroke-dasharray: 4px, 2px; stroke: rgb(52, 152, 124); stroke-opacity: 1;"/></g><g class="trace violins" style="opacity: 1;"><path class="violin" d="M244.81,85L244.81,84.87Q247.28,84.78 248.52,84.71C249.75,84.64 250.99,84.56 252.22,84.44C253.46,84.32 254.7,84.18 255.93,84C257.17,83.82 258.41,83.61 259.64,83.36C260.88,83.11 262.12,82.83 263.35,82.52C264.59,82.21 265.82,81.87 267.05,81.52C268.29,81.17 269.52,80.79 270.76,80.43C272,80.07 273.23,79.7 274.47,79.36C275.7,79.02 276.94,78.7 278.18,78.4C279.41,78.1 280.65,77.85 281.89,77.58C283.12,77.31 284.36,77.08 285.59,76.8C286.83,76.52 288.07,76.25 289.3,75.89C290.55,75.52 291.79,75.12 293.01,74.61C294.26,74.09 295.5,73.48 296.72,72.79C297.98,72.08 299.21,71.25 300.43,70.39C301.68,69.5 302.9,68.51 304.13,67.54C305.37,66.55 306.6,65.5 307.84,64.5C309.07,63.5 310.3,62.5 311.55,61.55C312.78,60.62 314.01,59.72 315.26,58.86C316.49,58.02 317.72,57.22 318.97,56.46C320.19,55.71 321.43,55.01 322.67,54.33C323.9,53.66 325.13,53.02 326.38,52.43C327.61,51.84 328.85,51.3 330.09,50.79C331.32,50.28 332.56,49.83 333.8,49.38C335.03,48.94 336.26,48.53 337.5,48.12C338.73,47.71 339.97,47.32 341.21,46.93C342.45,46.54 343.68,46.14 344.92,45.79C346.15,45.44 347.39,45.08 348.63,44.84C349.86,44.6 351.1,44.4 352.34,44.34C353.57,44.28 354.81,44.34 356.04,44.49C357.28,44.65 358.52,44.95 359.75,45.28C360.99,45.61 362.22,46.08 363.46,46.46C364.69,46.84 365.92,47.29 367.17,47.56C368.4,47.82 369.65,48.07 370.88,48.05C372.12,48.03 373.38,47.86 374.58,47.45C375.85,47.02 377.1,46.29 378.29,45.46C379.58,44.55 380.8,43.34 382,42.13C383.28,40.84 384.47,39.31 385.71,37.91C386.94,36.51 388.13,34.97 389.42,33.74C390.61,32.61 391.81,31.38 393.12,30.76C394.29,30.2 395.62,29.81 396.83,29.97C398.1,30.14 399.39,30.94 400.54,31.86C401.9,32.94 403.08,34.64 404.25,36.3C405.56,38.16 406.74,40.38 407.95,42.55C409.22,44.82 410.42,47.29 411.66,49.64C412.89,51.98 414.1,54.38 415.37,56.62C416.58,58.75 417.79,60.87 419.08,62.76C420.27,64.51 421.49,66.19 422.79,67.62C423.97,68.91 425.19,70.11 426.49,71.02C427.67,71.85 428.93,72.53 430.2,72.97C431.41,73.38 432.67,73.6 433.91,73.64C435.14,73.68 436.4,73.48 437.62,73.2C438.87,72.91 440.11,72.42 441.33,71.89C442.58,71.34 443.81,70.63 445.03,69.94C446.28,69.23 447.5,68.42 448.74,67.69C449.97,66.96 451.19,66.17 452.45,65.56C453.67,64.97 454.9,64.39 456.16,64.05C457.38,63.72 458.63,63.51 459.87,63.52C461.1,63.53 462.35,63.76 463.57,64.09C464.83,64.43 466.06,65 467.28,65.58C468.53,66.17 469.76,66.92 470.99,67.62C472.23,68.32 473.46,69.09 474.7,69.78C475.93,70.46 477.15,71.14 478.4,71.72C479.62,72.29 480.86,72.82 482.11,73.25C483.33,73.67 484.58,74.01 485.82,74.29C487.05,74.56 488.29,74.74 489.53,74.91C490.76,75.07 492,75.16 493.24,75.28C494.47,75.4 495.71,75.48 496.94,75.64C498.18,75.8 499.42,75.97 500.65,76.23C501.89,76.49 503.13,76.84 504.36,77.22C505.61,77.61 506.84,78.08 508.07,78.56C509.31,79.04 510.54,79.59 511.78,80.09C513.01,80.59 514.24,81.12 515.48,81.58C516.71,82.04 517.95,82.48 519.19,82.84C520.42,83.2 521.66,83.51 522.9,83.76C524.13,84.01 525.37,84.2 526.61,84.36C527.84,84.52 529.08,84.61 530.32,84.7C531.55,84.79 532.79,84.84 534.02,84.88C535.26,84.92 536.49,84.94 537.73,84.96C538.97,84.98 540.2,84.98 541.44,84.99C542.68,85 543.91,85 545.15,85C546.38,85 547.62,85 548.85,85C550.09,85 551.32,85 552.56,85C553.8,85 555.03,85 556.27,85C557.51,85 558.74,85 559.98,85C561.22,85 562.45,85 563.69,85C564.92,85 566.16,85 567.39,85C568.63,85 569.86,85 571.1,85C572.34,85 573.57,85 574.81,85C576.05,85 577.28,85 578.52,85C579.76,85 580.99,85 582.23,85C583.46,85 584.7,84.99 585.93,84.98C587.17,84.97 588.4,84.97 589.64,84.95C590.88,84.93 592.11,84.9 593.35,84.87C594.59,84.83 595.82,84.8 597.06,84.74C598.3,84.68 599.53,84.6 600.77,84.51C602,84.42 603.24,84.3 604.47,84.18C605.71,84.06 606.94,83.91 608.18,83.78C609.42,83.64 610.65,83.49 611.89,83.37C613.13,83.25 614.36,83.13 615.6,83.05C616.83,82.97 618.07,82.91 619.3,82.9C620.54,82.89 621.77,82.92 623.01,82.98C624.25,83.04 625.48,83.14 626.72,83.25C627.96,83.36 629.19,83.51 630.43,83.64C631.67,83.77 632.9,83.92 634.14,84.05C635.37,84.18 636.61,84.31 637.84,84.41C639.08,84.51 640.31,84.6 641.55,84.67Q642.79,84.74 645.26,84.83L645.26,85" style="vector-effect: none; stroke-width: 2px; stroke: rgb(70, 29, 175); stroke-opacity: 1; fill: rgb(88, 36, 219); fill-opacity: 0.5;"/><path class="meanline" d="M385.13,38.576454162597656V85" style="fill: none; vector-effect: none; stroke-width: 2px; stroke-dasharray: 4px, 2px; stroke: rgb(70, 29, 175); stroke-opacity: 1;"/></g><g class="trace violins" style="opacity: 1;"><path class="violin" d="M431.63,62.99L431.63,62.56Q434.95,62.3 436.6,62.09C438.26,61.88 439.93,61.62 441.58,61.28C443.25,60.93 444.9,60.51 446.55,60.01C448.22,59.5 449.88,58.91 451.53,58.25C453.2,57.58 454.85,56.82 456.5,56.04C458.17,55.25 459.82,54.38 461.48,53.56C463.14,52.74 464.78,51.88 466.45,51.12C468.1,50.37 469.75,49.64 471.43,49.05C473.07,48.47 474.73,47.96 476.4,47.59C478.05,47.23 479.72,47 481.38,46.86C483.03,46.72 484.69,46.72 486.35,46.72C488.01,46.72 489.67,46.85 491.33,46.89C492.99,46.93 494.65,47.01 496.31,46.98C497.97,46.95 499.62,46.88 501.28,46.74C502.94,46.6 504.6,46.36 506.26,46.14C507.92,45.92 509.57,45.61 511.23,45.4C512.89,45.19 514.55,44.97 516.21,44.87C517.87,44.77 519.52,44.75 521.18,44.8C522.84,44.85 524.5,45.04 526.16,45.19C527.82,45.33 529.47,45.59 531.13,45.67C532.79,45.75 534.46,45.87 536.11,45.69C537.78,45.51 539.46,45.2 541.08,44.6C542.78,43.97 544.46,43.05 546.06,41.94C547.79,40.73 549.43,39.17 551.03,37.52C552.76,35.74 554.38,33.66 556.01,31.58C557.71,29.41 559.33,27.02 560.99,24.77C562.64,22.53 564.24,20.16 565.96,18.11C567.57,16.18 569.18,14.21 570.94,12.77C572.51,11.48 574.18,10.26 575.91,9.73C577.51,9.24 579.27,9.17 580.89,9.5C582.59,9.85 584.27,10.86 585.86,11.9C587.6,13.03 589.21,14.64 590.84,16.16C592.53,17.74 594.14,19.55 595.81,21.21C597.46,22.86 599.1,24.56 600.79,26.08C602.42,27.54 604.06,28.95 605.76,30.19C607.38,31.38 609.05,32.44 610.74,33.39C612.37,34.31 614.03,35.12 615.71,35.82C617.35,36.51 619.01,37.1 620.69,37.57C622.33,38.03 624,38.41 625.67,38.6C627.32,38.79 628.99,38.85 630.64,38.7C632.31,38.55 633.99,38.21 635.62,37.71C637.3,37.2 638.96,36.45 640.59,35.64C642.28,34.81 643.93,33.78 645.57,32.76C647.24,31.72 648.89,30.57 650.54,29.46C652.2,28.34 653.86,27.18 655.52,26.06C657.17,24.94 658.83,23.83 660.49,22.74C662.14,21.66 663.81,20.59 665.47,19.54C667.12,18.5 668.78,17.47 670.44,16.48C672.09,15.5 673.75,14.52 675.42,13.61C677.07,12.72 678.71,11.83 680.39,11.07C682.03,10.33 683.69,9.61 685.37,9.09C687.01,8.58 688.67,8.13 690.34,7.95C691.99,7.77 693.68,7.73 695.32,8C697,8.27 698.7,8.81 700.3,9.6C702.02,10.44 703.68,11.65 705.27,13C707.01,14.47 708.65,16.3 710.25,18.19C711.97,20.22 713.59,22.53 715.22,24.82C716.91,27.2 718.54,29.77 720.2,32.24C721.86,34.72 723.48,37.27 725.17,39.67C726.8,41.99 728.44,44.3 730.15,46.4C731.76,48.38 733.4,50.29 735.12,51.96C736.73,53.52 738.39,54.95 740.1,56.16C741.71,57.3 743.38,58.26 745.07,59.06C746.7,59.83 748.37,60.41 750.05,60.9C751.69,61.38 753.36,61.69 755.02,61.96Q756.67,62.23 760,62.53L760,62.99" style="vector-effect: none; stroke-width: 2px; stroke: rgb(132, 72, 129); stroke-opacity: 1; fill: rgb(164, 91, 161); fill-opacity: 0.5;"/><path class="meanline" d="M618.46,36.87311553955078V62.99" style="fill: none; vector-effect: none; stroke-width: 2px; stroke-dasharray: 4px, 2px; stroke: rgb(132, 72, 129); stroke-opacity: 1;"/></g></g></g><g class="overplot"/><path class="xlines-above crisp" d="M0,0" style="fill: none;"/><path class="ylines-above crisp" d="M0,0" style="fill: none;"/><g class="overlines-above"/><g class="xaxislayer-above"><g class="xtick"><text text-anchor="middle" x="0" y="172" transform="translate(62.87,0)" style="font-family: 'Open Sans', verdana, arial, sans-serif; font-size: 12px; fill: rgb(242, 245, 250); fill-opacity: 1; white-space: pre; opacity: 1;">0</text></g><g class="xtick"><text text-anchor="middle" x="0" y="172" style="font-family: 'Open Sans', verdana, arial, sans-serif; font-size: 12px; fill: rgb(242, 245, 250); fill-opacity: 1; white-space: pre; opacity: 1;" transform="translate(201.84,0)">100</text></g><g class="xtick"><text text-anchor="middle" x="0" y="172" style="font-family: 'Open Sans', verdana, arial, sans-serif; font-size: 12px; fill: rgb(242, 245, 250); fill-opacity: 1; white-space: pre; opacity: 1;" transform="translate(340.81,0)">200</text></g><g class="xtick"><text text-anchor="middle" x="0" y="172" style="font-family: 'Open Sans', verdana, arial, sans-serif; font-size: 12px; fill: rgb(242, 245, 250); fill-opacity: 1; white-space: pre; opacity: 1;" transform="translate(479.78,0)">300</text></g><g class="xtick"><text text-anchor="middle" x="0" y="172" style="font-family: 'Open Sans', verdana, arial, sans-serif; font-size: 12px; fill: rgb(242, 245, 250); fill-opacity: 1; white-space: pre; opacity: 1;" transform="translate(618.74,0)">400</text></g><g class="xtick"><text text-anchor="middle" x="0" y="172" style="font-family: 'Open Sans', verdana, arial, sans-serif; font-size: 12px; fill: rgb(242, 245, 250); fill-opacity: 1; white-space: pre; opacity: 1;" transform="translate(757.71,0)">500</text></g></g><g class="yaxislayer-above"/><g class="overaxes-above"/></g></g><g class="polarlayer"/><g class="smithlayer"/><g class="ternarylayer"/><g class="geolayer"/><g class="funnelarealayer"/><g class="pielayer"/><g class="iciclelayer"/><g class="treemaplayer"/><g class="sunburstlayer"/><g class="glimages"/><defs id="topdefs-b68186"><g class="clips"/></defs><g class="layer-above"><g class="imagelayer"/><g class="shapelayer"/></g><g class="infolayer"><g class="g-gtitle"/><g class="g-xtitle" transform="translate(0,-2.3000000000000114)"><text class="xtitle" x="400" y="199.3" text-anchor="middle" style="font-family: 'Open Sans', verdana, arial, sans-serif; font-size: 14px; fill: rgb(242, 245, 250); opacity: 1; white-space: pre;">Nkids</text></g><g class="g-ytitle"/></g></svg>