<svg class="main-svg" xmlns="http://www.w3.org/2000/svg" xmlns:xlink="http://www.w3.org/1999/xlink" width="800" height="200" style="" viewBox="0 0 800 200"><rect x="0" y="0" width="800" height="200" style="fill: rgb(0, 0, 0); fill-opacity: 0;"/><defs id="defs-747992"><g class="clips"><clipPath id="clip747992xyplot" class="plotclip"><rect width="800" height="159"/></clipPath><clipPath class="axesclip" id="clip747992x"><rect x="0" y="0" width="800" height="200"/></clipPath><clipPath class="axesclip" id="clip747992y"><rect x="0" y="0" width="800" height="159"/></clipPath><clipPath class="axesclip" id="clip747992xy"><rect x="0" y="0" width="800" height="159"/></clipPath></g><g class="gradients"/><g class="patterns"/></defs><g class="bglayer"><rect class="bg" x="0" y="0" width="800" height="159" style="fill: rgb(0, 0, 0); fill-opacity: 0; stroke-width: 0;"/></g><g class="layer-below"><g class="imagelayer"/><g class="shapelayer"/></g><g class="cartesianlayer"><g class="subplot xy"><g class="layer-subplot"><g class="shapelayer"/><g class="imagelayer"/></g><g class="minor-gridlayer"><g class="x"/><g class="y"/></g><g class="gridlayer"><g class="x"><path class="xgrid crisp" transform="translate(199.41,0)" d="M0,0v159" style="stroke: rgb(40, 52, 66); stroke-opacity: 1; stroke-width: 1px;"/><path class="xgrid crisp" transform="translate(321.85,0)" d="M0,0v159" style="stroke: rgb(40, 52, 66); stroke-opacity: 1; stroke-width: 1px;"/><path class="xgrid crisp" transform="translate(444.29,0)" d="M0,0v159" style="stroke: rgb(40, 52, 66); stroke-opacity: 1; stroke-width: 1px;"/><path class="xgrid crisp" transform="translate(566.73,0)" d="M0,0v159" style="stroke: rgb(40, 52, 66); stroke-opacity: 1; stroke-width: 1px;"/><path class="xgrid crisp" transform="translate(689.17,0)" d="M0,0v159" style="stroke: rgb(40, 52, 66); stroke-opacity: 1; stroke-width: 1px;"/></g><g class="y"/></g><g class="zerolinelayer"><path class="xzl zl crisp" transform="translate(76.97,0)" d="M0,0v159" style="stroke: rgb(40, 52, 66); stroke-opacity: 1; stroke-width: 2px;"/></g><g class="layer-between"><g class="shapelayer"/><g class="imagelayer"/></g><path class="xlines-below"/><path class="ylines-below"/><g class="overlines-below"/><g class="xaxislayer-below"/><g class="yaxislayer-below"/><g class="overaxes-below"/><g class="plot" transform="" clip-path="url(#clip747992xyplot)"><g class="violinlayer mlayer"><g class="trace violins" style="opacity: 1;"><path class="violin" d="M45.75,151.05L45.75,145.67Q49.29,142.77 50.93,140.95C52.76,138.92 54.46,136.49 56.12,133.96C57.93,131.19 59.61,128.03 61.3,124.92C63.06,121.68 64.73,118.16 66.48,114.89C68.18,111.72 69.83,108.37 71.67,105.58C73.31,103.09 74.93,100.49 76.85,98.85C78.45,97.48 80.26,96.24 82.04,96.01C83.73,95.79 85.59,96.43 87.22,97.28C89.07,98.24 90.75,100.1 92.41,101.8C94.22,103.65 95.87,105.94 97.59,108.04C99.32,110.15 101.01,112.42 102.78,114.42C104.47,116.33 106.17,118.23 107.96,119.82C109.63,121.29 111.35,122.63 113.14,123.69C114.82,124.69 116.57,125.46 118.33,126.08C120.03,126.68 121.77,127.04 123.51,127.38C125.23,127.72 126.97,127.89 128.7,128.11C130.43,128.33 132.15,128.48 133.88,128.68C135.61,128.89 137.34,129.1 139.07,129.34C140.8,129.58 142.52,129.85 144.25,130.1C145.98,130.35 147.71,130.62 149.44,130.84C151.17,131.05 152.89,131.26 154.62,131.39C156.35,131.52 158.08,131.6 159.81,131.62C161.54,131.64 163.26,131.59 164.99,131.5C166.72,131.41 168.44,131.27 170.17,131.1C171.9,130.93 173.63,130.72 175.36,130.49C177.09,130.26 178.81,130.01 180.54,129.73C182.27,129.45 184,129.14 185.73,128.79C187.46,128.44 189.19,128.06 190.91,127.65C192.64,127.24 194.37,126.77 196.1,126.31C197.83,125.85 199.55,125.35 201.28,124.88C203.01,124.41 204.74,123.94 206.47,123.51C208.19,123.08 209.92,122.68 211.65,122.31C213.38,121.95 215.11,121.63 216.84,121.32C218.57,121.01 220.29,120.73 222.02,120.45C223.75,120.17 225.47,119.9 227.2,119.63C228.93,119.36 230.66,119.07 232.39,118.82C234.12,118.57 235.84,118.31 237.57,118.13C239.3,117.95 241.03,117.77 242.76,117.72C244.49,117.67 246.22,117.66 247.94,117.8C249.67,117.94 251.42,118.17 253.13,118.56C254.87,118.96 256.61,119.51 258.31,120.19C260.07,120.89 261.8,121.77 263.5,122.73C265.26,123.73 266.97,124.9 268.68,126.1C270.43,127.33 272.14,128.69 273.86,130.03C275.6,131.38 277.31,132.81 279.05,134.16C280.77,135.5 282.48,136.86 284.23,138.11C285.94,139.34 287.67,140.53 289.42,141.6C291.12,142.64 292.85,143.6 294.6,144.43C296.31,145.24 298.04,145.95 299.79,146.56C301.5,147.16 303.23,147.64 304.97,148.05C306.69,148.46 308.43,148.75 310.16,149.01C311.88,149.27 313.61,149.43 315.34,149.59C317.07,149.74 318.8,149.85 320.53,149.94C322.26,150.03 323.98,150.09 325.71,150.15C327.44,150.21 329.16,150.25 330.89,150.29C332.62,150.33 334.35,150.37 336.08,150.4C337.81,150.43 339.53,150.46 341.26,150.49C342.99,150.52 344.72,150.54 346.45,150.57C348.18,150.6 349.9,150.63 351.63,150.66C353.36,150.69 355.09,150.71 356.82,150.74C358.55,150.77 360.27,150.8 362,150.83C363.73,150.86 365.46,150.89 367.19,150.91C368.92,150.93 370.64,150.95 372.37,150.96Q374.1,150.98 377.56,151L377.56,151.05" style="vector-effect: none; stroke-width: 2px; stroke: rgb(62, 142, 64); stroke-opacity: 1; fill: rgb(78, 177, 79); fill-opacity: 0.5;"/><path class="meanline" d="M162.91,131.58694458007812V151.05" style="fill: none; vector-effect: none; stroke-width: 2px; stroke-dasharray: 4px, 2px; stroke: rgb(62, 142, 64); stroke-opacity: 1;"/></g><g class="trace violins" style="opacity: 1;"><path class="violin" d="M40,129.03L40,128.86Q44.09,128.76 46.13,128.66C48.17,128.56 50.22,128.45 52.26,128.28C54.3,128.11 56.35,127.92 58.39,127.66C60.44,127.4 62.48,127.08 64.52,126.7C66.57,126.32 68.61,125.87 70.65,125.36C72.7,124.84 74.75,124.25 76.78,123.61C78.83,122.96 80.88,122.25 82.91,121.5C84.96,120.74 87,119.93 89.03,119.09C91.08,118.24 93.12,117.34 95.16,116.44C97.21,115.53 99.25,114.59 101.29,113.65C103.33,112.71 105.37,111.74 107.42,110.81C109.46,109.89 111.5,108.94 113.55,108.09C115.58,107.24 117.62,106.41 119.68,105.71C121.71,105.02 123.75,104.4 125.81,103.93C127.84,103.46 129.89,103.12 131.94,102.88C133.98,102.64 136.03,102.57 138.07,102.48C140.11,102.39 142.16,102.44 144.2,102.33C146.24,102.22 148.3,102.15 150.33,101.84C152.38,101.53 154.45,101.11 156.46,100.46C158.53,99.79 160.59,98.9 162.59,97.86C164.68,96.78 166.71,95.44 168.72,94.07C170.79,92.66 172.82,91.05 174.85,89.5C176.9,87.94 178.91,86.26 180.97,84.73C183,83.22 185.02,81.7 187.1,80.38C189.11,79.11 191.15,77.89 193.23,76.94C195.24,76.02 197.29,75.23 199.36,74.74C201.38,74.26 203.45,73.99 205.49,74C207.53,74.01 209.61,74.3 211.62,74.81C213.69,75.33 215.75,76.18 217.75,77.14C219.84,78.15 221.87,79.44 223.88,80.77C225.96,82.15 227.98,83.74 230.01,85.3C232.07,86.88 234.09,88.58 236.14,90.17C238.17,91.75 240.2,93.37 242.27,94.8C244.28,96.19 246.32,97.56 248.4,98.67C250.41,99.74 252.45,100.7 254.53,101.4C256.54,102.08 258.6,102.57 260.66,102.84C262.69,103.11 264.75,103.13 266.79,103.03C268.84,102.93 270.89,102.6 272.92,102.22C274.97,101.83 277.01,101.29 279.04,100.72C281.09,100.15 283.14,99.49 285.17,98.79C287.22,98.09 289.27,97.34 291.3,96.53C293.35,95.72 295.4,94.84 297.43,93.93C299.48,93.01 301.52,92.02 303.56,91.04C305.61,90.06 307.63,89 309.69,88.07C311.72,87.15 313.75,86.19 315.82,85.51C317.84,84.84 319.89,84.24 321.95,84C323.98,83.77 326.06,83.75 328.08,84.08C330.15,84.41 332.22,85.12 334.21,86.02C336.31,86.96 338.34,88.29 340.34,89.68C342.44,91.14 344.45,92.9 346.47,94.64C348.54,96.42 350.56,98.37 352.6,100.25C354.64,102.13 356.67,104.08 358.73,105.9C360.75,107.68 362.79,109.43 364.86,111.04C366.87,112.6 368.9,114.08 370.98,115.41C372.99,116.7 375.04,117.86 377.11,118.91C379.13,119.93 381.18,120.83 383.24,121.64C385.27,122.44 387.32,123.12 389.37,123.74C391.4,124.36 393.45,124.89 395.5,125.37C397.54,125.85 399.58,126.25 401.63,126.61C403.67,126.97 405.71,127.26 407.76,127.52C409.8,127.78 411.85,127.98 413.89,128.15C415.93,128.32 417.98,128.45 420.02,128.56C422.06,128.67 424.11,128.74 426.15,128.8Q428.19,128.86 432.28,128.93L432.28,129.03" style="vector-effect: none; stroke-width: 2px; stroke: rgb(160, 156, 44); stroke-opacity: 1; fill: rgb(200, 195, 55); fill-opacity: 0.5;"/><path class="meanline" d="M237.34,91.1063232421875V129.03" style="fill: none; vector-effect: none; stroke-width: 2px; stroke-dasharray: 4px, 2px; stroke: rgb(160, 156, 44); stroke-opacity: 1;"/></g><g class="trace violins" style="opacity: 1;"><path class="violin" d="M181.36,107.02L181.36,106.93Q184.72,106.87 186.4,106.82C188.08,106.77 189.76,106.72 191.44,106.64C193.12,106.56 194.8,106.48 196.48,106.36C198.16,106.24 199.85,106.09 201.53,105.93C203.21,105.76 204.89,105.58 206.57,105.37C208.25,105.16 209.93,104.92 211.61,104.67C213.29,104.42 214.98,104.15 216.66,103.87C218.34,103.59 220.02,103.3 221.7,103.01C223.38,102.72 225.06,102.42 226.74,102.12C228.42,101.82 230.1,101.53 231.78,101.22C233.46,100.91 235.15,100.6 236.83,100.28C238.51,99.96 240.19,99.62 241.87,99.28C243.55,98.94 245.23,98.58 246.91,98.22C248.59,97.86 250.28,97.49 251.96,97.12C253.64,96.75 255.32,96.37 257,96C258.68,95.63 260.36,95.25 262.04,94.88C263.72,94.51 265.4,94.15 267.08,93.79C268.76,93.44 270.45,93.08 272.13,92.75C273.81,92.42 275.49,92.1 277.17,91.8C278.85,91.51 280.53,91.22 282.21,90.98C283.89,90.74 285.58,90.53 287.26,90.34C288.94,90.15 290.62,90 292.3,89.84C293.98,89.68 295.66,89.55 297.34,89.39C299.02,89.23 300.7,89.07 302.38,88.86C304.06,88.65 305.75,88.41 307.43,88.13C309.11,87.85 310.79,87.52 312.47,87.18C314.15,86.84 315.83,86.46 317.51,86.11C319.19,85.76 320.87,85.39 322.55,85.1C324.23,84.81 325.91,84.53 327.6,84.36C329.28,84.19 330.96,84.07 332.64,84.06C334.32,84.05 336,84.14 337.68,84.29C339.37,84.44 341.05,84.72 342.73,84.99C344.41,85.27 346.09,85.63 347.77,85.94C349.45,86.25 351.13,86.61 352.81,86.84C354.49,87.07 356.17,87.28 357.85,87.34C359.53,87.4 361.22,87.37 362.9,87.19C364.59,87.01 366.27,86.69 367.94,86.27C369.63,85.84 371.31,85.26 372.98,84.64C374.68,84 376.36,83.25 378.03,82.48C379.72,81.7 381.39,80.85 383.07,80C384.75,79.15 386.43,78.26 388.11,77.39C389.79,76.52 391.46,75.64 393.15,74.8C394.83,73.96 396.51,73.13 398.2,72.34C399.87,71.56 401.55,70.81 403.24,70.11C404.91,69.42 406.59,68.76 408.28,68.16C409.95,67.56 411.64,67.04 413.33,66.52C415.01,66.01 416.69,65.55 418.37,65.07C420.05,64.6 421.73,64.16 423.41,63.67C425.09,63.18 426.78,62.68 428.45,62.11C430.14,61.54 431.83,60.92 433.5,60.25C435.19,59.58 436.86,58.83 438.54,58.09C440.22,57.34 441.89,56.52 443.58,55.78C445.26,55.05 446.93,54.28 448.63,53.69C450.29,53.11 451.97,52.55 453.67,52.27C455.33,51.99 457.04,51.84 458.71,51.98C460.4,52.12 462.11,52.52 463.75,53.12C465.47,53.75 467.16,54.7 468.8,55.74C470.53,56.84 472.19,58.22 473.84,59.62C475.56,61.09 477.22,62.74 478.88,64.38C480.58,66.05 482.24,67.84 483.92,69.57C485.6,71.3 487.28,73.07 488.97,74.78C490.64,76.47 492.31,78.15 494.01,79.76C495.67,81.33 497.35,82.87 499.05,84.32C500.71,85.74 502.39,87.1 504.1,88.37C505.76,89.6 507.44,90.77 509.14,91.84C510.8,92.88 512.48,93.83 514.18,94.69C515.84,95.53 517.52,96.27 519.22,96.94C520.89,97.6 522.58,98.17 524.27,98.7C525.94,99.22 527.63,99.66 529.31,100.09C530.99,100.52 532.67,100.89 534.35,101.26C536.03,101.63 537.72,101.98 539.4,102.32C541.08,102.66 542.76,102.99 544.44,103.3C546.12,103.61 547.8,103.91 549.48,104.19C551.16,104.47 552.84,104.73 554.52,104.97C556.2,105.21 557.89,105.42 559.57,105.61C561.25,105.8 562.93,105.97 564.61,106.11C566.29,106.25 567.97,106.36 569.65,106.46C571.33,106.56 573.02,106.63 574.7,106.7C576.38,106.76 578.06,106.81 579.74,106.85Q581.42,106.89 584.78,106.94L584.78,107.02" style="vector-effect: none; stroke-width: 2px; stroke: rgb(52, 152, 124); stroke-opacity: 1; fill: rgb(65, 190, 155); fill-opacity: 0.5;"/><path class="meanline" d="M404.85,69.45716094970703V107.02" style="fill: none; vector-effect: none; stroke-width: 2px; stroke-dasharray: 4px, 2px; stroke: rgb(52, 152, 124); stroke-opacity: 1;"/></g><g class="trace violins" style="opacity: 1;"><path class="violin" d="M181.13,85L181.13,84.53Q184.52,84.28 186.21,84.09C187.91,83.9 189.6,83.67 191.29,83.4C192.99,83.12 194.68,82.8 196.37,82.44C198.07,82.08 199.76,81.67 201.45,81.26C203.15,80.85 204.83,80.4 206.53,79.99C208.22,79.58 209.92,79.16 211.62,78.82C213.31,78.48 215,78.16 216.7,77.94C218.39,77.72 220.09,77.56 221.78,77.49C223.47,77.42 225.17,77.45 226.86,77.53C228.56,77.61 230.25,77.78 231.94,77.99C233.64,78.2 235.33,78.49 237.02,78.78C238.72,79.07 240.41,79.41 242.1,79.73C243.79,80.05 245.48,80.38 247.18,80.68C248.87,80.97 250.56,81.27 252.26,81.5C253.95,81.73 255.64,81.93 257.34,82.06C259.03,82.18 260.73,82.26 262.42,82.25C264.11,82.24 265.81,82.16 267.5,82C269.2,81.84 270.89,81.59 272.58,81.29C274.28,80.99 275.98,80.59 277.67,80.18C279.37,79.76 281.06,79.26 282.75,78.8C284.44,78.33 286.13,77.83 287.83,77.39C289.52,76.95 291.21,76.52 292.91,76.17C294.6,75.82 296.29,75.52 297.99,75.29C299.68,75.06 301.38,74.91 303.07,74.78C304.76,74.65 306.46,74.6 308.15,74.51C309.84,74.42 311.54,74.38 313.23,74.25C314.92,74.12 316.62,73.98 318.31,73.75C320.01,73.51 321.7,73.22 323.39,72.84C325.09,72.46 326.78,71.99 328.47,71.48C330.17,70.97 331.86,70.38 333.55,69.79C335.25,69.2 336.93,68.56 338.63,67.95C340.32,67.34 342.02,66.72 343.72,66.14C345.41,65.56 347.1,64.99 348.8,64.46C350.49,63.93 352.19,63.44 353.88,62.94C355.57,62.45 357.27,61.97 358.96,61.49C360.65,61.01 362.35,60.53 364.04,60.04C365.73,59.55 367.43,59.06 369.12,58.57C370.81,58.09 372.5,57.59 374.2,57.13C375.89,56.68 377.58,56.24 379.28,55.84C380.97,55.44 382.66,55.08 384.36,54.73C386.05,54.38 387.75,54.07 389.44,53.72C391.14,53.36 392.84,53.04 394.52,52.6C396.22,52.16 397.93,51.68 399.6,51.06C401.31,50.43 403.01,49.68 404.68,48.82C406.4,47.93 408.1,46.89 409.77,45.79C411.49,44.66 413.17,43.39 414.85,42.14C416.55,40.88 418.22,39.51 419.93,38.27C421.61,37.05 423.28,35.79 425.01,34.73C426.67,33.71 428.36,32.74 430.09,32.02C431.75,31.32 433.46,30.77 435.17,30.43C436.85,30.1 438.56,29.97 440.25,29.97C441.94,29.97 443.64,30.17 445.33,30.4C447.03,30.64 448.72,31.02 450.41,31.38C452.11,31.74 453.8,32.16 455.49,32.54C457.18,32.92 458.88,33.28 460.57,33.65C462.26,34.01 463.96,34.34 465.65,34.73C467.35,35.13 469.05,35.5 470.73,36.02C472.44,36.55 474.14,37.14 475.81,37.91C477.54,38.71 479.24,39.66 480.9,40.74C482.64,41.87 484.32,43.21 485.98,44.6C487.71,46.04 489.38,47.66 491.06,49.24C492.76,50.84 494.44,52.55 496.14,54.15C497.82,55.73 499.5,57.34 501.22,58.81C502.89,60.23 504.58,61.61 506.3,62.84C507.96,64.03 509.66,65.13 511.38,66.1C513.05,67.04 514.75,67.87 516.46,68.61C518.13,69.33 519.84,69.94 521.54,70.5C523.22,71.05 524.92,71.51 526.62,71.93C528.31,72.35 530,72.69 531.7,73.02C533.39,73.34 535.08,73.62 536.78,73.88C538.47,74.14 540.16,74.37 541.86,74.58C543.55,74.79 545.25,74.98 546.95,75.16C548.64,75.33 550.34,75.49 552.03,75.63C553.72,75.77 555.42,75.89 557.11,76.01C558.8,76.13 560.5,76.23 562.19,76.33C563.88,76.43 565.58,76.53 567.27,76.63C568.96,76.74 570.66,76.83 572.35,76.96C574.04,77.09 575.74,77.23 577.43,77.39C579.12,77.55 580.82,77.74 582.51,77.94C584.2,78.14 585.9,78.36 587.59,78.58C589.28,78.8 590.98,79.04 592.67,79.25C594.36,79.46 596.06,79.68 597.75,79.86C599.44,80.04 601.14,80.21 602.83,80.35C604.52,80.48 606.22,80.59 607.91,80.67C609.61,80.75 611.3,80.8 613,80.84C614.69,80.88 616.39,80.9 618.08,80.91C619.77,80.92 621.47,80.92 623.16,80.93C624.85,80.94 626.55,80.94 628.24,80.95C629.93,80.96 631.63,80.97 633.32,80.98C635.01,80.99 636.71,81.01 638.4,81.03C640.09,81.05 641.79,81.06 643.48,81.09C645.17,81.12 646.87,81.15 648.56,81.2C650.25,81.25 651.95,81.3 653.64,81.38C655.33,81.46 657.03,81.56 658.72,81.68C660.41,81.8 662.11,81.94 663.8,82.09C665.49,82.24 667.19,82.42 668.88,82.59C670.57,82.76 672.27,82.93 673.96,83.1C675.66,83.27 677.35,83.44 679.05,83.59C680.74,83.74 682.44,83.88 684.13,84C685.82,84.12 687.52,84.23 689.21,84.32C690.9,84.41 692.6,84.49 694.29,84.56C695.98,84.63 697.68,84.67 699.37,84.72C701.06,84.77 702.76,84.81 704.45,84.84C706.14,84.87 707.84,84.89 709.53,84.91C711.22,84.93 712.92,84.94 714.61,84.95Q716.3,84.96 719.69,84.98L719.69,85" style="vector-effect: none; stroke-width: 2px; stroke: rgb(132, 72, 129); stroke-opacity: 1; fill: rgb(164, 91, 161); fill-opacity: 0.5;"/><path class="meanline" d="M432.38,31.164216995239258V85" style="fill: none; vector-effect: none; stroke-width: 2px; stroke-dasharray: 4px, 2px; stroke: rgb(132, 72, 129); stroke-opacity: 1;"/></g><g class="trace violins" style="opacity: 1;"><path class="violin" d="M422.44,62.99L422.44,62.97Q424.86,62.96 426.07,62.96C427.28,62.95 428.49,62.95 429.7,62.94C430.91,62.93 432.12,62.92 433.33,62.91C434.54,62.9 435.75,62.89 436.96,62.87C438.17,62.85 439.38,62.83 440.59,62.8C441.8,62.77 443.01,62.74 444.22,62.7C445.43,62.66 446.64,62.61 447.85,62.54C449.06,62.47 450.26,62.39 451.47,62.3C452.68,62.21 453.89,62.1 455.1,61.99C456.31,61.88 457.52,61.76 458.73,61.64C459.94,61.53 461.15,61.4 462.36,61.3C463.57,61.2 464.78,61.12 465.99,61.06C467.2,61 468.41,60.96 469.62,60.95C470.83,60.94 472.04,60.96 473.25,60.98C474.46,61 475.67,61.06 476.88,61.1C478.09,61.14 479.3,61.19 480.51,61.22C481.72,61.25 482.93,61.27 484.14,61.27C485.35,61.27 486.56,61.26 487.77,61.24C488.98,61.22 490.19,61.17 491.4,61.13C492.61,61.09 493.82,61.04 495.03,60.98C496.24,60.92 497.45,60.86 498.66,60.79C499.87,60.72 501.08,60.64 502.29,60.55C503.5,60.46 504.71,60.36 505.92,60.24C507.13,60.12 508.34,59.98 509.55,59.82C510.76,59.66 511.97,59.5 513.18,59.3C514.39,59.1 515.6,58.88 516.81,58.64C518.02,58.39 519.23,58.13 520.44,57.83C521.65,57.52 522.87,57.19 524.07,56.81C525.29,56.42 526.5,56 527.7,55.51C528.92,55.02 530.13,54.47 531.33,53.86C532.55,53.24 533.76,52.56 534.96,51.83C536.18,51.09 537.39,50.28 538.59,49.45C539.81,48.61 541.01,47.71 542.22,46.82C543.43,45.92 544.64,44.98 545.85,44.07C547.06,43.16 548.26,42.24 549.48,41.37C550.68,40.51 551.89,39.66 553.11,38.85C554.31,38.05 555.52,37.29 556.74,36.55C557.94,35.81 559.16,35.12 560.37,34.4C561.58,33.68 562.8,32.97 564,32.21C565.22,31.44 566.43,30.66 567.63,29.81C568.85,28.94 570.07,28.01 571.26,27.04C572.48,26.04 573.68,24.97 574.88,23.88C576.1,22.77 577.3,21.59 578.51,20.42C579.72,19.25 580.92,18.02 582.14,16.86C583.34,15.71 584.54,14.55 585.77,13.5C586.96,12.49 588.16,11.49 589.4,10.68C590.58,9.91 591.79,9.19 593.03,8.73C594.21,8.3 595.45,7.99 596.66,7.95C597.87,7.91 599.11,8.12 600.29,8.5C601.53,8.9 602.75,9.59 603.92,10.36C605.18,11.18 606.37,12.25 607.55,13.33C608.79,14.46 609.98,15.75 611.18,17.01C612.4,18.29 613.59,19.65 614.81,20.93C616.01,22.19 617.21,23.47 618.44,24.63C619.63,25.75 620.83,26.85 622.07,27.81C623.25,28.73 624.46,29.58 625.7,30.3C626.88,30.98 628.1,31.58 629.33,32.04C630.52,32.49 631.74,32.83 632.96,33.06C634.16,33.29 635.38,33.4 636.59,33.43C637.8,33.46 639.01,33.38 640.22,33.24C641.43,33.1 642.64,32.87 643.85,32.61C645.06,32.35 646.27,32.02 647.48,31.7C648.69,31.38 649.9,31.03 651.11,30.71C652.32,30.39 653.53,30.06 654.74,29.79C655.95,29.52 657.16,29.26 658.37,29.08C659.58,28.9 660.79,28.75 662,28.7C663.21,28.65 664.42,28.65 665.63,28.77C666.85,28.89 668.07,29.1 669.26,29.44C670.49,29.79 671.71,30.28 672.89,30.87C674.13,31.49 675.34,32.26 676.52,33.09C677.76,33.96 678.96,34.99 680.15,36.02C681.38,37.08 682.57,38.24 683.78,39.36C684.99,40.48 686.19,41.65 687.41,42.73C688.61,43.79 689.81,44.84 691.04,45.8C692.23,46.73 693.44,47.6 694.67,48.4C695.86,49.18 697.07,49.88 698.29,50.55C699.49,51.2 700.7,51.79 701.92,52.36C703.12,52.93 704.34,53.46 705.55,53.98C706.76,54.49 707.97,54.99 709.18,55.46C710.39,55.92 711.6,56.37 712.81,56.78C714.02,57.19 715.23,57.57 716.44,57.92C717.65,58.27 718.86,58.57 720.07,58.86C721.28,59.15 722.49,59.4 723.7,59.64C724.91,59.88 726.12,60.11 727.33,60.32C728.54,60.53 729.75,60.73 730.96,60.92C732.17,61.11 733.38,61.29 734.59,61.46C735.8,61.63 737.01,61.79 738.22,61.93C739.43,62.07 740.64,62.19 741.85,62.3C743.06,62.41 744.27,62.5 745.48,62.58C746.69,62.66 747.9,62.71 749.11,62.76C750.32,62.81 751.53,62.84 752.74,62.87C753.95,62.9 755.16,62.91 756.37,62.93Q757.58,62.94 760,62.96L760,62.99" style="vector-effect: none; stroke-width: 2px; stroke: rgb(70, 29, 175); stroke-opacity: 1; fill: rgb(88, 36, 219); fill-opacity: 0.5;"/><path class="meanline" d="M613.3,19.302818298339844V62.99" style="fill: none; vector-effect: none; stroke-width: 2px; stroke-dasharray: 4px, 2px; stroke: rgb(70, 29, 175); stroke-opacity: 1;"/></g></g></g><g class="overplot"/><path class="xlines-above crisp" d="M0,0" style="fill: none;"/><path class="ylines-above crisp" d="M0,0" style="fill: none;"/><g class="overlines-above"/><g class="xaxislayer-above"><g class="xtick"><text text-anchor="middle" x="0" y="172" transform="translate(76.97,0)" style="font-family: 'Open Sans', verdana, arial, sans-serif; font-size: 12px; fill: rgb(242, 245, 250); fill-opacity: 1; white-space: pre; opacity: 1;">0</text></g><g class="xtick"><text text-anchor="middle" x="0" y="172" style="font-family: 'Open Sans', verdana, arial, sans-serif; font-size: 12px; fill: rgb(242, 245, 250); fill-opacity: 1; white-space: pre; opacity: 1;" transform="translate(199.41,0)">10</text></g><g class="xtick"><text text-anchor="middle" x="0" y="172" style="font-family: 'Open Sans', verdana, arial, sans-serif; font-size: 12px; fill: rgb(242, 245, 250); fill-opacity: 1; white-space: pre; opacity: 1;" transform="translate(321.85,0)">20</text></g><g class="xtick"><text text-anchor="middle" x="0" y="172" style="font-family: 'Open Sans', verdana, arial, sans-serif; font-size: 12px; fill: rgb(242, 245, 250); fill-opacity: 1; white-space: pre; opacity: 1;" transform="translate(444.29,0)">30</text></g><g class="xtick"><text text-anchor="middle" x="0" y="172" style="font-family: 'Open Sans', verdana, arial, sans-serif; font-size: 12px; fill: rgb(242, 245, 250); fill-opacity: 1; white-space: pre; opacity: 1;" transform="translate(566.73,0)">40</text></g><g class="xtick"><text text-anchor="middle" x="0" y="172" style="font-family: 'Open Sans', verdana, arial, sans-serif; font-size: 12px; fill: rgb(242, 245, 250); fill-opacity: 1; white-space: pre; opacity: 1;" transform="translate(689.17,0)">50</text></g></g><g class="yaxislayer-above"/><g class="overaxes-above"/></g></g><g class="polarlayer"/><g class="smithlayer"/><g class="ternarylayer"/><g class="geolayer"/><g class="funnelarealayer"/><g class="pielayer"/><g class="iciclelayer"/><g class="treemaplayer"/><g class="sunburstlayer"/><g class="glimages"/><defs id="topdefs-747992"><g class="clips"/></defs><g class="layer-above"><g class="imagelayer"/><g class="shapelayer"/></g><g class="infolayer"><g class="g-gtitle"/><g class="g-xtitle" transform="translate(0,-2.3000000000000114)"><text class="xtitle" x="400" y="199.3" text-anchor="middle" style="font-family: 'Open Sans', verdana, arial, sans-serif; font-size: 14px; fill: rgb(242, 245, 250); opacity: 1; white-space: pre;">Speed</text></g><g class="g-ytitle"/></g></svg>