<svg class="main-svg" xmlns="http://www.w3.org/2000/svg" xmlns:xlink="http://www.w3.org/1999/xlink" width="800" height="200" style="" viewBox="0 0 800 200"><rect x="0" y="0" width="800" height="200" style="fill: rgb(0, 0, 0); fill-opacity: 0;"/><defs id="defs-98990e"><g class="clips"><clipPath id="clip98990exyplot" class="plotclip"><rect width="800" height="159"/></clipPath><clipPath class="axesclip" id="clip98990ex"><rect x="0" y="0" width="800" height="200"/></clipPath><clipPath class="axesclip" id="clip98990ey"><rect x="0" y="0" width="800" height="159"/></clipPath><clipPath class="axesclip" id="clip98990exy"><rect x="0" y="0" width="800" height="159"/></clipPath></g><g class="gradients"/><g class="patterns"/></defs><g class="bglayer"><rect class="bg" x="0" y="0" width="800" height="159" style="fill: rgb(0, 0, 0); fill-opacity: 0; stroke-width: 0;"/></g><g class="layer-below"><g class="imagelayer"/><g class="shapelayer"/></g><g class="cartesianlayer"><g class="subplot xy"><g class="layer-subplot"><g class="shapelayer"/><g class="imagelayer"/></g><g class="minor-gridlayer"><g class="x"/><g class="y"/></g><g class="gridlayer"><g class="x"><path class="xgrid crisp" transform="translate(152.24,0)" d="M0,0v159" style="stroke: rgb(40, 52, 66); stroke-opacity: 1; stroke-width: 1px;"/><path class="xgrid crisp" transform="translate(253.37,0)" d="M0,0v159" style="stroke: rgb(40, 52, 66); stroke-opacity: 1; stroke-width: 1px;"/><path class="xgrid crisp" transform="translate(354.5,0)" d="M0,0v159" style="stroke: rgb(40, 52, 66); stroke-opacity: 1; stroke-width: 1px;"/><path class="xgrid crisp" transform="translate(455.64,0)" d="M0,0v159" style="stroke: rgb(40, 52, 66); stroke-opacity: 1; stroke-width: 1px;"/><path class="xgrid crisp" transform="translate(556.77,0)" d="M0,0v159" style="stroke: rgb(40, 52, 66); stroke-opacity: 1; stroke-width: 1px;"/><path class="xgrid crisp" transform="translate(657.9,0)" d="M0,0v159" style="stroke: rgb(40, 52, 66); stroke-opacity: 1; stroke-width: 1px;"/><path class="xgrid crisp" transform="translate(759.03,0)" d="M0,0v159" style="stroke: rgb(40, 52, 66); stroke-opacity: 1; stroke-width: 1px;"/></g><g class="y"/></g><g class="zerolinelayer"><path class="xzl zl crisp" transform="translate(51.1,0)" d="M0,0v159" style="stroke: rgb(40, 52, 66); stroke-opacity: 1; stroke-width: 2px;"/></g><g class="layer-between"><g class="shapelayer"/><g class="imagelayer"/></g><path class="xlines-below"/><path class="ylines-below"/><g class="overlines-below"/><g class="xaxislayer-below"/><g class="yaxislayer-below"/><g class="overaxes-below"/><g class="plot" transform="" clip-path="url(#clip98990exyplot)"><g class="violinlayer mlayer"><g class="trace violins" style="opacity: 1;"><path class="violin" d="M46.36,151.05L46.36,148.48Q47.37,146.89 47.82,145.91C48.37,144.71 48.83,143.27 49.28,141.74C49.82,139.92 50.28,137.84 50.74,135.69C51.26,133.26 51.73,130.58 52.2,127.9C52.7,125.05 53.17,122 53.66,119.06C54.15,116.14 54.61,113.12 55.12,110.34C55.59,107.79 56.04,105.2 56.58,103.02C57.03,101.21 57.43,99.38 58.04,98.12C58.47,97.23 58.94,96.21 59.51,96.01C59.95,95.85 60.53,96.1 60.97,96.42C61.54,96.83 61.97,97.78 62.43,98.58C62.95,99.5 63.41,100.61 63.89,101.65C64.38,102.72 64.86,103.84 65.35,104.91C65.83,105.95 66.31,106.98 66.81,107.97C67.29,108.91 67.77,109.82 68.27,110.7C68.75,111.54 69.24,112.35 69.73,113.15C70.21,113.93 70.7,114.68 71.19,115.44C71.68,116.19 72.16,116.94 72.65,117.69C73.14,118.44 73.62,119.19 74.11,119.95C74.6,120.71 75.08,121.48 75.57,122.24C76.05,122.99 76.54,123.75 77.03,124.48C77.51,125.2 77.99,125.91 78.49,126.59C78.97,127.24 79.45,127.88 79.95,128.47C80.43,129.04 80.91,129.58 81.41,130.09C81.89,130.58 82.38,131.03 82.87,131.46C83.35,131.88 83.84,132.27 84.33,132.65C84.81,133.02 85.3,133.38 85.79,133.73C86.28,134.08 86.76,134.43 87.25,134.77C87.74,135.11 88.22,135.45 88.71,135.78C89.2,136.11 89.68,136.44 90.17,136.75C90.65,137.06 91.14,137.37 91.63,137.66C92.11,137.95 92.6,138.23 93.09,138.5C93.58,138.77 94.06,139.04 94.55,139.3C95.04,139.56 95.52,139.82 96.01,140.08C96.5,140.34 96.98,140.6 97.47,140.86C97.96,141.12 98.44,141.39 98.93,141.65C99.42,141.91 99.9,142.18 100.39,142.44C100.88,142.7 101.37,142.95 101.86,143.19C102.35,143.43 102.83,143.67 103.32,143.89C103.8,144.11 104.29,144.33 104.78,144.53C105.26,144.73 105.75,144.93 106.24,145.11C106.72,145.29 107.21,145.45 107.7,145.61C108.19,145.77 108.67,145.92 109.16,146.06C109.65,146.2 110.13,146.32 110.62,146.44C111.11,146.56 111.59,146.66 112.08,146.76C112.57,146.86 113.05,146.96 113.54,147.05C114.03,147.14 114.51,147.22 115,147.31C115.49,147.4 115.97,147.49 116.46,147.58C116.95,147.67 117.43,147.77 117.92,147.86C118.41,147.96 118.89,148.05 119.38,148.15C119.87,148.25 120.35,148.36 120.84,148.45C121.33,148.54 121.81,148.63 122.3,148.71C122.79,148.79 123.27,148.86 123.76,148.92C124.25,148.98 124.73,149.02 125.22,149.05C125.71,149.08 126.19,149.11 126.68,149.12C127.17,149.13 127.65,149.13 128.14,149.13C128.63,149.13 129.11,149.12 129.6,149.12C130.09,149.12 130.57,149.11 131.06,149.12C131.55,149.13 132.03,149.14 132.52,149.17C133.01,149.2 133.49,149.24 133.98,149.28C134.47,149.32 134.95,149.37 135.44,149.42C135.93,149.47 136.41,149.53 136.9,149.59C137.39,149.65 137.87,149.71 138.36,149.76C138.85,149.81 139.33,149.86 139.82,149.91C140.31,149.96 140.79,150 141.28,150.04C141.77,150.08 142.26,150.12 142.75,150.15C143.24,150.18 143.72,150.21 144.21,150.23C144.7,150.25 145.18,150.27 145.67,150.29C146.16,150.3 146.64,150.32 147.13,150.32C147.62,150.32 148.1,150.32 148.59,150.31C149.08,150.3 149.56,150.29 150.05,150.28C150.54,150.27 151.02,150.25 151.51,150.23C152,150.21 152.48,150.18 152.97,150.16C153.46,150.14 153.94,150.13 154.43,150.11C154.92,150.1 155.4,150.08 155.89,150.07C156.38,150.06 156.86,150.06 157.35,150.06C157.84,150.06 158.32,150.06 158.81,150.07C159.3,150.08 159.78,150.09 160.27,150.1C160.76,150.11 161.24,150.13 161.73,150.14C162.22,150.16 162.7,150.17 163.19,150.19C163.68,150.2 164.16,150.22 164.65,150.23C165.14,150.25 165.62,150.26 166.11,150.28C166.6,150.29 167.08,150.3 167.57,150.32C168.06,150.34 168.54,150.36 169.03,150.38C169.52,150.4 170,150.42 170.49,150.45C170.98,150.48 171.46,150.52 171.95,150.55C172.44,150.58 172.92,150.62 173.41,150.65C173.9,150.69 174.38,150.73 174.87,150.76C175.36,150.79 175.84,150.82 176.33,150.84C176.82,150.86 177.3,150.88 177.79,150.9C178.28,150.91 178.76,150.93 179.25,150.93C179.74,150.93 180.22,150.93 180.71,150.93C181.2,150.93 181.68,150.92 182.17,150.91C182.66,150.9 183.15,150.89 183.64,150.88C184.13,150.87 184.61,150.85 185.1,150.84C185.59,150.83 186.07,150.83 186.56,150.82C187.05,150.81 187.53,150.8 188.02,150.8C188.51,150.8 188.99,150.81 189.48,150.81C189.97,150.81 190.45,150.82 190.94,150.82C191.43,150.83 191.91,150.83 192.4,150.84C192.89,150.84 193.37,150.85 193.86,150.85C194.35,150.86 194.83,150.86 195.32,150.87C195.81,150.88 196.29,150.88 196.78,150.89C197.27,150.89 197.75,150.89 198.24,150.9C198.73,150.91 199.21,150.92 199.7,150.93C200.19,150.94 200.67,150.94 201.16,150.95C201.65,150.96 202.13,150.97 202.62,150.98C203.11,150.99 203.59,150.99 204.08,151C204.57,151.01 205.05,151.01 205.54,151.02C206.03,151.02 206.51,151.03 207,151.03C207.49,151.03 207.97,151.04 208.46,151.04C208.95,151.04 209.43,151.05 209.92,151.05C210.41,151.05 210.89,151.05 211.38,151.05C211.87,151.05 212.35,151.05 212.84,151.05C213.33,151.05 213.81,151.05 214.3,151.05C214.79,151.05 215.27,151.05 215.76,151.05C216.25,151.05 216.73,151.05 217.22,151.05C217.71,151.05 218.19,151.04 218.68,151.04C219.17,151.04 219.65,151.04 220.14,151.04C220.63,151.04 221.11,151.03 221.6,151.03C222.09,151.02 222.57,151.02 223.06,151.01C223.55,151 224.04,151 224.53,150.99C225.02,150.98 225.5,150.98 225.99,150.97C226.48,150.96 226.96,150.96 227.45,150.95C227.94,150.95 228.42,150.94 228.91,150.94C229.4,150.94 229.88,150.93 230.37,150.93C230.86,150.93 231.34,150.92 231.83,150.92C232.32,150.92 232.8,150.92 233.29,150.92C233.78,150.92 234.26,150.92 234.75,150.92C235.24,150.92 235.72,150.93 236.21,150.93C236.7,150.93 237.18,150.94 237.67,150.94C238.16,150.94 238.64,150.95 239.13,150.95C239.62,150.95 240.1,150.96 240.59,150.96C241.08,150.96 241.56,150.97 242.05,150.97C242.54,150.97 243.02,150.97 243.51,150.97C244,150.97 244.48,150.97 244.97,150.97C245.46,150.97 245.94,150.96 246.43,150.96C246.92,150.96 247.4,150.95 247.89,150.95C248.38,150.95 248.86,150.95 249.35,150.95C249.84,150.95 250.32,150.96 250.81,150.96C251.3,150.96 251.78,150.97 252.27,150.97C252.76,150.98 253.24,150.98 253.73,150.99C254.22,151 254.7,151 255.19,151.01C255.68,151.02 256.16,151.02 256.65,151.03Q257.14,151.03 258.11,151.04L258.11,151.05" style="vector-effect: none; stroke-width: 2px; stroke: rgb(160, 156, 44); stroke-opacity: 1; fill: rgb(200, 195, 55); fill-opacity: 0.5;"/><path class="meanline" d="M74.97,121.29829406738281V151.05" style="fill: none; vector-effect: none; stroke-width: 2px; stroke-dasharray: 4px, 2px; stroke: rgb(160, 156, 44); stroke-opacity: 1;"/></g><g class="trace violins" style="opacity: 1;"><path class="violin" d="M43.83,129.03L43.83,128.58Q44.88,128.25 45.38,127.97C45.92,127.67 46.45,127.29 46.93,126.81C47.49,126.26 47.99,125.56 48.47,124.78C49.03,123.86 49.54,122.77 50.02,121.6C50.58,120.24 51.08,118.69 51.57,117.08C52.12,115.28 52.62,113.3 53.12,111.29C53.66,109.14 54.16,106.85 54.67,104.58C55.19,102.26 55.7,99.85 56.22,97.52C56.73,95.24 57.24,92.93 57.77,90.76C58.27,88.73 58.76,86.72 59.31,84.89C59.8,83.24 60.3,81.65 60.86,80.25C61.34,79.04 61.84,77.89 62.41,76.96C62.89,76.18 63.39,75.46 63.96,74.96C64.44,74.54 64.97,74.2 65.51,74.04C66.01,73.9 66.55,73.91 67.06,74C67.58,74.09 68.1,74.34 68.6,74.6C69.13,74.88 69.64,75.27 70.15,75.67C70.68,76.08 71.19,76.56 71.7,77.04C72.23,77.54 72.74,78.08 73.25,78.62C73.77,79.18 74.29,79.75 74.8,80.34C75.32,80.93 75.84,81.54 76.35,82.16C76.87,82.78 77.39,83.41 77.9,84.06C78.42,84.71 78.93,85.38 79.44,86.06C79.96,86.74 80.48,87.44 80.99,88.14C81.51,88.84 82.02,89.56 82.54,90.27C83.06,90.98 83.57,91.71 84.09,92.42C84.61,93.13 85.12,93.84 85.64,94.54C86.15,95.24 86.67,95.93 87.19,96.61C87.7,97.29 88.22,97.96 88.74,98.63C89.25,99.29 89.76,99.95 90.28,100.6C90.79,101.25 91.31,101.89 91.83,102.53C92.34,103.16 92.86,103.79 93.38,104.4C93.89,105 94.41,105.6 94.93,106.18C95.44,106.74 95.96,107.29 96.48,107.82C96.99,108.33 97.51,108.84 98.03,109.31C98.54,109.77 99.06,110.21 99.58,110.63C100.09,111.03 100.6,111.41 101.12,111.77C101.63,112.12 102.15,112.45 102.67,112.77C103.18,113.08 103.7,113.37 104.22,113.66C104.73,113.94 105.25,114.21 105.77,114.48C106.29,114.75 106.8,115.01 107.32,115.27C107.84,115.53 108.35,115.8 108.87,116.06C109.39,116.32 109.9,116.59 110.42,116.85C110.93,117.11 111.44,117.37 111.96,117.62C112.47,117.87 112.99,118.12 113.51,118.35C114.02,118.58 114.54,118.79 115.06,118.99C115.57,119.19 116.09,119.37 116.61,119.54C117.13,119.71 117.64,119.87 118.16,120.03C118.68,120.19 119.19,120.34 119.71,120.49C120.23,120.64 120.74,120.79 121.26,120.94C121.77,121.09 122.29,121.25 122.8,121.39C123.32,121.54 123.83,121.68 124.35,121.81C124.87,121.94 125.38,122.07 125.9,122.19C126.42,122.31 126.93,122.41 127.45,122.52C127.97,122.62 128.48,122.72 129,122.82C129.52,122.92 130.03,123.02 130.55,123.13C131.06,123.23 131.58,123.34 132.09,123.45C132.61,123.56 133.12,123.69 133.64,123.81C134.16,123.93 134.67,124.05 135.19,124.16C135.71,124.27 136.22,124.39 136.74,124.49C137.26,124.59 137.77,124.67 138.29,124.75C138.81,124.82 139.32,124.89 139.84,124.94C140.36,124.99 140.87,125.03 141.39,125.07C141.9,125.11 142.42,125.13 142.93,125.16C143.45,125.19 143.96,125.22 144.48,125.26C145,125.3 145.51,125.33 146.03,125.38C146.55,125.43 147.06,125.48 147.58,125.54C148.1,125.6 148.61,125.66 149.13,125.72C149.65,125.78 150.16,125.85 150.68,125.91C151.2,125.97 151.71,126.03 152.23,126.09C152.74,126.14 153.26,126.19 153.77,126.24C154.29,126.29 154.8,126.33 155.32,126.37C155.84,126.41 156.35,126.44 156.87,126.47C157.39,126.51 157.9,126.54 158.42,126.58C158.94,126.62 159.45,126.66 159.97,126.7C160.49,126.75 161,126.8 161.52,126.85C162.04,126.9 162.55,126.96 163.07,127.01C163.58,127.06 164.1,127.12 164.61,127.17C165.13,127.22 165.64,127.27 166.16,127.32C166.68,127.37 167.19,127.41 167.71,127.45C168.23,127.49 168.74,127.52 169.26,127.55C169.78,127.58 170.29,127.6 170.81,127.62C171.33,127.64 171.84,127.66 172.36,127.68C172.88,127.7 173.39,127.72 173.91,127.73C174.42,127.74 174.94,127.75 175.45,127.76C175.97,127.77 176.48,127.76 177,127.76C177.52,127.76 178.03,127.75 178.55,127.74C179.07,127.73 179.58,127.72 180.1,127.71C180.62,127.7 181.13,127.68 181.65,127.67C182.17,127.66 182.68,127.66 183.2,127.66C183.72,127.66 184.23,127.66 184.75,127.66C185.26,127.66 185.78,127.67 186.29,127.68C186.81,127.69 187.32,127.71 187.84,127.72C188.36,127.74 188.87,127.75 189.39,127.77C189.91,127.79 190.42,127.81 190.94,127.83C191.46,127.85 191.97,127.87 192.49,127.89C193.01,127.91 193.52,127.94 194.04,127.96C194.55,127.98 195.07,128.01 195.58,128.03C196.1,128.05 196.61,128.08 197.13,128.1C197.65,128.12 198.16,128.14 198.68,128.16C199.2,128.18 199.71,128.2 200.23,128.22C200.75,128.24 201.26,128.25 201.78,128.27C202.3,128.29 202.81,128.3 203.33,128.32C203.85,128.34 204.36,128.35 204.88,128.37C205.39,128.38 205.91,128.4 206.42,128.41C206.94,128.42 207.45,128.43 207.97,128.44C208.49,128.45 209,128.46 209.52,128.46C210.04,128.46 210.55,128.46 211.07,128.46C211.59,128.46 212.1,128.45 212.62,128.45C213.14,128.44 213.65,128.44 214.17,128.43C214.69,128.42 215.2,128.41 215.72,128.4C216.23,128.39 216.75,128.38 217.26,128.37C217.78,128.36 218.29,128.35 218.81,128.35C219.33,128.35 219.84,128.35 220.36,128.35C220.88,128.35 221.39,128.36 221.91,128.37C222.43,128.38 222.94,128.38 223.46,128.39C223.98,128.4 224.49,128.4 225.01,128.41C225.53,128.41 226.04,128.42 226.56,128.42C227.07,128.42 227.59,128.42 228.1,128.42C228.62,128.42 229.13,128.42 229.65,128.42C230.17,128.42 230.68,128.41 231.2,128.41C231.72,128.41 232.23,128.41 232.75,128.42C233.27,128.43 233.78,128.44 234.3,128.45C234.82,128.46 235.33,128.48 235.85,128.5C236.37,128.52 236.88,128.53 237.4,128.55C237.91,128.57 238.43,128.59 238.94,128.6C239.46,128.61 239.97,128.62 240.49,128.63C241.01,128.64 241.52,128.65 242.04,128.65C242.56,128.65 243.07,128.64 243.59,128.64C244.11,128.63 244.62,128.63 245.14,128.62C245.66,128.61 246.17,128.6 246.69,128.59C247.21,128.58 247.72,128.58 248.24,128.57C248.75,128.56 249.27,128.55 249.78,128.55C250.3,128.54 250.81,128.54 251.33,128.54C251.85,128.54 252.36,128.54 252.88,128.54C253.4,128.54 253.91,128.54 254.43,128.55C254.95,128.56 255.46,128.57 255.98,128.58C256.5,128.59 257.01,128.61 257.53,128.63C258.04,128.65 258.56,128.66 259.07,128.68C259.59,128.7 260.1,128.71 260.62,128.73C261.14,128.75 261.65,128.77 262.17,128.79C262.69,128.81 263.2,128.82 263.72,128.83C264.24,128.84 264.75,128.86 265.27,128.87C265.79,128.88 266.3,128.88 266.82,128.89C267.34,128.89 267.85,128.9 268.37,128.9C268.88,128.9 269.4,128.9 269.91,128.9C270.43,128.9 270.94,128.9 271.46,128.9C271.98,128.9 272.49,128.9 273.01,128.9C273.53,128.9 274.04,128.89 274.56,128.89C275.08,128.89 275.59,128.9 276.11,128.9C276.63,128.9 277.14,128.91 277.66,128.91C278.18,128.92 278.69,128.92 279.21,128.93C279.72,128.94 280.24,128.94 280.75,128.95C281.27,128.96 281.78,128.97 282.3,128.98C282.82,128.99 283.33,128.99 283.85,129C284.37,129 284.88,129.01 285.4,129.01C285.92,129.01 286.43,129.02 286.95,129.02C287.47,129.02 287.98,129.03 288.5,129.03C289.02,129.03 289.53,129.03 290.05,129.03C290.56,129.03 291.08,129.02 291.59,129.02C292.11,129.02 292.62,129.01 293.14,129.01C293.66,129 294.17,129 294.69,128.99C295.21,128.99 295.72,128.98 296.24,128.98C296.76,128.97 297.27,128.97 297.79,128.96C298.31,128.95 298.82,128.95 299.34,128.94C299.86,128.94 300.37,128.93 300.89,128.93C301.4,128.93 301.92,128.92 302.43,128.92C302.95,128.92 303.46,128.92 303.98,128.92C304.5,128.92 305.01,128.93 305.53,128.93C306.05,128.93 306.56,128.93 307.08,128.93C307.6,128.93 308.11,128.94 308.63,128.94C309.15,128.94 309.66,128.94 310.18,128.94C310.7,128.94 311.21,128.93 311.73,128.93C312.24,128.93 312.76,128.92 313.27,128.92C313.79,128.92 314.3,128.92 314.82,128.92C315.34,128.92 315.85,128.91 316.37,128.91C316.89,128.91 317.4,128.9 317.92,128.9C318.44,128.9 318.95,128.9 319.47,128.9C319.99,128.9 320.5,128.9 321.02,128.9C321.53,128.9 322.05,128.9 322.56,128.9C323.08,128.9 323.59,128.9 324.11,128.9C324.63,128.9 325.14,128.9 325.66,128.9C326.18,128.9 326.69,128.89 327.21,128.89C327.73,128.89 328.24,128.89 328.76,128.89C329.28,128.89 329.79,128.89 330.31,128.89C330.83,128.89 331.34,128.89 331.86,128.89C332.37,128.89 332.89,128.89 333.4,128.89C333.92,128.89 334.43,128.9 334.95,128.9C335.47,128.91 335.98,128.91 336.5,128.92C337.02,128.92 337.53,128.93 338.05,128.93C338.57,128.93 339.08,128.94 339.6,128.94C340.12,128.94 340.63,128.93 341.15,128.93C341.67,128.93 342.18,128.93 342.7,128.92C343.21,128.92 343.73,128.91 344.24,128.9C344.76,128.89 345.27,128.89 345.79,128.88C346.31,128.88 346.82,128.87 347.34,128.87C347.86,128.87 348.37,128.86 348.89,128.86C349.41,128.86 349.92,128.87 350.44,128.87C350.96,128.87 351.47,128.88 351.99,128.88C352.51,128.89 353.02,128.89 353.54,128.9C354.05,128.91 354.57,128.92 355.08,128.92C355.6,128.93 356.11,128.93 356.63,128.93C357.15,128.93 357.66,128.94 358.18,128.94C358.7,128.94 359.21,128.95 359.73,128.95C360.25,128.95 360.76,128.95 361.28,128.95C361.8,128.95 362.31,128.95 362.83,128.95C363.35,128.95 363.86,128.95 364.38,128.95C364.89,128.95 365.41,128.96 365.92,128.96C366.44,128.96 366.95,128.97 367.47,128.97C367.99,128.97 368.5,128.98 369.02,128.98C369.54,128.98 370.05,128.99 370.57,128.99C371.09,128.99 371.6,128.99 372.12,128.99C372.64,128.99 373.15,129 373.67,129C374.19,129 374.7,128.99 375.22,128.99C375.73,128.99 376.25,128.98 376.76,128.98C377.28,128.98 377.79,128.97 378.31,128.97C378.83,128.97 379.34,128.96 379.86,128.96C380.38,128.96 380.89,128.95 381.41,128.95C381.93,128.95 382.44,128.94 382.96,128.94C383.48,128.94 383.99,128.94 384.51,128.94C385.02,128.94 385.54,128.94 386.05,128.94C386.57,128.94 387.08,128.95 387.6,128.95C388.12,128.95 388.63,128.96 389.15,128.96C389.67,128.96 390.18,128.96 390.7,128.96C391.22,128.96 391.73,128.97 392.25,128.97C392.77,128.97 393.28,128.97 393.8,128.97C394.32,128.97 394.83,128.97 395.35,128.97C395.86,128.97 396.38,128.96 396.89,128.96C397.41,128.96 397.92,128.97 398.44,128.97C398.96,128.97 399.47,128.97 399.99,128.97C400.51,128.97 401.02,128.97 401.54,128.97C402.06,128.97 402.57,128.97 403.09,128.97C403.61,128.97 404.12,128.97 404.64,128.97C405.16,128.97 405.67,128.97 406.19,128.97C406.7,128.97 407.22,128.97 407.73,128.97C408.25,128.97 408.76,128.98 409.28,128.98C409.8,128.98 410.31,128.99 410.83,128.99C411.35,128.99 411.86,129 412.38,129C412.9,129 413.41,129.01 413.93,129.01C414.45,129.01 414.96,129.02 415.48,129.02C416,129.02 416.51,129.03 417.03,129.03C417.54,129.03 418.06,129.03 418.57,129.03C419.09,129.03 419.6,129.03 420.12,129.03C420.64,129.03 421.15,129.03 421.67,129.03C422.19,129.03 422.7,129.03 423.22,129.03C423.74,129.03 424.25,129.03 424.77,129.03C425.29,129.03 425.8,129.03 426.32,129.03C426.84,129.03 427.35,129.03 427.87,129.03C428.38,129.03 428.9,129.03 429.41,129.03C429.93,129.03 430.44,129.03 430.96,129.03C431.48,129.03 431.99,129.03 432.51,129.03C433.03,129.03 433.54,129.03 434.06,129.03C434.58,129.03 435.09,129.02 435.61,129.02C436.13,129.02 436.64,129.01 437.16,129.01C437.68,129.01 438.19,129 438.71,129C439.22,129 439.74,128.99 440.25,128.99C440.77,128.99 441.28,128.98 441.8,128.98C442.32,128.98 442.83,128.98 443.35,128.98C443.87,128.98 444.38,128.98 444.9,128.98C445.42,128.98 445.93,128.98 446.45,128.98C446.97,128.98 447.48,128.99 448,128.99C448.51,128.99 449.03,129 449.54,129C450.06,129 450.57,129 451.09,129C451.61,129 452.12,128.99 452.64,128.99C453.16,128.99 453.67,128.99 454.19,128.99C454.71,128.99 455.22,128.98 455.74,128.98C456.26,128.98 456.77,128.98 457.29,128.98C457.81,128.98 458.32,128.98 458.84,128.98C459.35,128.98 459.87,128.98 460.38,128.98C460.9,128.98 461.41,128.99 461.93,129C462.45,129 462.96,129.01 463.48,129.01C464,129.01 464.51,129.01 465.03,129.01C465.55,129.01 466.06,129.02 466.58,129.02C467.1,129.02 467.61,129.02 468.13,129.02C468.65,129.02 469.16,129.01 469.68,129.01C470.19,129.01 470.71,129 471.22,129C471.74,129 472.25,128.99 472.77,128.99C473.29,128.99 473.8,128.98 474.32,128.98C474.84,128.98 475.35,128.98 475.87,128.98C476.39,128.98 476.9,128.98 477.42,128.98C477.94,128.98 478.45,128.99 478.97,128.99C479.49,128.99 480,129 480.52,129C481.03,129 481.55,129.01 482.06,129.01C482.58,129.01 483.09,129.02 483.61,129.02Q484.13,129.02 485.16,129.03L485.16,129.03" style="vector-effect: none; stroke-width: 2px; stroke: rgb(52, 152, 124); stroke-opacity: 1; fill: rgb(65, 190, 155); fill-opacity: 0.5;"/><path class="meanline" d="M88.37,98.15283966064453V129.03" style="fill: none; vector-effect: none; stroke-width: 2px; stroke-dasharray: 4px, 2px; stroke: rgb(52, 152, 124); stroke-opacity: 1;"/></g><g class="trace violins" style="opacity: 1;"><path class="violin" d="M40.92,107.02L40.92,105.76Q42.54,104.97 43.29,104.39C44.12,103.75 44.92,102.94 45.66,102.01C46.51,100.95 47.29,99.66 48.03,98.29C48.88,96.72 49.65,94.93 50.4,93.07C51.23,91.01 52,88.74 52.77,86.46C53.59,84.03 54.35,81.44 55.14,78.91C55.93,76.35 56.7,73.69 57.51,71.17C58.28,68.75 59.05,66.31 59.88,64.09C60.63,62.07 61.38,60.08 62.24,58.38C62.98,56.92 63.73,55.51 64.61,54.46C65.34,53.59 66.13,52.81 66.98,52.4C67.72,52.04 68.57,51.92 69.35,51.98C70.15,52.04 70.95,52.41 71.72,52.79C72.54,53.2 73.32,53.8 74.09,54.38C74.9,54.99 75.68,55.69 76.46,56.38C77.26,57.08 78.04,57.81 78.83,58.53C79.62,59.25 80.41,59.98 81.2,60.7C81.99,61.42 82.78,62.13 83.57,62.84C84.36,63.55 85.15,64.25 85.94,64.95C86.73,65.65 87.52,66.35 88.31,67.04C89.1,67.73 89.89,68.41 90.68,69.1C91.47,69.78 92.26,70.47 93.05,71.15C93.84,71.83 94.63,72.5 95.42,73.18C96.21,73.86 97,74.53 97.79,75.21C98.58,75.89 99.37,76.56 100.16,77.24C100.95,77.91 101.74,78.59 102.53,79.26C103.32,79.92 104.11,80.58 104.9,81.23C105.69,81.87 106.48,82.5 107.27,83.12C108.05,83.73 108.84,84.32 109.63,84.9C110.41,85.47 111.2,86.03 112,86.56C112.79,87.09 113.58,87.6 114.37,88.09C115.16,88.58 115.95,89.05 116.74,89.5C117.53,89.95 118.32,90.38 119.11,90.8C119.9,91.22 120.69,91.62 121.48,92.01C122.27,92.39 123.06,92.77 123.85,93.12C124.64,93.47 125.43,93.81 126.22,94.12C127.01,94.43 127.8,94.73 128.59,94.99C129.38,95.25 130.17,95.48 130.96,95.69C131.75,95.9 132.54,96.08 133.33,96.25C134.12,96.42 134.91,96.57 135.7,96.72C136.49,96.87 137.28,97.01 138.07,97.16C138.86,97.31 139.65,97.47 140.44,97.64C141.23,97.81 142.02,97.99 142.81,98.17C143.6,98.36 144.39,98.56 145.18,98.75C145.97,98.94 146.76,99.14 147.55,99.33C148.34,99.52 149.13,99.71 149.92,99.89C150.71,100.07 151.5,100.23 152.29,100.39C153.08,100.55 153.87,100.7 154.66,100.83C155.45,100.96 156.24,101.08 157.03,101.19C157.82,101.3 158.6,101.41 159.39,101.5C160.18,101.59 160.97,101.67 161.76,101.74C162.55,101.81 163.34,101.87 164.13,101.93C164.92,101.99 165.71,102.05 166.5,102.1C167.29,102.15 168.08,102.2 168.87,102.25C169.66,102.3 170.45,102.35 171.24,102.4C172.03,102.45 172.82,102.5 173.61,102.56C174.4,102.62 175.19,102.68 175.98,102.74C176.77,102.8 177.56,102.86 178.35,102.93C179.14,103 179.93,103.07 180.72,103.14C181.51,103.21 182.3,103.28 183.09,103.35C183.88,103.42 184.67,103.48 185.46,103.54C186.25,103.6 187.04,103.64 187.83,103.69C188.62,103.73 189.41,103.77 190.2,103.81C190.99,103.84 191.78,103.87 192.57,103.9C193.36,103.93 194.15,103.95 194.94,103.97C195.73,104 196.52,104.02 197.31,104.05C198.1,104.08 198.89,104.1 199.68,104.13C200.47,104.16 201.26,104.21 202.05,104.25C202.84,104.29 203.63,104.34 204.42,104.39C205.21,104.44 205.99,104.49 206.78,104.54C207.57,104.59 208.36,104.64 209.15,104.69C209.94,104.74 210.73,104.78 211.52,104.82C212.31,104.86 213.1,104.88 213.89,104.91C214.68,104.93 215.47,104.95 216.26,104.97C217.05,104.99 217.84,105 218.63,105.02C219.42,105.04 220.21,105.06 221,105.08C221.79,105.11 222.58,105.13 223.37,105.17C224.16,105.21 224.95,105.25 225.74,105.3C226.53,105.35 227.32,105.41 228.11,105.46C228.9,105.52 229.69,105.57 230.48,105.63C231.27,105.69 232.06,105.75 232.85,105.8C233.64,105.85 234.43,105.89 235.22,105.93C236.01,105.96 236.8,105.99 237.59,106.01C238.38,106.03 239.17,106.03 239.96,106.04C240.75,106.05 241.54,106.05 242.33,106.05C243.12,106.05 243.91,106.05 244.7,106.05C245.49,106.05 246.28,106.05 247.07,106.06C247.86,106.07 248.65,106.08 249.44,106.09C250.23,106.1 251.02,106.11 251.81,106.13C252.6,106.14 253.38,106.17 254.17,106.18C254.96,106.19 255.75,106.2 256.54,106.21C257.33,106.22 258.12,106.23 258.91,106.24C259.7,106.25 260.49,106.26 261.28,106.27C262.07,106.28 262.86,106.29 263.65,106.3C264.44,106.31 265.23,106.32 266.02,106.34C266.81,106.36 267.6,106.38 268.39,106.4C269.18,106.42 269.97,106.44 270.76,106.46C271.55,106.48 272.34,106.5 273.13,106.52C273.92,106.54 274.71,106.56 275.5,106.57C276.29,106.58 277.08,106.59 277.87,106.6C278.66,106.61 279.45,106.61 280.24,106.61C281.03,106.61 281.82,106.61 282.61,106.61C283.4,106.61 284.19,106.61 284.98,106.61C285.77,106.61 286.56,106.62 287.35,106.63C288.14,106.64 288.93,106.65 289.72,106.66C290.51,106.67 291.3,106.69 292.09,106.7C292.88,106.71 293.67,106.73 294.46,106.74C295.25,106.75 296.04,106.77 296.83,106.78C297.62,106.79 298.41,106.8 299.2,106.81C299.99,106.82 300.78,106.82 301.57,106.82C302.36,106.82 303.14,106.83 303.93,106.83C304.72,106.83 305.51,106.84 306.3,106.84C307.09,106.84 307.88,106.85 308.67,106.85C309.46,106.86 310.25,106.86 311.04,106.87C311.83,106.88 312.62,106.89 313.41,106.9C314.2,106.91 314.99,106.92 315.78,106.93C316.57,106.94 317.36,106.94 318.15,106.94C318.94,106.94 319.73,106.94 320.52,106.94C321.31,106.94 322.1,106.94 322.89,106.93C323.68,106.92 324.47,106.91 325.26,106.9C326.05,106.89 326.84,106.87 327.63,106.86C328.42,106.85 329.21,106.84 330,106.83C330.79,106.82 331.58,106.81 332.37,106.8C333.16,106.79 333.95,106.79 334.74,106.79C335.53,106.79 336.32,106.8 337.11,106.8C337.9,106.81 338.69,106.81 339.48,106.82C340.27,106.83 341.06,106.83 341.85,106.84C342.64,106.85 343.43,106.85 344.22,106.86C345.01,106.86 345.8,106.87 346.59,106.87C347.38,106.87 348.17,106.88 348.96,106.88C349.75,106.88 350.53,106.88 351.32,106.88C352.11,106.88 352.9,106.88 353.69,106.88C354.48,106.88 355.27,106.89 356.06,106.89C356.85,106.89 357.64,106.89 358.43,106.89C359.22,106.89 360.01,106.9 360.8,106.9C361.59,106.9 362.38,106.9 363.17,106.9C363.96,106.9 364.75,106.91 365.54,106.91C366.33,106.91 367.12,106.91 367.91,106.91C368.7,106.91 369.49,106.91 370.28,106.91C371.07,106.91 371.86,106.9 372.65,106.9C373.44,106.9 374.23,106.89 375.02,106.89C375.81,106.88 376.6,106.88 377.39,106.87C378.18,106.86 378.97,106.86 379.76,106.85C380.55,106.84 381.34,106.83 382.13,106.82C382.92,106.81 383.71,106.8 384.5,106.79C385.29,106.78 386.08,106.77 386.87,106.77C387.66,106.77 388.45,106.77 389.24,106.77C390.03,106.77 390.82,106.78 391.61,106.79C392.4,106.8 393.19,106.82 393.98,106.83C394.77,106.84 395.56,106.86 396.35,106.87C397.14,106.88 397.92,106.9 398.71,106.91C399.5,106.92 400.29,106.93 401.08,106.93C401.87,106.93 402.66,106.93 403.45,106.93C404.24,106.93 405.03,106.93 405.82,106.92C406.61,106.91 407.4,106.9 408.19,106.89C408.98,106.88 409.77,106.87 410.56,106.86C411.35,106.85 412.14,106.83 412.93,106.82C413.72,106.81 414.51,106.81 415.3,106.8C416.09,106.8 416.88,106.79 417.67,106.79C418.46,106.79 419.25,106.78 420.04,106.78C420.83,106.78 421.62,106.79 422.41,106.79C423.2,106.79 423.99,106.79 424.78,106.8C425.57,106.81 426.36,106.82 427.15,106.83C427.94,106.84 428.73,106.86 429.52,106.87C430.31,106.88 431.1,106.9 431.89,106.91C432.68,106.92 433.47,106.93 434.26,106.94C435.05,106.95 435.84,106.96 436.63,106.97C437.42,106.98 438.21,106.98 439,106.99C439.79,107 440.58,107.01 441.37,107.01C442.16,107.01 442.95,107.01 443.74,107.01C444.53,107.01 445.31,107.02 446.1,107.02C446.89,107.02 447.68,107.02 448.47,107.02C449.26,107.02 450.05,107.01 450.84,107.01C451.63,107.01 452.42,107.01 453.21,107.01C454,107.01 454.79,107 455.58,107C456.37,107 457.16,106.99 457.95,106.99C458.74,106.98 459.53,106.98 460.32,106.97C461.11,106.97 461.9,106.96 462.69,106.96C463.48,106.95 464.27,106.94 465.06,106.94C465.85,106.94 466.64,106.94 467.43,106.94C468.22,106.94 469.01,106.94 469.8,106.94C470.59,106.94 471.38,106.95 472.17,106.95C472.96,106.96 473.75,106.96 474.54,106.97C475.33,106.97 476.12,106.98 476.91,106.98C477.7,106.98 478.49,106.99 479.28,106.99C480.07,106.99 480.86,106.99 481.65,106.99C482.44,106.99 483.23,106.98 484.02,106.98C484.81,106.98 485.6,106.97 486.39,106.97C487.18,106.97 487.97,106.96 488.76,106.96C489.55,106.95 490.34,106.94 491.13,106.94C491.92,106.94 492.71,106.94 493.5,106.94C494.29,106.94 495.07,106.94 495.86,106.94C496.65,106.94 497.44,106.95 498.23,106.95C499.02,106.96 499.81,106.96 500.6,106.97C501.39,106.97 502.18,106.98 502.97,106.98C503.76,106.99 504.55,106.99 505.34,107C506.13,107 506.92,107.01 507.71,107.01C508.5,107.01 509.29,107.01 510.08,107.01C510.87,107.01 511.66,107.02 512.45,107.02C513.24,107.02 514.03,107.02 514.82,107.02C515.61,107.02 516.4,107.02 517.19,107.02C517.98,107.02 518.77,107.02 519.56,107.02C520.35,107.02 521.14,107.02 521.93,107.02C522.72,107.02 523.51,107.02 524.3,107.02C525.09,107.02 525.88,107.02 526.67,107.02C527.46,107.02 528.25,107.02 529.04,107.02C529.83,107.02 530.62,107.02 531.41,107.02C532.2,107.02 532.99,107.02 533.78,107.02C534.57,107.02 535.36,107.02 536.15,107.02C536.94,107.02 537.73,107.02 538.52,107.02C539.31,107.02 540.1,107.02 540.89,107.02C541.68,107.02 542.46,107.02 543.25,107.02C544.04,107.02 544.83,107.02 545.62,107.02C546.41,107.02 547.2,107.02 547.99,107.02C548.78,107.02 549.57,107.02 550.36,107.02C551.15,107.02 551.94,107.02 552.73,107.02C553.52,107.02 554.31,107.02 555.1,107.02C555.89,107.02 556.68,107.02 557.47,107.02C558.26,107.02 559.05,107.02 559.84,107.02C560.63,107.02 561.42,107.02 562.21,107.02C563,107.02 563.79,107.02 564.58,107.02C565.37,107.02 566.16,107.02 566.95,107.02C567.74,107.02 568.53,107.02 569.32,107.02C570.11,107.02 570.9,107.02 571.69,107.02C572.48,107.02 573.27,107.02 574.06,107.02C574.85,107.02 575.64,107.02 576.43,107.02C577.22,107.02 578.01,107.02 578.8,107.02C579.59,107.02 580.38,107.02 581.17,107.02C581.96,107.02 582.75,107.02 583.54,107.02C584.33,107.02 585.12,107.02 585.91,107.02C586.7,107.02 587.49,107.02 588.28,107.02C589.07,107.02 589.85,107.02 590.64,107.02C591.43,107.02 592.22,107.02 593.01,107.02C593.8,107.02 594.59,107.02 595.38,107.02C596.17,107.02 596.96,107.02 597.75,107.02C598.54,107.02 599.33,107.02 600.12,107.02C600.91,107.02 601.7,107.02 602.49,107.02C603.28,107.02 604.07,107.02 604.86,107.02C605.65,107.02 606.44,107.02 607.23,107.02C608.02,107.02 608.81,107.02 609.6,107.02C610.39,107.02 611.18,107.02 611.97,107.02C612.76,107.02 613.55,107.02 614.34,107.02C615.13,107.02 615.92,107.02 616.71,107.02C617.5,107.02 618.29,107.01 619.08,107.01C619.87,107.01 620.66,107.01 621.45,107.01C622.24,107.01 623.03,107 623.82,107C624.61,107 625.4,106.99 626.19,106.99C626.98,106.98 627.77,106.98 628.56,106.97C629.35,106.96 630.14,106.96 630.93,106.95C631.72,106.95 632.51,106.94 633.3,106.94C634.09,106.94 634.88,106.94 635.67,106.94C636.46,106.94 637.25,106.94 638.04,106.94C638.83,106.94 639.61,106.95 640.4,106.95C641.19,106.96 641.98,106.96 642.77,106.97C643.56,106.98 644.35,106.98 645.14,106.99C645.93,106.99 646.72,107 647.51,107Q648.3,107 649.88,107.01L649.88,107.02" style="vector-effect: none; stroke-width: 2px; stroke: rgb(70, 29, 175); stroke-opacity: 1; fill: rgb(88, 36, 219); fill-opacity: 0.5;"/><path class="meanline" d="M99.54,76.70826721191406V107.02" style="fill: none; vector-effect: none; stroke-width: 2px; stroke-dasharray: 4px, 2px; stroke: rgb(70, 29, 175); stroke-opacity: 1;"/></g><g class="trace violins" style="opacity: 1;"><path class="violin" d="M40,85L40,84.72Q41.46,84.52 42.18,84.34C42.91,84.15 43.65,83.93 44.36,83.6C45.11,83.25 45.84,82.81 46.54,82.26C47.3,81.66 48.03,80.91 48.72,80.08C49.49,79.14 50.21,78.04 50.9,76.86C51.67,75.54 52.39,74.06 53.09,72.52C53.85,70.85 54.56,69.03 55.27,67.19C56.02,65.25 56.73,63.2 57.45,61.18C58.18,59.13 58.9,57.01 59.63,54.96C60.35,52.94 61.07,50.91 61.81,48.98C62.52,47.14 63.24,45.32 63.99,43.62C64.69,42.04 65.41,40.5 66.17,39.1C66.87,37.81 67.58,36.59 68.35,35.5C69.04,34.51 69.76,33.58 70.53,32.81C71.22,32.11 71.95,31.47 72.71,31.01C73.41,30.59 74.15,30.25 74.89,30.08C75.6,29.92 76.36,29.89 77.08,29.97C77.81,30.05 78.55,30.3 79.26,30.59C80,30.9 80.73,31.34 81.44,31.79C82.18,32.26 82.9,32.82 83.62,33.38C84.36,33.95 85.08,34.57 85.8,35.19C86.53,35.81 87.26,36.46 87.98,37.1C88.71,37.75 89.43,38.4 90.16,39.06C90.89,39.72 91.61,40.39 92.34,41.06C93.07,41.73 93.79,42.4 94.52,43.06C95.24,43.71 95.97,44.37 96.7,45C97.42,45.62 98.15,46.21 98.89,46.79C99.61,47.35 100.34,47.9 101.07,48.42C101.79,48.94 102.52,49.41 103.25,49.91C103.98,50.4 104.71,50.88 105.43,51.39C106.16,51.9 106.89,52.42 107.61,52.97C108.34,53.53 109.07,54.13 109.79,54.74C110.52,55.37 111.25,56.03 111.97,56.69C112.7,57.36 113.42,58.06 114.15,58.73C114.88,59.4 115.6,60.09 116.33,60.73C117.05,61.36 117.77,61.97 118.51,62.54C119.23,63.09 119.95,63.61 120.69,64.09C121.41,64.55 122.14,64.97 122.88,65.36C123.6,65.74 124.33,66.09 125.06,66.42C125.78,66.75 126.51,67.05 127.24,67.36C127.97,67.67 128.69,67.97 129.42,68.29C130.15,68.61 130.87,68.94 131.6,69.27C132.33,69.6 133.05,69.95 133.78,70.29C134.51,70.64 135.23,70.99 135.96,71.34C136.69,71.68 137.41,72.03 138.14,72.36C138.87,72.69 139.59,73.02 140.32,73.33C141.04,73.64 141.77,73.95 142.5,74.23C143.22,74.51 143.95,74.78 144.68,75.03C145.41,75.28 146.14,75.51 146.87,75.72C147.6,75.93 148.32,76.13 149.05,76.31C149.77,76.49 150.5,76.64 151.23,76.79C151.96,76.94 152.68,77.06 153.41,77.19C154.14,77.31 154.86,77.43 155.59,77.54C156.32,77.65 157.04,77.76 157.77,77.86C158.5,77.96 159.22,78.06 159.95,78.15C160.68,78.24 161.4,78.32 162.13,78.41C162.86,78.49 163.58,78.58 164.31,78.66C165.04,78.74 165.76,78.82 166.49,78.9C167.22,78.98 167.94,79.06 168.67,79.15C169.4,79.24 170.13,79.34 170.86,79.44C171.59,79.54 172.31,79.65 173.04,79.76C173.77,79.87 174.49,79.99 175.22,80.11C175.95,80.23 176.67,80.35 177.4,80.46C178.13,80.57 178.85,80.68 179.58,80.78C180.31,80.88 181.03,80.97 181.76,81.06C182.49,81.15 183.21,81.22 183.94,81.3C184.67,81.37 185.39,81.44 186.12,81.51C186.85,81.58 187.57,81.65 188.3,81.73C189.03,81.81 189.75,81.89 190.48,81.97C191.21,82.05 191.93,82.13 192.66,82.21C193.39,82.29 194.12,82.38 194.85,82.46C195.58,82.54 196.3,82.61 197.03,82.67C197.76,82.73 198.48,82.78 199.21,82.83C199.94,82.87 200.66,82.91 201.39,82.94C202.12,82.97 202.84,82.98 203.57,83C204.3,83.02 205.02,83.03 205.75,83.04C206.48,83.06 207.2,83.07 207.93,83.09C208.66,83.11 209.38,83.14 210.11,83.17C210.84,83.2 211.56,83.23 212.29,83.26C213.02,83.29 213.74,83.33 214.47,83.36C215.2,83.39 215.93,83.42 216.66,83.44C217.39,83.46 218.11,83.49 218.84,83.5C219.57,83.51 220.29,83.51 221.02,83.52C221.75,83.52 222.47,83.53 223.2,83.53C223.93,83.53 224.65,83.53 225.38,83.54C226.11,83.55 226.83,83.56 227.56,83.57C228.29,83.58 229.01,83.6 229.74,83.62C230.47,83.64 231.19,83.67 231.92,83.69C232.65,83.71 233.37,83.73 234.1,83.75C234.83,83.77 235.55,83.79 236.28,83.81C237.01,83.82 237.73,83.83 238.46,83.84C239.19,83.85 239.92,83.85 240.65,83.86C241.38,83.86 242.1,83.87 242.83,83.87C243.56,83.87 244.28,83.88 245.01,83.88C245.74,83.89 246.46,83.89 247.19,83.9C247.92,83.91 248.64,83.93 249.37,83.94C250.1,83.96 250.82,83.97 251.55,83.99C252.28,84.01 253,84.04 253.73,84.06C254.46,84.08 255.18,84.1 255.91,84.13C256.64,84.16 257.36,84.19 258.09,84.22C258.82,84.25 259.54,84.27 260.27,84.3C261,84.33 261.72,84.36 262.45,84.38C263.18,84.4 263.91,84.42 264.64,84.44C265.37,84.46 266.09,84.47 266.82,84.49C267.55,84.5 268.27,84.52 269,84.53C269.73,84.54 270.45,84.56 271.18,84.57C271.91,84.58 272.63,84.6 273.36,84.61C274.09,84.62 274.81,84.64 275.54,84.65C276.27,84.67 276.99,84.69 277.72,84.7C278.45,84.71 279.17,84.72 279.9,84.73C280.63,84.74 281.35,84.75 282.08,84.75C282.81,84.75 283.53,84.75 284.26,84.75C284.99,84.75 285.71,84.74 286.44,84.73C287.17,84.72 287.9,84.7 288.63,84.69C289.36,84.68 290.08,84.67 290.81,84.65C291.54,84.63 292.26,84.61 292.99,84.59C293.72,84.57 294.44,84.56 295.17,84.54C295.9,84.53 296.62,84.51 297.35,84.5C298.08,84.49 298.8,84.48 299.53,84.48C300.26,84.48 300.98,84.48 301.71,84.48C302.44,84.48 303.16,84.49 303.89,84.5C304.62,84.51 305.34,84.52 306.07,84.53C306.8,84.54 307.52,84.55 308.25,84.55C308.98,84.56 309.71,84.56 310.44,84.56C311.17,84.56 311.89,84.57 312.62,84.57C313.35,84.57 314.07,84.56 314.8,84.56C315.53,84.56 316.25,84.56 316.98,84.56C317.71,84.56 318.43,84.57 319.16,84.58C319.89,84.59 320.61,84.6 321.34,84.61C322.07,84.62 322.79,84.63 323.52,84.65C324.25,84.67 324.97,84.69 325.7,84.71C326.43,84.73 327.15,84.74 327.88,84.76C328.61,84.77 329.33,84.79 330.06,84.8C330.79,84.81 331.51,84.82 332.24,84.82C332.97,84.82 333.7,84.82 334.43,84.81C335.16,84.81 335.88,84.8 336.61,84.79C337.34,84.78 338.06,84.78 338.79,84.77C339.52,84.76 340.24,84.75 340.97,84.75C341.7,84.75 342.42,84.75 343.15,84.75C343.88,84.75 344.6,84.76 345.33,84.77C346.06,84.78 346.78,84.79 347.51,84.8C348.24,84.81 348.96,84.82 349.69,84.83C350.42,84.84 351.14,84.85 351.87,84.86C352.6,84.87 353.32,84.87 354.05,84.88C354.78,84.89 355.5,84.9 356.23,84.9C356.96,84.91 357.69,84.91 358.42,84.91C359.15,84.91 359.87,84.92 360.6,84.92C361.33,84.92 362.05,84.93 362.78,84.93C363.51,84.93 364.23,84.93 364.96,84.93C365.69,84.93 366.41,84.92 367.14,84.92C367.87,84.92 368.59,84.92 369.32,84.92C370.05,84.92 370.77,84.92 371.5,84.92C372.23,84.92 372.95,84.93 373.68,84.93C374.41,84.93 375.13,84.94 375.86,84.94C376.59,84.95 377.31,84.95 378.04,84.96C378.77,84.97 379.49,84.98 380.22,84.98C380.95,84.99 381.68,84.99 382.41,84.99C383.14,84.99 383.86,85 384.59,85C385.32,85 386.04,85 386.77,85C387.5,85 388.22,85 388.95,85C389.68,85 390.4,85 391.13,85C391.86,85 392.58,85 393.31,85C394.04,85 394.76,85 395.49,85C396.22,85 396.94,85 397.67,85C398.4,85 399.12,85 399.85,85C400.58,85 401.3,85 402.03,85C402.76,85 403.49,85 404.22,84.99C404.95,84.99 405.67,84.98 406.4,84.97C407.13,84.96 407.85,84.96 408.58,84.95C409.31,84.94 410.03,84.93 410.76,84.92C411.49,84.91 412.21,84.9 412.94,84.89C413.67,84.88 414.39,84.87 415.12,84.86C415.85,84.85 416.57,84.84 417.3,84.84C418.03,84.84 418.75,84.84 419.48,84.84C420.21,84.84 420.93,84.85 421.66,84.85C422.39,84.85 423.11,84.86 423.84,84.86C424.57,84.86 425.29,84.87 426.02,84.87C426.75,84.87 427.48,84.88 428.21,84.88C428.94,84.88 429.66,84.87 430.39,84.87C431.12,84.87 431.84,84.86 432.57,84.86C433.3,84.86 434.02,84.86 434.75,84.86C435.48,84.86 436.2,84.86 436.93,84.86C437.66,84.86 438.38,84.87 439.11,84.87C439.84,84.88 440.56,84.88 441.29,84.89C442.02,84.9 442.74,84.9 443.47,84.91C444.2,84.92 444.92,84.93 445.65,84.94C446.38,84.95 447.1,84.95 447.83,84.96C448.56,84.97 449.28,84.98 450.01,84.98C450.74,84.99 451.47,84.99 452.2,84.99C452.93,84.99 453.65,84.99 454.38,84.99C455.11,84.99 455.83,84.99 456.56,84.99C457.29,84.99 458.01,84.98 458.74,84.98C459.47,84.98 460.19,84.97 460.92,84.97C461.65,84.97 462.37,84.96 463.1,84.96C463.83,84.95 464.55,84.95 465.28,84.94C466.01,84.94 466.73,84.93 467.46,84.93C468.19,84.93 468.91,84.92 469.64,84.92C470.37,84.92 471.09,84.93 471.82,84.93C472.55,84.93 473.27,84.94 474,84.94C474.73,84.94 475.46,84.94 476.19,84.95C476.92,84.95 477.64,84.96 478.37,84.97C479.1,84.97 479.82,84.98 480.55,84.98C481.28,84.98 482,84.98 482.73,84.98C483.46,84.98 484.18,84.97 484.91,84.97C485.64,84.97 486.36,84.96 487.09,84.96C487.82,84.95 488.54,84.95 489.27,84.94C490,84.93 490.72,84.92 491.45,84.91C492.18,84.9 492.9,84.89 493.63,84.88C494.36,84.87 495.08,84.87 495.81,84.86C496.54,84.86 497.26,84.85 497.99,84.85C498.72,84.85 499.45,84.85 500.18,84.86C500.91,84.86 501.63,84.87 502.36,84.88C503.09,84.89 503.81,84.89 504.54,84.9C505.27,84.91 505.99,84.92 506.72,84.93C507.45,84.94 508.17,84.95 508.9,84.96C509.63,84.97 510.35,84.97 511.08,84.98Q511.81,84.98 513.26,84.99L513.26,85" style="vector-effect: none; stroke-width: 2px; stroke: rgb(62, 142, 64); stroke-opacity: 1; fill: rgb(78, 177, 79); fill-opacity: 0.5;"/><path class="meanline" d="M103.06,49.780338287353516V85" style="fill: none; vector-effect: none; stroke-width: 2px; stroke-dasharray: 4px, 2px; stroke: rgb(62, 142, 64); stroke-opacity: 1;"/></g><g class="trace violins" style="opacity: 1;"><path class="violin" d="M40.03,62.99L40.03,61.55Q41.74,60.63 42.54,59.96C43.43,59.21 44.27,58.28 45.06,57.21C45.97,55.98 46.79,54.5 47.58,52.93C48.48,51.13 49.29,49.07 50.09,46.96C50.97,44.63 51.79,42.07 52.61,39.52C53.47,36.84 54.29,34 55.13,31.26C55.97,28.54 56.78,25.73 57.65,23.14C58.46,20.72 59.25,18.29 60.16,16.18C60.95,14.35 61.73,12.53 62.68,11.17C63.45,10.06 64.27,8.97 65.2,8.45C65.98,8.02 66.9,7.83 67.72,7.95C68.58,8.07 69.44,8.66 70.23,9.24C71.12,9.89 71.94,10.84 72.75,11.76C73.62,12.74 74.44,13.87 75.27,14.96C76.12,16.07 76.95,17.25 77.79,18.38C78.63,19.51 79.45,20.65 80.3,21.74C81.13,22.8 81.97,23.84 82.82,24.84C83.65,25.81 84.49,26.75 85.34,27.64C86.17,28.51 87.01,29.34 87.86,30.13C88.69,30.9 89.52,31.64 90.37,32.35C91.2,33.04 92.04,33.69 92.89,34.32C93.72,34.93 94.56,35.51 95.41,36.07C96.24,36.62 97.09,37.14 97.93,37.65C98.76,38.16 99.6,38.64 100.44,39.14C101.28,39.64 102.12,40.12 102.96,40.63C103.8,41.14 104.64,41.66 105.48,42.19C106.32,42.73 107.15,43.28 107.99,43.84C108.83,44.4 109.67,44.98 110.51,45.54C111.35,46.1 112.18,46.66 113.03,47.19C113.86,47.71 114.7,48.21 115.55,48.67C116.38,49.12 117.21,49.55 118.06,49.92C118.89,50.29 119.73,50.61 120.58,50.9C121.41,51.19 122.26,51.43 123.1,51.66C123.94,51.88 124.78,52.07 125.62,52.25C126.46,52.43 127.29,52.59 128.13,52.75C128.97,52.91 129.81,53.05 130.65,53.19C131.49,53.33 132.33,53.47 133.17,53.6C134.01,53.73 134.85,53.85 135.69,53.96C136.53,54.07 137.36,54.17 138.2,54.26C139.04,54.35 139.88,54.43 140.72,54.5C141.56,54.57 142.4,54.63 143.24,54.7C144.08,54.77 144.92,54.84 145.76,54.92C146.6,55 147.43,55.07 148.27,55.18C149.11,55.29 149.95,55.42 150.79,55.56C151.63,55.7 152.47,55.86 153.31,56.03C154.15,56.2 154.99,56.4 155.83,56.59C156.67,56.77 157.5,56.97 158.34,57.14C159.18,57.31 160.02,57.48 160.86,57.62C161.7,57.76 162.54,57.88 163.38,57.98C164.22,58.08 165.05,58.15 165.89,58.2C166.73,58.25 167.57,58.28 168.41,58.3C169.25,58.32 170.09,58.32 170.93,58.33C171.77,58.34 172.61,58.33 173.45,58.34C174.29,58.35 175.12,58.36 175.96,58.38C176.8,58.4 177.64,58.42 178.48,58.46C179.32,58.5 180.16,58.56 181,58.62C181.84,58.69 182.68,58.76 183.52,58.85C184.36,58.94 185.19,59.05 186.03,59.16C186.87,59.27 187.71,59.39 188.55,59.51C189.39,59.63 190.23,59.75 191.07,59.86C191.91,59.97 192.75,60.08 193.59,60.18C194.43,60.28 195.26,60.37 196.1,60.45C196.94,60.53 197.78,60.6 198.62,60.65C199.46,60.7 200.3,60.74 201.14,60.77C201.98,60.8 202.82,60.83 203.66,60.84C204.5,60.85 205.33,60.86 206.17,60.86C207.01,60.86 207.85,60.85 208.69,60.84C209.53,60.83 210.37,60.82 211.21,60.81C212.05,60.8 212.89,60.79 213.73,60.79C214.57,60.79 215.4,60.79 216.24,60.8C217.08,60.81 217.92,60.82 218.76,60.84C219.6,60.86 220.44,60.89 221.28,60.92C222.12,60.95 222.95,60.98 223.79,61.02C224.63,61.06 225.47,61.1 226.31,61.14C227.15,61.18 227.99,61.22 228.83,61.26C229.67,61.3 230.51,61.34 231.35,61.37C232.19,61.4 233.02,61.43 233.86,61.45C234.7,61.47 235.54,61.49 236.38,61.5C237.22,61.51 238.06,61.51 238.9,61.51C239.74,61.51 240.58,61.51 241.42,61.51C242.26,61.51 243.09,61.49 243.93,61.49C244.77,61.49 245.61,61.49 246.45,61.49C247.29,61.49 248.13,61.51 248.97,61.52C249.81,61.54 250.65,61.56 251.49,61.58C252.33,61.6 253.16,61.63 254,61.65C254.84,61.68 255.68,61.71 256.52,61.73C257.36,61.75 258.2,61.77 259.04,61.79C259.88,61.81 260.72,61.83 261.56,61.84C262.4,61.85 263.23,61.86 264.07,61.87C264.91,61.88 265.75,61.88 266.59,61.89C267.43,61.9 268.27,61.9 269.11,61.91C269.95,61.92 270.79,61.92 271.63,61.93C272.47,61.93 273.3,61.94 274.14,61.94C274.98,61.94 275.82,61.95 276.66,61.95C277.5,61.95 278.34,61.95 279.18,61.95C280.02,61.95 280.86,61.94 281.7,61.93C282.54,61.93 283.37,61.92 284.21,61.92C285.05,61.92 285.89,61.91 286.73,61.91C287.57,61.91 288.41,61.91 289.25,61.92C290.09,61.93 290.92,61.95 291.76,61.96C292.6,61.97 293.44,61.99 294.28,62C295.12,62.02 295.96,62.03 296.8,62.05C297.64,62.06 298.48,62.08 299.32,62.09C300.16,62.1 300.99,62.11 301.83,62.11C302.67,62.11 303.51,62.11 304.35,62.11C305.19,62.11 306.03,62.11 306.87,62.11C307.71,62.11 308.55,62.11 309.39,62.11C310.23,62.11 311.06,62.12 311.9,62.12C312.74,62.13 313.58,62.13 314.42,62.14C315.26,62.15 316.1,62.16 316.94,62.17C317.78,62.18 318.62,62.2 319.46,62.21C320.3,62.22 321.13,62.23 321.97,62.24C322.81,62.25 323.65,62.25 324.49,62.26C325.33,62.27 326.17,62.27 327.01,62.28C327.85,62.29 328.69,62.29 329.53,62.3C330.37,62.3 331.2,62.31 332.04,62.31C332.88,62.32 333.72,62.32 334.56,62.33C335.4,62.34 336.24,62.35 337.08,62.36C337.92,62.37 338.76,62.38 339.6,62.39C340.44,62.4 341.27,62.4 342.11,62.41C342.95,62.42 343.79,62.42 344.63,62.43C345.47,62.44 346.31,62.44 347.15,62.45C347.99,62.45 348.82,62.46 349.66,62.46C350.5,62.46 351.34,62.46 352.18,62.46C353.02,62.46 353.86,62.45 354.7,62.45C355.54,62.45 356.38,62.45 357.22,62.44C358.06,62.43 358.89,62.42 359.73,62.41C360.57,62.4 361.41,62.4 362.25,62.39C363.09,62.38 363.93,62.37 364.77,62.36C365.61,62.35 366.45,62.35 367.29,62.35C368.13,62.35 368.96,62.35 369.8,62.36C370.64,62.37 371.48,62.38 372.32,62.39C373.16,62.4 374,62.41 374.84,62.43C375.68,62.45 376.52,62.47 377.36,62.49C378.2,62.51 379.03,62.53 379.87,62.55C380.71,62.57 381.55,62.58 382.39,62.6C383.23,62.61 384.07,62.63 384.91,62.64C385.75,62.65 386.59,62.66 387.43,62.67C388.27,62.68 389.1,62.69 389.94,62.7C390.78,62.71 391.62,62.71 392.46,62.72C393.3,62.72 394.14,62.73 394.98,62.73C395.82,62.74 396.66,62.74 397.5,62.75C398.34,62.75 399.17,62.76 400.01,62.76C400.85,62.76 401.69,62.77 402.53,62.77C403.37,62.77 404.21,62.76 405.05,62.76C405.89,62.76 406.72,62.76 407.56,62.76C408.4,62.76 409.24,62.75 410.08,62.74C410.92,62.74 411.76,62.73 412.6,62.73C413.44,62.72 414.28,62.72 415.12,62.71C415.96,62.71 416.79,62.7 417.63,62.7C418.47,62.7 419.31,62.7 420.15,62.7C420.99,62.7 421.83,62.69 422.67,62.69C423.51,62.69 424.35,62.68 425.19,62.68C426.03,62.68 426.86,62.68 427.7,62.67C428.54,62.66 429.38,62.65 430.22,62.64C431.06,62.63 431.9,62.63 432.74,62.62C433.58,62.61 434.42,62.61 435.26,62.6C436.1,62.59 436.93,62.58 437.77,62.58C438.61,62.57 439.45,62.57 440.29,62.57C441.13,62.57 441.97,62.56 442.81,62.56C443.65,62.56 444.49,62.56 445.33,62.57C446.17,62.57 447,62.58 447.84,62.59C448.68,62.6 449.52,62.61 450.36,62.62C451.2,62.63 452.04,62.65 452.88,62.66C453.72,62.68 454.56,62.69 455.4,62.71C456.24,62.73 457.07,62.75 457.91,62.77C458.75,62.79 459.59,62.8 460.43,62.82C461.27,62.84 462.11,62.86 462.95,62.87C463.79,62.88 464.62,62.89 465.46,62.9C466.3,62.91 467.14,62.91 467.98,62.92C468.82,62.92 469.66,62.93 470.5,62.93C471.34,62.93 472.18,62.93 473.02,62.93C473.86,62.93 474.69,62.93 475.53,62.93C476.37,62.93 477.21,62.92 478.05,62.92C478.89,62.92 479.73,62.92 480.57,62.92C481.41,62.92 482.25,62.92 483.09,62.92C483.93,62.92 484.76,62.92 485.6,62.92C486.44,62.92 487.28,62.92 488.12,62.92C488.96,62.92 489.8,62.93 490.64,62.93C491.48,62.93 492.32,62.93 493.16,62.93C494,62.93 494.83,62.94 495.67,62.94C496.51,62.94 497.35,62.94 498.19,62.94C499.03,62.94 499.87,62.93 500.71,62.93C501.55,62.93 502.39,62.93 503.23,62.92C504.07,62.91 504.9,62.9 505.74,62.89C506.58,62.88 507.42,62.88 508.26,62.87C509.1,62.86 509.94,62.85 510.78,62.84C511.62,62.83 512.46,62.82 513.3,62.81C514.14,62.8 514.97,62.8 515.81,62.8C516.65,62.8 517.49,62.79 518.33,62.79C519.17,62.79 520.01,62.79 520.85,62.79C521.69,62.79 522.52,62.8 523.36,62.8C524.2,62.8 525.04,62.81 525.88,62.81C526.72,62.81 527.56,62.81 528.4,62.81C529.24,62.81 530.08,62.82 530.92,62.82C531.76,62.82 532.59,62.83 533.43,62.83C534.27,62.83 535.11,62.84 535.95,62.84C536.79,62.85 537.63,62.85 538.47,62.86C539.31,62.87 540.15,62.87 540.99,62.88C541.83,62.89 542.66,62.9 543.5,62.9C544.34,62.91 545.18,62.91 546.02,62.91C546.86,62.91 547.7,62.92 548.54,62.92C549.38,62.92 550.22,62.93 551.06,62.93C551.9,62.93 552.73,62.93 553.57,62.93C554.41,62.93 555.25,62.93 556.09,62.93C556.93,62.93 557.77,62.94 558.61,62.94C559.45,62.94 560.29,62.95 561.13,62.95C561.97,62.95 562.8,62.96 563.64,62.96C564.48,62.96 565.32,62.97 566.16,62.97C567,62.97 567.84,62.96 568.68,62.96C569.52,62.96 570.36,62.96 571.2,62.96C572.04,62.96 572.87,62.95 573.71,62.94C574.55,62.93 575.39,62.93 576.23,62.92C577.07,62.91 577.91,62.9 578.75,62.89C579.59,62.88 580.42,62.87 581.26,62.86C582.1,62.85 582.94,62.85 583.78,62.84C584.62,62.84 585.46,62.83 586.3,62.83C587.14,62.83 587.98,62.83 588.82,62.83C589.66,62.83 590.49,62.85 591.33,62.85C592.17,62.86 593.01,62.86 593.85,62.86C594.69,62.87 595.53,62.87 596.37,62.88C597.21,62.89 598.05,62.89 598.89,62.9C599.73,62.91 600.56,62.91 601.4,62.92C602.24,62.93 603.08,62.93 603.92,62.94C604.76,62.94 605.6,62.95 606.44,62.95C607.28,62.95 608.12,62.96 608.96,62.96C609.8,62.96 610.63,62.97 611.47,62.97C612.31,62.97 613.15,62.98 613.99,62.98C614.83,62.98 615.67,62.98 616.51,62.98C617.35,62.98 618.19,62.99 619.03,62.99C619.87,62.99 620.7,62.98 621.54,62.98C622.38,62.98 623.22,62.98 624.06,62.98C624.9,62.98 625.74,62.98 626.58,62.98C627.42,62.98 628.26,62.97 629.1,62.97C629.94,62.97 630.77,62.96 631.61,62.96C632.45,62.96 633.29,62.95 634.13,62.95C634.97,62.95 635.81,62.94 636.65,62.94C637.49,62.94 638.33,62.94 639.17,62.94C640.01,62.94 640.84,62.94 641.68,62.94C642.52,62.94 643.36,62.94 644.2,62.94C645.04,62.94 645.88,62.95 646.72,62.95C647.56,62.95 648.39,62.96 649.23,62.96C650.07,62.96 650.91,62.96 651.75,62.96C652.59,62.96 653.43,62.95 654.27,62.95C655.11,62.95 655.95,62.94 656.79,62.94C657.63,62.94 658.46,62.93 659.3,62.93C660.14,62.92 660.98,62.92 661.82,62.91C662.66,62.91 663.5,62.9 664.34,62.9C665.18,62.89 666.02,62.89 666.86,62.88C667.7,62.88 668.53,62.87 669.37,62.87C670.21,62.87 671.05,62.86 671.89,62.86C672.73,62.86 673.57,62.86 674.41,62.86C675.25,62.86 676.09,62.86 676.93,62.86C677.77,62.86 678.6,62.86 679.44,62.86C680.28,62.86 681.12,62.87 681.96,62.87C682.8,62.87 683.64,62.87 684.48,62.87C685.32,62.87 686.16,62.88 687,62.88C687.84,62.88 688.67,62.88 689.51,62.88C690.35,62.88 691.19,62.89 692.03,62.89C692.87,62.89 693.71,62.89 694.55,62.89C695.39,62.89 696.23,62.89 697.07,62.89C697.91,62.89 698.74,62.9 699.58,62.9C700.42,62.9 701.26,62.9 702.1,62.9C702.94,62.9 703.78,62.9 704.62,62.9C705.46,62.9 706.29,62.91 707.13,62.91C707.97,62.91 708.81,62.91 709.65,62.91C710.49,62.91 711.33,62.92 712.17,62.92C713.01,62.92 713.85,62.92 714.69,62.92C715.53,62.92 716.36,62.92 717.2,62.92C718.04,62.92 718.88,62.93 719.72,62.93C720.56,62.93 721.4,62.93 722.24,62.93C723.08,62.93 723.92,62.94 724.76,62.94C725.6,62.94 726.43,62.95 727.27,62.95C728.11,62.95 728.95,62.96 729.79,62.96C730.63,62.96 731.47,62.96 732.31,62.96C733.15,62.96 733.99,62.96 734.83,62.96C735.67,62.96 736.5,62.95 737.34,62.95C738.18,62.95 739.02,62.95 739.86,62.95C740.7,62.95 741.54,62.94 742.38,62.94C743.22,62.94 744.06,62.94 744.9,62.94C745.74,62.94 746.57,62.94 747.41,62.94C748.25,62.94 749.09,62.95 749.93,62.95C750.77,62.95 751.61,62.96 752.45,62.96C753.29,62.96 754.13,62.97 754.97,62.97C755.81,62.97 756.64,62.98 757.48,62.98Q758.32,62.98 760,62.98L760,62.99" style="vector-effect: none; stroke-width: 2px; stroke: rgb(132, 72, 129); stroke-opacity: 1; fill: rgb(164, 91, 161); fill-opacity: 0.5;"/><path class="meanline" d="M108.5,44.18223571777344V62.99" style="fill: none; vector-effect: none; stroke-width: 2px; stroke-dasharray: 4px, 2px; stroke: rgb(132, 72, 129); stroke-opacity: 1;"/></g></g></g><g class="overplot"/><path class="xlines-above crisp" d="M0,0" style="fill: none;"/><path class="ylines-above crisp" d="M0,0" style="fill: none;"/><g class="overlines-above"/><g class="xaxislayer-above"><g class="xtick"><text text-anchor="middle" x="0" y="172" transform="translate(51.1,0)" style="font-family: 'Open Sans', verdana, arial, sans-serif; font-size: 12px; fill: rgb(242, 245, 250); fill-opacity: 1; white-space: pre; opacity: 1;">0</text></g><g class="xtick"><text text-anchor="middle" x="0" y="172" style="font-family: 'Open Sans', verdana, arial, sans-serif; font-size: 12px; fill: rgb(242, 245, 250); fill-opacity: 1; white-space: pre; opacity: 1;" transform="translate(152.24,0)">50</text></g><g class="xtick"><text text-anchor="middle" x="0" y="172" style="font-family: 'Open Sans', verdana, arial, sans-serif; font-size: 12px; fill: rgb(242, 245, 250); fill-opacity: 1; white-space: pre; opacity: 1;" transform="translate(253.37,0)">100</text></g><g class="xtick"><text text-anchor="middle" x="0" y="172" style="font-family: 'Open Sans', verdana, arial, sans-serif; font-size: 12px; fill: rgb(242, 245, 250); fill-opacity: 1; white-space: pre; opacity: 1;" transform="translate(354.5,0)">150</text></g><g class="xtick"><text text-anchor="middle" x="0" y="172" style="font-family: 'Open Sans', verdana, arial, sans-serif; font-size: 12px; fill: rgb(242, 245, 250); fill-opacity: 1; white-space: pre; opacity: 1;" transform="translate(455.64,0)">200</text></g><g class="xtick"><text text-anchor="middle" x="0" y="172" style="font-family: 'Open Sans', verdana, arial, sans-serif; font-size: 12px; fill: rgb(242, 245, 250); fill-opacity: 1; white-space: pre; opacity: 1;" transform="translate(556.77,0)">250</text></g><g class="xtick"><text text-anchor="middle" x="0" y="172" style="font-family: 'Open Sans', verdana, arial, sans-serif; font-size: 12px; fill: rgb(242, 245, 250); fill-opacity: 1; white-space: pre; opacity: 1;" transform="translate(657.9,0)">300</text></g><g class="xtick"><text text-anchor="middle" x="0" y="172" style="font-family: 'Open Sans', verdana, arial, sans-serif; font-size: 12px; fill: rgb(242, 245, 250); fill-opacity: 1; white-space: pre; opacity: 1;" transform="translate(759.03,0)">350</text></g></g><g class="yaxislayer-above"/><g class="overaxes-above"/></g></g><g class="polarlayer"/><g class="smithlayer"/><g class="ternarylayer"/><g class="geolayer"/><g class="funnelarealayer"/><g class="pielayer"/><g class="iciclelayer"/><g class="treemaplayer"/><g class="sunburstlayer"/><g class="glimages"/><defs id="topdefs-98990e"><g class="clips"/></defs><g class="layer-above"><g class="imagelayer"/><g class="shapelayer"/></g><g class="infolayer"><g class="g-gtitle"/><g class="g-xtitle" transform="translate(0,-2.3000000000000114)"><text class="xtitle" x="400" y="199.3" text-anchor="middle" style="font-family: 'Open Sans', verdana, arial, sans-serif; font-size: 14px; fill: rgb(242, 245, 250); opacity: 1; white-space: pre;">Life Span</text></g><g class="g-ytitle"/></g></svg>