<svg class="main-svg" xmlns="http://www.w3.org/2000/svg" xmlns:xlink="http://www.w3.org/1999/xlink" width="800" height="200" style="" viewBox="0 0 800 200"><rect x="0" y="0" width="800" height="200" style="fill: rgb(0, 0, 0); fill-opacity: 0;"/><defs id="defs-2842e2"><g class="clips"><clipPath id="clip2842e2xyplot" class="plotclip"><rect width="800" height="159"/></clipPath><clipPath class="axesclip" id="clip2842e2x"><rect x="0" y="0" width="800" height="200"/></clipPath><clipPath class="axesclip" id="clip2842e2y"><rect x="0" y="0" width="800" height="159"/></clipPath><clipPath class="axesclip" id="clip2842e2xy"><rect x="0" y="0" width="800" height="159"/></clipPath></g><g class="gradients"/><g class="patterns"/></defs><g class="bglayer"><rect class="bg" x="0" y="0" width="800" height="159" style="fill: rgb(0, 0, 0); fill-opacity: 0; stroke-width: 0;"/></g><g class="layer-below"><g class="imagelayer"/><g class="shapelayer"/></g><g class="cartesianlayer"><g class="subplot xy"><g class="layer-subplot"><g class="shapelayer"/><g class="imagelayer"/></g><g class="minor-gridlayer"><g class="x"/><g class="y"/></g><g class="gridlayer"><g class="x"><path class="xgrid crisp" transform="translate(179.55,0)" d="M0,0v159" style="stroke: rgb(40, 52, 66); stroke-opacity: 1; stroke-width: 1px;"/><path class="xgrid crisp" transform="translate(321.6,0)" d="M0,0v159" style="stroke: rgb(40, 52, 66); stroke-opacity: 1; stroke-width: 1px;"/><path class="xgrid crisp" transform="translate(463.66,0)" d="M0,0v159" style="stroke: rgb(40, 52, 66); stroke-opacity: 1; stroke-width: 1px;"/><path class="xgrid crisp" transform="translate(605.72,0)" d="M0,0v159" style="stroke: rgb(40, 52, 66); stroke-opacity: 1; stroke-width: 1px;"/><path class="xgrid crisp" transform="translate(747.77,0)" d="M0,0v159" style="stroke: rgb(40, 52, 66); stroke-opacity: 1; stroke-width: 1px;"/></g><g class="y"/></g><g class="zerolinelayer"><path class="xzl zl crisp" transform="translate(37.49,0)" d="M0,0v159" style="stroke: rgb(40, 52, 66); stroke-opacity: 1; stroke-width: 2px;"/></g><g class="layer-between"><g class="shapelayer"/><g class="imagelayer"/></g><path class="xlines-below"/><path class="ylines-below"/><g class="overlines-below"/><g class="xaxislayer-below"/><g class="yaxislayer-below"/><g class="overaxes-below"/><g class="plot" transform="" clip-path="url(#clip2842e2xyplot)"><g class="violinlayer mlayer"><g class="trace violins" style="opacity: 1;"><path class="violin" d="M40,151.05L40,150.23Q43.02,149.75 44.51,149.37C46.03,148.98 47.54,148.52 49.03,147.92C50.56,147.31 52.06,146.57 53.54,145.73C55.07,144.85 56.57,143.82 58.05,142.73C59.58,141.6 61.08,140.32 62.57,139.03C64.09,137.72 65.58,136.29 67.08,134.92C68.59,133.55 70.08,132.13 71.6,130.81C73.09,129.52 74.58,128.24 76.11,127.1C77.59,126 79.09,124.96 80.62,124.06C82.1,123.19 83.62,122.43 85.14,121.75C86.63,121.09 88.14,120.56 89.65,120.04C91.15,119.53 92.65,119.11 94.16,118.65C95.66,118.19 97.18,117.77 98.68,117.3C100.19,116.83 101.69,116.35 103.19,115.84C104.7,115.33 106.21,114.77 107.71,114.23C109.22,113.69 110.71,113.12 112.22,112.59C113.72,112.06 115.22,111.52 116.73,111.06C118.23,110.6 119.74,110.16 121.25,109.84C122.75,109.52 124.25,109.25 125.76,109.15C127.26,109.05 128.78,109.05 130.27,109.23C131.79,109.41 133.31,109.77 134.79,110.26C136.32,110.76 137.81,111.48 139.3,112.21C140.82,112.96 142.31,113.89 143.82,114.7C145.32,115.51 146.8,116.43 148.33,117.07C149.81,117.69 151.32,118.3 152.84,118.52C154.33,118.74 155.88,118.74 157.36,118.43C158.89,118.11 160.42,117.4 161.87,116.58C163.43,115.7 164.91,114.47 166.38,113.26C167.92,112 169.39,110.53 170.9,109.16C172.4,107.79 173.88,106.35 175.41,105.06C176.89,103.81 178.39,102.58 179.93,101.51C181.4,100.49 182.91,99.54 184.44,98.76C185.91,98.01 187.42,97.35 188.95,96.89C190.43,96.44 191.96,96.09 193.47,96.01C194.97,95.93 196.51,96.03 197.98,96.4C199.51,96.78 201.04,97.47 202.49,98.31C204.05,99.21 205.55,100.45 207.01,101.72C208.56,103.06 210.03,104.65 211.52,106.2C213.04,107.78 214.52,109.5 216.03,111.12C217.53,112.73 219.03,114.34 220.55,115.88C222.04,117.38 223.54,118.83 225.06,120.24C226.55,121.62 228.07,122.94 229.58,124.25C231.08,125.55 232.58,126.82 234.09,128.06C235.58,129.29 237.08,130.52 238.6,131.66C240.09,132.77 241.58,133.9 243.12,134.82C244.59,135.71 246.09,136.55 247.63,137.12C249.1,137.67 250.63,138.08 252.14,138.22C253.64,138.36 255.17,138.24 256.66,138C258.18,137.76 259.67,137.23 261.17,136.75C262.69,136.27 264.17,135.59 265.69,135.12C267.18,134.65 268.68,134.14 270.2,133.93C271.69,133.72 273.22,133.66 274.71,133.86C276.23,134.07 277.76,134.58 279.23,135.2C280.77,135.85 282.26,136.8 283.74,137.74C285.27,138.71 286.74,139.86 288.25,140.92C289.75,141.98 291.24,143.1 292.77,144.08C294.25,145.03 295.75,145.95 297.28,146.71C298.76,147.45 300.28,148.1 301.8,148.62Q303.29,149.13 306.31,149.82L306.31,151.05" style="vector-effect: none; stroke-width: 2px; stroke: rgb(160, 156, 44); stroke-opacity: 1; fill: rgb(200, 195, 55); fill-opacity: 0.5;"/><path class="meanline" d="M167.44,112.35449981689453V151.05" style="fill: none; vector-effect: none; stroke-width: 2px; stroke-dasharray: 4px, 2px; stroke: rgb(160, 156, 44); stroke-opacity: 1;"/></g><g class="trace violins" style="opacity: 1;"><path class="violin" d="M182.03,129.03L182.03,129Q184.42,128.98 185.62,128.97C186.82,128.95 188.01,128.93 189.21,128.91C190.4,128.89 191.6,128.86 192.79,128.84C193.99,128.81 195.18,128.79 196.38,128.76C197.58,128.73 198.77,128.7 199.97,128.67C201.17,128.65 202.36,128.62 203.56,128.61C204.75,128.6 205.95,128.59 207.14,128.59C208.34,128.59 209.53,128.6 210.73,128.61C211.93,128.62 213.12,128.65 214.32,128.67C215.51,128.69 216.71,128.72 217.9,128.75C219.1,128.78 220.29,128.8 221.49,128.83C222.69,128.85 223.88,128.88 225.08,128.9C226.28,128.92 227.47,128.93 228.67,128.94C229.86,128.95 231.06,128.96 232.25,128.95C233.45,128.94 234.64,128.93 235.84,128.89C237.04,128.85 238.23,128.81 239.43,128.73C240.63,128.65 241.83,128.56 243.02,128.41C244.22,128.26 245.41,128.08 246.6,127.83C247.8,127.58 249,127.29 250.19,126.92C251.4,126.54 252.6,126.1 253.78,125.59C254.99,125.07 256.19,124.47 257.37,123.82C258.58,123.15 259.77,122.41 260.95,121.61C262.16,120.79 263.36,119.89 264.54,118.94C265.76,117.95 266.96,116.9 268.13,115.77C269.35,114.6 270.55,113.34 271.72,112.03C272.94,110.66 274.12,109.2 275.3,107.71C276.51,106.18 277.7,104.54 278.89,102.95C280.09,101.35 281.26,99.68 282.48,98.13C283.66,96.63 284.83,95.1 286.07,93.77C287.23,92.53 288.4,91.34 289.65,90.38C290.8,89.5 292.01,88.74 293.24,88.18C294.41,87.65 295.62,87.32 296.83,87.03C298.02,86.74 299.23,86.64 300.42,86.43C301.62,86.22 302.82,86.07 304,85.75C305.21,85.42 306.42,85.02 307.59,84.46C308.82,83.87 310.01,83.1 311.18,82.28C312.41,81.42 313.58,80.37 314.77,79.4C315.97,78.42 317.12,77.3 318.35,76.44C319.51,75.62 320.7,74.73 321.94,74.33C323.1,73.96 324.37,73.76 325.53,74C326.77,74.26 328,75.07 329.12,75.99C330.42,77.06 331.56,78.67 332.7,80.26C333.97,82.04 335.12,84.16 336.29,86.22C337.52,88.38 338.68,90.71 339.88,92.94C341.07,95.15 342.25,97.42 343.47,99.53C344.64,101.54 345.81,103.53 347.05,105.34C348.21,107.03 349.4,108.63 350.64,110.07C351.8,111.41 352.99,112.63 354.23,113.72C355.39,114.74 356.6,115.65 357.82,116.46C358.99,117.24 360.19,117.9 361.4,118.51C362.58,119.1 363.78,119.61 364.99,120.06C366.18,120.5 367.38,120.88 368.58,121.2C369.77,121.52 370.97,121.78 372.17,121.97C373.36,122.15 374.55,122.27 375.75,122.31C376.94,122.35 378.15,122.31 379.34,122.19C380.54,122.07 381.74,121.87 382.93,121.58C384.14,121.29 385.34,120.9 386.52,120.45C387.73,119.99 388.92,119.43 390.1,118.82C391.31,118.2 392.51,117.49 393.69,116.75C394.9,116 396.09,115.16 397.28,114.34C398.48,113.52 399.67,112.63 400.87,111.82C402.06,111.02 403.24,110.19 404.45,109.5C405.63,108.83 406.82,108.19 408.04,107.73C409.21,107.29 410.42,106.95 411.63,106.79C412.82,106.64 414.03,106.65 415.22,106.79C416.42,106.93 417.62,107.27 418.8,107.66C420.01,108.06 421.21,108.62 422.39,109.19C423.6,109.77 424.79,110.43 425.98,111.1C427.18,111.77 428.38,112.49 429.57,113.21C430.77,113.93 431.96,114.67 433.15,115.41C434.35,116.15 435.54,116.91 436.74,117.66C437.94,118.41 439.13,119.18 440.33,119.93C441.52,120.68 442.72,121.43 443.92,122.14C445.11,122.84 446.29,123.53 447.5,124.15C448.68,124.76 449.88,125.33 451.09,125.82C452.28,126.3 453.47,126.73 454.68,127.09C455.87,127.44 457.07,127.72 458.27,127.95C459.46,128.18 460.65,128.34 461.85,128.47C463.04,128.6 464.24,128.67 465.44,128.73C466.64,128.79 467.83,128.8 469.03,128.81C470.23,128.82 471.42,128.8 472.62,128.77C473.81,128.74 475.01,128.69 476.2,128.63C477.4,128.57 478.59,128.49 479.79,128.41C480.99,128.33 482.18,128.23 483.38,128.13C484.58,128.03 485.77,127.92 486.97,127.81C488.16,127.71 489.36,127.6 490.55,127.5C491.75,127.4 492.94,127.3 494.14,127.22C495.34,127.14 496.53,127.07 497.73,127.02C498.93,126.97 500.12,126.93 501.32,126.91C502.51,126.89 503.71,126.9 504.9,126.92C506.1,126.94 507.29,126.99 508.49,127.05C509.69,127.11 510.88,127.2 512.08,127.29C513.28,127.38 514.47,127.5 515.67,127.61C516.86,127.72 518.06,127.86 519.25,127.97C520.45,128.09 521.64,128.2 522.84,128.3C524.04,128.4 525.23,128.49 526.43,128.57C527.63,128.65 528.82,128.71 530.02,128.77C531.21,128.82 532.41,128.87 533.6,128.9C534.8,128.93 535.99,128.95 537.19,128.97C538.39,128.99 539.58,129 540.78,129.01C541.98,129.02 543.17,129.02 544.37,129.02C545.56,129.02 546.76,129.03 547.95,129.03C549.15,129.03 550.34,129.03 551.54,129.03C552.74,129.03 553.93,129.03 555.13,129.03C556.33,129.03 557.52,129.03 558.72,129.03C559.91,129.03 561.11,129.03 562.3,129.03C563.5,129.03 564.69,129.03 565.89,129.03C567.09,129.03 568.28,129.03 569.48,129.03C570.68,129.03 571.87,129.03 573.07,129.03C574.26,129.03 575.46,129.03 576.65,129.03C577.85,129.03 579.04,129.03 580.24,129.03C581.44,129.03 582.63,129.03 583.83,129.03C585.03,129.03 586.22,129.03 587.42,129.03C588.61,129.03 589.81,129.03 591,129.03C592.2,129.03 593.39,129.03 594.59,129.03C595.79,129.03 596.98,129.03 598.18,129.03C599.38,129.03 600.57,129.03 601.77,129.03C602.96,129.03 604.16,129.03 605.35,129.03C606.55,129.03 607.74,129.03 608.94,129.03C610.14,129.03 611.33,129.03 612.53,129.03C613.73,129.03 614.92,129.03 616.12,129.03C617.31,129.03 618.51,129.03 619.7,129.02C620.9,129.01 622.09,129 623.29,128.99C624.49,128.98 625.68,128.96 626.88,128.94C628.08,128.92 629.27,128.89 630.47,128.85C631.66,128.81 632.86,128.76 634.05,128.71C635.25,128.66 636.44,128.59 637.64,128.53C638.84,128.46 640.03,128.39 641.23,128.32C642.43,128.26 643.62,128.19 644.82,128.14C646.01,128.09 647.21,128.04 648.4,128.02C649.6,128 650.79,127.99 651.99,128C653.19,128.01 654.38,128.04 655.58,128.08C656.78,128.12 657.97,128.19 659.17,128.25C660.36,128.31 661.56,128.39 662.75,128.45C663.95,128.52 665.14,128.58 666.34,128.64C667.54,128.7 668.73,128.75 669.93,128.8C671.13,128.84 672.32,128.88 673.52,128.91Q674.71,128.94 677.1,128.97L677.1,129.03" style="vector-effect: none; stroke-width: 2px; stroke: rgb(62, 142, 64); stroke-opacity: 1; fill: rgb(78, 177, 79); fill-opacity: 0.5;"/><path class="meanline" d="M340.69,94.45216369628906V129.03" style="fill: none; vector-effect: none; stroke-width: 2px; stroke-dasharray: 4px, 2px; stroke: rgb(62, 142, 64); stroke-opacity: 1;"/></g><g class="trace violins" style="opacity: 1;"><path class="violin" d="M172.97,107.02L172.97,106.94Q176.38,106.9 178.08,106.87C179.79,106.84 181.49,106.8 183.2,106.75C184.9,106.7 186.61,106.65 188.31,106.58C190.01,106.51 191.72,106.43 193.42,106.33C195.12,106.22 196.83,106.12 198.53,105.95C200.24,105.78 201.94,105.6 203.64,105.33C205.35,105.06 207.06,104.76 208.75,104.33C210.47,103.9 212.18,103.39 213.86,102.74C215.59,102.07 217.3,101.28 218.97,100.37C220.71,99.42 222.42,98.32 224.09,97.13C225.83,95.89 227.52,94.49 229.2,93.04C230.93,91.55 232.62,89.93 234.31,88.3C236.03,86.64 237.72,84.9 239.42,83.19C241.13,81.47 242.82,79.71 244.53,78.01C246.22,76.33 247.92,74.63 249.64,73.04C251.32,71.48 253.01,69.94 254.75,68.55C256.42,67.21 258.12,65.91 259.86,64.82C261.53,63.77 263.24,62.81 264.98,62.09C266.65,61.4 268.37,60.86 270.09,60.56C271.78,60.27 273.5,60.19 275.2,60.29C276.91,60.39 278.63,60.74 280.31,61.19C282.03,61.65 283.74,62.32 285.42,63.06C287.15,63.82 288.85,64.73 290.53,65.69C292.26,66.68 293.95,67.79 295.64,68.92C297.36,70.07 299.05,71.31 300.75,72.52C302.46,73.73 304.15,75.02 305.87,76.17C307.56,77.3 309.24,78.47 310.98,79.37C312.65,80.24 314.35,81.06 316.09,81.52C317.76,81.97 319.5,82.22 321.2,82.15C322.91,82.08 324.64,81.68 326.31,81.11C328.05,80.52 329.75,79.58 331.42,78.61C333.16,77.6 334.84,76.34 336.53,75.12C338.25,73.88 339.93,72.5 341.64,71.22C343.34,69.95 345.03,68.62 346.76,67.45C348.44,66.32 350.13,65.18 351.87,64.31C353.54,63.47 355.25,62.68 356.98,62.27C358.65,61.87 360.4,61.65 362.09,61.81C363.81,61.97 365.55,62.5 367.2,63.24C368.97,64.04 370.66,65.27 372.31,66.55C374.07,67.91 375.73,69.63 377.42,71.24C379.14,72.89 380.8,74.73 382.54,76.33C384.21,77.87 385.87,79.5 387.65,80.66C389.29,81.73 391.01,82.75 392.76,83.16C394.42,83.55 396.21,83.58 397.87,83.2C399.62,82.8 401.35,81.8 402.98,80.71C404.77,79.51 406.44,77.82 408.09,76.15C409.85,74.37 411.51,72.29 413.2,70.3C414.92,68.28 416.58,66.1 418.31,64.1C419.99,62.16 421.66,60.16 423.43,58.47C425.08,56.89 426.75,55.31 428.54,54.21C430.17,53.2 431.91,52.3 433.65,51.98C435.32,51.67 437.11,51.75 438.76,52.2C440.52,52.68 442.24,53.77 443.87,54.95C445.67,56.26 447.33,58.06 448.98,59.86C450.75,61.79 452.41,64.03 454.09,66.19C455.81,68.4 457.48,70.78 459.2,73C460.89,75.18 462.57,77.38 464.32,79.39C465.99,81.31 467.68,83.16 469.43,84.81C471.09,86.38 472.8,87.81 474.54,89.1C476.21,90.33 477.92,91.42 479.65,92.42C481.33,93.4 483.04,94.24 484.76,95.06C486.45,95.87 488.16,96.6 489.87,97.3C491.56,97.99 493.27,98.65 494.98,99.25C496.68,99.85 498.38,100.4 500.09,100.89C501.79,101.38 503.5,101.82 505.21,102.21C506.91,102.59 508.61,102.91 510.32,103.2C512.02,103.49 513.73,103.72 515.43,103.95C517.13,104.18 518.84,104.37 520.54,104.57C522.24,104.77 523.95,104.95 525.65,105.13C527.35,105.31 529.06,105.49 530.76,105.65C532.46,105.81 534.17,105.96 535.87,106.1C537.57,106.23 539.28,106.36 540.98,106.46C542.69,106.56 544.39,106.64 546.1,106.71Q547.8,106.78 551.21,106.86L551.21,107.02" style="vector-effect: none; stroke-width: 2px; stroke: rgb(52, 152, 124); stroke-opacity: 1; fill: rgb(65, 190, 155); fill-opacity: 0.5;"/><path class="meanline" d="M358.39,61.98215103149414V107.02" style="fill: none; vector-effect: none; stroke-width: 2px; stroke-dasharray: 4px, 2px; stroke: rgb(52, 152, 124); stroke-opacity: 1;"/></g><g class="trace violins" style="opacity: 1;"><path class="violin" d="M259.16,85L259.16,84.49Q262.15,84.18 263.64,83.93C265.14,83.68 266.63,83.38 268.11,82.98C269.61,82.58 271.11,82.09 272.59,81.53C274.1,80.95 275.59,80.28 277.07,79.55C278.58,78.81 280.07,77.98 281.55,77.12C283.05,76.25 284.54,75.32 286.02,74.37C287.52,73.41 289.01,72.41 290.5,71.4C292,70.38 293.5,69.33 294.98,68.25C296.48,67.15 297.98,66.02 299.46,64.85C300.96,63.67 302.45,62.43 303.93,61.19C305.43,59.93 306.91,58.62 308.41,57.34C309.9,56.07 311.38,54.76 312.89,53.54C314.37,52.34 315.86,51.16 317.37,50.07C318.84,49.01 320.33,48.02 321.84,47.1C323.31,46.21 324.81,45.4 326.32,44.63C327.8,43.87 329.3,43.19 330.8,42.51C332.29,41.84 333.78,41.2 335.28,40.58C336.77,39.96 338.26,39.34 339.76,38.79C341.24,38.25 342.73,37.7 344.23,37.32C345.71,36.94 347.21,36.6 348.71,36.5C350.2,36.4 351.71,36.44 353.19,36.7C354.7,36.97 356.21,37.47 357.67,38.12C359.2,38.8 360.68,39.75 362.14,40.74C363.67,41.78 365.14,43.02 366.62,44.23C368.13,45.46 369.6,46.83 371.1,48.08C372.58,49.31 374.05,50.59 375.58,51.67C377.04,52.7 378.52,53.72 380.05,54.42C381.5,55.09 383.02,55.65 384.53,55.85C386.01,56.04 387.55,55.98 389.01,55.63C390.54,55.27 392.06,54.53 393.49,53.64C395.05,52.67 396.52,51.34 397.96,49.95C399.51,48.46 400.97,46.67 402.44,44.93C403.96,43.14 405.41,41.15 406.92,39.34C408.39,37.58 409.83,35.7 411.4,34.23C412.83,32.89 414.29,31.49 415.87,30.79C417.29,30.16 418.89,29.78 420.35,29.97C421.88,30.17 423.42,31.08 424.83,32.09C426.44,33.25 427.87,35.04 429.31,36.76C430.87,38.62 432.29,40.85 433.78,42.89C435.27,44.93 436.71,47.15 438.26,49.02C439.7,50.75 441.14,52.53 442.74,53.77C444.15,54.86 445.67,55.84 447.22,56.24C448.66,56.61 450.23,56.53 451.69,56.23C453.21,55.92 454.7,55.07 456.17,54.34C457.69,53.59 459.13,52.53 460.65,51.78C462.12,51.05 463.61,50.22 465.13,49.88C466.59,49.55 468.14,49.43 469.6,49.69C471.12,49.96 472.64,50.71 474.08,51.57C475.64,52.5 477.1,53.86 478.56,55.18C480.1,56.57 481.55,58.21 483.04,59.76C484.54,61.32 486,62.96 487.51,64.49C488.99,65.98 490.47,67.46 491.99,68.82C493.46,70.13 494.95,71.38 496.47,72.53C497.94,73.64 499.44,74.67 500.95,75.63C502.42,76.56 503.91,77.42 505.42,78.2C506.9,78.97 508.39,79.67 509.9,80.3C511.38,80.92 512.88,81.47 514.38,81.95C515.86,82.42 517.36,82.83 518.86,83.17C520.34,83.51 521.84,83.77 523.33,83.99C524.82,84.21 526.32,84.36 527.81,84.49C529.3,84.62 530.8,84.7 532.29,84.77C533.78,84.84 535.28,84.88 536.77,84.91C538.26,84.94 539.75,84.96 541.24,84.97C542.73,84.98 544.23,84.98 545.72,84.99C547.21,84.99 548.71,85 550.2,85C551.69,85 553.19,85 554.68,85C556.17,85 557.66,85 559.15,85C560.64,85 562.14,84.99 563.63,84.99C565.12,84.98 566.62,84.98 568.11,84.97C569.6,84.96 571.1,84.95 572.59,84.93C574.08,84.91 575.57,84.88 577.06,84.84C578.55,84.8 580.05,84.74 581.54,84.67C583.03,84.6 584.53,84.52 586.02,84.42C587.51,84.32 589.01,84.19 590.5,84.06C591.99,83.93 593.49,83.78 594.98,83.64C596.47,83.5 597.96,83.35 599.45,83.23C600.94,83.11 602.44,82.99 603.93,82.92C605.42,82.85 606.92,82.81 608.41,82.81C609.9,82.81 611.4,82.85 612.89,82.92C614.38,82.99 615.87,83.1 617.36,83.22C618.85,83.34 620.35,83.49 621.84,83.63C623.33,83.77 624.83,83.92 626.32,84.05C627.81,84.18 629.31,84.31 630.8,84.41C632.29,84.51 633.78,84.6 635.27,84.67Q636.76,84.74 639.75,84.84L639.75,85" style="vector-effect: none; stroke-width: 2px; stroke: rgb(70, 29, 175); stroke-opacity: 1; fill: rgb(88, 36, 219); fill-opacity: 0.5;"/><path class="meanline" d="M393.73,53.48681640625V85" style="fill: none; vector-effect: none; stroke-width: 2px; stroke-dasharray: 4px, 2px; stroke: rgb(70, 29, 175); stroke-opacity: 1;"/></g><g class="trace violins" style="opacity: 1;"><path class="violin" d="M448.59,62.99L448.59,62.52Q451.84,62.23 453.46,61.98C455.09,61.73 456.71,61.44 458.32,61.02C459.95,60.6 461.59,60.09 463.19,59.46C464.83,58.81 466.46,58.05 468.06,57.18C469.71,56.29 471.32,55.24 472.92,54.16C474.56,53.05 476.18,51.81 477.79,50.59C479.42,49.36 481.02,48.04 482.65,46.83C484.26,45.64 485.86,44.41 487.52,43.39C489.11,42.41 490.73,41.47 492.39,40.82C493.98,40.2 495.62,39.73 497.25,39.54C498.86,39.36 500.51,39.44 502.12,39.69C503.76,39.95 505.38,40.51 506.98,41.09C508.62,41.69 510.23,42.51 511.85,43.24C513.47,43.97 515.07,44.84 516.71,45.48C518.31,46.11 519.94,46.76 521.58,47.07C523.18,47.37 524.85,47.54 526.45,47.34C528.09,47.13 529.75,46.6 531.31,45.81C533.01,44.95 534.63,43.67 536.18,42.26C537.89,40.71 539.47,38.78 541.04,36.81C542.72,34.7 544.31,32.3 545.91,29.95C547.55,27.54 549.13,24.94 550.77,22.54C552.37,20.2 553.94,17.77 555.64,15.71C557.2,13.81 558.77,11.88 560.51,10.55C562.04,9.38 563.7,8.3 565.37,7.95C566.95,7.62 568.68,7.79 570.24,8.32C571.94,8.9 573.56,10.21 575.1,11.54C576.82,13.03 578.4,15.02 579.97,16.98C581.65,19.07 583.22,21.44 584.83,23.73C586.47,26.06 588.06,28.52 589.7,30.84C591.31,33.11 592.91,35.41 594.57,37.51C596.15,39.51 597.75,41.47 599.43,43.19C601,44.8 602.62,46.32 604.3,47.57C605.87,48.73 607.49,49.77 609.16,50.51C610.74,51.21 612.39,51.73 614.03,51.95C615.63,52.17 617.29,52.12 618.89,51.86C620.53,51.6 622.17,51.04 623.76,50.35C625.42,49.63 627.04,48.63 628.63,47.58C630.29,46.48 631.89,45.18 633.49,43.85C635.14,42.48 636.75,40.97 638.36,39.46C640,37.92 641.6,36.29 643.22,34.69C644.85,33.07 646.46,31.41 648.09,29.8C649.7,28.21 651.3,26.59 652.95,25.11C654.55,23.67 656.15,22.22 657.82,21.01C659.4,19.86 661.02,18.77 662.69,18C664.27,17.27 665.91,16.7 667.55,16.44C669.15,16.19 670.81,16.22 672.42,16.43C674.06,16.65 675.68,17.18 677.28,17.76C678.93,18.36 680.54,19.18 682.15,20C683.79,20.83 685.4,21.79 687.01,22.73C688.64,23.68 690.26,24.66 691.88,25.65C693.51,26.64 695.13,27.64 696.75,28.66C698.37,29.68 700,30.71 701.61,31.77C703.24,32.84 704.87,33.93 706.48,35.06C708.11,36.2 709.73,37.39 711.34,38.6C712.97,39.82 714.59,41.09 716.21,42.36C717.84,43.64 719.45,44.96 721.07,46.25C722.69,47.54 724.3,48.85 725.94,50.08C727.55,51.29 729.17,52.5 730.81,53.6C732.41,54.67 734.03,55.7 735.67,56.6C737.27,57.47 738.9,58.26 740.54,58.94C742.14,59.6 743.77,60.16 745.4,60.62C747.01,61.08 748.64,61.42 750.27,61.71C751.88,62 753.51,62.18 755.13,62.35Q756.75,62.51 760,62.7L760,62.99" style="vector-effect: none; stroke-width: 2px; stroke: rgb(132, 72, 129); stroke-opacity: 1; fill: rgb(164, 91, 161); fill-opacity: 0.5;"/><path class="meanline" d="M608.35,50.12657928466797V62.99" style="fill: none; vector-effect: none; stroke-width: 2px; stroke-dasharray: 4px, 2px; stroke: rgb(132, 72, 129); stroke-opacity: 1;"/></g></g></g><g class="overplot"/><path class="xlines-above crisp" d="M0,0" style="fill: none;"/><path class="ylines-above crisp" d="M0,0" style="fill: none;"/><g class="overlines-above"/><g class="xaxislayer-above"><g class="xtick"><text text-anchor="middle" x="0" y="172" transform="translate(37.49,0)" style="font-family: 'Open Sans', verdana, arial, sans-serif; font-size: 12px; fill: rgb(242, 245, 250); fill-opacity: 1; white-space: pre; opacity: 1;">0</text></g><g class="xtick"><text text-anchor="middle" x="0" y="172" style="font-family: 'Open Sans', verdana, arial, sans-serif; font-size: 12px; fill: rgb(242, 245, 250); fill-opacity: 1; white-space: pre; opacity: 1;" transform="translate(179.55,0)">100</text></g><g class="xtick"><text text-anchor="middle" x="0" y="172" style="font-family: 'Open Sans', verdana, arial, sans-serif; font-size: 12px; fill: rgb(242, 245, 250); fill-opacity: 1; white-space: pre; opacity: 1;" transform="translate(321.6,0)">200</text></g><g class="xtick"><text text-anchor="middle" x="0" y="172" style="font-family: 'Open Sans', verdana, arial, sans-serif; font-size: 12px; fill: rgb(242, 245, 250); fill-opacity: 1; white-space: pre; opacity: 1;" transform="translate(463.66,0)">300</text></g><g class="xtick"><text text-anchor="middle" x="0" y="172" style="font-family: 'Open Sans', verdana, arial, sans-serif; font-size: 12px; fill: rgb(242, 245, 250); fill-opacity: 1; white-space: pre; opacity: 1;" transform="translate(605.72,0)">400</text></g><g class="xtick"><text text-anchor="middle" x="0" y="172" style="font-family: 'Open Sans', verdana, arial, sans-serif; font-size: 12px; fill: rgb(242, 245, 250); fill-opacity: 1; white-space: pre; opacity: 1;" transform="translate(747.77,0)">500</text></g></g><g class="yaxislayer-above"/><g class="overaxes-above"/></g></g><g class="polarlayer"/><g class="smithlayer"/><g class="ternarylayer"/><g class="geolayer"/><g class="funnelarealayer"/><g class="pielayer"/><g class="iciclelayer"/><g class="treemaplayer"/><g class="sunburstlayer"/><g class="glimages"/><defs id="topdefs-2842e2"><g class="clips"/></defs><g class="layer-above"><g class="imagelayer"/><g class="shapelayer"/></g><g class="infolayer"><g class="g-gtitle"/><g class="g-xtitle" transform="translate(0,-2.3000000000000114)"><text class="xtitle" x="400" y="199.3" text-anchor="middle" style="font-family: 'Open Sans', verdana, arial, sans-serif; font-size: 14px; fill: rgb(242, 245, 250); opacity: 1; white-space: pre;">Pgm Death</text></g><g class="g-ytitle"/></g></svg>