<svg class="main-svg" xmlns="http://www.w3.org/2000/svg" xmlns:xlink="http://www.w3.org/1999/xlink" width="800" height="200" style="" viewBox="0 0 800 200"><rect x="0" y="0" width="800" height="200" style="fill: rgb(0, 0, 0); fill-opacity: 0;"/><defs id="defs-77801f"><g class="clips"><clipPath id="clip77801fxyplot" class="plotclip"><rect width="800" height="159"/></clipPath><clipPath class="axesclip" id="clip77801fx"><rect x="0" y="0" width="800" height="200"/></clipPath><clipPath class="axesclip" id="clip77801fy"><rect x="0" y="0" width="800" height="159"/></clipPath><clipPath class="axesclip" id="clip77801fxy"><rect x="0" y="0" width="800" height="159"/></clipPath></g><g class="gradients"/><g class="patterns"/></defs><g class="bglayer"><rect class="bg" x="0" y="0" width="800" height="159" style="fill: rgb(0, 0, 0); fill-opacity: 0; stroke-width: 0;"/></g><g class="layer-below"><g class="imagelayer"/><g class="shapelayer"/></g><g class="cartesianlayer"><g class="subplot xy"><g class="layer-subplot"><g class="shapelayer"/><g class="imagelayer"/></g><g class="minor-gridlayer"><g class="x"/><g class="y"/></g><g class="gridlayer"><g class="x"><path class="xgrid crisp" transform="translate(147.2,0)" d="M0,0v159" style="stroke: rgb(40, 52, 66); stroke-opacity: 1; stroke-width: 1px;"/><path class="xgrid crisp" transform="translate(229.27,0)" d="M0,0v159" style="stroke: rgb(40, 52, 66); stroke-opacity: 1; stroke-width: 1px;"/><path class="xgrid crisp" transform="translate(311.34,0)" d="M0,0v159" style="stroke: rgb(40, 52, 66); stroke-opacity: 1; stroke-width: 1px;"/><path class="xgrid crisp" transform="translate(393.41,0)" d="M0,0v159" style="stroke: rgb(40, 52, 66); stroke-opacity: 1; stroke-width: 1px;"/><path class="xgrid crisp" transform="translate(475.48,0)" d="M0,0v159" style="stroke: rgb(40, 52, 66); stroke-opacity: 1; stroke-width: 1px;"/><path class="xgrid crisp" transform="translate(557.55,0)" d="M0,0v159" style="stroke: rgb(40, 52, 66); stroke-opacity: 1; stroke-width: 1px;"/><path class="xgrid crisp" transform="translate(639.62,0)" d="M0,0v159" style="stroke: rgb(40, 52, 66); stroke-opacity: 1; stroke-width: 1px;"/><path class="xgrid crisp" transform="translate(721.68,0)" d="M0,0v159" style="stroke: rgb(40, 52, 66); stroke-opacity: 1; stroke-width: 1px;"/></g><g class="y"/></g><g class="zerolinelayer"><path class="xzl zl crisp" transform="translate(65.13,0)" d="M0,0v159" style="stroke: rgb(40, 52, 66); stroke-opacity: 1; stroke-width: 2px;"/></g><g class="layer-between"><g class="shapelayer"/><g class="imagelayer"/></g><path class="xlines-below"/><path class="ylines-below"/><g class="overlines-below"/><g class="xaxislayer-below"/><g class="yaxislayer-below"/><g class="overaxes-below"/><g class="plot" transform="" clip-path="url(#clip77801fxyplot)"><g class="violinlayer mlayer"><g class="trace violins" style="opacity: 1;"><path class="violin" d="M40,151.05L40,150.61Q43.69,150.34 45.53,150.09C47.38,149.84 49.23,149.55 51.07,149.13C52.93,148.71 54.77,148.2 56.6,147.57C58.46,146.93 60.31,146.17 62.13,145.31C64,144.43 65.83,143.41 67.66,142.36C69.52,141.29 71.36,140.09 73.2,138.95C75.05,137.8 76.87,136.58 78.73,135.49C80.56,134.41 82.39,133.33 84.26,132.44C86.08,131.58 87.93,130.78 89.8,130.21C91.62,129.66 93.48,129.26 95.33,129.04C97.16,128.82 99.02,128.81 100.86,128.88C102.71,128.95 104.55,129.22 106.39,129.46C108.24,129.71 110.08,130.08 111.93,130.35C113.77,130.62 115.61,130.93 117.46,131.07C119.3,131.21 121.15,131.29 122.99,131.18C124.84,131.07 126.7,130.81 128.52,130.38C130.39,129.94 132.25,129.3 134.06,128.52C135.94,127.71 137.78,126.69 139.59,125.58C141.47,124.42 143.3,123.06 145.12,121.68C146.99,120.26 148.82,118.66 150.66,117.14C152.51,115.62 154.32,113.98 156.19,112.55C158.01,111.16 159.82,109.72 161.72,108.65C163.51,107.64 165.36,106.7 167.25,106.23C169.06,105.78 170.96,105.63 172.79,105.83C174.65,106.04 176.52,106.71 178.32,107.5C180.21,108.33 182.03,109.58 183.85,110.76C185.72,111.98 187.53,113.44 189.39,114.73C191.22,116 193.04,117.36 194.92,118.45C196.73,119.5 198.57,120.49 200.45,121.19C202.26,121.86 204.12,122.35 205.98,122.59C207.81,122.83 209.68,122.82 211.52,122.66C213.37,122.5 215.22,122.1 217.05,121.63C218.91,121.15 220.75,120.49 222.58,119.8C224.44,119.1 226.28,118.27 228.12,117.43C229.97,116.58 231.81,115.66 233.65,114.73C235.5,113.79 237.34,112.81 239.18,111.83C241.03,110.85 242.86,109.85 244.71,108.86C246.55,107.87 248.4,106.88 250.25,105.91C252.09,104.95 253.93,103.99 255.78,103.08C257.62,102.18 259.45,101.3 261.31,100.5C263.14,99.71 264.99,98.94 266.85,98.31C268.68,97.69 270.52,97.1 272.38,96.72C274.21,96.34 276.07,96.04 277.91,96.01C279.75,95.98 281.62,96.12 283.44,96.55C285.32,97 287.19,97.73 288.98,98.69C290.89,99.72 292.73,101.12 294.51,102.65C296.43,104.3 298.24,106.3 300.04,108.33C301.94,110.48 303.74,112.88 305.57,115.23C307.43,117.63 309.25,120.17 311.11,122.57C312.94,124.93 314.75,127.32 316.64,129.5C318.44,131.58 320.27,133.61 322.17,135.4C323.96,137.09 325.81,138.64 327.71,139.99C329.51,141.27 331.36,142.36 333.24,143.32C335.05,144.24 336.91,145 338.77,145.67C340.6,146.33 342.45,146.85 344.3,147.33C346.14,147.8 347.99,148.18 349.84,148.53C351.68,148.88 353.52,149.16 355.37,149.41C357.21,149.66 359.05,149.86 360.9,150.04C362.74,150.22 364.59,150.35 366.44,150.47C368.28,150.59 370.13,150.68 371.97,150.75Q373.81,150.82 377.5,150.9L377.5,151.05" style="vector-effect: none; stroke-width: 2px; stroke: rgb(160, 156, 44); stroke-opacity: 1; fill: rgb(200, 195, 55); fill-opacity: 0.5;"/><path class="meanline" d="M214.24,122.2710952758789V151.05" style="fill: none; vector-effect: none; stroke-width: 2px; stroke-dasharray: 4px, 2px; stroke: rgb(160, 156, 44); stroke-opacity: 1;"/></g><g class="trace violins" style="opacity: 1;"><path class="violin" d="M79.31,129.03L79.31,129.01Q81.37,129.01 82.4,129C83.43,128.99 84.46,128.98 85.49,128.97C86.52,128.96 87.55,128.95 88.58,128.94C89.61,128.93 90.64,128.91 91.67,128.9C92.7,128.89 93.73,128.88 94.76,128.87C95.79,128.86 96.82,128.84 97.85,128.83C98.88,128.82 99.91,128.82 100.94,128.81C101.97,128.8 103,128.8 104.03,128.79C105.06,128.78 106.09,128.78 107.12,128.77C108.15,128.76 109.18,128.76 110.21,128.75C111.24,128.75 112.27,128.74 113.3,128.74C114.33,128.74 115.36,128.74 116.39,128.74C117.42,128.74 118.45,128.74 119.48,128.74C120.51,128.74 121.54,128.75 122.57,128.75C123.6,128.75 124.63,128.75 125.66,128.75C126.69,128.75 127.72,128.73 128.75,128.72C129.78,128.7 130.81,128.7 131.84,128.66C132.87,128.62 133.9,128.58 134.93,128.5C135.96,128.42 136.99,128.34 138.02,128.19C139.05,128.04 140.09,127.87 141.11,127.62C142.15,127.37 143.18,127.07 144.2,126.68C145.24,126.28 146.28,125.81 147.29,125.26C148.34,124.69 149.37,124.02 150.38,123.3C151.43,122.54 152.46,121.7 153.47,120.8C154.52,119.87 155.55,118.85 156.56,117.8C157.61,116.72 158.63,115.58 159.65,114.41C160.69,113.21 161.72,111.97 162.74,110.7C163.78,109.41 164.81,108.08 165.83,106.72C166.87,105.33 167.9,103.9 168.92,102.45C169.96,100.97 170.99,99.44 172.01,97.9C173.05,96.33 174.07,94.7 175.1,93.09C176.13,91.47 177.15,89.82 178.19,88.22C179.21,86.65 180.22,85.06 181.28,83.6C182.29,82.21 183.3,80.83 184.37,79.63C185.36,78.52 186.38,77.47 187.46,76.64C188.45,75.88 189.49,75.23 190.55,74.79C191.55,74.37 192.6,74.13 193.64,74C194.66,73.87 195.7,73.91 196.73,74.01C197.76,74.11 198.8,74.32 199.82,74.58C200.86,74.84 201.89,75.17 202.91,75.57C203.95,75.98 204.99,76.44 206,77C207.05,77.58 208.09,78.25 209.09,79C210.15,79.79 211.17,80.71 212.18,81.67C213.24,82.68 214.25,83.81 215.27,84.94C216.32,86.11 217.33,87.37 218.36,88.57C219.39,89.77 220.4,91.02 221.45,92.15C222.46,93.24 223.47,94.32 224.54,95.24C225.54,96.1 226.57,96.9 227.63,97.52C228.63,98.11 229.67,98.57 230.72,98.92C231.73,99.26 232.77,99.44 233.8,99.6C234.82,99.76 235.86,99.79 236.89,99.88C237.92,99.96 238.95,100 239.98,100.11C241.01,100.22 242.04,100.34 243.07,100.52C244.1,100.7 245.13,100.94 246.16,101.19C247.19,101.44 248.22,101.75 249.25,102.04C250.28,102.34 251.31,102.65 252.34,102.96C253.37,103.27 254.4,103.57 255.43,103.88C256.46,104.19 257.49,104.47 258.52,104.8C259.55,105.13 260.59,105.46 261.61,105.84C262.65,106.23 263.68,106.64 264.7,107.1C265.74,107.57 266.77,108.09 267.79,108.65C268.83,109.22 269.86,109.86 270.88,110.51C271.92,111.17 272.94,111.87 273.97,112.56C275,113.26 276.03,113.99 277.06,114.68C278.09,115.37 279.11,116.05 280.15,116.69C281.17,117.32 282.2,117.92 283.24,118.47C284.26,119.01 285.29,119.5 286.33,119.95C287.35,120.39 288.38,120.78 289.42,121.13C290.44,121.48 291.48,121.77 292.51,122.04C293.54,122.31 294.57,122.53 295.6,122.73C296.63,122.93 297.66,123.09 298.69,123.23C299.72,123.37 300.75,123.47 301.78,123.56C302.81,123.64 303.84,123.7 304.87,123.74C305.9,123.78 306.93,123.8 307.96,123.81C308.99,123.82 310.02,123.81 311.05,123.81C312.08,123.81 313.11,123.81 314.14,123.82C315.17,123.83 316.2,123.85 317.23,123.88C318.26,123.92 319.29,123.97 320.32,124.03C321.35,124.09 322.38,124.17 323.41,124.26C324.44,124.35 325.47,124.46 326.5,124.58C327.53,124.7 328.56,124.83 329.59,124.96C330.62,125.09 331.65,125.22 332.68,125.35C333.71,125.48 334.74,125.62 335.77,125.74C336.8,125.86 337.83,125.96 338.86,126.06C339.89,126.15 340.92,126.24 341.95,126.31C342.98,126.38 344.01,126.42 345.04,126.46C346.07,126.5 347.1,126.52 348.13,126.54C349.16,126.56 350.19,126.57 351.22,126.58C352.25,126.6 353.28,126.61 354.31,126.63C355.34,126.66 356.37,126.68 357.4,126.73C358.43,126.78 359.46,126.84 360.49,126.92C361.52,127 362.55,127.1 363.58,127.2C364.61,127.31 365.64,127.43 366.67,127.55C367.7,127.67 368.73,127.79 369.76,127.91C370.79,128.02 371.82,128.14 372.85,128.24C373.88,128.34 374.91,128.43 375.94,128.51C376.97,128.58 378,128.64 379.03,128.69C380.06,128.74 381.09,128.77 382.12,128.8C383.15,128.83 384.18,128.84 385.21,128.85C386.24,128.86 387.27,128.86 388.3,128.85C389.33,128.84 390.36,128.83 391.39,128.8C392.42,128.77 393.45,128.74 394.48,128.69C395.51,128.64 396.54,128.58 397.57,128.52C398.6,128.46 399.63,128.38 400.66,128.31C401.69,128.24 402.71,128.16 403.74,128.1C404.77,128.04 405.8,127.97 406.83,127.94C407.86,127.91 408.89,127.89 409.92,127.89C410.95,127.89 411.98,127.92 413.01,127.96C414.04,128 415.07,128.06 416.1,128.12C417.13,128.19 418.16,128.27 419.19,128.35C420.22,128.42 421.25,128.5 422.28,128.57C423.31,128.64 424.34,128.7 425.37,128.75Q426.4,128.8 428.46,128.88L428.46,129.03" style="vector-effect: none; stroke-width: 2px; stroke: rgb(62, 142, 64); stroke-opacity: 1; fill: rgb(78, 177, 79); fill-opacity: 0.5;"/><path class="meanline" d="M221.24,91.9222412109375V129.03" style="fill: none; vector-effect: none; stroke-width: 2px; stroke-dasharray: 4px, 2px; stroke: rgb(62, 142, 64); stroke-opacity: 1;"/></g><g class="trace violins" style="opacity: 1;"><path class="violin" d="M173.8,107.02L173.8,106.98Q176.3,106.96 177.55,106.94C178.8,106.92 180.06,106.91 181.31,106.88C182.56,106.86 183.81,106.82 185.06,106.79C186.31,106.76 187.56,106.73 188.81,106.69C190.06,106.65 191.31,106.61 192.56,106.57C193.81,106.52 195.06,106.47 196.31,106.42C197.56,106.37 198.82,106.32 200.07,106.26C201.32,106.2 202.57,106.13 203.82,106.05C205.07,105.97 206.32,105.89 207.57,105.79C208.82,105.69 210.07,105.58 211.32,105.43C212.57,105.28 213.82,105.11 215.07,104.87C216.33,104.63 217.59,104.35 218.83,103.97C220.09,103.58 221.35,103.14 222.58,102.57C223.85,101.98 225.11,101.29 226.33,100.49C227.61,99.65 228.86,98.67 230.08,97.63C231.36,96.53 232.6,95.29 233.83,94.04C235.1,92.75 236.34,91.34 237.59,89.99C238.84,88.64 240.06,87.21 241.34,85.93C242.57,84.7 243.79,83.45 245.09,82.45C246.3,81.52 247.54,80.64 248.84,80.1C250.05,79.6 251.34,79.27 252.59,79.25C253.84,79.23 255.12,79.54 256.34,79.98C257.63,80.44 258.88,81.23 260.1,82.02C261.38,82.85 262.61,83.89 263.85,84.88C265.11,85.88 266.34,86.98 267.6,87.98C268.84,88.96 270.08,89.97 271.35,90.83C272.58,91.66 273.82,92.46 275.1,93.08C276.33,93.68 277.59,94.19 278.86,94.51C280.09,94.82 281.36,95.02 282.61,95.02C283.86,95.02 285.13,94.85 286.36,94.52C287.63,94.18 288.9,93.62 290.11,92.95C291.4,92.24 292.65,91.31 293.86,90.3C295.16,89.23 296.4,87.97 297.62,86.66C298.91,85.29 300.14,83.75 301.37,82.23C302.64,80.66 303.87,78.99 305.12,77.38C306.37,75.78 307.6,74.12 308.87,72.6C310.1,71.13 311.33,69.66 312.62,68.39C313.83,67.2 315.08,66.07 316.38,65.16C317.59,64.31 318.85,63.59 320.13,63.04C321.35,62.52 322.62,62.19 323.88,61.9C325.12,61.62 326.38,61.52 327.63,61.33C328.88,61.14 330.14,61.03 331.38,60.78C332.64,60.52 333.9,60.23 335.14,59.8C336.41,59.36 337.66,58.79 338.89,58.17C340.16,57.54 341.39,56.75 342.64,56.04C343.89,55.33 345.12,54.52 346.39,53.9C347.62,53.3 348.87,52.69 350.14,52.37C351.37,52.06 352.65,51.9 353.9,51.98C355.16,52.06 356.42,52.43 357.65,52.87C358.93,53.33 360.16,54.06 361.4,54.72C362.66,55.39 363.88,56.22 365.15,56.86C366.38,57.49 367.63,58.13 368.9,58.54C370.13,58.93 371.4,59.2 372.66,59.28C373.91,59.36 375.17,59.2 376.41,59.04C377.67,58.88 378.91,58.51 380.16,58.3C381.41,58.09 382.66,57.8 383.91,57.79C385.16,57.78 386.44,57.88 387.66,58.24C388.94,58.61 390.21,59.27 391.42,60.04C392.72,60.87 393.95,62 395.17,63.14C396.46,64.34 397.68,65.74 398.92,67.09C400.18,68.46 401.4,69.93 402.67,71.28C403.9,72.6 405.14,73.93 406.42,75.1C407.64,76.21 408.89,77.28 410.18,78.16C411.4,78.99 412.65,79.72 413.93,80.29C415.15,80.83 416.42,81.24 417.68,81.53C418.92,81.82 420.18,81.95 421.43,82.05C422.68,82.15 423.93,82.13 425.18,82.13C426.43,82.13 427.69,82.06 428.94,82.07C430.19,82.08 431.44,82.08 432.69,82.19C433.94,82.3 435.2,82.47 436.44,82.73C437.7,83 438.95,83.36 440.19,83.78C441.45,84.21 442.7,84.74 443.94,85.3C445.2,85.87 446.45,86.51 447.7,87.16C448.96,87.81 450.2,88.51 451.45,89.2C452.7,89.89 453.95,90.61 455.2,91.3C456.45,91.99 457.7,92.68 458.95,93.34C460.2,93.99 461.44,94.64 462.7,95.24C463.95,95.84 465.2,96.42 466.46,96.95C467.7,97.47 468.95,97.96 470.21,98.41C471.45,98.85 472.7,99.25 473.96,99.61C475.2,99.96 476.46,100.27 477.71,100.54C478.96,100.81 480.21,101.04 481.46,101.25C482.71,101.46 483.97,101.62 485.22,101.79C486.47,101.96 487.72,102.1 488.97,102.25C490.22,102.4 491.47,102.55 492.72,102.71C493.97,102.87 495.22,103.04 496.47,103.22C497.72,103.4 498.97,103.6 500.22,103.81C501.47,104.02 502.73,104.24 503.98,104.46C505.23,104.68 506.48,104.91 507.73,105.12C508.98,105.33 510.23,105.54 511.48,105.72C512.73,105.9 513.98,106.06 515.23,106.2C516.48,106.34 517.73,106.46 518.98,106.55Q520.23,106.65 522.74,106.77L522.74,107.02" style="vector-effect: none; stroke-width: 2px; stroke: rgb(52, 152, 124); stroke-opacity: 1; fill: rgb(65, 190, 155); fill-opacity: 0.5;"/><path class="meanline" d="M354.46,52.034141540527344V107.02" style="fill: none; vector-effect: none; stroke-width: 2px; stroke-dasharray: 4px, 2px; stroke: rgb(52, 152, 124); stroke-opacity: 1;"/></g><g class="trace violins" style="opacity: 1;"><path class="violin" d="M263.61,85L263.61,84.97Q267.05,84.95 268.77,84.93C270.49,84.91 272.2,84.89 273.92,84.86C275.64,84.83 277.36,84.8 279.08,84.75C280.8,84.7 282.52,84.65 284.24,84.58C285.96,84.51 287.68,84.43 289.4,84.34C291.12,84.25 292.84,84.16 294.56,84.06C296.28,83.96 298,83.85 299.72,83.76C301.44,83.67 303.16,83.57 304.88,83.5C306.6,83.43 308.32,83.36 310.04,83.32C311.76,83.28 313.48,83.26 315.2,83.26C316.92,83.26 318.64,83.29 320.36,83.31C322.08,83.34 323.8,83.39 325.52,83.41C327.24,83.43 328.95,83.46 330.67,83.42C332.39,83.38 334.11,83.33 335.83,83.18C337.55,83.02 339.28,82.82 340.99,82.49C342.72,82.16 344.45,81.73 346.15,81.2C347.89,80.66 349.61,79.99 351.31,79.25C353.05,78.49 354.76,77.61 356.47,76.7C358.21,75.77 359.92,74.73 361.63,73.72C363.36,72.7 365.07,71.63 366.79,70.6C368.51,69.58 370.22,68.55 371.95,67.57C373.66,66.6 375.38,65.67 377.11,64.77C378.82,63.88 380.54,63.05 382.26,62.18C383.98,61.31 385.71,60.48 387.42,59.56C389.15,58.62 390.88,57.67 392.58,56.59C394.33,55.47 396.05,54.26 397.74,52.94C399.49,51.56 401.21,50.03 402.9,48.46C404.65,46.84 406.34,45.05 408.06,43.33C409.78,41.6 411.47,39.75 413.22,38.1C414.91,36.51 416.59,34.87 418.38,33.61C420.04,32.44 421.76,31.31 423.54,30.71C425.21,30.14 426.99,29.86 428.7,29.97C430.43,30.08 432.18,30.69 433.85,31.42C435.62,32.2 437.32,33.41 439.01,34.58C440.77,35.8 442.46,37.26 444.17,38.63C445.9,40.01 447.6,41.47 449.33,42.84C451.04,44.19 452.76,45.51 454.49,46.79C456.2,48.06 457.93,49.27 459.65,50.49C461.37,51.7 463.09,52.89 464.81,54.08C466.53,55.27 468.24,56.48 469.97,57.64C471.68,58.79 473.39,59.96 475.13,60.99C476.83,61.99 478.54,62.98 480.29,63.74C481.98,64.47 483.7,65.11 485.44,65.49C487.14,65.86 488.88,66.03 490.6,66.01C492.32,65.99 494.05,65.73 495.76,65.39C497.49,65.04 499.21,64.47 500.92,63.92C502.65,63.36 504.36,62.67 506.08,62.06C507.8,61.45 509.51,60.79 511.24,60.25C512.95,59.71 514.67,59.2 516.4,58.81C518.11,58.42 519.83,58.12 521.56,57.92C523.27,57.72 525,57.63 526.72,57.61C528.44,57.59 530.16,57.68 531.88,57.77C533.6,57.86 535.31,58.04 537.03,58.17C538.75,58.3 540.47,58.47 542.19,58.54C543.91,58.61 545.63,58.67 547.35,58.6C549.07,58.53 550.8,58.39 552.51,58.14C554.24,57.89 555.96,57.52 557.67,57.11C559.4,56.7 561.11,56.15 562.83,55.66C564.55,55.16 566.26,54.57 567.99,54.14C569.7,53.71 571.42,53.25 573.15,53.07C574.86,52.89 576.61,52.8 578.31,53.03C580.05,53.27 581.8,53.78 583.47,54.52C585.24,55.3 586.95,56.44 588.62,57.66C590.4,58.96 592.09,60.58 593.78,62.17C595.53,63.82 597.22,65.66 598.94,67.39C600.66,69.11 602.35,70.91 604.1,72.52C605.79,74.07 607.5,75.59 609.26,76.9C610.94,78.14 612.66,79.28 614.42,80.21C616.1,81.1 617.84,81.83 619.58,82.42C621.28,83 623.01,83.4 624.74,83.74Q626.45,84.07 629.9,84.44L629.9,85" style="vector-effect: none; stroke-width: 2px; stroke: rgb(70, 29, 175); stroke-opacity: 1; fill: rgb(88, 36, 219); fill-opacity: 0.5;"/><path class="meanline" d="M474.89,60.84684371948242V85" style="fill: none; vector-effect: none; stroke-width: 2px; stroke-dasharray: 4px, 2px; stroke: rgb(70, 29, 175); stroke-opacity: 1;"/></g><g class="trace violins" style="opacity: 1;"><path class="violin" d="M182.75,62.99L182.75,62.92Q186.98,62.88 189.09,62.86C191.2,62.83 193.32,62.81 195.43,62.77C197.55,62.73 199.66,62.69 201.78,62.64C203.89,62.59 206.01,62.53 208.12,62.48C210.23,62.42 212.35,62.36 214.46,62.31C216.58,62.26 218.69,62.21 220.81,62.17C222.92,62.13 225.04,62.1 227.15,62.08C229.26,62.06 231.38,62.04 233.49,62.03C235.61,62.02 237.72,62.03 239.84,62.04C241.95,62.05 244.07,62.06 246.18,62.07C248.29,62.08 250.41,62.09 252.52,62.1C254.64,62.11 256.75,62.12 258.87,62.12C260.98,62.12 263.1,62.12 265.21,62.11C267.32,62.1 269.44,62.09 271.55,62.07C273.67,62.05 275.78,62.01 277.9,61.97C280.01,61.93 282.13,61.88 284.24,61.81C286.35,61.74 288.47,61.65 290.58,61.55C292.7,61.45 294.81,61.34 296.93,61.21C299.04,61.08 301.16,60.93 303.27,60.78C305.38,60.63 307.5,60.48 309.61,60.33C311.73,60.18 313.84,60.03 315.96,59.89C318.07,59.76 320.19,59.63 322.3,59.52C324.42,59.41 326.53,59.31 328.65,59.22C330.76,59.13 332.88,59.06 334.99,58.96C337.1,58.86 339.22,58.76 341.33,58.62C343.45,58.47 345.57,58.32 347.68,58.09C349.8,57.86 351.91,57.59 354.02,57.26C356.14,56.93 358.25,56.54 360.36,56.1C362.48,55.66 364.6,55.16 366.71,54.62C368.83,54.08 370.94,53.49 373.05,52.88C375.17,52.26 377.28,51.61 379.39,50.93C381.51,50.25 383.63,49.54 385.74,48.8C387.86,48.06 389.97,47.28 392.08,46.48C394.2,45.68 396.31,44.84 398.42,44C400.54,43.16 402.65,42.28 404.77,41.45C406.88,40.63 408.99,39.79 411.11,39.06C413.21,38.34 415.32,37.64 417.45,37.09C419.55,36.54 421.67,36.08 423.8,35.76C425.91,35.45 428.02,35.26 430.14,35.19C432.25,35.12 434.37,35.19 436.48,35.33C438.6,35.47 440.72,35.73 442.83,36.01C444.95,36.29 447.06,36.66 449.17,37C451.28,37.35 453.39,37.74 455.51,38.08C457.62,38.42 459.74,38.76 461.86,39.03C463.97,39.3 466.08,39.54 468.2,39.7C470.31,39.85 472.43,39.96 474.54,39.96C476.66,39.96 478.78,39.88 480.89,39.68C483.01,39.48 485.13,39.19 487.23,38.76C489.36,38.33 491.47,37.77 493.57,37.1C495.71,36.41 497.82,35.58 499.92,34.66C502.06,33.72 504.16,32.65 506.26,31.53C508.39,30.4 510.5,29.14 512.61,27.9C514.73,26.65 516.84,25.31 518.95,24.03C521.06,22.75 523.17,21.44 525.29,20.2C527.4,18.97 529.51,17.75 531.64,16.62C533.74,15.5 535.85,14.42 537.98,13.45C540.08,12.5 542.19,11.6 544.32,10.85C546.42,10.12 548.54,9.47 550.67,9C552.77,8.54 554.89,8.2 557.01,8.03C559.12,7.86 561.24,7.84 563.35,7.95C565.47,8.06 567.59,8.33 569.7,8.67C571.82,9.01 573.94,9.49 576.04,10.01C578.16,10.53 580.27,11.15 582.38,11.79C584.5,12.44 586.62,13.16 588.73,13.87C590.85,14.58 592.95,15.35 595.07,16.06C597.18,16.77 599.29,17.52 601.41,18.14C603.52,18.75 605.63,19.35 607.76,19.76C609.86,20.17 611.98,20.49 614.1,20.61C616.21,20.73 618.33,20.68 620.44,20.5C622.56,20.32 624.68,19.92 626.79,19.52C628.91,19.12 631.01,18.54 633.13,18.09C635.24,17.64 637.35,17.1 639.47,16.82C641.58,16.54 643.71,16.32 645.82,16.41C647.94,16.5 650.08,16.8 652.16,17.38C654.31,17.97 656.43,18.9 658.5,19.97C660.67,21.09 662.77,22.54 664.85,24.03C667.01,25.58 669.1,27.38 671.19,29.15C673.33,30.96 675.42,32.91 677.54,34.78C679.65,36.65 681.75,38.57 683.88,40.38C685.98,42.15 688.08,43.91 690.22,45.53C692.31,47.1 694.42,48.61 696.57,49.97C698.65,51.29 700.77,52.5 702.91,53.59C705,54.65 707.12,55.59 709.25,56.42C711.35,57.24 713.47,57.94 715.6,58.55C717.7,59.15 719.82,59.64 721.94,60.08C724.05,60.51 726.16,60.86 728.28,61.16C730.39,61.46 732.51,61.69 734.63,61.89C736.74,62.09 738.86,62.23 740.97,62.36C743.08,62.49 745.2,62.57 747.31,62.65C749.43,62.73 751.54,62.78 753.66,62.82Q755.77,62.86 760,62.91L760,62.99" style="vector-effect: none; stroke-width: 2px; stroke: rgb(132, 72, 129); stroke-opacity: 1; fill: rgb(164, 91, 161); fill-opacity: 0.5;"/><path class="meanline" d="M547.99,9.681183815002441V62.99" style="fill: none; vector-effect: none; stroke-width: 2px; stroke-dasharray: 4px, 2px; stroke: rgb(132, 72, 129); stroke-opacity: 1;"/></g></g></g><g class="overplot"/><path class="xlines-above crisp" d="M0,0" style="fill: none;"/><path class="ylines-above crisp" d="M0,0" style="fill: none;"/><g class="overlines-above"/><g class="xaxislayer-above"><g class="xtick"><text text-anchor="middle" x="0" y="172" transform="translate(65.13,0)" style="font-family: 'Open Sans', verdana, arial, sans-serif; font-size: 12px; fill: rgb(242, 245, 250); fill-opacity: 1; white-space: pre; opacity: 1;">0</text></g><g class="xtick"><text text-anchor="middle" x="0" y="172" style="font-family: 'Open Sans', verdana, arial, sans-serif; font-size: 12px; fill: rgb(242, 245, 250); fill-opacity: 1; white-space: pre; opacity: 1;" transform="translate(147.2,0)">10</text></g><g class="xtick"><text text-anchor="middle" x="0" y="172" style="font-family: 'Open Sans', verdana, arial, sans-serif; font-size: 12px; fill: rgb(242, 245, 250); fill-opacity: 1; white-space: pre; opacity: 1;" transform="translate(229.27,0)">20</text></g><g class="xtick"><text text-anchor="middle" x="0" y="172" style="font-family: 'Open Sans', verdana, arial, sans-serif; font-size: 12px; fill: rgb(242, 245, 250); fill-opacity: 1; white-space: pre; opacity: 1;" transform="translate(311.34,0)">30</text></g><g class="xtick"><text text-anchor="middle" x="0" y="172" style="font-family: 'Open Sans', verdana, arial, sans-serif; font-size: 12px; fill: rgb(242, 245, 250); fill-opacity: 1; white-space: pre; opacity: 1;" transform="translate(393.41,0)">40</text></g><g class="xtick"><text text-anchor="middle" x="0" y="172" style="font-family: 'Open Sans', verdana, arial, sans-serif; font-size: 12px; fill: rgb(242, 245, 250); fill-opacity: 1; white-space: pre; opacity: 1;" transform="translate(475.48,0)">50</text></g><g class="xtick"><text text-anchor="middle" x="0" y="172" style="font-family: 'Open Sans', verdana, arial, sans-serif; font-size: 12px; fill: rgb(242, 245, 250); fill-opacity: 1; white-space: pre; opacity: 1;" transform="translate(557.55,0)">60</text></g><g class="xtick"><text text-anchor="middle" x="0" y="172" style="font-family: 'Open Sans', verdana, arial, sans-serif; font-size: 12px; fill: rgb(242, 245, 250); fill-opacity: 1; white-space: pre; opacity: 1;" transform="translate(639.62,0)">70</text></g><g class="xtick"><text text-anchor="middle" x="0" y="172" style="font-family: 'Open Sans', verdana, arial, sans-serif; font-size: 12px; fill: rgb(242, 245, 250); fill-opacity: 1; white-space: pre; opacity: 1;" transform="translate(721.68,0)">80</text></g></g><g class="yaxislayer-above"/><g class="overaxes-above"/></g></g><g class="polarlayer"/><g class="smithlayer"/><g class="ternarylayer"/><g class="geolayer"/><g class="funnelarealayer"/><g class="pielayer"/><g class="iciclelayer"/><g class="treemaplayer"/><g class="sunburstlayer"/><g class="glimages"/><defs id="topdefs-77801f"><g class="clips"/></defs><g class="layer-above"><g class="imagelayer"/><g class="shapelayer"/></g><g class="infolayer"><g class="g-gtitle"/><g class="g-xtitle" transform="translate(0,-2.3000000000000114)"><text class="xtitle" x="400" y="199.3" text-anchor="middle" style="font-family: 'Open Sans', verdana, arial, sans-serif; font-size: 14px; fill: rgb(242, 245, 250); opacity: 1; white-space: pre;">Kid Energy</text></g><g class="g-ytitle"/></g></svg>