<svg class="main-svg" xmlns="http://www.w3.org/2000/svg" xmlns:xlink="http://www.w3.org/1999/xlink" width="800" height="200" style="" viewBox="0 0 800 200"><rect x="0" y="0" width="800" height="200" style="fill: rgb(0, 0, 0); fill-opacity: 0;"/><defs id="defs-311ca0"><g class="clips"><clipPath id="clip311ca0xyplot" class="plotclip"><rect width="721" height="144"/></clipPath><clipPath class="axesclip" id="clip311ca0x"><rect x="35" y="0" width="721" height="200"/></clipPath><clipPath class="axesclip" id="clip311ca0y"><rect x="0" y="0" width="800" height="144"/></clipPath><clipPath class="axesclip" id="clip311ca0xy"><rect x="35" y="0" width="721" height="144"/></clipPath></g><g class="gradients"/><g class="patterns"/></defs><g class="bglayer"><rect class="bg" x="35" y="0" width="721" height="144" style="fill: rgb(0, 0, 0); fill-opacity: 0; stroke-width: 0;"/></g><g class="layer-below"><g class="imagelayer"/><g class="shapelayer"/></g><g class="cartesianlayer"><g class="subplot xy"><g class="layer-subplot"><g class="shapelayer"/><g class="imagelayer"/></g><g class="minor-gridlayer"><g class="x"/><g class="y"/></g><g class="gridlayer"><g class="x"/><g class="y"/></g><g class="zerolinelayer"/><g class="layer-between"><g class="shapelayer"/><g class="imagelayer"/></g><path class="xlines-below"/><path class="ylines-below"/><g class="overlines-below"/><g class="xaxislayer-below"/><g class="yaxislayer-below"/><g class="overaxes-below"/><g class="plot" transform="translate(35,0)" clip-path="url(#clip311ca0xyplot)"><g class="violinlayer mlayer"><g class="trace violins" style="opacity: 1;"><path class="violin" d="M-7.83,136.8L-7.83,131.2Q-6.94,128.23 -6.54,126.52C-6.07,124.49 -5.66,122.17 -5.25,119.81C-4.8,117.2 -4.38,114.32 -3.96,111.52C-3.52,108.64 -3.11,105.58 -2.67,102.76C-2.25,100.11 -1.86,97.4 -1.38,95.08C-0.98,93.14 -0.62,91.18 -0.09,89.76C0.29,88.74 0.65,87.67 1.2,87.24C1.57,86.95 2.08,86.87 2.49,86.95C2.94,87.04 3.36,87.51 3.78,87.86C4.23,88.23 4.64,88.7 5.07,89.14C5.51,89.59 5.95,90.05 6.37,90.55C6.81,91.07 7.24,91.63 7.66,92.22C8.1,92.85 8.52,93.54 8.95,94.21C9.38,94.89 9.8,95.61 10.24,96.26C10.66,96.87 11.08,97.49 11.53,98.01C11.94,98.49 12.37,98.91 12.82,99.28C13.24,99.62 13.67,99.9 14.11,100.16C14.53,100.41 14.96,100.64 15.4,100.83C15.82,101.02 16.25,101.19 16.69,101.3C17.11,101.41 17.55,101.46 17.98,101.49C18.41,101.52 18.84,101.46 19.27,101.48C19.7,101.5 20.14,101.48 20.56,101.62C21.01,101.77 21.45,102.04 21.85,102.38C22.32,102.78 22.73,103.37 23.14,103.96C23.6,104.62 24.01,105.41 24.43,106.16C24.87,106.94 25.28,107.77 25.72,108.56C26.15,109.33 26.58,110.09 27.02,110.84C27.45,111.58 27.88,112.29 28.31,113.02C28.74,113.76 29.17,114.49 29.6,115.24C30.04,116.01 30.46,116.81 30.89,117.6C31.32,118.39 31.74,119.21 32.18,119.98C32.6,120.73 33.02,121.48 33.47,122.17C33.89,122.81 34.31,123.42 34.76,123.98C35.18,124.5 35.61,124.98 36.05,125.42C36.47,125.83 36.9,126.2 37.34,126.54C37.76,126.87 38.19,127.17 38.63,127.44C39.05,127.7 39.49,127.93 39.92,128.15C40.35,128.36 40.78,128.54 41.21,128.73C41.64,128.92 42.07,129.09 42.5,129.29C42.93,129.5 43.37,129.72 43.79,129.96C44.23,130.21 44.65,130.5 45.08,130.78C45.52,131.07 45.95,131.39 46.38,131.68C46.81,131.97 47.23,132.27 47.67,132.51C48.09,132.74 48.52,132.95 48.96,133.08C49.38,133.2 49.82,133.29 50.25,133.28C50.68,133.27 51.12,133.18 51.54,133.04C51.98,132.89 52.41,132.66 52.83,132.41C53.27,132.15 53.69,131.81 54.12,131.5C54.55,131.19 54.97,130.84 55.41,130.55C55.83,130.27 56.26,129.99 56.7,129.8C57.12,129.62 57.56,129.49 57.99,129.44C58.42,129.4 58.85,129.44 59.28,129.52C59.71,129.6 60.14,129.77 60.57,129.92C61,130.08 61.43,130.28 61.86,130.46C62.29,130.64 62.72,130.83 63.15,131C63.58,131.17 64.01,131.34 64.44,131.5C64.87,131.66 65.3,131.8 65.73,131.95C66.16,132.1 66.6,132.24 67.03,132.38C67.46,132.52 67.89,132.64 68.32,132.77C68.75,132.89 69.18,133.01 69.61,133.13C70.04,133.25 70.47,133.35 70.9,133.47C71.33,133.59 71.76,133.71 72.19,133.85C72.62,133.99 73.05,134.14 73.48,134.3C73.91,134.46 74.34,134.64 74.77,134.81C75.2,134.99 75.63,135.18 76.06,135.35C76.49,135.52 76.92,135.68 77.35,135.83C77.78,135.97 78.21,136.11 78.64,136.22Q79.07,136.33 79.93,136.48L79.93,136.8" style="vector-effect: none; stroke-width: 2px; stroke: rgb(160, 156, 44); stroke-opacity: 1; fill: rgb(200, 195, 55); fill-opacity: 0.5;"/><path class="meanline" d="M17.7,101.46721649169922V136.8" style="fill: none; vector-effect: none; stroke-width: 2px; stroke-dasharray: 4px, 2px; stroke: rgb(160, 156, 44); stroke-opacity: 1;"/></g><g class="trace violins" style="opacity: 1;"><path class="violin" d="M-7.12,116.86L-7.12,115.67Q-3.91,114.91 -2.35,114.28C-0.72,113.63 0.89,112.82 2.43,111.79C4.08,110.68 5.68,109.31 7.2,107.77C8.87,106.08 10.44,104.06 11.97,101.95C13.63,99.66 15.18,97.07 16.74,94.49C18.37,91.79 19.91,88.85 21.51,86.07C23.09,83.32 24.62,80.42 26.28,77.88C27.81,75.53 29.34,73.12 31.06,71.33C32.55,69.77 34.13,68.24 35.83,67.54C37.34,66.92 39.05,66.74 40.6,67.02C42.24,67.32 43.85,68.38 45.37,69.45C47.05,70.63 48.59,72.34 50.14,73.94C51.77,75.62 53.31,77.56 54.91,79.33C56.49,81.09 58.06,82.93 59.69,84.54C61.24,86.07 62.81,87.59 64.46,88.77C65.99,89.87 67.59,90.87 69.23,91.47C70.77,92.04 72.41,92.37 74,92.39C75.59,92.41 77.21,92.06 78.77,91.58C80.39,91.08 81.97,90.24 83.54,89.42C85.16,88.57 86.72,87.49 88.32,86.55C89.91,85.62 91.47,84.58 93.09,83.8C94.65,83.05 96.24,82.32 97.86,81.94C99.42,81.57 101.05,81.39 102.63,81.5C104.23,81.61 105.84,82.04 107.4,82.61C109.03,83.21 110.61,84.12 112.17,85.05C113.8,86.02 115.37,87.21 116.95,88.35C118.55,89.5 120.12,90.78 121.72,91.93C123.3,93.06 124.87,94.22 126.49,95.21C128.05,96.17 129.64,97.07 131.26,97.78C132.82,98.46 134.42,99.02 136.03,99.41C137.6,99.79 139.21,100 140.8,100.09C142.39,100.18 143.99,100.11 145.58,99.98C147.17,99.85 148.77,99.6 150.35,99.3C151.95,99 153.54,98.62 155.12,98.18C156.72,97.74 158.31,97.23 159.89,96.67C161.49,96.1 163.08,95.45 164.66,94.77C166.26,94.08 167.85,93.31 169.44,92.56C171.03,91.81 172.61,90.99 174.21,90.28C175.79,89.58 177.37,88.87 178.98,88.35C180.55,87.84 182.15,87.4 183.75,87.19C185.33,86.98 186.94,86.93 188.52,87.06C190.12,87.19 191.72,87.55 193.29,87.99C194.9,88.44 196.49,89.07 198.07,89.72C199.67,90.38 201.25,91.16 202.84,91.9C204.43,92.64 206.01,93.43 207.61,94.16C209.19,94.88 210.78,95.59 212.38,96.24C213.96,96.89 215.55,97.49 217.15,98.07C218.73,98.64 220.33,99.16 221.92,99.69C223.51,100.22 225.11,100.72 226.7,101.25C228.29,101.79 229.89,102.32 231.47,102.9C233.07,103.49 234.66,104.1 236.24,104.75C237.84,105.4 239.42,106.11 241.01,106.81C242.6,107.51 244.19,108.26 245.78,108.97C247.37,109.68 248.95,110.4 250.55,111.05C252.13,111.7 253.73,112.32 255.33,112.87C256.91,113.41 258.5,113.91 260.1,114.32C261.68,114.73 263.27,115.06 264.87,115.34C266.45,115.61 268.05,115.81 269.64,115.97C271.23,116.13 272.82,116.22 274.41,116.28C276,116.34 277.59,116.35 279.18,116.35C280.77,116.35 282.37,116.31 283.96,116.26C285.55,116.21 287.14,116.14 288.73,116.07C290.32,115.99 291.91,115.9 293.5,115.81C295.09,115.72 296.68,115.62 298.27,115.53C299.86,115.44 301.45,115.35 303.04,115.28C304.63,115.21 306.22,115.13 307.81,115.09C309.4,115.05 311,115.02 312.59,115.02C314.18,115.02 315.77,115.05 317.36,115.1C318.95,115.15 320.54,115.23 322.13,115.31C323.72,115.4 325.31,115.5 326.9,115.61C328.49,115.72 330.08,115.84 331.67,115.95C333.26,116.06 334.85,116.17 336.44,116.26C338.03,116.35 339.63,116.43 341.22,116.5Q342.81,116.57 345.99,116.67L345.99,116.86" style="vector-effect: none; stroke-width: 2px; stroke: rgb(52, 152, 124); stroke-opacity: 1; fill: rgb(65, 190, 155); fill-opacity: 0.5;"/><path class="meanline" d="M114.62,86.66510772705078V116.86" style="fill: none; vector-effect: none; stroke-width: 2px; stroke-dasharray: 4px, 2px; stroke: rgb(52, 152, 124); stroke-opacity: 1;"/></g><g class="trace violins" style="opacity: 1;"><path class="violin" d="M5.44,96.92L5.44,96.9Q8.02,96.88 9.31,96.87C10.6,96.85 11.89,96.84 13.18,96.81C14.47,96.78 15.76,96.75 17.05,96.7C18.34,96.65 19.63,96.59 20.92,96.5C22.21,96.41 23.5,96.31 24.79,96.16C26.08,96.01 27.37,95.84 28.66,95.6C29.96,95.35 31.26,95.07 32.54,94.69C33.84,94.31 35.14,93.87 36.41,93.32C37.72,92.75 39.02,92.09 40.28,91.31C41.6,90.5 42.9,89.56 44.15,88.51C45.48,87.4 46.77,86.14 48.02,84.79C49.35,83.35 50.64,81.75 51.89,80.07C53.22,78.29 54.5,76.35 55.76,74.38C57.08,72.32 58.35,70.12 59.63,67.95C60.93,65.75 62.19,63.44 63.5,61.26C64.77,59.14 66.02,56.97 67.37,55.06C68.61,53.3 69.85,51.51 71.24,50.19C72.46,49.03 73.75,47.9 75.11,47.4C76.34,46.95 77.72,46.83 78.98,47.08C80.31,47.34 81.62,48.2 82.85,49.06C84.21,50.01 85.45,51.38 86.72,52.63C88.03,53.92 89.27,55.43 90.59,56.71C91.86,57.94 93.11,59.24 94.46,60.17C95.7,61.02 97,61.79 98.33,62.16C99.58,62.51 100.92,62.56 102.2,62.42C103.5,62.28 104.79,61.75 106.07,61.29C107.38,60.82 108.64,60.09 109.94,59.6C111.22,59.12 112.5,58.56 113.81,58.37C115.08,58.18 116.42,58.15 117.68,58.42C119,58.7 120.31,59.35 121.55,60.11C122.9,60.94 124.17,62.12 125.42,63.29C126.75,64.53 128.01,65.99 129.29,67.37C130.59,68.77 131.85,70.26 133.16,71.62C134.43,72.93 135.71,74.25 137.04,75.39C138.3,76.46 139.58,77.47 140.91,78.29C142.17,79.07 143.47,79.72 144.78,80.24C146.05,80.74 147.35,81.08 148.65,81.38C149.93,81.67 151.23,81.83 152.52,82.01C153.81,82.18 155.1,82.29 156.39,82.43C157.68,82.57 158.97,82.7 160.26,82.87C161.55,83.04 162.84,83.24 164.13,83.43C165.42,83.62 166.71,83.85 168,84.02C169.29,84.19 170.58,84.38 171.87,84.47C173.16,84.56 174.45,84.61 175.74,84.55C177.03,84.49 178.33,84.33 179.61,84.11C180.91,83.89 182.2,83.55 183.48,83.21C184.78,82.86 186.06,82.42 187.35,82.03C188.64,81.64 189.92,81.22 191.22,80.89C192.5,80.57 193.79,80.27 195.09,80.08C196.37,79.89 197.67,79.78 198.96,79.77C200.25,79.76 201.55,79.85 202.83,80.02C204.13,80.19 205.42,80.48 206.7,80.81C208,81.15 209.29,81.58 210.57,82.05C211.87,82.53 213.16,83.1 214.44,83.69C215.74,84.29 217.03,84.95 218.31,85.62C219.61,86.3 220.89,87.03 222.18,87.74C223.47,88.45 224.75,89.2 226.05,89.89C227.33,90.58 228.62,91.26 229.92,91.88C231.2,92.49 232.49,93.06 233.79,93.56C235.07,94.05 236.36,94.48 237.66,94.85C238.94,95.21 240.23,95.5 241.53,95.75C242.82,95.99 244.12,96.17 245.41,96.32C246.7,96.47 247.99,96.56 249.28,96.64C250.57,96.72 251.86,96.76 253.15,96.8C254.44,96.84 255.73,96.86 257.02,96.88C258.31,96.9 259.6,96.91 260.89,96.91C262.18,96.91 263.47,96.91 264.76,96.91C266.05,96.91 267.34,96.91 268.63,96.91C269.92,96.91 271.21,96.91 272.5,96.9C273.79,96.89 275.08,96.88 276.37,96.86C277.66,96.84 278.95,96.83 280.24,96.8C281.53,96.77 282.82,96.73 284.11,96.68C285.4,96.63 286.69,96.57 287.98,96.49C289.27,96.41 290.56,96.32 291.85,96.22C293.14,96.12 294.43,96 295.72,95.89C297.01,95.77 298.3,95.65 299.59,95.53C300.88,95.41 302.17,95.29 303.46,95.19C304.75,95.09 306.04,95 307.33,94.94C308.62,94.88 309.91,94.84 311.2,94.83C312.49,94.82 313.78,94.83 315.07,94.86C316.36,94.89 317.65,94.95 318.94,95.02C320.23,95.09 321.52,95.19 322.81,95.29C324.1,95.39 325.39,95.5 326.68,95.61C327.97,95.72 329.26,95.84 330.55,95.94C331.84,96.04 333.13,96.14 334.42,96.23C335.71,96.32 337,96.4 338.29,96.47C339.58,96.54 340.87,96.6 342.16,96.65C343.45,96.7 344.74,96.74 346.03,96.77C347.32,96.8 348.62,96.83 349.91,96.85C351.2,96.87 352.49,96.88 353.78,96.89C355.07,96.9 356.36,96.9 357.65,96.91C358.94,96.91 360.23,96.92 361.52,96.92C362.81,96.92 364.1,96.92 365.39,96.92C366.68,96.92 367.97,96.92 369.26,96.92C370.55,96.92 371.84,96.92 373.13,96.92C374.42,96.92 375.71,96.92 377,96.92C378.29,96.92 379.58,96.92 380.87,96.92C382.16,96.92 383.45,96.92 384.74,96.92C386.03,96.92 387.32,96.92 388.61,96.92C389.9,96.92 391.19,96.92 392.48,96.92C393.77,96.92 395.06,96.92 396.35,96.92C397.64,96.92 398.93,96.92 400.22,96.92C401.51,96.92 402.8,96.92 404.09,96.92C405.38,96.92 406.67,96.92 407.96,96.92C409.25,96.92 410.54,96.91 411.83,96.91C413.12,96.91 414.41,96.91 415.7,96.9C416.99,96.89 418.28,96.88 419.57,96.87C420.86,96.86 422.15,96.84 423.44,96.82C424.73,96.8 426.02,96.77 427.31,96.73C428.6,96.69 429.89,96.65 431.18,96.6C432.47,96.55 433.76,96.5 435.05,96.45C436.34,96.39 437.63,96.33 438.92,96.27C440.21,96.22 441.5,96.16 442.79,96.12C444.08,96.08 445.37,96.04 446.66,96.02C447.95,96 449.24,96 450.53,96.01C451.82,96.02 453.12,96.05 454.41,96.08C455.7,96.11 456.99,96.16 458.28,96.21C459.57,96.26 460.86,96.32 462.15,96.38C463.44,96.44 464.73,96.5 466.02,96.55C467.31,96.6 468.6,96.65 469.89,96.69C471.18,96.73 472.47,96.76 473.76,96.79Q475.05,96.82 477.63,96.86L477.63,96.92" style="vector-effect: none; stroke-width: 2px; stroke: rgb(62, 142, 64); stroke-opacity: 1; fill: rgb(78, 177, 79); fill-opacity: 0.5;"/><path class="meanline" d="M122.48,60.74151611328125V96.92" style="fill: none; vector-effect: none; stroke-width: 2px; stroke-dasharray: 4px, 2px; stroke: rgb(62, 142, 64); stroke-opacity: 1;"/></g><g class="trace violins" style="opacity: 1;"><path class="violin" d="M18.6,76.98L18.6,76.77Q21.33,76.63 22.69,76.49C24.06,76.35 25.42,76.18 26.78,75.91C28.15,75.64 29.53,75.31 30.87,74.85C32.25,74.38 33.62,73.8 34.95,73.08C36.35,72.32 37.72,71.4 39.04,70.35C40.45,69.23 41.81,67.91 43.13,66.49C44.54,64.97 45.89,63.26 47.22,61.5C48.62,59.64 49.97,57.6 51.31,55.57C52.69,53.48 54.03,51.26 55.4,49.11C56.76,46.97 58.1,44.76 59.49,42.71C60.82,40.74 62.15,38.76 63.57,37.03C64.88,35.43 66.22,33.88 67.66,32.67C68.96,31.58 70.33,30.59 71.75,30.01C73.06,29.48 74.48,29.18 75.84,29.2C77.21,29.22 78.6,29.61 79.93,30.12C81.34,30.66 82.69,31.55 84.02,32.45C85.42,33.4 86.76,34.58 88.1,35.72C89.48,36.89 90.82,38.19 92.19,39.4C93.55,40.6 94.89,41.84 96.28,42.94C97.62,44 98.97,45.04 100.37,45.88C101.7,46.67 103.07,47.4 104.46,47.87C105.8,48.32 107.18,48.63 108.55,48.69C109.91,48.75 111.3,48.58 112.64,48.22C114.03,47.85 115.4,47.2 116.72,46.46C118.13,45.67 119.48,44.63 120.81,43.55C122.21,42.42 123.55,41.09 124.9,39.8C126.28,38.49 127.61,37.06 128.99,35.75C130.34,34.46 131.68,33.13 133.08,32.01C134.41,30.94 135.76,29.91 137.17,29.15C138.49,28.44 139.87,27.85 141.26,27.52C142.6,27.2 143.98,27.09 145.34,27.14C146.71,27.19 148.08,27.47 149.43,27.83C150.81,28.2 152.18,28.75 153.52,29.35C154.9,29.97 156.27,30.72 157.61,31.51C158.99,32.33 160.35,33.25 161.7,34.2C163.08,35.18 164.44,36.24 165.79,37.3C167.16,38.37 168.51,39.53 169.88,40.61C171.24,41.68 172.58,42.8 173.96,43.78C175.3,44.73 176.66,45.67 178.05,46.42C179.39,47.14 180.75,47.77 182.14,48.21C183.48,48.64 184.86,48.91 186.23,49.07C187.59,49.23 188.96,49.21 190.32,49.2C191.68,49.19 193.05,49.04 194.41,49.03C195.77,49.02 197.14,48.96 198.5,49.11C199.87,49.26 201.24,49.5 202.58,49.93C203.97,50.38 205.34,51.02 206.67,51.78C208.07,52.58 209.43,53.6 210.76,54.67C212.16,55.79 213.5,57.08 214.85,58.36C216.23,59.67 217.57,61.09 218.94,62.44C220.3,63.78 221.65,65.15 223.03,66.41C224.37,67.63 225.73,68.83 227.12,69.88C228.45,70.88 229.81,71.81 231.2,72.59C232.54,73.34 233.91,73.98 235.29,74.5C236.63,75.01 238.01,75.39 239.38,75.7C240.73,76.01 242.1,76.21 243.47,76.38C244.83,76.55 246.2,76.65 247.56,76.73C248.92,76.81 250.29,76.84 251.65,76.88C253.01,76.92 254.37,76.93 255.73,76.95C257.09,76.97 258.46,76.96 259.82,76.97C261.18,76.97 262.55,76.98 263.91,76.98C265.27,76.98 266.64,76.98 268,76.98C269.36,76.98 270.73,76.98 272.09,76.98C273.45,76.98 274.82,76.98 276.18,76.98C277.54,76.98 278.91,76.98 280.27,76.98C281.63,76.98 282.99,76.98 284.35,76.98C285.71,76.98 287.08,76.98 288.44,76.98C289.8,76.98 291.17,76.98 292.53,76.98C293.89,76.98 295.26,76.98 296.62,76.98C297.98,76.98 299.35,76.98 300.71,76.98C302.07,76.98 303.44,76.98 304.8,76.98C306.16,76.98 307.53,76.98 308.89,76.98C310.25,76.98 311.61,76.98 312.97,76.98C314.33,76.98 315.7,76.98 317.06,76.98C318.42,76.98 319.79,76.98 321.15,76.98C322.51,76.98 323.88,76.98 325.24,76.98C326.6,76.98 327.97,76.98 329.33,76.98C330.69,76.98 332.06,76.98 333.42,76.98C334.78,76.98 336.15,76.98 337.51,76.98C338.87,76.98 340.23,76.98 341.59,76.98C342.95,76.98 344.32,76.98 345.68,76.98C347.04,76.98 348.41,76.98 349.77,76.98C351.13,76.98 352.5,76.98 353.86,76.98C355.22,76.98 356.59,76.98 357.95,76.98C359.31,76.98 360.68,76.98 362.04,76.98C363.4,76.98 364.77,76.98 366.13,76.98C367.49,76.98 368.85,76.97 370.21,76.97C371.57,76.96 372.94,76.96 374.3,76.95C375.66,76.94 377.03,76.93 378.39,76.91C379.75,76.89 381.12,76.86 382.48,76.82C383.84,76.78 385.21,76.72 386.57,76.65C387.93,76.58 389.3,76.51 390.66,76.41C392.02,76.31 393.38,76.19 394.74,76.07C396.1,75.95 397.47,75.81 398.83,75.68C400.19,75.55 401.56,75.41 402.92,75.31C404.28,75.21 405.65,75.11 407.01,75.06C408.37,75.01 409.74,74.98 411.1,74.99C412.46,75 413.83,75.06 415.19,75.13C416.55,75.2 417.92,75.31 419.28,75.43C420.64,75.54 422,75.69 423.36,75.82C424.72,75.95 426.09,76.08 427.45,76.2C428.81,76.31 430.18,76.42 431.54,76.51Q432.9,76.6 435.63,76.73L435.63,76.98" style="vector-effect: none; stroke-width: 2px; stroke: rgb(70, 29, 175); stroke-opacity: 1; fill: rgb(88, 36, 219); fill-opacity: 0.5;"/><path class="meanline" d="M132.12,32.81553649902344V76.98" style="fill: none; vector-effect: none; stroke-width: 2px; stroke-dasharray: 4px, 2px; stroke: rgb(70, 29, 175); stroke-opacity: 1;"/></g><g class="trace violins" style="opacity: 1;"><path class="violin" d="M181.58,57.05L181.58,56.73Q185.39,56.53 187.29,56.36C189.2,56.19 191.1,56 193,55.72C194.91,55.44 196.82,55.11 198.71,54.68C200.62,54.25 202.53,53.74 204.42,53.15C206.34,52.55 208.24,51.86 210.13,51.12C212.04,50.37 213.94,49.52 215.83,48.68C217.74,47.83 219.64,46.92 221.54,46.04C223.44,45.17 225.34,44.26 227.25,43.43C229.15,42.61 231.05,41.81 232.96,41.07C234.86,40.34 236.76,39.66 238.67,39C240.57,38.35 242.48,37.77 244.38,37.15C246.28,36.53 248.19,35.95 250.09,35.3C252,34.65 253.9,33.98 255.79,33.24C257.7,32.5 259.61,31.71 261.5,30.86C263.41,30 265.31,29.07 267.21,28.13C269.12,27.18 271.02,26.18 272.92,25.2C274.82,24.23 276.71,23.2 278.63,22.28C280.52,21.37 282.42,20.46 284.34,19.72C286.22,19 288.12,18.33 290.04,17.9C291.92,17.48 293.85,17.2 295.75,17.17C297.65,17.14 299.57,17.35 301.46,17.72C303.38,18.1 305.29,18.75 307.17,19.44C309.09,20.14 310.98,21.05 312.88,21.89C314.79,22.73 316.67,23.69 318.59,24.47C320.48,25.24 322.37,26.01 324.29,26.56C326.17,27.09 328.09,27.51 330,27.73C331.89,27.95 333.81,27.97 335.71,27.87C337.62,27.77 339.53,27.46 341.42,27.12C343.33,26.77 345.23,26.26 347.13,25.79C349.04,25.32 350.93,24.76 352.84,24.28C354.74,23.8 356.64,23.32 358.55,22.93C360.44,22.55 362.34,22.21 364.25,21.97C366.15,21.73 368.06,21.58 369.96,21.49C371.86,21.4 373.77,21.41 375.67,21.44C377.57,21.47 379.48,21.56 381.38,21.65C383.28,21.74 385.19,21.87 387.09,21.98C388.99,22.09 390.9,22.2 392.8,22.31C394.7,22.42 396.6,22.53 398.5,22.63C400.4,22.73 402.31,22.84 404.21,22.92C406.11,22.99 408.02,23.08 409.92,23.08C411.82,23.08 413.73,23.06 415.63,22.91C417.54,22.76 419.45,22.55 421.34,22.2C423.25,21.85 425.16,21.37 427.05,20.8C428.97,20.22 430.87,19.48 432.76,18.71C434.68,17.92 436.57,17.01 438.46,16.11C440.37,15.21 442.26,14.22 444.17,13.31C446.07,12.4 447.96,11.45 449.88,10.64C451.77,9.84 453.67,9.05 455.59,8.47C457.47,7.91 459.39,7.39 461.3,7.2C463.19,7.01 465.13,6.98 467.01,7.31C468.94,7.64 470.87,8.31 472.71,9.23C474.68,10.22 476.58,11.63 478.42,13.15C480.4,14.79 482.27,16.82 484.13,18.84C486.08,20.96 487.94,23.34 489.84,25.61C491.75,27.88 493.61,30.29 495.55,32.46C497.42,34.55 499.29,36.64 501.26,38.41C503.1,40.07 504.99,41.62 506.96,42.82C508.8,43.95 510.73,44.84 512.67,45.5C514.54,46.14 516.47,46.49 518.38,46.78C520.27,47.07 522.19,47.12 524.09,47.26C525.99,47.4 527.9,47.43 529.8,47.6C531.71,47.77 533.61,47.96 535.51,48.27C537.42,48.58 539.32,48.99 541.22,49.45C543.13,49.91 545.02,50.48 546.92,51.02C548.82,51.56 550.72,52.16 552.63,52.69C554.53,53.22 556.43,53.75 558.34,54.2C560.24,54.64 562.14,55.03 564.05,55.36C565.95,55.68 567.85,55.94 569.76,56.15Q571.66,56.36 575.47,56.61L575.47,57.05" style="vector-effect: none; stroke-width: 2px; stroke: rgb(132, 72, 129); stroke-opacity: 1; fill: rgb(164, 91, 161); fill-opacity: 0.5;"/><path class="meanline" d="M380,21.58561897277832V57.05" style="fill: none; vector-effect: none; stroke-width: 2px; stroke-dasharray: 4px, 2px; stroke: rgb(132, 72, 129); stroke-opacity: 1;"/></g></g></g><g class="overplot"/><path class="xlines-above crisp" d="M0,0" style="fill: none;"/><path class="ylines-above crisp" d="M0,0" style="fill: none;"/><g class="overlines-above"/><g class="xaxislayer-above"><g class="xtick"><text text-anchor="middle" x="0" y="157" transform="translate(35,0)" style="font-family: 'Open Sans', verdana, arial, sans-serif; font-size: 12px; fill: rgb(242, 245, 250); fill-opacity: 1; white-space: pre; opacity: 0;"><tspan class="line" dy="0em" x="0" y="157">00:00:00</tspan><tspan class="line" dy="1.3em" x="0" y="157">Jan 1, 1970</tspan></text></g><g class="xtick"><text text-anchor="middle" x="0" y="157" style="font-family: 'Open Sans', verdana, arial, sans-serif; font-size: 12px; fill: rgb(242, 245, 250); fill-opacity: 1; white-space: pre; opacity: 0;" transform="translate(756,0)">00:00:00.0001</text></g></g><g class="yaxislayer-above"/><g class="overaxes-above"/></g></g><g class="polarlayer"/><g class="smithlayer"/><g class="ternarylayer"/><g class="geolayer"/><g class="funnelarealayer"/><g class="pielayer"/><g class="iciclelayer"/><g class="treemaplayer"/><g class="sunburstlayer"/><g class="glimages"/><defs id="topdefs-311ca0"><g class="clips"/></defs><g class="layer-above"><g class="imagelayer"/><g class="shapelayer"/></g><g class="infolayer"><g class="g-gtitle"/><g class="g-xtitle" transform="translate(0,-2.9093750000000114)"><text class="xtitle" x="395.5" y="199.909375" text-anchor="middle" style="font-family: 'Open Sans', verdana, arial, sans-serif; font-size: 14px; fill: rgb(242, 245, 250); opacity: 1; white-space: pre;">Created</text></g><g class="g-ytitle"/></g></svg>