<svg class="main-svg" xmlns="http://www.w3.org/2000/svg" xmlns:xlink="http://www.w3.org/1999/xlink" width="800" height="200" style="" viewBox="0 0 800 200"><rect x="0" y="0" width="800" height="200" style="fill: rgb(0, 0, 0); fill-opacity: 0;"/><defs id="defs-4c70ce"><g class="clips"><clipPath id="clip4c70cexyplot" class="plotclip"><rect width="800" height="159"/></clipPath><clipPath class="axesclip" id="clip4c70cex"><rect x="0" y="0" width="800" height="200"/></clipPath><clipPath class="axesclip" id="clip4c70cey"><rect x="0" y="0" width="800" height="159"/></clipPath><clipPath class="axesclip" id="clip4c70cexy"><rect x="0" y="0" width="800" height="159"/></clipPath></g><g class="gradients"/><g class="patterns"/></defs><g class="bglayer"><rect class="bg" x="0" y="0" width="800" height="159" style="fill: rgb(0, 0, 0); fill-opacity: 0; stroke-width: 0;"/></g><g class="layer-below"><g class="imagelayer"/><g class="shapelayer"/></g><g class="cartesianlayer"><g class="subplot xy"><g class="layer-subplot"><g class="shapelayer"/><g class="imagelayer"/></g><g class="minor-gridlayer"><g class="x"/><g class="y"/></g><g class="gridlayer"><g class="x"><path class="xgrid crisp" transform="translate(210.68,0)" d="M0,0v159" style="stroke: rgb(40, 52, 66); stroke-opacity: 1; stroke-width: 1px;"/><path class="xgrid crisp" transform="translate(369.11,0)" d="M0,0v159" style="stroke: rgb(40, 52, 66); stroke-opacity: 1; stroke-width: 1px;"/><path class="xgrid crisp" transform="translate(527.53,0)" d="M0,0v159" style="stroke: rgb(40, 52, 66); stroke-opacity: 1; stroke-width: 1px;"/><path class="xgrid crisp" transform="translate(685.95,0)" d="M0,0v159" style="stroke: rgb(40, 52, 66); stroke-opacity: 1; stroke-width: 1px;"/></g><g class="y"/></g><g class="zerolinelayer"><path class="xzl zl crisp" transform="translate(52.26,0)" d="M0,0v159" style="stroke: rgb(40, 52, 66); stroke-opacity: 1; stroke-width: 2px;"/></g><g class="layer-between"><g class="shapelayer"/><g class="imagelayer"/></g><path class="xlines-below"/><path class="ylines-below"/><g class="overlines-below"/><g class="xaxislayer-below"/><g class="yaxislayer-below"/><g class="overaxes-below"/><g class="plot" transform="" clip-path="url(#clip4c70cexyplot)"><g class="violinlayer mlayer"><g class="trace violins" style="opacity: 1;"><path class="violin" d="M40.22,151.05L40.22,149.52Q41.79,148.47 42.49,147.72C43.32,146.84 44.05,145.71 44.75,144.45C45.59,142.93 46.31,141.11 47.01,139.16C47.84,136.87 48.56,134.23 49.28,131.51C50.09,128.44 50.81,125.04 51.54,121.63C52.32,117.98 53.05,114.07 53.8,110.27C54.56,106.43 55.29,102.45 56.07,98.7C56.81,95.14 57.53,91.56 58.33,88.32C59.04,85.44 59.75,82.61 60.59,80.21C61.29,78.22 61.99,76.31 62.86,74.88C63.54,73.77 64.27,72.73 65.12,72.18C65.81,71.73 66.63,71.53 67.38,71.55C68.14,71.57 68.92,71.95 69.65,72.34C70.44,72.76 71.18,73.4 71.91,74.03C72.69,74.71 73.43,75.5 74.17,76.3C74.94,77.14 75.7,78.06 76.44,78.99C77.21,79.96 77.96,80.98 78.7,82.01C79.46,83.07 80.21,84.17 80.96,85.28C81.72,86.41 82.48,87.56 83.23,88.72C83.99,89.89 84.74,91.08 85.49,92.27C86.25,93.46 87,94.67 87.75,95.87C88.51,97.07 89.26,98.28 90.02,99.47C90.77,100.66 91.52,101.85 92.28,103.02C93.03,104.18 93.79,105.34 94.55,106.47C95.3,107.59 96.05,108.69 96.81,109.78C97.56,110.85 98.31,111.9 99.07,112.93C99.82,113.95 100.58,114.95 101.34,115.94C102.09,116.91 102.84,117.88 103.6,118.82C104.35,119.75 105.1,120.67 105.86,121.56C106.61,122.44 107.37,123.31 108.13,124.15C108.88,124.97 109.63,125.78 110.39,126.56C111.14,127.32 111.89,128.06 112.65,128.77C113.4,129.47 114.16,130.14 114.92,130.78C115.67,131.41 116.42,132.02 117.18,132.6C117.93,133.17 118.68,133.73 119.44,134.26C120.19,134.78 120.95,135.27 121.71,135.74C122.46,136.2 123.21,136.64 123.97,137.05C124.72,137.45 125.47,137.83 126.23,138.18C126.98,138.53 127.74,138.84 128.5,139.14C129.25,139.44 130,139.71 130.76,139.97C131.51,140.23 132.27,140.47 133.02,140.72C133.78,140.97 134.53,141.21 135.29,141.46C136.04,141.71 136.8,141.95 137.55,142.2C138.3,142.45 139.06,142.71 139.81,142.96C140.57,143.21 141.32,143.47 142.08,143.72C142.83,143.97 143.59,144.21 144.34,144.44C145.09,144.67 145.84,144.89 146.6,145.1C147.35,145.31 148.11,145.5 148.87,145.68C149.62,145.86 150.37,146.02 151.13,146.17C151.88,146.32 152.64,146.45 153.4,146.58C154.15,146.71 154.91,146.82 155.66,146.94C156.41,147.05 157.17,147.16 157.92,147.27C158.68,147.38 159.43,147.48 160.19,147.58C160.94,147.68 161.7,147.78 162.45,147.88C163.2,147.97 163.96,148.07 164.71,148.15C165.47,148.23 166.22,148.3 166.98,148.36C167.73,148.42 168.49,148.46 169.24,148.5C169.99,148.53 170.75,148.55 171.5,148.57C172.26,148.59 173.01,148.6 173.77,148.62C174.52,148.64 175.28,148.65 176.03,148.67C176.78,148.7 177.54,148.73 178.29,148.77C179.05,148.81 179.8,148.87 180.56,148.93C181.31,148.99 182.07,149.05 182.82,149.12C183.57,149.19 184.33,149.27 185.08,149.34C185.84,149.41 186.59,149.48 187.35,149.55C188.1,149.62 188.86,149.68 189.61,149.74C190.36,149.79 191.12,149.84 191.87,149.88C192.63,149.92 193.38,149.96 194.14,149.99C194.89,150.02 195.65,150.03 196.4,150.05C197.15,150.06 197.91,150.08 198.66,150.08C199.42,150.08 200.17,150.08 200.93,150.07C201.68,150.06 202.44,150.04 203.19,150.03C203.95,150.02 204.7,150.01 205.46,150C206.21,149.99 206.97,149.97 207.72,149.97C208.47,149.97 209.23,149.97 209.98,149.97C210.74,149.97 211.49,149.99 212.25,150C213,150.01 213.76,150.03 214.51,150.05C215.26,150.07 216.02,150.1 216.77,150.13C217.53,150.16 218.28,150.2 219.04,150.23C219.79,150.26 220.55,150.3 221.3,150.33C222.05,150.36 222.81,150.39 223.56,150.42C224.32,150.45 225.07,150.47 225.83,150.49C226.58,150.51 227.34,150.52 228.09,150.53C228.84,150.54 229.6,150.54 230.35,150.55C231.11,150.56 231.86,150.56 232.62,150.57C233.37,150.58 234.13,150.58 234.88,150.59C235.63,150.6 236.39,150.62 237.14,150.63C237.9,150.65 238.65,150.66 239.41,150.68C240.16,150.7 240.92,150.71 241.67,150.73C242.42,150.75 243.18,150.76 243.93,150.78C244.69,150.8 245.44,150.82 246.2,150.83C246.95,150.84 247.71,150.84 248.46,150.85C249.21,150.85 249.97,150.86 250.72,150.86C251.48,150.86 252.23,150.85 252.99,150.84C253.74,150.83 254.5,150.82 255.25,150.81C256.01,150.8 256.76,150.78 257.52,150.77C258.27,150.76 259.03,150.74 259.78,150.73C260.53,150.72 261.29,150.71 262.04,150.71C262.8,150.7 263.55,150.7 264.31,150.7C265.06,150.7 265.82,150.69 266.57,150.69C267.32,150.69 268.08,150.69 268.83,150.69C269.59,150.69 270.34,150.68 271.1,150.68C271.85,150.68 272.61,150.67 273.36,150.67C274.11,150.67 274.87,150.67 275.62,150.67C276.38,150.67 277.13,150.67 277.89,150.67C278.64,150.67 279.4,150.67 280.15,150.68C280.9,150.69 281.66,150.7 282.41,150.71C283.17,150.72 283.92,150.73 284.68,150.74C285.43,150.75 286.19,150.77 286.94,150.78C287.69,150.79 288.45,150.8 289.2,150.81C289.96,150.82 290.71,150.84 291.47,150.85C292.22,150.86 292.98,150.87 293.73,150.88C294.48,150.89 295.24,150.89 295.99,150.9C296.75,150.91 297.5,150.91 298.26,150.92C299.01,150.93 299.77,150.93 300.52,150.94C301.27,150.94 302.03,150.95 302.78,150.95C303.54,150.96 304.29,150.96 305.05,150.97C305.8,150.97 306.56,150.98 307.31,150.98C308.06,150.98 308.82,150.98 309.57,150.98C310.33,150.98 311.08,150.97 311.84,150.97C312.59,150.97 313.35,150.96 314.1,150.96C314.86,150.95 315.61,150.95 316.37,150.94C317.12,150.93 317.88,150.93 318.63,150.92C319.38,150.91 320.14,150.9 320.89,150.89C321.65,150.88 322.4,150.87 323.16,150.86C323.91,150.85 324.67,150.85 325.42,150.84C326.17,150.84 326.93,150.83 327.68,150.83C328.44,150.83 329.19,150.83 329.95,150.84C330.7,150.85 331.46,150.86 332.21,150.87C332.96,150.88 333.72,150.88 334.47,150.89C335.23,150.9 335.98,150.91 336.74,150.92C337.49,150.93 338.25,150.93 339,150.94C339.75,150.94 340.51,150.95 341.26,150.95C342.02,150.95 342.77,150.95 343.53,150.95C344.28,150.95 345.04,150.95 345.79,150.95C346.54,150.95 347.3,150.94 348.05,150.93C348.81,150.92 349.56,150.92 350.32,150.91C351.07,150.9 351.83,150.9 352.58,150.89C353.33,150.88 354.09,150.86 354.84,150.85C355.6,150.84 356.35,150.83 357.11,150.82C357.86,150.81 358.62,150.81 359.37,150.8C360.12,150.79 360.88,150.78 361.63,150.78C362.39,150.77 363.14,150.77 363.9,150.77C364.65,150.77 365.41,150.78 366.16,150.78C366.92,150.78 367.67,150.79 368.43,150.79C369.18,150.79 369.94,150.8 370.69,150.8C371.44,150.8 372.2,150.81 372.95,150.81C373.71,150.81 374.46,150.82 375.22,150.82C375.97,150.82 376.73,150.83 377.48,150.83C378.23,150.84 378.99,150.84 379.74,150.85C380.5,150.86 381.25,150.87 382.01,150.88C382.76,150.89 383.52,150.9 384.27,150.91C385.02,150.92 385.78,150.94 386.53,150.95C387.29,150.96 388.04,150.97 388.8,150.98C389.55,150.99 390.31,151 391.06,151.01C391.81,151.02 392.57,151.03 393.32,151.03C394.08,151.04 394.83,151.04 395.59,151.04C396.34,151.04 397.1,151.05 397.85,151.05C398.6,151.05 399.36,151.05 400.11,151.05C400.87,151.05 401.62,151.05 402.38,151.05C403.13,151.05 403.89,151.05 404.64,151.05C405.39,151.05 406.15,151.05 406.9,151.05C407.66,151.05 408.41,151.05 409.17,151.05C409.92,151.05 410.68,151.05 411.43,151.05C412.18,151.05 412.94,151.05 413.69,151.05C414.45,151.05 415.2,151.05 415.96,151.05C416.71,151.05 417.47,151.05 418.22,151.05C418.98,151.05 419.73,151.05 420.49,151.05C421.24,151.05 422,151.05 422.75,151.05C423.5,151.05 424.26,151.05 425.01,151.05C425.77,151.05 426.52,151.05 427.28,151.05C428.03,151.05 428.79,151.05 429.54,151.05C430.29,151.05 431.05,151.05 431.8,151.05C432.56,151.05 433.31,151.05 434.07,151.05C434.82,151.05 435.58,151.05 436.33,151.05C437.08,151.05 437.84,151.05 438.59,151.05C439.35,151.05 440.1,151.05 440.86,151.05C441.61,151.05 442.37,151.05 443.12,151.05C443.87,151.05 444.63,151.05 445.38,151.05C446.14,151.05 446.89,151.05 447.65,151.05C448.4,151.05 449.16,151.05 449.91,151.05C450.66,151.05 451.42,151.04 452.17,151.04C452.93,151.04 453.68,151.04 454.44,151.04C455.19,151.04 455.95,151.03 456.7,151.02C457.45,151.02 458.21,151.02 458.96,151.01C459.72,151 460.47,150.99 461.23,150.98C461.98,150.97 462.74,150.97 463.49,150.96C464.24,150.95 465,150.94 465.75,150.94C466.51,150.93 467.26,150.93 468.02,150.93C468.77,150.93 469.53,150.93 470.28,150.93C471.03,150.93 471.79,150.94 472.54,150.94C473.3,150.95 474.05,150.95 474.81,150.96C475.56,150.97 476.32,150.98 477.07,150.99C477.83,151 478.58,151 479.34,151.01C480.09,151.02 480.85,151.02 481.6,151.03C482.35,151.03 483.11,151.04 483.86,151.04C484.62,151.04 485.37,151.04 486.13,151.04C486.88,151.04 487.64,151.05 488.39,151.05C489.14,151.05 489.9,151.05 490.65,151.05C491.41,151.05 492.16,151.05 492.92,151.05C493.67,151.05 494.43,151.05 495.18,151.05C495.93,151.05 496.69,151.04 497.44,151.04C498.2,151.04 498.95,151.04 499.71,151.04C500.46,151.04 501.22,151.03 501.97,151.03C502.72,151.03 503.48,151.02 504.23,151.02C504.99,151.01 505.74,151.01 506.5,151C507.25,151 508.01,150.99 508.76,150.99C509.51,150.99 510.27,150.99 511.02,150.99C511.78,150.99 512.53,150.99 513.29,150.99C514.04,150.99 514.8,150.99 515.55,150.99C516.3,150.99 517.06,151 517.81,151C518.57,151 519.32,151 520.08,151C520.83,151 521.59,150.99 522.34,150.99C523.09,150.99 523.85,150.98 524.6,150.98C525.36,150.97 526.11,150.97 526.87,150.96C527.62,150.95 528.38,150.94 529.13,150.94C529.89,150.93 530.64,150.93 531.4,150.93C532.15,150.93 532.91,150.93 533.66,150.93C534.41,150.93 535.17,150.94 535.92,150.94C536.68,150.95 537.43,150.95 538.19,150.96C538.94,150.97 539.7,150.97 540.45,150.98C541.2,150.99 541.96,150.99 542.71,151C543.47,151.01 544.22,151.01 544.98,151.02C545.73,151.03 546.49,151.04 547.24,151.04C547.99,151.04 548.75,151.04 549.5,151.04C550.26,151.04 551.01,151.05 551.77,151.05C552.52,151.05 553.28,151.05 554.03,151.05C554.78,151.05 555.54,151.05 556.29,151.05C557.05,151.05 557.8,151.05 558.56,151.05C559.31,151.05 560.07,151.05 560.82,151.05C561.57,151.05 562.33,151.05 563.08,151.05C563.84,151.05 564.59,151.05 565.35,151.05C566.1,151.05 566.86,151.05 567.61,151.05C568.36,151.05 569.12,151.04 569.87,151.04C570.63,151.04 571.38,151.03 572.14,151.03C572.89,151.03 573.65,151.02 574.4,151.02C575.15,151.02 575.91,151.01 576.66,151.01C577.42,151.01 578.17,151 578.93,151C579.68,151 580.44,150.99 581.19,150.99C581.95,150.99 582.7,150.99 583.46,150.99C584.21,150.99 584.97,150.99 585.72,150.99C586.47,150.99 587.23,151 587.98,151C588.74,151 589.49,151 590.25,151.01C591,151.01 591.76,151.02 592.51,151.03C593.26,151.03 594.02,151.04 594.77,151.04C595.53,151.04 596.28,151.04 597.04,151.04C597.79,151.04 598.55,151.05 599.3,151.05C600.05,151.05 600.81,151.05 601.56,151.05C602.32,151.05 603.07,151.05 603.83,151.05C604.58,151.05 605.34,151.05 606.09,151.05C606.84,151.05 607.6,151.05 608.35,151.05C609.11,151.05 609.86,151.05 610.62,151.05C611.37,151.05 612.13,151.05 612.88,151.05C613.63,151.05 614.39,151.05 615.14,151.05C615.9,151.05 616.65,151.05 617.41,151.05C618.16,151.05 618.92,151.05 619.67,151.05C620.42,151.05 621.18,151.05 621.93,151.05C622.69,151.05 623.44,151.05 624.2,151.05C624.95,151.05 625.71,151.05 626.46,151.05C627.21,151.05 627.97,151.05 628.72,151.05C629.48,151.05 630.23,151.05 630.99,151.05C631.74,151.05 632.5,151.05 633.25,151.05C634,151.05 634.76,151.05 635.51,151.05C636.27,151.05 637.02,151.05 637.78,151.05C638.53,151.05 639.29,151.05 640.04,151.05C640.8,151.05 641.55,151.05 642.31,151.05C643.06,151.05 643.82,151.05 644.57,151.05C645.32,151.05 646.08,151.05 646.83,151.05C647.59,151.05 648.34,151.05 649.1,151.05C649.85,151.05 650.61,151.05 651.36,151.05C652.11,151.05 652.87,151.04 653.62,151.04C654.38,151.04 655.13,151.03 655.89,151.03C656.64,151.03 657.4,151.02 658.15,151.02C658.9,151.02 659.66,151.01 660.41,151.01C661.17,151.01 661.92,151 662.68,151C663.43,151 664.19,150.99 664.94,150.99C665.69,150.99 666.45,150.99 667.2,150.99C667.96,150.99 668.71,150.99 669.47,150.99C670.22,150.99 670.98,151 671.73,151C672.48,151 673.24,151.01 673.99,151.01C674.75,151.02 675.5,151.02 676.26,151.03C677.01,151.03 677.77,151.04 678.52,151.04C679.27,151.04 680.03,151.04 680.78,151.04C681.54,151.04 682.29,151.05 683.05,151.05C683.8,151.05 684.56,151.05 685.31,151.05C686.06,151.05 686.82,151.05 687.57,151.05C688.33,151.05 689.08,151.05 689.84,151.05C690.59,151.05 691.35,151.05 692.1,151.05C692.86,151.05 693.61,151.05 694.37,151.05C695.12,151.05 695.88,151.05 696.63,151.05C697.38,151.05 698.14,151.05 698.89,151.05C699.65,151.05 700.4,151.05 701.16,151.05C701.91,151.05 702.67,151.05 703.42,151.05C704.17,151.05 704.93,151.05 705.68,151.05C706.44,151.05 707.19,151.05 707.95,151.05C708.7,151.05 709.46,151.05 710.21,151.05C710.96,151.05 711.72,151.05 712.47,151.05C713.23,151.05 713.98,151.05 714.74,151.05C715.49,151.05 716.25,151.05 717,151.05C717.75,151.05 718.51,151.05 719.26,151.05C720.02,151.05 720.77,151.04 721.53,151.04C722.28,151.04 723.04,151.03 723.79,151.03C724.54,151.03 725.3,151.02 726.05,151.02C726.81,151.02 727.56,151.01 728.32,151.01C729.07,151.01 729.83,151 730.58,151C731.33,151 732.09,150.99 732.84,150.99C733.6,150.99 734.35,150.99 735.11,150.99C735.86,150.99 736.62,150.99 737.37,150.99C738.12,150.99 738.88,151 739.63,151C740.39,151 741.14,151.01 741.9,151.01C742.65,151.01 743.41,151.02 744.16,151.02C744.92,151.02 745.67,151.03 746.43,151.03Q747.18,151.03 748.69,151.04L748.69,151.05" style="vector-effect: none; stroke-width: 2px; stroke: rgb(124, 156, 48); stroke-opacity: 1; fill: rgb(155, 195, 60); fill-opacity: 0.5;"/><path class="meanline" d="M88.89,97.68201446533203V151.05" style="fill: none; vector-effect: none; stroke-width: 2px; stroke-dasharray: 4px, 2px; stroke: rgb(124, 156, 48); stroke-opacity: 1;"/></g><g class="trace violins" style="opacity: 1;"><path class="violin" d="M45.13,119.25L45.13,117.31Q46.32,116.02 46.85,115.18C47.49,114.15 48.04,112.88 48.57,111.5C49.21,109.82 49.75,107.85 50.28,105.77C50.9,103.33 51.46,100.57 52,97.74C52.61,94.58 53.15,91.13 53.71,87.67C54.3,84 54.86,80.11 55.43,76.33C56,72.54 56.56,68.62 57.15,64.94C57.71,61.46 58.25,57.96 58.86,54.81C59.4,52.02 59.93,49.28 60.58,46.97C61.11,45.1 61.6,43.25 62.3,41.96C62.81,41.02 63.35,40.04 64.01,39.75C64.53,39.52 65.2,39.63 65.73,39.89C66.37,40.2 66.91,41.03 67.44,41.75C68.06,42.59 68.61,43.66 69.16,44.7C69.75,45.81 70.31,47.03 70.88,48.22C71.46,49.43 72.02,50.69 72.59,51.92C73.16,53.14 73.73,54.36 74.31,55.55C74.88,56.71 75.45,57.86 76.03,58.97C76.59,60.05 77.16,61.09 77.74,62.12C78.3,63.12 78.88,64.09 79.46,65.05C80.03,65.99 80.6,66.9 81.17,67.81C81.74,68.71 82.31,69.6 82.89,70.49C83.46,71.37 84.04,72.24 84.61,73.12C85.18,73.99 85.75,74.87 86.32,75.74C86.89,76.61 87.47,77.49 88.04,78.36C88.61,79.23 89.19,80.09 89.76,80.95C90.33,81.8 90.89,82.65 91.47,83.48C92.04,84.3 92.61,85.1 93.19,85.89C93.76,86.66 94.32,87.43 94.9,88.17C95.47,88.9 96.04,89.61 96.62,90.3C97.19,90.98 97.76,91.64 98.34,92.29C98.91,92.93 99.47,93.57 100.05,94.19C100.62,94.8 101.19,95.4 101.77,95.98C102.34,96.56 102.91,97.12 103.49,97.67C104.06,98.21 104.62,98.73 105.2,99.23C105.77,99.72 106.34,100.19 106.92,100.64C107.48,101.08 108.05,101.49 108.63,101.88C109.2,102.26 109.77,102.62 110.35,102.96C110.92,103.29 111.49,103.6 112.07,103.89C112.64,104.17 113.21,104.43 113.78,104.67C114.35,104.91 114.92,105.12 115.5,105.32C116.07,105.52 116.65,105.7 117.22,105.88C117.79,106.06 118.36,106.24 118.93,106.42C119.5,106.6 120.08,106.79 120.65,106.98C121.22,107.17 121.79,107.36 122.36,107.56C122.93,107.76 123.51,107.96 124.08,108.16C124.65,108.35 125.23,108.54 125.8,108.73C126.37,108.92 126.94,109.1 127.51,109.28C128.08,109.46 128.66,109.63 129.23,109.81C129.8,109.99 130.38,110.16 130.95,110.34C131.52,110.52 132.09,110.7 132.66,110.89C133.23,111.08 133.81,111.27 134.38,111.46C134.95,111.65 135.52,111.85 136.09,112.04C136.66,112.23 137.24,112.41 137.81,112.59C138.38,112.76 138.96,112.94 139.53,113.09C140.1,113.24 140.67,113.37 141.24,113.5C141.81,113.62 142.39,113.74 142.96,113.84C143.53,113.94 144.11,114.02 144.68,114.1C145.25,114.18 145.82,114.24 146.39,114.3C146.96,114.36 147.54,114.41 148.11,114.45C148.68,114.49 149.25,114.53 149.82,114.56C150.39,114.6 150.97,114.63 151.54,114.66C152.11,114.69 152.69,114.72 153.26,114.75C153.83,114.78 154.4,114.81 154.97,114.85C155.54,114.89 156.12,114.94 156.69,114.98C157.26,115.02 157.84,115.06 158.41,115.11C158.98,115.15 159.55,115.21 160.12,115.25C160.69,115.3 161.27,115.34 161.84,115.38C162.41,115.42 162.98,115.46 163.55,115.49C164.12,115.52 164.7,115.54 165.27,115.57C165.84,115.6 166.42,115.62 166.99,115.65C167.56,115.68 168.13,115.71 168.7,115.74C169.27,115.78 169.85,115.82 170.42,115.86C170.99,115.91 171.57,115.96 172.14,116.01C172.71,116.06 173.28,116.12 173.85,116.18C174.42,116.24 175,116.3 175.57,116.35C176.14,116.4 176.71,116.46 177.28,116.5C177.85,116.55 178.43,116.58 179,116.62C179.57,116.65 180.15,116.68 180.72,116.71C181.29,116.74 181.86,116.76 182.43,116.78C183,116.8 183.58,116.83 184.15,116.85C184.72,116.88 185.3,116.9 185.87,116.93C186.44,116.96 187.01,117.01 187.58,117.05C188.15,117.09 188.73,117.13 189.3,117.19C189.87,117.24 190.44,117.32 191.01,117.38C191.58,117.45 192.16,117.51 192.73,117.58C193.3,117.64 193.88,117.71 194.45,117.77C195.02,117.83 195.59,117.88 196.16,117.92C196.73,117.96 197.31,117.99 197.88,118.01C198.45,118.03 199.03,118.04 199.6,118.04C200.17,118.04 200.74,118.03 201.31,118.02C201.88,118.01 202.46,117.98 203.03,117.96C203.6,117.94 204.17,117.92 204.74,117.91C205.31,117.9 205.89,117.89 206.46,117.89C207.03,117.89 207.61,117.89 208.18,117.9C208.75,117.91 209.32,117.92 209.89,117.94C210.46,117.96 211.04,117.99 211.61,118.01C212.18,118.04 212.76,118.06 213.33,118.09C213.9,118.12 214.47,118.15 215.04,118.17C215.61,118.2 216.19,118.22 216.76,118.24C217.33,118.26 217.9,118.28 218.47,118.3C219.04,118.32 219.62,118.33 220.19,118.35C220.76,118.37 221.34,118.38 221.91,118.4C222.48,118.41 223.05,118.43 223.62,118.44C224.19,118.46 224.77,118.47 225.34,118.49C225.91,118.51 226.49,118.52 227.06,118.54C227.63,118.55 228.2,118.57 228.77,118.58C229.34,118.59 229.92,118.59 230.49,118.6C231.06,118.61 231.63,118.61 232.2,118.62C232.77,118.63 233.35,118.63 233.92,118.64C234.49,118.65 235.07,118.65 235.64,118.66C236.21,118.67 236.78,118.67 237.35,118.68C237.92,118.69 238.5,118.71 239.07,118.72C239.64,118.74 240.22,118.75 240.79,118.77C241.36,118.79 241.93,118.8 242.5,118.82C243.07,118.84 243.65,118.86 244.22,118.88C244.79,118.9 245.36,118.91 245.93,118.92C246.5,118.93 247.08,118.94 247.65,118.94C248.22,118.94 248.8,118.94 249.37,118.94C249.94,118.94 250.51,118.92 251.08,118.92C251.65,118.91 252.23,118.91 252.8,118.91C253.37,118.91 253.95,118.9 254.52,118.9C255.09,118.9 255.66,118.91 256.23,118.91C256.8,118.92 257.38,118.92 257.95,118.93C258.52,118.94 259.09,118.96 259.66,118.97C260.23,118.98 260.81,118.98 261.38,118.99C261.95,119 262.53,119.01 263.1,119.01C263.67,119.01 264.24,119 264.81,119C265.38,118.99 265.96,118.99 266.53,118.98C267.1,118.97 267.68,118.96 268.25,118.95C268.82,118.94 269.39,118.93 269.96,118.92C270.53,118.91 271.11,118.91 271.68,118.9C272.25,118.9 272.82,118.89 273.39,118.89C273.96,118.89 274.54,118.89 275.11,118.89C275.68,118.89 276.26,118.89 276.83,118.9C277.4,118.9 277.97,118.92 278.54,118.92C279.11,118.93 279.69,118.93 280.26,118.93C280.83,118.93 281.41,118.93 281.98,118.93C282.55,118.93 283.12,118.93 283.69,118.93C284.26,118.93 284.84,118.93 285.41,118.93C285.98,118.93 286.55,118.93 287.12,118.93C287.69,118.93 288.27,118.94 288.84,118.94C289.41,118.94 289.99,118.94 290.56,118.95C291.13,118.95 291.7,118.96 292.27,118.97C292.84,118.98 293.42,118.98 293.99,118.99C294.56,118.99 295.13,119 295.7,119C296.27,119 296.85,119.01 297.42,119.01C297.99,119.01 298.57,119.01 299.14,119.01C299.71,119.01 300.28,119.02 300.85,119.02C301.42,119.02 302,119.02 302.57,119.02C303.14,119.02 303.72,119.03 304.29,119.04C304.86,119.04 305.43,119.05 306,119.05C306.57,119.05 307.15,119.06 307.72,119.06C308.29,119.06 308.86,119.07 309.43,119.07C310,119.07 310.58,119.06 311.15,119.06C311.72,119.06 312.3,119.06 312.87,119.05C313.44,119.05 314.01,119.03 314.58,119.03C315.15,119.02 315.73,119.02 316.3,119.02C316.87,119.02 317.45,119.02 318.02,119.02C318.59,119.02 319.16,119.03 319.73,119.04C320.3,119.05 320.88,119.05 321.45,119.06C322.02,119.07 322.59,119.08 323.16,119.09C323.73,119.1 324.31,119.11 324.88,119.12C325.45,119.13 326.03,119.13 326.6,119.13C327.17,119.13 327.74,119.13 328.31,119.13C328.88,119.13 329.46,119.12 330.03,119.12C330.6,119.11 331.18,119.11 331.75,119.1C332.32,119.09 332.89,119.09 333.46,119.08C334.03,119.07 334.61,119.07 335.18,119.06C335.75,119.05 336.32,119.04 336.89,119.04C337.46,119.04 338.04,119.04 338.61,119.04C339.18,119.04 339.76,119.04 340.33,119.04C340.9,119.04 341.47,119.05 342.04,119.05C342.61,119.05 343.19,119.06 343.76,119.06C344.33,119.07 344.91,119.07 345.48,119.08C346.05,119.08 346.62,119.09 347.19,119.09C347.76,119.1 348.34,119.1 348.91,119.11C349.48,119.12 350.05,119.13 350.62,119.13C351.19,119.14 351.77,119.14 352.34,119.14C352.91,119.14 353.49,119.15 354.06,119.15C354.63,119.15 355.2,119.16 355.77,119.16C356.34,119.16 356.92,119.17 357.49,119.17C358.06,119.17 358.64,119.17 359.21,119.17C359.78,119.17 360.35,119.16 360.92,119.16C361.49,119.16 362.07,119.16 362.64,119.16C363.21,119.16 363.78,119.15 364.35,119.15C364.92,119.15 365.5,119.15 366.07,119.15C366.64,119.15 367.22,119.15 367.79,119.15C368.36,119.15 368.93,119.16 369.5,119.16C370.07,119.16 370.65,119.16 371.22,119.16C371.79,119.16 372.37,119.17 372.94,119.17C373.51,119.17 374.08,119.17 374.65,119.17C375.22,119.17 375.8,119.18 376.37,119.18C376.94,119.18 377.51,119.18 378.08,119.18C378.65,119.18 379.23,119.19 379.8,119.19C380.37,119.19 380.95,119.2 381.52,119.2C382.09,119.2 382.66,119.21 383.23,119.21C383.8,119.21 384.38,119.21 384.95,119.21C385.52,119.21 386.1,119.21 386.67,119.21C387.24,119.21 387.81,119.21 388.38,119.21C388.95,119.21 389.53,119.2 390.1,119.19C390.67,119.18 391.24,119.17 391.81,119.16C392.38,119.15 392.96,119.14 393.53,119.13C394.1,119.12 394.68,119.11 395.25,119.1C395.82,119.09 396.39,119.09 396.96,119.09C397.53,119.09 398.11,119.09 398.68,119.09C399.25,119.09 399.83,119.09 400.4,119.1C400.97,119.11 401.54,119.12 402.11,119.13C402.68,119.14 403.26,119.14 403.83,119.15C404.4,119.15 404.97,119.16 405.54,119.16C406.11,119.16 406.69,119.16 407.26,119.16C407.83,119.16 408.41,119.16 408.98,119.16C409.55,119.16 410.12,119.15 410.69,119.15C411.26,119.15 411.84,119.14 412.41,119.14C412.98,119.14 413.56,119.14 414.13,119.14C414.7,119.14 415.27,119.15 415.84,119.15C416.41,119.16 416.99,119.16 417.56,119.17C418.13,119.18 418.7,119.18 419.27,119.19C419.84,119.2 420.42,119.2 420.99,119.21C421.56,119.22 422.14,119.22 422.71,119.23C423.28,119.23 423.85,119.24 424.42,119.24C424.99,119.24 425.57,119.24 426.14,119.24C426.71,119.24 427.29,119.25 427.86,119.25C428.43,119.25 429,119.25 429.57,119.25C430.14,119.25 430.72,119.25 431.29,119.25C431.86,119.25 432.43,119.25 433,119.25C433.57,119.25 434.15,119.25 434.72,119.25C435.29,119.25 435.87,119.24 436.44,119.24C437.01,119.24 437.58,119.24 438.15,119.24C438.72,119.24 439.3,119.23 439.87,119.23C440.44,119.23 441.02,119.22 441.59,119.22C442.16,119.22 442.73,119.21 443.3,119.21C443.87,119.21 444.45,119.2 445.02,119.2C445.59,119.2 446.16,119.19 446.73,119.19C447.3,119.19 447.88,119.2 448.45,119.2C449.02,119.2 449.6,119.21 450.17,119.21C450.74,119.21 451.31,119.22 451.88,119.22C452.45,119.22 453.03,119.23 453.6,119.23C454.17,119.23 454.75,119.24 455.32,119.24C455.89,119.24 456.46,119.24 457.03,119.24C457.6,119.24 458.18,119.24 458.75,119.24C459.32,119.24 459.89,119.24 460.46,119.24C461.03,119.24 461.61,119.24 462.18,119.24C462.75,119.24 463.33,119.23 463.9,119.23C464.47,119.23 465.04,119.22 465.61,119.22C466.18,119.22 466.76,119.21 467.33,119.21C467.9,119.2 468.48,119.2 469.05,119.19C469.62,119.18 470.19,119.18 470.76,119.17C471.33,119.16 471.91,119.16 472.48,119.15C473.05,119.15 473.62,119.14 474.19,119.14C474.76,119.14 475.34,119.13 475.91,119.13C476.48,119.13 477.06,119.12 477.63,119.12C478.2,119.12 478.77,119.12 479.34,119.12C479.91,119.12 480.49,119.13 481.06,119.13C481.63,119.14 482.21,119.14 482.78,119.15C483.35,119.16 483.92,119.16 484.49,119.17C485.06,119.18 485.64,119.18 486.21,119.19C486.78,119.2 487.35,119.2 487.92,119.21C488.49,119.22 489.07,119.22 489.64,119.23C490.21,119.23 490.79,119.24 491.36,119.24C491.93,119.24 492.5,119.24 493.07,119.24C493.64,119.24 494.22,119.25 494.79,119.25C495.36,119.25 495.94,119.25 496.51,119.25C497.08,119.25 497.65,119.25 498.22,119.25C498.79,119.25 499.37,119.25 499.94,119.25C500.51,119.25 501.08,119.25 501.65,119.25C502.22,119.25 502.8,119.25 503.37,119.25C503.94,119.25 504.52,119.25 505.09,119.25C505.66,119.25 506.23,119.25 506.8,119.25C507.37,119.25 507.95,119.25 508.52,119.25C509.09,119.25 509.67,119.25 510.24,119.25C510.81,119.25 511.38,119.25 511.95,119.25C512.52,119.25 513.1,119.25 513.67,119.25C514.24,119.25 514.81,119.25 515.38,119.25C515.95,119.25 516.53,119.25 517.1,119.25C517.67,119.25 518.25,119.25 518.82,119.25C519.39,119.25 519.96,119.25 520.53,119.25C521.1,119.25 521.68,119.25 522.25,119.25C522.82,119.25 523.4,119.25 523.97,119.25C524.54,119.25 525.11,119.25 525.68,119.25C526.25,119.25 526.83,119.25 527.4,119.25C527.97,119.25 528.54,119.25 529.11,119.25C529.68,119.25 530.26,119.25 530.83,119.25C531.4,119.25 531.98,119.25 532.55,119.25C533.12,119.25 533.69,119.25 534.26,119.25C534.83,119.25 535.41,119.25 535.98,119.25C536.55,119.25 537.13,119.25 537.7,119.25C538.27,119.25 538.84,119.25 539.41,119.25C539.98,119.25 540.56,119.25 541.13,119.25C541.7,119.25 542.27,119.25 542.84,119.25C543.41,119.25 543.99,119.25 544.56,119.25C545.13,119.25 545.71,119.25 546.28,119.25C546.85,119.25 547.42,119.25 547.99,119.25C548.56,119.25 549.14,119.25 549.71,119.25C550.28,119.25 550.86,119.25 551.43,119.25C552,119.25 552.57,119.25 553.14,119.25C553.71,119.25 554.29,119.24 554.86,119.24C555.43,119.24 556,119.24 556.57,119.24C557.14,119.24 557.72,119.23 558.29,119.23C558.86,119.22 559.44,119.22 560.01,119.21C560.58,119.2 561.15,119.19 561.72,119.19C562.29,119.18 562.87,119.18 563.44,119.18C564.01,119.17 564.59,119.17 565.16,119.16C565.73,119.16 566.3,119.15 566.87,119.15C567.44,119.15 568.02,119.15 568.59,119.15C569.16,119.15 569.73,119.16 570.3,119.16C570.87,119.16 571.45,119.17 572.02,119.17C572.59,119.18 573.17,119.18 573.74,119.19C574.31,119.2 574.88,119.21 575.45,119.21C576.02,119.22 576.6,119.22 577.17,119.22C577.74,119.22 578.32,119.23 578.89,119.23Q579.46,119.23 580.6,119.24L580.6,119.25" style="vector-effect: none; stroke-width: 2px; stroke: rgb(133, 41, 163); stroke-opacity: 1; fill: rgb(166, 51, 204); fill-opacity: 0.5;"/><path class="meanline" d="M89.32,80.28831481933594V119.25" style="fill: none; vector-effect: none; stroke-width: 2px; stroke-dasharray: 4px, 2px; stroke: rgb(133, 41, 163); stroke-opacity: 1;"/></g><g class="trace violins" style="opacity: 1;"><path class="violin" d="M40,87.45L40,86.33Q41.58,85.54 42.31,84.93C43.14,84.24 43.91,83.34 44.62,82.3C45.47,81.06 46.21,79.52 46.92,77.86C47.77,75.88 48.51,73.57 49.23,71.15C50.06,68.36 50.8,65.24 51.54,62.05C52.35,58.55 53.1,54.76 53.85,51C54.63,47.1 55.37,42.99 56.15,39.05C56.91,35.19 57.65,31.24 58.46,27.6C59.2,24.26 59.92,20.93 60.77,18.05C61.49,15.62 62.17,13.2 63.08,11.42C63.77,10.07 64.47,8.64 65.38,8.12C66.07,7.73 66.98,7.68 67.69,7.95C68.54,8.27 69.29,9.35 70,10.3C70.85,11.43 71.57,12.92 72.31,14.37C73.12,15.95 73.86,17.7 74.62,19.42C75.4,21.19 76.15,23.03 76.92,24.84C77.69,26.64 78.45,28.47 79.23,30.25C79.99,32 80.76,33.74 81.54,35.43C82.3,37.08 83.07,38.7 83.85,40.27C84.61,41.79 85.37,43.28 86.15,44.71C86.9,46.09 87.67,47.44 88.46,48.73C89.22,49.97 89.99,51.18 90.77,52.34C91.53,53.46 92.3,54.54 93.08,55.58C93.84,56.59 94.6,57.57 95.38,58.51C96.14,59.43 96.91,60.32 97.69,61.18C98.45,62.02 99.22,62.83 100,63.6C100.76,64.35 101.53,65.08 102.31,65.77C103.07,66.44 103.84,67.08 104.62,67.69C105.38,68.28 106.14,68.83 106.92,69.36C107.68,69.88 108.45,70.36 109.23,70.83C109.99,71.29 110.77,71.73 111.54,72.16C112.31,72.58 113.08,72.99 113.85,73.38C114.61,73.76 115.38,74.13 116.15,74.48C116.92,74.83 117.69,75.16 118.46,75.47C119.23,75.77 120,76.05 120.77,76.32C121.54,76.58 122.31,76.82 123.08,77.06C123.85,77.29 124.61,77.51 125.38,77.73C126.15,77.95 126.92,78.16 127.69,78.37C128.46,78.58 129.23,78.79 130,78.99C130.77,79.19 131.54,79.39 132.31,79.58C133.08,79.77 133.85,79.95 134.62,80.11C135.39,80.27 136.15,80.42 136.92,80.55C137.69,80.68 138.46,80.8 139.23,80.91C140,81.01 140.77,81.1 141.54,81.18C142.31,81.26 143.08,81.34 143.85,81.41C144.62,81.48 145.38,81.54 146.15,81.6C146.92,81.67 147.69,81.73 148.46,81.8C149.23,81.87 150,81.95 150.77,82.03C151.54,82.11 152.31,82.2 153.08,82.3C153.85,82.4 154.61,82.51 155.38,82.62C156.15,82.73 156.92,82.85 157.69,82.97C158.46,83.09 159.23,83.22 160,83.34C160.77,83.46 161.54,83.59 162.31,83.71C163.08,83.83 163.85,83.94 164.62,84.04C165.39,84.14 166.15,84.24 166.92,84.33C167.69,84.42 168.46,84.49 169.23,84.56C170,84.62 170.77,84.68 171.54,84.72C172.31,84.76 173.08,84.8 173.85,84.82C174.62,84.84 175.38,84.84 176.15,84.85C176.92,84.86 177.69,84.86 178.46,84.86C179.23,84.86 180,84.86 180.77,84.86C181.54,84.86 182.31,84.86 183.08,84.88C183.85,84.9 184.61,84.92 185.38,84.95C186.15,84.98 186.92,85.03 187.69,85.07C188.46,85.12 189.23,85.17 190,85.22C190.77,85.27 191.54,85.33 192.31,85.39C193.08,85.44 193.85,85.5 194.62,85.55C195.39,85.6 196.15,85.64 196.92,85.68C197.69,85.72 198.46,85.74 199.23,85.77C200,85.79 200.77,85.81 201.54,85.83C202.31,85.84 203.08,85.85 203.85,85.86C204.62,85.87 205.38,85.87 206.15,85.88C206.92,85.89 207.69,85.9 208.46,85.91C209.23,85.92 210,85.94 210.77,85.96C211.54,85.98 212.31,86 213.08,86.03C213.85,86.05 214.61,86.08 215.38,86.11C216.15,86.14 216.92,86.18 217.69,86.21C218.46,86.24 219.23,86.27 220,86.3C220.77,86.33 221.54,86.36 222.31,86.39C223.08,86.42 223.85,86.44 224.62,86.46C225.39,86.48 226.15,86.5 226.92,86.51C227.69,86.53 228.46,86.54 229.23,86.55C230,86.56 230.77,86.57 231.54,86.57C232.31,86.57 233.08,86.57 233.85,86.57C234.62,86.57 235.38,86.56 236.15,86.56C236.92,86.55 237.69,86.55 238.46,86.54C239.23,86.53 240,86.52 240.77,86.51C241.54,86.5 242.31,86.5 243.08,86.49C243.85,86.49 244.61,86.48 245.38,86.48C246.15,86.48 246.92,86.47 247.69,86.47C248.46,86.47 249.23,86.47 250,86.48C250.77,86.49 251.54,86.5 252.31,86.51C253.08,86.52 253.85,86.54 254.62,86.55C255.39,86.56 256.15,86.58 256.92,86.59C257.69,86.6 258.46,86.61 259.23,86.62C260,86.63 260.77,86.64 261.54,86.65C262.31,86.66 263.08,86.68 263.85,86.69C264.62,86.7 265.38,86.71 266.15,86.72C266.92,86.73 267.69,86.75 268.46,86.76C269.23,86.77 270,86.79 270.77,86.8C271.54,86.81 272.31,86.83 273.08,86.84C273.85,86.85 274.61,86.86 275.38,86.87C276.15,86.88 276.92,86.89 277.69,86.9C278.46,86.91 279.23,86.91 280,86.92C280.77,86.92 281.54,86.93 282.31,86.93C283.08,86.94 283.85,86.94 284.62,86.95C285.39,86.96 286.15,86.96 286.92,86.97C287.69,86.98 288.46,86.99 289.23,87C290,87.01 290.77,87.01 291.54,87.02C292.31,87.03 293.08,87.03 293.85,87.04C294.62,87.05 295.38,87.06 296.15,87.06C296.92,87.06 297.69,87.06 298.46,87.06C299.23,87.06 300,87.06 300.77,87.06C301.54,87.06 302.31,87.06 303.08,87.06C303.85,87.06 304.61,87.07 305.38,87.07C306.15,87.07 306.92,87.08 307.69,87.08C308.46,87.08 309.23,87.09 310,87.09C310.77,87.1 311.54,87.1 312.31,87.11C313.08,87.12 313.85,87.12 314.62,87.13C315.39,87.14 316.15,87.14 316.92,87.15C317.69,87.16 318.46,87.16 319.23,87.17C320,87.18 320.77,87.18 321.54,87.19C322.31,87.19 323.08,87.2 323.85,87.2C324.62,87.2 325.38,87.21 326.15,87.21C326.92,87.21 327.69,87.22 328.46,87.22C329.23,87.22 330,87.21 330.77,87.21C331.54,87.21 332.31,87.2 333.08,87.2C333.85,87.2 334.61,87.19 335.38,87.19C336.15,87.19 336.92,87.18 337.69,87.18C338.46,87.17 339.23,87.17 340,87.16C340.77,87.16 341.54,87.15 342.31,87.15C343.08,87.14 343.85,87.14 344.62,87.13C345.39,87.12 346.15,87.12 346.92,87.11C347.69,87.1 348.46,87.1 349.23,87.09C350,87.08 350.77,87.07 351.54,87.06C352.31,87.05 353.08,87.04 353.85,87.03C354.62,87.02 355.38,87.01 356.15,87.01C356.92,87.01 357.69,87.01 358.46,87.01C359.23,87.01 360,87.02 360.77,87.03C361.54,87.04 362.31,87.05 363.08,87.06C363.85,87.07 364.61,87.09 365.38,87.1C366.15,87.12 366.92,87.13 367.69,87.15C368.46,87.17 369.23,87.19 370,87.21C370.77,87.23 371.54,87.24 372.31,87.26C373.08,87.27 373.85,87.29 374.62,87.3C375.39,87.31 376.15,87.31 376.92,87.32C377.69,87.33 378.46,87.34 379.23,87.34C380,87.34 380.77,87.34 381.54,87.34C382.31,87.34 383.08,87.34 383.85,87.34C384.62,87.34 385.38,87.35 386.15,87.35C386.92,87.35 387.69,87.35 388.46,87.35C389.23,87.35 390,87.36 390.77,87.36C391.54,87.36 392.31,87.36 393.08,87.36C393.85,87.36 394.61,87.37 395.38,87.37C396.15,87.37 396.92,87.38 397.69,87.38C398.46,87.38 399.23,87.38 400,87.38C400.77,87.38 401.54,87.38 402.31,87.38C403.08,87.38 403.85,87.37 404.62,87.37C405.39,87.37 406.15,87.36 406.92,87.36C407.69,87.35 408.46,87.35 409.23,87.34C410,87.33 410.77,87.33 411.54,87.32C412.31,87.31 413.08,87.31 413.85,87.3C414.62,87.29 415.38,87.29 416.15,87.28C416.92,87.27 417.69,87.26 418.46,87.26C419.23,87.26 420,87.26 420.77,87.26C421.54,87.26 422.31,87.27 423.08,87.27C423.85,87.27 424.61,87.28 425.38,87.28C426.15,87.29 426.92,87.29 427.69,87.3C428.46,87.31 429.23,87.31 430,87.32C430.77,87.32 431.54,87.33 432.31,87.33C433.08,87.34 433.85,87.34 434.62,87.35C435.39,87.36 436.15,87.36 436.92,87.37C437.69,87.38 438.46,87.38 439.23,87.39C440,87.39 440.77,87.4 441.54,87.4C442.31,87.4 443.08,87.4 443.85,87.4C444.62,87.4 445.38,87.41 446.15,87.41C446.92,87.41 447.69,87.41 448.46,87.41C449.23,87.41 450,87.4 450.77,87.4C451.54,87.4 452.31,87.4 453.08,87.4C453.85,87.4 454.61,87.4 455.38,87.4C456.15,87.4 456.92,87.4 457.69,87.4C458.46,87.4 459.23,87.39 460,87.39C460.77,87.39 461.54,87.38 462.31,87.38C463.08,87.37 463.85,87.37 464.62,87.36C465.39,87.35 466.15,87.34 466.92,87.34C467.69,87.33 468.46,87.33 469.23,87.33C470,87.33 470.77,87.33 471.54,87.33C472.31,87.33 473.08,87.33 473.85,87.34C474.62,87.34 475.38,87.35 476.15,87.36C476.92,87.37 477.69,87.37 478.46,87.38C479.23,87.39 480,87.39 480.77,87.4C481.54,87.41 482.31,87.41 483.08,87.42C483.85,87.42 484.61,87.43 485.38,87.43C486.15,87.43 486.92,87.44 487.69,87.44C488.46,87.44 489.23,87.44 490,87.44C490.77,87.44 491.54,87.44 492.31,87.44C493.08,87.44 493.85,87.44 494.62,87.44C495.39,87.44 496.15,87.43 496.92,87.43C497.69,87.42 498.46,87.42 499.23,87.41C500,87.4 500.77,87.4 501.54,87.39C502.31,87.38 503.08,87.38 503.85,87.37C504.62,87.36 505.38,87.36 506.15,87.35C506.92,87.34 507.69,87.33 508.46,87.33C509.23,87.33 510,87.33 510.77,87.33C511.54,87.33 512.31,87.34 513.08,87.34C513.85,87.34 514.61,87.35 515.38,87.35C516.15,87.35 516.92,87.36 517.69,87.36C518.46,87.36 519.23,87.37 520,87.37C520.77,87.37 521.54,87.37 522.31,87.37C523.08,87.37 523.85,87.37 524.62,87.37C525.39,87.37 526.15,87.36 526.92,87.36C527.69,87.36 528.46,87.36 529.23,87.36C530,87.36 530.77,87.35 531.54,87.35C532.31,87.35 533.08,87.35 533.85,87.35C534.62,87.35 535.38,87.34 536.15,87.34C536.92,87.34 537.69,87.33 538.46,87.33C539.23,87.33 540,87.32 540.77,87.32C541.54,87.32 542.31,87.32 543.08,87.32C543.85,87.32 544.61,87.32 545.38,87.32C546.15,87.32 546.92,87.32 547.69,87.32C548.46,87.32 549.23,87.33 550,87.33C550.77,87.33 551.54,87.34 552.31,87.34C553.08,87.34 553.85,87.35 554.62,87.35C555.39,87.35 556.15,87.36 556.92,87.36C557.69,87.36 558.46,87.36 559.23,87.36C560,87.36 560.77,87.37 561.54,87.37C562.31,87.37 563.08,87.37 563.85,87.37C564.62,87.37 565.38,87.37 566.15,87.37C566.92,87.37 567.69,87.37 568.46,87.37C569.23,87.37 570,87.38 570.77,87.38C571.54,87.38 572.31,87.38 573.08,87.38C573.85,87.38 574.61,87.39 575.38,87.39C576.15,87.39 576.92,87.39 577.69,87.39C578.46,87.39 579.23,87.4 580,87.4C580.77,87.4 581.54,87.41 582.31,87.41C583.08,87.41 583.85,87.41 584.62,87.41C585.39,87.41 586.15,87.42 586.92,87.42C587.69,87.42 588.46,87.41 589.23,87.41C590,87.41 590.77,87.41 591.54,87.41C592.31,87.41 593.08,87.41 593.85,87.41C594.62,87.41 595.38,87.4 596.15,87.4C596.92,87.4 597.69,87.4 598.46,87.4C599.23,87.4 600,87.4 600.77,87.4C601.54,87.4 602.31,87.4 603.08,87.4C603.85,87.4 604.61,87.4 605.38,87.4C606.15,87.4 606.92,87.39 607.69,87.39C608.46,87.39 609.23,87.38 610,87.38C610.77,87.38 611.54,87.38 612.31,87.38C613.08,87.38 613.85,87.37 614.62,87.37C615.39,87.37 616.15,87.38 616.92,87.38C617.69,87.38 618.46,87.39 619.23,87.39C620,87.39 620.77,87.4 621.54,87.4C622.31,87.4 623.08,87.41 623.85,87.41C624.62,87.41 625.38,87.42 626.15,87.42C626.92,87.42 627.69,87.42 628.46,87.42C629.23,87.42 630,87.42 630.77,87.42C631.54,87.42 632.31,87.42 633.08,87.42C633.85,87.42 634.61,87.41 635.38,87.41C636.15,87.41 636.92,87.41 637.69,87.41C638.46,87.41 639.23,87.41 640,87.41C640.77,87.41 641.54,87.41 642.31,87.41C643.08,87.41 643.85,87.42 644.62,87.42C645.39,87.42 646.15,87.42 646.92,87.42C647.69,87.42 648.46,87.43 649.23,87.43C650,87.43 650.77,87.44 651.54,87.44C652.31,87.44 653.08,87.44 653.85,87.44C654.62,87.44 655.38,87.45 656.15,87.45C656.92,87.45 657.69,87.45 658.46,87.45C659.23,87.45 660,87.45 660.77,87.45C661.54,87.45 662.31,87.45 663.08,87.45C663.85,87.45 664.61,87.45 665.38,87.45C666.15,87.45 666.92,87.45 667.69,87.45C668.46,87.45 669.23,87.45 670,87.45C670.77,87.45 671.54,87.45 672.31,87.45C673.08,87.45 673.85,87.45 674.62,87.45C675.39,87.45 676.15,87.45 676.92,87.45C677.69,87.45 678.46,87.45 679.23,87.45C680,87.45 680.77,87.45 681.54,87.45C682.31,87.45 683.08,87.45 683.85,87.45C684.62,87.45 685.38,87.45 686.15,87.45C686.92,87.45 687.69,87.45 688.46,87.45C689.23,87.45 690,87.45 690.77,87.45C691.54,87.45 692.31,87.45 693.08,87.45C693.85,87.45 694.61,87.45 695.38,87.45C696.15,87.45 696.92,87.45 697.69,87.45C698.46,87.45 699.23,87.45 700,87.45C700.77,87.45 701.54,87.45 702.31,87.45C703.08,87.45 703.85,87.45 704.62,87.45C705.39,87.45 706.15,87.45 706.92,87.45C707.69,87.45 708.46,87.45 709.23,87.45C710,87.45 710.77,87.45 711.54,87.45C712.31,87.45 713.08,87.45 713.85,87.45C714.62,87.45 715.38,87.45 716.15,87.45C716.92,87.45 717.69,87.45 718.46,87.45C719.23,87.45 720,87.45 720.77,87.45C721.54,87.45 722.31,87.45 723.08,87.45C723.85,87.45 724.61,87.45 725.38,87.45C726.15,87.45 726.92,87.45 727.69,87.45C728.46,87.45 729.23,87.45 730,87.45C730.77,87.45 731.54,87.44 732.31,87.44C733.08,87.44 733.85,87.44 734.62,87.44C735.39,87.44 736.15,87.43 736.92,87.43C737.69,87.43 738.46,87.42 739.23,87.42C740,87.42 740.77,87.42 741.54,87.42C742.31,87.42 743.08,87.41 743.85,87.41C744.62,87.41 745.38,87.41 746.15,87.41C746.92,87.41 747.69,87.41 748.46,87.41C749.23,87.41 750,87.42 750.77,87.42C751.54,87.42 752.31,87.42 753.08,87.42C753.85,87.42 754.61,87.43 755.38,87.43C756.15,87.43 756.92,87.44 757.69,87.44Q758.46,87.44 760,87.44L760,87.45" style="vector-effect: none; stroke-width: 2px; stroke: rgb(48, 156, 151); stroke-opacity: 1; fill: rgb(60, 195, 188); fill-opacity: 0.5;"/><path class="meanline" d="M92.49,54.781890869140625V87.45" style="fill: none; vector-effect: none; stroke-width: 2px; stroke-dasharray: 4px, 2px; stroke: rgb(48, 156, 151); stroke-opacity: 1;"/></g></g></g><g class="overplot"/><path class="xlines-above crisp" d="M0,0" style="fill: none;"/><path class="ylines-above crisp" d="M0,0" style="fill: none;"/><g class="overlines-above"/><g class="xaxislayer-above"><g class="xtick"><text text-anchor="middle" x="0" y="172" transform="translate(52.26,0)" style="font-family: 'Open Sans', verdana, arial, sans-serif; font-size: 12px; fill: rgb(242, 245, 250); fill-opacity: 1; white-space: pre; opacity: 1;">0</text></g><g class="xtick"><text text-anchor="middle" x="0" y="172" style="font-family: 'Open Sans', verdana, arial, sans-serif; font-size: 12px; fill: rgb(242, 245, 250); fill-opacity: 1; white-space: pre; opacity: 1;" transform="translate(210.68,0)">100</text></g><g class="xtick"><text text-anchor="middle" x="0" y="172" style="font-family: 'Open Sans', verdana, arial, sans-serif; font-size: 12px; fill: rgb(242, 245, 250); fill-opacity: 1; white-space: pre; opacity: 1;" transform="translate(369.11,0)">200</text></g><g class="xtick"><text text-anchor="middle" x="0" y="172" style="font-family: 'Open Sans', verdana, arial, sans-serif; font-size: 12px; fill: rgb(242, 245, 250); fill-opacity: 1; white-space: pre; opacity: 1;" transform="translate(527.53,0)">300</text></g><g class="xtick"><text text-anchor="middle" x="0" y="172" style="font-family: 'Open Sans', verdana, arial, sans-serif; font-size: 12px; fill: rgb(242, 245, 250); fill-opacity: 1; white-space: pre; opacity: 1;" transform="translate(685.95,0)">400</text></g></g><g class="yaxislayer-above"/><g class="overaxes-above"/></g></g><g class="polarlayer"/><g class="smithlayer"/><g class="ternarylayer"/><g class="geolayer"/><g class="funnelarealayer"/><g class="pielayer"/><g class="iciclelayer"/><g class="treemaplayer"/><g class="sunburstlayer"/><g class="glimages"/><defs id="topdefs-4c70ce"><g class="clips"/></defs><g class="layer-above"><g class="imagelayer"/><g class="shapelayer"/></g><g class="infolayer"><g class="g-gtitle"/><g class="g-xtitle" transform="translate(0,-2.3000000000000114)"><text class="xtitle" x="400" y="199.3" text-anchor="middle" style="font-family: 'Open Sans', verdana, arial, sans-serif; font-size: 14px; fill: rgb(242, 245, 250); opacity: 1; white-space: pre;">Life Span</text></g><g class="g-ytitle"/></g></svg>