<svg class="main-svg" xmlns="http://www.w3.org/2000/svg" xmlns:xlink="http://www.w3.org/1999/xlink" width="800" height="200" style="" viewBox="0 0 800 200"><rect x="0" y="0" width="800" height="200" style="fill: rgb(0, 0, 0); fill-opacity: 0;"/><defs id="defs-d2260c"><g class="clips"><clipPath id="clipd2260cxyplot" class="plotclip"><rect width="800" height="159"/></clipPath><clipPath class="axesclip" id="clipd2260cx"><rect x="0" y="0" width="800" height="200"/></clipPath><clipPath class="axesclip" id="clipd2260cy"><rect x="0" y="0" width="800" height="159"/></clipPath><clipPath class="axesclip" id="clipd2260cxy"><rect x="0" y="0" width="800" height="159"/></clipPath></g><g class="gradients"/><g class="patterns"/></defs><g class="bglayer"><rect class="bg" x="0" y="0" width="800" height="159" style="fill: rgb(0, 0, 0); fill-opacity: 0; stroke-width: 0;"/></g><g class="layer-below"><g class="imagelayer"/><g class="shapelayer"/></g><g class="cartesianlayer"><g class="subplot xy"><g class="layer-subplot"><g class="shapelayer"/><g class="imagelayer"/></g><g class="minor-gridlayer"><g class="x"/><g class="y"/></g><g class="gridlayer"><g class="x"><path class="xgrid crisp" transform="translate(135.6,0)" d="M0,0v159" style="stroke: rgb(40, 52, 66); stroke-opacity: 1; stroke-width: 1px;"/><path class="xgrid crisp" transform="translate(219.36,0)" d="M0,0v159" style="stroke: rgb(40, 52, 66); stroke-opacity: 1; stroke-width: 1px;"/><path class="xgrid crisp" transform="translate(303.11,0)" d="M0,0v159" style="stroke: rgb(40, 52, 66); stroke-opacity: 1; stroke-width: 1px;"/><path class="xgrid crisp" transform="translate(386.87,0)" d="M0,0v159" style="stroke: rgb(40, 52, 66); stroke-opacity: 1; stroke-width: 1px;"/><path class="xgrid crisp" transform="translate(470.63,0)" d="M0,0v159" style="stroke: rgb(40, 52, 66); stroke-opacity: 1; stroke-width: 1px;"/><path class="xgrid crisp" transform="translate(554.39,0)" d="M0,0v159" style="stroke: rgb(40, 52, 66); stroke-opacity: 1; stroke-width: 1px;"/><path class="xgrid crisp" transform="translate(638.14,0)" d="M0,0v159" style="stroke: rgb(40, 52, 66); stroke-opacity: 1; stroke-width: 1px;"/><path class="xgrid crisp" transform="translate(721.9,0)" d="M0,0v159" style="stroke: rgb(40, 52, 66); stroke-opacity: 1; stroke-width: 1px;"/></g><g class="y"/></g><g class="zerolinelayer"><path class="xzl zl crisp" transform="translate(51.84,0)" d="M0,0v159" style="stroke: rgb(40, 52, 66); stroke-opacity: 1; stroke-width: 2px;"/></g><g class="layer-between"><g class="shapelayer"/><g class="imagelayer"/></g><path class="xlines-below"/><path class="ylines-below"/><g class="overlines-below"/><g class="xaxislayer-below"/><g class="yaxislayer-below"/><g class="overaxes-below"/><g class="plot" transform="" clip-path="url(#clipd2260cxyplot)"><g class="violinlayer mlayer"><g class="trace violins" style="opacity: 1;"><path class="violin" d="M40,151.05L40,150.94Q42.25,150.86 43.37,150.79C44.49,150.72 45.62,150.64 46.74,150.52C47.87,150.39 48.99,150.24 50.11,150.04C51.23,149.84 52.35,149.6 53.47,149.31C54.6,149.02 55.72,148.68 56.84,148.31C57.97,147.94 59.09,147.52 60.21,147.1C61.34,146.68 62.46,146.22 63.58,145.8C64.7,145.38 65.82,144.94 66.95,144.56C68.07,144.18 69.19,143.83 70.32,143.52C71.44,143.22 72.56,142.94 73.69,142.72C74.81,142.5 75.93,142.33 77.05,142.19C78.17,142.05 79.3,141.96 80.42,141.9C81.54,141.84 82.67,141.83 83.79,141.85C84.91,141.87 86.04,141.95 87.16,142.05C88.29,142.16 89.41,142.31 90.53,142.48C91.66,142.65 92.78,142.87 93.9,143.09C95.02,143.31 96.15,143.56 97.27,143.79C98.39,144.02 99.52,144.26 100.64,144.46C101.76,144.66 102.88,144.85 104,145C105.12,145.14 106.25,145.26 107.37,145.33C108.49,145.4 109.62,145.43 110.74,145.42C111.86,145.41 112.99,145.36 114.11,145.29C115.23,145.21 116.36,145.1 117.48,144.97C118.6,144.84 119.73,144.68 120.85,144.5C121.98,144.32 123.1,144.13 124.22,143.89C125.35,143.64 126.47,143.39 127.58,143.03C128.71,142.66 129.85,142.26 130.95,141.7C132.1,141.12 133.24,140.42 134.32,139.57C135.49,138.65 136.62,137.54 137.69,136.3C138.88,134.92 139.99,133.32 141.06,131.61C142.25,129.72 143.35,127.59 144.43,125.39C145.6,123.01 146.7,120.42 147.8,117.81C148.95,115.07 150.05,112.18 151.16,109.33C152.29,106.44 153.39,103.46 154.53,100.6C155.64,97.81 156.74,94.99 157.9,92.35C158.99,89.86 160.09,87.41 161.27,85.19C162.35,83.16 163.45,81.21 164.64,79.51C165.71,77.98 166.82,76.56 168.01,75.4C169.08,74.36 170.21,73.45 171.38,72.8C172.46,72.2 173.61,71.75 174.75,71.55C175.85,71.35 177.01,71.36 178.11,71.55C179.25,71.75 180.39,72.19 181.48,72.74C182.64,73.33 183.76,74.15 184.85,75.03C186.01,75.97 187.12,77.1 188.22,78.26C189.37,79.48 190.48,80.84 191.59,82.19C192.73,83.58 193.84,85.05 194.96,86.51C196.09,87.99 197.21,89.51 198.33,91.01C199.45,92.51 200.56,94.04 201.69,95.53C202.81,97 203.92,98.49 205.06,99.9C206.17,101.27 207.27,102.65 208.43,103.86C209.52,105 210.62,106.14 211.8,107.01C212.88,107.8 214.01,108.54 215.17,108.93C216.26,109.3 217.42,109.45 218.54,109.37C219.67,109.29 220.82,108.88 221.91,108.42C223.06,107.93 224.16,107.18 225.27,106.48C226.41,105.77 227.51,104.92 228.64,104.19C229.75,103.48 230.86,102.72 232.01,102.15C233.11,101.6 234.24,101.1 235.38,100.8C236.49,100.51 237.63,100.35 238.75,100.36C239.87,100.37 241.02,100.56 242.12,100.87C243.26,101.2 244.4,101.71 245.49,102.31C246.64,102.94 247.76,103.75 248.85,104.62C250.01,105.55 251.13,106.63 252.22,107.76C253.38,108.95 254.49,110.28 255.59,111.63C256.74,113.04 257.85,114.55 258.96,116.07C260.1,117.63 261.21,119.26 262.33,120.87C263.46,122.49 264.57,124.15 265.7,125.76C266.82,127.35 267.93,128.95 269.07,130.46C270.18,131.93 271.29,133.37 272.44,134.71C273.54,135.99 274.65,137.22 275.8,138.32C276.89,139.37 278.02,140.34 279.17,141.19C280.27,142 281.39,142.73 282.54,143.34C283.64,143.93 284.77,144.42 285.91,144.82C287.02,145.21 288.15,145.51 289.28,145.75C290.4,145.99 291.52,146.14 292.65,146.28C293.77,146.41 294.9,146.49 296.02,146.56C297.14,146.63 298.26,146.66 299.38,146.69C300.5,146.73 301.63,146.75 302.75,146.77C303.87,146.79 305,146.81 306.12,146.83C307.24,146.84 308.37,146.86 309.49,146.86C310.61,146.86 311.74,146.86 312.86,146.86C313.98,146.86 315.11,146.84 316.23,146.83C317.35,146.82 318.48,146.81 319.6,146.82C320.72,146.83 321.84,146.85 322.96,146.89C324.08,146.93 325.21,147 326.33,147.08C327.45,147.16 328.58,147.27 329.7,147.37C330.82,147.47 331.95,147.59 333.07,147.7C334.19,147.8 335.32,147.92 336.44,148C337.56,148.08 338.69,148.13 339.81,148.16C340.93,148.19 342.06,148.19 343.18,148.17C344.3,148.15 345.42,148.1 346.54,148.07C347.66,148.04 348.79,147.99 349.91,147.98C351.03,147.97 352.16,147.98 353.28,148.02C354.4,148.06 355.53,148.14 356.65,148.24C357.77,148.34 358.9,148.49 360.02,148.64C361.14,148.79 362.27,148.97 363.39,149.14C364.51,149.31 365.64,149.49 366.76,149.65C367.88,149.81 369.01,149.95 370.13,150.08C371.25,150.21 372.37,150.33 373.49,150.42C374.61,150.52 375.74,150.58 376.86,150.65C377.98,150.71 379.11,150.77 380.23,150.81C381.35,150.85 382.48,150.88 383.6,150.91C384.72,150.94 385.85,150.96 386.97,150.98Q388.09,151 390.34,151.01L390.34,151.05" style="vector-effect: none; stroke-width: 2px; stroke: rgb(124, 156, 48); stroke-opacity: 1; fill: rgb(155, 195, 60); fill-opacity: 0.5;"/><path class="meanline" d="M198.42,91.13191986083984V151.05" style="fill: none; vector-effect: none; stroke-width: 2px; stroke-dasharray: 4px, 2px; stroke: rgb(124, 156, 48); stroke-opacity: 1;"/></g><g class="trace violins" style="opacity: 1;"><path class="violin" d="M156.27,119.25L156.27,119.2Q159.55,119.18 161.19,119.16C162.83,119.14 164.48,119.12 166.12,119.1C167.76,119.07 169.41,119.04 171.05,119.01C172.69,118.97 174.34,118.94 175.98,118.89C177.62,118.85 179.26,118.79 180.9,118.74C182.54,118.69 184.19,118.64 185.83,118.58C187.47,118.52 189.12,118.46 190.76,118.39C192.4,118.32 194.05,118.24 195.69,118.14C197.33,118.04 198.97,117.94 200.61,117.79C202.25,117.64 203.9,117.47 205.54,117.23C207.19,116.99 208.84,116.72 210.47,116.35C212.12,115.97 213.77,115.53 215.4,114.97C217.06,114.4 218.7,113.73 220.32,112.95C221.99,112.15 223.63,111.22 225.25,110.21C226.92,109.17 228.55,108.01 230.18,106.81C231.84,105.59 233.47,104.26 235.11,102.95C236.76,101.63 238.38,100.24 240.03,98.92C241.66,97.62 243.3,96.3 244.96,95.09C246.59,93.9 248.23,92.76 249.89,91.7C251.51,90.67 253.16,89.72 254.81,88.82C256.44,87.93 258.1,87.15 259.74,86.31C261.38,85.47 263.04,84.7 264.67,83.8C266.33,82.88 267.99,81.93 269.6,80.82C271.28,79.66 272.92,78.37 274.52,76.94C276.21,75.42 277.85,73.71 279.45,71.92C281.14,70.03 282.76,67.94 284.38,65.84C286.05,63.67 287.67,61.34 289.31,59.08C290.95,56.82 292.55,54.46 294.23,52.29C295.84,50.21 297.44,48.09 299.16,46.31C300.74,44.67 302.36,43.06 304.09,41.94C305.66,40.93 307.34,40.1 309.02,39.75C310.63,39.42 312.33,39.5 313.94,39.81C315.61,40.13 317.26,40.91 318.87,41.69C320.55,42.5 322.17,43.61 323.8,44.63C325.45,45.67 327.08,46.82 328.73,47.87C330.36,48.91 332,49.95 333.65,50.91C335.28,51.86 336.93,52.76 338.58,53.62C340.21,54.47 341.86,55.29 343.51,56.07C345.15,56.84 346.79,57.6 348.44,58.28C350.07,58.95 351.7,59.6 353.36,60.1C354.99,60.59 356.64,61.01 358.29,61.26C359.92,61.51 361.58,61.6 363.22,61.59C364.86,61.58 366.51,61.38 368.15,61.2C369.79,61.02 371.43,60.71 373.07,60.52C374.71,60.34 376.36,60.12 378,60.09C379.64,60.06 381.29,60.12 382.93,60.31C384.58,60.5 386.23,60.87 387.86,61.25C389.51,61.63 391.14,62.15 392.78,62.61C394.42,63.07 396.06,63.58 397.71,63.99C399.35,64.4 400.99,64.77 402.64,65.06C404.28,65.35 405.93,65.55 407.57,65.75C409.21,65.95 410.85,66.05 412.49,66.24C414.13,66.43 415.78,66.58 417.42,66.87C419.07,67.16 420.72,67.49 422.35,67.97C424.01,68.46 425.66,69.06 427.28,69.77C428.95,70.5 430.58,71.38 432.2,72.33C433.87,73.32 435.51,74.44 437.13,75.61C438.8,76.81 440.43,78.12 442.06,79.45C443.72,80.81 445.35,82.25 446.98,83.68C448.63,85.12 450.26,86.62 451.91,88.07C453.55,89.52 455.18,90.99 456.84,92.38C458.47,93.75 460.11,95.11 461.77,96.36C463.39,97.58 465.02,98.76 466.69,99.81C468.31,100.83 469.95,101.77 471.62,102.57C473.24,103.35 474.89,104.04 476.55,104.58C478.17,105.11 479.83,105.53 481.48,105.8C483.11,106.07 484.76,106.21 486.4,106.22C488.04,106.23 489.69,106.1 491.33,105.87C492.98,105.64 494.63,105.25 496.26,104.81C497.91,104.37 499.55,103.78 501.19,103.22C502.84,102.65 504.47,102 506.11,101.42C507.75,100.84 509.39,100.23 511.04,99.76C512.67,99.3 514.32,98.86 515.97,98.61C517.6,98.36 519.26,98.23 520.9,98.26C522.54,98.29 524.19,98.49 525.82,98.81C527.48,99.14 529.12,99.65 530.75,100.21C532.41,100.79 534.05,101.51 535.68,102.24C537.33,102.98 538.97,103.82 540.61,104.63C542.25,105.44 543.89,106.3 545.53,107.11C547.17,107.92 548.81,108.73 550.46,109.48C552.1,110.23 553.74,110.95 555.39,111.62C557.03,112.29 558.67,112.92 560.32,113.5C561.95,114.07 563.59,114.6 565.24,115.08C566.88,115.55 568.52,115.98 570.17,116.36C571.81,116.73 573.45,117.05 575.1,117.33C576.74,117.6 578.39,117.82 580.03,118.01C581.67,118.19 583.31,118.33 584.95,118.44C586.59,118.55 588.24,118.63 589.88,118.69C591.52,118.75 593.17,118.78 594.81,118.82C596.45,118.85 598.1,118.88 599.74,118.9C601.38,118.92 603.02,118.94 604.66,118.96C606.3,118.98 607.95,119 609.59,119.02C611.23,119.04 612.88,119.06 614.52,119.08C616.16,119.1 617.8,119.12 619.44,119.14C621.08,119.16 622.73,119.17 624.37,119.18C626.01,119.19 627.66,119.2 629.3,119.21Q630.94,119.22 634.23,119.23L634.23,119.25" style="vector-effect: none; stroke-width: 2px; stroke: rgb(48, 156, 151); stroke-opacity: 1; fill: rgb(60, 195, 188); fill-opacity: 0.5;"/><path class="meanline" d="M365.96,61.43330764770508V119.25" style="fill: none; vector-effect: none; stroke-width: 2px; stroke-dasharray: 4px, 2px; stroke: rgb(48, 156, 151); stroke-opacity: 1;"/></g><g class="trace violins" style="opacity: 1;"><path class="violin" d="M189.63,87.45L189.63,87.34Q193.86,87.27 195.97,87.22C198.08,87.17 200.2,87.1 202.31,87.02C204.42,86.94 206.53,86.84 208.64,86.73C210.75,86.62 212.87,86.48 214.98,86.34C217.09,86.2 219.21,86.04 221.32,85.9C223.43,85.76 225.55,85.61 227.66,85.5C229.77,85.39 231.88,85.28 233.99,85.22C236.1,85.16 238.22,85.13 240.33,85.14C242.44,85.15 244.56,85.21 246.67,85.29C248.78,85.37 250.9,85.48 253.01,85.6C255.12,85.72 257.23,85.87 259.34,85.99C261.45,86.11 263.57,86.24 265.68,86.34C267.79,86.44 269.91,86.53 272.02,86.57C274.13,86.61 276.25,86.63 278.36,86.61C280.47,86.59 282.58,86.54 284.69,86.47C286.8,86.4 288.92,86.29 291.03,86.17C293.14,86.05 295.26,85.92 297.37,85.77C299.48,85.62 301.6,85.45 303.71,85.27C305.82,85.09 307.93,84.9 310.04,84.67C312.15,84.43 314.27,84.2 316.38,83.86C318.5,83.52 320.62,83.16 322.72,82.65C324.85,82.14 326.97,81.55 329.06,80.79C331.2,80.01 333.31,79.1 335.39,78.03C337.54,76.92 339.66,75.61 341.73,74.19C343.89,72.71 345.99,71.03 348.07,69.3C350.22,67.51 352.31,65.54 354.41,63.6C356.54,61.63 358.62,59.54 360.74,57.55C362.84,55.57 364.94,53.56 367.08,51.7C369.17,49.89 371.27,48.13 373.42,46.54C375.5,45.01 377.61,43.59 379.75,42.31C381.83,41.06 383.96,39.97 386.09,38.93C388.19,37.91 390.31,37 392.43,36.1C394.54,35.2 396.65,34.34 398.77,33.52C400.87,32.71 402.97,31.89 405.1,31.22C407.2,30.56 409.31,29.91 411.44,29.53C413.54,29.16 415.67,28.91 417.78,28.97C419.9,29.03 422.04,29.36 424.12,29.91C426.26,30.47 428.37,31.37 430.45,32.33C432.6,33.33 434.7,34.59 436.79,35.83C438.92,37.1 441.02,38.51 443.13,39.87C445.25,41.24 447.35,42.65 449.47,44.03C451.58,45.4 453.68,46.78 455.8,48.11C457.91,49.44 460.01,50.76 462.14,52.01C464.24,53.25 466.34,54.49 468.48,55.59C470.57,56.66 472.68,57.71 474.82,58.53C476.9,59.33 479.02,60.04 481.15,60.49C483.24,60.93 485.38,61.18 487.49,61.21C489.6,61.24 491.73,61.03 493.83,60.67C495.96,60.31 498.08,59.71 500.17,59.03C502.3,58.33 504.41,57.45 506.5,56.51C508.63,55.55 510.75,54.47 512.84,53.31C514.98,52.13 517.09,50.85 519.18,49.48C521.32,48.08 523.43,46.58 525.52,45.01C527.66,43.4 529.76,41.7 531.85,39.94C533.98,38.15 536.09,36.26 538.19,34.36C540.32,32.44 542.42,30.46 544.53,28.5C546.64,26.54 548.74,24.53 550.87,22.62C552.97,20.73 555.06,18.82 557.2,17.09C559.28,15.41 561.37,13.71 563.54,12.35C565.6,11.06 567.71,9.79 569.88,9.06C571.94,8.36 574.11,7.87 576.21,7.95C578.33,8.03 580.52,8.64 582.55,9.57C584.76,10.58 586.86,12.26 588.89,13.99C591.1,15.87 593.16,18.25 595.23,20.55C597.38,22.93 599.43,25.6 601.56,28.05C603.65,30.46 605.72,32.96 607.9,35.11C609.95,37.14 612.04,39.11 614.24,40.67C616.28,42.12 618.41,43.35 620.58,44.26C622.64,45.13 624.78,45.66 626.91,46.09C629.01,46.52 631.14,46.63 633.25,46.85C635.36,47.07 637.48,47.14 639.59,47.42C641.71,47.71 643.84,48.02 645.93,48.56C648.06,49.11 650.18,49.84 652.26,50.72C654.41,51.63 656.51,52.76 658.6,53.95C660.74,55.17 662.84,56.58 664.94,57.98C667.07,59.4 669.17,60.93 671.28,62.4C673.39,63.87 675.49,65.38 677.61,66.81C679.71,68.22 681.82,69.62 683.95,70.92C686.05,72.2 688.16,73.42 690.29,74.55C692.39,75.66 694.5,76.69 696.63,77.64C698.72,78.57 700.84,79.42 702.96,80.19C705.06,80.95 707.18,81.62 709.3,82.23C711.4,82.83 713.52,83.35 715.64,83.81C717.75,84.27 719.86,84.66 721.98,85.01C724.09,85.35 726.2,85.63 728.31,85.88C730.42,86.13 732.54,86.32 734.65,86.49C736.76,86.66 738.88,86.78 740.99,86.89C743.1,87 745.22,87.08 747.33,87.15C749.44,87.22 751.55,87.26 753.66,87.3Q755.77,87.34 760,87.38L760,87.45" style="vector-effect: none; stroke-width: 2px; stroke: rgb(133, 41, 163); stroke-opacity: 1; fill: rgb(166, 51, 204); fill-opacity: 0.5;"/><path class="meanline" d="M515.28,51.9141845703125V87.45" style="fill: none; vector-effect: none; stroke-width: 2px; stroke-dasharray: 4px, 2px; stroke: rgb(133, 41, 163); stroke-opacity: 1;"/></g></g></g><g class="overplot"/><path class="xlines-above crisp" d="M0,0" style="fill: none;"/><path class="ylines-above crisp" d="M0,0" style="fill: none;"/><g class="overlines-above"/><g class="xaxislayer-above"><g class="xtick"><text text-anchor="middle" x="0" y="172" transform="translate(51.84,0)" style="font-family: 'Open Sans', verdana, arial, sans-serif; font-size: 12px; fill: rgb(242, 245, 250); fill-opacity: 1; white-space: pre; opacity: 1;">0</text></g><g class="xtick"><text text-anchor="middle" x="0" y="172" style="font-family: 'Open Sans', verdana, arial, sans-serif; font-size: 12px; fill: rgb(242, 245, 250); fill-opacity: 1; white-space: pre; opacity: 1;" transform="translate(135.6,0)">10</text></g><g class="xtick"><text text-anchor="middle" x="0" y="172" style="font-family: 'Open Sans', verdana, arial, sans-serif; font-size: 12px; fill: rgb(242, 245, 250); fill-opacity: 1; white-space: pre; opacity: 1;" transform="translate(219.36,0)">20</text></g><g class="xtick"><text text-anchor="middle" x="0" y="172" style="font-family: 'Open Sans', verdana, arial, sans-serif; font-size: 12px; fill: rgb(242, 245, 250); fill-opacity: 1; white-space: pre; opacity: 1;" transform="translate(303.11,0)">30</text></g><g class="xtick"><text text-anchor="middle" x="0" y="172" style="font-family: 'Open Sans', verdana, arial, sans-serif; font-size: 12px; fill: rgb(242, 245, 250); fill-opacity: 1; white-space: pre; opacity: 1;" transform="translate(386.87,0)">40</text></g><g class="xtick"><text text-anchor="middle" x="0" y="172" style="font-family: 'Open Sans', verdana, arial, sans-serif; font-size: 12px; fill: rgb(242, 245, 250); fill-opacity: 1; white-space: pre; opacity: 1;" transform="translate(470.63,0)">50</text></g><g class="xtick"><text text-anchor="middle" x="0" y="172" style="font-family: 'Open Sans', verdana, arial, sans-serif; font-size: 12px; fill: rgb(242, 245, 250); fill-opacity: 1; white-space: pre; opacity: 1;" transform="translate(554.39,0)">60</text></g><g class="xtick"><text text-anchor="middle" x="0" y="172" style="font-family: 'Open Sans', verdana, arial, sans-serif; font-size: 12px; fill: rgb(242, 245, 250); fill-opacity: 1; white-space: pre; opacity: 1;" transform="translate(638.14,0)">70</text></g><g class="xtick"><text text-anchor="middle" x="0" y="172" style="font-family: 'Open Sans', verdana, arial, sans-serif; font-size: 12px; fill: rgb(242, 245, 250); fill-opacity: 1; white-space: pre; opacity: 1;" transform="translate(721.9,0)">80</text></g></g><g class="yaxislayer-above"/><g class="overaxes-above"/></g></g><g class="polarlayer"/><g class="smithlayer"/><g class="ternarylayer"/><g class="geolayer"/><g class="funnelarealayer"/><g class="pielayer"/><g class="iciclelayer"/><g class="treemaplayer"/><g class="sunburstlayer"/><g class="glimages"/><defs id="topdefs-d2260c"><g class="clips"/></defs><g class="layer-above"><g class="imagelayer"/><g class="shapelayer"/></g><g class="infolayer"><g class="g-gtitle"/><g class="g-xtitle" transform="translate(0,-2.3000000000000114)"><text class="xtitle" x="400" y="199.3" text-anchor="middle" style="font-family: 'Open Sans', verdana, arial, sans-serif; font-size: 14px; fill: rgb(242, 245, 250); opacity: 1; white-space: pre;">Kid Energy</text></g><g class="g-ytitle"/></g></svg>