<svg class="main-svg" xmlns="http://www.w3.org/2000/svg" xmlns:xlink="http://www.w3.org/1999/xlink" width="800" height="200" style="" viewBox="0 0 800 200"><rect x="0" y="0" width="800" height="200" style="fill: rgb(0, 0, 0); fill-opacity: 0;"/><defs id="defs-b908ba"><g class="clips"><clipPath id="clipb908baxyplot" class="plotclip"><rect width="800" height="159"/></clipPath><clipPath class="axesclip" id="clipb908bax"><rect x="0" y="0" width="800" height="200"/></clipPath><clipPath class="axesclip" id="clipb908bay"><rect x="0" y="0" width="800" height="159"/></clipPath><clipPath class="axesclip" id="clipb908baxy"><rect x="0" y="0" width="800" height="159"/></clipPath></g><g class="gradients"/><g class="patterns"/></defs><g class="bglayer"><rect class="bg" x="0" y="0" width="800" height="159" style="fill: rgb(0, 0, 0); fill-opacity: 0; stroke-width: 0;"/></g><g class="layer-below"><g class="imagelayer"/><g class="shapelayer"/></g><g class="cartesianlayer"><g class="subplot xy"><g class="layer-subplot"><g class="shapelayer"/><g class="imagelayer"/></g><g class="minor-gridlayer"><g class="x"/><g class="y"/></g><g class="gridlayer"><g class="x"><path class="xgrid crisp" transform="translate(132.93,0)" d="M0,0v159" style="stroke: rgb(40, 52, 66); stroke-opacity: 1; stroke-width: 1px;"/><path class="xgrid crisp" transform="translate(213.95,0)" d="M0,0v159" style="stroke: rgb(40, 52, 66); stroke-opacity: 1; stroke-width: 1px;"/><path class="xgrid crisp" transform="translate(294.98,0)" d="M0,0v159" style="stroke: rgb(40, 52, 66); stroke-opacity: 1; stroke-width: 1px;"/><path class="xgrid crisp" transform="translate(376,0)" d="M0,0v159" style="stroke: rgb(40, 52, 66); stroke-opacity: 1; stroke-width: 1px;"/><path class="xgrid crisp" transform="translate(457.02,0)" d="M0,0v159" style="stroke: rgb(40, 52, 66); stroke-opacity: 1; stroke-width: 1px;"/><path class="xgrid crisp" transform="translate(538.05,0)" d="M0,0v159" style="stroke: rgb(40, 52, 66); stroke-opacity: 1; stroke-width: 1px;"/><path class="xgrid crisp" transform="translate(619.07,0)" d="M0,0v159" style="stroke: rgb(40, 52, 66); stroke-opacity: 1; stroke-width: 1px;"/><path class="xgrid crisp" transform="translate(700.09,0)" d="M0,0v159" style="stroke: rgb(40, 52, 66); stroke-opacity: 1; stroke-width: 1px;"/><path class="xgrid crisp" transform="translate(781.11,0)" d="M0,0v159" style="stroke: rgb(40, 52, 66); stroke-opacity: 1; stroke-width: 1px;"/></g><g class="y"/></g><g class="zerolinelayer"><path class="xzl zl crisp" transform="translate(51.91,0)" d="M0,0v159" style="stroke: rgb(40, 52, 66); stroke-opacity: 1; stroke-width: 2px;"/></g><g class="layer-between"><g class="shapelayer"/><g class="imagelayer"/></g><path class="xlines-below"/><path class="ylines-below"/><g class="overlines-below"/><g class="xaxislayer-below"/><g class="yaxislayer-below"/><g class="overaxes-below"/><g class="plot" transform="" clip-path="url(#clipb908baxyplot)"><g class="violinlayer mlayer"><g class="trace violins" style="opacity: 1;"><path class="violin" d="M40,151.05L40,150.89Q43.12,150.79 44.68,150.7C46.24,150.61 47.8,150.51 49.36,150.37C50.92,150.23 52.48,150.06 54.03,149.84C55.59,149.62 57.15,149.36 58.71,149.07C60.27,148.78 61.83,148.44 63.39,148.09C64.95,147.74 66.51,147.35 68.07,146.97C69.63,146.59 71.19,146.18 72.75,145.82C74.31,145.46 75.86,145.1 77.42,144.79C78.98,144.48 80.54,144.2 82.1,143.96C83.66,143.72 85.22,143.54 86.78,143.37C88.34,143.2 89.9,143.08 91.46,142.95C93.02,142.82 94.58,142.72 96.14,142.61C97.7,142.5 99.25,142.39 100.81,142.29C102.37,142.19 103.93,142.08 105.49,141.99C107.05,141.9 108.61,141.82 110.17,141.76C111.73,141.7 113.29,141.66 114.85,141.63C116.41,141.6 117.97,141.6 119.53,141.57C121.09,141.54 122.64,141.52 124.2,141.44C125.76,141.35 127.32,141.25 128.88,141.06C130.44,140.86 132.01,140.6 133.56,140.27C135.13,139.93 136.69,139.51 138.24,139.04C139.81,138.57 141.37,138 142.92,137.44C144.49,136.87 146.04,136.24 147.6,135.65C149.16,135.06 150.71,134.43 152.27,133.89C153.82,133.35 155.38,132.82 156.95,132.41C158.5,132.01 160.06,131.65 161.63,131.46C163.18,131.27 164.75,131.18 166.31,131.26C167.87,131.34 169.45,131.59 170.99,131.96C172.56,132.34 174.12,132.9 175.66,133.51C177.24,134.13 178.79,134.91 180.34,135.66C181.91,136.42 183.45,137.28 185.02,138.06C186.57,138.83 188.13,139.62 189.7,140.3C191.25,140.97 192.81,141.59 194.38,142.11C195.92,142.62 197.48,143.04 199.05,143.38C200.6,143.71 202.17,143.95 203.73,144.13C205.29,144.31 206.85,144.41 208.41,144.47C209.97,144.53 211.53,144.52 213.09,144.49C214.65,144.46 216.21,144.38 217.77,144.28C219.33,144.18 220.88,144.03 222.44,143.9C224,143.76 225.56,143.6 227.12,143.47C228.68,143.34 230.24,143.2 231.8,143.13C233.36,143.06 234.92,143.01 236.48,143.02C238.04,143.03 239.6,143.11 241.16,143.21C242.72,143.32 244.27,143.5 245.83,143.65C247.39,143.8 248.95,144.01 250.51,144.13C252.07,144.25 253.63,144.38 255.19,144.37C256.75,144.36 258.32,144.3 259.87,144.06C261.44,143.82 263.01,143.45 264.55,142.93C266.13,142.39 267.7,141.68 269.22,140.84C270.82,139.96 272.38,138.88 273.9,137.71C275.5,136.49 277.05,135.08 278.58,133.63C280.17,132.12 281.72,130.44 283.26,128.78C284.84,127.08 286.38,125.27 287.94,123.53C289.49,121.8 291.03,120.01 292.61,118.37C294.14,116.78 295.69,115.19 297.29,113.8C298.81,112.48 300.37,111.24 301.97,110.2C303.49,109.22 305.06,108.37 306.65,107.7C308.18,107.06 309.76,106.6 311.33,106.22C312.88,105.85 314.45,105.65 316.01,105.45C317.56,105.26 319.12,105.18 320.68,105.05C322.24,104.92 323.8,104.83 325.36,104.65C326.92,104.46 328.49,104.27 330.04,103.94C331.61,103.61 333.18,103.19 334.72,102.66C336.3,102.12 337.86,101.45 339.4,100.73C340.98,99.99 342.52,99.11 344.07,98.26C345.64,97.4 347.18,96.44 348.75,95.59C350.3,94.75 351.85,93.89 353.43,93.18C354.97,92.48 356.54,91.87 358.11,91.35C359.66,90.84 361.23,90.49 362.79,90.06C364.35,89.63 365.92,89.32 367.46,88.77C369.04,88.21 370.62,87.58 372.14,86.72C373.75,85.8 375.3,84.62 376.82,83.37C378.43,82.04 379.94,80.42 381.5,78.93C383.06,77.44 384.55,75.71 386.18,74.45C387.68,73.29 389.22,71.98 390.85,71.55C392.35,71.15 394.06,71.16 395.53,71.73C397.21,72.38 398.76,74.03 400.21,75.67C401.93,77.62 403.39,80.31 404.89,82.89C406.52,85.7 408.01,88.93 409.57,91.95C411.13,94.97 412.62,98.18 414.24,101.03C415.75,103.69 417.25,106.35 418.92,108.55C420.4,110.5 421.93,112.32 423.6,113.67C425.08,114.87 426.67,115.78 428.28,116.43C429.8,117.04 431.39,117.27 432.96,117.54C434.51,117.81 436.08,117.82 437.63,118.06C439.19,118.3 440.77,118.52 442.31,119C443.9,119.49 445.47,120.17 446.99,120.99C448.59,121.86 450.14,122.98 451.67,124.12C453.26,125.31 454.8,126.69 456.35,128C457.91,129.32 459.44,130.74 461.02,132.02C462.56,133.27 464.11,134.52 465.7,135.6C467.23,136.64 468.79,137.6 470.38,138.41C471.91,139.19 473.48,139.84 475.06,140.39C476.6,140.93 478.17,141.32 479.74,141.68C481.29,142.03 482.86,142.28 484.42,142.53C485.97,142.78 487.53,142.95 489.09,143.16C490.65,143.37 492.21,143.55 493.77,143.78C495.33,144.01 496.89,144.25 498.45,144.52C500.01,144.8 501.57,145.1 503.13,145.43C504.69,145.76 506.25,146.13 507.81,146.49C509.37,146.85 510.92,147.23 512.48,147.58C514.04,147.93 515.6,148.28 517.16,148.59C518.72,148.9 520.28,149.18 521.84,149.43C523.4,149.67 524.96,149.88 526.52,150.06C528.08,150.24 529.64,150.37 531.2,150.49C532.76,150.6 534.31,150.69 535.87,150.75C537.43,150.82 538.99,150.85 540.55,150.88C542.11,150.91 543.67,150.92 545.23,150.92C546.79,150.92 548.35,150.92 549.91,150.9C551.47,150.88 553.03,150.86 554.59,150.82C556.15,150.79 557.7,150.73 559.26,150.69C560.82,150.64 562.38,150.6 563.94,150.55C565.5,150.51 567.06,150.46 568.62,150.42C570.18,150.38 571.74,150.35 573.3,150.33C574.86,150.31 576.42,150.29 577.98,150.3C579.54,150.31 581.09,150.33 582.65,150.36C584.21,150.39 585.77,150.43 587.33,150.47C588.89,150.51 590.45,150.56 592.01,150.61C593.57,150.66 595.13,150.71 596.69,150.75C598.25,150.79 599.81,150.83 601.37,150.86C602.93,150.89 604.48,150.92 606.04,150.94Q607.6,150.96 610.72,151L610.72,151.05" style="vector-effect: none; stroke-width: 2px; stroke: rgb(124, 156, 48); stroke-opacity: 1; fill: rgb(155, 195, 60); fill-opacity: 0.5;"/><path class="meanline" d="M337.51,101.57843780517578V151.05" style="fill: none; vector-effect: none; stroke-width: 2px; stroke-dasharray: 4px, 2px; stroke: rgb(124, 156, 48); stroke-opacity: 1;"/></g><g class="trace violins" style="opacity: 1;"><path class="violin" d="M208.49,119.25L208.49,118.81Q213.11,118.55 215.41,118.35C217.72,118.14 220.03,117.9 222.33,117.58C224.64,117.26 226.95,116.88 229.25,116.43C231.56,115.98 233.87,115.44 236.17,114.87C238.48,114.3 240.79,113.65 243.09,112.99C245.4,112.33 247.7,111.6 250.01,110.89C252.32,110.18 254.62,109.45 256.93,108.72C259.24,107.99 261.54,107.26 263.85,106.52C266.16,105.78 268.47,105.05 270.77,104.29C273.08,103.53 275.39,102.76 277.69,101.97C280,101.18 282.31,100.37 284.61,99.55C286.92,98.73 289.23,97.9 291.53,97.05C293.84,96.2 296.15,95.36 298.45,94.47C300.76,93.57 303.08,92.69 305.37,91.68C307.69,90.65 310.02,89.6 312.29,88.35C314.63,87.06 316.95,85.66 319.21,84.05C321.57,82.37 323.88,80.48 326.13,78.44C328.5,76.3 330.78,73.91 333.05,71.47C335.4,68.95 337.67,66.2 339.97,63.53C342.28,60.84 344.55,58.01 346.89,55.41C349.16,52.88 351.42,50.29 353.81,48.11C356.05,46.06 358.32,44.05 360.73,42.63C362.95,41.32 365.3,40.19 367.65,39.75C369.91,39.33 372.32,39.4 374.57,39.95C376.94,40.53 379.28,41.83 381.49,43.33C383.92,44.98 386.19,47.26 388.41,49.62C390.82,52.18 393.08,55.2 395.33,58.22C397.69,61.38 399.95,64.84 402.25,68.2C404.57,71.59 406.83,75.14 409.17,78.47C411.44,81.7 413.71,84.98 416.09,87.9C418.33,90.64 420.6,93.32 423.01,95.53C425.23,97.56 427.52,99.43 429.93,100.76C432.15,101.99 434.5,102.92 436.85,103.39C439.12,103.84 441.48,103.86 443.77,103.61C446.1,103.35 448.42,102.65 450.69,101.83C453.04,100.98 455.34,99.78 457.61,98.54C459.95,97.26 462.24,95.75 464.53,94.24C466.86,92.71 469.14,91.01 471.45,89.41C473.76,87.82 476.04,86.13 478.38,84.67C480.66,83.25 482.94,81.81 485.3,80.75C487.56,79.74 489.88,78.83 492.22,78.41C494.5,78 496.86,77.91 499.14,78.21C501.47,78.52 503.81,79.31 506.06,80.29C508.43,81.32 510.72,82.81 512.98,84.32C515.34,85.89 517.61,87.77 519.9,89.56C522.22,91.37 524.49,93.33 526.82,95.11C529.11,96.86 531.39,98.63 533.74,100.14C536.01,101.6 538.31,102.98 540.66,104.05C542.92,105.08 545.24,105.94 547.58,106.49C549.86,107.03 552.19,107.32 554.5,107.37C556.8,107.42 559.13,107.18 561.42,106.77C563.75,106.36 566.05,105.65 568.34,104.89C570.67,104.11 572.96,103.11 575.26,102.14C577.58,101.16 579.87,100.02 582.18,99.01C584.48,98 586.77,96.94 589.1,96.09C591.39,95.25 593.69,94.46 596.02,93.93C598.31,93.4 600.63,93.04 602.94,92.89C605.24,92.74 607.56,92.82 609.86,93.02C612.17,93.22 614.48,93.66 616.78,94.11C619.1,94.56 621.4,95.18 623.7,95.74C626.01,96.3 628.31,96.92 630.62,97.47C632.92,98.02 635.23,98.55 637.54,99.06C639.84,99.57 642.15,100.02 644.46,100.51C646.77,101.01 649.08,101.47 651.38,102.03C653.69,102.59 656,103.2 658.3,103.89C660.62,104.59 662.92,105.37 665.22,106.2C667.54,107.03 669.84,107.97 672.14,108.87C674.45,109.77 676.75,110.74 679.06,111.61C681.36,112.48 683.66,113.34 685.98,114.08C688.27,114.82 690.58,115.49 692.9,116.06C695.2,116.62 697.51,117.08 699.82,117.46C702.12,117.84 704.43,118.11 706.74,118.34Q709.04,118.57 713.66,118.83L713.66,119.25" style="vector-effect: none; stroke-width: 2px; stroke: rgb(48, 156, 151); stroke-opacity: 1; fill: rgb(60, 195, 188); fill-opacity: 0.5;"/><path class="meanline" d="M435.85,103.16273498535156V119.25" style="fill: none; vector-effect: none; stroke-width: 2px; stroke-dasharray: 4px, 2px; stroke: rgb(48, 156, 151); stroke-opacity: 1;"/></g><g class="trace violins" style="opacity: 1;"><path class="violin" d="M332.3,87.45L332.3,86.75Q336.7,86.31 338.88,85.91C341.08,85.5 343.29,85.02 345.46,84.32C347.68,83.6 349.9,82.73 352.04,81.61C354.29,80.44 356.49,79.04 358.62,77.41C360.89,75.67 363.08,73.63 365.2,71.43C367.47,69.08 369.64,66.41 371.78,63.66C374.04,60.75 376.2,57.57 378.36,54.38C380.59,51.08 382.75,47.59 384.94,44.18C387.14,40.75 389.3,37.21 391.52,33.86C393.68,30.6 395.84,27.31 398.1,24.32C400.23,21.5 402.38,18.71 404.68,16.38C406.79,14.24 408.95,12.19 411.26,10.76C413.36,9.46 415.6,8.36 417.84,7.95C419.99,7.56 422.28,7.67 424.42,8.22C426.68,8.8 428.9,10.08 431,11.49C433.3,13.03 435.45,15.15 437.58,17.28C439.85,19.55 442,22.19 444.16,24.78C446.38,27.44 448.54,30.3 450.74,33.03C452.93,35.74 455.09,38.52 457.32,41.11C459.48,43.62 461.65,46.12 463.9,48.36C466.04,50.5 468.22,52.55 470.48,54.3C472.61,55.95 474.8,57.47 477.06,58.63C479.2,59.73 481.41,60.63 483.64,61.16C485.8,61.68 488.03,61.9 490.22,61.84C492.42,61.78 494.64,61.36 496.8,60.78C499.02,60.19 501.22,59.27 503.38,58.3C505.6,57.31 507.78,56.07 509.96,54.87C512.17,53.66 514.34,52.31 516.54,51.08C518.73,49.86 520.9,48.6 523.12,47.52C525.29,46.46 527.48,45.47 529.7,44.63C531.87,43.81 534.08,43.14 536.28,42.51C538.46,41.89 540.67,41.43 542.86,40.88C545.05,40.32 547.26,39.85 549.44,39.18C551.65,38.5 553.85,37.75 556.02,36.82C558.24,35.87 560.43,34.72 562.6,33.53C564.82,32.31 566.98,30.89 569.18,29.58C571.37,28.28 573.53,26.84 575.76,25.71C577.92,24.61 580.11,23.51 582.34,22.86C584.49,22.23 586.72,21.83 588.92,21.79C591.11,21.75 593.33,22.13 595.5,22.63C597.72,23.14 599.89,24.06 602.08,24.84C604.28,25.63 606.45,26.65 608.66,27.33C610.83,28 613.03,28.67 615.24,28.92C617.42,29.17 619.64,29.15 621.82,28.87C624.03,28.58 626.23,27.89 628.4,27.18C630.62,26.45 632.78,25.39 634.98,24.52C637.17,23.65 639.34,22.64 641.56,21.94C643.73,21.26 645.93,20.64 648.14,20.36C650.32,20.09 652.54,20.07 654.72,20.28C656.93,20.5 659.13,21.02 661.3,21.67C663.52,22.33 665.71,23.25 667.88,24.24C670.1,25.25 672.3,26.43 674.46,27.69C676.68,28.99 678.88,30.41 681.04,31.95C683.27,33.54 685.47,35.25 687.62,37.09C689.86,39 692.04,41.07 694.2,43.22C696.43,45.44 698.61,47.82 700.78,50.21C702.99,52.64 705.16,55.19 707.36,57.67C709.55,60.14 711.72,62.68 713.94,65.04C716.1,67.34 718.28,69.62 720.52,71.67C722.67,73.63 724.85,75.5 727.1,77.12C729.24,78.66 731.44,80.04 733.68,81.2C735.83,82.31 738.04,83.21 740.26,83.96C742.43,84.69 744.63,85.22 746.84,85.66C749.02,86.1 751.22,86.37 753.42,86.61Q755.61,86.85 760,87.09L760,87.45" style="vector-effect: none; stroke-width: 2px; stroke: rgb(133, 41, 163); stroke-opacity: 1; fill: rgb(166, 51, 204); fill-opacity: 0.5;"/><path class="meanline" d="M543.92,40.61567687988281V87.45" style="fill: none; vector-effect: none; stroke-width: 2px; stroke-dasharray: 4px, 2px; stroke: rgb(133, 41, 163); stroke-opacity: 1;"/></g></g></g><g class="overplot"/><path class="xlines-above crisp" d="M0,0" style="fill: none;"/><path class="ylines-above crisp" d="M0,0" style="fill: none;"/><g class="overlines-above"/><g class="xaxislayer-above"><g class="xtick"><text text-anchor="middle" x="0" y="172" transform="translate(51.91,0)" style="font-family: 'Open Sans', verdana, arial, sans-serif; font-size: 12px; fill: rgb(242, 245, 250); fill-opacity: 1; white-space: pre; opacity: 1;">0</text></g><g class="xtick"><text text-anchor="middle" x="0" y="172" style="font-family: 'Open Sans', verdana, arial, sans-serif; font-size: 12px; fill: rgb(242, 245, 250); fill-opacity: 1; white-space: pre; opacity: 1;" transform="translate(132.93,0)">20</text></g><g class="xtick"><text text-anchor="middle" x="0" y="172" style="font-family: 'Open Sans', verdana, arial, sans-serif; font-size: 12px; fill: rgb(242, 245, 250); fill-opacity: 1; white-space: pre; opacity: 1;" transform="translate(213.95,0)">40</text></g><g class="xtick"><text text-anchor="middle" x="0" y="172" style="font-family: 'Open Sans', verdana, arial, sans-serif; font-size: 12px; fill: rgb(242, 245, 250); fill-opacity: 1; white-space: pre; opacity: 1;" transform="translate(294.98,0)">60</text></g><g class="xtick"><text text-anchor="middle" x="0" y="172" style="font-family: 'Open Sans', verdana, arial, sans-serif; font-size: 12px; fill: rgb(242, 245, 250); fill-opacity: 1; white-space: pre; opacity: 1;" transform="translate(376,0)">80</text></g><g class="xtick"><text text-anchor="middle" x="0" y="172" style="font-family: 'Open Sans', verdana, arial, sans-serif; font-size: 12px; fill: rgb(242, 245, 250); fill-opacity: 1; white-space: pre; opacity: 1;" transform="translate(457.02,0)">100</text></g><g class="xtick"><text text-anchor="middle" x="0" y="172" style="font-family: 'Open Sans', verdana, arial, sans-serif; font-size: 12px; fill: rgb(242, 245, 250); fill-opacity: 1; white-space: pre; opacity: 1;" transform="translate(538.05,0)">120</text></g><g class="xtick"><text text-anchor="middle" x="0" y="172" style="font-family: 'Open Sans', verdana, arial, sans-serif; font-size: 12px; fill: rgb(242, 245, 250); fill-opacity: 1; white-space: pre; opacity: 1;" transform="translate(619.07,0)">140</text></g><g class="xtick"><text text-anchor="middle" x="0" y="172" style="font-family: 'Open Sans', verdana, arial, sans-serif; font-size: 12px; fill: rgb(242, 245, 250); fill-opacity: 1; white-space: pre; opacity: 1;" transform="translate(700.09,0)">160</text></g><g class="xtick"><text text-anchor="middle" x="0" y="172" style="font-family: 'Open Sans', verdana, arial, sans-serif; font-size: 12px; fill: rgb(242, 245, 250); fill-opacity: 1; white-space: pre; opacity: 1;" transform="translate(781.11,0)">180</text></g></g><g class="yaxislayer-above"/><g class="overaxes-above"/></g></g><g class="polarlayer"/><g class="smithlayer"/><g class="ternarylayer"/><g class="geolayer"/><g class="funnelarealayer"/><g class="pielayer"/><g class="iciclelayer"/><g class="treemaplayer"/><g class="sunburstlayer"/><g class="glimages"/><defs id="topdefs-b908ba"><g class="clips"/></defs><g class="layer-above"><g class="imagelayer"/><g class="shapelayer"/></g><g class="infolayer"><g class="g-gtitle"/><g class="g-xtitle" transform="translate(0,-2.3000000000000114)"><text class="xtitle" x="400" y="199.3" text-anchor="middle" style="font-family: 'Open Sans', verdana, arial, sans-serif; font-size: 14px; fill: rgb(242, 245, 250); opacity: 1; white-space: pre;">Max Energy</text></g><g class="g-ytitle"/></g></svg>