<svg class="main-svg" xmlns="http://www.w3.org/2000/svg" xmlns:xlink="http://www.w3.org/1999/xlink" width="800" height="200" style="" viewBox="0 0 800 200"><rect x="0" y="0" width="800" height="200" style="fill: rgb(0, 0, 0); fill-opacity: 0;"/><defs id="defs-183374"><g class="clips"><clipPath id="clip183374xyplot" class="plotclip"><rect width="800" height="159"/></clipPath><clipPath class="axesclip" id="clip183374x"><rect x="0" y="0" width="800" height="200"/></clipPath><clipPath class="axesclip" id="clip183374y"><rect x="0" y="0" width="800" height="159"/></clipPath><clipPath class="axesclip" id="clip183374xy"><rect x="0" y="0" width="800" height="159"/></clipPath></g><g class="gradients"/><g class="patterns"/></defs><g class="bglayer"><rect class="bg" x="0" y="0" width="800" height="159" style="fill: rgb(0, 0, 0); fill-opacity: 0; stroke-width: 0;"/></g><g class="layer-below"><g class="imagelayer"/><g class="shapelayer"/></g><g class="cartesianlayer"><g class="subplot xy"><g class="layer-subplot"><g class="shapelayer"/><g class="imagelayer"/></g><g class="minor-gridlayer"><g class="x"/><g class="y"/></g><g class="gridlayer"><g class="x"><path class="xgrid crisp" transform="translate(187.79,0)" d="M0,0v159" style="stroke: rgb(40, 52, 66); stroke-opacity: 1; stroke-width: 1px;"/><path class="xgrid crisp" transform="translate(322.81,0)" d="M0,0v159" style="stroke: rgb(40, 52, 66); stroke-opacity: 1; stroke-width: 1px;"/><path class="xgrid crisp" transform="translate(457.82,0)" d="M0,0v159" style="stroke: rgb(40, 52, 66); stroke-opacity: 1; stroke-width: 1px;"/><path class="xgrid crisp" transform="translate(592.84,0)" d="M0,0v159" style="stroke: rgb(40, 52, 66); stroke-opacity: 1; stroke-width: 1px;"/><path class="xgrid crisp" transform="translate(727.85,0)" d="M0,0v159" style="stroke: rgb(40, 52, 66); stroke-opacity: 1; stroke-width: 1px;"/></g><g class="y"/></g><g class="zerolinelayer"><path class="xzl zl crisp" transform="translate(52.78,0)" d="M0,0v159" style="stroke: rgb(40, 52, 66); stroke-opacity: 1; stroke-width: 2px;"/></g><g class="layer-between"><g class="shapelayer"/><g class="imagelayer"/></g><path class="xlines-below"/><path class="ylines-below"/><g class="overlines-below"/><g class="xaxislayer-below"/><g class="yaxislayer-below"/><g class="overaxes-below"/><g class="plot" transform="" clip-path="url(#clip183374xyplot)"><g class="violinlayer mlayer"><g class="trace violins" style="opacity: 1;"><path class="violin" d="M40,151.05L40,150.83Q41.72,150.69 42.58,150.57C43.44,150.45 44.3,150.32 45.15,150.13C46.01,149.94 46.88,149.71 47.73,149.44C48.59,149.16 49.45,148.83 50.3,148.47C51.17,148.11 52.03,147.69 52.88,147.27C53.74,146.85 54.59,146.38 55.45,145.94C56.31,145.5 57.16,145.04 58.03,144.63C58.88,144.23 59.74,143.84 60.61,143.51C61.46,143.19 62.32,142.9 63.18,142.68C64.03,142.46 64.9,142.3 65.76,142.18C66.61,142.06 67.47,142 68.33,141.95C69.19,141.9 70.05,141.89 70.91,141.86C71.77,141.83 72.63,141.82 73.49,141.76C74.35,141.7 75.21,141.61 76.06,141.48C76.92,141.34 77.79,141.17 78.64,140.95C79.5,140.72 80.36,140.44 81.21,140.13C82.08,139.82 82.93,139.45 83.79,139.08C84.65,138.71 85.5,138.31 86.36,137.93C87.22,137.55 88.08,137.15 88.94,136.8C89.8,136.45 90.65,136.11 91.52,135.84C92.37,135.57 93.23,135.34 94.09,135.18C94.94,135.02 95.81,134.92 96.67,134.89C97.53,134.86 98.39,134.91 99.24,135C100.1,135.09 100.97,135.27 101.82,135.46C102.68,135.66 103.53,135.92 104.39,136.17C105.25,136.43 106.11,136.71 106.97,136.99C107.83,137.27 108.69,137.56 109.55,137.83C110.41,138.1 111.26,138.36 112.12,138.62C112.98,138.87 113.84,139.12 114.7,139.36C115.56,139.6 116.41,139.83 117.27,140.07C118.13,140.31 118.99,140.56 119.85,140.82C120.71,141.08 121.56,141.35 122.42,141.63C123.28,141.91 124.14,142.22 125,142.51C125.86,142.8 126.72,143.11 127.58,143.39C128.44,143.67 129.29,143.96 130.15,144.2C131.01,144.44 131.87,144.67 132.73,144.84C133.58,145.01 134.44,145.15 135.3,145.23C136.16,145.31 137.02,145.34 137.88,145.32C138.74,145.3 139.6,145.23 140.46,145.13C141.32,145.03 142.17,144.86 143.03,144.71C143.89,144.55 144.75,144.35 145.61,144.2C146.47,144.05 147.32,143.89 148.18,143.8C149.04,143.71 149.9,143.66 150.76,143.68C151.62,143.7 152.48,143.8 153.33,143.95C154.19,144.1 155.05,144.33 155.91,144.57C156.77,144.81 157.63,145.12 158.49,145.38C159.35,145.64 160.2,145.93 161.06,146.12C161.91,146.31 162.78,146.47 163.64,146.54C164.49,146.61 165.36,146.6 166.21,146.52C167.07,146.44 167.94,146.25 168.79,146.06C169.65,145.86 170.5,145.58 171.36,145.35C172.22,145.11 173.08,144.84 173.94,144.65C174.8,144.46 175.66,144.28 176.52,144.21C177.37,144.14 178.24,144.13 179.09,144.2C179.95,144.27 180.82,144.44 181.67,144.65C182.54,144.87 183.39,145.18 184.24,145.5C185.11,145.83 185.96,146.22 186.82,146.59C187.68,146.96 188.53,147.37 189.39,147.73C190.25,148.09 191.1,148.46 191.97,148.77C192.82,149.08 193.69,149.37 194.55,149.61C195.4,149.85 196.26,150.04 197.12,150.21C197.98,150.37 198.84,150.5 199.7,150.6C200.56,150.7 201.41,150.77 202.27,150.83C203.13,150.89 203.99,150.93 204.85,150.96C205.71,150.99 206.57,151 207.43,151.01C208.29,151.02 209.14,151.03 210,151.03C210.86,151.03 211.72,151.03 212.58,151.03C213.44,151.03 214.29,151.03 215.15,151.02C216.01,151.01 216.87,150.99 217.73,150.96C218.59,150.93 219.44,150.91 220.3,150.85C221.16,150.79 222.02,150.72 222.88,150.6C223.74,150.48 224.61,150.35 225.46,150.15C226.32,149.95 227.18,149.7 228.03,149.38C228.9,149.05 229.77,148.66 230.61,148.2C231.48,147.72 232.34,147.16 233.18,146.55C234.06,145.92 234.91,145.2 235.76,144.46C236.63,143.7 237.48,142.86 238.33,142.04C239.19,141.21 240.04,140.33 240.91,139.5C241.76,138.68 242.62,137.85 243.49,137.09C244.34,136.35 245.19,135.63 246.06,134.97C246.91,134.33 247.78,133.74 248.64,133.16C249.49,132.59 250.36,132.08 251.21,131.5C252.08,130.91 252.96,130.34 253.79,129.64C254.68,128.89 255.54,128.08 256.36,127.12C257.27,126.06 258.13,124.84 258.94,123.5C259.86,121.99 260.7,120.28 261.52,118.48C262.43,116.48 263.26,114.27 264.09,112.01C264.98,109.57 265.83,106.94 266.67,104.33C267.54,101.62 268.38,98.78 269.24,96.04C270.09,93.33 270.93,90.56 271.82,87.99C272.65,85.58 273.48,83.17 274.4,81.06C275.21,79.2 276.02,77.38 276.97,75.93C277.77,74.71 278.61,73.58 279.55,72.83C280.35,72.2 281.24,71.74 282.12,71.55C282.96,71.37 283.86,71.47 284.7,71.65C285.57,71.84 286.44,72.25 287.27,72.71C288.16,73.2 289.02,73.85 289.85,74.57C290.75,75.36 291.61,76.27 292.43,77.29C293.33,78.41 294.18,79.69 295,81.05C295.9,82.55 296.75,84.22 297.58,85.93C298.47,87.77 299.31,89.76 300.15,91.75C301.02,93.81 301.87,95.97 302.73,98.07C303.59,100.17 304.43,102.31 305.3,104.35C306.14,106.32 307,108.28 307.88,110.13C308.72,111.88 309.57,113.58 310.46,115.18C311.29,116.69 312.15,118.12 313.03,119.49C313.87,120.78 314.73,122.02 315.61,123.18C316.45,124.28 317.29,125.33 318.18,126.29C319.01,127.19 319.87,128.06 320.76,128.78C321.59,129.45 322.44,130.06 323.33,130.5C324.16,130.91 325.04,131.21 325.91,131.39C326.76,131.56 327.63,131.57 328.49,131.57C329.35,131.57 330.2,131.43 331.06,131.37C331.92,131.31 332.78,131.2 333.64,131.22C334.5,131.24 335.36,131.32 336.21,131.51C337.08,131.71 337.95,132.04 338.79,132.42C339.67,132.81 340.52,133.34 341.37,133.84C342.24,134.35 343.07,134.96 343.94,135.47C344.79,135.97 345.64,136.5 346.52,136.88C347.36,137.25 348.22,137.57 349.09,137.74C349.94,137.9 350.81,137.94 351.67,137.88C352.53,137.82 353.39,137.62 354.24,137.4C355.11,137.18 355.96,136.84 356.82,136.57C357.68,136.31 358.53,135.99 359.4,135.81C360.25,135.63 361.11,135.49 361.97,135.48C362.83,135.47 363.7,135.58 364.55,135.78C365.42,135.98 366.27,136.34 367.12,136.71C367.99,137.09 368.85,137.59 369.7,138.06C370.56,138.54 371.41,139.07 372.27,139.55C373.13,140.03 373.98,140.51 374.85,140.96C375.7,141.4 376.57,141.81 377.43,142.21C378.28,142.61 379.14,142.97 380,143.35C380.86,143.73 381.72,144.09 382.58,144.48C383.44,144.87 384.29,145.28 385.15,145.68C386.01,146.09 386.87,146.51 387.73,146.91C388.59,147.31 389.45,147.73 390.31,148.1C391.16,148.46 392.02,148.81 392.88,149.11C393.73,149.4 394.6,149.67 395.46,149.88C396.31,150.09 397.17,150.24 398.03,150.37C398.89,150.49 399.75,150.58 400.61,150.63C401.47,150.68 402.32,150.7 403.18,150.69C404.04,150.68 404.9,150.64 405.76,150.59C406.62,150.54 407.48,150.46 408.34,150.37C409.2,150.29 410.05,150.18 410.91,150.08C411.77,149.98 412.63,149.86 413.49,149.76C414.35,149.66 415.2,149.56 416.06,149.49C416.92,149.42 417.78,149.36 418.64,149.33C419.5,149.3 420.35,149.3 421.21,149.33C422.07,149.36 422.93,149.42 423.79,149.49C424.65,149.56 425.51,149.66 426.37,149.76C427.23,149.86 428.08,149.99 428.94,150.09C429.8,150.2 430.66,150.3 431.52,150.39C432.38,150.48 433.23,150.57 434.09,150.63C434.95,150.7 435.81,150.75 436.67,150.78C437.53,150.81 438.38,150.83 439.24,150.83C440.1,150.83 440.96,150.82 441.82,150.8C442.68,150.78 443.54,150.74 444.4,150.68C445.26,150.63 446.11,150.55 446.97,150.47C447.83,150.39 448.69,150.29 449.55,150.18C450.41,150.07 451.26,149.95 452.12,149.82C452.98,149.69 453.84,149.53 454.7,149.38C455.56,149.23 456.42,149.07 457.28,148.92C458.14,148.77 458.99,148.6 459.85,148.46C460.71,148.32 461.57,148.19 462.43,148.1C463.29,148.01 464.14,147.94 465,147.92C465.86,147.9 466.72,147.91 467.58,147.97C468.44,148.03 469.29,148.13 470.15,148.26C471.01,148.39 471.87,148.56 472.73,148.73C473.59,148.9 474.45,149.11 475.31,149.29C476.17,149.47 477.02,149.66 477.88,149.83C478.74,149.99 479.6,150.15 480.46,150.28C481.32,150.41 482.17,150.52 483.03,150.61C483.89,150.7 484.75,150.76 485.61,150.82C486.47,150.87 487.32,150.91 488.18,150.94C489.04,150.97 489.9,150.98 490.76,151C491.62,151.01 492.48,151.02 493.34,151.03C494.2,151.04 495.05,151.04 495.91,151.04C496.77,151.04 497.63,151.05 498.49,151.05C499.35,151.05 500.2,151.05 501.06,151.05C501.92,151.05 502.78,151.05 503.64,151.05C504.5,151.05 505.35,151.05 506.21,151.05C507.07,151.05 507.93,151.05 508.79,151.05C509.65,151.05 510.51,151.05 511.37,151.05C512.23,151.05 513.08,151.05 513.94,151.05C514.8,151.05 515.66,151.05 516.52,151.05C517.38,151.05 518.23,151.05 519.09,151.05C519.95,151.05 520.81,151.05 521.67,151.05C522.53,151.05 523.39,151.05 524.25,151.05C525.11,151.05 525.96,151.05 526.82,151.05C527.68,151.05 528.54,151.05 529.4,151.05C530.26,151.05 531.11,151.05 531.97,151.05C532.83,151.05 533.69,151.05 534.55,151.05C535.41,151.05 536.26,151.05 537.12,151.05C537.98,151.05 538.84,151.05 539.7,151.05C540.56,151.05 541.42,151.05 542.28,151.05C543.14,151.05 543.99,151.05 544.85,151.05C545.71,151.05 546.57,151.05 547.43,151.05C548.29,151.05 549.14,151.05 550,151.05C550.86,151.05 551.72,151.05 552.58,151.05C553.44,151.05 554.29,151.05 555.15,151.05C556.01,151.05 556.87,151.05 557.73,151.05C558.59,151.05 559.45,151.05 560.31,151.05C561.17,151.05 562.02,151.05 562.88,151.05C563.74,151.05 564.6,151.05 565.46,151.05C566.32,151.05 567.17,151.05 568.03,151.05C568.89,151.05 569.75,151.05 570.61,151.05C571.47,151.05 572.32,151.05 573.18,151.05C574.04,151.05 574.9,151.05 575.76,151.05C576.62,151.05 577.48,151.05 578.34,151.05C579.2,151.05 580.05,151.05 580.91,151.05C581.77,151.05 582.63,151.05 583.49,151.05C584.35,151.05 585.2,151.05 586.06,151.05C586.92,151.05 587.78,151.05 588.64,151.05C589.5,151.05 590.36,151.05 591.22,151.05C592.08,151.05 592.93,151.04 593.79,151.04C594.65,151.04 595.51,151.04 596.37,151.03C597.23,151.03 598.08,151.02 598.94,151.01C599.8,151 600.66,150.99 601.52,150.97C602.38,150.95 603.23,150.92 604.09,150.89C604.95,150.86 605.81,150.82 606.67,150.78C607.53,150.74 608.39,150.7 609.25,150.65C610.11,150.6 610.96,150.54 611.82,150.5C612.68,150.45 613.54,150.41 614.4,150.38C615.26,150.35 616.11,150.32 616.97,150.31C617.83,150.3 618.69,150.3 619.55,150.32C620.41,150.34 621.26,150.37 622.12,150.4C622.98,150.44 623.84,150.48 624.7,150.53C625.56,150.58 626.42,150.63 627.28,150.68C628.14,150.73 628.99,150.77 629.85,150.81C630.71,150.85 631.57,150.88 632.43,150.91C633.29,150.94 634.14,150.95 635,150.97C635.86,150.99 636.72,151 637.58,151.01C638.44,151.02 639.29,151.03 640.15,151.03C641.01,151.04 641.87,151.04 642.73,151.04C643.59,151.04 644.45,151.05 645.31,151.05C646.17,151.05 647.02,151.05 647.88,151.05C648.74,151.05 649.6,151.05 650.46,151.05C651.32,151.05 652.17,151.05 653.03,151.05C653.89,151.05 654.75,151.05 655.61,151.05C656.47,151.05 657.33,151.04 658.19,151.04C659.05,151.04 659.9,151.04 660.76,151.03C661.62,151.02 662.48,151.02 663.34,151C664.2,150.99 665.05,150.97 665.91,150.94C666.77,150.91 667.63,150.88 668.49,150.83C669.35,150.78 670.2,150.72 671.06,150.64C671.92,150.56 672.78,150.46 673.64,150.35C674.5,150.24 675.36,150.1 676.22,149.96C677.08,149.82 677.93,149.66 678.79,149.51C679.65,149.36 680.51,149.19 681.37,149.05C682.23,148.91 683.08,148.76 683.94,148.66C684.8,148.56 685.66,148.48 686.52,148.44C687.38,148.4 688.23,148.38 689.09,148.41C689.95,148.44 690.81,148.51 691.67,148.6C692.53,148.69 693.39,148.82 694.25,148.95C695.11,149.08 695.96,149.25 696.82,149.4C697.68,149.55 698.54,149.72 699.4,149.86C700.26,150 701.11,150.14 701.97,150.26C702.83,150.38 703.69,150.48 704.55,150.57C705.41,150.66 706.26,150.73 707.12,150.79C707.98,150.85 708.84,150.89 709.7,150.92Q710.56,150.95 712.28,150.99L712.28,151.05" style="vector-effect: none; stroke-width: 2px; stroke: rgb(124, 156, 48); stroke-opacity: 1; fill: rgb(155, 195, 60); fill-opacity: 0.5;"/><path class="meanline" d="M267.57,101.4629135131836V151.05" style="fill: none; vector-effect: none; stroke-width: 2px; stroke-dasharray: 4px, 2px; stroke: rgb(124, 156, 48); stroke-opacity: 1;"/></g><g class="trace violins" style="opacity: 1;"><path class="violin" d="M102.99,119.25L102.99,118.55Q108.76,118.13 111.63,117.77C114.52,117.41 117.41,116.97 120.28,116.37C123.17,115.77 126.06,115.04 128.92,114.15C131.83,113.25 134.71,112.18 137.57,110.98C140.48,109.76 143.35,108.35 146.21,106.89C149.11,105.41 151.99,103.75 154.86,102.14C157.75,100.52 160.61,98.8 163.5,97.18C166.37,95.57 169.25,93.94 172.15,92.44C175.01,90.96 177.89,89.54 180.79,88.26C183.65,86.99 186.54,85.85 189.44,84.78C192.31,83.72 195.19,82.79 198.08,81.88C200.95,80.97 203.85,80.16 206.73,79.32C209.61,78.48 212.49,77.68 215.37,76.83C218.25,75.98 221.14,75.1 224.02,74.24C226.9,73.38 229.77,72.45 232.66,71.65C235.53,70.85 238.41,70.03 241.31,69.44C244.18,68.85 247.06,68.34 249.95,68.11C252.82,67.88 255.72,67.87 258.6,68.05C261.49,68.23 264.37,68.71 267.24,69.17C270.13,69.63 273,70.36 275.89,70.82C278.76,71.28 281.64,71.83 284.53,71.94C287.41,72.05 290.33,71.99 293.18,71.5C296.09,71 298.99,70.08 301.82,68.93C304.76,67.73 307.63,66.07 310.47,64.37C313.4,62.61 316.24,60.51 319.11,58.5C322.01,56.47 324.86,54.25 327.76,52.23C330.62,50.24 333.47,48.2 336.4,46.49C339.24,44.83 342.11,43.21 345.05,42.08C347.88,40.99 350.78,40.08 353.69,39.75C356.55,39.42 359.49,39.49 362.33,40.05C365.26,40.62 368.18,41.8 370.98,43.23C373.96,44.75 376.81,46.87 379.62,49.05C382.58,51.35 385.42,54.08 388.27,56.76C391.19,59.5 394.02,62.49 396.91,65.33C399.79,68.16 402.64,71.06 405.56,73.75C408.4,76.37 411.27,78.94 414.2,81.27C417.03,83.52 419.92,85.63 422.85,87.55C425.69,89.41 428.58,91.08 431.49,92.62C434.34,94.13 437.24,95.46 440.14,96.73C443,97.98 445.89,99.1 448.78,100.19C451.65,101.28 454.54,102.28 457.43,103.27C460.3,104.25 463.18,105.19 466.07,106.09C468.95,106.99 471.83,107.87 474.72,108.67C477.59,109.46 480.47,110.22 483.36,110.85C486.23,111.48 489.12,112.04 492.01,112.44C494.88,112.83 497.77,113.13 500.65,113.22C503.53,113.31 506.43,113.25 509.3,113C512.19,112.75 515.08,112.28 517.94,111.69C520.84,111.09 523.72,110.27 526.59,109.4C529.49,108.52 532.36,107.44 535.23,106.41C538.12,105.37 540.99,104.22 543.88,103.18C546.75,102.15 549.62,101.09 552.52,100.2C555.39,99.32 558.27,98.5 561.17,97.85C564.04,97.21 566.92,96.69 569.81,96.31C572.68,95.93 575.58,95.72 578.46,95.58C581.34,95.44 584.22,95.46 587.1,95.46C589.98,95.46 592.87,95.6 595.75,95.61C598.63,95.62 601.51,95.67 604.39,95.55C607.27,95.43 610.17,95.23 613.04,94.87C615.93,94.51 618.81,93.98 621.68,93.38C624.57,92.78 627.45,91.99 630.33,91.28C633.21,90.58 636.08,89.73 638.97,89.15C641.84,88.57 644.73,88 647.62,87.79C650.49,87.58 653.39,87.56 656.26,87.86C659.16,88.17 662.06,88.8 664.91,89.63C667.83,90.48 670.7,91.68 673.55,92.92C676.46,94.19 679.33,95.72 682.2,97.19C685.09,98.67 687.95,100.29 690.84,101.78C693.71,103.27 696.59,104.77 699.49,106.13C702.35,107.47 705.23,108.76 708.13,109.9C710.99,111.02 713.88,112.04 716.78,112.93C719.64,113.81 722.53,114.57 725.42,115.23C728.29,115.88 731.18,116.4 734.07,116.85C736.94,117.3 739.83,117.63 742.71,117.92C745.59,118.21 748.48,118.4 751.36,118.57Q754.24,118.74 760,118.93L760,119.25" style="vector-effect: none; stroke-width: 2px; stroke: rgb(48, 156, 151); stroke-opacity: 1; fill: rgb(60, 195, 188); fill-opacity: 0.5;"/><path class="meanline" d="M382.48,51.418540954589844V119.25" style="fill: none; vector-effect: none; stroke-width: 2px; stroke-dasharray: 4px, 2px; stroke: rgb(48, 156, 151); stroke-opacity: 1;"/></g><g class="trace violins" style="opacity: 1;"><path class="violin" d="M205.56,87.45L205.56,87.1Q210.79,86.88 213.4,86.7C216.02,86.52 218.63,86.3 221.24,86C223.86,85.69 226.47,85.34 229.08,84.87C231.7,84.4 234.32,83.84 236.92,83.18C239.55,82.51 242.16,81.75 244.76,80.88C247.39,80 250.01,79 252.6,77.91C255.23,76.8 257.85,75.58 260.44,74.28C263.07,72.96 265.69,71.53 268.28,70.02C270.92,68.49 273.53,66.86 276.12,65.16C278.75,63.44 281.36,61.61 283.96,59.75C286.59,57.87 289.2,55.9 291.8,53.92C294.42,51.92 297.03,49.85 299.64,47.81C302.25,45.77 304.86,43.69 307.48,41.66C310.09,39.64 312.69,37.62 315.32,35.67C317.92,33.74 320.53,31.85 323.16,30.03C325.76,28.23 328.37,26.48 331,24.78C333.6,23.1 336.22,21.46 338.84,19.87C341.44,18.29 344.05,16.72 346.68,15.27C349.27,13.84 351.87,12.39 354.52,11.24C357.1,10.13 359.71,9.01 362.36,8.46C364.94,7.93 367.62,7.61 370.2,7.95C372.85,8.3 375.53,9.27 378.04,10.6C380.78,12.05 383.37,14.28 385.89,16.57C388.62,19.04 391.15,22.11 393.73,25.02C396.38,28.01 398.91,31.33 401.57,34.3C404.14,37.17 406.69,40.14 409.41,42.57C411.93,44.83 414.53,46.97 417.25,48.51C419.77,49.93 422.43,51.02 425.09,51.64C427.66,52.24 430.32,52.35 432.93,52.28C435.55,52.21 438.17,51.7 440.77,51.23C443.39,50.75 446,50.02 448.61,49.42C451.22,48.83 453.83,48.14 456.45,47.66C459.05,47.19 461.67,46.75 464.29,46.56C466.9,46.37 469.52,46.33 472.13,46.49C474.75,46.65 477.37,47.06 479.97,47.54C482.6,48.03 485.2,48.76 487.81,49.42C490.43,50.08 493.03,50.91 495.65,51.52C498.25,52.12 500.86,52.75 503.49,53.04C506.09,53.33 508.73,53.45 511.33,53.26C513.95,53.07 516.58,52.55 519.17,51.89C521.81,51.22 524.41,50.18 527.01,49.23C529.63,48.28 532.22,47.08 534.85,46.18C537.44,45.29 540.05,44.36 542.69,43.87C545.28,43.39 547.92,43.11 550.53,43.22C553.15,43.33 555.79,43.85 558.37,44.53C561.02,45.23 563.61,46.34 566.21,47.38C568.84,48.44 571.43,49.75 574.05,50.84C576.65,51.92 579.25,53.07 581.89,53.91C584.48,54.73 587.1,55.42 589.73,55.86C592.33,56.29 594.95,56.47 597.57,56.52C600.18,56.57 602.8,56.36 605.41,56.18C608.03,56 610.64,55.66 613.25,55.42C615.86,55.18 618.47,54.91 621.09,54.76C623.7,54.61 626.32,54.52 628.93,54.51C631.54,54.5 634.16,54.58 636.77,54.67C639.39,54.76 642,54.92 644.62,55.07C647.23,55.22 649.85,55.38 652.46,55.58C655.07,55.78 657.69,55.98 660.3,56.29C662.92,56.61 665.54,56.95 668.14,57.47C670.77,58 673.39,58.64 675.98,59.45C678.62,60.28 681.23,61.29 683.82,62.42C686.46,63.57 689.07,64.93 691.66,66.31C694.29,67.71 696.89,69.26 699.5,70.74C702.11,72.22 704.71,73.77 707.34,75.18C709.94,76.57 712.54,77.94 715.18,79.13C717.77,80.3 720.38,81.36 723.02,82.26C725.61,83.14 728.23,83.87 730.86,84.48C733.46,85.08 736.08,85.53 738.7,85.9Q741.31,86.27 746.54,86.71L746.54,87.45" style="vector-effect: none; stroke-width: 2px; stroke: rgb(133, 41, 163); stroke-opacity: 1; fill: rgb(166, 51, 204); fill-opacity: 0.5;"/><path class="meanline" d="M459.34,47.162376403808594V87.45" style="fill: none; vector-effect: none; stroke-width: 2px; stroke-dasharray: 4px, 2px; stroke: rgb(133, 41, 163); stroke-opacity: 1;"/></g></g></g><g class="overplot"/><path class="xlines-above crisp" d="M0,0" style="fill: none;"/><path class="ylines-above crisp" d="M0,0" style="fill: none;"/><g class="overlines-above"/><g class="xaxislayer-above"><g class="xtick"><text text-anchor="middle" x="0" y="172" transform="translate(52.78,0)" style="font-family: 'Open Sans', verdana, arial, sans-serif; font-size: 12px; fill: rgb(242, 245, 250); fill-opacity: 1; white-space: pre; opacity: 1;">0</text></g><g class="xtick"><text text-anchor="middle" x="0" y="172" style="font-family: 'Open Sans', verdana, arial, sans-serif; font-size: 12px; fill: rgb(242, 245, 250); fill-opacity: 1; white-space: pre; opacity: 1;" transform="translate(187.79,0)">100</text></g><g class="xtick"><text text-anchor="middle" x="0" y="172" style="font-family: 'Open Sans', verdana, arial, sans-serif; font-size: 12px; fill: rgb(242, 245, 250); fill-opacity: 1; white-space: pre; opacity: 1;" transform="translate(322.81,0)">200</text></g><g class="xtick"><text text-anchor="middle" x="0" y="172" style="font-family: 'Open Sans', verdana, arial, sans-serif; font-size: 12px; fill: rgb(242, 245, 250); fill-opacity: 1; white-space: pre; opacity: 1;" transform="translate(457.82,0)">300</text></g><g class="xtick"><text text-anchor="middle" x="0" y="172" style="font-family: 'Open Sans', verdana, arial, sans-serif; font-size: 12px; fill: rgb(242, 245, 250); fill-opacity: 1; white-space: pre; opacity: 1;" transform="translate(592.84,0)">400</text></g><g class="xtick"><text text-anchor="middle" x="0" y="172" style="font-family: 'Open Sans', verdana, arial, sans-serif; font-size: 12px; fill: rgb(242, 245, 250); fill-opacity: 1; white-space: pre; opacity: 1;" transform="translate(727.85,0)">500</text></g></g><g class="yaxislayer-above"/><g class="overaxes-above"/></g></g><g class="polarlayer"/><g class="smithlayer"/><g class="ternarylayer"/><g class="geolayer"/><g class="funnelarealayer"/><g class="pielayer"/><g class="iciclelayer"/><g class="treemaplayer"/><g class="sunburstlayer"/><g class="glimages"/><defs id="topdefs-183374"><g class="clips"/></defs><g class="layer-above"><g class="imagelayer"/><g class="shapelayer"/></g><g class="infolayer"><g class="g-gtitle"/><g class="g-xtitle" transform="translate(0,-2.3000000000000114)"><text class="xtitle" x="400" y="199.3" text-anchor="middle" style="font-family: 'Open Sans', verdana, arial, sans-serif; font-size: 14px; fill: rgb(242, 245, 250); opacity: 1; white-space: pre;">Nkids</text></g><g class="g-ytitle"/></g></svg>