<svg class="main-svg" xmlns="http://www.w3.org/2000/svg" xmlns:xlink="http://www.w3.org/1999/xlink" width="800" height="200" style="" viewBox="0 0 800 200"><rect x="0" y="0" width="800" height="200" style="fill: rgb(0, 0, 0); fill-opacity: 0;"/><defs id="defs-26f638"><g class="clips"><clipPath id="clip26f638xyplot" class="plotclip"><rect width="794" height="159"/></clipPath><clipPath class="axesclip" id="clip26f638x"><rect x="0" y="0" width="794" height="200"/></clipPath><clipPath class="axesclip" id="clip26f638y"><rect x="0" y="0" width="800" height="159"/></clipPath><clipPath class="axesclip" id="clip26f638xy"><rect x="0" y="0" width="794" height="159"/></clipPath></g><g class="gradients"/><g class="patterns"/></defs><g class="bglayer"><rect class="bg" x="0" y="0" width="794" height="159" style="fill: rgb(0, 0, 0); fill-opacity: 0; stroke-width: 0;"/></g><g class="layer-below"><g class="imagelayer"/><g class="shapelayer"/></g><g class="cartesianlayer"><g class="subplot xy"><g class="layer-subplot"><g class="shapelayer"/><g class="imagelayer"/></g><g class="minor-gridlayer"><g class="x"/><g class="y"/></g><g class="gridlayer"><g class="x"><path class="xgrid crisp" transform="translate(188.38,0)" d="M0,0v159" style="stroke: rgb(40, 52, 66); stroke-opacity: 1; stroke-width: 1px;"/><path class="xgrid crisp" transform="translate(309.24,0)" d="M0,0v159" style="stroke: rgb(40, 52, 66); stroke-opacity: 1; stroke-width: 1px;"/><path class="xgrid crisp" transform="translate(430.09,0)" d="M0,0v159" style="stroke: rgb(40, 52, 66); stroke-opacity: 1; stroke-width: 1px;"/><path class="xgrid crisp" transform="translate(550.95,0)" d="M0,0v159" style="stroke: rgb(40, 52, 66); stroke-opacity: 1; stroke-width: 1px;"/><path class="xgrid crisp" transform="translate(671.8,0)" d="M0,0v159" style="stroke: rgb(40, 52, 66); stroke-opacity: 1; stroke-width: 1px;"/><path class="xgrid crisp" transform="translate(792.65,0)" d="M0,0v159" style="stroke: rgb(40, 52, 66); stroke-opacity: 1; stroke-width: 1px;"/></g><g class="y"/></g><g class="zerolinelayer"><path class="xzl zl crisp" transform="translate(67.53,0)" d="M0,0v159" style="stroke: rgb(40, 52, 66); stroke-opacity: 1; stroke-width: 2px;"/></g><g class="layer-between"><g class="shapelayer"/><g class="imagelayer"/></g><path class="xlines-below"/><path class="ylines-below"/><g class="overlines-below"/><g class="xaxislayer-below"/><g class="yaxislayer-below"/><g class="overaxes-below"/><g class="plot" transform="" clip-path="url(#clip26f638xyplot)"><g class="violinlayer mlayer"><g class="trace violins" style="opacity: 1;"><path class="violin" d="M39.7,151.05L39.7,143.25Q42.86,139.02 44.29,136.48C45.95,133.54 47.43,130.08 48.89,126.51C50.51,122.53 51.98,118.07 53.48,113.66C55.05,109.04 56.51,104.06 58.07,99.39C59.58,94.86 61.02,90.11 62.67,86.04C64.11,82.46 65.48,78.74 67.26,76.18C68.64,74.2 70.17,72.05 71.85,71.55C73.28,71.12 75.05,71.67 76.45,72.51C78.18,73.54 79.6,75.91 81.04,77.98C82.68,80.35 84.12,83.3 85.63,86.06C87.18,88.9 88.67,91.97 90.23,94.78C91.73,97.48 93.22,100.21 94.82,102.62C96.29,104.83 97.79,106.96 99.41,108.75C100.87,110.36 102.41,111.81 104.01,112.97C105.48,114.03 107.03,114.86 108.6,115.52C110.1,116.15 111.65,116.55 113.19,116.91C114.71,117.27 116.26,117.46 117.79,117.7C119.32,117.94 120.85,118.11 122.38,118.33C123.91,118.55 125.44,118.79 126.97,119.04C128.5,119.29 130.04,119.59 131.57,119.84C133.1,120.09 134.63,120.38 136.16,120.56C137.69,120.74 139.22,120.91 140.75,120.94C142.28,120.97 143.83,120.91 145.35,120.72C146.89,120.52 148.42,120.19 149.94,119.76C151.49,119.32 153.01,118.73 154.53,118.11C156.08,117.47 157.6,116.71 159.13,115.97C160.67,115.23 162.19,114.41 163.72,113.66C165.25,112.92 166.77,112.16 168.31,111.49C169.83,110.82 171.37,110.2 172.91,109.63C174.43,109.07 175.96,108.58 177.5,108.11C179.02,107.65 180.56,107.23 182.09,106.83C183.62,106.43 185.15,106.06 186.69,105.72C188.22,105.38 189.75,105.05 191.28,104.8C192.81,104.55 194.34,104.32 195.87,104.2C197.4,104.08 198.94,104.03 200.47,104.1C202,104.17 203.54,104.35 205.06,104.61C206.6,104.88 208.13,105.27 209.65,105.69C211.19,106.11 212.72,106.64 214.25,107.14C215.78,107.65 217.31,108.21 218.84,108.72C220.37,109.23 221.89,109.74 223.43,110.21C224.96,110.68 226.49,111.11 228.03,111.52C229.56,111.93 231.09,112.29 232.62,112.67C234.15,113.05 235.68,113.4 237.21,113.81C238.75,114.22 240.29,114.63 241.81,115.12C243.35,115.62 244.88,116.16 246.4,116.77C247.94,117.39 249.47,118.09 250.99,118.84C252.54,119.6 254.07,120.43 255.59,121.29C257.13,122.16 258.66,123.1 260.18,124.04C261.72,124.99 263.24,125.98 264.77,126.98C266.31,127.98 267.84,129 269.37,130.03C270.9,131.06 272.43,132.1 273.96,133.14C275.49,134.18 277.02,135.23 278.55,136.26C280.08,137.28 281.61,138.31 283.15,139.28C284.67,140.24 286.2,141.19 287.74,142.06C289.26,142.92 290.78,143.74 292.33,144.47C293.85,145.18 295.38,145.83 296.93,146.4C298.45,146.96 299.98,147.44 301.52,147.85C303.04,148.26 304.57,148.59 306.11,148.87C307.64,149.15 309.18,149.36 310.71,149.54C312.24,149.72 313.77,149.85 315.3,149.97C316.83,150.08 318.36,150.16 319.89,150.23C321.42,150.3 322.96,150.34 324.49,150.38C326.02,150.42 327.55,150.45 329.08,150.48C330.61,150.51 332.14,150.53 333.67,150.56C335.2,150.59 336.74,150.61 338.27,150.64C339.8,150.67 341.33,150.7 342.86,150.73C344.39,150.76 345.92,150.79 347.45,150.82C348.98,150.85 350.52,150.87 352.05,150.89C353.58,150.91 355.11,150.94 356.64,150.96Q358.17,150.98 361.23,151L361.23,151.05" style="vector-effect: none; stroke-width: 2px; stroke: rgb(124, 156, 48); stroke-opacity: 1; fill: rgb(155, 195, 60); fill-opacity: 0.5;"/><path class="meanline" d="M152.19,119.02296447753906V151.05" style="fill: none; vector-effect: none; stroke-width: 2px; stroke-dasharray: 4px, 2px; stroke: rgb(124, 156, 48); stroke-opacity: 1;"/></g><g class="trace violins" style="opacity: 1;"><path class="violin" d="M157.51,119.25L157.51,118.97Q160.93,118.8 162.63,118.65C164.34,118.5 166.04,118.33 167.74,118.09C169.45,117.84 171.15,117.56 172.85,117.18C174.56,116.8 176.27,116.34 177.96,115.81C179.68,115.27 181.39,114.63 183.08,113.94C184.8,113.24 186.5,112.43 188.19,111.61C189.9,110.78 191.6,109.86 193.3,108.96C195.01,108.06 196.7,107.11 198.41,106.23C200.11,105.36 201.8,104.48 203.52,103.7C205.21,102.93 206.92,102.2 208.64,101.58C210.33,100.97 212.04,100.44 213.75,99.99C215.44,99.55 217.15,99.21 218.86,98.9C220.56,98.59 222.27,98.37 223.97,98.11C225.68,97.85 227.39,97.64 229.09,97.33C230.8,97.02 232.51,96.71 234.2,96.27C235.91,95.83 237.62,95.31 239.31,94.69C241.03,94.05 242.74,93.3 244.42,92.47C246.15,91.62 247.85,90.64 249.54,89.63C251.26,88.6 252.95,87.45 254.65,86.32C256.36,85.18 258.05,83.97 259.76,82.82C261.46,81.68 263.15,80.51 264.87,79.45C266.56,78.41 268.25,77.4 269.98,76.51C271.67,75.64 273.38,74.87 275.1,74.18C276.79,73.51 278.5,72.95 280.21,72.43C281.9,71.92 283.61,71.51 285.32,71.08C287.02,70.65 288.73,70.28 290.43,69.86C292.14,69.43 293.85,69 295.55,68.53C297.26,68.06 298.96,67.54 300.66,67.02C302.37,66.5 304.06,65.92 305.77,65.4C307.47,64.88 309.17,64.33 310.88,63.91C312.57,63.5 314.28,63.11 315.99,62.9C317.69,62.7 319.41,62.59 321.11,62.67C322.82,62.75 324.53,63 326.22,63.36C327.94,63.72 329.64,64.29 331.33,64.85C333.04,65.41 334.73,66.13 336.44,66.73C338.14,67.33 339.84,67.99 341.56,68.47C343.25,68.94 344.96,69.37 346.67,69.59C348.36,69.81 350.08,69.88 351.78,69.8C353.49,69.72 355.2,69.44 356.89,69.08C358.61,68.72 360.32,68.18 362.01,67.62C363.73,67.05 365.42,66.37 367.12,65.7C368.83,65.02 370.53,64.29 372.23,63.57C373.94,62.85 375.63,62.1 377.34,61.38C379.04,60.66 380.74,59.95 382.45,59.27C384.15,58.59 385.86,57.93 387.57,57.32C389.27,56.72 390.97,56.16 392.68,55.65C394.38,55.14 396.08,54.7 397.79,54.25C399.49,53.8 401.2,53.42 402.9,52.96C404.61,52.5 406.32,52.05 408.02,51.5C409.73,50.94 411.44,50.32 413.13,49.61C414.85,48.89 416.55,48.06 418.24,47.21C419.95,46.35 421.64,45.38 423.35,44.5C425.05,43.62 426.73,42.66 428.46,41.93C430.14,41.21 431.85,40.49 433.58,40.13C435.26,39.78 437,39.56 438.69,39.75C440.41,39.94 442.16,40.48 443.8,41.3C445.58,42.19 447.29,43.56 448.91,45.06C450.71,46.72 452.39,48.81 454.03,50.96C455.81,53.29 457.47,55.95 459.14,58.6C460.88,61.38 462.56,64.36 464.25,67.29C465.96,70.26 467.64,73.33 469.36,76.28C471.05,79.18 472.74,82.11 474.48,84.86C476.15,87.5 477.83,90.09 479.59,92.49C481.25,94.75 482.94,96.92 484.7,98.88C486.35,100.72 488.05,102.44 489.81,103.95C491.46,105.38 493.17,106.65 494.92,107.76C496.59,108.82 498.31,109.71 500.04,110.48C501.72,111.23 503.43,111.83 505.15,112.35C506.84,112.86 508.55,113.24 510.26,113.58C511.96,113.92 513.66,114.17 515.37,114.4C517.07,114.63 518.78,114.81 520.49,114.98C522.19,115.15 523.9,115.29 525.6,115.43C527.3,115.57 529.01,115.69 530.71,115.81C532.41,115.93 534.12,116.05 535.82,116.17C537.52,116.29 539.23,116.4 540.93,116.51C542.64,116.62 544.34,116.74 546.05,116.84C547.75,116.94 549.46,117.04 551.16,117.13C552.86,117.22 554.57,117.3 556.27,117.38C557.97,117.45 559.68,117.52 561.38,117.58C563.09,117.64 564.79,117.69 566.5,117.74C568.2,117.79 569.91,117.82 571.61,117.86C573.31,117.9 575.02,117.93 576.72,117.96C578.42,117.99 580.13,118.02 581.83,118.04C583.54,118.07 585.24,118.09 586.95,118.11C588.65,118.13 590.36,118.14 592.06,118.16C593.76,118.18 595.47,118.19 597.17,118.21C598.87,118.22 600.58,118.24 602.28,118.25C603.98,118.26 605.69,118.27 607.39,118.27C609.1,118.28 610.8,118.27 612.51,118.28C614.21,118.29 615.92,118.3 617.62,118.31C619.32,118.32 621.03,118.33 622.73,118.35C624.43,118.37 626.14,118.39 627.84,118.41C629.55,118.43 631.25,118.46 632.96,118.49C634.66,118.51 636.37,118.54 638.07,118.56C639.77,118.58 641.48,118.6 643.18,118.61C644.88,118.62 646.59,118.62 648.29,118.62C649.99,118.62 651.7,118.62 653.4,118.61C655.11,118.6 656.81,118.59 658.52,118.58C660.22,118.57 661.93,118.56 663.63,118.56C665.33,118.56 667.04,118.56 668.74,118.56C670.44,118.56 672.15,118.58 673.85,118.59C675.56,118.61 677.26,118.62 678.97,118.65C680.67,118.67 682.38,118.71 684.08,118.74C685.78,118.77 687.49,118.81 689.19,118.85C690.89,118.88 692.6,118.92 694.3,118.95C696.01,118.98 697.71,119.02 699.42,119.05C701.12,119.08 702.83,119.1 704.53,119.12C706.23,119.14 707.94,119.16 709.64,119.18Q711.34,119.19 714.75,119.21L714.75,119.25" style="vector-effect: none; stroke-width: 2px; stroke: rgb(48, 156, 151); stroke-opacity: 1; fill: rgb(60, 195, 188); fill-opacity: 0.5;"/><path class="meanline" d="M366.81,65.82235717773438V119.25" style="fill: none; vector-effect: none; stroke-width: 2px; stroke-dasharray: 4px, 2px; stroke: rgb(48, 156, 151); stroke-opacity: 1;"/></g><g class="trace violins" style="opacity: 1;"><path class="violin" d="M287.16,87.45L287.16,87.36Q290.91,87.31 292.79,87.26C294.67,87.21 296.54,87.15 298.42,87.08C300.3,87 302.17,86.92 304.05,86.81C305.93,86.7 307.81,86.57 309.68,86.41C311.56,86.25 313.43,86.08 315.3,85.87C317.18,85.66 319.06,85.43 320.93,85.17C322.81,84.91 324.69,84.63 326.56,84.31C328.44,83.99 330.32,83.65 332.19,83.26C334.07,82.87 335.95,82.46 337.82,81.99C339.7,81.52 341.57,81.02 343.44,80.46C345.32,79.9 347.2,79.29 349.07,78.62C350.96,77.95 352.83,77.22 354.7,76.44C356.59,75.65 358.46,74.8 360.33,73.91C362.22,73.01 364.09,72.06 365.96,71.08C367.85,70.09 369.72,69.04 371.59,67.97C373.47,66.89 375.34,65.77 377.21,64.63C379.09,63.47 380.97,62.29 382.84,61.07C384.73,59.84 386.6,58.57 388.47,57.28C390.35,55.98 392.22,54.64 394.1,53.32C395.98,52 397.84,50.63 399.73,49.35C401.59,48.09 403.45,46.83 405.35,45.72C407.2,44.64 409.07,43.61 410.98,42.78C412.83,41.98 414.71,41.31 416.61,40.8C418.47,40.31 420.36,40.01 422.24,39.76C424.11,39.51 425.99,39.44 427.87,39.31C429.75,39.18 431.63,39.14 433.5,38.97C435.38,38.8 437.25,38.59 439.12,38.28C441,37.97 442.88,37.54 444.75,37.09C446.63,36.64 448.5,36.05 450.38,35.57C452.25,35.09 454.12,34.55 456.01,34.22C457.88,33.89 459.76,33.61 461.64,33.59C463.51,33.57 465.4,33.72 467.26,34.07C469.15,34.42 471.04,35.04 472.89,35.72C474.79,36.41 476.65,37.33 478.52,38.2C480.41,39.08 482.26,40.11 484.15,41C486.02,41.89 487.89,42.8 489.78,43.54C491.64,44.27 493.51,44.95 495.4,45.43C497.26,45.9 499.15,46.26 501.03,46.43C502.9,46.6 504.79,46.61 506.66,46.48C508.54,46.35 510.43,46.05 512.29,45.65C514.18,45.25 516.06,44.69 517.92,44.08C519.81,43.46 521.68,42.72 523.55,41.96C525.43,41.19 527.3,40.35 529.17,39.49C531.05,38.62 532.93,37.72 534.8,36.77C536.69,35.81 538.57,34.83 540.43,33.78C542.32,32.72 544.2,31.61 546.06,30.43C547.96,29.22 549.83,27.94 551.69,26.6C553.58,25.23 555.44,23.76 557.31,22.29C559.19,20.81 561.05,19.23 562.94,17.75C564.81,16.28 566.66,14.76 568.57,13.45C570.41,12.19 572.27,10.93 574.2,10.02C576.03,9.16 577.93,8.4 579.83,8.06C581.68,7.73 583.61,7.68 585.46,7.95C587.36,8.22 589.25,8.9 591.08,9.72C593.01,10.58 594.87,11.82 596.71,13.06C598.63,14.35 600.48,15.89 602.34,17.37C604.23,18.87 606.08,20.49 607.97,21.99C609.83,23.47 611.7,24.97 613.6,26.31C615.45,27.61 617.32,28.85 619.22,29.94C621.07,30.99 622.95,31.91 624.85,32.75C626.71,33.57 628.6,34.25 630.48,34.94C632.35,35.62 634.24,36.19 636.11,36.86C637.99,37.54 639.88,38.19 641.74,38.99C643.64,39.81 645.52,40.7 647.37,41.72C649.27,42.77 651.14,43.97 652.99,45.24C654.9,46.55 656.76,48.01 658.62,49.5C660.52,51.02 662.38,52.66 664.25,54.27C666.13,55.89 667.99,57.57 669.88,59.17C671.75,60.75 673.61,62.34 675.51,63.82C677.36,65.26 679.23,66.67 681.13,67.95C682.98,69.2 684.86,70.37 686.76,71.44C688.62,72.49 690.5,73.43 692.39,74.31C694.25,75.17 696.13,75.94 698.02,76.68C699.89,77.41 701.77,78.07 703.65,78.71C705.52,79.35 707.39,79.94 709.27,80.51C711.14,81.08 713.02,81.62 714.9,82.14C716.77,82.66 718.65,83.16 720.53,83.61C722.4,84.06 724.28,84.48 726.16,84.85C728.03,85.22 729.91,85.54 731.79,85.82C733.66,86.1 735.54,86.32 737.42,86.51C739.29,86.7 741.16,86.84 743.04,86.96C744.91,87.08 746.79,87.15 748.67,87.22Q750.55,87.28 754.3,87.35L754.3,87.45" style="vector-effect: none; stroke-width: 2px; stroke: rgb(133, 41, 163); stroke-opacity: 1; fill: rgb(166, 51, 204); fill-opacity: 0.5;"/><path class="meanline" d="M532.92,37.70718002319336V87.45" style="fill: none; vector-effect: none; stroke-width: 2px; stroke-dasharray: 4px, 2px; stroke: rgb(133, 41, 163); stroke-opacity: 1;"/></g></g></g><g class="overplot"/><path class="xlines-above crisp" d="M0,0" style="fill: none;"/><path class="ylines-above crisp" d="M0,0" style="fill: none;"/><g class="overlines-above"/><g class="xaxislayer-above"><g class="xtick"><text text-anchor="middle" x="0" y="172" transform="translate(67.53,0)" style="font-family: 'Open Sans', verdana, arial, sans-serif; font-size: 12px; fill: rgb(242, 245, 250); fill-opacity: 1; white-space: pre; opacity: 1;">0</text></g><g class="xtick"><text text-anchor="middle" x="0" y="172" style="font-family: 'Open Sans', verdana, arial, sans-serif; font-size: 12px; fill: rgb(242, 245, 250); fill-opacity: 1; white-space: pre; opacity: 1;" transform="translate(188.38,0)">10</text></g><g class="xtick"><text text-anchor="middle" x="0" y="172" style="font-family: 'Open Sans', verdana, arial, sans-serif; font-size: 12px; fill: rgb(242, 245, 250); fill-opacity: 1; white-space: pre; opacity: 1;" transform="translate(309.24,0)">20</text></g><g class="xtick"><text text-anchor="middle" x="0" y="172" style="font-family: 'Open Sans', verdana, arial, sans-serif; font-size: 12px; fill: rgb(242, 245, 250); fill-opacity: 1; white-space: pre; opacity: 1;" transform="translate(430.09,0)">30</text></g><g class="xtick"><text text-anchor="middle" x="0" y="172" style="font-family: 'Open Sans', verdana, arial, sans-serif; font-size: 12px; fill: rgb(242, 245, 250); fill-opacity: 1; white-space: pre; opacity: 1;" transform="translate(550.95,0)">40</text></g><g class="xtick"><text text-anchor="middle" x="0" y="172" style="font-family: 'Open Sans', verdana, arial, sans-serif; font-size: 12px; fill: rgb(242, 245, 250); fill-opacity: 1; white-space: pre; opacity: 1;" transform="translate(671.8,0)">50</text></g><g class="xtick"><text text-anchor="middle" x="0" y="172" style="font-family: 'Open Sans', verdana, arial, sans-serif; font-size: 12px; fill: rgb(242, 245, 250); fill-opacity: 1; white-space: pre; opacity: 0;" transform="translate(792.65,0)">60</text></g></g><g class="yaxislayer-above"/><g class="overaxes-above"/></g></g><g class="polarlayer"/><g class="smithlayer"/><g class="ternarylayer"/><g class="geolayer"/><g class="funnelarealayer"/><g class="pielayer"/><g class="iciclelayer"/><g class="treemaplayer"/><g class="sunburstlayer"/><g class="glimages"/><defs id="topdefs-26f638"><g class="clips"/></defs><g class="layer-above"><g class="imagelayer"/><g class="shapelayer"/></g><g class="infolayer"><g class="g-gtitle"/><g class="g-xtitle" transform="translate(0,-2.3000000000000114)"><text class="xtitle" x="397" y="199.3" text-anchor="middle" style="font-family: 'Open Sans', verdana, arial, sans-serif; font-size: 14px; fill: rgb(242, 245, 250); opacity: 1; white-space: pre;">Speed</text></g><g class="g-ytitle"/></g></svg>