<svg class="main-svg" xmlns="http://www.w3.org/2000/svg" xmlns:xlink="http://www.w3.org/1999/xlink" width="800" height="200" style="" viewBox="0 0 800 200"><rect x="0" y="0" width="800" height="200" style="fill: rgb(0, 0, 0); fill-opacity: 0;"/><defs id="defs-27a471"><g class="clips"><clipPath id="clip27a471xyplot" class="plotclip"><rect width="800" height="159"/></clipPath><clipPath class="axesclip" id="clip27a471x"><rect x="0" y="0" width="800" height="200"/></clipPath><clipPath class="axesclip" id="clip27a471y"><rect x="0" y="0" width="800" height="159"/></clipPath><clipPath class="axesclip" id="clip27a471xy"><rect x="0" y="0" width="800" height="159"/></clipPath></g><g class="gradients"/><g class="patterns"/></defs><g class="bglayer"><rect class="bg" x="0" y="0" width="800" height="159" style="fill: rgb(0, 0, 0); fill-opacity: 0; stroke-width: 0;"/></g><g class="layer-below"><g class="imagelayer"/><g class="shapelayer"/></g><g class="cartesianlayer"><g class="subplot xy"><g class="layer-subplot"><g class="shapelayer"/><g class="imagelayer"/></g><g class="minor-gridlayer"><g class="x"/><g class="y"/></g><g class="gridlayer"><g class="x"><path class="xgrid crisp" transform="translate(168.61,0)" d="M0,0v159" style="stroke: rgb(40, 52, 66); stroke-opacity: 1; stroke-width: 1px;"/><path class="xgrid crisp" transform="translate(306.18,0)" d="M0,0v159" style="stroke: rgb(40, 52, 66); stroke-opacity: 1; stroke-width: 1px;"/><path class="xgrid crisp" transform="translate(443.76,0)" d="M0,0v159" style="stroke: rgb(40, 52, 66); stroke-opacity: 1; stroke-width: 1px;"/><path class="xgrid crisp" transform="translate(581.33,0)" d="M0,0v159" style="stroke: rgb(40, 52, 66); stroke-opacity: 1; stroke-width: 1px;"/><path class="xgrid crisp" transform="translate(718.9,0)" d="M0,0v159" style="stroke: rgb(40, 52, 66); stroke-opacity: 1; stroke-width: 1px;"/></g><g class="y"/></g><g class="zerolinelayer"><path class="xzl zl crisp" transform="translate(31.03,0)" d="M0,0v159" style="stroke: rgb(40, 52, 66); stroke-opacity: 1; stroke-width: 2px;"/></g><g class="layer-between"><g class="shapelayer"/><g class="imagelayer"/></g><path class="xlines-below"/><path class="ylines-below"/><g class="overlines-below"/><g class="xaxislayer-below"/><g class="yaxislayer-below"/><g class="overaxes-below"/><g class="plot" transform="" clip-path="url(#clip27a471xyplot)"><g class="violinlayer mlayer"><g class="trace violins" style="opacity: 1;"><path class="violin" d="M40,151.05L40,150.64Q42.22,150.41 43.32,150.23C44.43,150.04 45.54,149.82 46.64,149.53C47.75,149.24 48.86,148.88 49.96,148.48C51.07,148.07 52.18,147.59 53.27,147.08C54.39,146.56 55.49,145.96 56.59,145.36C57.7,144.76 58.8,144.1 59.91,143.47C61.02,142.84 62.12,142.19 63.23,141.59C64.33,141 65.43,140.41 66.55,139.89C67.65,139.38 68.75,138.91 69.87,138.51C70.97,138.12 72.08,137.78 73.19,137.51C74.29,137.24 75.39,137.05 76.5,136.88C77.6,136.72 78.71,136.62 79.82,136.52C80.93,136.42 82.03,136.38 83.14,136.29C84.25,136.2 85.36,136.13 86.46,136C87.57,135.87 88.68,135.71 89.78,135.51C90.89,135.3 92,135.04 93.1,134.77C94.21,134.5 95.31,134.17 96.42,133.89C97.52,133.61 98.62,133.29 99.73,133.07C100.83,132.85 101.94,132.65 103.05,132.56C104.15,132.47 105.27,132.45 106.37,132.51C107.48,132.57 108.59,132.74 109.69,132.95C110.8,133.16 111.91,133.47 113.01,133.79C114.12,134.11 115.23,134.5 116.33,134.89C117.44,135.29 118.55,135.72 119.65,136.16C120.76,136.6 121.86,137.06 122.96,137.52C124.07,137.98 125.17,138.46 126.28,138.93C127.39,139.4 128.49,139.89 129.6,140.33C130.7,140.77 131.81,141.21 132.92,141.58C134.02,141.95 135.13,142.3 136.24,142.56C137.34,142.82 138.45,143.03 139.56,143.15C140.66,143.27 141.77,143.3 142.87,143.29C143.98,143.28 145.08,143.18 146.19,143.08C147.3,142.98 148.4,142.8 149.51,142.67C150.62,142.55 151.72,142.4 152.83,142.33C153.94,142.26 155.05,142.21 156.15,142.27C157.26,142.33 158.37,142.46 159.47,142.67C160.58,142.88 161.69,143.2 162.79,143.55C163.9,143.91 165,144.35 166.1,144.79C167.21,145.23 168.31,145.73 169.42,146.18C170.52,146.63 171.62,147.1 172.74,147.47C173.84,147.84 174.94,148.18 176.06,148.41C177.16,148.63 178.27,148.79 179.38,148.83C180.48,148.87 181.6,148.8 182.7,148.64C183.81,148.48 184.93,148.18 186.02,147.84C187.14,147.49 188.23,147.03 189.33,146.57C190.44,146.11 191.54,145.56 192.65,145.09C193.75,144.63 194.85,144.13 195.97,143.79C197.06,143.46 198.18,143.17 199.29,143.05C200.39,142.94 201.51,142.95 202.61,143.09C203.72,143.23 204.84,143.55 205.93,143.91C207.05,144.28 208.15,144.8 209.25,145.28C210.36,145.77 211.45,146.33 212.56,146.82C213.66,147.3 214.76,147.8 215.88,148.2C216.98,148.59 218.08,148.94 219.2,149.18C220.3,149.42 221.41,149.59 222.52,149.65C223.62,149.71 224.74,149.7 225.84,149.57C226.95,149.44 228.07,149.22 229.16,148.88C230.28,148.53 231.4,148.08 232.48,147.51C233.61,146.91 234.72,146.18 235.79,145.35C236.93,144.46 238.04,143.43 239.11,142.32C240.25,141.14 241.35,139.83 242.43,138.47C243.56,137.05 244.65,135.5 245.75,133.97C246.87,132.41 247.96,130.78 249.07,129.2C250.17,127.64 251.26,126.04 252.39,124.55C253.48,123.11 254.58,121.7 255.71,120.38C256.79,119.12 257.9,117.94 259.02,116.79C260.11,115.68 261.23,114.66 262.34,113.6C263.45,112.53 264.57,111.53 265.66,110.4C266.79,109.23 267.9,108.02 268.98,106.7C270.12,105.3 271.22,103.8 272.3,102.22C273.44,100.55 274.53,98.75 275.62,96.94C276.74,95.08 277.83,93.11 278.94,91.2C280.04,89.3 281.12,87.34 282.25,85.51C283.33,83.76 284.42,82.01 285.57,80.45C286.64,79 287.73,77.6 288.89,76.43C289.95,75.36 291.05,74.38 292.21,73.63C293.27,72.94 294.4,72.39 295.53,72.04C296.61,71.71 297.75,71.53 298.85,71.55C299.96,71.57 301.1,71.77 302.17,72.18C303.31,72.61 304.43,73.3 305.48,74.15C306.66,75.11 307.76,76.38 308.8,77.77C309.99,79.35 311.06,81.24 312.12,83.19C313.28,85.33 314.36,87.74 315.44,90.13C316.57,92.62 317.65,95.29 318.76,97.85C319.86,100.39 320.94,103.01 322.08,105.45C323.16,107.77 324.25,110.07 325.4,112.18C326.46,114.12 327.55,115.98 328.71,117.66C329.77,119.21 330.88,120.63 332.03,121.93C333.1,123.14 334.22,124.22 335.35,125.24C336.43,126.21 337.55,127.07 338.67,127.91C339.76,128.73 340.88,129.48 341.99,130.24C343.09,130.99 344.2,131.71 345.31,132.43C346.41,133.15 347.51,133.88 348.62,134.58C349.72,135.28 350.82,135.99 351.94,136.62C353.04,137.24 354.13,137.86 355.26,138.34C356.35,138.8 357.46,139.24 358.58,139.46C359.67,139.67 360.8,139.77 361.9,139.65C363.02,139.52 364.15,139.18 365.22,138.69C366.37,138.16 367.47,137.37 368.54,136.51C369.69,135.59 370.77,134.44 371.85,133.29C372.98,132.08 374.07,130.71 375.17,129.41C376.28,128.1 377.36,126.69 378.49,125.44C379.57,124.24 380.65,123.01 381.81,122.05C382.87,121.17 383.97,120.32 385.13,119.86C386.19,119.44 387.35,119.19 388.45,119.28C389.57,119.37 390.71,119.85 391.77,120.43C392.93,121.07 394.02,122.07 395.08,123.08C396.23,124.17 397.31,125.5 398.4,126.79C399.53,128.13 400.61,129.59 401.72,130.97C402.82,132.35 403.91,133.76 405.04,135.07C406.13,136.34 407.22,137.59 408.36,138.72C409.44,139.8 410.55,140.8 411.68,141.71C412.76,142.57 413.87,143.35 415,144.05C416.08,144.72 417.19,145.31 418.31,145.85C419.4,146.37 420.52,146.82 421.63,147.24C422.73,147.65 423.84,148.01 424.95,148.34C426.05,148.67 427.16,148.95 428.27,149.21C429.37,149.47 430.48,149.69 431.59,149.88C432.69,150.07 433.8,150.23 434.91,150.36C436.02,150.49 437.12,150.6 438.23,150.68C439.33,150.76 440.44,150.81 441.54,150.86C442.65,150.91 443.75,150.94 444.86,150.96C445.97,150.98 447.07,151 448.18,151C449.29,151 450.39,151 451.5,150.99C452.61,150.98 453.71,150.96 454.82,150.93C455.93,150.9 457.03,150.88 458.14,150.83C459.25,150.78 460.35,150.72 461.46,150.65C462.56,150.58 463.67,150.49 464.77,150.39C465.88,150.29 466.98,150.18 468.09,150.05C469.2,149.92 470.3,149.77 471.41,149.62C472.52,149.47 473.62,149.31 474.73,149.15C475.84,148.99 476.94,148.82 478.05,148.67C479.16,148.52 480.26,148.37 481.37,148.25C482.48,148.13 483.58,148.03 484.69,147.96C485.79,147.9 486.9,147.86 488,147.86C489.11,147.86 490.21,147.9 491.32,147.98C492.43,148.06 493.53,148.18 494.64,148.32C495.75,148.46 496.85,148.64 497.96,148.81C499.07,148.98 500.17,149.18 501.28,149.36C502.39,149.54 503.49,149.72 504.6,149.88C505.71,150.04 506.81,150.19 507.92,150.32C509.02,150.44 510.13,150.55 511.23,150.63C512.34,150.72 513.44,150.78 514.55,150.83C515.66,150.88 516.76,150.92 517.87,150.95C518.98,150.98 520.08,151 521.19,151.01C522.3,151.02 523.4,151.02 524.51,151.03C525.62,151.03 526.72,151.04 527.83,151.04C528.94,151.04 530.04,151.05 531.15,151.05C532.25,151.05 533.36,151.05 534.46,151.05C535.57,151.05 536.67,151.05 537.78,151.05C538.89,151.05 539.99,151.05 541.1,151.05C542.21,151.05 543.31,151.05 544.42,151.05C545.53,151.05 546.63,151.05 547.74,151.05C548.85,151.05 549.95,151.05 551.06,151.05C552.16,151.05 553.27,151.05 554.37,151.05C555.48,151.05 556.58,151.05 557.69,151.05C558.8,151.05 559.9,151.05 561.01,151.05C562.12,151.05 563.22,151.05 564.33,151.05C565.44,151.05 566.54,151.05 567.65,151.05C568.76,151.05 569.86,151.05 570.97,151.05C572.08,151.05 573.18,151.05 574.29,151.05C575.39,151.05 576.5,151.05 577.6,151.05C578.71,151.05 579.81,151.05 580.92,151.05C582.03,151.05 583.13,151.04 584.24,151.04C585.35,151.04 586.45,151.03 587.56,151.03C588.67,151.02 589.77,151.02 590.88,151.01C591.99,151 593.09,150.99 594.2,150.97C595.31,150.95 596.41,150.92 597.52,150.89C598.62,150.86 599.73,150.82 600.83,150.78C601.94,150.74 603.04,150.68 604.15,150.63C605.26,150.58 606.36,150.53 607.47,150.48C608.58,150.43 609.68,150.38 610.79,150.34C611.9,150.31 613,150.28 614.11,150.27C615.22,150.26 616.32,150.26 617.43,150.27C618.54,150.28 619.64,150.32 620.75,150.35C621.85,150.38 622.96,150.43 624.06,150.46C625.17,150.49 626.27,150.53 627.38,150.55C628.49,150.57 629.59,150.57 630.7,150.56C631.81,150.55 632.91,150.52 634.02,150.46C635.13,150.4 636.23,150.31 637.34,150.2C638.45,150.09 639.55,149.95 640.66,149.8C641.77,149.65 642.87,149.48 643.98,149.31C645.08,149.14 646.18,148.95 647.29,148.8C648.39,148.65 649.5,148.49 650.61,148.39C651.72,148.29 652.82,148.21 653.93,148.18C655.04,148.15 656.14,148.17 657.25,148.23C658.36,148.29 659.46,148.4 660.57,148.52C661.68,148.65 662.78,148.82 663.89,148.98C665,149.15 666.1,149.34 667.21,149.51C668.31,149.68 669.41,149.86 670.52,150.01C671.62,150.16 672.73,150.3 673.84,150.41C674.95,150.52 676.05,150.61 677.16,150.69C678.27,150.77 679.37,150.82 680.48,150.87Q681.59,150.91 683.8,150.96L683.8,151.05" style="vector-effect: none; stroke-width: 2px; stroke: rgb(124, 156, 48); stroke-opacity: 1; fill: rgb(155, 195, 60); fill-opacity: 0.5;"/><path class="meanline" d="M280.78,87.98982238769531V151.05" style="fill: none; vector-effect: none; stroke-width: 2px; stroke-dasharray: 4px, 2px; stroke: rgb(124, 156, 48); stroke-opacity: 1;"/></g><g class="trace violins" style="opacity: 1;"><path class="violin" d="M110.1,119.25L110.1,118.51Q115.95,118.07 118.86,117.7C121.79,117.33 124.71,116.9 127.62,116.3C130.55,115.7 133.48,114.97 136.38,114.09C139.32,113.2 142.25,112.14 145.14,110.96C148.09,109.76 151,108.39 153.9,106.95C156.84,105.49 159.75,103.87 162.66,102.26C165.59,100.64 168.5,98.92 171.42,97.26C174.34,95.6 177.25,93.91 180.18,92.3C183.09,90.71 186.01,89.15 188.94,87.66C191.85,86.18 194.77,84.78 197.7,83.4C200.61,82.03 203.54,80.73 206.46,79.39C209.38,78.05 212.3,76.76 215.21,75.38C218.14,74 221.06,72.58 223.97,71.11C226.9,69.62 229.82,68.06 232.73,66.5C235.66,64.93 238.56,63.27 241.49,61.73C244.4,60.21 247.3,58.64 250.25,57.31C253.14,56.01 256.06,54.77 259.01,53.84C261.9,52.93 264.83,52.21 267.77,51.76C270.67,51.31 273.61,51.16 276.53,51.11C279.45,51.06 282.37,51.28 285.29,51.44C288.21,51.61 291.13,51.93 294.05,52.1C296.97,52.27 299.89,52.43 302.81,52.48C305.73,52.53 308.65,52.46 311.57,52.4C314.49,52.34 317.41,52.15 320.33,52.11C323.25,52.07 326.17,52.02 329.08,52.16C332,52.3 334.93,52.59 337.84,52.97C340.77,53.35 343.68,53.96 346.6,54.45C349.52,54.94 352.43,55.61 355.36,55.92C358.27,56.23 361.21,56.51 364.12,56.31C367.05,56.11 370.01,55.57 372.88,54.72C375.85,53.84 378.76,52.44 381.64,51.04C384.6,49.6 387.46,47.71 390.4,46.16C393.3,44.63 396.18,42.87 399.16,41.79C402.02,40.76 404.99,39.84 407.92,39.75C410.83,39.66 413.85,40.2 416.68,41.24C419.71,42.35 422.63,44.34 425.44,46.43C428.48,48.69 431.33,51.61 434.19,54.46C437.17,57.43 440.03,60.76 442.95,63.92C445.87,67.08 448.75,70.37 451.71,73.41C454.59,76.37 457.49,79.29 460.47,81.94C463.33,84.49 466.25,86.91 469.23,89.05C472.09,91.1 475.01,92.99 477.99,94.59C480.86,96.13 483.78,97.48 486.75,98.5C489.63,99.49 492.57,100.26 495.51,100.65C498.41,101.04 501.36,101.11 504.27,100.87C507.2,100.63 510.14,99.98 513.03,99.18C515.98,98.37 518.89,97.15 521.79,96.01C524.73,94.85 527.61,93.43 530.55,92.28C533.45,91.15 536.36,89.94 539.31,89.17C542.2,88.42 545.13,87.85 548.06,87.69C550.97,87.54 553.92,87.79 556.82,88.23C559.76,88.67 562.67,89.56 565.58,90.36C568.51,91.17 571.41,92.27 574.34,93.06C577.25,93.85 580.16,94.69 583.1,95.1C586,95.51 588.95,95.72 591.86,95.54C594.79,95.36 597.74,94.78 600.62,94C603.58,93.2 606.49,91.97 609.38,90.73C612.33,89.47 615.22,87.88 618.14,86.49C621.06,85.1 623.94,83.55 626.9,82.4C629.78,81.27 632.71,80.17 635.66,79.62C638.55,79.08 641.52,78.82 644.42,79.07C647.36,79.32 650.31,80.1 653.17,81.15C656.16,82.25 659.07,83.91 661.93,85.64C664.91,87.44 667.79,89.65 670.69,91.78C673.63,93.94 676.51,96.32 679.45,98.51C682.35,100.67 685.25,102.88 688.21,104.82C691.09,106.71 694,108.5 696.97,110.02C699.84,111.49 702.77,112.78 705.73,113.84C708.62,114.88 711.55,115.67 714.49,116.34C717.39,117 720.32,117.44 723.25,117.82Q726.16,118.2 732.01,118.61L732.01,119.25" style="vector-effect: none; stroke-width: 2px; stroke: rgb(48, 156, 151); stroke-opacity: 1; fill: rgb(60, 195, 188); fill-opacity: 0.5;"/><path class="meanline" d="M393.51,44.472084045410156V119.25" style="fill: none; vector-effect: none; stroke-width: 2px; stroke-dasharray: 4px, 2px; stroke: rgb(48, 156, 151); stroke-opacity: 1;"/></g><g class="trace violins" style="opacity: 1;"><path class="violin" d="M223.81,87.45L223.81,86.82Q228.65,86.44 231.06,86.12C233.48,85.79 235.9,85.41 238.3,84.87C240.73,84.32 243.16,83.67 245.55,82.85C247.99,82.01 250.42,81.02 252.8,79.88C255.25,78.71 257.66,77.35 260.04,75.88C262.49,74.37 264.91,72.68 267.29,70.92C269.74,69.11 272.14,67.15 274.53,65.16C276.97,63.13 279.38,61 281.78,58.87C284.21,56.72 286.61,54.49 289.02,52.29C291.44,50.09 293.84,47.85 296.27,45.67C298.68,43.5 301.09,41.33 303.52,39.25C305.92,37.2 308.31,35.15 310.76,33.28C313.14,31.46 315.55,29.67 318.01,28.15C320.38,26.69 322.78,25.31 325.25,24.29C327.62,23.31 330.06,22.54 332.5,22.1C334.89,21.67 337.34,21.58 339.75,21.65C342.17,21.72 344.58,22.18 346.99,22.52C349.41,22.86 351.82,23.47 354.24,23.7C356.65,23.93 359.08,24.17 361.48,23.93C363.91,23.69 366.37,23.11 368.73,22.25C371.2,21.35 373.59,19.93 375.97,18.54C378.43,17.11 380.78,15.26 383.22,13.77C385.61,12.31 387.98,10.65 390.47,9.67C392.82,8.75 395.29,7.98 397.71,7.95C400.12,7.92 402.62,8.56 404.96,9.47C407.46,10.44 409.83,12.16 412.2,13.76C414.66,15.42 417.01,17.53 419.45,19.28C421.84,21 424.2,22.85 426.69,24.18C429.04,25.44 431.48,26.52 433.94,27.13C436.31,27.72 438.77,27.86 441.19,27.84C443.6,27.82 446.02,27.35 448.43,27.04C450.85,26.73 453.26,26.17 455.68,25.99C458.09,25.81 460.52,25.68 462.92,25.95C465.35,26.22 467.8,26.81 470.17,27.64C472.63,28.51 475.03,29.8 477.41,31.11C479.86,32.46 482.24,34.16 484.66,35.66C487.07,37.16 489.44,38.84 491.91,40.1C494.28,41.31 496.69,42.5 499.15,43.11C501.52,43.69 504,43.96 506.4,43.75C508.83,43.54 511.28,42.74 513.64,41.82C516.11,40.86 518.49,39.35 520.89,38.02C523.32,36.67 525.69,35.01 528.14,33.77C530.52,32.57 532.92,31.3 535.38,30.65C537.75,30.03 540.23,29.68 542.63,29.88C545.06,30.08 547.52,30.89 549.87,31.91C552.36,32.99 554.75,34.67 557.12,36.3C559.59,38 561.94,40.07 564.36,41.94C566.77,43.8 569.15,45.82 571.61,47.5C573.98,49.12 576.38,50.71 578.86,51.88C581.22,52.99 583.65,53.89 586.1,54.43C588.48,54.95 590.94,55.13 593.35,55.1C595.77,55.07 598.19,54.7 600.59,54.27C603.02,53.83 605.43,53.14 607.84,52.49C610.26,51.84 612.66,51.05 615.08,50.36C617.49,49.67 619.9,48.94 622.33,48.36C624.74,47.79 627.15,47.25 629.58,46.9C631.98,46.56 634.41,46.31 636.82,46.29C639.24,46.27 641.67,46.42 644.07,46.78C646.5,47.15 648.92,47.74 651.31,48.5C653.76,49.28 656.18,50.3 658.56,51.43C661.01,52.59 663.41,53.96 665.8,55.38C668.24,56.83 670.64,58.44 673.05,60.04C675.48,61.65 677.88,63.36 680.3,65C682.71,66.63 685.11,68.3 687.54,69.85C689.94,71.37 692.35,72.86 694.79,74.21C697.18,75.53 699.59,76.77 702.03,77.87C704.42,78.95 706.84,79.91 709.28,80.76C711.68,81.6 714.1,82.3 716.53,82.93C718.93,83.55 721.35,84.06 723.77,84.51C726.18,84.96 728.6,85.3 731.02,85.61C733.43,85.92 735.84,86.15 738.26,86.36C740.67,86.57 743.09,86.72 745.51,86.85C747.92,86.98 750.34,87.07 752.75,87.14Q755.17,87.22 760,87.3L760,87.45" style="vector-effect: none; stroke-width: 2px; stroke: rgb(133, 41, 163); stroke-opacity: 1; fill: rgb(166, 51, 204); fill-opacity: 0.5;"/><path class="meanline" d="M461.18,25.819751739501953V87.45" style="fill: none; vector-effect: none; stroke-width: 2px; stroke-dasharray: 4px, 2px; stroke: rgb(133, 41, 163); stroke-opacity: 1;"/></g></g></g><g class="overplot"/><path class="xlines-above crisp" d="M0,0" style="fill: none;"/><path class="ylines-above crisp" d="M0,0" style="fill: none;"/><g class="overlines-above"/><g class="xaxislayer-above"><g class="xtick"><text text-anchor="middle" x="0" y="172" transform="translate(31.03,0)" style="font-family: 'Open Sans', verdana, arial, sans-serif; font-size: 12px; fill: rgb(242, 245, 250); fill-opacity: 1; white-space: pre; opacity: 1;">0</text></g><g class="xtick"><text text-anchor="middle" x="0" y="172" style="font-family: 'Open Sans', verdana, arial, sans-serif; font-size: 12px; fill: rgb(242, 245, 250); fill-opacity: 1; white-space: pre; opacity: 1;" transform="translate(168.61,0)">100</text></g><g class="xtick"><text text-anchor="middle" x="0" y="172" style="font-family: 'Open Sans', verdana, arial, sans-serif; font-size: 12px; fill: rgb(242, 245, 250); fill-opacity: 1; white-space: pre; opacity: 1;" transform="translate(306.18,0)">200</text></g><g class="xtick"><text text-anchor="middle" x="0" y="172" style="font-family: 'Open Sans', verdana, arial, sans-serif; font-size: 12px; fill: rgb(242, 245, 250); fill-opacity: 1; white-space: pre; opacity: 1;" transform="translate(443.76,0)">300</text></g><g class="xtick"><text text-anchor="middle" x="0" y="172" style="font-family: 'Open Sans', verdana, arial, sans-serif; font-size: 12px; fill: rgb(242, 245, 250); fill-opacity: 1; white-space: pre; opacity: 1;" transform="translate(581.33,0)">400</text></g><g class="xtick"><text text-anchor="middle" x="0" y="172" style="font-family: 'Open Sans', verdana, arial, sans-serif; font-size: 12px; fill: rgb(242, 245, 250); fill-opacity: 1; white-space: pre; opacity: 1;" transform="translate(718.9,0)">500</text></g></g><g class="yaxislayer-above"/><g class="overaxes-above"/></g></g><g class="polarlayer"/><g class="smithlayer"/><g class="ternarylayer"/><g class="geolayer"/><g class="funnelarealayer"/><g class="pielayer"/><g class="iciclelayer"/><g class="treemaplayer"/><g class="sunburstlayer"/><g class="glimages"/><defs id="topdefs-27a471"><g class="clips"/></defs><g class="layer-above"><g class="imagelayer"/><g class="shapelayer"/></g><g class="infolayer"><g class="g-gtitle"/><g class="g-xtitle" transform="translate(0,-2.3000000000000114)"><text class="xtitle" x="400" y="199.3" text-anchor="middle" style="font-family: 'Open Sans', verdana, arial, sans-serif; font-size: 14px; fill: rgb(242, 245, 250); opacity: 1; white-space: pre;">Pgm Death</text></g><g class="g-ytitle"/></g></svg>