<svg class="main-svg" xmlns="http://www.w3.org/2000/svg" xmlns:xlink="http://www.w3.org/1999/xlink" width="800" height="200" style="" viewBox="0 0 800 200"><rect x="0" y="0" width="800" height="200" style="fill: rgb(0, 0, 0); fill-opacity: 0;"/><defs id="defs-925dd2"><g class="clips"><clipPath id="clip925dd2xyplot" class="plotclip"><rect width="721" height="144"/></clipPath><clipPath class="axesclip" id="clip925dd2x"><rect x="35" y="0" width="721" height="200"/></clipPath><clipPath class="axesclip" id="clip925dd2y"><rect x="0" y="0" width="800" height="144"/></clipPath><clipPath class="axesclip" id="clip925dd2xy"><rect x="35" y="0" width="721" height="144"/></clipPath></g><g class="gradients"/><g class="patterns"/></defs><g class="bglayer"><rect class="bg" x="35" y="0" width="721" height="144" style="fill: rgb(0, 0, 0); fill-opacity: 0; stroke-width: 0;"/></g><g class="layer-below"><g class="imagelayer"/><g class="shapelayer"/></g><g class="cartesianlayer"><g class="subplot xy"><g class="layer-subplot"><g class="shapelayer"/><g class="imagelayer"/></g><g class="minor-gridlayer"><g class="x"/><g class="y"/></g><g class="gridlayer"><g class="x"/><g class="y"/></g><g class="zerolinelayer"/><g class="layer-between"><g class="shapelayer"/><g class="imagelayer"/></g><path class="xlines-below"/><path class="ylines-below"/><g class="overlines-below"/><g class="xaxislayer-below"/><g class="yaxislayer-below"/><g class="overaxes-below"/><g class="plot" transform="translate(35,0)" clip-path="url(#clip925dd2xyplot)"><g class="violinlayer mlayer"><g class="trace violins" style="opacity: 1;"><path class="violin" d="M-21.75,136.8L-21.75,132.77Q-19.29,130.56 -18.15,129.18C-16.87,127.63 -15.69,125.76 -14.54,123.82C-13.27,121.68 -12.11,119.24 -10.93,116.82C-9.7,114.29 -8.55,111.53 -7.33,108.96C-6.14,106.46 -5.01,103.81 -3.72,101.6C-2.59,99.65 -1.48,97.58 -0.12,96.34C0.98,95.35 2.28,94.4 3.49,94.36C4.68,94.32 6,95.16 7.1,96.05C8.45,97.14 9.56,99.05 10.7,100.81C11.98,102.77 13.12,105.14 14.31,107.34C15.52,109.57 16.68,111.97 17.92,114.12C19.09,116.14 20.24,118.19 21.52,119.89C22.66,121.4 23.83,122.86 25.13,123.89C26.26,124.79 27.5,125.53 28.74,125.88C29.9,126.21 31.16,126.22 32.34,126.05C33.56,125.87 34.78,125.35 35.95,124.78C37.19,124.18 38.39,123.35 39.56,122.48C40.79,121.56 41.99,120.51 43.16,119.39C44.39,118.22 45.6,116.95 46.77,115.59C48.01,114.16 49.22,112.62 50.38,110.98C51.63,109.22 52.82,107.33 53.98,105.33C55.23,103.18 56.42,100.88 57.59,98.5C58.83,95.98 60.01,93.29 61.2,90.61C62.42,87.86 63.58,84.95 64.8,82.19C65.99,79.5 67.14,76.71 68.41,74.26C69.56,72.04 70.68,69.74 72.02,68.08C73.13,66.71 74.31,65.25 75.62,64.8C76.75,64.41 78.12,64.56 79.23,65.08C80.56,65.7 81.72,67.31 82.84,68.79C84.16,70.54 85.28,72.87 86.44,75.07C87.69,77.43 88.84,80.08 90.05,82.53C91.24,84.94 92.39,87.45 93.65,89.65C94.8,91.65 95.95,93.66 97.26,95.21C98.39,96.55 99.58,97.8 100.87,98.55C102,99.2 103.26,99.57 104.47,99.66C105.66,99.75 106.89,99.41 108.08,99.1C109.3,98.78 110.48,98.17 111.69,97.73C112.89,97.29 114.07,96.75 115.29,96.46C116.48,96.18 117.7,95.96 118.9,96.01C120.11,96.06 121.34,96.35 122.51,96.79C123.75,97.26 124.94,98.01 126.11,98.81C127.35,99.66 128.54,100.75 129.72,101.8C130.94,102.89 132.12,104.11 133.33,105.25C134.53,106.39 135.71,107.58 136.93,108.63C138.11,109.65 139.31,110.64 140.54,111.48C141.72,112.28 142.92,112.99 144.15,113.59C145.33,114.16 146.54,114.61 147.75,115.01C148.94,115.41 150.15,115.68 151.36,115.99C152.56,116.3 153.77,116.55 154.97,116.88C156.18,117.21 157.38,117.57 158.57,117.99C159.78,118.42 160.99,118.91 162.18,119.44C163.39,119.97 164.59,120.59 165.79,121.17C166.99,121.75 168.18,122.4 169.39,122.94C170.58,123.47 171.78,124.01 173,124.4C174.19,124.78 175.4,125.11 176.61,125.27C177.8,125.43 179.01,125.46 180.21,125.37C181.42,125.28 182.63,125.02 183.82,124.72C185.03,124.42 186.22,123.97 187.42,123.55C188.63,123.13 189.82,122.63 191.03,122.2C192.23,121.77 193.43,121.33 194.64,120.99C195.83,120.66 197.03,120.36 198.24,120.17C199.44,119.98 200.65,119.88 201.85,119.86C203.05,119.84 204.26,119.92 205.46,120.06C206.67,120.2 207.87,120.44 209.06,120.73C210.27,121.03 211.48,121.41 212.67,121.84C213.88,122.28 215.09,122.8 216.28,123.35C217.49,123.91 218.69,124.54 219.88,125.19C221.09,125.85 222.29,126.56 223.49,127.26C224.7,127.96 225.89,128.7 227.1,129.4C228.3,130.09 229.49,130.79 230.7,131.42C231.89,132.05 233.09,132.65 234.31,133.18C235.5,133.7 236.71,134.16 237.92,134.55C239.11,134.94 240.31,135.26 241.52,135.52C242.72,135.78 243.92,135.97 245.13,136.13C246.33,136.29 247.54,136.39 248.74,136.48C249.94,136.57 251.14,136.62 252.34,136.66C253.54,136.71 254.75,136.73 255.95,136.75C257.15,136.77 258.36,136.77 259.56,136.78C260.76,136.79 261.96,136.79 263.16,136.79C264.36,136.79 265.57,136.8 266.77,136.8C267.97,136.8 269.18,136.8 270.38,136.8C271.58,136.8 272.78,136.8 273.98,136.8C275.18,136.8 276.39,136.8 277.59,136.79C278.79,136.79 279.99,136.78 281.19,136.77C282.39,136.76 283.6,136.75 284.8,136.73C286,136.71 287.21,136.69 288.41,136.66C289.61,136.63 290.81,136.58 292.01,136.53C293.21,136.48 294.42,136.42 295.62,136.35C296.82,136.28 298.03,136.2 299.23,136.11C300.43,136.02 301.63,135.92 302.83,135.83C304.03,135.73 305.24,135.64 306.44,135.54C307.64,135.45 308.85,135.35 310.05,135.26C311.25,135.17 312.45,135.09 313.65,135.02C314.85,134.94 316.06,134.87 317.26,134.81C318.46,134.75 319.67,134.69 320.87,134.65C322.07,134.61 323.27,134.56 324.47,134.55C325.67,134.54 326.88,134.54 328.08,134.57C329.28,134.6 330.49,134.64 331.69,134.71C332.89,134.78 334.09,134.87 335.29,134.97C336.49,135.07 337.7,135.2 338.9,135.32C340.1,135.44 341.31,135.58 342.51,135.7C343.71,135.82 344.91,135.95 346.11,136.05C347.31,136.16 348.52,136.25 349.72,136.33C350.92,136.41 352.13,136.47 353.33,136.53C354.53,136.58 355.73,136.63 356.93,136.66C358.13,136.69 359.34,136.71 360.54,136.73C361.74,136.75 362.94,136.76 364.14,136.77C365.34,136.78 366.55,136.78 367.75,136.79C368.95,136.79 370.16,136.8 371.36,136.8C372.56,136.8 373.76,136.8 374.96,136.8C376.16,136.8 377.37,136.8 378.57,136.8C379.77,136.8 380.98,136.8 382.18,136.8C383.38,136.8 384.58,136.8 385.78,136.8C386.98,136.8 388.19,136.8 389.39,136.8C390.59,136.8 391.8,136.8 393,136.8C394.2,136.8 395.4,136.8 396.6,136.8C397.8,136.8 399.01,136.8 400.21,136.8C401.41,136.8 402.62,136.8 403.82,136.8C405.02,136.8 406.22,136.8 407.42,136.8C408.62,136.8 409.83,136.8 411.03,136.8C412.23,136.8 413.44,136.8 414.64,136.8C415.84,136.8 417.04,136.8 418.24,136.8C419.44,136.8 420.65,136.8 421.85,136.8C423.05,136.8 424.26,136.8 425.46,136.8C426.66,136.8 427.86,136.8 429.06,136.8C430.26,136.8 431.47,136.8 432.67,136.8C433.87,136.8 435.08,136.8 436.28,136.8C437.48,136.8 438.68,136.8 439.88,136.8C441.08,136.8 442.29,136.8 443.49,136.8C444.69,136.8 445.9,136.8 447.1,136.8C448.3,136.8 449.5,136.8 450.7,136.8C451.9,136.8 453.11,136.8 454.31,136.8C455.51,136.8 456.71,136.8 457.91,136.8C459.11,136.8 460.32,136.8 461.52,136.8C462.72,136.8 463.93,136.79 465.13,136.79C466.33,136.79 467.53,136.79 468.73,136.78C469.93,136.77 471.14,136.76 472.34,136.75C473.54,136.74 474.75,136.72 475.95,136.7C477.15,136.68 478.35,136.65 479.55,136.61C480.75,136.57 481.96,136.52 483.16,136.47C484.36,136.42 485.57,136.36 486.77,136.29C487.97,136.23 489.17,136.15 490.37,136.08C491.57,136.01 492.78,135.93 493.98,135.86C495.18,135.79 496.39,135.72 497.59,135.67C498.79,135.62 499.99,135.57 501.19,135.54C502.39,135.5 503.6,135.48 504.8,135.46C506,135.44 507.21,135.43 508.41,135.43C509.61,135.43 510.81,135.43 512.01,135.43C513.21,135.43 514.42,135.43 515.62,135.42C516.82,135.41 518.03,135.4 519.23,135.39C520.43,135.38 521.63,135.36 522.83,135.34C524.03,135.32 525.24,135.3 526.44,135.28C527.64,135.27 528.85,135.25 530.05,135.25C531.25,135.25 532.45,135.24 533.65,135.26C534.85,135.28 536.06,135.31 537.26,135.35C538.46,135.39 539.67,135.45 540.87,135.52C542.07,135.59 543.27,135.67 544.47,135.75C545.67,135.83 546.88,135.92 548.08,136C549.28,136.08 550.48,136.18 551.68,136.25C552.88,136.33 554.09,136.39 555.29,136.45C556.49,136.51 557.7,136.56 558.9,136.6Q560.1,136.64 562.5,136.7L562.5,136.8" style="vector-effect: none; stroke-width: 2px; stroke: rgb(124, 156, 48); stroke-opacity: 1; fill: rgb(155, 195, 60); fill-opacity: 0.5;"/><path class="meanline" d="M99.07,97.16370391845703V136.8" style="fill: none; vector-effect: none; stroke-width: 2px; stroke-dasharray: 4px, 2px; stroke: rgb(124, 156, 48); stroke-opacity: 1;"/></g><g class="trace violins" style="opacity: 1;"><path class="violin" d="M-43.62,108L-43.62,105.24Q-37.17,103.59 -34.03,102.32C-30.77,101 -27.55,99.36 -24.44,97.39C-21.15,95.3 -17.96,92.76 -14.86,90C-11.56,87.06 -8.4,83.63 -5.27,80.16C-2,76.53 1.13,72.5 4.32,68.64C7.52,64.76 10.65,60.63 13.91,56.92C17.04,53.36 20.17,49.73 23.5,46.77C26.58,44.03 29.76,41.44 33.09,39.65C36.17,38 39.43,36.78 42.67,36.18C45.82,35.6 49.08,35.68 52.26,36C55.48,36.33 58.68,37.23 61.85,38.16C65.08,39.1 68.26,40.36 71.44,41.63C74.66,42.91 77.85,44.34 81.03,45.81C84.24,47.29 87.43,48.86 90.61,50.49C93.82,52.13 97.01,53.88 100.2,55.62C103.4,57.37 106.58,59.24 109.79,60.96C112.97,62.67 116.15,64.45 119.38,65.93C122.54,67.37 125.73,68.77 128.97,69.74C132.13,70.68 135.35,71.4 138.56,71.71C141.74,72.01 144.96,71.93 148.14,71.59C151.35,71.25 154.55,70.47 157.73,69.67C160.95,68.86 164.12,67.71 167.32,66.76C170.51,65.81 173.69,64.7 176.91,63.97C180.09,63.25 183.29,62.58 186.5,62.37C189.69,62.16 192.92,62.24 196.09,62.69C199.31,63.15 202.52,64.04 205.67,65.13C208.91,66.25 212.1,67.79 215.26,69.37C218.5,70.99 221.67,72.91 224.85,74.76C228.06,76.63 231.23,78.66 234.44,80.55C237.63,82.43 240.81,84.34 244.03,86.08C247.2,87.79 250.38,89.44 253.61,90.89C256.78,92.31 259.98,93.6 263.2,94.7C266.37,95.78 269.57,96.7 272.79,97.44C275.97,98.17 279.17,98.73 282.38,99.13C285.57,99.53 288.77,99.75 291.97,99.84C295.16,99.93 298.37,99.86 301.56,99.67C304.76,99.48 307.95,99.15 311.14,98.72C314.34,98.29 317.54,97.72 320.73,97.1C323.93,96.48 327.13,95.73 330.32,95C333.52,94.27 336.71,93.45 339.91,92.73C343.1,92.01 346.3,91.26 349.5,90.67C352.69,90.08 355.88,89.55 359.08,89.18C362.27,88.81 365.47,88.58 368.67,88.45C371.86,88.32 375.06,88.35 378.26,88.39C381.46,88.43 384.65,88.6 387.85,88.71C391.05,88.82 394.24,88.97 397.44,89.03C400.64,89.09 403.83,89.1 407.03,89.05C410.22,89 413.42,88.86 416.61,88.72C419.81,88.57 423,88.34 426.2,88.18C429.4,88.02 432.59,87.83 435.79,87.74C438.99,87.65 442.18,87.58 445.38,87.62C448.58,87.66 451.78,87.78 454.97,87.97C458.17,88.16 461.37,88.43 464.56,88.74C467.76,89.05 470.95,89.44 474.14,89.84C477.34,90.24 480.53,90.7 483.73,91.16C486.93,91.62 490.12,92.12 493.32,92.61C496.52,93.1 499.71,93.6 502.91,94.11C506.11,94.62 509.3,95.13 512.5,95.65C515.69,96.17 518.89,96.69 522.08,97.23C525.28,97.77 528.47,98.32 531.67,98.88C534.87,99.45 538.06,100.04 541.26,100.62C544.46,101.2 547.65,101.8 550.85,102.36C554.05,102.92 557.24,103.49 560.44,103.99C563.63,104.49 566.83,104.97 570.03,105.38C573.22,105.79 576.41,106.14 579.61,106.44C582.8,106.73 586,106.96 589.2,107.15Q592.4,107.34 598.79,107.58L598.79,108" style="vector-effect: none; stroke-width: 2px; stroke: rgb(48, 156, 151); stroke-opacity: 1; fill: rgb(60, 195, 188); fill-opacity: 0.5;"/><path class="meanline" d="M184.3,62.58135986328125V108" style="fill: none; vector-effect: none; stroke-width: 2px; stroke-dasharray: 4px, 2px; stroke: rgb(48, 156, 151); stroke-opacity: 1;"/></g><g class="trace violins" style="opacity: 1;"><path class="violin" d="M1.26,79.2L1.26,77.77Q6.73,76.91 9.42,76.19C12.16,75.46 14.9,74.58 17.57,73.42C20.34,72.22 23.08,70.75 25.73,69.04C28.52,67.25 31.23,65.11 33.88,62.84C36.67,60.45 39.36,57.72 42.04,54.98C44.8,52.15 47.47,49.06 50.19,46.11C52.91,43.17 55.58,40.08 58.35,37.31C61.02,34.65 63.69,31.97 66.5,29.77C69.14,27.71 71.85,25.8 74.66,24.42C77.3,23.12 80.06,22.18 82.81,21.57C85.49,20.97 88.25,20.86 90.97,20.75C93.68,20.64 96.4,20.9 99.12,20.9C101.84,20.9 104.57,20.99 107.28,20.73C110.01,20.47 112.74,20.02 115.43,19.32C118.18,18.6 120.9,17.53 123.59,16.43C126.33,15.31 129.01,13.87 131.74,12.65C134.45,11.44 137.14,10.06 139.9,9.15C142.58,8.26 145.31,7.46 148.05,7.2C150.75,6.95 153.53,7.08 156.21,7.59C158.96,8.11 161.69,9.18 164.36,10.35C167.13,11.56 169.82,13.21 172.52,14.79C175.26,16.39 177.94,18.23 180.67,19.9C183.38,21.56 186.09,23.24 188.83,24.77C191.53,26.28 194.25,27.68 196.98,29.04C199.69,30.39 202.42,31.61 205.14,32.89C207.86,34.16 210.58,35.39 213.29,36.69C216.02,38 218.73,39.37 221.45,40.71C224.17,42.05 226.86,43.49 229.6,44.74C232.3,45.98 235.01,47.26 237.76,48.19C240.44,49.1 243.17,49.91 245.91,50.3C248.61,50.68 251.36,50.77 254.07,50.54C256.8,50.31 259.53,49.65 262.22,48.88C264.97,48.09 267.67,46.91 270.38,45.81C273.11,44.7 275.8,43.35 278.53,42.26C281.23,41.18 283.93,40.05 286.68,39.3C289.37,38.57 292.11,37.98 294.84,37.79C297.55,37.6 300.29,37.75 302.99,38.16C305.73,38.58 308.46,39.4 311.15,40.33C313.9,41.28 316.6,42.56 319.3,43.81C322.04,45.08 324.74,46.54 327.46,47.88C330.17,49.21 332.87,50.62 335.61,51.81C338.31,52.98 341.02,54.12 343.77,54.97C346.46,55.81 349.18,56.52 351.92,56.91C354.62,57.3 357.37,57.45 360.08,57.34C362.8,57.23 365.53,56.81 368.23,56.25C370.97,55.69 373.69,54.82 376.39,53.96C379.12,53.09 381.82,51.99 384.54,51.07C387.25,50.15 389.96,49.15 392.7,48.44C395.4,47.74 398.12,47.12 400.85,46.84C403.56,46.56 406.3,46.53 409.01,46.73C411.74,46.93 414.46,47.47 417.16,48.04C419.89,48.61 422.6,49.46 425.32,50.16C428.04,50.86 430.74,51.68 433.47,52.25C436.18,52.82 438.9,53.3 441.63,53.6C444.34,53.9 447.06,53.98 449.78,54.06C452.5,54.14 455.22,54 457.94,54.06C460.66,54.12 463.38,54.11 466.09,54.4C468.82,54.69 471.56,55.13 474.25,55.81C476.99,56.51 479.71,57.48 482.4,58.56C485.15,59.67 487.86,61.06 490.56,62.41C493.29,63.77 495.98,65.32 498.71,66.71C501.42,68.09 504.13,69.51 506.87,70.73C509.56,71.93 512.28,73.06 515.02,73.99C517.72,74.91 520.45,75.66 523.18,76.29C525.88,76.91 528.61,77.36 531.33,77.73Q534.04,78.1 539.49,78.53L539.49,79.2" style="vector-effect: none; stroke-width: 2px; stroke: rgb(133, 41, 163); stroke-opacity: 1; fill: rgb(166, 51, 204); fill-opacity: 0.5;"/><path class="meanline" d="M228.68,44.3124885559082V79.2" style="fill: none; vector-effect: none; stroke-width: 2px; stroke-dasharray: 4px, 2px; stroke: rgb(133, 41, 163); stroke-opacity: 1;"/></g></g></g><g class="overplot"/><path class="xlines-above crisp" d="M0,0" style="fill: none;"/><path class="ylines-above crisp" d="M0,0" style="fill: none;"/><g class="overlines-above"/><g class="xaxislayer-above"><g class="xtick"><text text-anchor="middle" x="0" y="157" transform="translate(35,0)" style="font-family: 'Open Sans', verdana, arial, sans-serif; font-size: 12px; fill: rgb(242, 245, 250); fill-opacity: 1; white-space: pre; opacity: 0;"><tspan class="line" dy="0em" x="0" y="157">00:00:00</tspan><tspan class="line" dy="1.3em" x="0" y="157">Jan 1, 1970</tspan></text></g><g class="xtick"><text text-anchor="middle" x="0" y="157" style="font-family: 'Open Sans', verdana, arial, sans-serif; font-size: 12px; fill: rgb(242, 245, 250); fill-opacity: 1; white-space: pre; opacity: 0;" transform="translate(756,0)">00:00:00.0001</text></g></g><g class="yaxislayer-above"/><g class="overaxes-above"/></g></g><g class="polarlayer"/><g class="smithlayer"/><g class="ternarylayer"/><g class="geolayer"/><g class="funnelarealayer"/><g class="pielayer"/><g class="iciclelayer"/><g class="treemaplayer"/><g class="sunburstlayer"/><g class="glimages"/><defs id="topdefs-925dd2"><g class="clips"/></defs><g class="layer-above"><g class="imagelayer"/><g class="shapelayer"/></g><g class="infolayer"><g class="g-gtitle"/><g class="g-xtitle" transform="translate(0,-2.9093750000000114)"><text class="xtitle" x="395.5" y="199.909375" text-anchor="middle" style="font-family: 'Open Sans', verdana, arial, sans-serif; font-size: 14px; fill: rgb(242, 245, 250); opacity: 1; white-space: pre;">Created</text></g><g class="g-ytitle"/></g></svg>