<svg class="main-svg" xmlns="http://www.w3.org/2000/svg" xmlns:xlink="http://www.w3.org/1999/xlink" width="800" height="200" style="" viewBox="0 0 800 200"><rect x="0" y="0" width="800" height="200" style="fill: rgb(0, 0, 0); fill-opacity: 0;"/><defs id="defs-1fa2b1"><g class="clips"><clipPath id="clip1fa2b1xyplot" class="plotclip"><rect width="800" height="159"/></clipPath><clipPath class="axesclip" id="clip1fa2b1x"><rect x="0" y="0" width="800" height="200"/></clipPath><clipPath class="axesclip" id="clip1fa2b1y"><rect x="0" y="0" width="800" height="159"/></clipPath><clipPath class="axesclip" id="clip1fa2b1xy"><rect x="0" y="0" width="800" height="159"/></clipPath></g><g class="gradients"/><g class="patterns"/></defs><g class="bglayer"><rect class="bg" x="0" y="0" width="800" height="159" style="fill: rgb(0, 0, 0); fill-opacity: 0; stroke-width: 0;"/></g><g class="layer-below"><g class="imagelayer"/><g class="shapelayer"/></g><g class="cartesianlayer"><g class="subplot xy"><g class="layer-subplot"><g class="shapelayer"/><g class="imagelayer"/></g><g class="minor-gridlayer"><g class="x"/><g class="y"/></g><g class="gridlayer"><g class="x"><path class="xgrid crisp" transform="translate(139.8,0)" d="M0,0v159" style="stroke: rgb(40, 52, 66); stroke-opacity: 1; stroke-width: 1px;"/><path class="xgrid crisp" transform="translate(222.38,0)" d="M0,0v159" style="stroke: rgb(40, 52, 66); stroke-opacity: 1; stroke-width: 1px;"/><path class="xgrid crisp" transform="translate(304.96,0)" d="M0,0v159" style="stroke: rgb(40, 52, 66); stroke-opacity: 1; stroke-width: 1px;"/><path class="xgrid crisp" transform="translate(387.54,0)" d="M0,0v159" style="stroke: rgb(40, 52, 66); stroke-opacity: 1; stroke-width: 1px;"/><path class="xgrid crisp" transform="translate(470.12,0)" d="M0,0v159" style="stroke: rgb(40, 52, 66); stroke-opacity: 1; stroke-width: 1px;"/><path class="xgrid crisp" transform="translate(552.7,0)" d="M0,0v159" style="stroke: rgb(40, 52, 66); stroke-opacity: 1; stroke-width: 1px;"/><path class="xgrid crisp" transform="translate(635.28,0)" d="M0,0v159" style="stroke: rgb(40, 52, 66); stroke-opacity: 1; stroke-width: 1px;"/><path class="xgrid crisp" transform="translate(717.86,0)" d="M0,0v159" style="stroke: rgb(40, 52, 66); stroke-opacity: 1; stroke-width: 1px;"/></g><g class="y"/></g><g class="zerolinelayer"><path class="xzl zl crisp" transform="translate(57.22,0)" d="M0,0v159" style="stroke: rgb(40, 52, 66); stroke-opacity: 1; stroke-width: 2px;"/></g><g class="layer-between"><g class="shapelayer"/><g class="imagelayer"/></g><path class="xlines-below"/><path class="ylines-below"/><g class="overlines-below"/><g class="xaxislayer-below"/><g class="yaxislayer-below"/><g class="overaxes-below"/><g class="plot" transform="" clip-path="url(#clip1fa2b1xyplot)"><g class="violinlayer mlayer"><g class="trace violins" style="opacity: 1;"><path class="violin" d="M40,151.05L40,150.78Q43.75,150.61 45.62,150.47C47.49,150.33 49.36,150.16 51.23,149.93C53.11,149.69 54.98,149.41 56.85,149.06C58.73,148.71 60.6,148.29 62.47,147.82C64.35,147.35 66.21,146.8 68.08,146.24C69.96,145.68 71.83,145.05 73.7,144.44C75.57,143.83 77.44,143.19 79.32,142.59C81.19,142 83.06,141.41 84.94,140.87C86.81,140.34 88.67,139.84 90.55,139.38C92.42,138.92 94.29,138.51 96.17,138.11C98.04,137.72 99.92,137.35 101.79,137.01C103.66,136.67 105.53,136.34 107.4,136.06C109.27,135.79 111.14,135.53 113.02,135.36C114.89,135.19 116.77,135.07 118.64,135.06C120.51,135.05 122.38,135.14 124.25,135.32C126.13,135.5 128,135.81 129.87,136.16C131.75,136.51 133.62,136.97 135.49,137.4C137.36,137.83 139.23,138.34 141.1,138.76C142.97,139.17 144.84,139.59 146.72,139.89C148.59,140.19 150.46,140.44 152.34,140.57C154.21,140.7 156.08,140.73 157.95,140.69C159.82,140.65 161.7,140.49 163.57,140.31C165.45,140.12 167.32,139.85 169.19,139.58C171.07,139.31 172.94,139 174.81,138.7C176.68,138.41 178.55,138.1 180.42,137.81C182.29,137.52 184.17,137.24 186.04,136.95C187.91,136.66 189.79,136.39 191.66,136.08C193.53,135.77 195.4,135.45 197.27,135.09C199.15,134.73 201.02,134.32 202.89,133.9C204.77,133.48 206.64,133.01 208.51,132.55C210.38,132.09 212.25,131.58 214.12,131.12C215.99,130.66 217.86,130.2 219.74,129.78C221.61,129.36 223.49,128.96 225.36,128.58C227.23,128.2 229.1,127.87 230.97,127.5C232.84,127.13 234.72,126.79 236.59,126.35C238.47,125.9 240.35,125.44 242.21,124.83C244.1,124.21 245.97,123.5 247.82,122.65C249.72,121.78 251.59,120.75 253.44,119.64C255.34,118.49 257.21,117.18 259.06,115.85C260.95,114.49 262.81,113 264.68,111.55C266.56,110.1 268.41,108.58 270.29,107.15C272.15,105.73 274.02,104.32 275.91,102.99C277.77,101.68 279.64,100.41 281.53,99.2C283.39,98.01 285.26,96.88 287.14,95.78C289,94.7 290.87,93.65 292.76,92.66C294.62,91.68 296.49,90.72 298.38,89.88C300.23,89.05 302.1,88.24 303.99,87.63C305.84,87.03 307.72,86.5 309.61,86.23C311.47,85.96 313.37,85.83 315.23,86C317.11,86.18 319.02,86.6 320.84,87.3C322.77,88.04 324.66,89.12 326.46,90.41C328.42,91.81 330.28,93.58 332.08,95.48C334.03,97.54 335.87,99.94 337.69,102.38C339.62,104.97 341.46,107.81 343.31,110.62C345.21,113.49 347.04,116.52 348.93,119.42C350.79,122.28 352.63,125.19 354.55,127.88C356.38,130.45 358.22,132.97 360.16,135.22C361.97,137.32 363.83,139.3 365.78,141C367.59,142.58 369.47,143.98 371.4,145.14C373.22,146.24 375.11,147.12 377.01,147.84C378.85,148.54 380.74,149.04 382.63,149.45Q384.49,149.86 388.25,150.31L388.25,151.05" style="vector-effect: none; stroke-width: 2px; stroke: rgb(162, 162, 42); stroke-opacity: 1; fill: rgb(203, 203, 52); fill-opacity: 0.5;"/><path class="meanline" d="M260.75,114.59907531738281V151.05" style="fill: none; vector-effect: none; stroke-width: 2px; stroke-dasharray: 4px, 2px; stroke: rgb(162, 162, 42); stroke-opacity: 1;"/></g><g class="trace violins" style="opacity: 1;"><path class="violin" d="M266.19,125.03L266.19,124.62Q269.1,124.37 270.55,124.15C272.01,123.93 273.47,123.67 274.91,123.3C276.37,122.93 277.83,122.48 279.27,121.93C280.74,121.37 282.2,120.69 283.63,119.94C285.11,119.16 286.55,118.26 287.99,117.33C289.46,116.38 290.89,115.31 292.34,114.27C293.8,113.22 295.24,112.11 296.7,111.08C298.14,110.06 299.59,109.03 301.06,108.13C302.49,107.25 303.94,106.43 305.42,105.74C306.85,105.07 308.31,104.51 309.78,104.04C311.22,103.57 312.68,103.24 314.14,102.91C315.59,102.58 317.05,102.36 318.5,102.07C319.95,101.78 321.41,101.52 322.85,101.15C324.31,100.78 325.77,100.38 327.21,99.85C328.68,99.31 330.14,98.69 331.57,97.94C333.05,97.16 334.51,96.27 335.93,95.25C337.42,94.18 338.88,92.96 340.29,91.63C341.79,90.21 343.24,88.62 344.65,86.94C346.14,85.17 347.57,83.21 349,81.25C350.48,79.22 351.9,77.03 353.36,74.94C354.81,72.86 356.22,70.68 357.72,68.75C359.13,66.93 360.54,65.07 362.08,63.66C363.46,62.4 364.91,61.16 366.44,60.56C367.83,60.01 369.38,59.79 370.8,59.99C372.28,60.2 373.76,61.02 375.15,61.9C376.68,62.87 378.09,64.33 379.51,65.7C381,67.15 382.41,68.86 383.87,70.39C385.31,71.9 386.73,73.51 388.23,74.83C389.64,76.07 391.08,77.29 392.59,78.14C393.99,78.92 395.47,79.52 396.95,79.84C398.38,80.15 399.85,80.13 401.3,80.07C402.76,80.01 404.21,79.65 405.66,79.47C407.11,79.29 408.57,78.98 410.02,79.01C411.48,79.04 412.97,79.19 414.38,79.66C415.88,80.16 417.35,81.01 418.74,82.01C420.27,83.11 421.69,84.6 423.1,86.09C424.6,87.68 426.01,89.54 427.45,91.29C428.91,93.06 430.32,94.98 431.81,96.67C433.23,98.29 434.66,99.91 436.17,101.24C437.57,102.47 439.02,103.59 440.53,104.43C441.94,105.21 443.41,105.76 444.89,106.18C446.32,106.59 447.79,106.74 449.25,106.94C450.7,107.14 452.15,107.19 453.6,107.36C455.05,107.53 456.51,107.7 457.96,107.95C459.42,108.21 460.87,108.56 462.32,108.89C463.78,109.22 465.22,109.66 466.68,109.93C468.13,110.2 469.59,110.49 471.04,110.52C472.49,110.55 473.97,110.45 475.4,110.09C476.88,109.71 478.35,109.05 479.75,108.25C481.26,107.39 482.7,106.22 484.11,105.01C485.61,103.73 487.03,102.21 488.47,100.75C489.94,99.26 491.36,97.63 492.83,96.15C494.27,94.71 495.68,93.21 497.19,92C498.6,90.87 500.04,89.75 501.55,89.05C502.95,88.4 504.45,87.89 505.91,87.81C507.35,87.73 508.86,88.02 510.26,88.53C511.77,89.08 513.22,90.06 514.62,91.11C516.14,92.26 517.56,93.74 518.98,95.23C520.48,96.8 521.9,98.58 523.34,100.32C524.81,102.09 526.24,103.97 527.7,105.75C529.14,107.5 530.58,109.29 532.06,110.92C533.48,112.48 534.92,114.01 536.41,115.36C537.82,116.64 539.28,117.83 540.77,118.85C542.19,119.82 543.65,120.66 545.13,121.36C546.56,122.03 548.02,122.56 549.49,123C550.93,123.43 552.39,123.73 553.85,123.99C555.3,124.24 556.76,124.4 558.21,124.54Q559.66,124.68 562.56,124.82L562.56,125.03" style="vector-effect: none; stroke-width: 2px; stroke: rgb(81, 123, 98); stroke-opacity: 1; fill: rgb(101, 154, 123); fill-opacity: 0.5;"/><path class="meanline" d="M406.26,79.38939666748047V125.03" style="fill: none; vector-effect: none; stroke-width: 2px; stroke-dasharray: 4px, 2px; stroke: rgb(81, 123, 98); stroke-opacity: 1;"/></g><g class="trace violins" style="opacity: 1;"><path class="violin" d="M308.25,99.01L308.25,98.96Q310.63,98.92 311.82,98.89C313.01,98.86 314.19,98.83 315.38,98.77C316.57,98.71 317.76,98.65 318.95,98.55C320.14,98.45 321.33,98.34 322.52,98.17C323.71,98 324.91,97.8 326.09,97.54C327.29,97.27 328.48,96.97 329.66,96.57C330.86,96.16 332.06,95.68 333.23,95.11C334.44,94.52 335.63,93.83 336.79,93.05C338.01,92.24 339.2,91.31 340.36,90.31C341.58,89.26 342.76,88.09 343.93,86.87C345.15,85.6 346.33,84.23 347.5,82.84C348.71,81.41 349.88,79.91 351.07,78.42C352.26,76.92 353.44,75.38 354.64,73.89C355.82,72.42 356.99,70.95 358.2,69.56C359.37,68.22 360.56,66.91 361.77,65.7C362.94,64.53 364.13,63.44 365.34,62.4C366.51,61.39 367.71,60.48 368.91,59.56C370.09,58.66 371.29,57.82 372.48,56.93C373.67,56.04 374.87,55.16 376.05,54.23C377.25,53.28 378.43,52.29 379.61,51.28C380.81,50.26 381.99,49.19 383.18,48.14C384.37,47.1 385.55,46.01 386.75,45.01C387.93,44.03 389.11,43.06 390.32,42.17C391.49,41.31 392.68,40.5 393.89,39.76C395.06,39.04 396.26,38.39 397.46,37.78C398.64,37.18 399.82,36.64 401.02,36.14C402.2,35.65 403.39,35.17 404.59,34.81C405.77,34.45 406.96,34.11 408.16,33.97C409.34,33.83 410.56,33.77 411.73,33.97C412.94,34.17 414.15,34.59 415.3,35.19C416.54,35.83 417.72,36.78 418.86,37.78C420.1,38.86 421.26,40.19 422.43,41.5C423.64,42.86 424.81,44.37 426,45.79C427.19,47.2 428.36,48.66 429.57,50C430.74,51.3 431.93,52.55 433.14,53.73C434.31,54.87 435.52,55.91 436.71,56.98C437.89,58.04 439.09,59.03 440.27,60.1C441.47,61.18 442.66,62.29 443.84,63.44C445.04,64.62 446.22,65.87 447.41,67.09C448.6,68.31 449.77,69.6 450.98,70.75C452.15,71.86 453.32,72.99 454.55,73.88C455.7,74.71 456.89,75.48 458.12,75.96C459.27,76.41 460.49,76.66 461.68,76.74C462.86,76.81 464.07,76.61 465.25,76.42C466.45,76.23 467.63,75.83 468.82,75.58C470.01,75.33 471.2,75.01 472.39,74.92C473.58,74.83 474.78,74.81 475.96,75.01C477.16,75.21 478.37,75.63 479.53,76.13C480.75,76.66 481.92,77.4 483.09,78.14C484.3,78.9 485.47,79.8 486.66,80.63C487.85,81.46 489.02,82.34 490.23,83.1C491.4,83.84 492.59,84.57 493.8,85.13C494.97,85.67 496.16,86.13 497.37,86.44C498.54,86.74 499.75,86.91 500.94,86.96C502.12,87.01 503.32,86.92 504.5,86.75C505.7,86.57 506.89,86.26 508.07,85.9C509.27,85.54 510.46,85.07 511.64,84.59C512.84,84.11 514.02,83.54 515.21,83.02C516.4,82.49 517.58,81.93 518.78,81.44C519.96,80.95 521.15,80.48 522.35,80.09C523.53,79.71 524.71,79.36 525.91,79.11C527.09,78.86 528.29,78.69 529.48,78.58C530.67,78.47 531.86,78.44 533.05,78.46C534.24,78.48 535.43,78.55 536.62,78.69C537.81,78.83 539.01,79.03 540.19,79.31C541.39,79.59 542.58,79.94 543.76,80.38C544.96,80.82 546.15,81.36 547.32,81.96C548.53,82.57 549.71,83.29 550.89,84.03C552.09,84.78 553.27,85.61 554.46,86.43C555.65,87.25 556.84,88.13 558.03,88.95C559.22,89.77 560.4,90.59 561.6,91.35C562.78,92.1 563.96,92.82 565.16,93.47C566.34,94.11 567.53,94.69 568.73,95.21C569.91,95.72 571.1,96.16 572.3,96.55C573.48,96.93 574.67,97.25 575.87,97.52C577.05,97.79 578.25,97.99 579.44,98.17C580.63,98.35 581.82,98.47 583.01,98.58Q584.2,98.68 586.57,98.8L586.57,99.01" style="vector-effect: none; stroke-width: 2px; stroke: rgb(47, 117, 157); stroke-opacity: 1; fill: rgb(59, 146, 196); fill-opacity: 0.5;"/><path class="meanline" d="M430.55,51.071502685546875V99.01" style="fill: none; vector-effect: none; stroke-width: 2px; stroke-dasharray: 4px, 2px; stroke: rgb(47, 117, 157); stroke-opacity: 1;"/></g><g class="trace violins" style="opacity: 1;"><path class="violin" d="M448.63,73L448.63,72.93Q451.01,72.89 452.2,72.86C453.39,72.83 454.59,72.8 455.78,72.76C456.97,72.72 458.17,72.67 459.36,72.62C460.55,72.57 461.75,72.51 462.94,72.46C464.13,72.4 465.33,72.34 466.52,72.29C467.71,72.24 468.91,72.19 470.1,72.15C471.29,72.11 472.49,72.08 473.68,72.05C474.87,72.03 476.07,72.02 477.26,72C478.45,71.98 479.65,71.97 480.84,71.95C482.03,71.93 483.23,71.91 484.42,71.88C485.61,71.85 486.8,71.81 487.99,71.75C489.18,71.69 490.38,71.6 491.57,71.5C492.76,71.39 493.96,71.28 495.15,71.12C496.35,70.96 497.54,70.78 498.73,70.55C499.93,70.32 501.12,70.06 502.31,69.76C503.51,69.45 504.7,69.1 505.89,68.72C507.09,68.33 508.28,67.9 509.47,67.44C510.67,66.97 511.86,66.46 513.05,65.94C514.25,65.41 515.44,64.84 516.63,64.28C517.83,63.72 519.02,63.13 520.21,62.56C521.4,61.99 522.59,61.41 523.79,60.88C524.98,60.35 526.16,59.84 527.36,59.39C528.54,58.95 529.74,58.54 530.94,58.21C532.13,57.88 533.32,57.62 534.52,57.42C535.71,57.23 536.91,57.11 538.1,57.04C539.29,56.97 540.49,56.98 541.68,56.99C542.87,57 544.07,57.06 545.26,57.1C546.45,57.13 547.65,57.2 548.84,57.2C550.03,57.2 551.23,57.19 552.42,57.1C553.62,57.01 554.81,56.88 556,56.68C557.2,56.48 558.4,56.21 559.58,55.88C560.78,55.55 561.97,55.14 563.15,54.7C564.35,54.25 565.55,53.75 566.73,53.2C567.93,52.64 569.13,52.05 570.31,51.39C571.52,50.72 572.72,50.01 573.89,49.21C575.11,48.38 576.31,47.49 577.47,46.49C578.7,45.43 579.9,44.26 581.05,42.98C582.29,41.61 583.47,40.08 584.63,38.47C585.87,36.74 587.04,34.84 588.21,32.92C589.43,30.91 590.6,28.75 591.79,26.65C592.99,24.53 594.15,22.31 595.37,20.25C596.54,18.28 597.69,16.26 598.94,14.53C600.08,12.96 601.23,11.38 602.52,10.26C603.64,9.28 604.85,8.37 606.1,8C607.25,7.66 608.53,7.66 609.68,7.95C610.92,8.27 612.12,9.1 613.26,9.97C614.53,10.94 615.68,12.29 616.84,13.61C618.08,15.02 619.24,16.65 620.42,18.22C621.62,19.82 622.8,21.51 624,23.1C625.18,24.66 626.36,26.25 627.58,27.7C628.75,29.08 629.93,30.42 631.16,31.62C632.32,32.75 633.5,33.8 634.73,34.71C635.89,35.57 637.09,36.32 638.31,36.96C639.48,37.57 640.68,38.08 641.89,38.49C643.07,38.89 644.27,39.19 645.47,39.42C646.66,39.65 647.85,39.78 649.05,39.87C650.24,39.96 651.44,39.98 652.63,39.97C653.82,39.96 655.02,39.89 656.21,39.83C657.4,39.77 658.6,39.67 659.79,39.6C660.98,39.54 662.18,39.46 663.37,39.44C664.56,39.42 665.76,39.43 666.95,39.48C668.14,39.53 669.33,39.63 670.52,39.75C671.71,39.88 672.91,40.05 674.1,40.23C675.29,40.41 676.49,40.62 677.68,40.82C678.87,41.02 680.07,41.22 681.26,41.43C682.45,41.64 683.65,41.84 684.84,42.08C686.04,42.32 687.23,42.56 688.42,42.86C689.62,43.16 690.82,43.49 692,43.9C693.2,44.31 694.4,44.79 695.58,45.33C696.79,45.88 697.98,46.51 699.16,47.17C700.36,47.84 701.55,48.58 702.74,49.32C703.94,50.06 705.12,50.85 706.31,51.62C707.5,52.39 708.69,53.18 709.89,53.94C711.08,54.7 712.27,55.45 713.47,56.19C714.66,56.93 715.86,57.65 717.05,58.37C718.24,59.09 719.44,59.81 720.63,60.53C721.82,61.24 723.01,61.96 724.21,62.66C725.4,63.36 726.59,64.07 727.79,64.74C728.98,65.41 730.17,66.07 731.37,66.68C732.56,67.29 733.75,67.87 734.95,68.4C736.13,68.92 737.33,69.4 738.53,69.83C739.71,70.25 740.9,70.63 742.1,70.95C743.29,71.27 744.48,71.53 745.68,71.75C746.87,71.97 748.06,72.14 749.26,72.29C750.45,72.44 751.65,72.54 752.84,72.63C754.03,72.72 755.23,72.77 756.42,72.82Q757.61,72.87 760,72.92L760,73" style="vector-effect: none; stroke-width: 2px; stroke: rgb(117, 70, 134); stroke-opacity: 1; fill: rgb(146, 88, 167); fill-opacity: 0.5;"/><path class="meanline" d="M624.05,23.165817260742188V73" style="fill: none; vector-effect: none; stroke-width: 2px; stroke-dasharray: 4px, 2px; stroke: rgb(117, 70, 134); stroke-opacity: 1;"/></g></g></g><g class="overplot"/><path class="xlines-above crisp" d="M0,0" style="fill: none;"/><path class="ylines-above crisp" d="M0,0" style="fill: none;"/><g class="overlines-above"/><g class="xaxislayer-above"><g class="xtick"><text text-anchor="middle" x="0" y="172" transform="translate(57.22,0)" style="font-family: 'Open Sans', verdana, arial, sans-serif; font-size: 12px; fill: rgb(242, 245, 250); fill-opacity: 1; white-space: pre; opacity: 1;">0</text></g><g class="xtick"><text text-anchor="middle" x="0" y="172" style="font-family: 'Open Sans', verdana, arial, sans-serif; font-size: 12px; fill: rgb(242, 245, 250); fill-opacity: 1; white-space: pre; opacity: 1;" transform="translate(139.8,0)">20</text></g><g class="xtick"><text text-anchor="middle" x="0" y="172" style="font-family: 'Open Sans', verdana, arial, sans-serif; font-size: 12px; fill: rgb(242, 245, 250); fill-opacity: 1; white-space: pre; opacity: 1;" transform="translate(222.38,0)">40</text></g><g class="xtick"><text text-anchor="middle" x="0" y="172" style="font-family: 'Open Sans', verdana, arial, sans-serif; font-size: 12px; fill: rgb(242, 245, 250); fill-opacity: 1; white-space: pre; opacity: 1;" transform="translate(304.96,0)">60</text></g><g class="xtick"><text text-anchor="middle" x="0" y="172" style="font-family: 'Open Sans', verdana, arial, sans-serif; font-size: 12px; fill: rgb(242, 245, 250); fill-opacity: 1; white-space: pre; opacity: 1;" transform="translate(387.54,0)">80</text></g><g class="xtick"><text text-anchor="middle" x="0" y="172" style="font-family: 'Open Sans', verdana, arial, sans-serif; font-size: 12px; fill: rgb(242, 245, 250); fill-opacity: 1; white-space: pre; opacity: 1;" transform="translate(470.12,0)">100</text></g><g class="xtick"><text text-anchor="middle" x="0" y="172" style="font-family: 'Open Sans', verdana, arial, sans-serif; font-size: 12px; fill: rgb(242, 245, 250); fill-opacity: 1; white-space: pre; opacity: 1;" transform="translate(552.7,0)">120</text></g><g class="xtick"><text text-anchor="middle" x="0" y="172" style="font-family: 'Open Sans', verdana, arial, sans-serif; font-size: 12px; fill: rgb(242, 245, 250); fill-opacity: 1; white-space: pre; opacity: 1;" transform="translate(635.28,0)">140</text></g><g class="xtick"><text text-anchor="middle" x="0" y="172" style="font-family: 'Open Sans', verdana, arial, sans-serif; font-size: 12px; fill: rgb(242, 245, 250); fill-opacity: 1; white-space: pre; opacity: 1;" transform="translate(717.86,0)">160</text></g></g><g class="yaxislayer-above"/><g class="overaxes-above"/></g></g><g class="polarlayer"/><g class="smithlayer"/><g class="ternarylayer"/><g class="geolayer"/><g class="funnelarealayer"/><g class="pielayer"/><g class="iciclelayer"/><g class="treemaplayer"/><g class="sunburstlayer"/><g class="glimages"/><defs id="topdefs-1fa2b1"><g class="clips"/></defs><g class="layer-above"><g class="imagelayer"/><g class="shapelayer"/></g><g class="infolayer"><g class="g-gtitle"/><g class="g-xtitle" transform="translate(0,-2.3000000000000114)"><text class="xtitle" x="400" y="199.3" text-anchor="middle" style="font-family: 'Open Sans', verdana, arial, sans-serif; font-size: 14px; fill: rgb(242, 245, 250); opacity: 1; white-space: pre;">Max Energy</text></g><g class="g-ytitle"/></g></svg>