<svg class="main-svg" xmlns="http://www.w3.org/2000/svg" xmlns:xlink="http://www.w3.org/1999/xlink" width="800" height="200" style="" viewBox="0 0 800 200"><rect x="0" y="0" width="800" height="200" style="fill: rgb(0, 0, 0); fill-opacity: 0;"/><defs id="defs-9a26f0"><g class="clips"><clipPath id="clip9a26f0xyplot" class="plotclip"><rect width="800" height="159"/></clipPath><clipPath class="axesclip" id="clip9a26f0x"><rect x="0" y="0" width="800" height="200"/></clipPath><clipPath class="axesclip" id="clip9a26f0y"><rect x="0" y="0" width="800" height="159"/></clipPath><clipPath class="axesclip" id="clip9a26f0xy"><rect x="0" y="0" width="800" height="159"/></clipPath></g><g class="gradients"/><g class="patterns"/></defs><g class="bglayer"><rect class="bg" x="0" y="0" width="800" height="159" style="fill: rgb(0, 0, 0); fill-opacity: 0; stroke-width: 0;"/></g><g class="layer-below"><g class="imagelayer"/><g class="shapelayer"/></g><g class="cartesianlayer"><g class="subplot xy"><g class="layer-subplot"><g class="shapelayer"/><g class="imagelayer"/></g><g class="minor-gridlayer"><g class="x"/><g class="y"/></g><g class="gridlayer"><g class="x"><path class="xgrid crisp" transform="translate(181.25,0)" d="M0,0v159" style="stroke: rgb(40, 52, 66); stroke-opacity: 1; stroke-width: 1px;"/><path class="xgrid crisp" transform="translate(323.52,0)" d="M0,0v159" style="stroke: rgb(40, 52, 66); stroke-opacity: 1; stroke-width: 1px;"/><path class="xgrid crisp" transform="translate(465.8,0)" d="M0,0v159" style="stroke: rgb(40, 52, 66); stroke-opacity: 1; stroke-width: 1px;"/><path class="xgrid crisp" transform="translate(608.08,0)" d="M0,0v159" style="stroke: rgb(40, 52, 66); stroke-opacity: 1; stroke-width: 1px;"/><path class="xgrid crisp" transform="translate(750.36,0)" d="M0,0v159" style="stroke: rgb(40, 52, 66); stroke-opacity: 1; stroke-width: 1px;"/></g><g class="y"/></g><g class="zerolinelayer"><path class="xzl zl crisp" transform="translate(38.97,0)" d="M0,0v159" style="stroke: rgb(40, 52, 66); stroke-opacity: 1; stroke-width: 2px;"/></g><g class="layer-between"><g class="shapelayer"/><g class="imagelayer"/></g><path class="xlines-below"/><path class="ylines-below"/><g class="overlines-below"/><g class="xaxislayer-below"/><g class="yaxislayer-below"/><g class="overaxes-below"/><g class="plot" transform="" clip-path="url(#clip9a26f0xyplot)"><g class="violinlayer mlayer"><g class="trace violins" style="opacity: 1;"><path class="violin" d="M40,151.05L40,150.02Q43.17,149.42 44.73,148.95C46.32,148.47 47.91,147.89 49.46,147.16C51.07,146.4 52.65,145.48 54.19,144.44C55.81,143.35 57.38,142.07 58.93,140.73C60.54,139.33 62.1,137.75 63.66,136.19C65.25,134.59 66.81,132.87 68.39,131.24C69.96,129.63 71.51,127.95 73.12,126.46C74.67,125.03 76.22,123.61 77.85,122.46C79.38,121.38 80.96,120.4 82.58,119.72C84.12,119.07 85.72,118.63 87.31,118.41C88.87,118.19 90.47,118.25 92.04,118.38C93.63,118.51 95.21,118.88 96.78,119.21C98.36,119.54 99.93,120.01 101.51,120.37C103.08,120.73 104.66,121.12 106.24,121.37C107.81,121.61 109.39,121.81 110.97,121.85C112.55,121.89 114.13,121.82 115.7,121.63C117.28,121.44 118.86,121.1 120.43,120.7C122.02,120.3 123.59,119.76 125.16,119.23C126.75,118.7 128.32,118.05 129.9,117.51C131.47,116.97 133.04,116.41 134.63,115.97C136.2,115.54 137.78,115.17 139.36,114.91C140.93,114.65 142.51,114.54 144.09,114.39C145.67,114.24 147.25,114.24 148.82,114.03C150.4,113.82 152,113.63 153.55,113.13C155.16,112.61 156.76,111.89 158.28,110.95C159.92,109.93 161.49,108.57 163.01,107.14C164.65,105.6 166.19,103.74 167.75,101.94C169.35,100.1 170.88,98.05 172.48,96.21C174.03,94.43 175.56,92.57 177.21,91.07C178.73,89.69 180.29,88.34 181.94,87.49C183.45,86.71 185.08,86.15 186.67,86C188.23,85.86 189.86,86.14 191.4,86.58C193.01,87.04 194.58,87.9 196.13,88.75C197.74,89.63 199.29,90.77 200.87,91.8C202.45,92.83 204,93.98 205.6,94.92C207.15,95.83 208.72,96.75 210.33,97.36C211.87,97.94 213.47,98.39 215.06,98.55C216.63,98.71 218.23,98.59 219.79,98.33C221.38,98.06 222.96,97.5 224.52,96.95C226.11,96.39 227.67,95.63 229.25,94.97C230.83,94.31 232.39,93.6 233.98,92.99C235.55,92.39 237.13,91.83 238.72,91.34C240.29,90.85 241.87,90.43 243.45,90.05C245.02,89.67 246.6,89.32 248.18,89.05C249.75,88.78 251.33,88.49 252.91,88.42C254.48,88.35 256.09,88.31 257.64,88.61C259.24,88.92 260.86,89.46 262.37,90.31C264.03,91.24 265.61,92.6 267.1,94.12C268.78,95.83 270.33,97.99 271.84,100.21C273.5,102.64 275.03,105.43 276.57,108.19C278.18,111.08 279.72,114.18 281.3,117.17C282.87,120.14 284.42,123.21 286.03,126.07C287.57,128.8 289.12,131.52 290.76,133.96C292.28,136.22 293.83,138.38 295.49,140.24C297,141.94 298.58,143.48 300.22,144.75C301.74,145.93 303.33,146.9 304.95,147.69Q306.49,148.44 309.69,149.41L309.69,151.05" style="vector-effect: none; stroke-width: 2px; stroke: rgb(162, 162, 42); stroke-opacity: 1; fill: rgb(203, 203, 52); fill-opacity: 0.5;"/><path class="meanline" d="M190.04,86.2435073852539V151.05" style="fill: none; vector-effect: none; stroke-width: 2px; stroke-dasharray: 4px, 2px; stroke: rgb(162, 162, 42); stroke-opacity: 1;"/></g><g class="trace violins" style="opacity: 1;"><path class="violin" d="M234.74,125.03L234.74,124.69Q237.47,124.47 238.82,124.26C240.19,124.05 241.55,123.8 242.9,123.42C244.27,123.04 245.65,122.58 246.98,121.97C248.37,121.33 249.74,120.56 251.06,119.65C252.46,118.68 253.82,117.53 255.14,116.27C256.55,114.92 257.9,113.38 259.22,111.77C260.62,110.06 261.96,108.17 263.29,106.26C264.68,104.27 266.02,102.16 267.37,100.06C268.74,97.93 270.09,95.72 271.45,93.56C272.81,91.42 274.16,89.25 275.53,87.16C276.88,85.11 278.23,83.07 279.61,81.11C280.95,79.2 282.31,77.34 283.69,75.55C285.03,73.82 286.38,72.12 287.77,70.53C289.1,69.01 290.44,67.51 291.84,66.19C293.16,64.94 294.51,63.72 295.92,62.78C297.23,61.9 298.6,61.1 300,60.64C301.32,60.2 302.72,59.97 304.08,59.99C305.44,60.01 306.83,60.34 308.16,60.78C309.55,61.24 310.9,61.99 312.24,62.73C313.62,63.49 314.97,64.43 316.32,65.31C317.68,66.19 319.02,67.15 320.39,68.02C321.74,68.88 323.1,69.73 324.47,70.52C325.82,71.3 327.19,72.01 328.55,72.74C329.91,73.46 331.28,74.12 332.63,74.86C334,75.61 335.37,76.35 336.71,77.2C338.09,78.08 339.46,79.03 340.79,80.08C342.18,81.18 343.54,82.39 344.87,83.68C346.26,85.02 347.6,86.49 348.94,87.98C350.32,89.52 351.67,91.16 353.02,92.79C354.39,94.44 355.73,96.16 357.1,97.82C358.45,99.46 359.8,101.13 361.18,102.7C362.52,104.23 363.87,105.75 365.26,107.13C366.59,108.45 367.94,109.73 369.34,110.83C370.66,111.87 372.02,112.84 373.42,113.59C374.74,114.3 376.12,114.89 377.5,115.25C378.83,115.59 380.22,115.78 381.57,115.73C382.93,115.68 384.32,115.41 385.65,114.97C387.04,114.52 388.41,113.81 389.73,113.01C391.13,112.16 392.48,111.08 393.81,109.95C395.21,108.76 396.55,107.4 397.89,106.04C399.27,104.64 400.61,103.1 401.97,101.64C403.33,100.18 404.67,98.64 406.05,97.26C407.38,95.93 408.72,94.58 410.12,93.48C411.44,92.45 412.79,91.46 414.2,90.79C415.52,90.16 416.9,89.69 418.28,89.51C419.62,89.33 421.02,89.43 422.36,89.66C423.74,89.9 425.1,90.41 426.44,90.93C427.82,91.47 429.16,92.19 430.52,92.86C431.88,93.53 433.24,94.27 434.6,94.94C435.95,95.6 437.3,96.26 438.67,96.85C440.02,97.44 441.39,97.96 442.75,98.49C444.11,99.02 445.47,99.49 446.83,100.02C448.19,100.56 449.56,101.09 450.91,101.71C452.28,102.35 453.65,103.04 454.99,103.81C456.37,104.6 457.72,105.5 459.07,106.42C460.44,107.36 461.79,108.39 463.15,109.39C464.51,110.39 465.85,111.45 467.22,112.42C468.57,113.38 469.92,114.34 471.3,115.19C472.64,116.02 474,116.81 475.38,117.49C476.72,118.16 478.09,118.73 479.46,119.25C480.81,119.76 482.17,120.19 483.54,120.58C484.89,120.97 486.26,121.29 487.62,121.6C488.98,121.91 490.34,122.16 491.7,122.42C493.06,122.67 494.42,122.91 495.78,123.13C497.14,123.34 498.49,123.53 499.85,123.71C501.21,123.88 502.57,124.04 503.93,124.18C505.29,124.32 506.65,124.43 508.01,124.53C509.37,124.63 510.73,124.7 512.09,124.76Q513.45,124.82 516.17,124.89L516.17,125.03" style="vector-effect: none; stroke-width: 2px; stroke: rgb(81, 123, 98); stroke-opacity: 1; fill: rgb(101, 154, 123); fill-opacity: 0.5;"/><path class="meanline" d="M348.83,87.85700225830078V125.03" style="fill: none; vector-effect: none; stroke-width: 2px; stroke-dasharray: 4px, 2px; stroke: rgb(81, 123, 98); stroke-opacity: 1;"/></g><g class="trace violins" style="opacity: 1;"><path class="violin" d="M218.55,99.01L218.55,98.92Q221.18,98.86 222.5,98.81C223.82,98.76 225.13,98.7 226.45,98.61C227.77,98.51 229.09,98.41 230.4,98.24C231.72,98.07 233.04,97.88 234.35,97.61C235.67,97.34 236.99,97.02 238.29,96.61C239.62,96.19 240.94,95.7 242.24,95.11C243.58,94.5 244.9,93.79 246.19,92.99C247.53,92.17 248.85,91.22 250.14,90.23C251.48,89.2 252.79,88.06 254.09,86.9C255.42,85.71 256.73,84.44 258.04,83.19C259.36,81.93 260.67,80.63 261.99,79.38C263.3,78.14 264.61,76.91 265.94,75.73C267.24,74.58 268.56,73.44 269.89,72.38C271.19,71.34 272.51,70.34 273.84,69.41C275.14,68.5 276.45,67.62 277.79,66.84C279.09,66.08 280.4,65.36 281.74,64.77C283.04,64.2 284.36,63.7 285.69,63.36C286.99,63.03 288.32,62.81 289.64,62.75C290.95,62.69 292.28,62.8 293.59,63C294.92,63.2 296.23,63.58 297.54,63.97C298.87,64.37 300.18,64.89 301.49,65.36C302.81,65.83 304.11,66.37 305.43,66.78C306.74,67.18 308.05,67.57 309.38,67.78C310.69,67.99 312.02,68.11 313.33,68.04C314.65,67.97 315.98,67.74 317.28,67.38C318.62,67.01 319.94,66.44 321.23,65.82C322.57,65.17 323.88,64.37 325.18,63.55C326.52,62.7 327.83,61.76 329.13,60.8C330.46,59.82 331.77,58.8 333.08,57.74C334.41,56.66 335.73,55.56 337.03,54.4C338.36,53.22 339.68,51.99 340.98,50.72C342.31,49.42 343.62,48.05 344.93,46.69C346.25,45.31 347.55,43.86 348.88,42.49C350.19,41.15 351.47,39.74 352.83,38.55C354.11,37.42 355.4,36.27 356.78,35.49C358.05,34.78 359.39,34.13 360.73,33.97C362.03,33.82 363.42,34.01 364.68,34.5C366.07,35.04 367.39,36.12 368.63,37.26C370.04,38.55 371.3,40.28 372.57,42C373.94,43.87 375.22,46.01 376.52,48.09C377.85,50.22 379.13,52.51 380.47,54.64C381.77,56.71 383.05,58.84 384.42,60.7C385.69,62.42 386.97,64.14 388.37,65.46C389.62,66.63 390.93,67.75 392.32,68.34C393.58,68.87 394.97,69.16 396.27,69.02C397.61,68.88 398.97,68.22 400.22,67.42C401.62,66.53 402.91,65.14 404.17,63.74C405.56,62.2 406.83,60.33 408.12,58.51C409.47,56.61 410.74,54.5 412.07,52.55C413.38,50.63 414.65,48.61 416.02,46.88C417.29,45.28 418.56,43.64 419.97,42.48C421.21,41.45 422.55,40.48 423.92,40.1C425.19,39.75 426.6,39.75 427.87,40.1C429.24,40.48 430.58,41.44 431.82,42.47C433.23,43.64 434.5,45.26 435.76,46.9C437.14,48.7 438.43,50.78 439.71,52.86C441.06,55.05 442.35,57.41 443.66,59.72C444.99,62.06 446.28,64.5 447.61,66.83C448.91,69.11 450.21,71.42 451.56,73.57C452.85,75.62 454.14,77.63 455.51,79.44C456.78,81.13 458.09,82.74 459.46,84.13C460.73,85.42 462.05,86.58 463.41,87.56C464.69,88.48 466.02,89.25 467.36,89.91C468.65,90.55 469.98,91.03 471.31,91.5C472.62,91.96 473.94,92.31 475.26,92.69C476.57,93.06 477.89,93.4 479.21,93.75C480.53,94.1 481.84,94.46 483.16,94.81C484.48,95.16 485.79,95.52 487.11,95.85C488.42,96.18 489.74,96.51 491.06,96.8C492.37,97.09 493.69,97.35 495.01,97.58C496.32,97.81 497.64,98 498.96,98.16C500.27,98.32 501.58,98.45 502.9,98.55C504.21,98.65 505.53,98.72 506.85,98.78C508.17,98.84 509.48,98.87 510.8,98.9C512.12,98.93 513.43,98.95 514.75,98.97C516.07,98.99 517.38,98.99 518.7,99C520.02,99.01 521.33,99.01 522.65,99.01C523.97,99.01 525.28,99.01 526.6,99.01C527.92,99.01 529.23,99.01 530.55,99.01C531.87,99.01 533.18,99.01 534.5,99.01C535.82,99.01 537.13,99.01 538.45,99.01C539.77,99.01 541.08,99.01 542.4,99.01C543.72,99.01 545.03,99.01 546.35,99.01C547.67,99.01 548.98,99.01 550.3,99.01C551.62,99.01 552.93,99.01 554.25,99.01C555.57,99.01 556.88,99.01 558.2,99.01C559.52,99.01 560.83,99.01 562.15,99.01C563.46,99.01 564.78,99.01 566.09,99.01C567.41,99.01 568.72,99.01 570.04,99.01C571.36,99.01 572.67,99.01 573.99,99.01C575.31,99.01 576.62,99 577.94,98.99C579.26,98.98 580.57,98.98 581.89,98.96C583.21,98.94 584.52,98.92 585.84,98.89C587.16,98.85 588.47,98.81 589.79,98.75C591.11,98.69 592.42,98.62 593.74,98.53C595.06,98.44 596.37,98.33 597.69,98.21C599.01,98.09 600.32,97.94 601.64,97.79C602.96,97.64 604.27,97.46 605.59,97.31C606.91,97.16 608.22,97 609.54,96.87C610.86,96.74 612.17,96.62 613.49,96.55C614.81,96.48 616.12,96.44 617.44,96.44C618.76,96.44 620.07,96.49 621.39,96.57C622.71,96.65 624.02,96.78 625.34,96.91C626.66,97.04 627.97,97.2 629.29,97.36C630.6,97.51 631.92,97.69 633.23,97.84C634.55,97.99 635.86,98.14 637.18,98.26C638.5,98.38 639.81,98.48 641.13,98.57C642.45,98.66 643.76,98.72 645.08,98.78Q646.4,98.83 649.03,98.9L649.03,99.01" style="vector-effect: none; stroke-width: 2px; stroke: rgb(47, 117, 157); stroke-opacity: 1; fill: rgb(59, 146, 196); fill-opacity: 0.5;"/><path class="meanline" d="M367.54,36.30207443237305V99.01" style="fill: none; vector-effect: none; stroke-width: 2px; stroke-dasharray: 4px, 2px; stroke: rgb(47, 117, 157); stroke-opacity: 1;"/></g><g class="trace violins" style="opacity: 1;"><path class="violin" d="M390.71,73L390.71,72.63Q394.63,72.41 396.58,72.23C398.54,72.05 400.49,71.84 402.44,71.54C404.4,71.24 406.36,70.89 408.3,70.45C410.26,70 412.22,69.48 414.16,68.87C416.13,68.25 418.08,67.54 420.02,66.76C421.99,65.96 423.94,65.07 425.88,64.12C427.85,63.15 429.81,62.09 431.75,60.97C433.72,59.83 435.67,58.62 437.61,57.35C439.58,56.06 441.53,54.69 443.47,53.28C445.44,51.84 447.39,50.34 449.33,48.79C451.3,47.21 453.25,45.57 455.19,43.89C457.16,42.18 459.11,40.4 461.05,38.6C463.02,36.77 464.97,34.87 466.92,33C468.88,31.12 470.81,29.17 472.78,27.34C474.72,25.54 476.64,23.68 478.64,22.1C480.55,20.59 482.48,19.07 484.5,18.01C486.39,17.02 488.38,16.13 490.36,15.84C492.28,15.56 494.32,15.69 496.22,16.22C498.24,16.79 500.21,17.99 502.09,19.3C504.14,20.73 506.04,22.7 507.95,24.61C509.96,26.63 511.85,28.97 513.81,31.14C515.76,33.3 517.66,35.63 519.67,37.6C521.57,39.46 523.48,41.34 525.53,42.68C527.4,43.9 529.38,45 531.39,45.45C533.3,45.88 535.35,45.87 537.26,45.46C539.26,45.03 541.24,43.97 543.12,42.81C545.16,41.56 547.07,39.81 548.98,38.11C550.98,36.33 552.88,34.25 554.84,32.35C556.79,30.47 558.69,28.42 560.7,26.76C562.6,25.19 564.52,23.59 566.56,22.59C568.44,21.67 570.46,20.93 572.43,20.83C574.37,20.73 576.41,21.2 578.29,21.96C580.33,22.78 582.27,24.27 584.15,25.77C586.19,27.39 588.09,29.47 590.01,31.45C591.99,33.49 593.9,35.78 595.87,37.85C597.8,39.88 599.72,41.99 601.73,43.78C603.63,45.47 605.57,47.12 607.6,48.33C609.49,49.45 611.46,50.42 613.46,50.9C615.37,51.36 617.39,51.49 619.32,51.24C621.3,50.98 623.29,50.26 625.18,49.33C627.21,48.34 629.15,46.89 631.04,45.35C633.07,43.7 634.99,41.71 636.9,39.69C638.91,37.57 640.83,35.2 642.77,32.88C644.74,30.52 646.66,28.01 648.63,25.64C650.57,23.31 652.48,20.91 654.49,18.78C656.4,16.76 658.31,14.74 660.35,13.14C662.23,11.66 664.18,10.28 666.21,9.41C668.1,8.6 670.11,8.06 672.07,7.95C674.02,7.84 676.02,8.18 677.94,8.73C679.94,9.31 681.9,10.32 683.8,11.42C685.81,12.59 687.75,14.07 689.66,15.61C691.66,17.23 693.61,19.06 695.52,20.96C697.52,22.94 699.46,25.09 701.38,27.29C703.37,29.56 705.3,31.97 707.24,34.39C709.21,36.85 711.15,39.43 713.11,41.93C715.06,44.43 716.99,46.98 718.97,49.39C720.9,51.73 722.83,54.06 724.83,56.18C726.74,58.2 728.68,60.15 730.69,61.85C732.59,63.45 734.54,64.92 736.55,66.15C738.46,67.32 740.42,68.31 742.41,69.12C744.33,69.9 746.31,70.48 748.28,70.97C750.22,71.45 752.18,71.76 754.14,72.03Q756.09,72.3 760,72.57L760,73" style="vector-effect: none; stroke-width: 2px; stroke: rgb(117, 70, 134); stroke-opacity: 1; fill: rgb(146, 88, 167); fill-opacity: 0.5;"/><path class="meanline" d="M585.05,26.520069122314453V73" style="fill: none; vector-effect: none; stroke-width: 2px; stroke-dasharray: 4px, 2px; stroke: rgb(117, 70, 134); stroke-opacity: 1;"/></g></g></g><g class="overplot"/><path class="xlines-above crisp" d="M0,0" style="fill: none;"/><path class="ylines-above crisp" d="M0,0" style="fill: none;"/><g class="overlines-above"/><g class="xaxislayer-above"><g class="xtick"><text text-anchor="middle" x="0" y="172" transform="translate(38.97,0)" style="font-family: 'Open Sans', verdana, arial, sans-serif; font-size: 12px; fill: rgb(242, 245, 250); fill-opacity: 1; white-space: pre; opacity: 1;">0</text></g><g class="xtick"><text text-anchor="middle" x="0" y="172" style="font-family: 'Open Sans', verdana, arial, sans-serif; font-size: 12px; fill: rgb(242, 245, 250); fill-opacity: 1; white-space: pre; opacity: 1;" transform="translate(181.25,0)">100</text></g><g class="xtick"><text text-anchor="middle" x="0" y="172" style="font-family: 'Open Sans', verdana, arial, sans-serif; font-size: 12px; fill: rgb(242, 245, 250); fill-opacity: 1; white-space: pre; opacity: 1;" transform="translate(323.52,0)">200</text></g><g class="xtick"><text text-anchor="middle" x="0" y="172" style="font-family: 'Open Sans', verdana, arial, sans-serif; font-size: 12px; fill: rgb(242, 245, 250); fill-opacity: 1; white-space: pre; opacity: 1;" transform="translate(465.8,0)">300</text></g><g class="xtick"><text text-anchor="middle" x="0" y="172" style="font-family: 'Open Sans', verdana, arial, sans-serif; font-size: 12px; fill: rgb(242, 245, 250); fill-opacity: 1; white-space: pre; opacity: 1;" transform="translate(608.08,0)">400</text></g><g class="xtick"><text text-anchor="middle" x="0" y="172" style="font-family: 'Open Sans', verdana, arial, sans-serif; font-size: 12px; fill: rgb(242, 245, 250); fill-opacity: 1; white-space: pre; opacity: 1;" transform="translate(750.36,0)">500</text></g></g><g class="yaxislayer-above"/><g class="overaxes-above"/></g></g><g class="polarlayer"/><g class="smithlayer"/><g class="ternarylayer"/><g class="geolayer"/><g class="funnelarealayer"/><g class="pielayer"/><g class="iciclelayer"/><g class="treemaplayer"/><g class="sunburstlayer"/><g class="glimages"/><defs id="topdefs-9a26f0"><g class="clips"/></defs><g class="layer-above"><g class="imagelayer"/><g class="shapelayer"/></g><g class="infolayer"><g class="g-gtitle"/><g class="g-xtitle" transform="translate(0,-2.3000000000000114)"><text class="xtitle" x="400" y="199.3" text-anchor="middle" style="font-family: 'Open Sans', verdana, arial, sans-serif; font-size: 14px; fill: rgb(242, 245, 250); opacity: 1; white-space: pre;">Pgm Death</text></g><g class="g-ytitle"/></g></svg>