<svg class="main-svg" xmlns="http://www.w3.org/2000/svg" xmlns:xlink="http://www.w3.org/1999/xlink" width="800" height="200" style="" viewBox="0 0 800 200"><rect x="0" y="0" width="800" height="200" style="fill: rgb(0, 0, 0); fill-opacity: 0;"/><defs id="defs-bca373"><g class="clips"><clipPath id="clipbca373xyplot" class="plotclip"><rect width="800" height="159"/></clipPath><clipPath class="axesclip" id="clipbca373x"><rect x="0" y="0" width="800" height="200"/></clipPath><clipPath class="axesclip" id="clipbca373y"><rect x="0" y="0" width="800" height="159"/></clipPath><clipPath class="axesclip" id="clipbca373xy"><rect x="0" y="0" width="800" height="159"/></clipPath></g><g class="gradients"/><g class="patterns"/></defs><g class="bglayer"><rect class="bg" x="0" y="0" width="800" height="159" style="fill: rgb(0, 0, 0); fill-opacity: 0; stroke-width: 0;"/></g><g class="layer-below"><g class="imagelayer"/><g class="shapelayer"/></g><g class="cartesianlayer"><g class="subplot xy"><g class="layer-subplot"><g class="shapelayer"/><g class="imagelayer"/></g><g class="minor-gridlayer"><g class="x"/><g class="y"/></g><g class="gridlayer"><g class="x"><path class="xgrid crisp" transform="translate(199.38,0)" d="M0,0v159" style="stroke: rgb(40, 52, 66); stroke-opacity: 1; stroke-width: 1px;"/><path class="xgrid crisp" transform="translate(335.18,0)" d="M0,0v159" style="stroke: rgb(40, 52, 66); stroke-opacity: 1; stroke-width: 1px;"/><path class="xgrid crisp" transform="translate(470.99,0)" d="M0,0v159" style="stroke: rgb(40, 52, 66); stroke-opacity: 1; stroke-width: 1px;"/><path class="xgrid crisp" transform="translate(606.8,0)" d="M0,0v159" style="stroke: rgb(40, 52, 66); stroke-opacity: 1; stroke-width: 1px;"/><path class="xgrid crisp" transform="translate(742.6,0)" d="M0,0v159" style="stroke: rgb(40, 52, 66); stroke-opacity: 1; stroke-width: 1px;"/></g><g class="y"/></g><g class="zerolinelayer"><path class="xzl zl crisp" transform="translate(63.57,0)" d="M0,0v159" style="stroke: rgb(40, 52, 66); stroke-opacity: 1; stroke-width: 2px;"/></g><g class="layer-between"><g class="shapelayer"/><g class="imagelayer"/></g><path class="xlines-below"/><path class="ylines-below"/><g class="overlines-below"/><g class="xaxislayer-below"/><g class="yaxislayer-below"/><g class="overaxes-below"/><g class="plot" transform="" clip-path="url(#clipbca373xyplot)"><g class="violinlayer mlayer"><g class="trace violins" style="opacity: 1;"><path class="violin" d="M40,151.05L40,150.36Q42.9,149.95 44.34,149.61C45.8,149.27 47.26,148.86 48.69,148.32C50.16,147.77 51.61,147.09 53.03,146.31C54.51,145.5 55.96,144.55 57.38,143.54C58.85,142.49 60.29,141.31 61.72,140.12C63.18,138.9 64.61,137.58 66.06,136.32C67.51,135.05 68.94,133.74 70.41,132.53C71.84,131.35 73.28,130.18 74.75,129.15C76.17,128.15 77.62,127.21 79.09,126.41C80.51,125.64 81.97,124.97 83.44,124.42C84.87,123.89 86.32,123.47 87.78,123.16C89.22,122.85 90.68,122.66 92.13,122.56C93.57,122.46 95.02,122.47 96.47,122.53C97.92,122.59 99.36,122.76 100.81,122.93C102.26,123.1 103.71,123.34 105.16,123.53C106.61,123.72 108.05,123.95 109.5,124.07C110.94,124.19 112.39,124.28 113.84,124.25C115.29,124.22 116.75,124.1 118.19,123.9C119.64,123.7 121.09,123.38 122.53,123.05C123.98,122.72 125.43,122.28 126.88,121.93C128.33,121.58 129.77,121.19 131.22,120.93C132.66,120.67 134.11,120.47 135.56,120.37C137.01,120.27 138.46,120.3 139.91,120.33C141.36,120.36 142.8,120.52 144.25,120.54C145.7,120.56 147.16,120.63 148.6,120.45C150.06,120.27 151.53,119.98 152.94,119.44C154.43,118.87 155.89,118.05 157.28,117.07C158.79,116.01 160.23,114.66 161.63,113.23C163.13,111.7 164.55,109.92 165.97,108.13C167.45,106.27 168.86,104.22 170.31,102.26C171.76,100.29 173.18,98.22 174.66,96.33C176.08,94.52 177.48,92.67 179,91.16C180.39,89.78 181.82,88.42 183.35,87.55C184.73,86.76 186.22,86.18 187.69,86C189.12,85.83 190.61,86.08 192.03,86.44C193.51,86.81 194.95,87.56 196.38,88.23C197.84,88.91 199.27,89.78 200.72,90.5C202.16,91.21 203.6,91.93 205.06,92.54C206.5,93.14 207.96,93.64 209.41,94.14C210.85,94.64 212.31,95.04 213.75,95.55C215.21,96.07 216.67,96.58 218.1,97.23C219.57,97.89 221.01,98.65 222.44,99.48C223.91,100.33 225.34,101.32 226.78,102.29C228.24,103.28 229.68,104.37 231.13,105.38C232.57,106.39 234.01,107.42 235.47,108.36C236.91,109.28 238.36,110.17 239.82,110.98C241.25,111.77 242.7,112.49 244.16,113.17C245.6,113.84 247.05,114.42 248.5,115.03C249.95,115.63 251.41,116.18 252.85,116.8C254.3,117.43 255.76,118.03 257.19,118.77C258.66,119.53 260.11,120.34 261.53,121.29C263.01,122.28 264.46,123.41 265.88,124.63C267.36,125.91 268.79,127.34 270.22,128.8C271.69,130.3 273.12,131.94 274.57,133.52C276.02,135.1 277.44,136.75 278.91,138.27C280.34,139.74 281.76,141.21 283.25,142.49C284.66,143.71 286.11,144.86 287.6,145.82C289.01,146.73 290.47,147.52 291.94,148.15Q293.36,148.76 296.28,149.59L296.28,151.05" style="vector-effect: none; stroke-width: 2px; stroke: rgb(162, 162, 42); stroke-opacity: 1; fill: rgb(203, 203, 52); fill-opacity: 0.5;"/><path class="meanline" d="M179.62,90.55066680908203V151.05" style="fill: none; vector-effect: none; stroke-width: 2px; stroke-dasharray: 4px, 2px; stroke: rgb(162, 162, 42); stroke-opacity: 1;"/></g><g class="trace violins" style="opacity: 1;"><path class="violin" d="M218.62,125.03L218.62,124.96Q220.54,124.91 221.5,124.88C222.46,124.85 223.43,124.81 224.39,124.76C225.35,124.71 226.31,124.65 227.27,124.59C228.23,124.52 229.2,124.45 230.16,124.37C231.12,124.29 232.08,124.19 233.04,124.09C234,123.99 234.97,123.89 235.93,123.77C236.89,123.64 237.85,123.51 238.81,123.34C239.77,123.17 240.74,122.98 241.7,122.74C242.67,122.5 243.63,122.22 244.58,121.88C245.55,121.53 246.51,121.13 247.46,120.68C248.43,120.22 249.4,119.69 250.35,119.14C251.32,118.58 252.28,117.96 253.23,117.32C254.2,116.67 255.16,115.98 256.12,115.28C257.09,114.57 258.05,113.83 259,113.06C259.97,112.27 260.95,111.46 261.89,110.58C262.87,109.67 263.84,108.72 264.77,107.67C265.76,106.56 266.73,105.36 267.66,104.06C268.66,102.66 269.62,101.15 270.54,99.53C271.55,97.77 272.5,95.86 273.43,93.88C274.43,91.76 275.37,89.47 276.31,87.17C277.29,84.77 278.24,82.23 279.2,79.77C280.16,77.32 281.08,74.76 282.08,72.43C283.01,70.25 283.93,68.03 284.97,66.19C285.87,64.6 286.78,63.01 287.85,61.94C288.73,61.06 289.72,60.32 290.73,60.01C291.65,59.73 292.67,59.85 293.62,59.99C294.59,60.13 295.54,60.58 296.5,60.87C297.46,61.16 298.42,61.5 299.39,61.71C300.34,61.92 301.31,61.99 302.27,62.12C303.23,62.26 304.22,62.25 305.16,62.52C306.14,62.81 307.14,63.19 308.04,63.84C309.08,64.6 310.04,65.73 310.93,66.97C311.99,68.44 312.9,70.31 313.81,72.2C314.83,74.31 315.75,76.72 316.7,79.06C317.68,81.48 318.6,84.08 319.58,86.51C320.53,88.87 321.46,91.27 322.47,93.44C323.39,95.42 324.32,97.36 325.35,99.02C326.26,100.48 327.2,101.84 328.24,102.92C329.14,103.86 330.11,104.66 331.12,105.22C332.04,105.73 333.02,106.04 334,106.24C334.95,106.43 335.93,106.42 336.89,106.4C337.85,106.38 338.81,106.21 339.77,106.11C340.73,106 341.7,105.84 342.66,105.77C343.62,105.7 344.58,105.64 345.54,105.66C346.5,105.68 347.47,105.78 348.43,105.88C349.39,105.99 350.35,106.18 351.31,106.29C352.27,106.4 353.24,106.56 354.2,106.55C355.16,106.54 356.14,106.48 357.08,106.23C358.06,105.97 359.04,105.55 359.97,105.01C360.97,104.43 361.92,103.63 362.85,102.8C363.85,101.91 364.79,100.85 365.74,99.83C366.71,98.78 367.64,97.63 368.62,96.59C369.57,95.58 370.51,94.54 371.51,93.7C372.44,92.92 373.39,92.16 374.39,91.69C375.31,91.26 376.3,90.96 377.27,90.91C378.23,90.86 379.22,91.07 380.16,91.4C381.15,91.74 382.11,92.35 383.04,92.98C384.04,93.66 384.99,94.51 385.93,95.38C386.92,96.29 387.86,97.3 388.81,98.33C389.79,99.39 390.75,100.5 391.7,101.64C392.67,102.8 393.63,104.02 394.58,105.23C395.55,106.46 396.51,107.73 397.47,108.98C398.43,110.23 399.38,111.5 400.35,112.71C401.3,113.89 402.26,115.07 403.24,116.16C404.18,117.2 405.13,118.21 406.12,119.1C407.06,119.94 408.02,120.71 409.01,121.36C409.95,121.97 410.91,122.49 411.89,122.92C412.84,123.33 413.81,123.64 414.78,123.89C415.73,124.13 416.7,124.28 417.66,124.39C418.62,124.5 419.58,124.54 420.54,124.57C421.5,124.6 422.47,124.57 423.43,124.54C424.39,124.51 425.35,124.45 426.31,124.39C427.27,124.33 428.24,124.25 429.2,124.18C430.16,124.12 431.12,124.05 432.08,124C433.04,123.95 434.01,123.92 434.97,123.9C435.93,123.88 436.89,123.88 437.85,123.9C438.81,123.92 439.78,123.96 440.74,124C441.7,124.04 442.66,124.1 443.62,124.14C444.58,124.19 445.55,124.24 446.51,124.27C447.47,124.3 448.43,124.31 449.39,124.31C450.35,124.31 451.32,124.28 452.28,124.24C453.24,124.2 454.2,124.13 455.16,124.06C456.12,123.99 457.09,123.89 458.05,123.8C459.01,123.71 459.97,123.62 460.93,123.54C461.89,123.46 462.85,123.38 463.81,123.34C464.77,123.29 465.74,123.27 466.7,123.27C467.66,123.27 468.62,123.3 469.58,123.34C470.54,123.39 471.51,123.46 472.47,123.54C473.43,123.62 474.39,123.73 475.35,123.83C476.31,123.93 477.28,124.04 478.24,124.14C479.2,124.24 480.16,124.34 481.12,124.43C482.08,124.52 483.05,124.59 484.01,124.66C484.97,124.73 485.93,124.79 486.89,124.83Q487.85,124.88 489.78,124.93L489.78,125.03" style="vector-effect: none; stroke-width: 2px; stroke: rgb(81, 123, 98); stroke-opacity: 1; fill: rgb(101, 154, 123); fill-opacity: 0.5;"/><path class="meanline" d="M322.33,93.13472747802734V125.03" style="fill: none; vector-effect: none; stroke-width: 2px; stroke-dasharray: 4px, 2px; stroke: rgb(81, 123, 98); stroke-opacity: 1;"/></g><g class="trace violins" style="opacity: 1;"><path class="violin" d="M203.65,99.01L203.65,98.91Q205.89,98.84 207.01,98.79C208.13,98.73 209.25,98.67 210.37,98.58C211.49,98.48 212.61,98.38 213.73,98.22C214.85,98.06 215.97,97.87 217.09,97.63C218.21,97.39 219.34,97.11 220.45,96.76C221.58,96.4 222.7,95.99 223.81,95.5C224.94,95 226.07,94.43 227.17,93.8C228.31,93.15 229.43,92.41 230.53,91.63C231.67,90.83 232.78,89.95 233.89,89.06C235.02,88.15 236.13,87.17 237.25,86.22C238.37,85.26 239.49,84.28 240.61,83.33C241.73,82.39 242.84,81.44 243.97,80.54C245.08,79.65 246.2,78.8 247.33,77.97C248.44,77.15 249.57,76.36 250.7,75.6C251.81,74.85 252.93,74.11 254.06,73.43C255.17,72.76 256.28,72.09 257.42,71.54C258.52,71.01 259.64,70.51 260.78,70.17C261.88,69.84 263.02,69.6 264.14,69.53C265.26,69.46 266.39,69.56 267.5,69.75C268.63,69.94 269.75,70.32 270.86,70.7C271.99,71.09 273.1,71.59 274.22,72.05C275.34,72.51 276.46,73.02 277.58,73.48C278.7,73.94 279.82,74.38 280.94,74.8C282.06,75.22 283.18,75.61 284.3,76.01C285.42,76.4 286.54,76.78 287.66,77.17C288.78,77.56 289.9,77.96 291.02,78.33C292.14,78.7 293.25,79.08 294.38,79.37C295.49,79.66 296.61,79.93 297.74,80.06C298.85,80.18 299.99,80.25 301.1,80.13C302.23,80 303.37,79.75 304.46,79.3C305.62,78.83 306.75,78.14 307.82,77.31C309,76.39 310.11,75.22 311.18,73.95C312.36,72.55 313.46,70.89 314.54,69.2C315.7,67.38 316.79,65.36 317.9,63.38C319.03,61.36 320.12,59.19 321.26,57.2C322.36,55.28 323.44,53.32 324.62,51.63C325.69,50.1 326.78,48.61 327.98,47.47C329.04,46.47 330.17,45.62 331.34,45.03C332.42,44.48 333.57,44.21 334.7,43.95C335.81,43.69 336.94,43.63 338.06,43.46C339.18,43.29 340.3,43.15 341.42,42.93C342.54,42.71 343.66,42.4 344.78,42.15C345.9,41.91 347.01,41.58 348.14,41.46C349.25,41.34 350.39,41.26 351.5,41.43C352.63,41.6 353.77,41.98 354.86,42.49C356.02,43.03 357.12,43.84 358.22,44.62C359.36,45.44 360.45,46.44 361.58,47.31C362.69,48.16 363.78,49.13 364.94,49.78C366.02,50.39 367.16,51 368.3,51.15C369.4,51.3 370.59,51.16 371.66,50.74C372.84,50.27 373.96,49.3 375.02,48.3C376.22,47.17 377.28,45.62 378.38,44.18C379.53,42.67 380.58,40.9 381.74,39.42C382.83,38.02 383.87,36.44 385.1,35.51C386.14,34.73 387.35,33.94 388.46,33.97C389.59,34 390.8,34.8 391.82,35.7C393.1,36.84 394.13,38.81 395.18,40.67C396.39,42.81 397.44,45.41 398.54,47.88C399.68,50.45 400.76,53.24 401.9,55.8C403,58.26 404.07,60.77 405.26,62.95C406.33,64.91 407.4,66.82 408.62,68.35C409.67,69.67 410.79,70.87 411.99,71.7C413.05,72.43 414.2,72.92 415.35,73.24C416.45,73.54 417.59,73.54 418.71,73.6C419.83,73.66 420.95,73.53 422.07,73.58C423.19,73.63 424.33,73.67 425.43,73.93C426.57,74.2 427.71,74.61 428.79,75.19C429.95,75.81 431.07,76.67 432.15,77.58C433.31,78.56 434.41,79.75 435.51,80.92C436.65,82.14 437.75,83.48 438.87,84.76C439.99,86.03 441.09,87.36 442.23,88.57C443.33,89.74 444.44,90.89 445.59,91.9C446.68,92.86 447.8,93.76 448.95,94.52C450.04,95.24 451.17,95.86 452.31,96.37C453.41,96.87 454.54,97.25 455.67,97.57C456.78,97.88 457.91,98.1 459.03,98.28C460.15,98.46 461.27,98.57 462.39,98.67C463.51,98.77 464.63,98.82 465.75,98.87C466.87,98.92 467.99,98.93 469.11,98.95C470.23,98.97 471.35,98.98 472.47,98.99C473.59,99 474.71,99.01 475.83,99.01C476.95,99.01 478.07,99.01 479.19,99.01C480.31,99.01 481.43,99.01 482.55,99.01C483.67,99.01 484.79,99.01 485.91,99.01C487.03,99.01 488.15,99.01 489.27,99.01C490.39,99.01 491.51,99.01 492.63,99.01C493.75,99.01 494.87,99.01 495.99,99.01C497.11,99.01 498.23,99.01 499.35,99.01C500.47,99.01 501.59,99.01 502.71,99.01C503.83,99.01 504.95,99.01 506.07,99.01C507.19,99.01 508.31,99.01 509.43,99.01C510.55,99.01 511.67,99.01 512.79,99.01C513.91,99.01 515.03,99.01 516.15,99.01C517.27,99.01 518.39,99.01 519.51,99.01C520.63,99.01 521.75,99.01 522.87,99.01C523.99,99.01 525.11,99.01 526.23,99.01C527.35,99.01 528.47,99.01 529.59,99.01C530.71,99.01 531.83,99.01 532.95,99.01C534.07,99.01 535.19,99.01 536.31,99.01C537.43,99.01 538.55,99.01 539.67,99.01C540.79,99.01 541.91,99.01 543.03,99.01C544.15,99.01 545.27,99.01 546.39,99.01C547.51,99.01 548.63,99.01 549.75,99.01C550.87,99.01 551.99,99.01 553.11,99.01C554.23,99.01 555.35,99.01 556.47,99.01C557.59,99.01 558.71,99.01 559.83,99.01C560.95,99.01 562.07,99.01 563.19,99.01C564.31,99.01 565.43,99.01 566.55,99.01C567.67,99.01 568.8,99.01 569.92,99.01C571.04,99.01 572.16,99 573.28,98.99C574.4,98.98 575.52,98.98 576.64,98.96C577.76,98.94 578.88,98.92 580,98.89C581.12,98.85 582.24,98.81 583.36,98.75C584.48,98.69 585.6,98.63 586.72,98.54C587.84,98.45 588.96,98.33 590.08,98.21C591.2,98.08 592.32,97.94 593.44,97.79C594.56,97.64 595.68,97.47 596.8,97.31C597.92,97.16 599.04,96.99 600.16,96.86C601.28,96.73 602.4,96.6 603.52,96.52C604.64,96.44 605.76,96.39 606.88,96.38C608,96.37 609.12,96.41 610.24,96.48C611.36,96.55 612.48,96.66 613.6,96.79C614.72,96.92 615.84,97.09 616.96,97.24C618.08,97.4 619.2,97.57 620.32,97.72C621.44,97.87 622.56,98.03 623.68,98.16C624.8,98.29 625.92,98.4 627.04,98.5C628.16,98.59 629.28,98.67 630.4,98.73Q631.52,98.79 633.76,98.87L633.76,99.01" style="vector-effect: none; stroke-width: 2px; stroke: rgb(47, 117, 157); stroke-opacity: 1; fill: rgb(59, 146, 196); fill-opacity: 0.5;"/><path class="meanline" d="M349.16,41.36750411987305V99.01" style="fill: none; vector-effect: none; stroke-width: 2px; stroke-dasharray: 4px, 2px; stroke: rgb(47, 117, 157); stroke-opacity: 1;"/></g><g class="trace violins" style="opacity: 1;"><path class="violin" d="M358.53,73L358.53,72.68Q362.71,72.49 364.8,72.32C366.89,72.15 368.99,71.96 371.08,71.67C373.18,71.38 375.27,71.04 377.35,70.6C379.45,70.16 381.54,69.64 383.62,69.03C385.72,68.42 387.82,67.71 389.9,66.94C392,66.16 394.09,65.29 396.17,64.39C398.27,63.48 400.35,62.5 402.44,61.53C404.53,60.55 406.62,59.53 408.71,58.53C410.8,57.53 412.9,56.51 414.99,55.51C417.08,54.51 419.17,53.52 421.26,52.52C423.35,51.53 425.44,50.54 427.53,49.54C429.62,48.54 431.72,47.54 433.81,46.54C435.9,45.54 437.99,44.51 440.08,43.52C442.17,42.53 444.25,41.54 446.35,40.61C448.43,39.69 450.53,38.78 452.63,37.96C454.71,37.15 456.8,36.38 458.9,35.71C460.98,35.05 463.07,34.45 465.17,33.96C467.25,33.48 469.34,33.08 471.44,32.79C473.53,32.5 475.63,32.31 477.72,32.23C479.81,32.15 481.9,32.17 483.99,32.31C486.08,32.45 488.18,32.71 490.26,33.07C492.36,33.44 494.46,33.93 496.54,34.51C498.64,35.1 500.73,35.81 502.81,36.57C504.91,37.34 506.99,38.23 509.08,39.09C511.17,39.95 513.25,40.91 515.35,41.75C517.43,42.58 519.52,43.44 521.63,44.09C523.7,44.73 525.8,45.32 527.9,45.65C529.98,45.98 532.08,46.14 534.17,46.08C536.27,46.02 538.37,45.71 540.45,45.29C542.56,44.87 544.64,44.2 546.72,43.55C548.82,42.89 550.9,42.07 552.99,41.36C555.08,40.65 557.17,39.89 559.27,39.28C561.35,38.67 563.44,38.13 565.54,37.7C567.62,37.27 569.72,36.97 571.81,36.7C573.9,36.44 575.99,36.28 578.08,36.11C580.17,35.94 582.27,35.82 584.36,35.67C586.45,35.53 588.54,35.37 590.63,35.24C592.72,35.11 594.81,34.98 596.9,34.91C598.99,34.84 601.09,34.8 603.18,34.8C605.27,34.8 607.36,34.89 609.45,34.92C611.54,34.95 613.63,35.04 615.72,34.97C617.81,34.9 619.91,34.8 621.99,34.47C624.1,34.14 626.21,33.66 628.27,32.97C630.39,32.26 632.49,31.31 634.54,30.24C636.67,29.12 638.75,27.76 640.81,26.36C642.93,24.92 645.01,23.29 647.09,21.71C649.19,20.12 651.25,18.41 653.36,16.86C655.43,15.34 657.49,13.77 659.63,12.49C661.68,11.26 663.77,10.05 665.91,9.29C667.95,8.56 670.09,8 672.18,7.95C674.27,7.9 676.42,8.25 678.45,8.96C680.61,9.72 682.72,11.04 684.72,12.53C686.92,14.16 688.98,16.3 691,18.49C693.17,20.84 695.22,23.56 697.27,26.25C699.4,29.04 701.45,32.05 703.54,34.96C705.63,37.87 707.7,40.87 709.82,43.69C711.88,46.43 713.94,49.15 716.09,51.64C718.13,54.01 720.2,56.29 722.36,58.31C724.39,60.22 726.49,61.97 728.64,63.49C730.68,64.93 732.78,66.18 734.91,67.23C736.96,68.24 739.07,69.05 741.18,69.73C743.25,70.39 745.35,70.87 747.45,71.28C749.53,71.68 751.63,71.94 753.73,72.16Q755.82,72.38 760,72.62L760,73" style="vector-effect: none; stroke-width: 2px; stroke: rgb(117, 70, 134); stroke-opacity: 1; fill: rgb(146, 88, 167); fill-opacity: 0.5;"/><path class="meanline" d="M579.15,36.027400970458984V73" style="fill: none; vector-effect: none; stroke-width: 2px; stroke-dasharray: 4px, 2px; stroke: rgb(117, 70, 134); stroke-opacity: 1;"/></g></g></g><g class="overplot"/><path class="xlines-above crisp" d="M0,0" style="fill: none;"/><path class="ylines-above crisp" d="M0,0" style="fill: none;"/><g class="overlines-above"/><g class="xaxislayer-above"><g class="xtick"><text text-anchor="middle" x="0" y="172" transform="translate(63.57,0)" style="font-family: 'Open Sans', verdana, arial, sans-serif; font-size: 12px; fill: rgb(242, 245, 250); fill-opacity: 1; white-space: pre; opacity: 1;">0</text></g><g class="xtick"><text text-anchor="middle" x="0" y="172" style="font-family: 'Open Sans', verdana, arial, sans-serif; font-size: 12px; fill: rgb(242, 245, 250); fill-opacity: 1; white-space: pre; opacity: 1;" transform="translate(199.38,0)">100</text></g><g class="xtick"><text text-anchor="middle" x="0" y="172" style="font-family: 'Open Sans', verdana, arial, sans-serif; font-size: 12px; fill: rgb(242, 245, 250); fill-opacity: 1; white-space: pre; opacity: 1;" transform="translate(335.18,0)">200</text></g><g class="xtick"><text text-anchor="middle" x="0" y="172" style="font-family: 'Open Sans', verdana, arial, sans-serif; font-size: 12px; fill: rgb(242, 245, 250); fill-opacity: 1; white-space: pre; opacity: 1;" transform="translate(470.99,0)">300</text></g><g class="xtick"><text text-anchor="middle" x="0" y="172" style="font-family: 'Open Sans', verdana, arial, sans-serif; font-size: 12px; fill: rgb(242, 245, 250); fill-opacity: 1; white-space: pre; opacity: 1;" transform="translate(606.8,0)">400</text></g><g class="xtick"><text text-anchor="middle" x="0" y="172" style="font-family: 'Open Sans', verdana, arial, sans-serif; font-size: 12px; fill: rgb(242, 245, 250); fill-opacity: 1; white-space: pre; opacity: 1;" transform="translate(742.6,0)">500</text></g></g><g class="yaxislayer-above"/><g class="overaxes-above"/></g></g><g class="polarlayer"/><g class="smithlayer"/><g class="ternarylayer"/><g class="geolayer"/><g class="funnelarealayer"/><g class="pielayer"/><g class="iciclelayer"/><g class="treemaplayer"/><g class="sunburstlayer"/><g class="glimages"/><defs id="topdefs-bca373"><g class="clips"/></defs><g class="layer-above"><g class="imagelayer"/><g class="shapelayer"/></g><g class="infolayer"><g class="g-gtitle"/><g class="g-xtitle" transform="translate(0,-2.3000000000000114)"><text class="xtitle" x="400" y="199.3" text-anchor="middle" style="font-family: 'Open Sans', verdana, arial, sans-serif; font-size: 14px; fill: rgb(242, 245, 250); opacity: 1; white-space: pre;">Nkids</text></g><g class="g-ytitle"/></g></svg>