<svg class="main-svg" xmlns="http://www.w3.org/2000/svg" xmlns:xlink="http://www.w3.org/1999/xlink" width="800" height="200" style="" viewBox="0 0 800 200"><rect x="0" y="0" width="800" height="200" style="fill: rgb(0, 0, 0); fill-opacity: 0;"/><defs id="defs-d9fd7f"><g class="clips"><clipPath id="clipd9fd7fxyplot" class="plotclip"><rect width="800" height="159"/></clipPath><clipPath class="axesclip" id="clipd9fd7fx"><rect x="0" y="0" width="800" height="200"/></clipPath><clipPath class="axesclip" id="clipd9fd7fy"><rect x="0" y="0" width="800" height="159"/></clipPath><clipPath class="axesclip" id="clipd9fd7fxy"><rect x="0" y="0" width="800" height="159"/></clipPath></g><g class="gradients"/><g class="patterns"/></defs><g class="bglayer"><rect class="bg" x="0" y="0" width="800" height="159" style="fill: rgb(0, 0, 0); fill-opacity: 0; stroke-width: 0;"/></g><g class="layer-below"><g class="imagelayer"/><g class="shapelayer"/></g><g class="cartesianlayer"><g class="subplot xy"><g class="layer-subplot"><g class="shapelayer"/><g class="imagelayer"/></g><g class="minor-gridlayer"><g class="x"/><g class="y"/></g><g class="gridlayer"><g class="x"><path class="xgrid crisp" transform="translate(149.5,0)" d="M0,0v159" style="stroke: rgb(40, 52, 66); stroke-opacity: 1; stroke-width: 1px;"/><path class="xgrid crisp" transform="translate(232.3,0)" d="M0,0v159" style="stroke: rgb(40, 52, 66); stroke-opacity: 1; stroke-width: 1px;"/><path class="xgrid crisp" transform="translate(315.11,0)" d="M0,0v159" style="stroke: rgb(40, 52, 66); stroke-opacity: 1; stroke-width: 1px;"/><path class="xgrid crisp" transform="translate(397.91,0)" d="M0,0v159" style="stroke: rgb(40, 52, 66); stroke-opacity: 1; stroke-width: 1px;"/><path class="xgrid crisp" transform="translate(480.72,0)" d="M0,0v159" style="stroke: rgb(40, 52, 66); stroke-opacity: 1; stroke-width: 1px;"/><path class="xgrid crisp" transform="translate(563.53,0)" d="M0,0v159" style="stroke: rgb(40, 52, 66); stroke-opacity: 1; stroke-width: 1px;"/><path class="xgrid crisp" transform="translate(646.33,0)" d="M0,0v159" style="stroke: rgb(40, 52, 66); stroke-opacity: 1; stroke-width: 1px;"/><path class="xgrid crisp" transform="translate(729.14,0)" d="M0,0v159" style="stroke: rgb(40, 52, 66); stroke-opacity: 1; stroke-width: 1px;"/></g><g class="y"/></g><g class="zerolinelayer"><path class="xzl zl crisp" transform="translate(66.69,0)" d="M0,0v159" style="stroke: rgb(40, 52, 66); stroke-opacity: 1; stroke-width: 2px;"/></g><g class="layer-between"><g class="shapelayer"/><g class="imagelayer"/></g><path class="xlines-below"/><path class="ylines-below"/><g class="overlines-below"/><g class="xaxislayer-below"/><g class="yaxislayer-below"/><g class="overaxes-below"/><g class="plot" transform="" clip-path="url(#clipd9fd7fxyplot)"><g class="violinlayer mlayer"><g class="trace violins" style="opacity: 1;"><path class="violin" d="M40,151.05L40,150.59Q43.84,150.3 45.76,150.05C47.68,149.8 49.61,149.5 51.52,149.08C53.45,148.65 55.38,148.13 57.29,147.49C59.23,146.84 61.15,146.07 63.05,145.21C64.99,144.33 66.9,143.3 68.81,142.26C70.74,141.2 72.65,140.03 74.57,138.91C76.49,137.79 78.39,136.59 80.33,135.55C82.24,134.52 84.15,133.5 86.1,132.69C87.99,131.9 89.92,131.21 91.86,130.74C93.76,130.28 95.7,130 97.62,129.9C99.54,129.8 101.47,129.92 103.38,130.13C105.31,130.34 107.23,130.74 109.14,131.15C111.07,131.57 112.99,132.12 114.91,132.62C116.83,133.12 118.75,133.67 120.67,134.15C122.59,134.63 124.5,135.11 126.43,135.48C128.34,135.85 130.26,136.19 132.19,136.37C134.1,136.55 136.03,136.66 137.95,136.57C139.88,136.48 141.82,136.25 143.72,135.82C145.66,135.38 147.59,134.73 149.48,133.92C151.44,133.08 153.35,131.98 155.24,130.82C157.19,129.62 159.09,128.2 161,126.83C162.93,125.45 164.83,123.91 166.77,122.57C168.67,121.26 170.57,119.9 172.53,118.85C174.41,117.84 176.33,116.92 178.29,116.34C180.18,115.78 182.12,115.45 184.05,115.36C185.96,115.27 187.9,115.49 189.81,115.77C191.74,116.05 193.66,116.59 195.58,117.04C197.5,117.5 199.41,118.08 201.34,118.5C203.25,118.91 205.17,119.32 207.1,119.54C209.01,119.76 210.94,119.87 212.86,119.81C214.78,119.75 216.71,119.52 218.62,119.16C220.56,118.79 222.49,118.24 224.39,117.6C226.33,116.94 228.25,116.13 230.15,115.25C232.09,114.35 234.01,113.31 235.91,112.24C237.85,111.15 239.76,109.97 241.67,108.78C243.6,107.58 245.51,106.32 247.43,105.09C249.35,103.87 251.27,102.61 253.2,101.43C255.11,100.26 257.03,99.11 258.96,98.03C260.87,96.96 262.79,95.94 264.72,94.98C266.63,94.03 268.55,93.13 270.48,92.28C272.39,91.43 274.31,90.62 276.24,89.88C278.15,89.14 280.07,88.41 282.01,87.83C283.92,87.26 285.84,86.7 287.77,86.4C289.68,86.1 291.62,85.89 293.53,86C295.46,86.11 297.41,86.46 299.29,87.06C301.25,87.69 303.18,88.65 305.05,89.75C307.03,90.91 308.94,92.39 310.82,93.9C312.78,95.47 314.68,97.27 316.58,99.04C318.52,100.85 320.42,102.77 322.34,104.65C324.26,106.54 326.18,108.46 328.1,110.37C330.02,112.27 331.94,114.18 333.86,116.08C335.78,117.97 337.7,119.86 339.63,121.74C341.55,123.61 343.46,125.48 345.39,127.31C347.3,129.12 349.21,130.93 351.15,132.65C353.05,134.33 354.96,136 356.91,137.52C358.8,139 360.72,140.41 362.67,141.67C364.56,142.89 366.49,144 368.44,144.96C370.33,145.89 372.26,146.7 374.2,147.37C376.1,148.03 378.03,148.54 379.96,148.98C381.87,149.41 383.79,149.72 385.72,149.98Q387.64,150.24 391.49,150.54L391.49,151.05" style="vector-effect: none; stroke-width: 2px; stroke: rgb(162, 162, 42); stroke-opacity: 1; fill: rgb(203, 203, 52); fill-opacity: 0.5;"/><path class="meanline" d="M240.12,109.74114990234375V151.05" style="fill: none; vector-effect: none; stroke-width: 2px; stroke-dasharray: 4px, 2px; stroke: rgb(162, 162, 42); stroke-opacity: 1;"/></g><g class="trace violins" style="opacity: 1;"><path class="violin" d="M123.63,125.03L123.63,124.48Q127.39,124.15 129.26,123.86C131.14,123.57 133.02,123.23 134.88,122.74C136.77,122.24 138.66,121.63 140.51,120.85C142.42,120.04 144.31,119.08 146.14,117.95C148.06,116.76 149.94,115.37 151.77,113.83C153.7,112.21 155.56,110.36 157.39,108.41C159.32,106.35 161.18,104.09 163.02,101.77C164.94,99.36 166.79,96.78 168.65,94.21C170.54,91.59 172.39,88.85 174.27,86.2C176.14,83.56 177.99,80.87 179.9,78.34C181.75,75.9 183.59,73.45 185.53,71.27C187.35,69.22 189.19,67.22 191.15,65.59C192.96,64.09 194.83,62.7 196.78,61.76C198.59,60.88 200.51,60.25 202.41,59.99C204.27,59.74 206.18,59.87 208.04,60.17C209.93,60.48 211.8,61.18 213.66,61.85C215.56,62.53 217.41,63.47 219.29,64.25C221.16,65.03 223.02,65.89 224.92,66.52C226.77,67.14 228.65,67.67 230.54,68C232.4,68.32 234.29,68.44 236.17,68.48C238.05,68.52 239.92,68.34 241.8,68.26C243.68,68.18 245.56,67.98 247.43,68.02C249.31,68.06 251.2,68.15 253.05,68.53C254.95,68.92 256.85,69.53 258.68,70.37C260.61,71.25 262.49,72.45 264.31,73.76C266.24,75.15 268.09,76.83 269.93,78.53C271.85,80.31 273.7,82.3 275.56,84.24C277.45,86.21 279.3,88.3 281.19,90.25C283.05,92.17 284.89,94.13 286.81,95.85C288.64,97.5 290.5,99.12 292.44,100.4C294.26,101.6 296.14,102.69 298.07,103.38C299.9,104.03 301.82,104.44 303.7,104.5C305.57,104.56 307.48,104.25 309.32,103.77C311.23,103.27 313.1,102.39 314.95,101.5C316.86,100.58 318.71,99.39 320.58,98.29C322.46,97.18 324.3,95.93 326.2,94.89C328.06,93.87 329.92,92.83 331.83,92.09C333.67,91.38 335.57,90.77 337.46,90.51C339.32,90.25 341.22,90.25 343.08,90.5C344.97,90.76 346.87,91.35 348.71,92.06C350.62,92.79 352.49,93.83 354.34,94.87C356.24,95.94 358.1,97.22 359.97,98.42C361.85,99.63 363.7,100.94 365.59,102.12C367.45,103.28 369.32,104.45 371.22,105.43C373.07,106.38 374.95,107.27 376.85,107.95C378.7,108.61 380.58,109.13 382.47,109.45C384.33,109.76 386.22,109.89 388.1,109.86C389.98,109.83 391.86,109.6 393.73,109.29C395.61,108.98 397.48,108.49 399.35,107.99C401.23,107.48 403.1,106.85 404.98,106.26C406.86,105.67 408.73,105.02 410.61,104.46C412.48,103.91 414.35,103.34 416.24,102.92C418.1,102.5 419.98,102.13 421.86,101.93C423.73,101.73 425.62,101.63 427.49,101.71C429.37,101.79 431.26,102.03 433.12,102.41C435.01,102.8 436.89,103.37 438.74,104.03C440.64,104.7 442.51,105.54 444.37,106.41C446.26,107.29 448.13,108.31 450,109.29C451.88,110.28 453.74,111.33 455.62,112.31C457.49,113.29 459.36,114.28 461.25,115.17C463.11,116.05 464.99,116.89 466.88,117.64C468.74,118.38 470.62,119.04 472.51,119.64C474.37,120.23 476.25,120.74 478.13,121.2C480,121.65 481.88,122.04 483.76,122.38C485.63,122.72 487.51,123.01 489.39,123.26C491.26,123.51 493.13,123.72 495.01,123.9C496.88,124.08 498.76,124.22 500.64,124.35C502.52,124.47 504.39,124.57 506.27,124.65C508.14,124.73 510.02,124.78 511.89,124.83C513.77,124.88 515.64,124.91 517.52,124.94Q519.4,124.97 523.15,124.99L523.15,125.03" style="vector-effect: none; stroke-width: 2px; stroke: rgb(81, 123, 98); stroke-opacity: 1; fill: rgb(101, 154, 123); fill-opacity: 0.5;"/><path class="meanline" d="M277.82,86.65190887451172V125.03" style="fill: none; vector-effect: none; stroke-width: 2px; stroke-dasharray: 4px, 2px; stroke: rgb(81, 123, 98); stroke-opacity: 1;"/></g><g class="trace violins" style="opacity: 1;"><path class="violin" d="M203.37,99.01L203.37,98.71Q206.57,98.52 208.17,98.34C209.77,98.16 211.38,97.96 212.97,97.64C214.58,97.32 216.19,96.94 217.78,96.43C219.4,95.91 221,95.29 222.58,94.55C224.21,93.79 225.81,92.88 227.38,91.89C229.01,90.87 230.61,89.69 232.19,88.49C233.81,87.27 235.39,85.92 236.99,84.62C238.59,83.32 240.17,81.93 241.79,80.7C243.37,79.5 244.96,78.28 246.6,77.31C248.16,76.39 249.76,75.52 251.4,74.97C252.97,74.44 254.6,74.09 256.21,74.01C257.8,73.93 259.43,74.13 261.01,74.47C262.63,74.81 264.23,75.44 265.81,76.08C267.43,76.74 269.02,77.58 270.62,78.37C272.23,79.16 273.81,80.05 275.42,80.83C277.01,81.6 278.6,82.39 280.22,83C281.8,83.6 283.41,84.16 285.03,84.49C286.61,84.81 288.23,85.02 289.83,84.98C291.44,84.94 293.07,84.69 294.64,84.24C296.27,83.78 297.88,83.04 299.44,82.2C301.08,81.32 302.67,80.17 304.24,79.02C305.87,77.83 307.45,76.45 309.05,75.15C310.65,73.85 312.23,72.45 313.85,71.22C315.43,70.02 317.01,68.83 318.65,67.85C320.22,66.91 321.83,66.08 323.46,65.43C325.03,64.81 326.65,64.36 328.26,64C329.85,63.64 331.46,63.47 333.06,63.25C334.66,63.03 336.27,62.91 337.87,62.67C339.47,62.43 341.08,62.17 342.67,61.79C344.28,61.4 345.89,60.92 347.48,60.36C349.1,59.78 350.69,59.09 352.28,58.36C353.89,57.61 355.49,56.78 357.08,55.91C358.7,55.03 360.3,54.09 361.89,53.09C363.51,52.08 365.11,51.01 366.69,49.87C368.31,48.71 369.9,47.46 371.49,46.18C373.11,44.88 374.69,43.47 376.3,42.14C377.9,40.82 379.46,39.41 381.1,38.24C382.67,37.12 384.25,35.97 385.91,35.25C387.46,34.58 389.1,34.04 390.71,33.97C392.3,33.9 393.95,34.24 395.51,34.79C397.16,35.37 398.75,36.43 400.32,37.46C401.96,38.54 403.52,39.93 405.12,41.15C406.72,42.37 408.28,43.71 409.92,44.79C411.49,45.83 413.09,46.82 414.73,47.53C416.29,48.21 417.91,48.7 419.53,49.01C421.11,49.32 422.73,49.37 424.33,49.42C425.93,49.47 427.54,49.33 429.14,49.29C430.74,49.26 432.34,49.17 433.94,49.21C435.54,49.25 437.15,49.34 438.75,49.52C440.35,49.7 441.95,49.98 443.55,50.27C445.15,50.56 446.75,50.91 448.35,51.26C449.95,51.61 451.56,51.96 453.16,52.35C454.76,52.75 456.37,53.13 457.96,53.63C459.57,54.14 461.19,54.69 462.76,55.41C464.39,56.16 466.01,57.05 467.57,58.09C469.22,59.18 470.8,60.49 472.37,61.86C474.01,63.3 475.59,64.93 477.18,66.54C478.8,68.18 480.36,69.95 481.98,71.59C483.56,73.2 485.14,74.84 486.78,76.27C488.34,77.63 489.93,78.95 491.59,79.99C493.14,80.96 494.75,81.8 496.39,82.38C497.96,82.93 499.58,83.27 501.19,83.44C502.78,83.61 504.4,83.54 506,83.43C507.6,83.32 509.2,83.03 510.8,82.76C512.4,82.49 514,82.12 515.6,81.83C517.2,81.54 518.8,81.22 520.41,81C522.01,80.78 523.61,80.58 525.21,80.51C526.81,80.44 528.42,80.44 530.02,80.55C531.62,80.66 533.23,80.87 534.82,81.19C536.43,81.51 538.03,81.95 539.62,82.46C541.24,82.98 542.84,83.63 544.43,84.31C546.04,85 547.64,85.79 549.23,86.57C550.84,87.36 552.43,88.2 554.03,89.01C555.63,89.82 557.23,90.65 558.84,91.41C560.43,92.16 562.03,92.89 563.64,93.54C565.23,94.18 566.84,94.77 568.45,95.28C570.04,95.79 571.64,96.23 573.25,96.61C574.84,96.99 576.44,97.3 578.05,97.56C579.65,97.82 581.26,98.01 582.86,98.18C584.46,98.35 586.06,98.47 587.66,98.57Q589.26,98.67 592.46,98.8L592.46,99.01" style="vector-effect: none; stroke-width: 2px; stroke: rgb(47, 117, 157); stroke-opacity: 1; fill: rgb(59, 146, 196); fill-opacity: 0.5;"/><path class="meanline" d="M394.87,34.578208923339844V99.01" style="fill: none; vector-effect: none; stroke-width: 2px; stroke-dasharray: 4px, 2px; stroke: rgb(47, 117, 157); stroke-opacity: 1;"/></g><g class="trace violins" style="opacity: 1;"><path class="violin" d="M267.68,73L267.68,72.86Q271.1,72.77 272.81,72.71C274.52,72.64 276.23,72.57 277.94,72.47C279.65,72.37 281.36,72.26 283.07,72.12C284.78,71.98 286.49,71.81 288.2,71.64C289.91,71.47 291.62,71.28 293.33,71.09C295.04,70.91 296.74,70.71 298.45,70.53C300.16,70.35 301.87,70.17 303.58,70.01C305.29,69.86 307,69.72 308.71,69.6C310.42,69.48 312.13,69.39 313.84,69.31C315.55,69.23 317.26,69.18 318.97,69.13C320.68,69.08 322.39,69.06 324.1,69.03C325.81,69.01 327.51,68.99 329.22,68.98C330.93,68.97 332.64,68.97 334.35,68.96C336.06,68.95 337.77,68.96 339.48,68.94C341.19,68.92 342.9,68.9 344.61,68.84C346.32,68.78 348.03,68.71 349.74,68.59C351.45,68.47 353.16,68.31 354.87,68.1C356.58,67.89 358.29,67.63 359.99,67.34C361.7,67.05 363.41,66.7 365.12,66.34C366.83,65.98 368.54,65.58 370.25,65.19C371.96,64.8 373.67,64.39 375.38,64.02C377.09,63.65 378.8,63.29 380.51,62.95C382.22,62.62 383.92,62.3 385.63,62.01C387.34,61.72 389.05,61.46 390.76,61.19C392.47,60.92 394.18,60.67 395.89,60.4C397.6,60.13 399.31,59.85 401.02,59.56C402.73,59.26 404.44,58.95 406.15,58.63C407.86,58.31 409.57,57.97 411.28,57.65C412.99,57.33 414.69,56.99 416.4,56.7C418.11,56.41 419.82,56.13 421.53,55.89C423.24,55.65 424.95,55.45 426.66,55.28C428.37,55.12 430.08,55 431.79,54.9C433.5,54.8 435.21,54.73 436.92,54.67C438.63,54.61 440.34,54.58 442.05,54.54C443.76,54.5 445.46,54.47 447.17,54.43C448.88,54.39 450.59,54.36 452.3,54.32C454.01,54.28 455.72,54.24 457.43,54.19C459.14,54.14 460.85,54.08 462.56,54.02C464.27,53.95 465.98,53.89 467.69,53.8C469.4,53.71 471.11,53.61 472.82,53.48C474.53,53.35 476.23,53.2 477.94,53.01C479.65,52.82 481.36,52.6 483.07,52.32C484.78,52.04 486.5,51.73 488.2,51.35C489.92,50.97 491.63,50.54 493.33,50.05C495.05,49.55 496.76,48.99 498.46,48.39C500.18,47.78 501.89,47.1 503.59,46.41C505.3,45.71 507,44.96 508.71,44.22C510.42,43.48 512.13,42.71 513.84,41.99C515.55,41.27 517.25,40.56 518.97,39.9C520.67,39.25 522.38,38.63 524.1,38.05C525.8,37.47 527.52,36.96 529.23,36.42C530.94,35.88 532.66,35.39 534.36,34.81C536.08,34.22 537.79,33.63 539.48,32.91C541.21,32.18 542.92,31.36 544.61,30.45C546.34,29.51 548.05,28.44 549.74,27.33C551.47,26.19 553.17,24.93 554.87,23.68C556.59,22.42 558.29,21.08 560,19.8C561.7,18.53 563.4,17.23 565.12,16.04C566.81,14.87 568.51,13.7 570.25,12.69C571.94,11.7 573.64,10.76 575.38,10.02C577.06,9.31 578.78,8.66 580.51,8.32C582.2,7.98 583.94,7.8 585.64,7.95C587.36,8.1 589.11,8.56 590.77,9.26C592.53,10 594.24,11.13 595.89,12.37C597.67,13.71 599.35,15.4 601.02,17.11C602.78,18.92 604.46,20.96 606.15,22.97C607.88,25.02 609.56,27.2 611.28,29.29C612.98,31.36 614.67,33.47 616.41,35.44C618.09,37.35 619.79,39.23 621.54,40.95C623.21,42.6 624.91,44.17 626.66,45.57C628.33,46.9 630.04,48.12 631.79,49.19C633.47,50.22 635.19,51.11 636.92,51.89C638.61,52.65 640.33,53.28 642.05,53.83C643.75,54.37 645.46,54.8 647.18,55.18C648.88,55.56 650.6,55.85 652.31,56.13C654.01,56.4 655.72,56.62 657.43,56.83C659.14,57.04 660.85,57.21 662.56,57.39C664.27,57.57 665.98,57.74 667.69,57.92C669.4,58.11 671.11,58.29 672.82,58.5C674.53,58.72 676.24,58.94 677.95,59.21C679.66,59.48 681.37,59.79 683.08,60.13C684.79,60.48 686.5,60.86 688.2,61.28C689.91,61.7 691.62,62.16 693.33,62.64C695.04,63.12 696.75,63.63 698.46,64.14C700.17,64.65 701.88,65.18 703.59,65.68C705.3,66.18 707.01,66.68 708.72,67.15C710.43,67.61 712.14,68.06 713.85,68.47C715.55,68.88 717.26,69.26 718.97,69.61C720.68,69.96 722.39,70.27 724.1,70.55C725.81,70.83 727.52,71.08 729.23,71.3C730.94,71.52 732.65,71.7 734.36,71.86C736.07,72.02 737.78,72.16 739.49,72.28C741.2,72.4 742.91,72.48 744.62,72.56C746.33,72.64 748.03,72.7 749.74,72.75C751.45,72.8 753.16,72.84 754.87,72.87Q756.58,72.9 760,72.93L760,73" style="vector-effect: none; stroke-width: 2px; stroke: rgb(117, 70, 134); stroke-opacity: 1; fill: rgb(146, 88, 167); fill-opacity: 0.5;"/><path class="meanline" d="M544.91,30.285396575927734V73" style="fill: none; vector-effect: none; stroke-width: 2px; stroke-dasharray: 4px, 2px; stroke: rgb(117, 70, 134); stroke-opacity: 1;"/></g></g></g><g class="overplot"/><path class="xlines-above crisp" d="M0,0" style="fill: none;"/><path class="ylines-above crisp" d="M0,0" style="fill: none;"/><g class="overlines-above"/><g class="xaxislayer-above"><g class="xtick"><text text-anchor="middle" x="0" y="172" transform="translate(66.69,0)" style="font-family: 'Open Sans', verdana, arial, sans-serif; font-size: 12px; fill: rgb(242, 245, 250); fill-opacity: 1; white-space: pre; opacity: 1;">0</text></g><g class="xtick"><text text-anchor="middle" x="0" y="172" style="font-family: 'Open Sans', verdana, arial, sans-serif; font-size: 12px; fill: rgb(242, 245, 250); fill-opacity: 1; white-space: pre; opacity: 1;" transform="translate(149.5,0)">10</text></g><g class="xtick"><text text-anchor="middle" x="0" y="172" style="font-family: 'Open Sans', verdana, arial, sans-serif; font-size: 12px; fill: rgb(242, 245, 250); fill-opacity: 1; white-space: pre; opacity: 1;" transform="translate(232.3,0)">20</text></g><g class="xtick"><text text-anchor="middle" x="0" y="172" style="font-family: 'Open Sans', verdana, arial, sans-serif; font-size: 12px; fill: rgb(242, 245, 250); fill-opacity: 1; white-space: pre; opacity: 1;" transform="translate(315.11,0)">30</text></g><g class="xtick"><text text-anchor="middle" x="0" y="172" style="font-family: 'Open Sans', verdana, arial, sans-serif; font-size: 12px; fill: rgb(242, 245, 250); fill-opacity: 1; white-space: pre; opacity: 1;" transform="translate(397.91,0)">40</text></g><g class="xtick"><text text-anchor="middle" x="0" y="172" style="font-family: 'Open Sans', verdana, arial, sans-serif; font-size: 12px; fill: rgb(242, 245, 250); fill-opacity: 1; white-space: pre; opacity: 1;" transform="translate(480.72,0)">50</text></g><g class="xtick"><text text-anchor="middle" x="0" y="172" style="font-family: 'Open Sans', verdana, arial, sans-serif; font-size: 12px; fill: rgb(242, 245, 250); fill-opacity: 1; white-space: pre; opacity: 1;" transform="translate(563.53,0)">60</text></g><g class="xtick"><text text-anchor="middle" x="0" y="172" style="font-family: 'Open Sans', verdana, arial, sans-serif; font-size: 12px; fill: rgb(242, 245, 250); fill-opacity: 1; white-space: pre; opacity: 1;" transform="translate(646.33,0)">70</text></g><g class="xtick"><text text-anchor="middle" x="0" y="172" style="font-family: 'Open Sans', verdana, arial, sans-serif; font-size: 12px; fill: rgb(242, 245, 250); fill-opacity: 1; white-space: pre; opacity: 1;" transform="translate(729.14,0)">80</text></g></g><g class="yaxislayer-above"/><g class="overaxes-above"/></g></g><g class="polarlayer"/><g class="smithlayer"/><g class="ternarylayer"/><g class="geolayer"/><g class="funnelarealayer"/><g class="pielayer"/><g class="iciclelayer"/><g class="treemaplayer"/><g class="sunburstlayer"/><g class="glimages"/><defs id="topdefs-d9fd7f"><g class="clips"/></defs><g class="layer-above"><g class="imagelayer"/><g class="shapelayer"/></g><g class="infolayer"><g class="g-gtitle"/><g class="g-xtitle" transform="translate(0,-2.3000000000000114)"><text class="xtitle" x="400" y="199.3" text-anchor="middle" style="font-family: 'Open Sans', verdana, arial, sans-serif; font-size: 14px; fill: rgb(242, 245, 250); opacity: 1; white-space: pre;">Kid Energy</text></g><g class="g-ytitle"/></g></svg>