<svg class="main-svg" xmlns="http://www.w3.org/2000/svg" xmlns:xlink="http://www.w3.org/1999/xlink" width="800" height="200" style="" viewBox="0 0 800 200"><rect x="0" y="0" width="800" height="200" style="fill: rgb(0, 0, 0); fill-opacity: 0;"/><defs id="defs-d66f09"><g class="clips"><clipPath id="clipd66f09xyplot" class="plotclip"><rect width="800" height="159"/></clipPath><clipPath class="axesclip" id="clipd66f09x"><rect x="0" y="0" width="800" height="200"/></clipPath><clipPath class="axesclip" id="clipd66f09y"><rect x="0" y="0" width="800" height="159"/></clipPath><clipPath class="axesclip" id="clipd66f09xy"><rect x="0" y="0" width="800" height="159"/></clipPath></g><g class="gradients"/><g class="patterns"/></defs><g class="bglayer"><rect class="bg" x="0" y="0" width="800" height="159" style="fill: rgb(0, 0, 0); fill-opacity: 0; stroke-width: 0;"/></g><g class="layer-below"><g class="imagelayer"/><g class="shapelayer"/></g><g class="cartesianlayer"><g class="subplot xy"><g class="layer-subplot"><g class="shapelayer"/><g class="imagelayer"/></g><g class="minor-gridlayer"><g class="x"/><g class="y"/></g><g class="gridlayer"><g class="x"><path class="xgrid crisp" transform="translate(195.36,0)" d="M0,0v159" style="stroke: rgb(40, 52, 66); stroke-opacity: 1; stroke-width: 1px;"/><path class="xgrid crisp" transform="translate(313.12,0)" d="M0,0v159" style="stroke: rgb(40, 52, 66); stroke-opacity: 1; stroke-width: 1px;"/><path class="xgrid crisp" transform="translate(430.88,0)" d="M0,0v159" style="stroke: rgb(40, 52, 66); stroke-opacity: 1; stroke-width: 1px;"/><path class="xgrid crisp" transform="translate(548.65,0)" d="M0,0v159" style="stroke: rgb(40, 52, 66); stroke-opacity: 1; stroke-width: 1px;"/><path class="xgrid crisp" transform="translate(666.41,0)" d="M0,0v159" style="stroke: rgb(40, 52, 66); stroke-opacity: 1; stroke-width: 1px;"/><path class="xgrid crisp" transform="translate(784.17,0)" d="M0,0v159" style="stroke: rgb(40, 52, 66); stroke-opacity: 1; stroke-width: 1px;"/></g><g class="y"/></g><g class="zerolinelayer"><path class="xzl zl crisp" transform="translate(77.6,0)" d="M0,0v159" style="stroke: rgb(40, 52, 66); stroke-opacity: 1; stroke-width: 2px;"/></g><g class="layer-between"><g class="shapelayer"/><g class="imagelayer"/></g><path class="xlines-below"/><path class="ylines-below"/><g class="overlines-below"/><g class="xaxislayer-below"/><g class="yaxislayer-below"/><g class="overaxes-below"/><g class="plot" transform="" clip-path="url(#clipd66f09xyplot)"><g class="violinlayer mlayer"><g class="trace violins" style="opacity: 1;"><path class="violin" d="M44.29,151.05L44.29,145.09Q48.03,141.89 49.76,139.89C51.7,137.65 53.49,134.96 55.23,132.15C57.15,129.06 58.92,125.54 60.7,122.04C62.57,118.36 64.33,114.36 66.17,110.59C67.98,106.88 69.72,102.99 71.64,99.6C73.38,96.52 75.1,93.34 77.11,91.04C78.8,89.1 80.62,87.2 82.58,86.4C84.3,85.7 86.28,85.61 88.05,86C89.94,86.41 91.76,87.78 93.52,89.03C95.42,90.38 97.17,92.25 98.99,93.9C100.82,95.56 102.6,97.41 104.46,98.96C106.25,100.45 108.05,101.91 109.93,103.06C111.7,104.15 113.54,105.05 115.4,105.76C117.19,106.44 119.03,106.88 120.87,107.27C122.68,107.65 124.51,107.85 126.34,108.09C128.16,108.33 129.99,108.49 131.81,108.7C133.63,108.91 135.46,109.13 137.28,109.35C139.1,109.56 140.92,109.81 142.75,109.99C144.57,110.17 146.4,110.35 148.22,110.41C150.04,110.47 151.87,110.47 153.69,110.37C155.52,110.27 157.34,110.06 159.16,109.8C160.99,109.54 162.81,109.16 164.63,108.79C166.46,108.42 168.28,107.98 170.1,107.57C171.92,107.17 173.74,106.75 175.57,106.36C177.39,105.97 179.22,105.62 181.04,105.25C182.86,104.88 184.69,104.56 186.51,104.15C188.34,103.74 190.17,103.32 191.98,102.8C193.81,102.27 195.64,101.67 197.45,100.98C199.29,100.28 201.11,99.47 202.92,98.63C204.75,97.78 206.57,96.82 208.39,95.92C210.21,95.02 212.02,94.06 213.86,93.23C215.67,92.41 217.49,91.6 219.33,90.95C221.14,90.32 222.96,89.77 224.8,89.38C226.61,88.99 228.44,88.75 230.27,88.6C232.09,88.45 233.92,88.46 235.74,88.5C237.56,88.54 239.39,88.69 241.21,88.87C243.04,89.05 244.86,89.29 246.68,89.56C248.51,89.84 250.33,90.14 252.15,90.52C253.98,90.9 255.81,91.32 257.62,91.85C259.46,92.38 261.29,92.98 263.09,93.71C264.93,94.46 266.77,95.31 268.56,96.29C270.41,97.3 272.24,98.46 274.03,99.71C275.89,101 277.7,102.45 279.5,103.94C281.35,105.46 283.15,107.13 284.97,108.75C286.8,110.38 288.61,112.09 290.45,113.69C292.26,115.26 294.06,116.86 295.92,118.28C297.71,119.65 299.53,120.97 301.39,122.1C303.18,123.18 305.01,124.14 306.86,124.95C308.66,125.73 310.49,126.36 312.33,126.9C314.14,127.43 315.97,127.81 317.8,128.19C319.62,128.56 321.45,128.83 323.27,129.15C325.09,129.47 326.92,129.75 328.74,130.1C330.57,130.45 332.39,130.81 334.21,131.23C336.04,131.65 337.86,132.12 339.68,132.64C341.51,133.16 343.33,133.73 345.15,134.34C346.98,134.95 348.8,135.6 350.62,136.29C352.45,136.98 354.27,137.72 356.09,138.47C357.92,139.22 359.74,140 361.56,140.77C363.38,141.54 365.2,142.34 367.03,143.09C368.85,143.84 370.67,144.58 372.5,145.26C374.32,145.93 376.14,146.57 377.97,147.13C379.78,147.68 381.61,148.18 383.44,148.6C385.26,149.02 387.08,149.35 388.91,149.64C390.73,149.92 392.55,150.13 394.38,150.31C396.2,150.48 398.03,150.59 399.85,150.69Q401.67,150.79 405.32,150.89L405.32,151.05" style="vector-effect: none; stroke-width: 2px; stroke: rgb(81, 123, 98); stroke-opacity: 1; fill: rgb(101, 154, 123); fill-opacity: 0.5;"/><path class="meanline" d="M193.35,102.38955688476562V151.05" style="fill: none; vector-effect: none; stroke-width: 2px; stroke-dasharray: 4px, 2px; stroke: rgb(81, 123, 98); stroke-opacity: 1;"/></g><g class="trace violins" style="opacity: 1;"><path class="violin" d="M40,125.03L40,124.85Q44.15,124.74 46.22,124.65C48.29,124.55 50.37,124.44 52.44,124.28C54.51,124.12 56.59,123.92 58.66,123.67C60.74,123.42 62.81,123.12 64.88,122.76C66.96,122.4 69.03,121.98 71.1,121.5C73.18,121.02 75.25,120.48 77.32,119.89C79.4,119.3 81.47,118.64 83.54,117.96C85.62,117.27 87.69,116.52 89.76,115.77C91.84,115.02 93.91,114.22 95.98,113.44C98.05,112.67 100.12,111.86 102.2,111.12C104.27,110.38 106.34,109.63 108.42,108.98C110.48,108.34 112.55,107.74 114.63,107.26C116.69,106.79 118.77,106.39 120.85,106.12C122.92,105.85 125,105.72 127.07,105.64C129.14,105.56 131.22,105.62 133.29,105.64C135.36,105.66 137.44,105.79 139.51,105.75C141.58,105.71 143.67,105.68 145.73,105.4C147.82,105.11 149.91,104.69 151.95,104.02C154.06,103.32 156.14,102.37 158.17,101.25C160.3,100.07 162.36,98.6 164.39,97.06C166.51,95.46 168.55,93.6 170.61,91.79C172.7,89.94 174.74,87.95 176.83,86.08C178.89,84.23 180.94,82.33 183.05,80.65C185.09,79.03 187.15,77.44 189.27,76.13C191.3,74.88 193.37,73.74 195.49,72.91C197.52,72.11 199.62,71.51 201.71,71.19C203.76,70.88 205.87,70.82 207.93,70.98C210.01,71.14 212.1,71.58 214.15,72.17C216.25,72.77 218.32,73.64 220.37,74.57C222.47,75.53 224.53,76.7 226.59,77.85C228.68,79.02 230.73,80.34 232.81,81.54C234.88,82.74 236.93,84 239.03,85.05C241.08,86.07 243.15,87.06 245.25,87.77C247.29,88.46 249.38,89.01 251.47,89.28C253.53,89.55 255.63,89.57 257.69,89.41C259.77,89.25 261.85,88.82 263.9,88.31C265.99,87.79 268.06,87.08 270.12,86.33C272.21,85.57 274.28,84.69 276.34,83.77C278.43,82.84 280.5,81.86 282.56,80.78C284.65,79.69 286.73,78.51 288.78,77.25C290.88,75.96 292.94,74.55 295,73.11C297.09,71.65 299.14,70.03 301.22,68.54C303.29,67.06 305.32,65.45 307.44,64.18C309.47,62.96 311.53,61.71 313.66,61.01C315.68,60.35 317.82,59.87 319.88,59.99C321.97,60.11 324.11,60.77 326.1,61.74C328.27,62.79 330.33,64.5 332.32,66.27C334.49,68.2 336.51,70.61 338.54,72.97C340.66,75.44 342.69,78.2 344.76,80.81C346.83,83.43 348.87,86.15 350.98,88.66C353.02,91.08 355.06,93.48 357.2,95.6C359.22,97.6 361.28,99.49 363.42,101.1C365.44,102.62 367.52,103.95 369.64,105.08C371.67,106.16 373.76,107.02 375.86,107.76C377.91,108.48 380,109.01 382.08,109.49C384.14,109.97 386.22,110.31 388.3,110.64C390.37,110.97 392.45,111.21 394.52,111.49C396.59,111.76 398.67,112 400.74,112.29C402.81,112.58 404.89,112.87 406.96,113.22C409.03,113.58 411.1,113.97 413.17,114.42C415.25,114.87 417.32,115.38 419.39,115.92C421.47,116.46 423.54,117.07 425.61,117.66C427.68,118.25 429.75,118.88 431.83,119.47C433.9,120.05 435.97,120.65 438.05,121.17C440.12,121.68 442.19,122.16 444.27,122.57C446.34,122.98 448.41,123.32 450.49,123.61Q452.56,123.89 456.71,124.28L456.71,125.03" style="vector-effect: none; stroke-width: 2px; stroke: rgb(162, 162, 42); stroke-opacity: 1; fill: rgb(203, 203, 52); fill-opacity: 0.5;"/><path class="meanline" d="M258.71,89.3106689453125V125.03" style="fill: none; vector-effect: none; stroke-width: 2px; stroke-dasharray: 4px, 2px; stroke: rgb(162, 162, 42); stroke-opacity: 1;"/></g><g class="trace violins" style="opacity: 1;"><path class="violin" d="M137.1,99.01L137.1,98.93Q142.23,98.88 144.79,98.82C147.35,98.76 149.92,98.69 152.48,98.57C155.04,98.45 157.61,98.32 160.17,98.12C162.74,97.92 165.3,97.68 167.86,97.36C170.43,97.04 172.99,96.65 175.55,96.2C178.12,95.75 180.68,95.21 183.24,94.65C185.81,94.09 188.37,93.44 190.93,92.84C193.49,92.24 196.05,91.58 198.62,91.03C201.18,90.48 203.74,89.94 206.31,89.55C208.87,89.16 211.43,88.85 214,88.68C216.56,88.51 219.13,88.48 221.69,88.53C224.25,88.58 226.82,88.78 229.38,88.98C231.95,89.19 234.51,89.5 237.07,89.76C239.63,90.02 242.19,90.31 244.76,90.52C247.32,90.73 249.89,90.91 252.45,91C255.01,91.09 257.58,91.11 260.14,91.06C262.7,91.01 265.27,90.87 267.83,90.69C270.4,90.51 272.96,90.25 275.52,89.97C278.09,89.69 280.65,89.36 283.21,89.01C285.78,88.66 288.34,88.27 290.9,87.85C293.47,87.42 296.03,86.97 298.59,86.46C301.16,85.94 303.72,85.39 306.28,84.76C308.85,84.13 311.41,83.44 313.97,82.69C316.54,81.94 319.1,81.11 321.66,80.26C324.23,79.4 326.79,78.48 329.35,77.56C331.92,76.64 334.48,75.68 337.04,74.73C339.6,73.78 342.17,72.83 344.73,71.87C347.29,70.91 349.86,69.96 352.42,68.99C354.99,68.01 357.55,67.05 360.11,66.02C362.68,64.99 365.25,63.94 367.8,62.8C370.38,61.65 372.94,60.45 375.49,59.17C378.07,57.87 380.63,56.49 383.18,55.05C385.76,53.59 388.31,52.03 390.87,50.48C393.44,48.92 395.99,47.26 398.56,45.7C401.12,44.15 403.66,42.54 406.25,41.14C408.79,39.77 411.34,38.41 413.94,37.36C416.47,36.34 419.04,35.44 421.63,34.87C424.17,34.32 426.76,33.99 429.32,33.97C431.88,33.95 434.47,34.24 437.01,34.74C439.6,35.25 442.17,36.07 444.7,37.02C447.3,38 449.86,39.24 452.39,40.56C454.99,41.92 457.54,43.48 460.08,45.08C462.67,46.72 465.22,48.5 467.77,50.29C470.35,52.1 472.9,54.01 475.46,55.86C478.02,57.71 480.57,59.61 483.15,61.39C485.7,63.15 488.25,64.9 490.84,66.48C493.37,68.02 495.93,69.49 498.53,70.75C501.06,71.98 503.63,73.07 506.23,73.96C508.77,74.83 511.34,75.52 513.92,76.03C516.47,76.53 519.04,76.84 521.61,77.02C524.17,77.2 526.74,77.2 529.3,77.14C531.86,77.08 534.43,76.87 536.99,76.67C539.55,76.47 542.12,76.18 544.68,75.96C547.24,75.74 549.81,75.5 552.37,75.35C554.93,75.2 557.5,75.1 560.06,75.07C562.62,75.04 565.19,75.1 567.75,75.19C570.31,75.28 572.88,75.45 575.44,75.6C578,75.75 580.57,75.94 583.13,76.08C585.69,76.22 588.26,76.35 590.82,76.44C593.38,76.53 595.95,76.59 598.51,76.63C601.07,76.67 603.64,76.66 606.2,76.68C608.76,76.7 611.33,76.68 613.89,76.73C616.45,76.78 619.02,76.84 621.58,76.96C624.14,77.08 626.71,77.24 629.27,77.47C631.84,77.7 634.4,77.99 636.96,78.35C639.53,78.71 642.09,79.13 644.65,79.62C647.22,80.11 649.78,80.67 652.34,81.27C654.91,81.87 657.47,82.53 660.03,83.21C662.6,83.89 665.16,84.63 667.72,85.35C670.28,86.07 672.85,86.82 675.41,87.55C677.97,88.27 680.53,89.01 683.1,89.7C685.66,90.39 688.22,91.07 690.79,91.7C693.35,92.33 695.91,92.92 698.48,93.47C701.04,94.02 703.6,94.53 706.17,94.99C708.73,95.45 711.29,95.86 713.86,96.23C716.42,96.6 718.98,96.91 721.55,97.19C724.11,97.47 726.68,97.69 729.24,97.89C731.8,98.09 734.37,98.24 736.93,98.37C739.49,98.5 742.06,98.6 744.62,98.68C747.18,98.76 749.75,98.81 752.31,98.85Q754.87,98.89 760,98.94L760,99.01" style="vector-effect: none; stroke-width: 2px; stroke: rgb(117, 70, 134); stroke-opacity: 1; fill: rgb(146, 88, 167); fill-opacity: 0.5;"/><path class="meanline" d="M452.84,40.79743957519531V99.01" style="fill: none; vector-effect: none; stroke-width: 2px; stroke-dasharray: 4px, 2px; stroke: rgb(117, 70, 134); stroke-opacity: 1;"/></g><g class="trace violins" style="opacity: 1;"><path class="violin" d="M231.07,73L231.07,72.92Q234.95,72.89 236.89,72.86C238.83,72.83 240.76,72.8 242.7,72.76C244.64,72.72 246.57,72.67 248.51,72.61C250.45,72.55 252.39,72.48 254.33,72.41C256.27,72.34 258.2,72.26 260.14,72.17C262.08,72.08 264.01,71.98 265.95,71.88C267.89,71.78 269.83,71.67 271.77,71.55C273.71,71.44 275.64,71.31 277.58,71.19C279.52,71.07 281.45,70.95 283.39,70.83C285.33,70.71 287.27,70.59 289.21,70.48C291.15,70.37 293.08,70.27 295.02,70.17C296.96,70.07 298.89,69.98 300.83,69.9C302.77,69.82 304.71,69.74 306.65,69.67C308.59,69.6 310.52,69.53 312.46,69.46C314.4,69.39 316.33,69.32 318.27,69.23C320.21,69.14 322.15,69.06 324.09,68.92C326.03,68.78 327.97,68.64 329.9,68.41C331.84,68.18 333.78,67.91 335.71,67.53C337.66,67.15 339.61,66.69 341.53,66.11C343.48,65.53 345.42,64.83 347.34,64.04C349.3,63.23 351.23,62.29 353.15,61.3C355.11,60.29 357.04,59.17 358.97,58.04C360.92,56.9 362.85,55.67 364.78,54.47C366.72,53.27 368.65,52.04 370.59,50.83C372.53,49.62 374.47,48.42 376.41,47.22C378.35,46.03 380.29,44.86 382.22,43.67C384.16,42.48 386.1,41.29 388.03,40.06C389.98,38.82 391.92,37.58 393.85,36.28C395.8,34.97 397.73,33.63 399.66,32.25C401.61,30.86 403.54,29.42 405.47,27.98C407.42,26.52 409.35,25.02 411.29,23.55C413.23,22.08 415.15,20.58 417.1,19.15C419.03,17.74 420.95,16.31 422.91,15.02C424.83,13.76 426.76,12.52 428.73,11.5C430.63,10.52 432.57,9.59 434.54,9C436.44,8.43 438.41,8 440.35,7.95C442.29,7.9 444.27,8.14 446.17,8.68C448.15,9.24 450.1,10.2 451.98,11.31C453.98,12.49 455.9,14.05 457.79,15.66C459.78,17.36 461.7,19.33 463.61,21.29C465.58,23.3 467.48,25.48 469.42,27.58C471.36,29.68 473.27,31.85 475.23,33.89C477.15,35.88 479.07,37.87 481.05,39.67C482.95,41.4 484.87,43.07 486.86,44.51C488.75,45.88 490.69,47.15 492.67,48.17C494.57,49.14 496.52,49.96 498.49,50.54C500.4,51.1 502.36,51.45 504.3,51.62C506.23,51.79 508.18,51.74 510.11,51.58C512.05,51.42 513.99,51.05 515.92,50.68C517.87,50.3 519.8,49.79 521.74,49.32C523.68,48.85 525.61,48.32 527.55,47.86C529.48,47.4 531.42,46.96 533.36,46.54C535.3,46.13 537.24,45.76 539.18,45.37C541.12,44.98 543.06,44.63 544.99,44.21C546.93,43.78 548.87,43.34 550.8,42.82C552.75,42.3 554.69,41.7 556.62,41.09C558.56,40.48 560.49,39.76 562.43,39.14C564.36,38.52 566.29,37.84 568.24,37.38C570.17,36.92 572.11,36.51 574.06,36.36C575.99,36.22 577.95,36.23 579.87,36.5C581.82,36.77 583.77,37.32 585.68,37.99C587.65,38.68 589.58,39.65 591.5,40.62C593.46,41.62 595.38,42.8 597.31,43.91C599.25,45.02 601.17,46.22 603.12,47.27C605.04,48.3 606.98,49.33 608.94,50.16C610.85,50.97 612.79,51.69 614.75,52.23C616.67,52.76 618.61,53.14 620.56,53.41C622.49,53.67 624.44,53.76 626.38,53.82C628.32,53.88 630.25,53.79 632.19,53.76C634.13,53.72 636.06,53.62 638,53.61C639.94,53.6 641.88,53.6 643.82,53.73C645.76,53.86 647.7,54.07 649.63,54.4C651.58,54.73 653.51,55.19 655.44,55.72C657.39,56.26 659.33,56.93 661.26,57.62C663.21,58.32 665.14,59.13 667.07,59.91C669.01,60.69 670.94,61.52 672.88,62.3C674.82,63.08 676.75,63.87 678.7,64.58C680.63,65.29 682.57,65.96 684.51,66.56C686.44,67.16 688.38,67.7 690.32,68.19C692.25,68.67 694.2,69.09 696.14,69.47C698.07,69.85 700.01,70.16 701.95,70.45C703.88,70.74 705.82,70.97 707.76,71.19C709.7,71.41 711.64,71.59 713.58,71.75C715.52,71.91 717.45,72.04 719.39,72.16C721.33,72.28 723.26,72.37 725.2,72.46C727.14,72.55 729.08,72.62 731.02,72.68C732.96,72.74 734.89,72.78 736.83,72.82C738.77,72.86 740.7,72.88 742.64,72.9Q744.58,72.92 748.46,72.95L748.46,73" style="vector-effect: none; stroke-width: 2px; stroke: rgb(47, 117, 157); stroke-opacity: 1; fill: rgb(59, 146, 196); fill-opacity: 0.5;"/><path class="meanline" d="M491.08,47.29499053955078V73" style="fill: none; vector-effect: none; stroke-width: 2px; stroke-dasharray: 4px, 2px; stroke: rgb(47, 117, 157); stroke-opacity: 1;"/></g></g></g><g class="overplot"/><path class="xlines-above crisp" d="M0,0" style="fill: none;"/><path class="ylines-above crisp" d="M0,0" style="fill: none;"/><g class="overlines-above"/><g class="xaxislayer-above"><g class="xtick"><text text-anchor="middle" x="0" y="172" transform="translate(77.6,0)" style="font-family: 'Open Sans', verdana, arial, sans-serif; font-size: 12px; fill: rgb(242, 245, 250); fill-opacity: 1; white-space: pre; opacity: 1;">0</text></g><g class="xtick"><text text-anchor="middle" x="0" y="172" style="font-family: 'Open Sans', verdana, arial, sans-serif; font-size: 12px; fill: rgb(242, 245, 250); fill-opacity: 1; white-space: pre; opacity: 1;" transform="translate(195.36,0)">10</text></g><g class="xtick"><text text-anchor="middle" x="0" y="172" style="font-family: 'Open Sans', verdana, arial, sans-serif; font-size: 12px; fill: rgb(242, 245, 250); fill-opacity: 1; white-space: pre; opacity: 1;" transform="translate(313.12,0)">20</text></g><g class="xtick"><text text-anchor="middle" x="0" y="172" style="font-family: 'Open Sans', verdana, arial, sans-serif; font-size: 12px; fill: rgb(242, 245, 250); fill-opacity: 1; white-space: pre; opacity: 1;" transform="translate(430.88,0)">30</text></g><g class="xtick"><text text-anchor="middle" x="0" y="172" style="font-family: 'Open Sans', verdana, arial, sans-serif; font-size: 12px; fill: rgb(242, 245, 250); fill-opacity: 1; white-space: pre; opacity: 1;" transform="translate(548.65,0)">40</text></g><g class="xtick"><text text-anchor="middle" x="0" y="172" style="font-family: 'Open Sans', verdana, arial, sans-serif; font-size: 12px; fill: rgb(242, 245, 250); fill-opacity: 1; white-space: pre; opacity: 1;" transform="translate(666.41,0)">50</text></g><g class="xtick"><text text-anchor="middle" x="0" y="172" style="font-family: 'Open Sans', verdana, arial, sans-serif; font-size: 12px; fill: rgb(242, 245, 250); fill-opacity: 1; white-space: pre; opacity: 1;" transform="translate(784.17,0)">60</text></g></g><g class="yaxislayer-above"/><g class="overaxes-above"/></g></g><g class="polarlayer"/><g class="smithlayer"/><g class="ternarylayer"/><g class="geolayer"/><g class="funnelarealayer"/><g class="pielayer"/><g class="iciclelayer"/><g class="treemaplayer"/><g class="sunburstlayer"/><g class="glimages"/><defs id="topdefs-d66f09"><g class="clips"/></defs><g class="layer-above"><g class="imagelayer"/><g class="shapelayer"/></g><g class="infolayer"><g class="g-gtitle"/><g class="g-xtitle" transform="translate(0,-2.3000000000000114)"><text class="xtitle" x="400" y="199.3" text-anchor="middle" style="font-family: 'Open Sans', verdana, arial, sans-serif; font-size: 14px; fill: rgb(242, 245, 250); opacity: 1; white-space: pre;">Speed</text></g><g class="g-ytitle"/></g></svg>