<svg class="main-svg" xmlns="http://www.w3.org/2000/svg" xmlns:xlink="http://www.w3.org/1999/xlink" width="800" height="200" style="" viewBox="0 0 800 200"><rect x="0" y="0" width="800" height="200" style="fill: rgb(0, 0, 0); fill-opacity: 0;"/><defs id="defs-a72dab"><g class="clips"><clipPath id="clipa72dabxyplot" class="plotclip"><rect width="721" height="144"/></clipPath><clipPath class="axesclip" id="clipa72dabx"><rect x="35" y="0" width="721" height="200"/></clipPath><clipPath class="axesclip" id="clipa72daby"><rect x="0" y="0" width="800" height="144"/></clipPath><clipPath class="axesclip" id="clipa72dabxy"><rect x="35" y="0" width="721" height="144"/></clipPath></g><g class="gradients"/><g class="patterns"/></defs><g class="bglayer"><rect class="bg" x="35" y="0" width="721" height="144" style="fill: rgb(0, 0, 0); fill-opacity: 0; stroke-width: 0;"/></g><g class="layer-below"><g class="imagelayer"/><g class="shapelayer"/></g><g class="cartesianlayer"><g class="subplot xy"><g class="layer-subplot"><g class="shapelayer"/><g class="imagelayer"/></g><g class="minor-gridlayer"><g class="x"/><g class="y"/></g><g class="gridlayer"><g class="x"/><g class="y"/></g><g class="zerolinelayer"/><g class="layer-between"><g class="shapelayer"/><g class="imagelayer"/></g><path class="xlines-below"/><path class="ylines-below"/><g class="overlines-below"/><g class="xaxislayer-below"/><g class="yaxislayer-below"/><g class="overaxes-below"/><g class="plot" transform="translate(35,0)" clip-path="url(#clipa72dabxyplot)"><g class="violinlayer mlayer"><g class="trace violins" style="opacity: 1;"><path class="violin" d="M-7.68,136.8L-7.68,131.55Q-6.81,128.76 -6.42,127.15C-5.96,125.25 -5.55,123.07 -5.15,120.85C-4.7,118.39 -4.3,115.69 -3.88,113.05C-3.45,110.34 -3.05,107.46 -2.61,104.8C-2.2,102.3 -1.81,99.73 -1.35,97.52C-0.96,95.65 -0.58,93.79 -0.08,92.37C0.3,91.31 0.67,90.28 1.19,89.68C1.56,89.25 2.02,88.97 2.46,88.85C2.86,88.74 3.3,88.86 3.72,88.9C4.14,88.94 4.57,89.03 4.99,89.09C5.41,89.16 5.84,89.19 6.26,89.29C6.69,89.4 7.11,89.54 7.53,89.72C7.96,89.91 8.38,90.19 8.8,90.41C9.22,90.63 9.63,90.92 10.06,91.06C10.47,91.19 10.91,91.28 11.33,91.24C11.76,91.2 12.19,91.01 12.6,90.8C13.04,90.57 13.46,90.24 13.87,89.9C14.3,89.54 14.72,89.15 15.13,88.71C15.57,88.24 16,87.74 16.4,87.17C16.85,86.54 17.26,85.81 17.67,85.06C18.11,84.25 18.52,83.31 18.94,82.45C19.36,81.6 19.74,80.65 20.2,79.91C20.59,79.28 20.99,78.58 21.47,78.25C21.85,77.99 22.32,77.85 22.74,77.89C23.17,77.93 23.6,78.28 24.01,78.55C24.45,78.84 24.85,79.25 25.27,79.61C25.69,79.98 26.13,80.31 26.54,80.73C26.98,81.19 27.42,81.65 27.81,82.26C28.28,82.99 28.69,83.89 29.08,84.88C29.55,86.08 29.95,87.53 30.35,88.99C30.8,90.63 31.2,92.48 31.61,94.27C32.04,96.12 32.45,98.07 32.88,99.93C33.3,101.74 33.72,103.54 34.15,105.27C34.56,106.92 34.99,108.51 35.42,110.08C35.84,111.6 36.26,113.08 36.68,114.57C37.1,116.05 37.53,117.53 37.95,119C38.37,120.46 38.79,121.94 39.22,123.36C39.63,124.71 40.04,126.08 40.49,127.32C40.89,128.43 41.29,129.54 41.75,130.46C42.14,131.23 42.54,132 43.02,132.5C43.41,132.9 43.85,133.26 44.29,133.37C44.7,133.47 45.16,133.37 45.56,133.21C46.01,133.04 46.42,132.66 46.83,132.31C47.27,131.93 47.68,131.44 48.09,130.97C48.52,130.48 48.94,129.94 49.36,129.41C49.79,128.87 50.21,128.31 50.63,127.74C51.06,127.15 51.49,126.54 51.9,125.91C52.33,125.25 52.74,124.56 53.16,123.87C53.59,123.16 54,122.41 54.43,121.72C54.85,121.05 55.24,120.33 55.7,119.77C56.1,119.28 56.51,118.76 56.97,118.52C57.36,118.32 57.83,118.22 58.23,118.31C58.67,118.41 59.1,118.8 59.5,119.16C59.96,119.58 60.36,120.18 60.77,120.74C61.21,121.33 61.62,121.99 62.04,122.6C62.46,123.21 62.87,123.82 63.3,124.4C63.72,124.97 64.14,125.52 64.57,126.07C64.99,126.61 65.42,127.14 65.84,127.68C66.26,128.22 66.69,128.76 67.11,129.3C67.53,129.83 67.95,130.38 68.38,130.89C68.8,131.39 69.21,131.88 69.64,132.33C70.05,132.75 70.48,133.15 70.91,133.51C71.32,133.85 71.75,134.16 72.18,134.43C72.59,134.69 73.02,134.9 73.45,135.1C73.87,135.29 74.29,135.46 74.71,135.61C75.13,135.76 75.55,135.89 75.98,136C76.4,136.11 76.83,136.21 77.25,136.29C77.67,136.37 78.1,136.44 78.52,136.5Q78.94,136.56 79.78,136.64L79.78,136.8" style="vector-effect: none; stroke-width: 2px; stroke: rgb(162, 162, 42); stroke-opacity: 1; fill: rgb(203, 203, 52); fill-opacity: 0.5;"/><path class="meanline" d="M22.06,77.96640014648438V136.8" style="fill: none; vector-effect: none; stroke-width: 2px; stroke-dasharray: 4px, 2px; stroke: rgb(162, 162, 42); stroke-opacity: 1;"/></g><g class="trace violins" style="opacity: 1;"><path class="violin" d="M-0.5,113.24L-0.5,112.97Q1.95,112.79 3.17,112.61C4.4,112.43 5.63,112.21 6.84,111.87C8.08,111.52 9.31,111.1 10.51,110.53C11.77,109.93 13.01,109.19 14.19,108.3C15.46,107.35 16.68,106.2 17.86,104.95C19.14,103.6 20.34,102.04 21.53,100.42C22.8,98.7 23.99,96.78 25.2,94.89C26.44,92.93 27.65,90.85 28.88,88.86C30.1,86.89 31.29,84.85 32.55,83C33.74,81.25 34.94,79.5 36.22,78.02C37.39,76.67 38.6,75.38 39.89,74.4C41.06,73.51 42.3,72.78 43.56,72.28C44.75,71.81 46.01,71.56 47.24,71.42C48.46,71.28 49.69,71.36 50.91,71.44C52.14,71.52 53.36,71.71 54.58,71.89C55.81,72.07 57.03,72.3 58.25,72.52C59.48,72.74 60.71,72.97 61.93,73.21C63.16,73.45 64.38,73.71 65.6,73.96C66.82,74.21 68.04,74.49 69.27,74.7C70.49,74.91 71.71,75.14 72.94,75.21C74.16,75.28 75.41,75.32 76.62,75.14C77.86,74.96 79.1,74.62 80.29,74.1C81.55,73.55 82.78,72.76 83.96,71.88C85.23,70.93 86.43,69.74 87.63,68.54C88.89,67.28 90.09,65.85 91.31,64.49C92.54,63.13 93.73,61.66 94.98,60.37C96.18,59.14 97.37,57.88 98.65,56.93C99.83,56.05 101.05,55.22 102.32,54.79C103.5,54.39 104.78,54.21 105.99,54.33C107.23,54.46 108.49,54.97 109.67,55.59C110.95,56.26 112.15,57.28 113.34,58.29C114.6,59.36 115.8,60.66 117.01,61.89C118.24,63.14 119.44,64.5 120.68,65.74C121.89,66.95 123.1,68.18 124.36,69.24C125.55,70.25 126.77,71.21 128.03,71.97C129.22,72.68 130.45,73.29 131.7,73.7C132.9,74.09 134.14,74.33 135.37,74.41C136.59,74.49 137.83,74.38 139.05,74.2C140.28,74.02 141.5,73.67 142.72,73.31C143.95,72.95 145.17,72.46 146.39,72.05C147.61,71.64 148.83,71.17 150.06,70.83C151.28,70.5 152.51,70.18 153.74,70.03C154.96,69.88 156.19,69.83 157.41,69.92C158.64,70.01 159.87,70.26 161.08,70.58C162.32,70.91 163.54,71.38 164.75,71.88C165.99,72.39 167.21,73 168.42,73.63C169.66,74.27 170.88,74.95 172.1,75.67C173.33,76.4 174.56,77.16 175.77,77.96C177.01,78.78 178.23,79.63 179.44,80.55C180.68,81.49 181.9,82.49 183.11,83.54C184.35,84.62 185.58,85.78 186.79,86.95C188.03,88.15 189.24,89.41 190.46,90.66C191.69,91.91 192.9,93.21 194.13,94.45C195.35,95.68 196.56,96.92 197.8,98.08C199.01,99.21 200.23,100.31 201.48,101.32C202.68,102.29 203.9,103.22 205.15,104.04C206.35,104.83 207.58,105.55 208.82,106.19C210.03,106.81 211.25,107.35 212.49,107.82C213.7,108.29 214.94,108.67 216.17,109.02C217.39,109.36 218.61,109.63 219.84,109.89C221.06,110.14 222.28,110.36 223.51,110.55C224.73,110.74 225.96,110.9 227.18,111.05C228.4,111.2 229.63,111.34 230.85,111.47C232.08,111.6 233.3,111.72 234.53,111.83C235.75,111.94 236.98,112.05 238.2,112.15C239.42,112.25 240.65,112.35 241.87,112.44C243.09,112.53 244.32,112.62 245.54,112.69C246.77,112.76 247.99,112.82 249.22,112.88C250.44,112.94 251.67,112.99 252.89,113.03C254.11,113.07 255.34,113.09 256.56,113.12C257.78,113.14 259.01,113.17 260.23,113.18C261.46,113.2 262.68,113.2 263.91,113.21C265.13,113.22 266.36,113.23 267.58,113.23C268.8,113.23 270.03,113.23 271.25,113.23C272.47,113.23 273.7,113.24 274.92,113.24C276.15,113.24 277.37,113.24 278.6,113.24C279.82,113.24 281.05,113.24 282.27,113.24C283.49,113.24 284.72,113.24 285.94,113.24C287.16,113.24 288.39,113.24 289.61,113.24C290.83,113.24 292.06,113.24 293.28,113.24C294.51,113.24 295.73,113.24 296.96,113.24C298.18,113.24 299.41,113.24 300.63,113.24C301.85,113.24 303.08,113.24 304.3,113.24C305.52,113.24 306.75,113.24 307.97,113.24C309.2,113.24 310.42,113.24 311.65,113.24C312.87,113.24 314.1,113.24 315.32,113.24C316.54,113.24 317.77,113.24 318.99,113.24C320.21,113.24 321.44,113.24 322.66,113.24C323.89,113.24 325.11,113.24 326.34,113.24C327.56,113.24 328.79,113.24 330.01,113.24C331.23,113.24 332.46,113.24 333.68,113.24C334.9,113.24 336.13,113.24 337.35,113.24C338.58,113.24 339.8,113.24 341.03,113.24C342.25,113.24 343.48,113.24 344.7,113.24C345.92,113.24 347.15,113.24 348.37,113.24C349.59,113.24 350.82,113.24 352.04,113.24C353.26,113.24 354.49,113.24 355.71,113.24C356.94,113.24 358.16,113.24 359.39,113.24C360.61,113.24 361.84,113.24 363.06,113.24C364.28,113.24 365.51,113.24 366.73,113.24C367.95,113.24 369.18,113.24 370.4,113.24C371.63,113.24 372.85,113.23 374.08,113.23C375.3,113.23 376.53,113.23 377.75,113.23C378.97,113.23 380.2,113.23 381.42,113.22C382.64,113.21 383.87,113.21 385.09,113.19C386.32,113.17 387.54,113.15 388.77,113.12C389.99,113.09 391.22,113.06 392.44,113.01C393.66,112.96 394.89,112.89 396.11,112.81C397.33,112.73 398.56,112.62 399.78,112.51C401.01,112.4 402.23,112.27 403.46,112.13C404.68,111.99 405.91,111.83 407.13,111.69C408.35,111.55 409.58,111.4 410.8,111.28C412.02,111.16 413.25,111.06 414.47,110.99C415.69,110.92 416.92,110.88 418.14,110.88C419.37,110.88 420.6,110.93 421.82,111C423.05,111.07 424.27,111.19 425.49,111.31C426.71,111.43 427.94,111.58 429.16,111.72C430.38,111.86 431.61,112.02 432.83,112.16C434.06,112.3 435.28,112.43 436.51,112.54C437.73,112.65 438.96,112.75 440.18,112.83C441.4,112.91 442.63,112.97 443.85,113.02Q445.07,113.07 447.52,113.13L447.52,113.24" style="vector-effect: none; stroke-width: 2px; stroke: rgb(47, 117, 157); stroke-opacity: 1; fill: rgb(59, 146, 196); fill-opacity: 0.5;"/><path class="meanline" d="M113.58,58.49714279174805V113.24" style="fill: none; vector-effect: none; stroke-width: 2px; stroke-dasharray: 4px, 2px; stroke: rgb(47, 117, 157); stroke-opacity: 1;"/></g><g class="trace violins" style="opacity: 1;"><path class="violin" d="M4.2,89.67L4.2,89.63Q6.93,89.6 8.29,89.57C9.65,89.54 11.02,89.51 12.38,89.45C13.75,89.39 15.12,89.33 16.48,89.23C17.85,89.13 19.21,89.01 20.57,88.84C21.94,88.67 23.3,88.48 24.66,88.21C26.03,87.94 27.4,87.62 28.75,87.2C30.13,86.78 31.5,86.3 32.84,85.69C34.23,85.06 35.61,84.34 36.94,83.48C38.34,82.58 39.71,81.54 41.03,80.36C42.44,79.1 43.81,77.66 45.12,76.09C46.54,74.39 47.89,72.5 49.21,70.5C50.63,68.35 51.97,66 53.3,63.59C54.7,61.05 56.04,58.31 57.39,55.62C58.77,52.88 60.1,49.99 61.49,47.28C62.83,44.66 64.14,41.95 65.58,39.6C66.88,37.47 68.17,35.28 69.67,33.75C70.94,32.46 72.32,31.17 73.76,30.76C75.06,30.39 76.56,30.57 77.85,31.1C79.32,31.7 80.66,33.15 81.95,34.52C83.42,36.08 84.71,38.15 86.04,40.09C87.44,42.13 88.75,44.4 90.13,46.48C91.48,48.51 92.8,50.61 94.22,52.42C95.53,54.1 96.87,55.72 98.31,57.03C99.61,58.21 100.99,59.24 102.41,60.01C103.73,60.72 105.12,61.19 106.5,61.56C107.85,61.92 109.22,62.05 110.59,62.24C111.95,62.43 113.32,62.49 114.68,62.71C116.05,62.93 117.42,63.16 118.77,63.55C120.15,63.95 121.53,64.48 122.87,65.12C124.26,65.78 125.62,66.61 126.96,67.47C128.35,68.36 129.69,69.4 131.05,70.4C132.42,71.42 133.77,72.51 135.14,73.53C136.5,74.54 137.85,75.56 139.23,76.48C140.58,77.37 141.93,78.23 143.32,78.97C144.67,79.68 146.04,80.32 147.42,80.85C148.77,81.37 150.14,81.79 151.51,82.13C152.86,82.46 154.23,82.71 155.6,82.88C156.96,83.05 158.33,83.14 159.69,83.15C161.05,83.16 162.42,83.1 163.78,82.92C165.15,82.74 166.53,82.47 167.88,82.05C169.26,81.62 170.64,81.05 171.97,80.35C173.37,79.62 174.73,78.7 176.06,77.72C177.46,76.69 178.81,75.48 180.15,74.27C181.53,73.03 182.87,71.64 184.24,70.35C185.6,69.06 186.95,67.71 188.34,66.53C189.68,65.4 191.02,64.27 192.43,63.38C193.76,62.54 195.12,61.8 196.52,61.31C197.85,60.85 199.24,60.56 200.61,60.47C201.97,60.38 203.35,60.52 204.7,60.77C206.08,61.02 207.44,61.48 208.79,61.99C210.18,62.52 211.54,63.2 212.89,63.92C214.27,64.66 215.63,65.52 216.98,66.4C218.36,67.31 219.72,68.3 221.07,69.3C222.44,70.32 223.8,71.41 225.16,72.48C226.53,73.56 227.88,74.69 229.25,75.77C230.61,76.85 231.97,77.94 233.35,78.96C234.7,79.96 236.06,80.95 237.44,81.85C238.79,82.73 240.15,83.56 241.53,84.3C242.88,85.02 244.24,85.67 245.62,86.22C246.97,86.76 248.34,87.22 249.71,87.6C251.07,87.98 252.44,88.27 253.81,88.52C255.17,88.77 256.53,88.94 257.9,89.08C259.26,89.22 260.63,89.31 261.99,89.38C263.35,89.45 264.72,89.49 266.08,89.51C267.44,89.53 268.81,89.53 270.17,89.52C271.54,89.51 272.9,89.49 274.27,89.45C275.63,89.41 277,89.36 278.36,89.3C279.72,89.24 281.09,89.17 282.45,89.09C283.81,89.01 285.18,88.92 286.54,88.84C287.9,88.76 289.27,88.66 290.63,88.59C291.99,88.52 293.36,88.45 294.72,88.41C296.09,88.37 297.45,88.33 298.82,88.33C300.18,88.33 301.55,88.35 302.91,88.39C304.27,88.43 305.64,88.49 307,88.56C308.36,88.63 309.73,88.72 311.09,88.8C312.45,88.88 313.82,88.98 315.18,89.06C316.55,89.14 317.91,89.21 319.28,89.28C320.64,89.34 322.01,89.4 323.37,89.45Q324.73,89.5 327.46,89.56L327.46,89.67" style="vector-effect: none; stroke-width: 2px; stroke: rgb(81, 123, 98); stroke-opacity: 1; fill: rgb(101, 154, 123); fill-opacity: 0.5;"/><path class="meanline" d="M124.08,65.73853302001953V89.67" style="fill: none; vector-effect: none; stroke-width: 2px; stroke-dasharray: 4px, 2px; stroke: rgb(81, 123, 98); stroke-opacity: 1;"/></g><g class="trace violins" style="opacity: 1;"><path class="violin" d="M121.44,66.11L121.44,64.72Q126.37,63.91 128.8,63.28C131.27,62.64 133.74,61.86 136.16,60.89C138.65,59.89 141.11,58.69 143.52,57.35C146.01,55.96 148.46,54.34 150.88,52.67C153.36,50.96 155.8,49.05 158.24,47.2C160.7,45.34 163.13,43.35 165.6,41.52C168.04,39.72 170.47,37.9 172.96,36.3C175.38,34.74 177.83,33.28 180.32,32.02C182.74,30.8 185.21,29.75 187.69,28.83C190.12,27.93 192.58,27.2 195.05,26.54C197.49,25.88 199.95,25.36 202.41,24.86C204.86,24.36 207.31,23.93 209.77,23.55C212.22,23.17 214.67,22.84 217.13,22.59C219.58,22.34 222.04,22.16 224.49,22.07C226.94,21.98 229.4,21.99 231.85,22.07C234.3,22.15 236.76,22.34 239.21,22.55C241.67,22.76 244.12,23.05 246.57,23.35C249.03,23.65 251.48,23.98 253.93,24.33C256.38,24.68 258.84,25.03 261.29,25.43C263.75,25.83 266.2,26.24 268.65,26.72C271.11,27.2 273.56,27.74 276.01,28.33C278.47,28.93 280.92,29.61 283.37,30.3C285.83,30.99 288.27,31.77 290.73,32.48C293.18,33.18 295.63,33.92 298.09,34.53C300.53,35.13 302.99,35.7 305.45,36.1C307.89,36.49 310.35,36.79 312.81,36.9C315.26,37.01 317.72,36.97 320.17,36.78C322.63,36.59 325.09,36.23 327.53,35.77C329.99,35.31 332.45,34.69 334.89,34.01C337.36,33.32 339.81,32.51 342.25,31.65C344.72,30.78 347.17,29.82 349.61,28.83C352.07,27.84 354.52,26.76 356.97,25.7C359.43,24.64 361.87,23.52 364.33,22.45C366.78,21.38 369.23,20.29 371.69,19.29C374.13,18.3 376.58,17.33 379.05,16.49C381.49,15.66 383.94,14.9 386.41,14.3C388.85,13.71 391.31,13.24 393.77,12.91C396.21,12.58 398.67,12.42 401.13,12.33C403.58,12.24 406.04,12.31 408.49,12.34C410.94,12.37 413.4,12.51 415.85,12.5C418.3,12.49 420.76,12.47 423.21,12.28C425.67,12.09 428.12,11.78 430.57,11.38C433.03,10.98 435.48,10.39 437.93,9.86C440.39,9.33 442.83,8.65 445.29,8.21C447.73,7.77 450.19,7.3 452.65,7.2C455.1,7.1 457.59,7.17 460.01,7.63C462.49,8.1 464.98,8.94 467.37,10.04C469.89,11.2 472.34,12.81 474.73,14.53C477.25,16.34 479.67,18.53 482.09,20.69C484.58,22.91 486.99,25.36 489.45,27.66C491.9,29.94 494.31,32.32 496.81,34.43C499.22,36.47 501.66,38.46 504.17,40.16C506.57,41.78 509.03,43.21 511.53,44.43C513.94,45.61 516.42,46.53 518.89,47.39C521.33,48.24 523.8,48.88 526.26,49.58C528.71,50.28 531.17,50.9 533.62,51.61C536.08,52.33 538.53,53.08 540.98,53.88C543.44,54.69 545.89,55.58 548.34,56.45C550.79,57.32 553.24,58.25 555.7,59.08C558.15,59.91 560.6,60.73 563.06,61.44C565.5,62.14 567.96,62.78 570.42,63.3C572.86,63.82 575.32,64.24 577.78,64.58Q580.23,64.92 585.14,65.36L585.14,66.11" style="vector-effect: none; stroke-width: 2px; stroke: rgb(117, 70, 134); stroke-opacity: 1; fill: rgb(146, 88, 167); fill-opacity: 0.5;"/><path class="meanline" d="M350.53,28.455324172973633V66.11" style="fill: none; vector-effect: none; stroke-width: 2px; stroke-dasharray: 4px, 2px; stroke: rgb(117, 70, 134); stroke-opacity: 1;"/></g></g></g><g class="overplot"/><path class="xlines-above crisp" d="M0,0" style="fill: none;"/><path class="ylines-above crisp" d="M0,0" style="fill: none;"/><g class="overlines-above"/><g class="xaxislayer-above"><g class="xtick"><text text-anchor="middle" x="0" y="157" transform="translate(35,0)" style="font-family: 'Open Sans', verdana, arial, sans-serif; font-size: 12px; fill: rgb(242, 245, 250); fill-opacity: 1; white-space: pre; opacity: 0;"><tspan class="line" dy="0em" x="0" y="157">00:00:00</tspan><tspan class="line" dy="1.3em" x="0" y="157">Jan 1, 1970</tspan></text></g><g class="xtick"><text text-anchor="middle" x="0" y="157" style="font-family: 'Open Sans', verdana, arial, sans-serif; font-size: 12px; fill: rgb(242, 245, 250); fill-opacity: 1; white-space: pre; opacity: 0;" transform="translate(756,0)">00:00:00.0001</text></g></g><g class="yaxislayer-above"/><g class="overaxes-above"/></g></g><g class="polarlayer"/><g class="smithlayer"/><g class="ternarylayer"/><g class="geolayer"/><g class="funnelarealayer"/><g class="pielayer"/><g class="iciclelayer"/><g class="treemaplayer"/><g class="sunburstlayer"/><g class="glimages"/><defs id="topdefs-a72dab"><g class="clips"/></defs><g class="layer-above"><g class="imagelayer"/><g class="shapelayer"/></g><g class="infolayer"><g class="g-gtitle"/><g class="g-xtitle" transform="translate(0,-2.9093750000000114)"><text class="xtitle" x="395.5" y="199.909375" text-anchor="middle" style="font-family: 'Open Sans', verdana, arial, sans-serif; font-size: 14px; fill: rgb(242, 245, 250); opacity: 1; white-space: pre;">Created</text></g><g class="g-ytitle"/></g></svg>