<svg class="main-svg" xmlns="http://www.w3.org/2000/svg" xmlns:xlink="http://www.w3.org/1999/xlink" width="800" height="200" style="" viewBox="0 0 800 200"><rect x="0" y="0" width="800" height="200" style="fill: rgb(0, 0, 0); fill-opacity: 0;"/><defs id="defs-3c5667"><g class="clips"><clipPath id="clip3c5667xyplot" class="plotclip"><rect width="800" height="159"/></clipPath><clipPath class="axesclip" id="clip3c5667x"><rect x="0" y="0" width="800" height="200"/></clipPath><clipPath class="axesclip" id="clip3c5667y"><rect x="0" y="0" width="800" height="159"/></clipPath><clipPath class="axesclip" id="clip3c5667xy"><rect x="0" y="0" width="800" height="159"/></clipPath></g><g class="gradients"/><g class="patterns"/></defs><g class="bglayer"><rect class="bg" x="0" y="0" width="800" height="159" style="fill: rgb(0, 0, 0); fill-opacity: 0; stroke-width: 0;"/></g><g class="layer-below"><g class="imagelayer"/><g class="shapelayer"/></g><g class="cartesianlayer"><g class="subplot xy"><g class="layer-subplot"><g class="shapelayer"/><g class="imagelayer"/></g><g class="minor-gridlayer"><g class="x"/><g class="y"/></g><g class="gridlayer"><g class="x"><path class="xgrid crisp" transform="translate(149.03,0)" d="M0,0v159" style="stroke: rgb(40, 52, 66); stroke-opacity: 1; stroke-width: 1px;"/><path class="xgrid crisp" transform="translate(245.19,0)" d="M0,0v159" style="stroke: rgb(40, 52, 66); stroke-opacity: 1; stroke-width: 1px;"/><path class="xgrid crisp" transform="translate(341.35,0)" d="M0,0v159" style="stroke: rgb(40, 52, 66); stroke-opacity: 1; stroke-width: 1px;"/><path class="xgrid crisp" transform="translate(437.5,0)" d="M0,0v159" style="stroke: rgb(40, 52, 66); stroke-opacity: 1; stroke-width: 1px;"/><path class="xgrid crisp" transform="translate(533.66,0)" d="M0,0v159" style="stroke: rgb(40, 52, 66); stroke-opacity: 1; stroke-width: 1px;"/><path class="xgrid crisp" transform="translate(629.81,0)" d="M0,0v159" style="stroke: rgb(40, 52, 66); stroke-opacity: 1; stroke-width: 1px;"/><path class="xgrid crisp" transform="translate(725.97,0)" d="M0,0v159" style="stroke: rgb(40, 52, 66); stroke-opacity: 1; stroke-width: 1px;"/></g><g class="y"/></g><g class="zerolinelayer"><path class="xzl zl crisp" transform="translate(52.88,0)" d="M0,0v159" style="stroke: rgb(40, 52, 66); stroke-opacity: 1; stroke-width: 2px;"/></g><g class="layer-between"><g class="shapelayer"/><g class="imagelayer"/></g><path class="xlines-below"/><path class="ylines-below"/><g class="overlines-below"/><g class="xaxislayer-below"/><g class="yaxislayer-below"/><g class="overaxes-below"/><g class="plot" transform="" clip-path="url(#clip3c5667xyplot)"><g class="violinlayer mlayer"><g class="trace violins" style="opacity: 1;"><path class="violin" d="M45.92,151.05L45.92,149.89Q46.94,149.05 47.39,148.45C47.94,147.72 48.42,146.78 48.87,145.74C49.43,144.45 49.89,142.88 50.34,141.21C50.89,139.2 51.36,136.89 51.82,134.49C52.35,131.74 52.82,128.69 53.29,125.62C53.8,122.31 54.27,118.75 54.76,115.3C55.25,111.82 55.73,108.18 56.24,104.81C56.72,101.67 57.17,98.47 57.71,95.71C58.17,93.37 58.59,91.02 59.19,89.27C59.62,88 60.01,86.55 60.66,86.1C61.08,85.81 61.69,85.79 62.13,86C62.72,86.29 63.15,87.35 63.61,88.18C64.15,89.17 64.6,90.44 65.08,91.62C65.58,92.87 66.06,94.21 66.56,95.48C67.05,96.74 67.53,98 68.03,99.21C68.51,100.36 68.99,101.49 69.5,102.57C69.98,103.59 70.48,104.58 70.98,105.53C71.46,106.44 71.95,107.32 72.45,108.18C72.94,109.02 73.44,109.84 73.93,110.66C74.42,111.47 74.91,112.27 75.4,113.08C75.89,113.88 76.38,114.69 76.87,115.49C77.36,116.28 77.85,117.08 78.35,117.86C78.84,118.62 79.32,119.38 79.82,120.1C80.3,120.8 80.8,121.48 81.3,122.12C81.78,122.73 82.27,123.3 82.77,123.84C83.25,124.35 83.74,124.83 84.24,125.28C84.72,125.71 85.22,126.11 85.72,126.5C86.21,126.88 86.7,127.24 87.19,127.61C87.68,127.98 88.18,128.34 88.67,128.72C89.16,129.1 89.65,129.49 90.14,129.89C90.63,130.3 91.12,130.73 91.61,131.17C92.11,131.62 92.6,132.09 93.09,132.56C93.58,133.04 94.07,133.53 94.56,134.02C95.05,134.51 95.55,135.01 96.04,135.49C96.53,135.97 97.01,136.45 97.51,136.9C97.99,137.34 98.48,137.77 98.98,138.18C99.47,138.58 99.96,138.96 100.46,139.31C100.94,139.65 101.44,139.98 101.93,140.28C102.42,140.58 102.91,140.85 103.4,141.12C103.89,141.39 104.39,141.63 104.88,141.88C105.37,142.13 105.86,142.36 106.35,142.6C106.84,142.83 107.34,143.06 107.83,143.29C108.32,143.51 108.81,143.74 109.3,143.95C109.79,144.16 110.28,144.36 110.77,144.54C111.26,144.72 111.76,144.87 112.25,145.02C112.74,145.16 113.23,145.29 113.72,145.41C114.21,145.53 114.71,145.63 115.2,145.73C115.69,145.83 116.18,145.92 116.67,146.02C117.16,146.12 117.65,146.21 118.14,146.31C118.63,146.41 119.13,146.52 119.62,146.63C120.11,146.74 120.6,146.85 121.09,146.95C121.58,147.05 122.08,147.15 122.57,147.24C123.06,147.33 123.55,147.41 124.04,147.48C124.53,147.55 125.02,147.62 125.51,147.67C126,147.73 126.5,147.76 126.99,147.81C127.48,147.86 127.97,147.9 128.46,147.95C128.95,148 129.45,148.04 129.94,148.1C130.43,148.15 130.92,148.22 131.41,148.28C131.9,148.34 132.39,148.42 132.88,148.48C133.37,148.55 133.87,148.61 134.36,148.67C134.85,148.73 135.34,148.78 135.83,148.83C136.32,148.88 136.82,148.92 137.31,148.96C137.8,148.99 138.29,149.02 138.78,149.04C139.27,149.06 139.76,149.08 140.25,149.09C140.74,149.1 141.24,149.11 141.73,149.12C142.22,149.13 142.71,149.13 143.2,149.14C143.69,149.15 144.19,149.15 144.68,149.16C145.17,149.17 145.66,149.18 146.15,149.2C146.64,149.22 147.13,149.24 147.62,149.26C148.11,149.29 148.61,149.32 149.1,149.35C149.59,149.38 150.08,149.42 150.57,149.46C151.06,149.5 151.56,149.54 152.05,149.58C152.54,149.62 153.03,149.67 153.52,149.7C154.01,149.73 154.5,149.76 154.99,149.78C155.48,149.8 155.98,149.82 156.47,149.83C156.96,149.84 157.45,149.84 157.94,149.84C158.43,149.84 158.93,149.83 159.42,149.83C159.91,149.83 160.4,149.82 160.89,149.82C161.38,149.82 161.87,149.82 162.36,149.83C162.85,149.84 163.35,149.85 163.84,149.87C164.33,149.89 164.82,149.92 165.31,149.95C165.8,149.98 166.3,150.02 166.79,150.06C167.28,150.1 167.77,150.15 168.26,150.19C168.75,150.24 169.24,150.29 169.73,150.33C170.22,150.38 170.72,150.42 171.21,150.46C171.7,150.5 172.19,150.54 172.68,150.58C173.17,150.61 173.66,150.64 174.15,150.67C174.64,150.7 175.14,150.72 175.63,150.74C176.12,150.76 176.61,150.79 177.1,150.81C177.59,150.83 178.09,150.85 178.58,150.87C179.07,150.89 179.56,150.91 180.05,150.93C180.54,150.95 181.03,150.96 181.52,150.97C182.01,150.98 182.51,150.99 183,151C183.49,151.01 183.98,151.01 184.47,151.01C184.96,151.01 185.46,151.01 185.95,151.01C186.44,151.01 186.93,151 187.42,151C187.91,150.99 188.4,150.99 188.89,150.98C189.38,150.97 189.88,150.97 190.37,150.96C190.86,150.96 191.35,150.95 191.84,150.95C192.33,150.95 192.83,150.94 193.32,150.94C193.81,150.94 194.3,150.94 194.79,150.94C195.28,150.94 195.77,150.95 196.26,150.95C196.75,150.95 197.25,150.95 197.74,150.95C198.23,150.95 198.72,150.96 199.21,150.96C199.7,150.96 200.2,150.95 200.69,150.95C201.18,150.95 201.67,150.94 202.16,150.94C202.65,150.94 203.14,150.94 203.63,150.94C204.12,150.94 204.62,150.94 205.11,150.94C205.6,150.94 206.09,150.95 206.58,150.95C207.07,150.96 207.57,150.96 208.06,150.97C208.55,150.98 209.04,150.98 209.53,150.99C210.02,150.99 210.51,151 211,151C211.49,151.01 211.99,151.02 212.48,151.02C212.97,151.02 213.46,151.02 213.95,151.02C214.44,151.02 214.94,151.02 215.43,151.01C215.92,151.01 216.41,151 216.9,150.99C217.39,150.98 217.88,150.98 218.37,150.97C218.86,150.96 219.36,150.96 219.85,150.95C220.34,150.95 220.83,150.94 221.32,150.94C221.81,150.94 222.31,150.94 222.8,150.94C223.29,150.94 223.78,150.95 224.27,150.95C224.76,150.96 225.25,150.96 225.74,150.97C226.23,150.98 226.73,150.98 227.22,150.99C227.71,150.99 228.2,151 228.69,151C229.18,151 229.68,151 230.17,151C230.66,151 231.15,150.99 231.64,150.99C232.13,150.99 232.62,150.98 233.11,150.98C233.6,150.97 234.1,150.97 234.59,150.96C235.08,150.96 235.57,150.95 236.06,150.95C236.55,150.95 237.05,150.94 237.54,150.94C238.03,150.94 238.52,150.95 239.01,150.95C239.5,150.95 239.99,150.96 240.48,150.96C240.97,150.97 241.47,150.97 241.96,150.98C242.45,150.99 242.94,151 243.43,151.01C243.92,151.02 244.41,151.02 244.9,151.02Q245.39,151.03 246.38,151.04L246.38,151.05" style="vector-effect: none; stroke-width: 2px; stroke: rgb(162, 162, 42); stroke-opacity: 1; fill: rgb(203, 203, 52); fill-opacity: 0.5;"/><path class="meanline" d="M77.24,116.08844757080078V151.05" style="fill: none; vector-effect: none; stroke-width: 2px; stroke-dasharray: 4px, 2px; stroke: rgb(162, 162, 42); stroke-opacity: 1;"/></g><g class="trace violins" style="opacity: 1;"><path class="violin" d="M43.73,125.03L43.73,124.4Q44.98,123.95 45.57,123.57C46.22,123.15 46.85,122.62 47.42,121.96C48.09,121.19 48.69,120.23 49.26,119.17C49.94,117.9 50.53,116.39 51.11,114.79C51.78,112.93 52.38,110.81 52.96,108.62C53.61,106.18 54.2,103.5 54.8,100.81C55.43,97.95 56.04,94.91 56.65,91.94C57.27,88.94 57.86,85.83 58.49,82.89C59.09,80.08 59.69,77.24 60.34,74.65C60.93,72.31 61.52,70.01 62.19,68.02C62.76,66.33 63.33,64.69 64.03,63.41C64.59,62.39 65.18,61.41 65.88,60.83C66.44,60.37 67.1,60.05 67.73,59.99C68.33,59.94 68.98,60.18 69.57,60.46C70.22,60.77 70.83,61.3 71.42,61.83C72.06,62.4 72.66,63.09 73.26,63.77C73.89,64.49 74.5,65.26 75.11,66.04C75.74,66.84 76.35,67.68 76.96,68.52C77.58,69.37 78.19,70.24 78.8,71.12C79.42,72 80.04,72.9 80.65,73.8C81.27,74.7 81.88,75.61 82.49,76.52C83.11,77.43 83.72,78.35 84.34,79.27C84.96,80.18 85.57,81.1 86.19,82.01C86.8,82.92 87.41,83.82 88.03,84.72C88.64,85.62 89.26,86.52 89.88,87.41C90.49,88.29 91.11,89.17 91.73,90.04C92.34,90.9 92.95,91.75 93.57,92.58C94.18,93.4 94.8,94.2 95.42,94.98C96.03,95.74 96.64,96.48 97.26,97.19C97.87,97.88 98.48,98.54 99.11,99.17C99.72,99.78 100.34,100.37 100.96,100.92C101.57,101.46 102.18,101.96 102.8,102.45C103.41,102.93 104.03,103.38 104.65,103.82C105.26,104.25 105.88,104.66 106.5,105.05C107.11,105.44 107.72,105.81 108.34,106.17C108.95,106.52 109.57,106.86 110.19,107.18C110.8,107.5 111.41,107.8 112.03,108.09C112.64,108.38 113.26,108.65 113.88,108.92C114.5,109.19 115.11,109.45 115.73,109.71C116.34,109.97 116.96,110.23 117.57,110.5C118.19,110.77 118.81,111.05 119.42,111.34C120.04,111.63 120.65,111.93 121.26,112.23C121.88,112.53 122.49,112.84 123.11,113.15C123.73,113.45 124.34,113.77 124.96,114.06C125.57,114.35 126.18,114.63 126.8,114.89C127.41,115.15 128.03,115.38 128.65,115.6C129.26,115.82 129.88,116.01 130.5,116.19C131.11,116.37 131.72,116.52 132.34,116.67C132.95,116.82 133.57,116.95 134.19,117.08C134.8,117.21 135.42,117.34 136.03,117.46C136.65,117.58 137.26,117.7 137.88,117.82C138.5,117.94 139.11,118.07 139.73,118.2C140.34,118.33 140.96,118.46 141.57,118.6C142.19,118.74 142.8,118.88 143.42,119.02C144.04,119.16 144.65,119.3 145.27,119.44C145.88,119.58 146.5,119.71 147.11,119.84C147.73,119.97 148.34,120.09 148.96,120.2C149.57,120.31 150.19,120.42 150.8,120.51C151.42,120.61 152.03,120.69 152.65,120.77C153.27,120.85 153.88,120.93 154.5,121C155.11,121.07 155.73,121.14 156.34,121.21C156.96,121.28 157.57,121.34 158.19,121.41C158.8,121.48 159.42,121.54 160.03,121.61C160.65,121.68 161.26,121.74 161.88,121.81C162.5,121.88 163.11,121.94 163.73,122.01C164.34,122.08 164.96,122.15 165.57,122.21C166.19,122.28 166.8,122.34 167.42,122.4C168.04,122.46 168.65,122.52 169.27,122.57C169.88,122.62 170.5,122.66 171.11,122.69C171.73,122.72 172.34,122.75 172.96,122.77C173.57,122.79 174.19,122.8 174.8,122.8C175.42,122.8 176.03,122.8 176.65,122.79C177.27,122.78 177.88,122.76 178.5,122.75C179.11,122.74 179.73,122.72 180.34,122.71C180.96,122.7 181.57,122.69 182.19,122.68C182.8,122.67 183.42,122.67 184.03,122.67C184.65,122.67 185.26,122.69 185.88,122.7C186.5,122.72 187.11,122.73 187.73,122.76C188.34,122.79 188.96,122.83 189.57,122.86C190.19,122.9 190.8,122.93 191.42,122.97C192.04,123.01 192.65,123.05 193.27,123.1C193.88,123.14 194.5,123.2 195.11,123.24C195.73,123.29 196.34,123.33 196.96,123.37C197.57,123.41 198.19,123.46 198.8,123.5C199.42,123.54 200.03,123.58 200.65,123.62C201.27,123.66 201.88,123.7 202.5,123.73C203.11,123.76 203.73,123.8 204.34,123.82C204.96,123.84 205.57,123.86 206.19,123.87C206.81,123.88 207.42,123.89 208.04,123.89C208.65,123.89 209.27,123.89 209.88,123.88C210.5,123.87 211.11,123.86 211.73,123.85C212.34,123.84 212.96,123.83 213.57,123.82C214.19,123.81 214.8,123.81 215.42,123.81C216.04,123.81 216.65,123.82 217.27,123.84C217.88,123.86 218.5,123.88 219.11,123.91C219.73,123.94 220.34,123.97 220.96,124.01C221.57,124.05 222.19,124.09 222.8,124.13C223.42,124.17 224.03,124.21 224.65,124.25C225.27,124.29 225.88,124.33 226.5,124.36C227.11,124.39 227.73,124.41 228.34,124.43C228.96,124.45 229.57,124.46 230.19,124.46C230.81,124.46 231.42,124.47 232.04,124.46C232.65,124.45 233.27,124.43 233.88,124.42C234.5,124.4 235.11,124.39 235.73,124.37C236.34,124.35 236.96,124.33 237.57,124.32C238.19,124.3 238.8,124.29 239.42,124.28C240.04,124.27 240.65,124.27 241.27,124.27C241.88,124.27 242.5,124.27 243.11,124.28C243.73,124.29 244.34,124.31 244.96,124.32C245.58,124.34 246.19,124.35 246.81,124.37C247.42,124.39 248.04,124.41 248.65,124.43C249.27,124.45 249.88,124.47 250.5,124.5C251.11,124.52 251.73,124.55 252.34,124.58C252.96,124.61 253.57,124.63 254.19,124.66C254.81,124.69 255.42,124.72 256.04,124.74C256.65,124.76 257.27,124.78 257.88,124.79C258.5,124.81 259.11,124.82 259.73,124.83C260.34,124.84 260.96,124.85 261.57,124.86C262.19,124.87 262.8,124.86 263.42,124.86C264.04,124.86 264.65,124.86 265.27,124.86C265.88,124.86 266.5,124.84 267.11,124.84C267.73,124.83 268.34,124.83 268.96,124.83C269.58,124.82 270.19,124.82 270.81,124.81C271.42,124.8 272.04,124.8 272.65,124.79C273.27,124.78 273.88,124.78 274.5,124.77C275.11,124.77 275.73,124.76 276.34,124.76C276.96,124.76 277.57,124.76 278.19,124.76C278.81,124.76 279.42,124.76 280.04,124.76C280.65,124.76 281.27,124.77 281.88,124.77C282.5,124.78 283.11,124.78 283.73,124.79C284.35,124.8 284.96,124.8 285.58,124.81C286.19,124.82 286.81,124.83 287.42,124.83C288.04,124.84 288.65,124.84 289.27,124.84C289.88,124.84 290.5,124.84 291.11,124.84C291.73,124.84 292.34,124.84 292.96,124.84C293.58,124.84 294.19,124.84 294.81,124.84C295.42,124.84 296.04,124.84 296.65,124.84C297.27,124.84 297.88,124.85 298.5,124.85C299.11,124.85 299.73,124.86 300.34,124.86C300.96,124.87 301.57,124.87 302.19,124.88C302.81,124.89 303.42,124.9 304.04,124.91C304.65,124.92 305.27,124.92 305.88,124.93C306.5,124.94 307.11,124.94 307.73,124.95C308.35,124.95 308.96,124.96 309.58,124.96C310.19,124.96 310.81,124.97 311.42,124.97C312.04,124.97 312.65,124.97 313.27,124.97C313.88,124.97 314.5,124.97 315.11,124.97C315.73,124.97 316.34,124.97 316.96,124.97C317.58,124.97 318.19,124.98 318.81,124.98C319.42,124.98 320.04,124.98 320.65,124.98C321.27,124.98 321.88,124.98 322.5,124.98C323.11,124.98 323.73,124.98 324.34,124.98C324.96,124.98 325.57,124.97 326.19,124.97C326.81,124.96 327.42,124.96 328.04,124.95C328.65,124.94 329.27,124.93 329.88,124.92C330.5,124.91 331.11,124.89 331.73,124.88C332.35,124.87 332.96,124.85 333.58,124.84C334.19,124.83 334.81,124.82 335.42,124.81C336.04,124.8 336.65,124.8 337.27,124.8C337.88,124.8 338.5,124.79 339.11,124.79C339.73,124.79 340.34,124.8 340.96,124.8C341.58,124.8 342.19,124.8 342.81,124.81C343.42,124.81 344.04,124.82 344.65,124.83C345.27,124.84 345.88,124.85 346.5,124.86C347.12,124.87 347.73,124.88 348.35,124.89C348.96,124.9 349.58,124.91 350.19,124.92C350.81,124.93 351.42,124.93 352.04,124.94C352.65,124.95 353.27,124.96 353.88,124.96C354.5,124.97 355.11,124.97 355.73,124.97C356.35,124.97 356.96,124.97 357.58,124.97C358.19,124.97 358.81,124.97 359.42,124.97C360.04,124.97 360.65,124.97 361.27,124.97C361.88,124.97 362.5,124.97 363.11,124.97C363.73,124.97 364.34,124.96 364.96,124.96C365.58,124.96 366.19,124.95 366.81,124.95C367.42,124.95 368.04,124.94 368.65,124.94C369.27,124.94 369.88,124.93 370.5,124.93C371.12,124.93 371.73,124.92 372.35,124.92C372.96,124.92 373.58,124.92 374.19,124.92C374.81,124.92 375.42,124.92 376.04,124.92C376.65,124.92 377.27,124.93 377.88,124.93C378.5,124.93 379.11,124.94 379.73,124.94C380.35,124.94 380.96,124.94 381.58,124.95C382.19,124.95 382.81,124.97 383.42,124.97C384.04,124.98 384.65,124.98 385.27,124.98C385.89,124.98 386.5,124.98 387.12,124.98C387.73,124.98 388.35,124.98 388.96,124.98C389.58,124.98 390.19,124.98 390.81,124.98C391.42,124.98 392.04,124.96 392.65,124.96C393.27,124.95 393.88,124.95 394.5,124.95C395.12,124.95 395.73,124.94 396.35,124.94C396.96,124.94 397.58,124.93 398.19,124.93C398.81,124.93 399.42,124.93 400.04,124.93C400.65,124.93 401.27,124.93 401.88,124.93C402.5,124.93 403.11,124.94 403.73,124.94C404.35,124.94 404.96,124.95 405.58,124.95C406.19,124.95 406.81,124.96 407.42,124.96C408.04,124.96 408.65,124.97 409.27,124.97C409.89,124.97 410.5,124.98 411.12,124.98C411.73,124.98 412.35,124.99 412.96,124.99C413.58,124.99 414.19,125 414.81,125C415.42,125 416.04,125.01 416.65,125.01C417.27,125.01 417.88,125.02 418.5,125.02C419.12,125.02 419.73,125.03 420.35,125.03C420.96,125.03 421.58,125.03 422.19,125.03C422.81,125.03 423.42,125.03 424.04,125.03C424.66,125.03 425.27,125.03 425.89,125.03C426.5,125.03 427.12,125.03 427.73,125.03C428.35,125.03 428.96,125.02 429.58,125.02C430.19,125.02 430.81,125.01 431.42,125.01C432.04,125.01 432.65,125.01 433.27,125.01C433.89,125.01 434.5,125 435.12,125C435.73,125 436.35,124.99 436.96,124.99C437.58,124.99 438.19,124.98 438.81,124.98C439.42,124.98 440.04,124.98 440.65,124.98C441.27,124.98 441.88,124.99 442.5,124.99C443.12,124.99 443.73,125 444.35,125C444.96,125 445.58,125 446.19,125C446.81,125 447.42,125 448.04,125C448.66,125 449.27,125 449.89,125C450.5,125 451.12,125 451.73,125C452.35,125 452.96,124.99 453.58,124.99C454.19,124.99 454.81,124.98 455.42,124.98C456.04,124.98 456.65,124.98 457.27,124.98C457.89,124.98 458.5,124.99 459.12,124.99C459.73,124.99 460.35,125 460.96,125C461.58,125 462.19,125.01 462.81,125.01C463.42,125.01 464.04,125.01 464.65,125.01C465.27,125.01 465.88,125.02 466.5,125.02C467.12,125.02 467.73,125.03 468.35,125.03C468.96,125.03 469.58,125.03 470.19,125.03C470.81,125.03 471.42,125.03 472.04,125.03C472.66,125.03 473.27,125.03 473.89,125.03C474.5,125.03 475.12,125.03 475.73,125.03C476.35,125.03 476.96,125.03 477.58,125.03C478.19,125.03 478.81,125.03 479.42,125.03C480.04,125.03 480.65,125.03 481.27,125.03C481.89,125.03 482.5,125.03 483.12,125.03C483.73,125.03 484.35,125.03 484.96,125.03C485.58,125.03 486.19,125.03 486.81,125.03C487.43,125.03 488.04,125.03 488.66,125.03C489.27,125.03 489.89,125.03 490.5,125.03C491.12,125.03 491.73,125.03 492.35,125.03C492.96,125.03 493.58,125.03 494.19,125.03C494.81,125.03 495.42,125.03 496.04,125.03C496.66,125.03 497.27,125.03 497.89,125.03C498.5,125.03 499.12,125.03 499.73,125.03C500.35,125.03 500.96,125.03 501.58,125.03C502.19,125.03 502.81,125.03 503.42,125.03C504.04,125.03 504.65,125.03 505.27,125.03C505.89,125.03 506.5,125.03 507.12,125.03C507.73,125.03 508.35,125.03 508.96,125.03C509.58,125.03 510.19,125.03 510.81,125.03C511.43,125.03 512.04,125.03 512.66,125.03C513.27,125.03 513.89,125.03 514.5,125.03C515.12,125.03 515.73,125.03 516.35,125.03C516.96,125.03 517.58,125.03 518.19,125.03C518.81,125.03 519.42,125.03 520.04,125.03C520.66,125.03 521.27,125.03 521.89,125.03C522.5,125.03 523.12,125.03 523.73,125.03C524.35,125.03 524.96,125.03 525.58,125.03C526.2,125.03 526.81,125.03 527.43,125.03C528.04,125.03 528.66,125.03 529.27,125.03C529.89,125.03 530.5,125.03 531.12,125.03C531.73,125.03 532.35,125.02 532.96,125.02C533.58,125.02 534.19,125.02 534.81,125.02C535.43,125.02 536.04,125.01 536.66,125.01C537.27,125.01 537.89,125 538.5,125C539.12,125 539.73,124.99 540.35,124.99C540.96,124.99 541.58,124.98 542.19,124.98C542.81,124.98 543.42,124.98 544.04,124.98C544.66,124.98 545.27,124.99 545.89,124.99C546.5,124.99 547.12,125 547.73,125C548.35,125 548.96,125.01 549.58,125.01C550.2,125.01 550.81,125.02 551.43,125.02C552.04,125.02 552.66,125.02 553.27,125.02C553.89,125.02 554.5,125.03 555.12,125.03C555.73,125.03 556.35,125.03 556.96,125.03C557.58,125.03 558.19,125.03 558.81,125.03C559.43,125.03 560.04,125.03 560.66,125.03C561.27,125.03 561.89,125.03 562.5,125.03C563.12,125.03 563.73,125.03 564.35,125.03C564.96,125.03 565.58,125.03 566.19,125.03C566.81,125.03 567.42,125.03 568.04,125.03C568.66,125.03 569.27,125.03 569.89,125.03C570.5,125.03 571.12,125.03 571.73,125.03C572.35,125.03 572.96,125.03 573.58,125.03C574.2,125.03 574.81,125.03 575.43,125.03C576.04,125.03 576.66,125.03 577.27,125.03C577.89,125.03 578.5,125.03 579.12,125.03C579.73,125.03 580.35,125.03 580.96,125.03C581.58,125.03 582.19,125.03 582.81,125.03C583.43,125.03 584.04,125.03 584.66,125.03C585.27,125.03 585.89,125.03 586.5,125.03C587.12,125.03 587.73,125.03 588.35,125.03C588.97,125.03 589.58,125.03 590.2,125.03C590.81,125.03 591.43,125.03 592.04,125.03C592.66,125.03 593.27,125.03 593.89,125.03C594.5,125.03 595.12,125.03 595.73,125.03C596.35,125.03 596.96,125.03 597.58,125.03C598.2,125.03 598.81,125.02 599.43,125.02C600.04,125.02 600.66,125.01 601.27,125.01C601.89,125.01 602.5,125 603.12,125C603.73,125 604.35,124.99 604.96,124.99C605.58,124.99 606.19,124.99 606.81,124.99C607.43,124.99 608.04,124.98 608.66,124.98C609.27,124.98 609.89,124.99 610.5,124.99C611.12,124.99 611.73,124.99 612.35,124.99C612.97,124.99 613.58,125 614.2,125C614.81,125 615.43,125.01 616.04,125.01C616.66,125.01 617.27,125.02 617.89,125.02Q618.5,125.02 619.73,125.03L619.73,125.03" style="vector-effect: none; stroke-width: 2px; stroke: rgb(47, 117, 157); stroke-opacity: 1; fill: rgb(59, 146, 196); fill-opacity: 0.5;"/><path class="meanline" d="M91.91,90.29448699951172V125.03" style="fill: none; vector-effect: none; stroke-width: 2px; stroke-dasharray: 4px, 2px; stroke: rgb(47, 117, 157); stroke-opacity: 1;"/></g><g class="trace violins" style="opacity: 1;"><path class="violin" d="M43.54,99.01L43.54,98.64Q44.8,98.38 45.41,98.14C46.05,97.89 46.68,97.58 47.28,97.15C47.94,96.68 48.57,96.08 49.15,95.38C49.83,94.57 50.44,93.57 51.02,92.49C51.7,91.23 52.3,89.76 52.89,88.21C53.56,86.44 54.16,84.46 54.76,82.42C55.42,80.18 56.02,77.74 56.63,75.29C57.27,72.7 57.88,69.97 58.5,67.28C59.13,64.55 59.74,61.74 60.37,59.04C60.98,56.42 61.59,53.78 62.24,51.31C62.84,49.02 63.43,46.76 64.1,44.73C64.69,42.93 65.29,41.2 65.97,39.72C66.55,38.47 67.14,37.28 67.84,36.38C68.41,35.64 69.04,34.98 69.71,34.58C70.3,34.23 70.95,34.04 71.58,33.97C72.2,33.91 72.83,34.03 73.45,34.17C74.08,34.31 74.71,34.57 75.32,34.83C75.95,35.1 76.57,35.44 77.19,35.78C77.82,36.13 78.44,36.51 79.06,36.92C79.69,37.34 80.32,37.8 80.93,38.28C81.56,38.78 82.19,39.32 82.8,39.87C83.43,40.44 84.05,41.04 84.66,41.65C85.29,42.28 85.91,42.93 86.53,43.59C87.16,44.26 87.78,44.95 88.4,45.65C89.03,46.36 89.65,47.09 90.27,47.84C90.9,48.6 91.52,49.38 92.14,50.17C92.77,50.98 93.39,51.81 94.01,52.65C94.64,53.5 95.26,54.36 95.88,55.22C96.5,56.08 97.12,56.96 97.75,57.82C98.37,58.67 98.99,59.52 99.62,60.35C100.24,61.17 100.86,61.97 101.49,62.76C102.11,63.53 102.73,64.29 103.36,65.03C103.98,65.76 104.59,66.48 105.22,67.19C105.84,67.89 106.46,68.58 107.09,69.26C107.71,69.94 108.34,70.6 108.96,71.27C109.58,71.93 110.2,72.6 110.83,73.25C111.45,73.9 112.07,74.54 112.7,75.17C113.32,75.8 113.94,76.43 114.57,77.03C115.19,77.62 115.81,78.21 116.44,78.77C117.06,79.32 117.68,79.86 118.31,80.37C118.93,80.87 119.55,81.36 120.18,81.81C120.8,82.25 121.42,82.68 122.05,83.07C122.67,83.45 123.29,83.81 123.92,84.14C124.54,84.47 125.15,84.77 125.78,85.05C126.4,85.32 127.02,85.57 127.65,85.8C128.27,86.03 128.89,86.23 129.52,86.43C130.14,86.62 130.77,86.8 131.39,86.97C132.01,87.14 132.64,87.3 133.26,87.47C133.88,87.64 134.51,87.8 135.13,87.97C135.75,88.14 136.38,88.32 137,88.51C137.62,88.7 138.25,88.9 138.87,89.1C139.49,89.3 140.12,89.52 140.74,89.73C141.36,89.94 141.99,90.16 142.61,90.37C143.23,90.57 143.86,90.78 144.48,90.96C145.1,91.14 145.72,91.3 146.34,91.45C146.96,91.6 147.59,91.73 148.21,91.85C148.83,91.96 149.46,92.05 150.08,92.14C150.7,92.23 151.33,92.3 151.95,92.37C152.57,92.44 153.2,92.51 153.82,92.58C154.44,92.65 155.07,92.72 155.69,92.79C156.31,92.86 156.94,92.94 157.56,93.02C158.18,93.1 158.81,93.19 159.43,93.28C160.05,93.37 160.68,93.45 161.3,93.54C161.92,93.63 162.55,93.73 163.17,93.82C163.79,93.91 164.42,93.99 165.04,94.08C165.66,94.17 166.28,94.26 166.9,94.34C167.52,94.43 168.15,94.51 168.77,94.59C169.39,94.67 170.02,94.75 170.64,94.83C171.26,94.91 171.89,94.99 172.51,95.07C173.13,95.15 173.76,95.22 174.38,95.3C175,95.38 175.63,95.46 176.25,95.53C176.87,95.6 177.5,95.67 178.12,95.74C178.74,95.81 179.37,95.89 179.99,95.97C180.61,96.05 181.24,96.12 181.86,96.2C182.48,96.28 183.11,96.35 183.73,96.43C184.35,96.5 184.98,96.58 185.6,96.65C186.22,96.72 186.84,96.78 187.46,96.83C188.08,96.89 188.71,96.94 189.33,96.98C189.95,97.02 190.58,97.06 191.2,97.09C191.82,97.12 192.45,97.15 193.07,97.18C193.69,97.2 194.32,97.22 194.94,97.24C195.56,97.25 196.19,97.27 196.81,97.27C197.43,97.27 198.06,97.28 198.68,97.27C199.3,97.26 199.93,97.25 200.55,97.23C201.17,97.21 201.8,97.19 202.42,97.17C203.04,97.15 203.67,97.13 204.29,97.11C204.91,97.1 205.54,97.08 206.16,97.08C206.78,97.08 207.4,97.09 208.02,97.11C208.64,97.13 209.27,97.16 209.89,97.2C210.51,97.24 211.14,97.29 211.76,97.33C212.38,97.38 213.01,97.42 213.63,97.47C214.25,97.51 214.88,97.56 215.5,97.6C216.12,97.64 216.75,97.67 217.37,97.7C217.99,97.73 218.62,97.76 219.24,97.79C219.86,97.82 220.49,97.85 221.11,97.88C221.73,97.91 222.36,97.93 222.98,97.96C223.6,97.99 224.23,98.03 224.85,98.06C225.47,98.09 226.1,98.13 226.72,98.16C227.34,98.19 227.96,98.22 228.58,98.24C229.2,98.27 229.83,98.29 230.45,98.31C231.07,98.33 231.7,98.34 232.32,98.35C232.94,98.36 233.57,98.36 234.19,98.36C234.81,98.36 235.44,98.36 236.06,98.36C236.68,98.36 237.31,98.35 237.93,98.34C238.55,98.33 239.18,98.32 239.8,98.3C240.42,98.28 241.05,98.26 241.67,98.24C242.29,98.22 242.92,98.19 243.54,98.16C244.16,98.13 244.79,98.1 245.41,98.08C246.03,98.06 246.66,98.03 247.28,98.02C247.9,98.01 248.52,98.01 249.14,98.02C249.76,98.03 250.39,98.05 251.01,98.07C251.63,98.09 252.26,98.13 252.88,98.16C253.5,98.19 254.13,98.23 254.75,98.27C255.37,98.31 256,98.35 256.62,98.38C257.24,98.41 257.87,98.44 258.49,98.47C259.11,98.5 259.74,98.52 260.36,98.55C260.98,98.57 261.61,98.6 262.23,98.62C262.85,98.64 263.48,98.67 264.1,98.69C264.72,98.71 265.35,98.73 265.97,98.75C266.59,98.77 267.21,98.79 267.83,98.8C268.45,98.82 269.08,98.83 269.7,98.84C270.32,98.85 270.95,98.86 271.57,98.87C272.19,98.88 272.82,98.89 273.44,98.89C274.06,98.89 274.69,98.89 275.31,98.89C275.93,98.89 276.56,98.88 277.18,98.87C277.8,98.86 278.43,98.86 279.05,98.85C279.67,98.84 280.3,98.83 280.92,98.82C281.54,98.81 282.17,98.79 282.79,98.77C283.41,98.75 284.04,98.74 284.66,98.72C285.28,98.7 285.91,98.68 286.53,98.66C287.15,98.64 287.77,98.61 288.39,98.59C289.01,98.57 289.64,98.54 290.26,98.52C290.88,98.5 291.51,98.48 292.13,98.46C292.75,98.44 293.38,98.43 294,98.42C294.62,98.41 295.25,98.41 295.87,98.41C296.49,98.41 297.12,98.42 297.74,98.43C298.36,98.44 298.99,98.46 299.61,98.47C300.23,98.49 300.86,98.5 301.48,98.52C302.1,98.53 302.73,98.55 303.35,98.56C303.97,98.57 304.6,98.58 305.22,98.59C305.84,98.6 306.47,98.6 307.09,98.61C307.71,98.61 308.33,98.62 308.95,98.62C309.57,98.62 310.2,98.63 310.82,98.63C311.44,98.64 312.07,98.64 312.69,98.65C313.31,98.66 313.94,98.66 314.56,98.67C315.18,98.68 315.81,98.69 316.43,98.7C317.05,98.71 317.68,98.71 318.3,98.72C318.92,98.73 319.55,98.73 320.17,98.74C320.79,98.75 321.42,98.75 322.04,98.76C322.66,98.76 323.29,98.77 323.91,98.77C324.53,98.78 325.16,98.78 325.78,98.79C326.4,98.8 327.03,98.8 327.65,98.81C328.27,98.82 328.89,98.82 329.51,98.83C330.13,98.84 330.76,98.85 331.38,98.86C332,98.87 332.63,98.89 333.25,98.9C333.87,98.91 334.5,98.92 335.12,98.93C335.74,98.94 336.37,98.95 336.99,98.96C337.61,98.97 338.24,98.97 338.86,98.98C339.48,98.98 340.11,98.99 340.73,98.99C341.35,98.99 341.98,98.99 342.6,98.99C343.22,98.99 343.85,98.99 344.47,98.99C345.09,98.99 345.72,98.98 346.34,98.97C346.96,98.97 347.59,98.97 348.21,98.96C348.83,98.96 349.45,98.94 350.07,98.94C350.69,98.93 351.32,98.93 351.94,98.93C352.56,98.92 353.19,98.92 353.81,98.91C354.43,98.91 355.06,98.9 355.68,98.9C356.3,98.9 356.93,98.89 357.55,98.89C358.17,98.89 358.8,98.88 359.42,98.88C360.04,98.88 360.67,98.87 361.29,98.87C361.91,98.87 362.54,98.86 363.16,98.86C363.78,98.86 364.41,98.87 365.03,98.87C365.65,98.87 366.28,98.87 366.9,98.88C367.52,98.89 368.15,98.9 368.77,98.91C369.39,98.92 370.01,98.92 370.63,98.93C371.25,98.94 371.88,98.95 372.5,98.96C373.12,98.97 373.75,98.97 374.37,98.98C374.99,98.98 375.62,98.99 376.24,98.99C376.86,98.99 377.49,99 378.11,99C378.73,99 379.36,99.01 379.98,99.01C380.6,99.01 381.23,99.01 381.85,99.01C382.47,99.01 383.1,99.01 383.72,99.01C384.34,99.01 384.97,99.01 385.59,99.01C386.21,99.01 386.84,99.01 387.46,99.01C388.08,99.01 388.71,99 389.33,99C389.95,99 390.57,98.99 391.19,98.99C391.81,98.98 392.44,98.98 393.06,98.97C393.68,98.96 394.31,98.95 394.93,98.94C395.55,98.93 396.18,98.93 396.8,98.92C397.42,98.91 398.05,98.9 398.67,98.89C399.29,98.88 399.92,98.87 400.54,98.87C401.16,98.87 401.79,98.87 402.41,98.87C403.03,98.87 403.66,98.88 404.28,98.88C404.9,98.89 405.53,98.89 406.15,98.9C406.77,98.91 407.4,98.92 408.02,98.93C408.64,98.94 409.27,98.95 409.89,98.96C410.51,98.97 411.13,98.98 411.75,98.98C412.37,98.99 413,98.99 413.62,98.99C414.24,98.99 414.87,99 415.49,99C416.11,99 416.74,99 417.36,99C417.98,99 418.61,99 419.23,99C419.85,99 420.48,98.99 421.1,98.99C421.72,98.99 422.35,98.98 422.97,98.98C423.59,98.97 424.22,98.97 424.84,98.96C425.46,98.96 426.09,98.95 426.71,98.95C427.33,98.95 427.96,98.94 428.58,98.94C429.2,98.94 429.83,98.94 430.45,98.94C431.07,98.94 431.69,98.94 432.31,98.94C432.93,98.94 433.56,98.95 434.18,98.95C434.8,98.95 435.43,98.95 436.05,98.95C436.67,98.95 437.3,98.95 437.92,98.95C438.54,98.95 439.17,98.94 439.79,98.94C440.41,98.94 441.04,98.93 441.66,98.93C442.28,98.92 442.91,98.92 443.53,98.91C444.15,98.9 444.78,98.9 445.4,98.89C446.02,98.89 446.65,98.88 447.27,98.88C447.89,98.88 448.52,98.89 449.14,98.89C449.76,98.89 450.39,98.89 451.01,98.9C451.63,98.9 452.25,98.91 452.87,98.92C453.49,98.93 454.12,98.93 454.74,98.94C455.36,98.95 455.99,98.95 456.61,98.96C457.23,98.97 457.86,98.97 458.48,98.98C459.1,98.98 459.73,98.99 460.35,98.99Q460.97,98.99 462.22,99L462.22,99.01" style="vector-effect: none; stroke-width: 2px; stroke: rgb(81, 123, 98); stroke-opacity: 1; fill: rgb(101, 154, 123); fill-opacity: 0.5;"/><path class="meanline" d="M97.05,56.85295867919922V99.01" style="fill: none; vector-effect: none; stroke-width: 2px; stroke-dasharray: 4px, 2px; stroke: rgb(81, 123, 98); stroke-opacity: 1;"/></g><g class="trace violins" style="opacity: 1;"><path class="violin" d="M40,73L40,71.35Q41.9,70.29 42.78,69.52C43.77,68.65 44.69,67.55 45.56,66.3C46.57,64.85 47.47,63.1 48.34,61.24C49.34,59.1 50.24,56.65 51.12,54.12C52.1,51.32 53,48.24 53.9,45.16C54.85,41.92 55.75,38.47 56.68,35.15C57.6,31.85 58.5,28.43 59.46,25.29C60.35,22.37 61.23,19.43 62.24,16.91C63.11,14.75 63.95,12.58 65.02,11.02C65.86,9.79 66.77,8.55 67.8,8.08C68.65,7.69 69.7,7.68 70.58,7.95C71.56,8.25 72.48,9.16 73.36,10C74.35,10.95 75.24,12.23 76.14,13.44C77.09,14.72 78,16.14 78.92,17.5C79.85,18.87 80.76,20.3 81.7,21.65C82.62,22.97 83.54,24.29 84.48,25.54C85.39,26.75 86.32,27.93 87.26,29.06C88.17,30.15 89.1,31.18 90.04,32.19C90.95,33.17 91.88,34.11 92.82,35.03C93.74,35.93 94.67,36.79 95.6,37.66C96.52,38.52 97.45,39.36 98.38,40.2C99.31,41.04 100.23,41.87 101.16,42.71C102.09,43.55 103.01,44.39 103.94,45.23C104.87,46.07 105.79,46.91 106.72,47.73C107.64,48.54 108.57,49.35 109.5,50.12C110.42,50.88 111.34,51.62 112.28,52.31C113.2,52.98 114.12,53.63 115.06,54.22C115.97,54.79 116.9,55.33 117.84,55.81C118.76,56.28 119.69,56.71 120.62,57.1C121.54,57.48 122.47,57.82 123.4,58.14C124.32,58.45 125.25,58.74 126.18,59C127.1,59.26 128.03,59.49 128.96,59.72C129.88,59.94 130.81,60.15 131.74,60.35C132.67,60.55 133.59,60.73 134.52,60.91C135.45,61.09 136.37,61.25 137.3,61.42C138.23,61.59 139.15,61.76 140.08,61.93C141.01,62.1 141.93,62.27 142.86,62.45C143.79,62.63 144.71,62.82 145.64,63.01C146.57,63.2 147.49,63.41 148.42,63.61C149.35,63.81 150.27,64.03 151.2,64.23C152.13,64.43 153.05,64.64 153.98,64.83C154.91,65.02 155.83,65.19 156.76,65.35C157.69,65.51 158.61,65.65 159.54,65.77C160.47,65.89 161.39,65.99 162.32,66.07C163.25,66.15 164.17,66.19 165.1,66.24C166.03,66.28 166.95,66.31 167.88,66.34C168.81,66.37 169.73,66.39 170.66,66.42C171.59,66.46 172.51,66.49 173.44,66.55C174.37,66.61 175.29,66.68 176.22,66.77C177.15,66.86 178.07,66.97 179,67.09C179.93,67.21 180.85,67.35 181.78,67.49C182.71,67.63 183.63,67.77 184.56,67.91C185.49,68.04 186.41,68.18 187.34,68.3C188.27,68.41 189.19,68.52 190.12,68.6C191.05,68.68 191.97,68.74 192.9,68.8C193.83,68.85 194.75,68.9 195.68,68.93C196.61,68.96 197.53,68.97 198.46,68.99C199.39,69.01 200.31,69.02 201.24,69.04C202.17,69.06 203.09,69.07 204.02,69.09C204.95,69.11 205.87,69.14 206.8,69.17C207.73,69.2 208.65,69.24 209.58,69.29C210.51,69.34 211.43,69.4 212.36,69.47C213.29,69.54 214.21,69.61 215.14,69.69C216.07,69.77 216.99,69.86 217.92,69.94C218.84,70.02 219.77,70.11 220.69,70.18C221.62,70.26 222.54,70.33 223.47,70.39C224.4,70.45 225.32,70.5 226.25,70.55C227.18,70.59 228.1,70.63 229.03,70.66C229.96,70.69 230.88,70.71 231.81,70.73C232.74,70.75 233.66,70.76 234.59,70.77C235.52,70.78 236.44,70.8 237.37,70.81C238.3,70.82 239.22,70.83 240.15,70.85C241.08,70.87 242,70.89 242.93,70.91C243.86,70.93 244.78,70.94 245.71,70.96C246.64,70.98 247.56,71.01 248.49,71.03C249.42,71.05 250.34,71.07 251.27,71.09C252.2,71.11 253.12,71.14 254.05,71.17C254.98,71.2 255.9,71.24 256.83,71.28C257.76,71.32 258.68,71.35 259.61,71.39C260.54,71.43 261.46,71.47 262.39,71.51C263.32,71.54 264.24,71.58 265.17,71.6C266.1,71.62 267.02,71.64 267.95,71.65C268.88,71.66 269.8,71.67 270.73,71.67C271.66,71.67 272.58,71.66 273.51,71.65C274.44,71.64 275.36,71.62 276.29,71.61C277.22,71.6 278.14,71.59 279.07,71.58C280,71.57 280.92,71.57 281.85,71.57C282.78,71.57 283.7,71.58 284.63,71.59C285.56,71.6 286.48,71.61 287.41,71.62C288.34,71.64 289.26,71.66 290.19,71.68C291.12,71.7 292.04,71.72 292.97,71.75C293.9,71.78 294.82,71.81 295.75,71.84C296.68,71.87 297.6,71.9 298.53,71.93C299.46,71.96 300.38,71.99 301.31,72.02C302.24,72.05 303.16,72.08 304.09,72.1C305.02,72.12 305.94,72.14 306.87,72.15C307.8,72.16 308.72,72.18 309.65,72.18C310.58,72.18 311.5,72.18 312.43,72.18C313.36,72.18 314.28,72.17 315.21,72.17C316.14,72.16 317.06,72.16 317.99,72.15C318.92,72.15 319.84,72.14 320.77,72.14C321.7,72.14 322.62,72.14 323.55,72.14C324.48,72.14 325.4,72.15 326.33,72.15C327.26,72.15 328.18,72.16 329.11,72.16C330.04,72.16 330.96,72.17 331.89,72.17C332.82,72.18 333.74,72.18 334.67,72.19C335.6,72.19 336.52,72.2 337.45,72.2C338.38,72.21 339.3,72.21 340.23,72.22C341.16,72.23 342.08,72.23 343.01,72.24C343.94,72.25 344.86,72.26 345.79,72.27C346.72,72.28 347.64,72.29 348.57,72.3C349.5,72.31 350.42,72.33 351.35,72.34C352.28,72.35 353.2,72.36 354.13,72.37C355.06,72.38 355.98,72.4 356.91,72.41C357.84,72.42 358.76,72.42 359.69,72.43C360.62,72.44 361.54,72.44 362.47,72.45C363.4,72.45 364.32,72.46 365.25,72.46C366.18,72.46 367.1,72.46 368.03,72.46C368.96,72.46 369.88,72.47 370.81,72.47C371.74,72.47 372.66,72.47 373.59,72.48C374.52,72.49 375.44,72.5 376.37,72.51C377.3,72.52 378.22,72.54 379.15,72.55C380.08,72.56 381,72.58 381.93,72.59C382.86,72.61 383.78,72.62 384.71,72.64C385.64,72.65 386.56,72.67 387.49,72.68C388.42,72.69 389.34,72.7 390.27,72.7C391.2,72.7 392.12,72.7 393.05,72.7C393.98,72.7 394.9,72.7 395.83,72.7C396.76,72.7 397.68,72.69 398.61,72.68C399.54,72.67 400.46,72.66 401.39,72.65C402.32,72.64 403.24,72.63 404.17,72.62C405.1,72.61 406.02,72.6 406.95,72.59C407.88,72.58 408.8,72.56 409.73,72.55C410.66,72.54 411.58,72.53 412.51,72.52C413.44,72.51 414.36,72.51 415.29,72.5C416.22,72.49 417.14,72.48 418.07,72.47C419,72.46 419.92,72.46 420.85,72.46C421.78,72.46 422.7,72.46 423.63,72.46C424.56,72.46 425.48,72.46 426.41,72.46C427.34,72.46 428.26,72.47 429.19,72.48C430.12,72.49 431.04,72.5 431.97,72.51C432.9,72.52 433.82,72.54 434.75,72.56C435.68,72.58 436.6,72.6 437.53,72.62C438.46,72.64 439.38,72.66 440.31,72.68C441.24,72.7 442.16,72.71 443.09,72.73C444.02,72.75 444.94,72.77 445.87,72.78C446.8,72.79 447.72,72.8 448.65,72.81C449.58,72.82 450.5,72.83 451.43,72.83C452.36,72.83 453.28,72.83 454.21,72.83C455.14,72.83 456.06,72.83 456.99,72.82C457.92,72.81 458.84,72.8 459.77,72.79C460.7,72.78 461.62,72.77 462.55,72.76C463.48,72.75 464.4,72.75 465.33,72.74C466.26,72.73 467.18,72.72 468.11,72.71C469.04,72.7 469.96,72.7 470.89,72.7C471.82,72.7 472.74,72.7 473.67,72.7C474.6,72.7 475.52,72.71 476.45,72.71C477.38,72.72 478.3,72.72 479.23,72.73C480.16,72.74 481.08,72.74 482.01,72.75C482.94,72.75 483.86,72.76 484.79,72.76C485.72,72.76 486.64,72.77 487.57,72.77C488.5,72.77 489.42,72.78 490.35,72.78C491.28,72.78 492.2,72.78 493.13,72.78C494.06,72.78 494.98,72.79 495.91,72.79C496.84,72.79 497.76,72.79 498.69,72.79C499.62,72.79 500.54,72.79 501.47,72.79C502.4,72.79 503.32,72.78 504.25,72.78C505.18,72.77 506.1,72.77 507.03,72.76C507.96,72.75 508.88,72.75 509.81,72.74C510.74,72.73 511.66,72.73 512.59,72.72C513.52,72.72 514.44,72.71 515.37,72.71C516.3,72.71 517.22,72.71 518.15,72.71C519.08,72.71 520,72.72 520.93,72.72C521.86,72.72 522.78,72.73 523.71,72.73C524.64,72.73 525.56,72.74 526.49,72.74C527.42,72.74 528.34,72.74 529.27,72.74C530.2,72.74 531.12,72.75 532.05,72.75C532.98,72.76 533.9,72.76 534.83,72.77C535.76,72.78 536.68,72.78 537.61,72.79C538.54,72.8 539.46,72.81 540.39,72.82C541.32,72.83 542.24,72.84 543.17,72.85C544.1,72.86 545.02,72.88 545.95,72.88C546.88,72.88 547.8,72.88 548.73,72.88C549.66,72.88 550.58,72.87 551.51,72.87C552.44,72.86 553.36,72.86 554.29,72.85C555.22,72.84 556.14,72.83 557.07,72.82C558,72.81 558.92,72.8 559.85,72.79C560.78,72.78 561.7,72.78 562.63,72.77C563.56,72.77 564.48,72.76 565.41,72.76C566.34,72.76 567.26,72.75 568.19,72.75C569.12,72.75 570.04,72.76 570.97,72.76C571.9,72.77 572.82,72.77 573.75,72.78C574.68,72.79 575.6,72.79 576.53,72.8C577.46,72.81 578.38,72.82 579.31,72.83C580.23,72.84 581.16,72.86 582.08,72.87C583.01,72.88 583.93,72.89 584.86,72.9C585.79,72.91 586.71,72.91 587.64,72.92C588.57,72.92 589.49,72.93 590.42,72.93C591.35,72.93 592.27,72.93 593.2,72.93C594.13,72.93 595.05,72.93 595.98,72.93C596.91,72.93 597.83,72.92 598.76,72.92C599.69,72.92 600.61,72.92 601.54,72.92C602.47,72.92 603.39,72.91 604.32,72.91C605.25,72.91 606.17,72.91 607.1,72.91C608.03,72.91 608.95,72.91 609.88,72.91C610.81,72.91 611.73,72.92 612.66,72.92C613.59,72.92 614.51,72.92 615.44,72.92C616.37,72.92 617.29,72.92 618.22,72.92C619.15,72.92 620.07,72.92 621,72.92C621.93,72.92 622.85,72.91 623.78,72.9C624.71,72.89 625.63,72.89 626.56,72.88C627.49,72.87 628.41,72.87 629.34,72.86C630.27,72.85 631.19,72.84 632.12,72.83C633.05,72.82 633.97,72.82 634.9,72.81C635.83,72.8 636.75,72.8 637.68,72.79C638.61,72.79 639.53,72.78 640.46,72.78C641.39,72.78 642.31,72.78 643.24,72.78C644.17,72.78 645.09,72.78 646.02,72.78C646.95,72.78 647.87,72.79 648.8,72.79C649.73,72.79 650.65,72.8 651.58,72.8C652.51,72.8 653.43,72.81 654.36,72.81C655.29,72.81 656.21,72.82 657.14,72.82C658.07,72.83 658.99,72.83 659.92,72.84C660.85,72.84 661.77,72.85 662.7,72.85C663.63,72.85 664.55,72.86 665.48,72.86C666.41,72.86 667.33,72.87 668.26,72.87C669.19,72.87 670.11,72.88 671.04,72.88C671.97,72.88 672.89,72.88 673.82,72.88C674.75,72.88 675.67,72.89 676.6,72.89C677.53,72.89 678.45,72.9 679.38,72.9C680.31,72.9 681.23,72.9 682.16,72.9C683.09,72.9 684.01,72.91 684.94,72.91C685.87,72.91 686.79,72.91 687.72,72.91C688.65,72.91 689.57,72.92 690.5,72.92C691.43,72.92 692.35,72.92 693.28,72.92C694.21,72.92 695.13,72.92 696.06,72.92C696.99,72.92 697.91,72.91 698.84,72.91C699.77,72.91 700.69,72.9 701.62,72.9C702.55,72.9 703.47,72.89 704.4,72.89C705.33,72.89 706.25,72.89 707.18,72.89C708.11,72.89 709.03,72.88 709.96,72.88C710.89,72.88 711.81,72.89 712.74,72.89C713.67,72.89 714.59,72.9 715.52,72.9C716.45,72.9 717.37,72.91 718.3,72.91C719.23,72.91 720.15,72.92 721.08,72.92C722.01,72.92 722.93,72.93 723.86,72.93C724.79,72.93 725.71,72.92 726.64,72.92C727.57,72.92 728.49,72.92 729.42,72.92C730.35,72.92 731.27,72.91 732.2,72.91C733.13,72.91 734.05,72.91 734.98,72.91C735.91,72.91 736.83,72.91 737.76,72.91C738.69,72.91 739.61,72.91 740.54,72.91C741.47,72.91 742.39,72.92 743.32,72.92C744.25,72.92 745.17,72.93 746.1,72.93C747.03,72.93 747.95,72.94 748.88,72.94C749.81,72.95 750.73,72.95 751.66,72.96C752.59,72.96 753.51,72.97 754.44,72.97C755.37,72.97 756.29,72.98 757.22,72.98Q758.15,72.98 760,72.99L760,73" style="vector-effect: none; stroke-width: 2px; stroke: rgb(117, 70, 134); stroke-opacity: 1; fill: rgb(146, 88, 167); fill-opacity: 0.5;"/><path class="meanline" d="M112.44,52.42619705200195V73" style="fill: none; vector-effect: none; stroke-width: 2px; stroke-dasharray: 4px, 2px; stroke: rgb(117, 70, 134); stroke-opacity: 1;"/></g></g></g><g class="overplot"/><path class="xlines-above crisp" d="M0,0" style="fill: none;"/><path class="ylines-above crisp" d="M0,0" style="fill: none;"/><g class="overlines-above"/><g class="xaxislayer-above"><g class="xtick"><text text-anchor="middle" x="0" y="172" transform="translate(52.88,0)" style="font-family: 'Open Sans', verdana, arial, sans-serif; font-size: 12px; fill: rgb(242, 245, 250); fill-opacity: 1; white-space: pre; opacity: 1;">0</text></g><g class="xtick"><text text-anchor="middle" x="0" y="172" style="font-family: 'Open Sans', verdana, arial, sans-serif; font-size: 12px; fill: rgb(242, 245, 250); fill-opacity: 1; white-space: pre; opacity: 1;" transform="translate(149.03,0)">50</text></g><g class="xtick"><text text-anchor="middle" x="0" y="172" style="font-family: 'Open Sans', verdana, arial, sans-serif; font-size: 12px; fill: rgb(242, 245, 250); fill-opacity: 1; white-space: pre; opacity: 1;" transform="translate(245.19,0)">100</text></g><g class="xtick"><text text-anchor="middle" x="0" y="172" style="font-family: 'Open Sans', verdana, arial, sans-serif; font-size: 12px; fill: rgb(242, 245, 250); fill-opacity: 1; white-space: pre; opacity: 1;" transform="translate(341.35,0)">150</text></g><g class="xtick"><text text-anchor="middle" x="0" y="172" style="font-family: 'Open Sans', verdana, arial, sans-serif; font-size: 12px; fill: rgb(242, 245, 250); fill-opacity: 1; white-space: pre; opacity: 1;" transform="translate(437.5,0)">200</text></g><g class="xtick"><text text-anchor="middle" x="0" y="172" style="font-family: 'Open Sans', verdana, arial, sans-serif; font-size: 12px; fill: rgb(242, 245, 250); fill-opacity: 1; white-space: pre; opacity: 1;" transform="translate(533.66,0)">250</text></g><g class="xtick"><text text-anchor="middle" x="0" y="172" style="font-family: 'Open Sans', verdana, arial, sans-serif; font-size: 12px; fill: rgb(242, 245, 250); fill-opacity: 1; white-space: pre; opacity: 1;" transform="translate(629.81,0)">300</text></g><g class="xtick"><text text-anchor="middle" x="0" y="172" style="font-family: 'Open Sans', verdana, arial, sans-serif; font-size: 12px; fill: rgb(242, 245, 250); fill-opacity: 1; white-space: pre; opacity: 1;" transform="translate(725.97,0)">350</text></g></g><g class="yaxislayer-above"/><g class="overaxes-above"/></g></g><g class="polarlayer"/><g class="smithlayer"/><g class="ternarylayer"/><g class="geolayer"/><g class="funnelarealayer"/><g class="pielayer"/><g class="iciclelayer"/><g class="treemaplayer"/><g class="sunburstlayer"/><g class="glimages"/><defs id="topdefs-3c5667"><g class="clips"/></defs><g class="layer-above"><g class="imagelayer"/><g class="shapelayer"/></g><g class="infolayer"><g class="g-gtitle"/><g class="g-xtitle" transform="translate(0,-2.3000000000000114)"><text class="xtitle" x="400" y="199.3" text-anchor="middle" style="font-family: 'Open Sans', verdana, arial, sans-serif; font-size: 14px; fill: rgb(242, 245, 250); opacity: 1; white-space: pre;">Life Span</text></g><g class="g-ytitle"/></g></svg>