<svg class="main-svg" xmlns="http://www.w3.org/2000/svg" xmlns:xlink="http://www.w3.org/1999/xlink" width="800" height="200" style="" viewBox="0 0 800 200"><rect x="0" y="0" width="800" height="200" style="fill: rgb(0, 0, 0); fill-opacity: 0;"/><defs id="defs-ea1163"><g class="clips"><clipPath id="clipea1163xyplot" class="plotclip"><rect width="800" height="159"/></clipPath><clipPath class="axesclip" id="clipea1163x"><rect x="0" y="0" width="800" height="200"/></clipPath><clipPath class="axesclip" id="clipea1163y"><rect x="0" y="0" width="800" height="159"/></clipPath><clipPath class="axesclip" id="clipea1163xy"><rect x="0" y="0" width="800" height="159"/></clipPath></g><g class="gradients"/><g class="patterns"/></defs><g class="bglayer"><rect class="bg" x="0" y="0" width="800" height="159" style="fill: rgb(0, 0, 0); fill-opacity: 0; stroke-width: 0;"/></g><g class="layer-below"><g class="imagelayer"/><g class="shapelayer"/></g><g class="cartesianlayer"><g class="subplot xy"><g class="layer-subplot"><g class="shapelayer"/><g class="imagelayer"/></g><g class="minor-gridlayer"><g class="x"/><g class="y"/></g><g class="gridlayer"><g class="x"><path class="xgrid crisp" transform="translate(87.29,0)" d="M0,0v159" style="stroke: rgb(40, 52, 66); stroke-opacity: 1; stroke-width: 1px;"/><path class="xgrid crisp" transform="translate(179.55,0)" d="M0,0v159" style="stroke: rgb(40, 52, 66); stroke-opacity: 1; stroke-width: 1px;"/><path class="xgrid crisp" transform="translate(271.82,0)" d="M0,0v159" style="stroke: rgb(40, 52, 66); stroke-opacity: 1; stroke-width: 1px;"/><path class="xgrid crisp" transform="translate(364.08,0)" d="M0,0v159" style="stroke: rgb(40, 52, 66); stroke-opacity: 1; stroke-width: 1px;"/><path class="xgrid crisp" transform="translate(456.34,0)" d="M0,0v159" style="stroke: rgb(40, 52, 66); stroke-opacity: 1; stroke-width: 1px;"/><path class="xgrid crisp" transform="translate(548.6,0)" d="M0,0v159" style="stroke: rgb(40, 52, 66); stroke-opacity: 1; stroke-width: 1px;"/><path class="xgrid crisp" transform="translate(640.87,0)" d="M0,0v159" style="stroke: rgb(40, 52, 66); stroke-opacity: 1; stroke-width: 1px;"/><path class="xgrid crisp" transform="translate(733.13,0)" d="M0,0v159" style="stroke: rgb(40, 52, 66); stroke-opacity: 1; stroke-width: 1px;"/></g><g class="y"/></g><g class="zerolinelayer"/><g class="layer-between"><g class="shapelayer"/><g class="imagelayer"/></g><path class="xlines-below"/><path class="ylines-below"/><g class="overlines-below"/><g class="xaxislayer-below"/><g class="yaxislayer-below"/><g class="overaxes-below"/><g class="plot" transform="" clip-path="url(#clipea1163xyplot)"><g class="violinlayer mlayer"><g class="trace violins" style="opacity: 1;"><path class="violin" d="M79.91,151.05L79.91,147.49Q80.76,145.58 81.14,144.48C81.59,143.19 81.98,141.71 82.37,140.22C82.8,138.59 83.19,136.79 83.6,135.08C84.01,133.37 84.39,131.54 84.83,129.97C85.22,128.59 85.54,127.07 86.06,126.14C86.42,125.5 86.88,124.72 87.29,124.72C87.7,124.72 88.16,125.5 88.52,126.14C89.04,127.07 89.36,128.59 89.75,129.97C90.19,131.54 90.57,133.37 90.98,135.08C91.39,136.79 91.78,138.59 92.21,140.22C92.6,141.71 92.99,143.19 93.44,144.48C93.82,145.58 94.21,146.63 94.67,147.49C95.05,148.2 95.45,148.83 95.9,149.32C96.28,149.73 96.7,150.06 97.13,150.3C97.52,150.52 97.94,150.65 98.36,150.76C98.76,150.87 99.18,150.91 99.59,150.95C100,150.99 100.41,151.01 100.82,151.02C101.23,151.03 101.64,151.03 102.05,151.04C102.46,151.04 102.87,151.05 103.28,151.05C103.69,151.05 104.1,151.05 104.51,151.05C104.92,151.05 105.33,151.05 105.74,151.05C106.15,151.05 106.56,151.05 106.97,151.05C107.38,151.05 107.79,151.05 108.2,151.05C108.61,151.05 109.02,151.05 109.43,151.05C109.84,151.05 110.25,151.05 110.66,151.05C111.07,151.05 111.48,151.05 111.89,151.05C112.3,151.05 112.71,151.05 113.12,151.05C113.53,151.05 113.94,151.05 114.35,151.05C114.76,151.05 115.17,151.05 115.58,151.05C115.99,151.05 116.4,151.05 116.81,151.05C117.22,151.05 117.63,151.05 118.04,151.05C118.45,151.05 118.86,151.05 119.27,151.05C119.68,151.05 120.09,151.05 120.5,151.05C120.91,151.05 121.33,151.05 121.74,151.05C122.15,151.05 122.56,151.05 122.97,151.05C123.38,151.05 123.79,151.05 124.2,151.05C124.61,151.05 125.02,151.05 125.43,151.05C125.84,151.05 126.25,151.05 126.66,151.05C127.07,151.05 127.48,151.05 127.89,151.05C128.3,151.05 128.71,151.05 129.12,151.05C129.53,151.05 129.94,151.05 130.35,151.05C130.76,151.05 131.17,151.05 131.58,151.05C131.99,151.05 132.4,151.05 132.81,151.05C133.22,151.05 133.63,151.05 134.04,151.05C134.45,151.05 134.86,151.05 135.27,151.05C135.68,151.05 136.09,151.05 136.5,151.05C136.91,151.05 137.32,151.05 137.73,151.05C138.14,151.05 138.55,151.05 138.96,151.05C139.37,151.05 139.78,151.05 140.19,151.05C140.6,151.05 141.01,151.05 141.42,151.05C141.83,151.05 142.24,151.05 142.65,151.05C143.06,151.05 143.47,151.05 143.88,151.05C144.29,151.05 144.7,151.05 145.11,151.05C145.52,151.05 145.93,151.05 146.34,151.05C146.75,151.05 147.16,151.05 147.57,151.05C147.98,151.05 148.39,151.05 148.8,151.05C149.21,151.05 149.62,151.05 150.03,151.05C150.44,151.05 150.85,151.05 151.26,151.05C151.67,151.05 152.08,151.05 152.49,151.05C152.9,151.05 153.31,151.05 153.72,151.05C154.13,151.05 154.54,151.05 154.95,151.05C155.36,151.05 155.77,151.05 156.18,151.05C156.59,151.05 157,151.05 157.41,151.05C157.82,151.05 158.23,151.05 158.64,151.05C159.05,151.05 159.46,151.05 159.87,151.05C160.28,151.05 160.69,151.05 161.1,151.05C161.51,151.05 161.92,151.05 162.33,151.05C162.74,151.05 163.15,151.04 163.56,151.04C163.97,151.04 164.38,151.04 164.79,151.03C165.2,151.02 165.61,151.01 166.02,150.97C166.43,150.93 166.85,150.9 167.25,150.8C167.67,150.69 168.09,150.57 168.48,150.33C168.92,150.06 169.34,149.68 169.71,149.19C170.18,148.56 170.57,147.72 170.94,146.77C171.42,145.52 171.8,143.95 172.17,142.25C172.64,140.09 173.02,137.52 173.4,134.83C173.85,131.63 174.24,127.98 174.63,124.31C175.06,120.28 175.45,115.83 175.86,111.6C176.27,107.38 176.65,102.87 177.09,98.97C177.47,95.59 177.76,91.89 178.32,89.52C178.67,88.04 179.14,86 179.55,86C179.96,86 180.43,88.04 180.78,89.52C181.34,91.89 181.63,95.59 182.01,98.97C182.45,102.87 182.83,107.38 183.24,111.6C183.65,115.83 184.04,120.28 184.47,124.31C184.86,127.98 185.25,131.63 185.7,134.83C186.08,137.52 186.46,140.09 186.93,142.25C187.3,143.95 187.68,145.52 188.16,146.77C188.53,147.72 188.92,148.56 189.39,149.19C189.76,149.68 190.18,150.06 190.62,150.33C191.01,150.57 191.43,150.69 191.85,150.8C192.25,150.9 192.67,150.93 193.08,150.97C193.49,151.01 193.91,151.02 194.32,151.03C194.73,151.04 195.14,151.04 195.55,151.04C195.96,151.04 196.37,151.05 196.78,151.05C197.19,151.05 197.6,151.05 198.01,151.05C198.42,151.05 198.83,151.05 199.24,151.05C199.65,151.05 200.06,151.05 200.47,151.05C200.88,151.05 201.29,151.05 201.7,151.05C202.11,151.05 202.52,151.05 202.93,151.05C203.34,151.05 203.75,151.05 204.16,151.05C204.57,151.05 204.98,151.05 205.39,151.05C205.8,151.05 206.21,151.05 206.62,151.05C207.03,151.05 207.44,151.05 207.85,151.05C208.26,151.05 208.67,151.05 209.08,151.05C209.49,151.05 209.9,151.05 210.31,151.05C210.72,151.05 211.13,151.05 211.54,151.05C211.95,151.05 212.36,151.05 212.77,151.05C213.18,151.05 213.59,151.05 214,151.05C214.41,151.05 214.82,151.05 215.23,151.05C215.64,151.05 216.05,151.05 216.46,151.05C216.87,151.05 217.28,151.05 217.69,151.05C218.1,151.05 218.51,151.05 218.92,151.05C219.33,151.05 219.74,151.05 220.15,151.05C220.56,151.05 220.97,151.05 221.38,151.05C221.79,151.05 222.2,151.05 222.61,151.05C223.02,151.05 223.43,151.05 223.84,151.05C224.25,151.05 224.66,151.05 225.07,151.05C225.48,151.05 225.89,151.05 226.3,151.05C226.71,151.05 227.12,151.05 227.53,151.05C227.94,151.05 228.35,151.05 228.76,151.05C229.17,151.05 229.58,151.05 229.99,151.05C230.4,151.05 230.81,151.05 231.22,151.05C231.63,151.05 232.04,151.05 232.45,151.05C232.86,151.05 233.27,151.05 233.68,151.05C234.09,151.05 234.5,151.05 234.91,151.05C235.32,151.05 235.73,151.05 236.14,151.05C236.55,151.05 236.96,151.05 237.37,151.05C237.78,151.05 238.19,151.05 238.6,151.05C239.01,151.05 239.42,151.05 239.83,151.05C240.24,151.05 240.65,151.05 241.06,151.05C241.47,151.05 241.88,151.05 242.29,151.05C242.7,151.05 243.11,151.05 243.52,151.05C243.93,151.05 244.34,151.05 244.75,151.05C245.16,151.05 245.57,151.05 245.98,151.05C246.39,151.05 246.8,151.05 247.21,151.05C247.62,151.05 248.03,151.05 248.44,151.05C248.85,151.05 249.26,151.05 249.67,151.05C250.08,151.05 250.49,151.05 250.9,151.05C251.31,151.05 251.72,151.05 252.13,151.05C252.54,151.05 252.95,151.05 253.36,151.05C253.77,151.05 254.18,151.05 254.59,151.05C255,151.05 255.41,151.05 255.82,151.05C256.23,151.05 256.64,151.04 257.05,151.04C257.46,151.04 257.87,151.04 258.28,151.03C258.69,151.02 259.1,151.01 259.51,150.98C259.92,150.95 260.33,150.92 260.74,150.85C261.15,150.78 261.57,150.7 261.97,150.54C262.39,150.38 262.81,150.17 263.2,149.88C263.64,149.56 264.05,149.14 264.43,148.65C264.88,148.08 265.28,147.37 265.67,146.62C266.11,145.76 266.51,144.76 266.9,143.75C267.33,142.65 267.72,141.43 268.13,140.28C268.54,139.13 268.92,137.89 269.36,136.83C269.75,135.9 270.1,134.86 270.59,134.25C270.95,133.8 271.41,133.29 271.82,133.29C272.23,133.29 272.69,133.8 273.05,134.25C273.54,134.86 273.89,135.9 274.28,136.83C274.72,137.89 275.1,139.13 275.51,140.28C275.92,141.43 276.31,142.65 276.74,143.75C277.13,144.76 277.53,145.76 277.97,146.62C278.36,147.37 278.75,148.08 279.2,148.65C279.58,149.14 279.99,149.56 280.43,149.88C280.82,150.17 281.24,150.38 281.66,150.54C282.06,150.7 282.48,150.78 282.89,150.85C283.3,150.92 283.71,150.95 284.12,150.98C284.53,151.01 284.94,151.02 285.35,151.03C285.76,151.04 286.17,151.04 286.58,151.04C286.99,151.04 287.4,151.05 287.81,151.05C288.22,151.05 288.63,151.05 289.04,151.05C289.45,151.05 289.86,151.05 290.27,151.05C290.68,151.05 291.09,151.05 291.5,151.05C291.91,151.05 292.32,151.05 292.73,151.05C293.14,151.05 293.55,151.05 293.96,151.05C294.37,151.05 294.78,151.05 295.19,151.05C295.6,151.05 296.01,151.05 296.42,151.05C296.83,151.05 297.24,151.05 297.65,151.05C298.06,151.05 298.47,151.05 298.88,151.05C299.29,151.05 299.7,151.05 300.11,151.05C300.52,151.05 300.93,151.05 301.34,151.05C301.75,151.05 302.16,151.05 302.57,151.05C302.98,151.05 303.39,151.05 303.8,151.05C304.21,151.05 304.62,151.05 305.03,151.05C305.44,151.05 305.85,151.05 306.26,151.05C306.67,151.05 307.08,151.05 307.49,151.05C307.9,151.05 308.31,151.05 308.72,151.05C309.13,151.05 309.54,151.05 309.95,151.05C310.36,151.05 310.77,151.05 311.18,151.05C311.59,151.05 312,151.05 312.41,151.05C312.82,151.05 313.23,151.05 313.64,151.05C314.05,151.05 314.46,151.05 314.87,151.05C315.28,151.05 315.69,151.05 316.1,151.05C316.51,151.05 316.92,151.05 317.33,151.05C317.74,151.05 318.15,151.05 318.56,151.05C318.97,151.05 319.38,151.05 319.79,151.05C320.2,151.05 320.61,151.05 321.02,151.05C321.43,151.05 321.84,151.05 322.25,151.05C322.66,151.05 323.07,151.05 323.48,151.05C323.89,151.05 324.3,151.05 324.71,151.05C325.12,151.05 325.53,151.05 325.94,151.05C326.35,151.05 326.76,151.05 327.17,151.05C327.58,151.05 327.99,151.05 328.4,151.05C328.81,151.05 329.22,151.05 329.63,151.05C330.04,151.05 330.45,151.05 330.86,151.05C331.27,151.05 331.68,151.05 332.09,151.05C332.5,151.05 332.91,151.05 333.32,151.05C333.73,151.05 334.14,151.05 334.55,151.05C334.96,151.05 335.37,151.05 335.78,151.05C336.19,151.05 336.61,151.05 337.02,151.05C337.43,151.05 337.84,151.05 338.25,151.05C338.66,151.05 339.07,151.05 339.48,151.05C339.89,151.05 340.3,151.05 340.71,151.05C341.12,151.05 341.53,151.05 341.94,151.05C342.35,151.05 342.76,151.05 343.17,151.05C343.58,151.05 343.99,151.05 344.4,151.05C344.81,151.05 345.22,151.05 345.63,151.05C346.04,151.05 346.45,151.05 346.86,151.05C347.27,151.05 347.68,151.05 348.09,151.05C348.5,151.05 348.91,151.05 349.32,151.05C349.73,151.05 350.14,151.05 350.55,151.05C350.96,151.05 351.37,151.05 351.78,151.04C352.19,151.03 352.6,151.02 353.01,151.01C353.42,150.99 353.83,150.98 354.24,150.95C354.65,150.92 355.06,150.87 355.47,150.81C355.88,150.74 356.29,150.67 356.7,150.56C357.11,150.45 357.52,150.31 357.93,150.15C358.35,149.98 358.75,149.78 359.16,149.57C359.57,149.35 359.98,149.1 360.39,148.86C360.8,148.63 361.2,148.37 361.62,148.16C362.02,147.96 362.43,147.76 362.85,147.64C363.25,147.52 363.67,147.44 364.08,147.44C364.49,147.44 364.91,147.52 365.31,147.64C365.73,147.76 366.14,147.96 366.54,148.16C366.96,148.37 367.36,148.63 367.77,148.86C368.18,149.1 368.59,149.35 369,149.57C369.41,149.78 369.81,149.98 370.23,150.15C370.64,150.31 371.05,150.45 371.46,150.56C371.87,150.67 372.28,150.74 372.69,150.81C373.1,150.87 373.51,150.92 373.92,150.95C374.33,150.98 374.74,150.99 375.15,151.01C375.56,151.02 375.97,151.03 376.38,151.04C376.79,151.05 377.2,151.05 377.61,151.05C378.02,151.05 378.43,151.05 378.84,151.05C379.25,151.05 379.66,151.05 380.07,151.05C380.48,151.05 380.89,151.05 381.3,151.05C381.71,151.05 382.12,151.05 382.53,151.05C382.94,151.05 383.35,151.05 383.76,151.05C384.17,151.05 384.58,151.05 384.99,151.05C385.4,151.05 385.81,151.05 386.22,151.05C386.63,151.05 387.04,151.05 387.45,151.05C387.86,151.05 388.27,151.05 388.68,151.05C389.09,151.05 389.5,151.05 389.91,151.05C390.32,151.05 390.73,151.05 391.14,151.05C391.55,151.05 391.96,151.05 392.37,151.05C392.78,151.05 393.19,151.05 393.6,151.05C394.01,151.05 394.42,151.05 394.83,151.05C395.24,151.05 395.65,151.05 396.06,151.05C396.47,151.05 396.88,151.05 397.29,151.05C397.7,151.05 398.11,151.05 398.52,151.05C398.93,151.05 399.34,151.05 399.75,151.05C400.16,151.05 400.57,151.05 400.98,151.05C401.39,151.05 401.8,151.05 402.21,151.05C402.62,151.05 403.03,151.05 403.44,151.05C403.85,151.05 404.26,151.05 404.67,151.05C405.08,151.05 405.49,151.05 405.9,151.05C406.31,151.05 406.72,151.05 407.13,151.05C407.54,151.05 407.96,151.05 408.37,151.05C408.78,151.05 409.19,151.05 409.6,151.05C410.01,151.05 410.42,151.05 410.83,151.05C411.24,151.05 411.65,151.05 412.06,151.05C412.47,151.05 412.88,151.05 413.29,151.05C413.7,151.05 414.11,151.05 414.52,151.05C414.93,151.05 415.34,151.05 415.75,151.05C416.16,151.05 416.57,151.05 416.98,151.05C417.39,151.05 417.8,151.05 418.21,151.05C418.62,151.05 419.03,151.05 419.44,151.05C419.85,151.05 420.26,151.05 420.67,151.05C421.08,151.05 421.49,151.05 421.9,151.05C422.31,151.05 422.72,151.05 423.13,151.05C423.54,151.05 423.95,151.05 424.36,151.05C424.77,151.05 425.18,151.05 425.59,151.05C426,151.05 426.41,151.05 426.82,151.05C427.23,151.05 427.64,151.05 428.05,151.05C428.46,151.05 428.87,151.05 429.28,151.05C429.69,151.05 430.1,151.05 430.51,151.05C430.92,151.05 431.33,151.05 431.74,151.05C432.15,151.05 432.56,151.05 432.97,151.05C433.38,151.05 433.79,151.05 434.2,151.05C434.61,151.05 435.02,151.05 435.43,151.05C435.84,151.05 436.25,151.05 436.66,151.05C437.07,151.05 437.48,151.05 437.89,151.05C438.3,151.05 438.71,151.05 439.12,151.05C439.53,151.05 439.94,151.05 440.35,151.05C440.76,151.05 441.17,151.05 441.58,151.05C441.99,151.05 442.4,151.05 442.81,151.05C443.22,151.05 443.63,151.04 444.04,151.04C444.45,151.04 444.86,151.04 445.27,151.03C445.68,151.02 446.09,151.01 446.5,150.99C446.91,150.97 447.32,150.95 447.73,150.92C448.14,150.88 448.55,150.84 448.96,150.78C449.37,150.72 449.78,150.65 450.19,150.56C450.6,150.47 451.01,150.36 451.42,150.24C451.83,150.12 452.24,149.98 452.65,149.85C453.06,149.72 453.47,149.58 453.88,149.47C454.29,149.36 454.7,149.25 455.11,149.18C455.52,149.12 455.93,149.08 456.34,149.08C456.75,149.08 457.16,149.12 457.57,149.18C457.98,149.25 458.39,149.36 458.8,149.47C459.21,149.58 459.62,149.72 460.03,149.85C460.44,149.98 460.85,150.12 461.26,150.24C461.67,150.36 462.08,150.47 462.49,150.56Q462.9,150.65 463.72,150.78L463.72,151.05" style="vector-effect: none; stroke-width: 2px; stroke: rgb(162, 162, 42); stroke-opacity: 1; fill: rgb(203, 203, 52); fill-opacity: 0.5;"/><path class="meanline" d="M183.22,111.39269256591797V151.05" style="fill: none; vector-effect: none; stroke-width: 2px; stroke-dasharray: 4px, 2px; stroke: rgb(162, 162, 42); stroke-opacity: 1;"/></g><g class="trace violins" style="opacity: 1;"><path class="violin" d="M60.06,125.03L60.06,124.52Q63.06,124.27 64.56,124.1C66.06,123.93 67.57,123.71 69.07,123.49C70.57,123.27 72.07,123 73.57,122.76C75.07,122.52 76.58,122.25 78.08,122.04C79.58,121.83 81.08,121.61 82.58,121.48C84.08,121.35 85.59,121.27 87.09,121.27C88.59,121.27 90.09,121.33 91.59,121.45C93.09,121.57 94.6,121.77 96.1,121.98C97.61,122.19 99.11,122.46 100.61,122.7C102.11,122.94 103.61,123.2 105.11,123.43C106.61,123.65 108.12,123.87 109.62,124.05C111.12,124.23 112.62,124.37 114.12,124.49C115.62,124.61 117.13,124.69 118.63,124.76C120.13,124.83 121.63,124.87 123.13,124.9C124.63,124.93 126.14,124.95 127.64,124.94C129.14,124.93 130.64,124.92 132.14,124.86C133.64,124.8 135.15,124.75 136.65,124.57C138.16,124.39 139.68,124.2 141.16,123.79C142.68,123.37 144.22,122.87 145.66,122.06C147.23,121.18 148.76,120.03 150.17,118.61C151.79,116.97 153.27,114.9 154.67,112.62C156.3,109.97 157.75,106.8 159.18,103.53C160.78,99.87 162.21,95.71 163.68,91.64C165.22,87.39 166.64,82.75 168.19,78.54C169.65,74.56 171,70.29 172.69,67.02C174.07,64.35 175.39,61.15 177.2,60.14C178.54,59.39 180.37,59.31 181.71,59.99C183.5,60.9 184.84,64 186.21,66.59C187.91,69.79 189.26,74.03 190.72,77.97C192.27,82.16 193.69,86.8 195.22,91.06C196.69,95.16 198.14,99.35 199.73,103.05C201.16,106.37 202.6,109.59 204.23,112.29C205.63,114.61 207.12,116.74 208.74,118.41C210.15,119.86 211.67,121.04 213.24,121.94C214.68,122.77 216.22,123.3 217.75,123.73C219.23,124.14 220.75,124.33 222.26,124.49C223.76,124.65 225.26,124.69 226.76,124.68C228.26,124.67 229.77,124.61 231.27,124.44C232.78,124.27 234.29,124.06 235.77,123.64C237.29,123.21 238.83,122.67 240.28,121.88C241.84,121.03 243.35,119.94 244.78,118.62C246.38,117.15 247.86,115.31 249.29,113.33C250.89,111.12 252.34,108.51 253.79,105.88C255.35,103.06 256.79,99.91 258.3,96.94C259.8,93.98 261.21,90.78 262.8,88.1C264.23,85.69 265.6,83.05 267.31,81.51C268.68,80.27 270.32,79.06 271.82,79.06C273.32,79.06 274.95,80.27 276.32,81.51C278.03,83.05 279.4,85.69 280.83,88.1C282.42,90.78 283.83,93.98 285.33,96.94C286.84,99.91 288.28,103.06 289.84,105.88C291.29,108.51 292.74,111.12 294.34,113.33C295.77,115.31 297.26,117.14 298.85,118.62C300.28,119.94 301.79,121.04 303.35,121.89C304.8,122.68 306.34,123.22 307.86,123.65C309.34,124.07 310.86,124.28 312.37,124.48C313.87,124.67 315.37,124.75 316.87,124.82C318.37,124.89 319.88,124.9 321.38,124.9C322.88,124.9 324.38,124.89 325.88,124.84C327.38,124.79 328.89,124.72 330.39,124.6C331.89,124.48 333.39,124.34 334.89,124.12C336.4,123.9 337.91,123.63 339.4,123.28C340.91,122.93 342.41,122.5 343.9,122.02C345.41,121.53 346.91,120.94 348.41,120.37C349.92,119.8 351.41,119.14 352.92,118.58C354.41,118.02 355.91,117.43 357.42,117.02C358.91,116.61 360.42,116.26 361.93,116.11C363.42,115.96 364.94,115.97 366.43,116.13C367.94,116.29 369.45,116.66 370.94,117.08C372.45,117.5 373.94,118.1 375.44,118.66C376.95,119.22 378.44,119.88 379.95,120.45C381.45,121.02 382.94,121.6 384.45,122.08C385.94,122.56 387.45,122.98 388.96,123.33C390.46,123.67 391.96,123.93 393.47,124.15C394.97,124.36 396.47,124.5 397.97,124.62C399.47,124.74 400.98,124.8 402.48,124.86C403.98,124.92 405.48,124.95 406.98,124.97C408.48,125 409.99,125 411.49,125.01C412.99,125.02 414.49,125.01 415.99,125.01C417.49,125.01 419,125.01 420.5,125C422,124.99 423.5,124.98 425,124.96C426.5,124.94 428.01,124.91 429.51,124.88C431.01,124.85 432.51,124.81 434.01,124.76C435.51,124.71 437.02,124.64 438.52,124.58C440.02,124.51 441.53,124.44 443.03,124.37C444.53,124.3 446.03,124.23 447.53,124.17C449.03,124.11 450.54,124.05 452.04,124.02C453.54,123.99 455.04,123.97 456.54,123.97C458.04,123.97 459.55,123.99 461.05,124.03C462.55,124.07 464.05,124.13 465.55,124.19C467.05,124.25 468.56,124.32 470.06,124.39C471.56,124.46 473.06,124.54 474.56,124.6C476.06,124.66 477.57,124.72 479.07,124.77Q480.57,124.82 483.58,124.89L483.58,125.03" style="vector-effect: none; stroke-width: 2px; stroke: rgb(81, 123, 98); stroke-opacity: 1; fill: rgb(101, 154, 123); fill-opacity: 0.5;"/><path class="meanline" d="M226.13,124.68093872070312V125.03" style="fill: none; vector-effect: none; stroke-width: 2px; stroke-dasharray: 4px, 2px; stroke: rgb(81, 123, 98); stroke-opacity: 1;"/></g><g class="trace violins" style="opacity: 1;"><path class="violin" d="M40,99.01L40,97.83Q45.21,97.24 47.81,96.85C50.42,96.45 53.02,95.97 55.62,95.46C58.23,94.95 60.83,94.33 63.43,93.77C66.03,93.21 68.63,92.59 71.24,92.09C73.84,91.6 76.44,91.1 79.05,90.8C81.64,90.5 84.25,90.3 86.85,90.27C89.45,90.24 92.06,90.38 94.66,90.6C97.27,90.82 99.87,91.25 102.47,91.6C105.07,91.95 107.67,92.45 110.28,92.69C112.88,92.93 115.49,93.21 118.09,93.06C120.7,92.91 123.36,92.59 125.9,91.76C128.57,90.88 131.22,89.54 133.71,87.81C136.46,85.9 139.04,83.32 141.52,80.54C144.27,77.46 146.8,73.72 149.33,69.99C152.02,66.03 154.52,61.54 157.14,57.39C159.73,53.29 162.19,48.82 164.95,45.21C167.43,41.97 169.89,38.43 172.76,36.56C175.17,34.99 178.01,33.75 180.56,33.97C183.21,34.2 185.95,36.18 188.37,38.19C191.23,40.56 193.66,44.36 196.18,47.82C198.88,51.53 201.35,55.94 203.99,59.82C206.55,63.58 209.02,67.64 211.8,70.78C214.26,73.56 216.8,76.46 219.61,77.91C222.06,79.17 224.88,79.94 227.42,79.6C230.09,79.24 232.79,77.45 235.23,75.54C238.06,73.32 240.54,69.87 243.04,66.61C245.76,63.06 248.23,58.8 250.85,54.96C253.44,51.17 255.88,46.97 258.66,43.73C261.12,40.85 263.62,37.7 266.46,36.29C268.89,35.09 271.77,34.48 274.27,35.04C277,35.66 279.65,38.09 282.08,40.41C284.92,43.11 287.35,47.06 289.89,50.67C292.57,54.48 295.04,58.88 297.7,62.74C300.25,66.44 302.73,70.36 305.51,73.38C307.97,76.06 310.53,78.77 313.32,80.19C315.78,81.44 318.56,82.19 321.13,81.98C323.77,81.76 326.47,80.34 328.94,78.76C331.71,76.99 334.22,74.19 336.75,71.57C339.44,68.78 341.93,65.39 344.56,62.43C347.13,59.54 349.62,56.33 352.37,54.02C354.85,51.94 357.45,49.79 360.17,48.99C362.67,48.26 365.48,48.27 367.98,49.02C370.71,49.84 373.32,52.03 375.79,54.15C378.55,56.52 381.04,59.8 383.6,62.81C386.25,65.92 388.75,69.46 391.41,72.55C393.96,75.52 396.49,78.6 399.22,81.05C401.72,83.29 404.31,85.42 407.03,86.81C409.53,88.09 412.21,88.97 414.84,89.29C417.41,89.6 420.08,89.28 422.65,88.76C425.29,88.22 427.88,87.11 430.46,86.06C433.09,84.99 435.66,83.54 438.27,82.37C440.86,81.21 443.43,79.9 446.07,79.05C448.64,78.22 451.26,77.51 453.88,77.29C456.47,77.08 459.12,77.25 461.69,77.74C464.33,78.24 466.93,79.25 469.5,80.3C472.14,81.38 474.72,82.85 477.31,84.19C479.92,85.53 482.49,87.06 485.12,88.34C487.7,89.59 490.29,90.85 492.93,91.79C495.5,92.71 498.11,93.48 500.74,93.96C503.32,94.43 505.95,94.65 508.55,94.68C511.15,94.71 513.77,94.45 516.36,94.12C518.97,93.79 521.57,93.21 524.17,92.68C526.78,92.15 529.37,91.46 531.98,90.92C534.58,90.38 537.17,89.81 539.78,89.46C542.37,89.11 544.99,88.85 547.59,88.81C550.19,88.77 552.81,88.94 555.4,89.23C558.01,89.53 560.62,90.05 563.21,90.59C565.82,91.14 568.42,91.85 571.02,92.5C573.62,93.15 576.22,93.88 578.83,94.49C581.43,95.1 584.03,95.69 586.64,96.17C589.24,96.65 591.84,97.04 594.45,97.36C597.05,97.67 599.65,97.89 602.26,98.06C604.86,98.23 607.47,98.31 610.07,98.38C612.67,98.45 615.28,98.45 617.88,98.46C620.48,98.47 623.08,98.44 625.68,98.42C628.28,98.4 630.89,98.37 633.49,98.36C636.09,98.35 638.7,98.34 641.3,98.34C643.9,98.34 646.51,98.36 649.11,98.38C651.71,98.4 654.32,98.44 656.92,98.48C659.52,98.52 662.13,98.57 664.73,98.61C667.33,98.65 669.94,98.7 672.54,98.74C675.14,98.78 677.75,98.82 680.35,98.85Q682.95,98.88 688.16,98.92L688.16,99.01" style="vector-effect: none; stroke-width: 2px; stroke: rgb(117, 70, 134); stroke-opacity: 1; fill: rgb(146, 88, 167); fill-opacity: 0.5;"/><path class="meanline" d="M290.58,51.67155838012695V99.01" style="fill: none; vector-effect: none; stroke-width: 2px; stroke-dasharray: 4px, 2px; stroke: rgb(117, 70, 134); stroke-opacity: 1;"/></g><g class="trace violins" style="opacity: 1;"><path class="violin" d="M60.42,73L60.42,72.96Q63.39,72.94 64.88,72.93C66.36,72.92 67.85,72.9 69.33,72.89C70.82,72.87 72.3,72.86 73.79,72.84C75.27,72.82 76.76,72.8 78.24,72.79C79.73,72.77 81.21,72.76 82.7,72.75C84.19,72.74 85.67,72.74 87.16,72.74C88.64,72.74 90.13,72.74 91.61,72.75C93.1,72.76 94.58,72.77 96.07,72.79C97.55,72.8 99.04,72.82 100.52,72.84C102.01,72.86 103.49,72.87 104.98,72.89C106.47,72.9 107.95,72.92 109.44,72.93C110.92,72.94 112.41,72.95 113.89,72.96C115.38,72.97 116.86,72.98 118.35,72.98C119.83,72.98 121.32,72.98 122.8,72.98C124.29,72.98 125.77,72.98 127.26,72.97C128.75,72.96 130.23,72.96 131.72,72.93C133.2,72.9 134.69,72.87 136.17,72.79C137.66,72.7 139.15,72.62 140.63,72.42C142.12,72.22 143.61,72 145.08,71.58C146.59,71.15 148.1,70.62 149.54,69.85C151.07,69.03 152.57,67.99 153.99,66.75C155.55,65.38 157.03,63.69 158.45,61.89C160.01,59.91 161.46,57.6 162.91,55.3C164.43,52.89 165.86,50.2 167.36,47.73C168.83,45.33 170.23,42.73 171.82,40.68C173.22,38.88 174.63,36.9 176.27,35.98C177.65,35.2 179.3,34.73 180.73,35.01C182.29,35.31 183.81,36.72 185.19,38.07C186.82,39.67 188.2,42.04 189.64,44.23C191.18,46.58 192.6,49.29 194.1,51.77C195.57,54.2 197,56.75 198.55,58.97C199.98,61.03 201.44,63.03 203.01,64.69C204.43,66.19 205.92,67.53 207.47,68.59C208.9,69.56 210.4,70.31 211.92,70.9C213.38,71.46 214.88,71.8 216.38,72.09C217.85,72.37 219.34,72.51 220.83,72.61C222.31,72.71 223.8,72.74 225.29,72.72C226.78,72.7 228.27,72.64 229.75,72.47C231.24,72.3 232.74,72.1 234.2,71.68C235.71,71.25 237.23,70.71 238.66,69.87C240.21,68.95 241.72,67.75 243.11,66.28C244.72,64.58 246.18,62.44 247.57,60.1C249.19,57.37 250.62,54.12 252.03,50.78C253.61,47.05 255.02,42.83 256.48,38.72C257.99,34.46 259.4,29.81 260.94,25.63C262.38,21.71 263.7,17.5 265.39,14.35C266.74,11.82 268.09,8.76 269.85,7.95C271.18,7.33 272.98,7.56 274.3,8.37C276.1,9.48 277.39,12.73 278.76,15.47C280.43,18.81 281.77,23.12 283.22,27.13C284.75,31.36 286.15,35.99 287.67,40.23C289.12,44.28 290.55,48.4 292.13,52.03C293.54,55.26 294.96,58.38 296.58,60.98C297.97,63.21 299.43,65.23 301.04,66.82C302.44,68.2 303.95,69.31 305.5,70.15C306.93,70.93 308.45,71.42 309.95,71.81C311.42,72.19 312.92,72.36 314.41,72.5C315.89,72.64 317.38,72.67 318.86,72.65C320.35,72.63 321.84,72.57 323.32,72.38C324.81,72.19 326.32,71.95 327.78,71.49C329.29,71.01 330.81,70.41 332.23,69.53C333.79,68.56 335.29,67.31 336.69,65.81C338.29,64.09 339.74,61.93 341.14,59.62C342.74,56.97 344.17,53.85 345.6,50.69C347.16,47.24 348.58,43.37 350.06,39.68C351.55,35.95 352.94,31.91 354.51,28.42C355.93,25.26 357.24,21.81 358.97,19.57C360.31,17.83 361.86,15.84 363.42,15.63C364.84,15.44 366.55,16.58 367.88,17.81C369.65,19.45 370.94,22.62 372.33,25.44C373.94,28.69 375.32,32.63 376.79,36.29C378.29,40.02 379.71,44.01 381.25,47.61C382.69,50.98 384.11,54.36 385.7,57.27C387.1,59.84 388.55,62.28 390.16,64.27C391.55,65.99 393.04,67.5 394.61,68.66C396.02,69.71 397.55,70.46 399.07,71.06C400.52,71.63 402.03,71.94 403.53,72.21C405,72.48 406.49,72.59 407.98,72.69C409.46,72.79 410.95,72.8 412.44,72.8C413.92,72.8 415.41,72.77 416.89,72.68C418.38,72.59 419.87,72.48 421.35,72.26C422.84,72.04 424.34,71.78 425.81,71.36C427.31,70.93 428.81,70.39 430.26,69.7C431.78,68.97 433.27,68.07 434.72,67.06C436.25,65.99 437.71,64.71 439.17,63.41C440.68,62.07 442.14,60.53 443.63,59.13C445.11,57.74 446.55,56.23 448.09,55.04C449.53,53.93 450.99,52.78 452.54,52.16C453.97,51.59 455.53,51.23 457,51.33C458.5,51.43 460.02,52.07 461.45,52.82C463,53.63 464.46,54.93 465.91,56.16C467.44,57.45 468.88,59.01 470.37,60.42C471.85,61.82 473.3,63.29 474.82,64.57C476.27,65.79 477.75,66.97 479.28,67.94C480.73,68.86 482.22,69.65 483.73,70.28C485.19,70.89 486.69,71.33 488.19,71.69C489.66,72.04 491.15,72.25 492.64,72.43C494.12,72.61 495.61,72.69 497.1,72.77C498.59,72.85 500.07,72.88 501.56,72.9C503.04,72.92 504.53,72.92 506.01,72.91C507.5,72.9 508.98,72.88 510.47,72.83C511.95,72.78 513.44,72.72 514.92,72.61C516.41,72.5 517.9,72.36 519.38,72.16C520.87,71.95 522.36,71.71 523.84,71.38C525.33,71.05 526.81,70.63 528.29,70.17C529.78,69.7 531.27,69.14 532.75,68.58C534.24,68.02 535.71,67.37 537.2,66.81C538.68,66.26 540.16,65.66 541.66,65.24C543.13,64.82 544.63,64.45 546.12,64.28C547.6,64.11 549.09,64.1 550.57,64.23C552.06,64.36 553.56,64.7 555.03,65.09C556.53,65.49 558,66.06 559.48,66.61C560.97,67.16 562.45,67.81 563.94,68.38C565.42,68.94 566.91,69.52 568.4,70C569.88,70.48 571.36,70.91 572.85,71.26C574.33,71.61 575.82,71.87 577.31,72.09C578.79,72.31 580.27,72.45 581.76,72.57C583.24,72.69 584.73,72.76 586.22,72.82C587.71,72.88 589.19,72.9 590.68,72.93C592.16,72.95 593.65,72.96 595.13,72.97C596.62,72.98 598.1,72.98 599.59,72.98C601.07,72.98 602.56,72.97 604.04,72.96C605.53,72.95 607.01,72.94 608.5,72.92C609.98,72.9 611.47,72.87 612.95,72.83C614.44,72.79 615.92,72.74 617.41,72.68C618.9,72.62 620.38,72.54 621.87,72.46C623.35,72.38 624.84,72.28 626.32,72.19C627.81,72.1 629.29,71.99 630.78,71.9C632.26,71.81 633.75,71.73 635.23,71.67C636.72,71.61 638.2,71.56 639.69,71.55C641.18,71.54 642.66,71.55 644.15,71.59C645.63,71.63 647.12,71.7 648.6,71.77C650.09,71.85 651.57,71.95 653.06,72.04C654.54,72.13 656.03,72.23 657.51,72.32C659,72.41 660.48,72.5 661.97,72.57C663.46,72.64 664.94,72.71 666.43,72.76C667.91,72.81 669.4,72.85 670.88,72.88C672.37,72.91 673.85,72.92 675.34,72.94C676.82,72.95 678.31,72.96 679.79,72.97C681.28,72.98 682.76,72.99 684.25,72.99C685.74,72.99 687.22,72.99 688.71,72.99C690.19,72.99 691.68,72.99 693.16,72.99C694.65,72.99 696.13,72.99 697.62,72.98C699.1,72.98 700.59,72.97 702.07,72.96C703.56,72.95 705.04,72.95 706.53,72.93C708.01,72.92 709.5,72.89 710.98,72.87C712.47,72.85 713.95,72.83 715.44,72.8C716.93,72.77 718.41,72.74 719.9,72.71C721.38,72.68 722.87,72.65 724.35,72.62C725.84,72.59 727.32,72.56 728.81,72.55C730.29,72.54 731.78,72.53 733.26,72.53C734.75,72.53 736.23,72.54 737.72,72.55C739.21,72.56 740.69,72.59 742.18,72.62C743.66,72.65 745.15,72.68 746.63,72.71C748.12,72.74 749.6,72.77 751.09,72.8C752.57,72.83 754.06,72.86 755.54,72.88Q757.03,72.9 760,72.93L760,73" style="vector-effect: none; stroke-width: 2px; stroke: rgb(47, 117, 157); stroke-opacity: 1; fill: rgb(59, 146, 196); fill-opacity: 0.5;"/><path class="meanline" d="M317.89,72.6551513671875V73" style="fill: none; vector-effect: none; stroke-width: 2px; stroke-dasharray: 4px, 2px; stroke: rgb(47, 117, 157); stroke-opacity: 1;"/></g></g></g><g class="overplot"/><path class="xlines-above crisp" d="M0,0" style="fill: none;"/><path class="ylines-above crisp" d="M0,0" style="fill: none;"/><g class="overlines-above"/><g class="xaxislayer-above"><g class="xtick"><text text-anchor="middle" x="0" y="172" transform="translate(87.29,0)" style="font-family: 'Open Sans', verdana, arial, sans-serif; font-size: 12px; fill: rgb(242, 245, 250); fill-opacity: 1; white-space: pre; opacity: 1;">1</text></g><g class="xtick"><text text-anchor="middle" x="0" y="172" style="font-family: 'Open Sans', verdana, arial, sans-serif; font-size: 12px; fill: rgb(242, 245, 250); fill-opacity: 1; white-space: pre; opacity: 1;" transform="translate(179.55,0)">2</text></g><g class="xtick"><text text-anchor="middle" x="0" y="172" style="font-family: 'Open Sans', verdana, arial, sans-serif; font-size: 12px; fill: rgb(242, 245, 250); fill-opacity: 1; white-space: pre; opacity: 1;" transform="translate(271.82,0)">3</text></g><g class="xtick"><text text-anchor="middle" x="0" y="172" style="font-family: 'Open Sans', verdana, arial, sans-serif; font-size: 12px; fill: rgb(242, 245, 250); fill-opacity: 1; white-space: pre; opacity: 1;" transform="translate(364.08,0)">4</text></g><g class="xtick"><text text-anchor="middle" x="0" y="172" style="font-family: 'Open Sans', verdana, arial, sans-serif; font-size: 12px; fill: rgb(242, 245, 250); fill-opacity: 1; white-space: pre; opacity: 1;" transform="translate(456.34,0)">5</text></g><g class="xtick"><text text-anchor="middle" x="0" y="172" style="font-family: 'Open Sans', verdana, arial, sans-serif; font-size: 12px; fill: rgb(242, 245, 250); fill-opacity: 1; white-space: pre; opacity: 1;" transform="translate(548.6,0)">6</text></g><g class="xtick"><text text-anchor="middle" x="0" y="172" style="font-family: 'Open Sans', verdana, arial, sans-serif; font-size: 12px; fill: rgb(242, 245, 250); fill-opacity: 1; white-space: pre; opacity: 1;" transform="translate(640.87,0)">7</text></g><g class="xtick"><text text-anchor="middle" x="0" y="172" style="font-family: 'Open Sans', verdana, arial, sans-serif; font-size: 12px; fill: rgb(242, 245, 250); fill-opacity: 1; white-space: pre; opacity: 1;" transform="translate(733.13,0)">8</text></g></g><g class="yaxislayer-above"/><g class="overaxes-above"/></g></g><g class="polarlayer"/><g class="smithlayer"/><g class="ternarylayer"/><g class="geolayer"/><g class="funnelarealayer"/><g class="pielayer"/><g class="iciclelayer"/><g class="treemaplayer"/><g class="sunburstlayer"/><g class="glimages"/><defs id="topdefs-ea1163"><g class="clips"/></defs><g class="layer-above"><g class="imagelayer"/><g class="shapelayer"/></g><g class="infolayer"><g class="g-gtitle"/><g class="g-xtitle" transform="translate(0,-2.3000000000000114)"><text class="xtitle" x="400" y="199.3" text-anchor="middle" style="font-family: 'Open Sans', verdana, arial, sans-serif; font-size: 14px; fill: rgb(242, 245, 250); opacity: 1; white-space: pre;">Sensors</text></g><g class="g-ytitle"/></g></svg>