<svg class="main-svg" xmlns="http://www.w3.org/2000/svg" xmlns:xlink="http://www.w3.org/1999/xlink" width="800" height="200" style="" viewBox="0 0 800 200"><rect x="0" y="0" width="800" height="200" style="fill: rgb(0, 0, 0); fill-opacity: 0;"/><defs id="defs-425322"><g class="clips"><clipPath id="clip425322xyplot" class="plotclip"><rect width="793" height="159"/></clipPath><clipPath class="axesclip" id="clip425322x"><rect x="0" y="0" width="793" height="200"/></clipPath><clipPath class="axesclip" id="clip425322y"><rect x="0" y="0" width="800" height="159"/></clipPath><clipPath class="axesclip" id="clip425322xy"><rect x="0" y="0" width="793" height="159"/></clipPath></g><g class="gradients"/><g class="patterns"/></defs><g class="bglayer"><rect class="bg" x="0" y="0" width="793" height="159" style="fill: rgb(0, 0, 0); fill-opacity: 0; stroke-width: 0;"/></g><g class="layer-below"><g class="imagelayer"/><g class="shapelayer"/></g><g class="cartesianlayer"><g class="subplot xy"><g class="layer-subplot"><g class="shapelayer"/><g class="imagelayer"/></g><g class="minor-gridlayer"><g class="x"/><g class="y"/></g><g class="gridlayer"><g class="x"><path class="xgrid crisp" transform="translate(137.14,0)" d="M0,0v159" style="stroke: rgb(40, 52, 66); stroke-opacity: 1; stroke-width: 1px;"/><path class="xgrid crisp" transform="translate(218.52,0)" d="M0,0v159" style="stroke: rgb(40, 52, 66); stroke-opacity: 1; stroke-width: 1px;"/><path class="xgrid crisp" transform="translate(299.91,0)" d="M0,0v159" style="stroke: rgb(40, 52, 66); stroke-opacity: 1; stroke-width: 1px;"/><path class="xgrid crisp" transform="translate(381.29,0)" d="M0,0v159" style="stroke: rgb(40, 52, 66); stroke-opacity: 1; stroke-width: 1px;"/><path class="xgrid crisp" transform="translate(462.67,0)" d="M0,0v159" style="stroke: rgb(40, 52, 66); stroke-opacity: 1; stroke-width: 1px;"/><path class="xgrid crisp" transform="translate(544.05,0)" d="M0,0v159" style="stroke: rgb(40, 52, 66); stroke-opacity: 1; stroke-width: 1px;"/><path class="xgrid crisp" transform="translate(625.44,0)" d="M0,0v159" style="stroke: rgb(40, 52, 66); stroke-opacity: 1; stroke-width: 1px;"/><path class="xgrid crisp" transform="translate(706.82,0)" d="M0,0v159" style="stroke: rgb(40, 52, 66); stroke-opacity: 1; stroke-width: 1px;"/><path class="xgrid crisp" transform="translate(788.2,0)" d="M0,0v159" style="stroke: rgb(40, 52, 66); stroke-opacity: 1; stroke-width: 1px;"/></g><g class="y"/></g><g class="zerolinelayer"><path class="xzl zl crisp" transform="translate(55.76,0)" d="M0,0v159" style="stroke: rgb(40, 52, 66); stroke-opacity: 1; stroke-width: 2px;"/></g><g class="layer-between"><g class="shapelayer"/><g class="imagelayer"/></g><path class="xlines-below"/><path class="ylines-below"/><g class="overlines-below"/><g class="xaxislayer-below"/><g class="yaxislayer-below"/><g class="overaxes-below"/><g class="plot" transform="" clip-path="url(#clip425322xyplot)"><g class="violinlayer mlayer"><g class="trace violins" style="opacity: 1;"><path class="violin" d="M39.65,151.05L39.65,150.93Q43.24,150.86 45.04,150.8C46.84,150.74 48.63,150.67 50.43,150.57C52.23,150.47 54.03,150.35 55.83,150.2C57.63,150.05 59.42,149.87 61.22,149.67C63.02,149.47 64.81,149.23 66.61,148.99C68.41,148.75 70.2,148.48 72,148.22C73.8,147.96 75.6,147.69 77.4,147.44C79.2,147.19 80.99,146.95 82.79,146.73C84.59,146.52 86.38,146.32 88.18,146.15C89.98,145.98 91.77,145.83 93.57,145.7C95.37,145.57 97.17,145.46 98.97,145.36C100.77,145.26 102.56,145.18 104.36,145.11C106.16,145.04 107.95,144.97 109.75,144.92C111.55,144.87 113.34,144.85 115.14,144.83C116.94,144.81 118.74,144.81 120.54,144.82C122.34,144.83 124.13,144.86 125.93,144.89C127.73,144.92 129.52,144.95 131.32,144.98C133.12,145 134.91,145.03 136.71,145.04C138.51,145.05 140.3,145.04 142.1,145.03C143.9,145.02 145.7,144.99 147.5,144.96C149.3,144.93 151.09,144.89 152.89,144.86C154.69,144.83 156.48,144.8 158.28,144.77C160.08,144.74 161.87,144.72 163.67,144.7C165.47,144.68 167.27,144.67 169.07,144.66C170.87,144.65 172.66,144.66 174.46,144.65C176.26,144.64 178.05,144.63 179.85,144.62C181.65,144.6 183.44,144.59 185.24,144.56C187.04,144.53 188.84,144.48 190.64,144.42C192.44,144.36 194.23,144.28 196.03,144.19C197.83,144.1 199.62,143.98 201.42,143.86C203.22,143.74 205.01,143.61 206.81,143.48C208.61,143.36 210.4,143.23 212.2,143.11C214,142.99 215.8,142.88 217.6,142.77C219.4,142.66 221.19,142.57 222.99,142.46C224.79,142.35 226.58,142.25 228.38,142.09C230.18,141.93 231.98,141.77 233.77,141.5C235.57,141.23 237.38,140.91 239.17,140.45C240.98,139.98 242.79,139.42 244.56,138.72C246.38,138 248.18,137.13 249.95,136.16C251.78,135.16 253.56,133.99 255.34,132.79C257.16,131.56 258.95,130.19 260.74,128.85C262.54,127.51 264.32,126.08 266.13,124.75C267.92,123.44 269.7,122.1 271.52,120.94C273.29,119.81 275.08,118.73 276.91,117.85C278.68,117 280.49,116.26 282.31,115.74C284.08,115.24 285.9,114.91 287.7,114.76C289.49,114.61 291.3,114.67 293.09,114.84C294.89,115.01 296.69,115.39 298.48,115.78C300.29,116.18 302.07,116.73 303.87,117.21C305.67,117.7 307.46,118.26 309.27,118.69C311.06,119.12 312.86,119.53 314.66,119.81C316.45,120.08 318.25,120.28 320.05,120.34C321.84,120.4 323.65,120.35 325.44,120.17C327.25,119.99 329.05,119.7 330.84,119.28C332.65,118.86 334.46,118.31 336.23,117.64C338.05,116.95 339.85,116.11 341.62,115.18C343.44,114.22 345.24,113.1 347.01,111.93C348.83,110.73 350.62,109.37 352.41,108.05C354.22,106.72 355.99,105.28 357.8,103.98C359.58,102.7 361.36,101.39 363.19,100.31C364.95,99.27 366.75,98.29 368.58,97.59C370.34,96.92 372.17,96.41 373.98,96.15C375.76,95.89 377.58,95.88 379.37,96.01C381.17,96.14 382.98,96.5 384.76,96.94C386.57,97.39 388.37,97.99 390.15,98.69C391.97,99.4 393.77,100.24 395.54,101.18C397.37,102.15 399.17,103.25 400.94,104.46C402.77,105.72 404.56,107.14 406.33,108.62C408.16,110.14 409.93,111.83 411.72,113.48C413.53,115.15 415.3,116.94 417.11,118.59C418.89,120.22 420.67,121.88 422.51,123.32C424.27,124.7 426.06,126.01 427.9,127.1C429.66,128.14 431.47,129.01 433.29,129.74C435.06,130.44 436.87,130.94 438.68,131.42C440.47,131.9 442.28,132.23 444.08,132.63C445.88,133.03 447.68,133.38 449.47,133.82C451.27,134.26 453.07,134.75 454.86,135.26C456.66,135.77 458.45,136.35 460.25,136.9C462.05,137.45 463.84,138.04 465.64,138.56C467.43,139.08 469.24,139.58 471.04,140.02C472.83,140.46 474.63,140.84 476.43,141.21C478.22,141.57 480.02,141.88 481.82,142.21C483.62,142.54 485.41,142.84 487.21,143.18C489.01,143.52 490.81,143.86 492.61,144.23C494.41,144.6 496.2,145 498,145.4C499.8,145.8 501.59,146.23 503.39,146.63C505.19,147.03 506.98,147.45 508.78,147.82C510.58,148.19 512.38,148.55 514.18,148.86C515.97,149.17 517.77,149.44 519.57,149.67C521.36,149.9 523.16,150.1 524.96,150.26C526.76,150.42 528.55,150.53 530.35,150.63Q532.15,150.73 535.75,150.85L535.75,151.05" style="vector-effect: none; stroke-width: 2px; stroke: rgb(164, 160, 40); stroke-opacity: 1; fill: rgb(205, 200, 50); fill-opacity: 0.5;"/><path class="meanline" d="M335.49,117.91221618652344V151.05" style="fill: none; vector-effect: none; stroke-width: 2px; stroke-dasharray: 4px, 2px; stroke: rgb(164, 160, 40); stroke-opacity: 1;"/></g><g class="trace violins" style="opacity: 1;"><path class="violin" d="M250.62,129.03L250.62,128.95Q252.02,128.9 252.72,128.87C253.42,128.84 254.12,128.79 254.82,128.75C255.52,128.7 256.22,128.65 256.92,128.6C257.62,128.54 258.32,128.48 259.02,128.42C259.72,128.36 260.42,128.29 261.12,128.24C261.82,128.19 262.52,128.14 263.22,128.1C263.92,128.06 264.62,128.03 265.32,128.01C266.02,127.99 266.72,127.99 267.42,127.99C268.12,127.99 268.82,128 269.52,128.02C270.22,128.04 270.92,128.07 271.62,128.09C272.32,128.12 273.02,128.15 273.72,128.17C274.42,128.19 275.12,128.21 275.82,128.22C276.52,128.23 277.22,128.24 277.92,128.23C278.62,128.22 279.32,128.19 280.02,128.16C280.72,128.13 281.42,128.08 282.12,128.03C282.82,127.98 283.52,127.91 284.22,127.84C284.92,127.77 285.62,127.69 286.32,127.62C287.02,127.55 287.72,127.48 288.42,127.41C289.12,127.34 289.82,127.28 290.52,127.21C291.22,127.14 291.92,127.08 292.62,127.01C293.32,126.94 294.03,126.87 294.73,126.78C295.43,126.69 296.13,126.59 296.83,126.47C297.53,126.35 298.23,126.21 298.93,126.06C299.63,125.91 300.33,125.73 301.03,125.56C301.73,125.39 302.43,125.2 303.13,125.03C303.83,124.86 304.53,124.69 305.23,124.55C305.93,124.42 306.63,124.3 307.33,124.22C308.03,124.14 308.73,124.1 309.43,124.08C310.13,124.06 310.83,124.09 311.53,124.12C312.23,124.15 312.93,124.2 313.63,124.24C314.33,124.28 315.03,124.33 315.73,124.34C316.43,124.35 317.13,124.34 317.83,124.3C318.53,124.26 319.23,124.19 319.93,124.09C320.63,123.99 321.33,123.85 322.03,123.69C322.73,123.53 323.43,123.35 324.13,123.15C324.83,122.95 325.53,122.73 326.23,122.49C326.93,122.24 327.64,121.98 328.33,121.68C329.04,121.38 329.74,121.05 330.43,120.68C331.14,120.3 331.84,119.87 332.53,119.4C333.24,118.91 333.94,118.36 334.63,117.77C335.35,117.15 336.04,116.48 336.73,115.77C337.45,115.03 338.14,114.23 338.83,113.42C339.54,112.58 340.24,111.69 340.93,110.8C341.64,109.9 342.33,108.96 343.03,108.05C343.73,107.14 344.42,106.22 345.13,105.35C345.82,104.5 346.52,103.65 347.23,102.86C347.92,102.1 348.62,101.37 349.33,100.68C350.02,100.01 350.72,99.39 351.43,98.78C352.12,98.18 352.83,97.62 353.53,97.06C354.23,96.5 354.93,95.96 355.63,95.43C356.33,94.9 357.02,94.38 357.73,93.89C358.42,93.41 359.12,92.93 359.83,92.51C360.52,92.1 361.22,91.72 361.93,91.4C362.62,91.09 363.32,90.84 364.03,90.62C364.72,90.4 365.43,90.26 366.13,90.08C366.83,89.9 367.54,89.78 368.23,89.56C368.94,89.33 369.65,89.09 370.33,88.73C371.05,88.35 371.76,87.86 372.43,87.29C373.16,86.67 373.85,85.9 374.53,85.1C375.26,84.25 375.94,83.26 376.63,82.32C377.34,81.36 378.01,80.31 378.73,79.38C379.42,78.49 380.09,77.57 380.83,76.82C381.5,76.14 382.19,75.5 382.93,75.05C383.6,74.64 384.32,74.35 385.03,74.18C385.72,74.01 386.43,74.01 387.13,74C387.83,73.99 388.53,74.08 389.23,74.12C389.93,74.16 390.63,74.22 391.33,74.23C392.03,74.24 392.73,74.22 393.43,74.21C394.13,74.2 394.83,74.16 395.53,74.18C396.23,74.2 396.94,74.23 397.63,74.36C398.34,74.49 399.05,74.69 399.73,74.98C400.45,75.28 401.15,75.68 401.83,76.15C402.55,76.65 403.25,77.26 403.93,77.92C404.65,78.62 405.35,79.41 406.03,80.25C406.75,81.14 407.45,82.12 408.13,83.14C408.85,84.22 409.55,85.38 410.23,86.58C410.95,87.86 411.65,89.21 412.33,90.6C413.05,92.06 413.74,93.59 414.43,95.15C415.14,96.76 415.84,98.44 416.53,100.12C417.24,101.83 417.93,103.59 418.63,105.32C419.33,107.04 420.02,108.79 420.73,110.47C421.42,112.1 422.11,113.72 422.83,115.25C423.51,116.69 424.2,118.11 424.93,119.4C425.6,120.58 426.29,121.71 427.03,122.71C427.7,123.61 428.39,124.45 429.13,125.16C429.8,125.8 430.51,126.36 431.23,126.82C431.91,127.25 432.62,127.59 433.33,127.86C434.02,128.12 434.73,128.3 435.43,128.45C436.13,128.6 436.83,128.69 437.53,128.77C438.23,128.85 438.93,128.88 439.63,128.92C440.33,128.95 441.03,128.97 441.73,128.98C442.43,128.99 443.13,128.99 443.83,128.99C444.53,128.99 445.23,128.98 445.93,128.97C446.63,128.96 447.33,128.94 448.03,128.91C448.73,128.88 449.43,128.85 450.13,128.8C450.83,128.75 451.53,128.7 452.23,128.63C452.93,128.56 453.63,128.48 454.33,128.38C455.03,128.28 455.73,128.16 456.43,128.03C457.13,127.9 457.83,127.75 458.53,127.59C459.23,127.43 459.93,127.26 460.63,127.08C461.33,126.9 462.03,126.7 462.73,126.52C463.43,126.34 464.13,126.15 464.83,125.99C465.53,125.83 466.23,125.67 466.93,125.54C467.63,125.41 468.33,125.29 469.03,125.2C469.73,125.11 470.43,125.06 471.13,125C471.83,124.94 472.53,124.91 473.23,124.86C473.93,124.81 474.63,124.77 475.33,124.69C476.03,124.6 476.74,124.51 477.43,124.35C478.14,124.19 478.84,123.98 479.53,123.71C480.24,123.44 480.94,123.09 481.63,122.72C482.34,122.34 483.04,121.88 483.73,121.43C484.44,120.97 485.13,120.45 485.83,119.97C486.53,119.49 487.22,118.99 487.93,118.54C488.62,118.1 489.32,117.66 490.03,117.29C490.72,116.93 491.43,116.59 492.14,116.34C492.83,116.1 493.53,115.9 494.24,115.8C494.93,115.7 495.64,115.68 496.34,115.75C497.04,115.82 497.75,115.99 498.44,116.23C499.15,116.47 499.85,116.83 500.54,117.21C501.25,117.6 501.94,118.09 502.64,118.55C503.34,119.02 504.03,119.54 504.74,119.99C505.43,120.44 506.13,120.9 506.84,121.25C507.53,121.59 508.23,121.89 508.94,122.09C509.63,122.28 510.34,122.39 511.04,122.43C511.74,122.47 512.44,122.41 513.14,122.35C513.84,122.29 514.54,122.15 515.24,122.07C515.94,121.99 516.64,121.88 517.34,121.87C518.04,121.86 518.75,121.89 519.44,122C520.15,122.11 520.85,122.31 521.54,122.55C522.25,122.8 522.95,123.15 523.64,123.5C524.35,123.86 525.04,124.28 525.74,124.67C526.44,125.06 527.14,125.48 527.84,125.86C528.54,126.23 529.23,126.6 529.94,126.91C530.63,127.22 531.33,127.5 532.04,127.73C532.73,127.96 533.44,128.14 534.14,128.29C534.84,128.44 535.54,128.55 536.24,128.64C536.94,128.73 537.64,128.79 538.34,128.84Q539.04,128.89 540.44,128.95L540.44,129.03" style="vector-effect: none; stroke-width: 2px; stroke: rgb(58, 146, 136); stroke-opacity: 1; fill: rgb(73, 182, 170); fill-opacity: 0.5;"/><path class="meanline" d="M392.73,74.22167205810547V129.03" style="fill: none; vector-effect: none; stroke-width: 2px; stroke-dasharray: 4px, 2px; stroke: rgb(58, 146, 136); stroke-opacity: 1;"/></g><g class="trace violins" style="opacity: 1;"><path class="violin" d="M365.11,107.02L365.11,106.64Q368.22,106.41 369.77,106.22C371.33,106.03 372.89,105.8 374.44,105.48C376,105.15 377.57,104.76 379.11,104.26C380.68,103.75 382.24,103.14 383.77,102.42C385.35,101.67 386.91,100.8 388.44,99.82C390.03,98.8 391.59,97.63 393.11,96.37C394.7,95.05 396.25,93.6 397.77,92.06C399.36,90.45 400.91,88.71 402.44,86.91C404.03,85.04 405.58,83.05 407.11,81.03C408.69,78.95 410.22,76.77 411.77,74.6C413.33,72.41 414.87,70.14 416.44,67.97C417.98,65.84 419.5,63.66 421.1,61.7C422.61,59.85 424.13,57.98 425.77,56.51C427.26,55.17 428.81,53.89 430.44,53.13C431.93,52.44 433.54,52.01 435.1,51.98C436.65,51.95 438.25,52.41 439.77,52.95C441.37,53.52 442.9,54.5 444.44,55.39C446.01,56.3 447.54,57.42 449.1,58.38C450.65,59.34 452.2,60.3 453.77,61.15C455.31,61.99 456.88,62.72 458.44,63.46C459.99,64.19 461.56,64.81 463.1,65.57C464.67,66.34 466.24,67.11 467.77,68.04C469.35,69 470.9,70.08 472.43,71.25C474.02,72.46 475.55,73.85 477.1,75.2C478.67,76.57 480.2,78.08 481.77,79.43C483.31,80.75 484.83,82.11 486.43,83.23C487.95,84.29 489.5,85.29 491.1,86C492.62,86.67 494.2,87.17 495.77,87.43C497.31,87.68 498.88,87.68 500.43,87.57C501.99,87.46 503.55,87.12 505.1,86.76C506.67,86.4 508.22,85.89 509.77,85.41C511.33,84.93 512.88,84.38 514.43,83.86C515.99,83.34 517.54,82.81 519.1,82.31C520.65,81.81 522.2,81.32 523.76,80.87C525.31,80.43 526.87,80 528.43,79.64C529.98,79.28 531.54,78.96 533.1,78.72C534.65,78.48 536.2,78.32 537.76,78.2C539.31,78.08 540.87,78.05 542.43,77.99C543.99,77.94 545.55,77.95 547.1,77.87C548.66,77.79 550.21,77.71 551.76,77.52C553.32,77.32 554.88,77.05 556.43,76.7C557.99,76.34 559.54,75.87 561.09,75.39C562.65,74.91 564.2,74.32 565.76,73.83C567.31,73.34 568.86,72.81 570.43,72.46C571.97,72.12 573.53,71.8 575.09,71.75C576.64,71.7 578.23,71.8 579.76,72.13C581.34,72.47 582.91,73.07 584.43,73.82C586.03,74.61 587.57,75.67 589.09,76.8C590.69,77.99 592.23,79.41 593.76,80.82C595.34,82.28 596.88,83.88 598.43,85.43C599.99,86.98 601.52,88.6 603.09,90.12C604.63,91.61 606.18,93.1 607.76,94.45C609.29,95.75 610.83,96.99 612.42,98.09C613.95,99.15 615.51,100.11 617.09,100.95C618.62,101.76 620.19,102.47 621.76,103.07C623.3,103.66 624.86,104.14 626.42,104.55C627.97,104.96 629.53,105.28 631.09,105.55C632.64,105.82 634.2,106.02 635.76,106.19C637.31,106.36 638.86,106.48 640.42,106.58C641.97,106.68 643.53,106.75 645.09,106.81Q646.65,106.87 649.76,106.92L649.76,107.02" style="vector-effect: none; stroke-width: 2px; stroke: rgb(109, 78, 126); stroke-opacity: 1; fill: rgb(137, 97, 158); fill-opacity: 0.5;"/><path class="meanline" d="M493.74,86.96561431884766V107.02" style="fill: none; vector-effect: none; stroke-width: 2px; stroke-dasharray: 4px, 2px; stroke: rgb(109, 78, 126); stroke-opacity: 1;"/></g><g class="trace violins" style="opacity: 1;"><path class="violin" d="M366.06,85L366.06,84.86Q368.65,84.78 369.94,84.71C371.23,84.64 372.53,84.56 373.82,84.46C375.11,84.35 376.41,84.23 377.7,84.08C378.99,83.93 380.29,83.76 381.58,83.57C382.87,83.38 384.17,83.15 385.46,82.94C386.75,82.72 388.05,82.49 389.34,82.28C390.63,82.07 391.92,81.86 393.22,81.69C394.51,81.52 395.81,81.37 397.1,81.27C398.39,81.18 399.69,81.12 400.98,81.12C402.27,81.12 403.57,81.18 404.86,81.26C406.15,81.35 407.45,81.49 408.74,81.63C410.03,81.78 411.33,81.96 412.62,82.13C413.91,82.3 415.21,82.48 416.5,82.64C417.79,82.8 419.09,82.95 420.38,83.07C421.67,83.18 422.97,83.28 424.26,83.33C425.55,83.38 426.85,83.42 428.14,83.4C429.43,83.38 430.73,83.32 432.02,83.22C433.32,83.11 434.61,82.97 435.9,82.77C437.2,82.57 438.49,82.32 439.78,82.02C441.08,81.72 442.37,81.36 443.66,80.99C444.96,80.61 446.25,80.18 447.54,79.77C448.83,79.36 450.12,78.92 451.42,78.55C452.71,78.18 454,77.83 455.3,77.56C456.59,77.3 457.88,77.08 459.18,76.96C460.47,76.84 461.76,76.82 463.05,76.85C464.34,76.88 465.64,77.01 466.93,77.15C468.23,77.29 469.52,77.5 470.81,77.69C472.1,77.88 473.4,78.11 474.69,78.29C475.98,78.47 477.27,78.65 478.57,78.78C479.86,78.91 481.16,79.01 482.45,79.06C483.74,79.11 485.04,79.12 486.33,79.08C487.62,79.04 488.92,78.94 490.21,78.79C491.51,78.64 492.8,78.44 494.09,78.18C495.39,77.92 496.68,77.6 497.97,77.22C499.27,76.84 500.57,76.4 501.85,75.9C503.15,75.4 504.45,74.82 505.73,74.21C507.03,73.59 508.32,72.9 509.61,72.21C510.91,71.51 512.19,70.74 513.49,70.02C514.78,69.3 516.06,68.54 517.37,67.89C518.65,67.25 519.94,66.61 521.25,66.15C522.52,65.7 523.83,65.32 525.13,65.15C526.41,64.98 527.73,64.97 529.01,65.13C530.31,65.29 531.62,65.67 532.89,66.13C534.21,66.6 535.49,67.27 536.77,67.94C538.08,68.62 539.36,69.44 540.65,70.19C541.94,70.94 543.22,71.75 544.53,72.45C545.81,73.13 547.1,73.81 548.41,74.34C549.69,74.86 550.98,75.31 552.29,75.63C553.57,75.94 554.87,76.15 556.17,76.25C557.46,76.35 558.76,76.34 560.05,76.24C561.35,76.14 562.65,75.94 563.93,75.64C565.24,75.33 566.54,74.94 567.81,74.41C569.13,73.86 570.43,73.19 571.69,72.38C573.02,71.52 574.32,70.49 575.57,69.36C576.91,68.16 578.18,66.77 579.44,65.34C580.77,63.84 582.04,62.17 583.32,60.55C584.62,58.9 585.89,57.15 587.2,55.53C588.48,53.95 589.74,52.33 591.08,50.92C592.34,49.59 593.62,48.32 594.96,47.27C596.21,46.3 597.51,45.46 598.84,44.8C600.1,44.18 601.41,43.75 602.72,43.39C604,43.03 605.3,42.85 606.6,42.62C607.89,42.4 609.19,42.26 610.48,42.04C611.78,41.82 613.07,41.59 614.36,41.31C615.66,41.03 616.95,40.69 618.24,40.34C619.54,39.99 620.83,39.6 622.12,39.23C623.41,38.86 624.7,38.49 626,38.14C627.29,37.79 628.59,37.46 629.88,37.14C631.17,36.82 632.47,36.53 633.76,36.2C635.06,35.87 636.35,35.54 637.64,35.17C638.94,34.79 640.23,34.39 641.52,33.95C642.82,33.51 644.11,33 645.4,32.54C646.69,32.08 647.98,31.57 649.28,31.18C650.56,30.79 651.86,30.39 653.16,30.19C654.44,29.99 655.75,29.87 657.04,29.97C658.34,30.07 659.66,30.34 660.92,30.79C662.24,31.26 663.54,31.96 664.8,32.76C666.14,33.61 667.42,34.68 668.68,35.79C670.01,36.96 671.29,38.3 672.56,39.65C673.87,41.04 675.15,42.54 676.44,44.01C677.74,45.5 679.02,47.04 680.32,48.54C681.61,50.03 682.89,51.53 684.2,52.97C685.48,54.38 686.77,55.78 688.08,57.11C689.36,58.41 690.65,59.67 691.96,60.88C693.24,62.06 694.53,63.18 695.84,64.27C697.12,65.33 698.41,66.35 699.71,67.34C700.99,68.32 702.29,69.24 703.59,70.17C704.88,71.09 706.17,71.99 707.47,72.87C708.76,73.74 710.05,74.61 711.35,75.44C712.64,76.26 713.93,77.08 715.23,77.84C716.51,78.59 717.8,79.31 719.11,79.96C720.39,80.59 721.68,81.18 722.99,81.69C724.27,82.19 725.57,82.62 726.87,82.99C728.15,83.35 729.45,83.64 730.75,83.88C732.04,84.12 733.33,84.28 734.63,84.42C735.92,84.56 737.22,84.65 738.51,84.73Q739.8,84.81 742.39,84.89L742.39,85" style="vector-effect: none; stroke-width: 2px; stroke: rgb(7, 74, 197); stroke-opacity: 1; fill: rgb(9, 92, 246); fill-opacity: 0.5;"/><path class="meanline" d="M610.82,41.98185729980469V85" style="fill: none; vector-effect: none; stroke-width: 2px; stroke-dasharray: 4px, 2px; stroke: rgb(7, 74, 197); stroke-opacity: 1;"/></g><g class="trace violins" style="opacity: 1;"><path class="violin" d="M367.31,62.99L367.31,62.94Q370.2,62.92 371.65,62.9C373.1,62.88 374.54,62.86 375.99,62.84C377.43,62.82 378.88,62.79 380.32,62.77C381.77,62.74 383.21,62.72 384.66,62.69C386.11,62.67 387.55,62.64 389,62.62C390.45,62.6 391.89,62.59 393.34,62.59C394.78,62.59 396.23,62.58 397.67,62.59C399.12,62.6 400.56,62.62 402.01,62.64C403.46,62.66 404.9,62.69 406.35,62.71C407.8,62.74 409.24,62.76 410.69,62.79C412.13,62.81 413.58,62.84 415.02,62.86C416.47,62.88 417.91,62.9 419.36,62.92C420.81,62.93 422.25,62.94 423.7,62.95C425.15,62.96 426.59,62.96 428.04,62.97C429.48,62.97 430.93,62.98 432.37,62.98C433.82,62.98 435.26,62.99 436.71,62.99C438.16,62.99 439.6,62.99 441.05,62.99C442.5,62.99 443.94,62.99 445.39,62.99C446.83,62.99 448.28,62.99 449.72,62.99C451.17,62.99 452.61,62.99 454.06,62.99C455.51,62.99 456.95,62.99 458.4,62.99C459.85,62.99 461.29,62.99 462.74,62.99C464.18,62.99 465.63,62.99 467.07,62.99C468.52,62.99 469.96,62.98 471.41,62.98C472.86,62.98 474.3,62.97 475.75,62.97C477.2,62.96 478.64,62.97 480.09,62.95C481.53,62.93 482.98,62.91 484.42,62.88C485.87,62.84 487.31,62.81 488.76,62.74C490.21,62.67 491.65,62.58 493.1,62.45C494.55,62.32 496,62.17 497.44,61.95C498.89,61.73 500.33,61.46 501.77,61.14C503.22,60.81 504.67,60.43 506.11,60C507.56,59.56 509.01,59.05 510.45,58.53C511.9,58 513.34,57.42 514.79,56.86C516.23,56.3 517.67,55.71 519.12,55.17C520.56,54.63 522.01,54.1 523.46,53.64C524.9,53.19 526.35,52.77 527.8,52.43C529.24,52.09 530.69,51.81 532.14,51.59C533.58,51.37 535.02,51.22 536.47,51.09C537.91,50.96 539.36,50.89 540.81,50.8C542.26,50.71 543.7,50.65 545.15,50.53C546.6,50.41 548.05,50.3 549.49,50.06C550.94,49.82 552.39,49.53 553.82,49.1C555.28,48.66 556.74,48.11 558.16,47.44C559.63,46.75 561.08,45.9 562.5,44.99C563.97,44.05 565.41,42.96 566.84,41.88C568.3,40.78 569.72,39.56 571.17,38.43C572.61,37.3 574.04,36.14 575.51,35.1C576.94,34.09 578.38,33.1 579.85,32.27C581.27,31.46 582.72,30.74 584.19,30.16C585.61,29.6 587.06,29.15 588.52,28.82C589.95,28.5 591.41,28.3 592.86,28.21C594.3,28.12 595.76,28.14 597.2,28.29C598.65,28.44 600.11,28.72 601.54,29.12C603,29.53 604.45,30.08 605.87,30.72C607.34,31.38 608.78,32.21 610.21,33.06C611.68,33.93 613.11,34.94 614.55,35.89C616,36.85 617.42,37.9 618.89,38.79C620.31,39.65 621.74,40.56 623.22,41.14C624.63,41.69 626.11,42.19 627.56,42.25C629,42.31 630.51,42.06 631.9,41.49C633.42,40.87 634.87,39.73 636.24,38.48C637.79,37.06 639.18,35.17 640.57,33.27C642.08,31.21 643.48,28.8 644.91,26.51C646.37,24.17 647.76,21.64 649.25,19.38C650.66,17.23 652.05,15 653.59,13.24C654.96,11.69 656.37,10.15 657.92,9.26C659.28,8.48 660.81,7.97 662.26,7.95C663.7,7.93 665.21,8.49 666.6,9.13C668.11,9.82 669.53,10.98 670.94,12.09C672.43,13.26 673.84,14.66 675.27,16.01C676.73,17.38 678.16,18.84 679.61,20.25C681.06,21.66 682.5,23.08 683.95,24.48C685.39,25.87 686.84,27.25 688.29,28.61C689.73,29.97 691.17,31.31 692.62,32.64C694.06,33.96 695.51,35.27 696.96,36.55C698.4,37.82 699.84,39.07 701.3,40.28C702.74,41.47 704.18,42.64 705.64,43.76C707.07,44.87 708.51,45.95 709.97,46.98C711.41,48 712.85,48.98 714.31,49.93C715.75,50.87 717.19,51.77 718.65,52.64C720.09,53.5 721.53,54.32 722.99,55.1C724.42,55.87 725.86,56.6 727.32,57.27C728.75,57.93 730.2,58.55 731.66,59.09C733.1,59.62 734.54,60.1 736,60.51C737.44,60.91 738.89,61.25 740.34,61.53C741.78,61.81 743.22,62.01 744.67,62.19C746.11,62.37 747.56,62.49 749.01,62.59Q750.46,62.69 753.35,62.81L753.35,62.99" style="vector-effect: none; stroke-width: 2px; stroke: rgb(162, 42, 112); stroke-opacity: 1; fill: rgb(203, 52, 140); fill-opacity: 0.5;"/><path class="meanline" d="M631.54,41.62953186035156V62.99" style="fill: none; vector-effect: none; stroke-width: 2px; stroke-dasharray: 4px, 2px; stroke: rgb(162, 42, 112); stroke-opacity: 1;"/></g></g></g><g class="overplot"/><path class="xlines-above crisp" d="M0,0" style="fill: none;"/><path class="ylines-above crisp" d="M0,0" style="fill: none;"/><g class="overlines-above"/><g class="xaxislayer-above"><g class="xtick"><text text-anchor="middle" x="0" y="172" transform="translate(55.76,0)" style="font-family: 'Open Sans', verdana, arial, sans-serif; font-size: 12px; fill: rgb(242, 245, 250); fill-opacity: 1; white-space: pre; opacity: 1;">0</text></g><g class="xtick"><text text-anchor="middle" x="0" y="172" style="font-family: 'Open Sans', verdana, arial, sans-serif; font-size: 12px; fill: rgb(242, 245, 250); fill-opacity: 1; white-space: pre; opacity: 1;" transform="translate(137.14,0)">20</text></g><g class="xtick"><text text-anchor="middle" x="0" y="172" style="font-family: 'Open Sans', verdana, arial, sans-serif; font-size: 12px; fill: rgb(242, 245, 250); fill-opacity: 1; white-space: pre; opacity: 1;" transform="translate(218.52,0)">40</text></g><g class="xtick"><text text-anchor="middle" x="0" y="172" style="font-family: 'Open Sans', verdana, arial, sans-serif; font-size: 12px; fill: rgb(242, 245, 250); fill-opacity: 1; white-space: pre; opacity: 1;" transform="translate(299.91,0)">60</text></g><g class="xtick"><text text-anchor="middle" x="0" y="172" style="font-family: 'Open Sans', verdana, arial, sans-serif; font-size: 12px; fill: rgb(242, 245, 250); fill-opacity: 1; white-space: pre; opacity: 1;" transform="translate(381.29,0)">80</text></g><g class="xtick"><text text-anchor="middle" x="0" y="172" style="font-family: 'Open Sans', verdana, arial, sans-serif; font-size: 12px; fill: rgb(242, 245, 250); fill-opacity: 1; white-space: pre; opacity: 1;" transform="translate(462.67,0)">100</text></g><g class="xtick"><text text-anchor="middle" x="0" y="172" style="font-family: 'Open Sans', verdana, arial, sans-serif; font-size: 12px; fill: rgb(242, 245, 250); fill-opacity: 1; white-space: pre; opacity: 1;" transform="translate(544.05,0)">120</text></g><g class="xtick"><text text-anchor="middle" x="0" y="172" style="font-family: 'Open Sans', verdana, arial, sans-serif; font-size: 12px; fill: rgb(242, 245, 250); fill-opacity: 1; white-space: pre; opacity: 1;" transform="translate(625.44,0)">140</text></g><g class="xtick"><text text-anchor="middle" x="0" y="172" style="font-family: 'Open Sans', verdana, arial, sans-serif; font-size: 12px; fill: rgb(242, 245, 250); fill-opacity: 1; white-space: pre; opacity: 1;" transform="translate(706.82,0)">160</text></g><g class="xtick"><text text-anchor="middle" x="0" y="172" style="font-family: 'Open Sans', verdana, arial, sans-serif; font-size: 12px; fill: rgb(242, 245, 250); fill-opacity: 1; white-space: pre; opacity: 1;" transform="translate(788.2,0)">180</text></g></g><g class="yaxislayer-above"/><g class="overaxes-above"/></g></g><g class="polarlayer"/><g class="smithlayer"/><g class="ternarylayer"/><g class="geolayer"/><g class="funnelarealayer"/><g class="pielayer"/><g class="iciclelayer"/><g class="treemaplayer"/><g class="sunburstlayer"/><g class="glimages"/><defs id="topdefs-425322"><g class="clips"/></defs><g class="layer-above"><g class="imagelayer"/><g class="shapelayer"/></g><g class="infolayer"><g class="g-gtitle"/><g class="g-xtitle" transform="translate(0,-2.3000000000000114)"><text class="xtitle" x="396.5" y="199.3" text-anchor="middle" style="font-family: 'Open Sans', verdana, arial, sans-serif; font-size: 14px; fill: rgb(242, 245, 250); opacity: 1; white-space: pre;">Max Energy</text></g><g class="g-ytitle"/></g></svg>