<svg class="main-svg" xmlns="http://www.w3.org/2000/svg" xmlns:xlink="http://www.w3.org/1999/xlink" width="800" height="200" style="" viewBox="0 0 800 200"><rect x="0" y="0" width="800" height="200" style="fill: rgb(0, 0, 0); fill-opacity: 0;"/><defs id="defs-b48b32"><g class="clips"><clipPath id="clipb48b32xyplot" class="plotclip"><rect width="800" height="159"/></clipPath><clipPath class="axesclip" id="clipb48b32x"><rect x="0" y="0" width="800" height="200"/></clipPath><clipPath class="axesclip" id="clipb48b32y"><rect x="0" y="0" width="800" height="159"/></clipPath><clipPath class="axesclip" id="clipb48b32xy"><rect x="0" y="0" width="800" height="159"/></clipPath></g><g class="gradients"/><g class="patterns"/></defs><g class="bglayer"><rect class="bg" x="0" y="0" width="800" height="159" style="fill: rgb(0, 0, 0); fill-opacity: 0; stroke-width: 0;"/></g><g class="layer-below"><g class="imagelayer"/><g class="shapelayer"/></g><g class="cartesianlayer"><g class="subplot xy"><g class="layer-subplot"><g class="shapelayer"/><g class="imagelayer"/></g><g class="minor-gridlayer"><g class="x"/><g class="y"/></g><g class="gridlayer"><g class="x"><path class="xgrid crisp" transform="translate(204.38,0)" d="M0,0v159" style="stroke: rgb(40, 52, 66); stroke-opacity: 1; stroke-width: 1px;"/><path class="xgrid crisp" transform="translate(340.6,0)" d="M0,0v159" style="stroke: rgb(40, 52, 66); stroke-opacity: 1; stroke-width: 1px;"/><path class="xgrid crisp" transform="translate(476.83,0)" d="M0,0v159" style="stroke: rgb(40, 52, 66); stroke-opacity: 1; stroke-width: 1px;"/><path class="xgrid crisp" transform="translate(613.05,0)" d="M0,0v159" style="stroke: rgb(40, 52, 66); stroke-opacity: 1; stroke-width: 1px;"/><path class="xgrid crisp" transform="translate(749.28,0)" d="M0,0v159" style="stroke: rgb(40, 52, 66); stroke-opacity: 1; stroke-width: 1px;"/></g><g class="y"/></g><g class="zerolinelayer"><path class="xzl zl crisp" transform="translate(68.16,0)" d="M0,0v159" style="stroke: rgb(40, 52, 66); stroke-opacity: 1; stroke-width: 2px;"/></g><g class="layer-between"><g class="shapelayer"/><g class="imagelayer"/></g><path class="xlines-below"/><path class="ylines-below"/><g class="overlines-below"/><g class="xaxislayer-below"/><g class="yaxislayer-below"/><g class="overaxes-below"/><g class="plot" transform="" clip-path="url(#clipb48b32xyplot)"><g class="violinlayer mlayer"><g class="trace violins" style="opacity: 1;"><path class="violin" d="M40,151.05L40,150.87Q43.41,150.76 45.12,150.67C46.83,150.58 48.53,150.47 50.24,150.33C51.95,150.18 53.66,150.01 55.36,149.8C57.07,149.59 58.78,149.34 60.48,149.07C62.19,148.8 63.89,148.49 65.59,148.17C67.3,147.85 69,147.5 70.71,147.16C72.42,146.82 74.12,146.47 75.83,146.15C77.54,145.83 79.24,145.51 80.95,145.23C82.65,144.95 84.36,144.68 86.07,144.45C87.77,144.22 89.48,144.02 91.19,143.85C92.9,143.68 94.6,143.53 96.31,143.41C98.02,143.29 99.72,143.21 101.43,143.14C103.13,143.07 104.84,143.03 106.54,143.01C108.25,142.99 109.95,142.99 111.66,143C113.37,143.01 115.07,143.04 116.78,143.06C118.49,143.08 120.19,143.12 121.9,143.14C123.61,143.16 125.31,143.17 127.02,143.19C128.73,143.21 130.43,143.22 132.14,143.24C133.85,143.26 135.55,143.28 137.26,143.32C138.97,143.36 140.67,143.41 142.38,143.47C144.09,143.53 145.79,143.61 147.5,143.66C149.2,143.71 150.91,143.78 152.61,143.77C154.32,143.76 156.03,143.73 157.73,143.58C159.44,143.43 161.15,143.22 162.85,142.89C164.57,142.55 166.28,142.1 167.97,141.57C169.69,141.03 171.39,140.34 173.09,139.65C174.81,138.95 176.5,138.14 178.21,137.39C179.92,136.64 181.61,135.83 183.33,135.17C185.02,134.52 186.73,133.88 188.45,133.44C190.14,133.01 191.85,132.68 193.56,132.54C195.26,132.4 196.98,132.43 198.68,132.6C200.39,132.77 202.11,133.13 203.8,133.56C205.52,133.99 207.22,134.59 208.92,135.19C210.64,135.8 212.34,136.52 214.04,137.21C215.75,137.9 217.45,138.65 219.16,139.33C220.86,140 222.56,140.69 224.28,141.27C225.98,141.85 227.68,142.39 229.4,142.81C231.1,143.22 232.81,143.56 234.52,143.77C236.22,143.98 237.93,144.08 239.63,144.07C241.34,144.06 243.05,143.93 244.75,143.7C246.46,143.47 248.18,143.13 249.87,142.68C251.59,142.22 253.31,141.67 254.99,140.98C256.72,140.27 258.44,139.44 260.11,138.46C261.85,137.44 263.57,136.26 265.23,134.93C266.99,133.52 268.69,131.91 270.35,130.19C272.11,128.36 273.8,126.32 275.47,124.23C277.21,122.05 278.89,119.68 280.58,117.35C282.3,114.99 283.97,112.49 285.7,110.17C287.38,107.92 289.04,105.6 290.82,103.62C292.47,101.79 294.13,99.94 295.94,98.64C297.56,97.47 299.3,96.41 301.06,96.01C302.72,95.63 304.53,95.69 306.18,96.14C307.95,96.62 309.67,97.76 311.3,98.97C313.1,100.31 314.77,102.16 316.42,103.99C318.19,105.94 319.85,108.2 321.54,110.37C323.26,112.58 324.92,114.93 326.65,117.12C328.34,119.26 330.02,121.42 331.77,123.36C333.43,125.2 335.13,126.97 336.89,128.51C338.55,129.95 340.26,131.25 342.01,132.37C343.68,133.44 345.4,134.32 347.13,135.12C348.81,135.89 350.53,136.51 352.25,137.1C353.95,137.68 355.66,138.16 357.37,138.62C359.07,139.08 360.78,139.5 362.49,139.87C364.19,140.24 365.89,140.57 367.6,140.86C369.3,141.14 371.01,141.38 372.72,141.58C374.42,141.78 376.13,141.92 377.84,142.07C379.55,142.22 381.25,142.31 382.96,142.46C384.67,142.61 386.38,142.75 388.08,142.96C389.79,143.17 391.5,143.41 393.2,143.71C394.91,144.01 396.62,144.37 398.32,144.75C400.03,145.13 401.73,145.58 403.44,146C405.15,146.42 406.85,146.88 408.56,147.29C410.26,147.7 411.96,148.11 413.67,148.47C415.37,148.82 417.08,149.15 418.79,149.42C420.49,149.69 422.2,149.91 423.91,150.1C425.61,150.29 427.32,150.43 429.03,150.55Q430.74,150.67 434.15,150.81L434.15,151.05" style="vector-effect: none; stroke-width: 2px; stroke: rgb(164, 160, 40); stroke-opacity: 1; fill: rgb(205, 200, 50); fill-opacity: 0.5;"/><path class="meanline" d="M267.02,133.41195678710938V151.05" style="fill: none; vector-effect: none; stroke-width: 2px; stroke-dasharray: 4px, 2px; stroke: rgb(164, 160, 40); stroke-opacity: 1;"/></g><g class="trace violins" style="opacity: 1;"><path class="violin" d="M146.02,129.03L146.02,128.92Q148.87,128.86 150.3,128.82C151.72,128.78 153.15,128.72 154.57,128.66C156,128.6 157.42,128.53 158.85,128.46C160.27,128.39 161.7,128.32 163.12,128.25C164.55,128.18 165.97,128.11 167.4,128.06C168.82,128.01 170.25,127.96 171.67,127.94C173.1,127.92 174.52,127.92 175.95,127.92C177.38,127.92 178.8,127.95 180.23,127.97C181.65,127.99 183.08,128.02 184.5,128.02C185.93,128.02 187.35,128.03 188.78,127.97C190.2,127.91 191.63,127.83 193.05,127.68C194.48,127.52 195.91,127.33 197.33,127.04C198.76,126.75 200.19,126.38 201.6,125.95C203.04,125.51 204.46,124.98 205.88,124.41C207.32,123.83 208.74,123.17 210.16,122.49C211.59,121.81 213.01,121.06 214.43,120.32C215.86,119.57 217.29,118.79 218.71,118.02C220.14,117.24 221.56,116.47 222.98,115.67C224.41,114.87 225.84,114.08 227.26,113.23C228.69,112.38 230.12,111.5 231.53,110.57C232.97,109.62 234.4,108.61 235.81,107.56C237.25,106.48 238.67,105.33 240.09,104.17C241.52,102.99 242.93,101.75 244.36,100.54C245.78,99.34 247.2,98.09 248.64,96.94C250.05,95.81 251.46,94.67 252.91,93.7C254.31,92.76 255.73,91.85 257.19,91.18C258.58,90.54 260.02,89.99 261.46,89.74C262.87,89.49 264.33,89.43 265.74,89.64C267.19,89.85 268.64,90.38 270.02,91.05C271.49,91.76 272.91,92.79 274.29,93.87C275.76,95.02 277.17,96.42 278.57,97.81C280.02,99.26 281.42,100.86 282.84,102.42C284.27,104 285.69,105.66 287.12,107.24C288.54,108.8 289.94,110.38 291.39,111.85C292.79,113.27 294.2,114.69 295.67,115.91C297.06,117.07 298.47,118.2 299.95,119.04C301.33,119.83 302.76,120.55 304.22,120.87C305.62,121.18 307.1,121.26 308.5,120.99C309.96,120.7 311.41,119.99 312.77,119.11C314.28,118.13 315.69,116.69 317.05,115.2C318.55,113.56 319.93,111.57 321.32,109.61C322.78,107.55 324.17,105.28 325.6,103.11C327.03,100.95 328.42,98.69 329.88,96.62C331.27,94.64 332.68,92.69 334.15,90.94C335.53,89.3 336.96,87.77 338.43,86.39C339.82,85.08 341.25,83.93 342.7,82.83C344.1,81.77 345.54,80.82 346.98,79.9C348.39,79 349.81,78.15 351.25,77.38C352.66,76.63 354.08,75.89 355.53,75.35C356.93,74.82 358.37,74.36 359.81,74.14C361.22,73.92 362.66,73.87 364.08,74C365.51,74.13 366.95,74.5 368.36,74.95C369.81,75.41 371.22,76.07 372.63,76.74C374.07,77.42 375.49,78.21 376.91,79C378.35,79.8 379.77,80.64 381.19,81.5C382.62,82.37 384.05,83.24 385.46,84.19C386.9,85.16 388.34,86.17 389.74,87.27C391.19,88.41 392.61,89.63 394.01,90.92C395.46,92.26 396.88,93.72 398.29,95.19C399.73,96.69 401.13,98.29 402.56,99.83C403.98,101.36 405.39,102.95 406.84,104.39C408.24,105.78 409.65,107.17 411.12,108.35C412.51,109.46 413.92,110.49 415.39,111.3C416.78,112.06 418.22,112.66 419.67,113.11C421.07,113.55 422.51,113.78 423.94,113.99C425.36,114.2 426.79,114.25 428.22,114.39C429.64,114.53 431.07,114.62 432.49,114.85C433.92,115.09 435.36,115.39 436.77,115.81C438.21,116.24 439.64,116.8 441.05,117.42C442.49,118.05 443.9,118.81 445.32,119.55C446.75,120.3 448.17,121.13 449.6,121.88C451.02,122.63 452.43,123.39 453.87,124.06C455.28,124.72 456.71,125.34 458.15,125.86C459.56,126.37 460.99,126.81 462.42,127.17C463.84,127.53 465.27,127.8 466.7,128.03C468.12,128.26 469.55,128.41 470.98,128.54Q472.4,128.67 475.25,128.81L475.25,129.03" style="vector-effect: none; stroke-width: 2px; stroke: rgb(58, 146, 136); stroke-opacity: 1; fill: rgb(73, 182, 170); fill-opacity: 0.5;"/><path class="meanline" d="M332.92,92.46511840820312V129.03" style="fill: none; vector-effect: none; stroke-width: 2px; stroke-dasharray: 4px, 2px; stroke: rgb(58, 146, 136); stroke-opacity: 1;"/></g><g class="trace violins" style="opacity: 1;"><path class="violin" d="M256.19,107.02L256.19,106.81Q258.45,106.68 259.58,106.57C260.71,106.46 261.84,106.32 262.97,106.14C264.1,105.95 265.23,105.73 266.36,105.46C267.49,105.19 268.63,104.87 269.75,104.52C270.88,104.17 272.01,103.77 273.13,103.37C274.26,102.97 275.39,102.53 276.52,102.12C277.65,101.71 278.78,101.28 279.91,100.9C281.04,100.52 282.17,100.16 283.3,99.82C284.43,99.48 285.56,99.17 286.69,98.84C287.82,98.5 288.95,98.2 290.07,97.81C291.21,97.42 292.35,97.01 293.46,96.49C294.61,95.96 295.74,95.34 296.85,94.64C298,93.91 299.13,93.06 300.24,92.17C301.39,91.25 302.5,90.21 303.62,89.2C304.76,88.18 305.87,87.07 307.01,86.06C308.13,85.06 309.25,84.06 310.4,83.17C311.51,82.32 312.64,81.51 313.79,80.82C314.9,80.16 316.04,79.6 317.18,79.11C318.29,78.63 319.43,78.25 320.56,77.88C321.68,77.51 322.82,77.22 323.95,76.89C325.08,76.56 326.22,76.26 327.34,75.88C328.48,75.5 329.62,75.11 330.73,74.61C331.87,74.1 333.01,73.53 334.11,72.84C335.27,72.11 336.4,71.26 337.5,70.3C338.67,69.28 339.79,68.1 340.89,66.87C342.05,65.57 343.16,64.1 344.28,62.68C345.42,61.24 346.51,59.68 347.67,58.3C348.77,56.98 349.85,55.59 351.05,54.56C352.12,53.63 353.25,52.72 354.44,52.3C355.52,51.92 356.72,51.79 357.83,51.98C358.99,52.18 360.14,52.84 361.22,53.54C362.4,54.3 363.5,55.42 364.6,56.47C365.76,57.58 366.86,58.87 367.99,60.05C369.12,61.22 370.22,62.47 371.38,63.53C372.48,64.54 373.59,65.55 374.77,66.29C375.86,66.97 377,67.59 378.16,67.86C379.26,68.12 380.43,68.16 381.54,67.96C382.69,67.75 383.84,67.18 384.93,66.56C386.1,65.9 387.21,64.94 388.32,64.05C389.47,63.14 390.56,62.04 391.71,61.15C392.82,60.3 393.91,59.35 395.09,58.8C396.18,58.29 397.35,57.85 398.48,57.85C399.61,57.85 400.8,58.23 401.87,58.79C403.07,59.42 404.19,60.52 405.26,61.63C406.46,62.87 407.55,64.43 408.65,65.97C409.81,67.6 410.91,69.41 412.03,71.16C413.17,72.93 414.27,74.78 415.42,76.52C416.53,78.21 417.65,79.91 418.81,81.47C419.91,82.95 421.03,84.39 422.2,85.68C423.29,86.89 424.41,88.02 425.58,89C426.68,89.92 427.81,90.76 428.97,91.44C430.07,92.08 431.21,92.63 432.36,93.01C433.47,93.37 434.61,93.62 435.75,93.7C436.87,93.78 438.02,93.71 439.14,93.5C440.28,93.29 441.41,92.88 442.52,92.43C443.67,91.96 444.79,91.31 445.91,90.7C447.05,90.08 448.16,89.34 449.3,88.75C450.42,88.18 451.54,87.56 452.69,87.2C453.8,86.86 454.94,86.59 456.07,86.6C457.2,86.61 458.36,86.85 459.46,87.24C460.62,87.65 461.74,88.35 462.85,89.04C464.01,89.77 465.11,90.69 466.24,91.53C467.37,92.37 468.48,93.3 469.63,94.08C470.74,94.84 471.86,95.59 473.01,96.16C474.11,96.71 475.25,97.16 476.4,97.48C477.51,97.79 478.66,97.94 479.79,98.05C480.92,98.16 482.05,98.13 483.18,98.13C484.31,98.13 485.43,98.04 486.56,98.03C487.69,98.02 488.82,98.01 489.95,98.07C491.08,98.13 492.21,98.24 493.34,98.42C494.47,98.6 495.61,98.85 496.73,99.13C497.87,99.41 498.99,99.76 500.12,100.11C501.25,100.46 502.37,100.85 503.5,101.23C504.63,101.61 505.76,102.01 506.89,102.38C508.02,102.75 509.15,103.12 510.28,103.46C511.41,103.8 512.54,104.12 513.67,104.41C514.79,104.7 515.92,104.97 517.05,105.21C518.18,105.45 519.31,105.65 520.44,105.83C521.57,106.01 522.7,106.16 523.83,106.29C524.96,106.42 526.09,106.52 527.22,106.61C528.35,106.69 529.48,106.75 530.61,106.8Q531.74,106.85 533.99,106.92L533.99,107.02" style="vector-effect: none; stroke-width: 2px; stroke: rgb(109, 78, 126); stroke-opacity: 1; fill: rgb(137, 97, 158); fill-opacity: 0.5;"/><path class="meanline" d="M379.91,68.08403778076172V107.02" style="fill: none; vector-effect: none; stroke-width: 2px; stroke-dasharray: 4px, 2px; stroke: rgb(109, 78, 126); stroke-opacity: 1;"/></g><g class="trace violins" style="opacity: 1;"><path class="violin" d="M358.1,85L358.1,84.48Q361.6,84.19 363.34,83.97C365.09,83.74 366.84,83.46 368.58,83.13C370.33,82.8 372.07,82.4 373.81,81.97C375.56,81.54 377.3,81.03 379.05,80.55C380.8,80.07 382.54,79.54 384.29,79.11C386.03,78.68 387.77,78.24 389.52,77.95C391.26,77.66 393.01,77.44 394.76,77.36C396.5,77.28 398.26,77.33 400,77.48C401.75,77.63 403.49,77.93 405.23,78.24C406.98,78.55 408.72,78.97 410.47,79.32C412.22,79.67 413.96,80.07 415.71,80.34C417.45,80.6 419.19,80.83 420.94,80.91C422.68,80.99 424.44,80.96 426.18,80.8C427.93,80.64 429.69,80.33 431.42,79.92C433.18,79.51 434.92,78.95 436.65,78.34C438.41,77.72 440.15,76.99 441.89,76.25C443.65,75.5 445.39,74.66 447.13,73.86C448.88,73.05 450.61,72.21 452.36,71.42C454.1,70.63 455.85,69.85 457.6,69.11C459.34,68.38 461.09,67.67 462.84,67.01C464.58,66.35 466.32,65.74 468.07,65.16C469.81,64.58 471.56,64.05 473.31,63.51C475.05,62.98 476.8,62.47 478.55,61.95C480.29,61.44 482.04,60.93 483.78,60.42C485.53,59.91 487.27,59.39 489.02,58.91C490.76,58.43 492.51,57.94 494.26,57.56C496,57.18 497.74,56.81 499.49,56.62C501.23,56.43 502.99,56.32 504.73,56.4C506.48,56.48 508.23,56.72 509.96,57.09C511.72,57.46 513.47,58.05 515.2,58.64C516.96,59.24 518.69,60.03 520.44,60.68C522.18,61.33 523.91,62.08 525.67,62.55C527.4,63.01 529.16,63.44 530.91,63.47C532.65,63.5 534.45,63.3 536.15,62.76C537.95,62.19 539.71,61.19 541.38,60.02C543.21,58.75 544.93,57.03 546.62,55.29C548.43,53.42 550.14,51.23 551.86,49.1C553.63,46.92 555.32,44.54 557.09,42.36C558.81,40.24 560.51,38.02 562.33,36.2C564.01,34.52 565.72,32.81 567.57,31.76C569.23,30.82 571.05,30.04 572.8,29.97C574.54,29.9 576.39,30.46 578.04,31.32C579.9,32.29 581.62,34.02 583.28,35.77C585.14,37.74 586.82,40.23 588.51,42.68C590.31,45.29 592.01,48.21 593.75,51C595.5,53.81 597.21,56.75 598.99,59.47C600.7,62.08 602.41,64.71 604.22,67.03C605.91,69.19 607.63,71.25 609.46,72.98C611.14,74.56 612.89,75.99 614.7,77.09C616.38,78.11 618.15,78.89 619.93,79.45C621.64,79.98 623.42,80.25 625.17,80.41C626.91,80.56 628.67,80.49 630.41,80.39C632.16,80.29 633.9,80.03 635.64,79.8C637.39,79.57 639.13,79.27 640.88,79.03C642.63,78.79 644.37,78.54 646.12,78.35C647.86,78.16 649.6,78.02 651.35,77.91C653.09,77.81 654.84,77.76 656.59,77.72C658.34,77.68 660.08,77.7 661.83,77.69C663.57,77.68 665.32,77.69 667.06,77.66C668.81,77.63 670.55,77.59 672.3,77.48C674.05,77.37 675.8,77.22 677.54,76.99C679.29,76.76 681.03,76.45 682.77,76.08C684.52,75.7 686.27,75.22 688.01,74.73C689.76,74.23 691.5,73.63 693.25,73.1C694.99,72.57 696.73,71.97 698.48,71.53C700.22,71.09 701.96,70.66 703.72,70.44C705.46,70.22 707.22,70.11 708.96,70.21C710.71,70.31 712.46,70.61 714.19,71.04C715.95,71.48 717.7,72.14 719.43,72.83C721.2,73.54 722.93,74.42 724.67,75.25C726.42,76.09 728.15,77.02 729.9,77.85C731.64,78.67 733.38,79.5 735.14,80.21C736.87,80.91 738.62,81.56 740.38,82.09C742.11,82.61 743.86,83.04 745.61,83.39Q747.35,83.74 750.85,84.19L750.85,85" style="vector-effect: none; stroke-width: 2px; stroke: rgb(162, 42, 112); stroke-opacity: 1; fill: rgb(203, 52, 140); fill-opacity: 0.5;"/><path class="meanline" d="M555.38,44.541080474853516V85" style="fill: none; vector-effect: none; stroke-width: 2px; stroke-dasharray: 4px, 2px; stroke: rgb(162, 42, 112); stroke-opacity: 1;"/></g><g class="trace violins" style="opacity: 1;"><path class="violin" d="M403.44,62.99L403.44,62.85Q406.89,62.77 408.61,62.71C410.33,62.65 412.06,62.58 413.78,62.49C415.5,62.4 417.22,62.28 418.94,62.15C420.66,62.02 422.39,61.87 424.11,61.69C425.83,61.51 427.56,61.31 429.28,61.09C431,60.87 432.73,60.62 434.45,60.35C436.17,60.08 437.89,59.77 439.61,59.45C441.33,59.13 443.06,58.78 444.78,58.43C446.5,58.08 448.22,57.69 449.95,57.35C451.67,57.01 453.39,56.66 455.12,56.38C456.84,56.11 458.56,55.84 460.28,55.7C462,55.56 463.73,55.49 465.45,55.52C467.17,55.55 468.9,55.7 470.62,55.91C472.35,56.12 474.07,56.45 475.79,56.79C477.52,57.13 479.23,57.57 480.95,57.95C482.67,58.33 484.39,58.75 486.12,59.07C487.84,59.39 489.56,59.7 491.29,59.88C493.01,60.06 494.74,60.16 496.46,60.15C498.18,60.14 499.9,60.02 501.62,59.81C503.35,59.6 505.07,59.26 506.79,58.89C508.52,58.51 510.24,58.03 511.96,57.56C513.69,57.08 515.41,56.54 517.13,56.04C518.85,55.54 520.57,55.02 522.29,54.55C524.01,54.09 525.73,53.66 527.46,53.25C529.18,52.85 530.91,52.49 532.63,52.12C534.35,51.75 536.08,51.42 537.8,51.01C539.53,50.6 541.25,50.18 542.96,49.66C544.69,49.13 546.42,48.54 548.13,47.86C549.87,47.17 551.59,46.35 553.3,45.52C555.03,44.68 556.75,43.73 558.47,42.84C560.19,41.96 561.89,41 563.63,40.21C565.34,39.43 567.06,38.68 568.8,38.13C570.5,37.59 572.24,37.17 573.97,36.93C575.68,36.69 577.42,36.64 579.14,36.67C580.86,36.7 582.58,36.9 584.3,37.08C586.02,37.26 587.75,37.55 589.47,37.77C591.19,37.99 592.92,38.23 594.64,38.41C596.36,38.59 598.09,38.73 599.81,38.87C601.53,39.01 603.25,39.11 604.97,39.26C606.69,39.41 608.42,39.56 610.14,39.75C611.87,39.95 613.59,40.19 615.31,40.43C617.03,40.68 618.76,40.98 620.48,41.22C622.2,41.46 623.92,41.73 625.64,41.88C627.36,42.03 629.09,42.14 630.81,42.1C632.53,42.06 634.27,41.92 635.98,41.62C637.72,41.31 639.45,40.87 641.15,40.27C642.9,39.65 644.62,38.86 646.31,37.95C648.07,37 649.79,35.88 651.48,34.67C653.24,33.41 654.95,31.98 656.65,30.51C658.4,28.99 660.11,27.34 661.82,25.7C663.55,24.04 665.25,22.27 666.98,20.59C668.69,18.93 670.39,17.22 672.15,15.69C673.84,14.22 675.54,12.73 677.32,11.56C678.99,10.46 680.72,9.4 682.49,8.8C684.17,8.23 685.94,7.86 687.65,7.95C689.38,8.04 691.17,8.57 692.82,9.36C694.63,10.23 696.34,11.63 697.99,13.11C699.8,14.74 701.49,16.8 703.16,18.86C704.94,21.06 706.62,23.54 708.32,25.96C710.06,28.44 711.75,31.06 713.49,33.56C715.2,36.02 716.9,38.52 718.66,40.83C720.35,43.05 722.05,45.22 723.83,47.18C725.5,49.03 727.21,50.78 728.99,52.32C730.66,53.77 732.39,55.07 734.16,56.19C735.84,57.25 737.58,58.15 739.33,58.91C741.03,59.64 742.76,60.22 744.5,60.7C746.21,61.17 747.93,61.5 749.66,61.79C751.38,62.07 753.1,62.25 754.83,62.41Q756.55,62.57 760,62.73L760,62.99" style="vector-effect: none; stroke-width: 2px; stroke: rgb(7, 74, 197); stroke-opacity: 1; fill: rgb(9, 92, 246); fill-opacity: 0.5;"/><path class="meanline" d="M631.78,42.066524505615234V62.99" style="fill: none; vector-effect: none; stroke-width: 2px; stroke-dasharray: 4px, 2px; stroke: rgb(7, 74, 197); stroke-opacity: 1;"/></g></g></g><g class="overplot"/><path class="xlines-above crisp" d="M0,0" style="fill: none;"/><path class="ylines-above crisp" d="M0,0" style="fill: none;"/><g class="overlines-above"/><g class="xaxislayer-above"><g class="xtick"><text text-anchor="middle" x="0" y="172" transform="translate(68.16,0)" style="font-family: 'Open Sans', verdana, arial, sans-serif; font-size: 12px; fill: rgb(242, 245, 250); fill-opacity: 1; white-space: pre; opacity: 1;">0</text></g><g class="xtick"><text text-anchor="middle" x="0" y="172" style="font-family: 'Open Sans', verdana, arial, sans-serif; font-size: 12px; fill: rgb(242, 245, 250); fill-opacity: 1; white-space: pre; opacity: 1;" transform="translate(204.38,0)">100</text></g><g class="xtick"><text text-anchor="middle" x="0" y="172" style="font-family: 'Open Sans', verdana, arial, sans-serif; font-size: 12px; fill: rgb(242, 245, 250); fill-opacity: 1; white-space: pre; opacity: 1;" transform="translate(340.6,0)">200</text></g><g class="xtick"><text text-anchor="middle" x="0" y="172" style="font-family: 'Open Sans', verdana, arial, sans-serif; font-size: 12px; fill: rgb(242, 245, 250); fill-opacity: 1; white-space: pre; opacity: 1;" transform="translate(476.83,0)">300</text></g><g class="xtick"><text text-anchor="middle" x="0" y="172" style="font-family: 'Open Sans', verdana, arial, sans-serif; font-size: 12px; fill: rgb(242, 245, 250); fill-opacity: 1; white-space: pre; opacity: 1;" transform="translate(613.05,0)">400</text></g><g class="xtick"><text text-anchor="middle" x="0" y="172" style="font-family: 'Open Sans', verdana, arial, sans-serif; font-size: 12px; fill: rgb(242, 245, 250); fill-opacity: 1; white-space: pre; opacity: 1;" transform="translate(749.28,0)">500</text></g></g><g class="yaxislayer-above"/><g class="overaxes-above"/></g></g><g class="polarlayer"/><g class="smithlayer"/><g class="ternarylayer"/><g class="geolayer"/><g class="funnelarealayer"/><g class="pielayer"/><g class="iciclelayer"/><g class="treemaplayer"/><g class="sunburstlayer"/><g class="glimages"/><defs id="topdefs-b48b32"><g class="clips"/></defs><g class="layer-above"><g class="imagelayer"/><g class="shapelayer"/></g><g class="infolayer"><g class="g-gtitle"/><g class="g-xtitle" transform="translate(0,-2.3000000000000114)"><text class="xtitle" x="400" y="199.3" text-anchor="middle" style="font-family: 'Open Sans', verdana, arial, sans-serif; font-size: 14px; fill: rgb(242, 245, 250); opacity: 1; white-space: pre;">Nkids</text></g><g class="g-ytitle"/></g></svg>