<svg class="main-svg" xmlns="http://www.w3.org/2000/svg" xmlns:xlink="http://www.w3.org/1999/xlink" width="800" height="200" style="" viewBox="0 0 800 200"><rect x="0" y="0" width="800" height="200" style="fill: rgb(0, 0, 0); fill-opacity: 0;"/><defs id="defs-a21d44"><g class="clips"><clipPath id="clipa21d44xyplot" class="plotclip"><rect width="800" height="159"/></clipPath><clipPath class="axesclip" id="clipa21d44x"><rect x="0" y="0" width="800" height="200"/></clipPath><clipPath class="axesclip" id="clipa21d44y"><rect x="0" y="0" width="800" height="159"/></clipPath><clipPath class="axesclip" id="clipa21d44xy"><rect x="0" y="0" width="800" height="159"/></clipPath></g><g class="gradients"/><g class="patterns"/></defs><g class="bglayer"><rect class="bg" x="0" y="0" width="800" height="159" style="fill: rgb(0, 0, 0); fill-opacity: 0; stroke-width: 0;"/></g><g class="layer-below"><g class="imagelayer"/><g class="shapelayer"/></g><g class="cartesianlayer"><g class="subplot xy"><g class="layer-subplot"><g class="shapelayer"/><g class="imagelayer"/></g><g class="minor-gridlayer"><g class="x"/><g class="y"/></g><g class="gridlayer"><g class="x"><path class="xgrid crisp" transform="translate(184.02,0)" d="M0,0v159" style="stroke: rgb(40, 52, 66); stroke-opacity: 1; stroke-width: 1px;"/><path class="xgrid crisp" transform="translate(323.23,0)" d="M0,0v159" style="stroke: rgb(40, 52, 66); stroke-opacity: 1; stroke-width: 1px;"/><path class="xgrid crisp" transform="translate(462.43,0)" d="M0,0v159" style="stroke: rgb(40, 52, 66); stroke-opacity: 1; stroke-width: 1px;"/><path class="xgrid crisp" transform="translate(601.64,0)" d="M0,0v159" style="stroke: rgb(40, 52, 66); stroke-opacity: 1; stroke-width: 1px;"/><path class="xgrid crisp" transform="translate(740.85,0)" d="M0,0v159" style="stroke: rgb(40, 52, 66); stroke-opacity: 1; stroke-width: 1px;"/></g><g class="y"/></g><g class="zerolinelayer"><path class="xzl zl crisp" transform="translate(44.81,0)" d="M0,0v159" style="stroke: rgb(40, 52, 66); stroke-opacity: 1; stroke-width: 2px;"/></g><g class="layer-between"><g class="shapelayer"/><g class="imagelayer"/></g><path class="xlines-below"/><path class="ylines-below"/><g class="overlines-below"/><g class="xaxislayer-below"/><g class="yaxislayer-below"/><g class="overaxes-below"/><g class="plot" transform="" clip-path="url(#clipa21d44xyplot)"><g class="violinlayer mlayer"><g class="trace violins" style="opacity: 1;"><path class="violin" d="M40,151.05L40,150.79Q43.75,150.64 45.62,150.52C47.49,150.4 49.37,150.25 51.24,150.05C53.12,149.85 54.99,149.62 56.86,149.34C58.74,149.06 60.61,148.72 62.48,148.36C64.36,148 66.23,147.59 68.1,147.17C69.98,146.75 71.85,146.29 73.73,145.86C75.6,145.43 77.47,144.99 79.35,144.6C81.22,144.21 83.09,143.84 84.97,143.53C86.84,143.23 88.71,142.97 90.59,142.77C92.46,142.57 94.34,142.44 96.21,142.35C98.08,142.26 99.96,142.24 101.83,142.24C103.7,142.24 105.58,142.29 107.45,142.33C109.32,142.37 111.2,142.45 113.07,142.5C114.94,142.55 116.82,142.6 118.69,142.63C120.56,142.66 122.44,142.67 124.31,142.67C126.18,142.67 128.06,142.63 129.93,142.6C131.81,142.57 133.68,142.52 135.56,142.47C137.43,142.42 139.31,142.37 141.18,142.32C143.05,142.26 144.93,142.22 146.8,142.14C148.67,142.06 150.55,141.97 152.42,141.82C154.3,141.66 156.17,141.49 158.04,141.21C159.92,140.92 161.8,140.57 163.66,140.11C165.54,139.65 167.42,139.06 169.28,138.44C171.16,137.81 173.03,137.06 174.9,136.35C176.78,135.64 178.64,134.84 180.52,134.17C182.38,133.51 184.25,132.84 186.14,132.36C188,131.89 189.88,131.5 191.76,131.32C193.63,131.14 195.52,131.12 197.39,131.26C199.27,131.4 201.15,131.75 203.01,132.16C204.9,132.58 206.77,133.18 208.63,133.77C210.51,134.37 212.38,135.08 214.25,135.74C216.12,136.39 217.99,137.09 219.87,137.7C221.74,138.31 223.61,138.9 225.49,139.39C227.35,139.87 229.23,140.3 231.11,140.62C232.98,140.93 234.85,141.17 236.73,141.29C238.6,141.41 240.48,141.42 242.35,141.32C244.23,141.22 246.11,141.01 247.97,140.7C249.85,140.38 251.73,139.95 253.59,139.43C255.48,138.9 257.36,138.27 259.22,137.54C261.11,136.8 262.99,135.96 264.84,135.01C266.74,134.04 268.62,132.97 270.46,131.77C272.37,130.53 274.24,129.17 276.08,127.69C277.99,126.15 279.86,124.46 281.7,122.69C283.61,120.86 285.46,118.87 287.32,116.88C289.21,114.85 291.06,112.69 292.94,110.63C294.8,108.59 296.64,106.47 298.56,104.6C300.39,102.82 302.23,101.01 304.18,99.64C305.98,98.38 307.86,97.18 309.8,96.58C311.62,96.02 313.58,95.77 315.43,96.01C317.33,96.25 319.25,97.09 321.05,98.1C323.01,99.2 324.86,100.86 326.67,102.54C328.62,104.34 330.45,106.51 332.29,108.64C334.2,110.84 336.03,113.25 337.91,115.54C339.78,117.83 341.63,120.19 343.53,122.38C345.37,124.51 347.23,126.61 349.15,128.51C350.98,130.31 352.84,132.04 354.77,133.52C356.59,134.92 358.47,136.2 360.39,137.23C362.22,138.21 364.11,139.02 366.01,139.59C367.85,140.14 369.75,140.48 371.63,140.63C373.5,140.77 375.39,140.68 377.26,140.47C379.14,140.25 381.02,139.8 382.88,139.33C384.76,138.85 386.63,138.19 388.5,137.62C390.37,137.04 392.24,136.37 394.12,135.88C395.98,135.4 397.86,134.93 399.74,134.71C401.6,134.49 403.49,134.41 405.36,134.55C407.24,134.69 409.13,135.06 410.98,135.56C412.87,136.07 414.74,136.82 416.6,137.58C418.49,138.36 420.35,139.3 422.22,140.19C424.1,141.08 425.96,142.05 427.84,142.92C429.7,143.78 431.57,144.62 433.46,145.36C435.32,146.09 437.2,146.75 439.09,147.31C440.95,147.86 442.83,148.33 444.71,148.72C446.58,149.11 448.45,149.41 450.33,149.67C452.2,149.93 454.07,150.11 455.95,150.27C457.82,150.43 459.7,150.54 461.57,150.63C463.44,150.72 465.32,150.78 467.19,150.83Q469.06,150.88 472.81,150.95L472.81,151.05" style="vector-effect: none; stroke-width: 2px; stroke: rgb(164, 160, 40); stroke-opacity: 1; fill: rgb(205, 200, 50); fill-opacity: 0.5;"/><path class="meanline" d="M279,125.20135498046875V151.05" style="fill: none; vector-effect: none; stroke-width: 2px; stroke-dasharray: 4px, 2px; stroke: rgb(164, 160, 40); stroke-opacity: 1;"/></g><g class="trace violins" style="opacity: 1;"><path class="violin" d="M154.26,129.03L154.26,128.91Q157.23,128.84 158.71,128.8C160.19,128.76 161.68,128.71 163.16,128.65C164.64,128.59 166.13,128.51 167.61,128.44C169.09,128.37 170.58,128.3 172.06,128.23C173.54,128.16 175.03,128.09 176.51,128.04C177.99,127.99 179.48,127.95 180.96,127.93C182.44,127.91 183.93,127.92 185.41,127.93C186.89,127.94 188.38,127.98 189.86,128.01C191.34,128.05 192.83,128.1 194.31,128.14C195.79,128.17 197.28,128.21 198.76,128.22C200.24,128.23 201.73,128.23 203.21,128.18C204.69,128.13 206.18,128.04 207.66,127.89C209.15,127.74 210.63,127.56 212.11,127.3C213.6,127.04 215.08,126.71 216.56,126.33C218.05,125.94 219.54,125.49 221.01,124.99C222.5,124.48 223.98,123.91 225.46,123.31C226.95,122.7 228.44,122.05 229.92,121.36C231.41,120.66 232.9,119.93 234.37,119.14C235.86,118.34 237.35,117.51 238.82,116.6C240.32,115.66 241.81,114.68 243.27,113.58C244.78,112.44 246.27,111.21 247.72,109.88C249.24,108.5 250.71,106.98 252.17,105.42C253.68,103.81 255.14,102.06 256.62,100.35C258.11,98.62 259.57,96.78 261.07,95.08C262.53,93.43 263.98,91.73 265.52,90.29C266.96,88.94 268.42,87.6 269.97,86.67C271.39,85.82 272.91,85.08 274.42,84.81C275.87,84.55 277.42,84.63 278.87,85C280.39,85.38 281.89,86.24 283.32,87.16C284.87,88.16 286.32,89.53 287.77,90.88C289.29,92.3 290.74,93.94 292.22,95.51C293.71,97.09 295.17,98.77 296.67,100.32C298.14,101.84 299.6,103.37 301.12,104.74C302.57,106.05 304.04,107.31 305.57,108.36C307.02,109.36 308.5,110.29 310.02,110.95C311.47,111.58 312.97,112.08 314.47,112.3C315.94,112.51 317.46,112.52 318.92,112.26C320.43,111.99 321.93,111.41 323.37,110.67C324.91,109.88 326.39,108.76 327.82,107.56C329.36,106.27 330.83,104.7 332.27,103.1C333.8,101.41 335.26,99.51 336.72,97.63C338.23,95.69 339.68,93.62 341.17,91.61C342.65,89.61 344.12,87.53 345.63,85.6C347.09,83.73 348.54,81.83 350.08,80.2C351.51,78.69 352.96,77.17 354.53,76.11C355.94,75.16 357.46,74.28 358.98,74C360.43,73.73 362.01,73.86 363.43,74.35C364.99,74.88 366.48,76.05 367.88,77.29C369.47,78.69 370.9,80.59 372.33,82.46C373.87,84.48 375.31,86.82 376.78,89.05C378.27,91.31 379.71,93.73 381.23,95.92C382.68,98 384.11,100.15 385.68,101.89C387.09,103.46 388.55,105.01 390.13,105.98C391.53,106.84 393.08,107.51 394.58,107.65C396.05,107.78 397.6,107.41 399.03,106.86C400.57,106.27 402.04,105.17 403.48,104.1C405.01,102.97 406.45,101.52 407.93,100.21C409.42,98.88 410.87,97.42 412.38,96.18C413.83,94.99 415.3,93.77 416.83,92.88C418.27,92.04 419.76,91.31 421.28,90.91C422.73,90.53 424.25,90.39 425.73,90.49C427.22,90.59 428.73,91 430.18,91.54C431.7,92.1 433.18,92.94 434.63,93.84C436.15,94.79 437.62,95.94 439.08,97.13C440.59,98.36 442.06,99.73 443.53,101.11C445.03,102.52 446.5,104.02 447.98,105.48C449.46,106.94 450.93,108.44 452.43,109.85C453.9,111.24 455.37,112.62 456.88,113.88C458.34,115.1 459.83,116.27 461.34,117.31C462.8,118.31 464.28,119.22 465.79,120.03C467.25,120.81 468.74,121.49 470.24,122.1C471.71,122.7 473.2,123.21 474.69,123.69C476.17,124.16 477.65,124.56 479.14,124.95C480.62,125.34 482.1,125.68 483.59,126.01C485.07,126.34 486.55,126.64 488.04,126.91C489.52,127.18 491,127.42 492.49,127.63C493.97,127.84 495.46,128.03 496.94,128.18C498.42,128.33 499.91,128.45 501.39,128.55C502.87,128.65 504.36,128.73 505.84,128.79Q507.32,128.85 510.29,128.92L510.29,129.03" style="vector-effect: none; stroke-width: 2px; stroke: rgb(58, 146, 136); stroke-opacity: 1; fill: rgb(73, 182, 170); fill-opacity: 0.5;"/><path class="meanline" d="M349.29,81.0679702758789V129.03" style="fill: none; vector-effect: none; stroke-width: 2px; stroke-dasharray: 4px, 2px; stroke: rgb(58, 146, 136); stroke-opacity: 1;"/></g><g class="trace violins" style="opacity: 1;"><path class="violin" d="M264.5,107.02L264.5,106.7Q267.15,106.5 268.47,106.33C269.8,106.16 271.13,105.96 272.45,105.69C273.78,105.41 275.11,105.08 276.43,104.68C277.76,104.27 279.09,103.78 280.4,103.25C281.74,102.71 283.06,102.09 284.38,101.45C285.71,100.8 287.03,100.08 288.35,99.35C289.68,98.61 291.01,97.83 292.33,97.03C293.66,96.22 294.99,95.38 296.31,94.5C297.64,93.61 298.96,92.68 300.28,91.72C301.62,90.75 302.94,89.72 304.26,88.7C305.59,87.67 306.91,86.58 308.24,85.56C309.56,84.55 310.86,83.5 312.21,82.6C313.51,81.73 314.84,80.89 316.19,80.21C317.49,79.56 318.82,79.01 320.16,78.57C321.47,78.14 322.81,77.89 324.14,77.59C325.46,77.29 326.81,77.13 328.12,76.76C329.46,76.39 330.8,76 332.09,75.37C333.46,74.7 334.8,73.81 336.07,72.77C337.46,71.63 338.77,70.19 340.05,68.72C341.42,67.14 342.7,65.3 344.02,63.57C345.35,61.82 346.63,59.89 348,58.26C349.28,56.73 350.55,55.1 351.97,54.03C353.22,53.09 354.59,52.19 355.95,51.98C357.24,51.78 358.67,52.09 359.93,52.66C361.34,53.3 362.64,54.61 363.9,55.88C365.31,57.29 366.58,59.12 367.88,60.85C369.24,62.66 370.52,64.65 371.86,66.51C373.17,68.33 374.47,70.21 375.83,71.89C377.12,73.48 378.43,75.02 379.81,76.35C381.09,77.58 382.42,78.71 383.79,79.63C385.07,80.49 386.4,81.22 387.76,81.74C389.06,82.24 390.4,82.59 391.74,82.73C393.05,82.86 394.4,82.82 395.71,82.57C397.06,82.31 398.4,81.82 399.69,81.18C401.06,80.49 402.38,79.53 403.67,78.51C405.04,77.42 406.34,76.08 407.64,74.78C408.99,73.43 410.27,71.9 411.62,70.55C412.93,69.23 414.21,67.81 415.6,66.75C416.87,65.77 418.19,64.78 419.57,64.33C420.85,63.91 422.26,63.75 423.55,63.99C424.91,64.24 426.26,65.05 427.52,65.92C428.93,66.89 430.21,68.33 431.5,69.7C432.87,71.16 434.15,72.89 435.48,74.45C436.8,76 438.07,77.66 439.45,79.04C440.73,80.32 442.03,81.62 443.43,82.48C444.7,83.26 446.06,83.89 447.41,84.13C448.71,84.36 450.08,84.21 451.38,83.94C452.73,83.66 454.05,82.99 455.36,82.42C456.7,81.84 457.99,81.04 459.33,80.51C460.64,79.99 461.97,79.44 463.31,79.26C464.62,79.09 465.99,79.11 467.29,79.42C468.65,79.74 469.98,80.44 471.26,81.22C472.64,82.06 473.94,83.21 475.24,84.34C476.6,85.52 477.9,86.88 479.22,88.15C480.55,89.42 481.85,90.76 483.19,91.98C484.5,93.17 485.82,94.33 487.17,95.38C488.47,96.39 489.79,97.33 491.14,98.17C492.44,98.99 493.78,99.72 495.12,100.38C496.43,101.03 497.76,101.59 499.1,102.11C500.41,102.62 501.74,103.06 503.07,103.47C504.39,103.87 505.72,104.23 507.05,104.55C508.37,104.87 509.7,105.13 511.03,105.37C512.35,105.61 513.67,105.82 515,105.99C516.32,106.16 517.65,106.29 518.98,106.41C520.3,106.53 521.63,106.62 522.95,106.69C524.28,106.76 525.6,106.81 526.93,106.85Q528.26,106.89 530.91,106.94L530.91,107.02" style="vector-effect: none; stroke-width: 2px; stroke: rgb(109, 78, 126); stroke-opacity: 1; fill: rgb(137, 97, 158); fill-opacity: 0.5;"/><path class="meanline" d="M388.06,81.8522720336914V107.02" style="fill: none; vector-effect: none; stroke-width: 2px; stroke-dasharray: 4px, 2px; stroke: rgb(109, 78, 126); stroke-opacity: 1;"/></g><g class="trace violins" style="opacity: 1;"><path class="violin" d="M377.52,85L377.52,84.59Q380.73,84.35 382.33,84.16C383.94,83.97 385.54,83.75 387.14,83.47C388.75,83.18 390.35,82.84 391.95,82.45C393.56,82.06 395.16,81.6 396.76,81.15C398.37,80.69 399.96,80.18 401.57,79.72C403.17,79.26 404.77,78.78 406.38,78.41C407.98,78.04 409.58,77.71 411.19,77.51C412.79,77.31 414.4,77.2 416,77.2C417.6,77.2 419.21,77.34 420.81,77.51C422.42,77.68 424.02,77.98 425.62,78.23C427.23,78.48 428.83,78.82 430.44,79.03C432.04,79.24 433.65,79.45 435.25,79.48C436.85,79.51 438.47,79.46 440.06,79.24C441.67,79.02 443.29,78.64 444.87,78.13C446.5,77.61 448.1,76.91 449.68,76.13C451.31,75.33 452.9,74.37 454.49,73.38C456.11,72.37 457.71,71.25 459.3,70.14C460.91,69.02 462.51,67.83 464.11,66.68C465.71,65.53 467.31,64.35 468.92,63.23C470.51,62.12 472.11,61.02 473.73,60C475.32,58.99 476.92,58.01 478.54,57.13C480.13,56.27 481.73,55.45 483.35,54.77C484.93,54.1 486.54,53.51 488.16,53.07C489.75,52.64 491.36,52.31 492.97,52.16C494.57,52.02 496.18,52.03 497.78,52.19C499.39,52.36 501,52.71 502.59,53.16C504.21,53.62 505.81,54.27 507.4,54.93C509.02,55.6 510.6,56.43 512.21,57.15C513.81,57.86 515.4,58.67 517.03,59.21C518.61,59.73 520.23,60.25 521.84,60.37C523.43,60.49 525.09,60.39 526.65,59.94C528.3,59.46 529.93,58.55 531.46,57.47C533.15,56.28 534.72,54.64 536.27,52.97C537.94,51.17 539.5,49.03 541.08,46.98C542.7,44.88 544.25,42.58 545.89,40.51C547.46,38.52 549.01,36.43 550.7,34.8C552.23,33.32 553.81,31.83 555.51,31.03C557.04,30.31 558.73,29.85 560.32,29.97C561.94,30.09 563.61,30.87 565.13,31.8C566.84,32.84 568.4,34.49 569.94,36.13C571.62,37.92 573.18,40.08 574.75,42.19C576.39,44.39 577.96,46.77 579.56,49.08C581.17,51.39 582.75,53.78 584.37,56.05C585.96,58.27 587.54,60.49 589.18,62.57C590.75,64.57 592.35,66.53 593.99,68.33C595.56,70.05 597.16,71.7 598.81,73.17C600.37,74.57 601.97,75.87 603.62,76.99C605.19,78.06 606.79,79.01 608.43,79.77C610,80.5 611.62,81.09 613.24,81.52C614.82,81.94 616.44,82.21 618.05,82.34C619.65,82.47 621.26,82.44 622.86,82.33C624.47,82.22 626.07,81.97 627.67,81.69C629.28,81.4 630.88,81.01 632.48,80.62C634.09,80.23 635.69,79.78 637.29,79.37C638.89,78.96 640.49,78.53 642.1,78.16C643.7,77.79 645.3,77.45 646.91,77.17C648.51,76.89 650.11,76.66 651.72,76.47C653.32,76.28 654.93,76.14 656.53,76.01C658.13,75.88 659.74,75.8 661.34,75.7C662.94,75.6 664.55,75.51 666.15,75.39C667.75,75.27 669.36,75.15 670.96,75C672.56,74.84 674.17,74.66 675.77,74.46C677.37,74.26 678.98,74.03 680.58,73.81C682.19,73.59 683.79,73.34 685.4,73.13C687,72.92 688.6,72.71 690.21,72.57C691.81,72.43 693.42,72.32 695.02,72.29C696.62,72.26 698.23,72.29 699.83,72.4C701.44,72.51 703.04,72.71 704.64,72.98C706.25,73.25 707.85,73.62 709.45,74.03C711.06,74.45 712.66,74.95 714.26,75.47C715.87,75.99 717.47,76.58 719.07,77.15C720.68,77.72 722.27,78.34 723.88,78.91C725.48,79.48 727.08,80.04 728.69,80.55C730.29,81.06 731.89,81.54 733.5,81.96C735.1,82.38 736.7,82.74 738.31,83.06C739.91,83.37 741.51,83.63 743.12,83.85C744.72,84.07 746.33,84.23 747.93,84.37C749.53,84.51 751.14,84.6 752.74,84.68Q754.34,84.76 757.55,84.85L757.55,85" style="vector-effect: none; stroke-width: 2px; stroke: rgb(162, 42, 112); stroke-opacity: 1; fill: rgb(203, 52, 140); fill-opacity: 0.5;"/><path class="meanline" d="M550.92,34.58769989013672V85" style="fill: none; vector-effect: none; stroke-width: 2px; stroke-dasharray: 4px, 2px; stroke: rgb(162, 42, 112); stroke-opacity: 1;"/></g><g class="trace violins" style="opacity: 1;"><path class="violin" d="M436.32,62.99L436.32,62.81Q439.64,62.69 441.3,62.59C442.96,62.49 444.62,62.38 446.28,62.21C447.94,62.04 449.6,61.83 451.26,61.57C452.92,61.3 454.59,60.99 456.24,60.62C457.91,60.25 459.57,59.8 461.22,59.33C462.89,58.85 464.54,58.31 466.2,57.76C467.86,57.21 469.52,56.6 471.18,56.04C472.84,55.48 474.49,54.89 476.16,54.38C477.81,53.87 479.47,53.37 481.14,52.97C482.79,52.57 484.45,52.22 486.12,51.96C487.77,51.7 489.44,51.53 491.1,51.43C492.76,51.33 494.42,51.3 496.08,51.33C497.74,51.36 499.4,51.48 501.06,51.61C502.72,51.74 504.38,51.94 506.04,52.13C507.7,52.32 509.36,52.56 511.02,52.76C512.68,52.96 514.34,53.18 516,53.31C517.66,53.44 519.32,53.57 520.98,53.54C522.64,53.51 524.31,53.42 525.96,53.13C527.63,52.84 529.31,52.4 530.94,51.77C532.64,51.11 534.31,50.23 535.92,49.2C537.63,48.11 539.28,46.75 540.9,45.34C542.6,43.85 544.24,42.13 545.88,40.45C547.56,38.73 549.18,36.84 550.86,35.12C552.5,33.43 554.12,31.66 555.84,30.22C557.45,28.87 559.09,27.51 560.82,26.67C562.41,25.89 564.12,25.3 565.79,25.21C567.44,25.12 569.17,25.5 570.77,26.12C572.5,26.79 574.15,27.99 575.75,29.21C577.47,30.52 579.1,32.19 580.73,33.8C582.42,35.46 584.04,37.3 585.71,39.01C587.36,40.7 589,42.45 590.69,44.01C592.32,45.51 593.96,46.96 595.67,48.2C597.29,49.37 598.95,50.44 600.65,51.29C602.27,52.11 603.95,52.78 605.63,53.25C607.27,53.71 608.94,54 610.61,54.12C612.26,54.24 613.94,54.18 615.59,53.96C617.26,53.74 618.94,53.34 620.57,52.79C622.26,52.22 623.93,51.47 625.55,50.58C627.25,49.65 628.91,48.54 630.53,47.31C632.24,46.01 633.89,44.51 635.51,42.92C637.22,41.24 638.86,39.38 640.49,37.47C642.18,35.48 643.82,33.33 645.47,31.21C647.14,29.05 648.78,26.77 650.45,24.61C652.1,22.49 653.72,20.3 655.43,18.35C657.05,16.49 658.68,14.65 660.41,13.14C662.01,11.75 663.66,10.44 665.39,9.56C666.99,8.75 668.69,8.14 670.37,7.95C672.01,7.77 673.73,7.96 675.35,8.41C677.06,8.89 678.73,9.81 680.33,10.85C682.06,11.98 683.7,13.48 685.31,15.04C687.03,16.71 688.66,18.65 690.29,20.6C691.98,22.63 693.61,24.84 695.26,27C696.93,29.18 698.57,31.46 700.24,33.63C701.89,35.77 703.53,37.92 705.22,39.93C706.85,41.87 708.5,43.76 710.2,45.49C711.82,47.14 713.48,48.7 715.18,50.1C716.8,51.44 718.47,52.65 720.16,53.74C721.79,54.79 723.46,55.71 725.14,56.53C726.78,57.33 728.45,58 730.12,58.61C731.77,59.2 733.43,59.7 735.1,60.14C736.75,60.57 738.41,60.92 740.08,61.22C741.74,61.52 743.4,61.76 745.06,61.96C746.72,62.16 748.38,62.3 750.04,62.43C751.7,62.55 753.36,62.64 755.02,62.71Q756.68,62.78 760,62.86L760,62.99" style="vector-effect: none; stroke-width: 2px; stroke: rgb(7, 74, 197); stroke-opacity: 1; fill: rgb(9, 92, 246); fill-opacity: 0.5;"/><path class="meanline" d="M619.84,53.02532958984375V62.99" style="fill: none; vector-effect: none; stroke-width: 2px; stroke-dasharray: 4px, 2px; stroke: rgb(7, 74, 197); stroke-opacity: 1;"/></g></g></g><g class="overplot"/><path class="xlines-above crisp" d="M0,0" style="fill: none;"/><path class="ylines-above crisp" d="M0,0" style="fill: none;"/><g class="overlines-above"/><g class="xaxislayer-above"><g class="xtick"><text text-anchor="middle" x="0" y="172" transform="translate(44.81,0)" style="font-family: 'Open Sans', verdana, arial, sans-serif; font-size: 12px; fill: rgb(242, 245, 250); fill-opacity: 1; white-space: pre; opacity: 1;">0</text></g><g class="xtick"><text text-anchor="middle" x="0" y="172" style="font-family: 'Open Sans', verdana, arial, sans-serif; font-size: 12px; fill: rgb(242, 245, 250); fill-opacity: 1; white-space: pre; opacity: 1;" transform="translate(184.02,0)">100</text></g><g class="xtick"><text text-anchor="middle" x="0" y="172" style="font-family: 'Open Sans', verdana, arial, sans-serif; font-size: 12px; fill: rgb(242, 245, 250); fill-opacity: 1; white-space: pre; opacity: 1;" transform="translate(323.23,0)">200</text></g><g class="xtick"><text text-anchor="middle" x="0" y="172" style="font-family: 'Open Sans', verdana, arial, sans-serif; font-size: 12px; fill: rgb(242, 245, 250); fill-opacity: 1; white-space: pre; opacity: 1;" transform="translate(462.43,0)">300</text></g><g class="xtick"><text text-anchor="middle" x="0" y="172" style="font-family: 'Open Sans', verdana, arial, sans-serif; font-size: 12px; fill: rgb(242, 245, 250); fill-opacity: 1; white-space: pre; opacity: 1;" transform="translate(601.64,0)">400</text></g><g class="xtick"><text text-anchor="middle" x="0" y="172" style="font-family: 'Open Sans', verdana, arial, sans-serif; font-size: 12px; fill: rgb(242, 245, 250); fill-opacity: 1; white-space: pre; opacity: 1;" transform="translate(740.85,0)">500</text></g></g><g class="yaxislayer-above"/><g class="overaxes-above"/></g></g><g class="polarlayer"/><g class="smithlayer"/><g class="ternarylayer"/><g class="geolayer"/><g class="funnelarealayer"/><g class="pielayer"/><g class="iciclelayer"/><g class="treemaplayer"/><g class="sunburstlayer"/><g class="glimages"/><defs id="topdefs-a21d44"><g class="clips"/></defs><g class="layer-above"><g class="imagelayer"/><g class="shapelayer"/></g><g class="infolayer"><g class="g-gtitle"/><g class="g-xtitle" transform="translate(0,-2.3000000000000114)"><text class="xtitle" x="400" y="199.3" text-anchor="middle" style="font-family: 'Open Sans', verdana, arial, sans-serif; font-size: 14px; fill: rgb(242, 245, 250); opacity: 1; white-space: pre;">Pgm Death</text></g><g class="g-ytitle"/></g></svg>