<svg class="main-svg" xmlns="http://www.w3.org/2000/svg" xmlns:xlink="http://www.w3.org/1999/xlink" width="800" height="200" style="" viewBox="0 0 800 200"><rect x="0" y="0" width="800" height="200" style="fill: rgb(0, 0, 0); fill-opacity: 0;"/><defs id="defs-3cd2f3"><g class="clips"><clipPath id="clip3cd2f3xyplot" class="plotclip"><rect width="800" height="159"/></clipPath><clipPath class="axesclip" id="clip3cd2f3x"><rect x="0" y="0" width="800" height="200"/></clipPath><clipPath class="axesclip" id="clip3cd2f3y"><rect x="0" y="0" width="800" height="159"/></clipPath><clipPath class="axesclip" id="clip3cd2f3xy"><rect x="0" y="0" width="800" height="159"/></clipPath></g><g class="gradients"/><g class="patterns"/></defs><g class="bglayer"><rect class="bg" x="0" y="0" width="800" height="159" style="fill: rgb(0, 0, 0); fill-opacity: 0; stroke-width: 0;"/></g><g class="layer-below"><g class="imagelayer"/><g class="shapelayer"/></g><g class="cartesianlayer"><g class="subplot xy"><g class="layer-subplot"><g class="shapelayer"/><g class="imagelayer"/></g><g class="minor-gridlayer"><g class="x"/><g class="y"/></g><g class="gridlayer"><g class="x"><path class="xgrid crisp" transform="translate(205.97,0)" d="M0,0v159" style="stroke: rgb(40, 52, 66); stroke-opacity: 1; stroke-width: 1px;"/><path class="xgrid crisp" transform="translate(357.55,0)" d="M0,0v159" style="stroke: rgb(40, 52, 66); stroke-opacity: 1; stroke-width: 1px;"/><path class="xgrid crisp" transform="translate(509.14,0)" d="M0,0v159" style="stroke: rgb(40, 52, 66); stroke-opacity: 1; stroke-width: 1px;"/><path class="xgrid crisp" transform="translate(660.73,0)" d="M0,0v159" style="stroke: rgb(40, 52, 66); stroke-opacity: 1; stroke-width: 1px;"/></g><g class="y"/></g><g class="zerolinelayer"><path class="xzl zl crisp" transform="translate(54.38,0)" d="M0,0v159" style="stroke: rgb(40, 52, 66); stroke-opacity: 1; stroke-width: 2px;"/></g><g class="layer-between"><g class="shapelayer"/><g class="imagelayer"/></g><path class="xlines-below"/><path class="ylines-below"/><g class="overlines-below"/><g class="xaxislayer-below"/><g class="yaxislayer-below"/><g class="overaxes-below"/><g class="plot" transform="" clip-path="url(#clip3cd2f3xyplot)"><g class="violinlayer mlayer"><g class="trace violins" style="opacity: 1;"><path class="violin" d="M48.71,151.05L48.71,149.69Q49.71,148.82 50.16,148.23C50.69,147.54 51.16,146.68 51.61,145.74C52.14,144.62 52.61,143.29 53.06,141.89C53.58,140.27 54.05,138.44 54.51,136.56C55.02,134.47 55.49,132.19 55.96,129.9C56.46,127.48 56.93,124.92 57.41,122.42C57.89,119.91 58.36,117.32 58.86,114.87C59.33,112.53 59.8,110.18 60.31,108.03C60.77,106.09 61.23,104.17 61.76,102.51C62.21,101.1 62.66,99.73 63.21,98.67C63.65,97.83 64.1,96.99 64.66,96.55C65.1,96.21 65.63,95.98 66.11,96.01C66.6,96.04 67.11,96.41 67.56,96.77C68.09,97.2 68.55,97.87 69.01,98.52C69.52,99.24 69.99,100.09 70.46,100.93C70.96,101.82 71.43,102.78 71.91,103.73C72.4,104.69 72.88,105.68 73.36,106.65C73.84,107.62 74.32,108.59 74.81,109.54C75.29,110.47 75.77,111.39 76.26,112.29C76.74,113.17 77.22,114.02 77.71,114.87C78.19,115.7 78.67,116.51 79.16,117.32C79.64,118.12 80.13,118.91 80.61,119.7C81.09,120.48 81.58,121.26 82.06,122.04C82.54,122.81 83.02,123.59 83.51,124.35C83.99,125.11 84.47,125.87 84.96,126.61C85.44,127.33 85.92,128.05 86.41,128.73C86.89,129.39 87.37,130.05 87.86,130.66C88.33,131.25 88.82,131.81 89.31,132.34C89.78,132.85 90.27,133.34 90.76,133.81C91.24,134.26 91.72,134.68 92.21,135.09C92.69,135.49 93.17,135.86 93.66,136.23C94.14,136.59 94.62,136.95 95.11,137.29C95.59,137.63 96.07,137.96 96.56,138.27C97.04,138.58 97.52,138.88 98.01,139.16C98.49,139.44 98.97,139.71 99.46,139.96C99.94,140.21 100.42,140.45 100.91,140.67C101.39,140.89 101.88,141.09 102.36,141.29C102.84,141.49 103.33,141.68 103.81,141.87C104.29,142.06 104.78,142.25 105.26,142.44C105.74,142.64 106.23,142.84 106.71,143.04C107.19,143.24 107.68,143.45 108.16,143.66C108.64,143.87 109.13,144.08 109.61,144.28C110.09,144.48 110.57,144.68 111.06,144.86C111.54,145.04 112.03,145.22 112.52,145.38C113,145.54 113.48,145.68 113.97,145.81C114.45,145.94 114.94,146.05 115.42,146.15C115.9,146.25 116.39,146.34 116.87,146.42C117.35,146.5 117.84,146.57 118.32,146.64C118.8,146.71 119.29,146.76 119.77,146.82C120.25,146.88 120.74,146.93 121.22,146.99C121.7,147.05 122.19,147.11 122.67,147.17C123.15,147.24 123.64,147.31 124.12,147.38C124.6,147.45 125.09,147.53 125.57,147.61C126.05,147.69 126.54,147.78 127.02,147.86C127.5,147.94 127.99,148.02 128.47,148.1C128.95,148.18 129.44,148.25 129.92,148.32C130.4,148.39 130.89,148.45 131.37,148.5C131.85,148.55 132.34,148.6 132.82,148.64C133.3,148.68 133.79,148.71 134.27,148.75C134.75,148.79 135.24,148.82 135.72,148.86C136.2,148.89 136.69,148.93 137.17,148.96C137.65,149 138.14,149.03 138.62,149.07C139.1,149.11 139.59,149.15 140.07,149.19C140.55,149.23 141.04,149.27 141.52,149.31C142,149.35 142.49,149.39 142.97,149.43C143.45,149.47 143.94,149.51 144.42,149.55C144.9,149.59 145.39,149.62 145.87,149.66C146.35,149.69 146.84,149.73 147.32,149.76C147.8,149.79 148.29,149.81 148.77,149.84C149.25,149.86 149.74,149.89 150.22,149.91C150.7,149.93 151.19,149.94 151.67,149.96C152.15,149.97 152.64,149.99 153.12,150C153.6,150.01 154.09,150.02 154.57,150.03C155.05,150.04 155.54,150.06 156.02,150.07C156.5,150.08 156.99,150.09 157.47,150.1C157.95,150.11 158.44,150.13 158.92,150.14C159.4,150.15 159.89,150.15 160.37,150.16C160.85,150.17 161.34,150.18 161.82,150.19C162.3,150.2 162.79,150.2 163.27,150.21C163.75,150.22 164.24,150.23 164.72,150.24C165.2,150.25 165.69,150.27 166.17,150.28C166.65,150.29 167.14,150.3 167.62,150.32C168.1,150.34 168.59,150.36 169.07,150.38C169.55,150.4 170.04,150.43 170.52,150.45C171,150.47 171.49,150.48 171.97,150.5C172.45,150.52 172.94,150.54 173.42,150.55C173.9,150.56 174.39,150.58 174.87,150.58C175.35,150.58 175.84,150.58 176.32,150.58C176.8,150.58 177.29,150.57 177.77,150.57C178.25,150.56 178.74,150.56 179.22,150.55C179.7,150.55 180.19,150.54 180.67,150.54C181.16,150.54 181.64,150.54 182.13,150.54C182.61,150.54 183.1,150.55 183.58,150.55C184.06,150.56 184.55,150.56 185.03,150.57C185.51,150.58 186,150.58 186.48,150.59C186.96,150.6 187.45,150.6 187.93,150.61C188.41,150.62 188.9,150.62 189.38,150.63C189.86,150.64 190.35,150.66 190.83,150.67C191.31,150.68 191.8,150.69 192.28,150.7C192.76,150.71 193.25,150.72 193.73,150.73C194.21,150.74 194.7,150.75 195.18,150.76C195.66,150.77 196.15,150.77 196.63,150.78C197.11,150.78 197.6,150.79 198.08,150.79C198.56,150.79 199.05,150.79 199.53,150.79C200.01,150.79 200.5,150.78 200.98,150.78C201.46,150.77 201.95,150.77 202.43,150.76C202.91,150.76 203.4,150.75 203.88,150.75C204.36,150.75 204.85,150.74 205.33,150.74C205.81,150.74 206.3,150.75 206.78,150.75C207.26,150.75 207.75,150.75 208.23,150.76C208.71,150.77 209.2,150.78 209.68,150.79C210.16,150.8 210.65,150.82 211.13,150.84C211.61,150.86 212.1,150.87 212.58,150.89C213.06,150.9 213.55,150.92 214.03,150.93C214.51,150.94 215,150.96 215.48,150.97C215.96,150.98 216.45,150.99 216.93,151C217.41,151.01 217.9,151.01 218.38,151.01C218.86,151.01 219.35,151.01 219.83,151.01C220.31,151.01 220.8,151.01 221.28,151.01C221.76,151.01 222.25,151 222.73,151C223.21,151 223.7,151 224.18,151C224.66,151 225.15,151 225.63,151C226.11,151 226.6,151.01 227.08,151.01C227.56,151.01 228.05,151.02 228.53,151.02C229.01,151.02 229.5,151.03 229.98,151.03C230.46,151.03 230.95,151.04 231.43,151.04C231.91,151.04 232.4,151.04 232.88,151.04C233.36,151.04 233.85,151.05 234.33,151.05C234.81,151.05 235.3,151.05 235.78,151.05C236.26,151.05 236.75,151.05 237.23,151.05C237.71,151.05 238.2,151.04 238.68,151.04C239.16,151.04 239.65,151.03 240.13,151.03C240.61,151.03 241.1,151.03 241.58,151.03C242.06,151.03 242.55,151.02 243.03,151.02C243.51,151.01 244,151.01 244.48,151C244.96,151 245.45,150.99 245.93,150.99C246.41,150.99 246.9,150.99 247.38,150.99C247.86,150.99 248.35,150.98 248.83,150.98C249.31,150.98 249.8,150.98 250.28,150.98C250.77,150.98 251.25,150.98 251.74,150.98C252.22,150.98 252.71,150.98 253.19,150.98C253.67,150.98 254.16,150.99 254.64,150.99C255.12,150.99 255.61,150.99 256.09,150.99C256.57,150.99 257.06,151 257.54,151C258.02,151 258.51,151 258.99,151C259.47,151 259.96,151 260.44,151C260.92,151 261.41,151 261.89,151C262.37,151 262.86,151 263.34,151C263.82,151 264.31,151 264.79,151C265.27,151 265.76,151 266.24,151C266.72,151 267.21,151 267.69,151C268.17,151 268.66,151.01 269.14,151.01C269.62,151.01 270.11,151.01 270.59,151.01C271.07,151.01 271.56,151.01 272.04,151.01C272.52,151.01 273.01,151.01 273.49,151.01C273.97,151.01 274.46,151 274.94,151C275.42,151 275.91,151 276.39,151C276.87,151 277.36,151 277.84,151C278.32,151 278.81,151.01 279.29,151.01C279.77,151.01 280.26,151.01 280.74,151.01C281.22,151.01 281.71,151.02 282.19,151.02C282.67,151.02 283.16,151.03 283.64,151.03C284.12,151.03 284.61,151.04 285.09,151.04C285.57,151.04 286.06,151.05 286.54,151.05C287.02,151.05 287.51,151.05 287.99,151.05C288.47,151.05 288.96,151.05 289.44,151.05C289.92,151.05 290.41,151.05 290.89,151.05C291.37,151.05 291.86,151.05 292.34,151.05C292.82,151.05 293.31,151.05 293.79,151.05C294.27,151.05 294.76,151.05 295.24,151.05C295.72,151.05 296.21,151.05 296.69,151.05C297.17,151.05 297.66,151.05 298.14,151.05C298.62,151.05 299.11,151.05 299.59,151.05C300.07,151.05 300.56,151.05 301.04,151.05C301.52,151.05 302.01,151.05 302.49,151.05C302.97,151.05 303.46,151.05 303.94,151.05C304.42,151.05 304.91,151.04 305.39,151.04C305.87,151.04 306.36,151.04 306.84,151.04C307.32,151.04 307.81,151.03 308.29,151.03C308.77,151.03 309.26,151.02 309.74,151.02C310.22,151.02 310.71,151.01 311.19,151.01C311.67,151.01 312.16,151 312.64,151C313.12,151 313.61,151 314.09,151C314.57,151 315.06,151.01 315.54,151.01C316.02,151.01 316.51,151.01 316.99,151.01C317.47,151.01 317.96,151.02 318.44,151.02C318.92,151.02 319.41,151.03 319.89,151.03C320.38,151.03 320.86,151.04 321.35,151.04C321.83,151.04 322.32,151.04 322.8,151.04C323.28,151.04 323.77,151.05 324.25,151.05C324.73,151.05 325.22,151.05 325.7,151.05C326.18,151.05 326.67,151.05 327.15,151.05C327.63,151.05 328.12,151.05 328.6,151.05C329.08,151.05 329.57,151.05 330.05,151.05C330.53,151.05 331.02,151.05 331.5,151.05C331.98,151.05 332.47,151.05 332.95,151.05C333.43,151.05 333.92,151.05 334.4,151.05C334.88,151.05 335.37,151.05 335.85,151.05C336.33,151.05 336.82,151.05 337.3,151.05C337.78,151.05 338.27,151.05 338.75,151.05C339.23,151.05 339.72,151.05 340.2,151.05C340.68,151.05 341.17,151.05 341.65,151.05C342.13,151.05 342.62,151.05 343.1,151.05C343.58,151.05 344.07,151.05 344.55,151.05C345.03,151.05 345.52,151.05 346,151.05C346.48,151.05 346.97,151.05 347.45,151.05C347.93,151.05 348.42,151.05 348.9,151.05C349.38,151.05 349.87,151.04 350.35,151.04C350.83,151.04 351.32,151.04 351.8,151.04C352.28,151.04 352.77,151.03 353.25,151.03C353.73,151.03 354.22,151.02 354.7,151.02C355.18,151.02 355.67,151.01 356.15,151.01C356.63,151.01 357.12,151 357.6,151C358.08,151 358.57,151 359.05,151C359.53,151 360.02,151 360.5,151C360.98,151 361.47,151.01 361.95,151.01C362.43,151.01 362.92,151.01 363.4,151.01C363.88,151.01 364.37,151.02 364.85,151.02C365.33,151.02 365.82,151.02 366.3,151.02C366.78,151.02 367.27,151.02 367.75,151.02C368.23,151.02 368.72,151.01 369.2,151.01C369.68,151.01 370.17,151 370.65,151C371.13,151 371.62,151 372.1,151C372.58,151 373.07,151 373.55,151C374.03,151 374.52,151.01 375,151.01C375.48,151.01 375.97,151.02 376.45,151.02C376.93,151.02 377.42,151.03 377.9,151.03C378.38,151.03 378.87,151.03 379.35,151.03C379.83,151.03 380.32,151.04 380.8,151.04C381.28,151.04 381.77,151.05 382.25,151.05C382.73,151.05 383.22,151.05 383.7,151.05C384.18,151.05 384.67,151.05 385.15,151.05C385.63,151.05 386.12,151.05 386.6,151.05C387.08,151.05 387.57,151.05 388.05,151.05C388.53,151.05 389.02,151.05 389.5,151.05C389.99,151.05 390.47,151.05 390.96,151.05C391.44,151.05 391.93,151.05 392.41,151.05C392.89,151.05 393.38,151.05 393.86,151.05C394.34,151.05 394.83,151.05 395.31,151.05C395.79,151.05 396.28,151.05 396.76,151.05C397.24,151.05 397.73,151.05 398.21,151.05C398.69,151.05 399.18,151.05 399.66,151.05C400.14,151.05 400.63,151.05 401.11,151.05C401.59,151.05 402.08,151.05 402.56,151.05C403.04,151.05 403.53,151.05 404.01,151.05C404.49,151.05 404.98,151.05 405.46,151.05C405.94,151.05 406.43,151.05 406.91,151.05C407.39,151.05 407.88,151.05 408.36,151.05C408.84,151.05 409.33,151.05 409.81,151.05C410.29,151.05 410.78,151.05 411.26,151.05C411.74,151.05 412.23,151.05 412.71,151.05C413.19,151.05 413.68,151.05 414.16,151.05C414.64,151.05 415.13,151.05 415.61,151.05C416.09,151.05 416.58,151.05 417.06,151.05C417.54,151.05 418.03,151.05 418.51,151.05C418.99,151.05 419.48,151.05 419.96,151.05C420.44,151.05 420.93,151.05 421.41,151.05C421.89,151.05 422.38,151.05 422.86,151.05C423.34,151.05 423.83,151.05 424.31,151.05C424.79,151.05 425.28,151.05 425.76,151.05C426.24,151.05 426.73,151.05 427.21,151.05C427.69,151.05 428.18,151.05 428.66,151.05C429.14,151.05 429.63,151.05 430.11,151.05C430.59,151.05 431.08,151.05 431.56,151.05C432.04,151.05 432.53,151.05 433.01,151.05C433.49,151.05 433.98,151.05 434.46,151.05C434.94,151.05 435.43,151.05 435.91,151.05C436.39,151.05 436.88,151.05 437.36,151.05C437.84,151.05 438.33,151.05 438.81,151.05C439.29,151.05 439.78,151.05 440.26,151.05C440.74,151.05 441.23,151.05 441.71,151.05C442.19,151.05 442.68,151.05 443.16,151.05C443.64,151.05 444.13,151.05 444.61,151.05C445.09,151.05 445.58,151.05 446.06,151.05C446.54,151.05 447.03,151.05 447.51,151.05C447.99,151.05 448.48,151.05 448.96,151.05C449.44,151.05 449.93,151.05 450.41,151.05C450.89,151.05 451.38,151.05 451.86,151.05C452.34,151.05 452.83,151.05 453.31,151.05C453.79,151.05 454.28,151.05 454.76,151.05C455.24,151.05 455.73,151.05 456.21,151.05C456.69,151.05 457.18,151.05 457.66,151.05C458.14,151.05 458.63,151.05 459.11,151.05C459.6,151.05 460.08,151.05 460.57,151.05C461.05,151.05 461.54,151.05 462.02,151.05C462.5,151.05 462.99,151.05 463.47,151.05C463.95,151.05 464.44,151.05 464.92,151.05C465.4,151.05 465.89,151.05 466.37,151.05C466.85,151.05 467.34,151.05 467.82,151.05C468.3,151.05 468.79,151.05 469.27,151.05C469.75,151.05 470.24,151.05 470.72,151.05C471.2,151.05 471.69,151.05 472.17,151.05C472.65,151.05 473.14,151.05 473.62,151.05C474.1,151.05 474.59,151.05 475.07,151.05C475.55,151.05 476.04,151.05 476.52,151.05C477,151.05 477.49,151.05 477.97,151.05C478.45,151.05 478.94,151.05 479.42,151.05C479.9,151.05 480.39,151.05 480.87,151.05C481.35,151.05 481.84,151.05 482.32,151.05C482.8,151.05 483.29,151.04 483.77,151.04C484.25,151.04 484.74,151.04 485.22,151.04C485.7,151.04 486.19,151.03 486.67,151.03C487.15,151.03 487.64,151.02 488.12,151.02C488.6,151.02 489.09,151.01 489.57,151.01C490.05,151.01 490.54,151 491.02,151C491.5,151 491.99,151 492.47,151C492.95,151 493.44,151 493.92,151C494.4,151 494.89,151.01 495.37,151.01C495.85,151.01 496.34,151.02 496.82,151.02C497.3,151.02 497.79,151.03 498.27,151.03C498.75,151.03 499.24,151.04 499.72,151.04Q500.2,151.04 501.17,151.04L501.17,151.05" style="vector-effect: none; stroke-width: 2px; stroke: rgb(58, 146, 136); stroke-opacity: 1; fill: rgb(73, 182, 170); fill-opacity: 0.5;"/><path class="meanline" d="M80.44,119.421142578125V151.05" style="fill: none; vector-effect: none; stroke-width: 2px; stroke-dasharray: 4px, 2px; stroke: rgb(58, 146, 136); stroke-opacity: 1;"/></g><g class="trace violins" style="opacity: 1;"><path class="violin" d="M47.64,129.03L47.64,127.44Q48.77,126.4 49.27,125.71C49.87,124.88 50.4,123.86 50.9,122.74C51.5,121.4 52.02,119.82 52.53,118.16C53.12,116.24 53.63,114.09 54.15,111.88C54.72,109.45 55.25,106.8 55.78,104.18C56.33,101.45 56.86,98.56 57.41,95.8C57.95,93.1 58.46,90.33 59.03,87.79C59.55,85.47 60.06,83.15 60.66,81.16C61.16,79.48 61.65,77.83 62.29,76.6C62.78,75.66 63.28,74.7 63.92,74.29C64.41,73.98 65.02,73.88 65.54,74C66.11,74.13 66.66,74.69 67.17,75.19C67.76,75.77 68.28,76.57 68.8,77.34C69.36,78.16 69.89,79.09 70.42,79.99C70.97,80.92 71.51,81.88 72.05,82.83C72.59,83.78 73.13,84.75 73.68,85.7C74.22,86.63 74.75,87.56 75.3,88.47C75.84,89.36 76.38,90.25 76.93,91.11C77.47,91.96 78.01,92.78 78.56,93.6C79.1,94.41 79.65,95.19 80.19,95.98C80.73,96.76 81.27,97.53 81.81,98.29C82.35,99.04 82.89,99.79 83.44,100.53C83.98,101.26 84.52,101.99 85.07,102.71C85.61,103.41 86.14,104.11 86.69,104.79C87.23,105.46 87.77,106.12 88.32,106.76C88.86,107.39 89.4,108.01 89.95,108.62C90.49,109.21 91.03,109.79 91.58,110.36C92.12,110.92 92.65,111.47 93.2,112C93.74,112.53 94.28,113.04 94.83,113.54C95.37,114.03 95.91,114.5 96.46,114.96C97,115.41 97.53,115.86 98.08,116.28C98.62,116.7 99.16,117.11 99.71,117.49C100.25,117.86 100.79,118.22 101.34,118.55C101.88,118.87 102.42,119.18 102.97,119.46C103.51,119.73 104.04,119.98 104.59,120.19C105.13,120.4 105.67,120.58 106.22,120.74C106.76,120.9 107.31,121.03 107.85,121.14C108.39,121.25 108.93,121.33 109.47,121.41C110.01,121.49 110.56,121.55 111.1,121.61C111.64,121.67 112.19,121.71 112.73,121.76C113.27,121.81 113.81,121.85 114.35,121.9C114.89,121.95 115.44,122.01 115.98,122.08C116.52,122.15 117.07,122.23 117.61,122.33C118.15,122.43 118.7,122.55 119.24,122.67C119.78,122.8 120.32,122.94 120.86,123.08C121.4,123.23 121.95,123.39 122.49,123.54C123.03,123.69 123.58,123.85 124.12,123.99C124.66,124.13 125.2,124.26 125.74,124.38C126.28,124.5 126.83,124.6 127.37,124.7C127.91,124.8 128.46,124.88 129,124.97C129.54,125.05 130.09,125.13 130.63,125.21C131.17,125.29 131.71,125.37 132.25,125.45C132.79,125.53 133.34,125.61 133.88,125.69C134.42,125.77 134.97,125.84 135.51,125.91C136.05,125.97 136.59,126.03 137.13,126.08C137.67,126.13 138.22,126.16 138.76,126.2C139.3,126.23 139.85,126.26 140.39,126.29C140.93,126.32 141.47,126.34 142.01,126.37C142.55,126.4 143.1,126.42 143.64,126.45C144.18,126.48 144.73,126.52 145.27,126.55C145.81,126.58 146.36,126.6 146.9,126.63C147.44,126.65 147.98,126.68 148.52,126.7C149.06,126.72 149.61,126.72 150.15,126.73C150.69,126.74 151.24,126.74 151.78,126.75C152.32,126.76 152.86,126.77 153.4,126.78C153.94,126.8 154.49,126.81 155.03,126.84C155.57,126.87 156.12,126.91 156.66,126.95C157.2,126.99 157.75,127.04 158.29,127.1C158.83,127.15 159.37,127.22 159.91,127.28C160.45,127.35 161,127.42 161.54,127.49C162.08,127.56 162.63,127.63 163.17,127.69C163.71,127.75 164.25,127.82 164.79,127.87C165.33,127.92 165.88,127.97 166.42,128C166.96,128.03 167.51,128.05 168.05,128.07C168.59,128.09 169.13,128.1 169.67,128.1C170.21,128.1 170.76,128.09 171.3,128.08C171.84,128.07 172.39,128.05 172.93,128.04C173.47,128.03 174.02,128.01 174.56,128C175.1,127.99 175.64,127.98 176.18,127.97C176.72,127.96 177.27,127.96 177.81,127.95C178.35,127.95 178.9,127.94 179.44,127.94C179.98,127.94 180.52,127.94 181.06,127.95C181.6,127.96 182.15,127.97 182.69,127.99C183.23,128.01 183.78,128.03 184.32,128.06C184.86,128.09 185.41,128.13 185.95,128.17C186.49,128.21 187.03,128.26 187.57,128.3C188.11,128.34 188.66,128.39 189.2,128.43C189.74,128.47 190.29,128.5 190.83,128.52C191.37,128.54 191.91,128.55 192.45,128.55C192.99,128.55 193.54,128.53 194.08,128.51C194.62,128.49 195.17,128.45 195.71,128.41C196.25,128.37 196.79,128.31 197.33,128.27C197.87,128.22 198.42,128.18 198.96,128.14C199.5,128.1 200.05,128.07 200.59,128.05C201.13,128.03 201.68,128.01 202.22,128.01C202.76,128.01 203.3,128.01 203.84,128.02C204.38,128.03 204.93,128.04 205.47,128.06C206.01,128.08 206.56,128.1 207.1,128.12C207.64,128.14 208.18,128.17 208.72,128.19C209.26,128.21 209.81,128.23 210.35,128.25C210.89,128.27 211.44,128.3 211.98,128.32C212.52,128.34 213.07,128.36 213.61,128.39C214.15,128.41 214.69,128.45 215.23,128.47C215.77,128.5 216.32,128.52 216.86,128.54C217.4,128.56 217.95,128.58 218.49,128.6C219.03,128.62 219.57,128.63 220.11,128.64C220.65,128.65 221.2,128.67 221.74,128.67C222.28,128.67 222.83,128.66 223.37,128.66C223.91,128.66 224.45,128.66 224.99,128.65C225.53,128.64 226.08,128.63 226.62,128.62C227.16,128.61 227.71,128.61 228.25,128.6C228.79,128.59 229.34,128.58 229.88,128.58C230.42,128.58 230.96,128.59 231.5,128.59C232.04,128.6 232.59,128.6 233.13,128.61C233.67,128.62 234.22,128.64 234.76,128.65C235.3,128.66 235.84,128.67 236.38,128.69C236.92,128.71 237.47,128.73 238.01,128.75C238.55,128.77 239.1,128.78 239.64,128.8C240.18,128.82 240.73,128.84 241.27,128.86C241.81,128.88 242.35,128.89 242.89,128.9C243.43,128.91 243.98,128.91 244.52,128.92C245.06,128.92 245.61,128.93 246.15,128.93C246.69,128.93 247.23,128.92 247.77,128.92C248.31,128.92 248.86,128.91 249.4,128.91C249.94,128.91 250.49,128.91 251.03,128.91C251.57,128.91 252.11,128.91 252.65,128.91C253.19,128.91 253.74,128.92 254.28,128.92C254.82,128.92 255.37,128.93 255.91,128.93C256.45,128.93 257,128.94 257.54,128.94C258.08,128.94 258.62,128.93 259.16,128.92C259.7,128.91 260.25,128.9 260.79,128.89C261.33,128.87 261.88,128.85 262.42,128.83C262.96,128.81 263.5,128.77 264.04,128.75C264.58,128.72 265.13,128.7 265.67,128.68C266.21,128.66 266.76,128.64 267.3,128.63C267.84,128.62 268.39,128.61 268.93,128.61C269.47,128.61 270.01,128.61 270.55,128.62C271.09,128.63 271.64,128.64 272.18,128.66C272.72,128.68 273.27,128.7 273.81,128.72C274.35,128.74 274.89,128.77 275.43,128.79C275.97,128.81 276.52,128.83 277.06,128.85C277.6,128.87 278.15,128.89 278.69,128.91C279.23,128.93 279.77,128.94 280.31,128.95C280.85,128.96 281.4,128.97 281.94,128.97C282.48,128.97 283.03,128.97 283.57,128.97C284.11,128.97 284.66,128.97 285.2,128.96C285.74,128.96 286.28,128.95 286.82,128.94C287.36,128.93 287.91,128.93 288.45,128.92C288.99,128.92 289.54,128.91 290.08,128.91C290.62,128.91 291.16,128.91 291.7,128.91C292.24,128.91 292.79,128.92 293.33,128.92C293.87,128.93 294.42,128.93 294.96,128.94C295.5,128.95 296.05,128.95 296.59,128.96C297.13,128.96 297.67,128.97 298.21,128.97C298.75,128.97 299.3,128.98 299.84,128.98C300.38,128.98 300.93,128.97 301.47,128.96C302.01,128.96 302.55,128.96 303.09,128.95C303.63,128.94 304.18,128.93 304.72,128.92C305.26,128.91 305.81,128.91 306.35,128.91C306.89,128.91 307.43,128.9 307.97,128.9C308.51,128.9 309.06,128.89 309.6,128.89C310.14,128.89 310.69,128.9 311.23,128.9C311.77,128.9 312.32,128.9 312.86,128.9C313.4,128.9 313.94,128.9 314.48,128.9C315.02,128.9 315.57,128.89 316.11,128.89C316.65,128.89 317.2,128.9 317.74,128.9C318.28,128.9 318.82,128.91 319.36,128.91C319.9,128.91 320.45,128.91 320.99,128.92C321.53,128.93 322.08,128.94 322.62,128.95C323.16,128.96 323.71,128.96 324.25,128.97C324.79,128.97 325.33,128.98 325.87,128.98C326.41,128.98 326.96,128.97 327.5,128.97C328.04,128.97 328.59,128.97 329.13,128.96C329.67,128.96 330.21,128.95 330.75,128.94C331.29,128.93 331.84,128.93 332.38,128.92C332.92,128.92 333.47,128.91 334.01,128.91C334.55,128.91 335.1,128.91 335.64,128.91C336.18,128.91 336.72,128.91 337.26,128.92C337.8,128.93 338.35,128.94 338.89,128.95C339.43,128.96 339.98,128.96 340.52,128.97C341.06,128.98 341.6,128.98 342.14,128.99C342.68,129 343.23,129 343.77,129.01C344.31,129.01 344.86,129.02 345.4,129.02C345.94,129.02 346.48,129.03 347.02,129.03C347.56,129.03 348.11,129.03 348.65,129.03C349.19,129.03 349.74,129.03 350.28,129.03C350.82,129.03 351.37,129.03 351.91,129.03C352.45,129.03 352.99,129.03 353.53,129.03C354.07,129.03 354.62,129.03 355.16,129.03C355.7,129.03 356.25,129.03 356.79,129.03C357.33,129.03 357.87,129.03 358.41,129.03C358.95,129.03 359.5,129.03 360.04,129.03C360.58,129.03 361.13,129.03 361.67,129.03C362.21,129.03 362.76,129.03 363.3,129.03C363.84,129.03 364.38,129.03 364.92,129.03C365.46,129.03 366.01,129.03 366.55,129.03C367.09,129.03 367.64,129.03 368.18,129.03C368.72,129.03 369.26,129.03 369.8,129.03C370.34,129.03 370.89,129.03 371.43,129.03C371.97,129.03 372.52,129.03 373.06,129.03C373.6,129.03 374.14,129.03 374.68,129.03C375.22,129.03 375.77,129.02 376.31,129.02C376.85,129.02 377.4,129.01 377.94,129.01C378.48,129 379.03,129 379.57,128.99C380.11,128.98 380.65,128.97 381.19,128.96C381.73,128.95 382.28,128.95 382.82,128.94C383.36,128.93 383.91,128.93 384.45,128.92C384.99,128.92 385.53,128.91 386.07,128.91C386.61,128.91 387.16,128.91 387.7,128.91C388.24,128.91 388.79,128.92 389.33,128.93C389.87,128.94 390.42,128.94 390.96,128.95C391.5,128.96 392.04,128.97 392.58,128.98C393.12,128.99 393.67,128.99 394.21,129C394.75,129.01 395.3,129.01 395.84,129.02C396.38,129.02 396.92,129.03 397.46,129.03C398,129.03 398.55,129.03 399.09,129.03C399.63,129.03 400.18,129.03 400.72,129.03C401.26,129.03 401.8,129.03 402.34,129.03C402.88,129.03 403.43,129.03 403.97,129.03C404.51,129.03 405.06,129.03 405.6,129.03C406.14,129.03 406.69,129.03 407.23,129.03C407.77,129.03 408.31,129.03 408.85,129.03C409.39,129.03 409.94,129.03 410.48,129.03C411.02,129.03 411.57,129.03 412.11,129.03C412.65,129.03 413.19,129.03 413.73,129.03C414.27,129.03 414.82,129.03 415.36,129.03C415.9,129.03 416.45,129.03 416.99,129.03C417.53,129.03 418.08,129.03 418.62,129.03C419.16,129.03 419.7,129.03 420.24,129.03C420.78,129.03 421.33,129.03 421.87,129.03C422.41,129.03 422.96,129.03 423.5,129.03C424.04,129.03 424.58,129.03 425.12,129.03C425.66,129.03 426.21,129.03 426.75,129.03C427.29,129.03 427.84,129.03 428.38,129.03C428.92,129.03 429.46,129.03 430,129.03C430.54,129.03 431.09,129.03 431.63,129.03C432.17,129.03 432.72,129.03 433.26,129.03C433.8,129.03 434.35,129.03 434.89,129.03C435.43,129.03 435.97,129.03 436.51,129.03C437.05,129.03 437.6,129.03 438.14,129.03C438.68,129.03 439.23,129.03 439.77,129.03C440.31,129.03 440.85,129.03 441.39,129.03C441.93,129.03 442.48,129.03 443.02,129.03C443.56,129.03 444.11,129.03 444.65,129.03C445.19,129.03 445.74,129.03 446.28,129.03C446.82,129.03 447.36,129.03 447.9,129.03C448.44,129.03 448.99,129.03 449.53,129.03C450.07,129.03 450.62,129.03 451.16,129.03C451.7,129.03 452.24,129.03 452.78,129.03C453.32,129.03 453.87,129.02 454.41,129.02C454.95,129.02 455.5,129.01 456.04,129.01C456.58,129.01 457.12,129.01 457.66,129C458.2,128.99 458.75,128.98 459.29,128.97C459.83,128.96 460.38,128.96 460.92,128.95C461.46,128.94 462.01,128.94 462.55,128.93C463.09,128.92 463.63,128.91 464.17,128.91C464.71,128.91 465.26,128.91 465.8,128.91C466.34,128.91 466.89,128.91 467.43,128.92C467.97,128.92 468.51,128.93 469.05,128.94C469.59,128.95 470.14,128.96 470.68,128.97C471.22,128.98 471.77,128.98 472.31,128.99C472.85,129 473.4,129 473.94,129.01C474.48,129.01 475.02,129.02 475.56,129.02C476.1,129.02 476.65,129.03 477.19,129.03C477.73,129.03 478.28,129.03 478.82,129.03C479.36,129.03 479.9,129.03 480.44,129.03C480.98,129.03 481.53,129.03 482.07,129.03C482.61,129.03 483.16,129.03 483.7,129.03C484.24,129.03 484.78,129.03 485.32,129.03C485.86,129.03 486.41,129.03 486.95,129.03C487.49,129.03 488.04,129.03 488.58,129.03C489.12,129.03 489.67,129.03 490.21,129.03C490.75,129.03 491.29,129.03 491.83,129.03C492.37,129.03 492.92,129.03 493.46,129.03C494,129.03 494.55,129.03 495.09,129.03C495.63,129.03 496.17,129.03 496.71,129.03C497.25,129.03 497.8,129.03 498.34,129.03C498.88,129.03 499.43,129.03 499.97,129.03C500.51,129.03 501.06,129.03 501.6,129.03C502.14,129.03 502.68,129.03 503.22,129.03C503.76,129.03 504.31,129.03 504.85,129.03C505.39,129.03 505.94,129.03 506.48,129.03C507.02,129.03 507.56,129.03 508.1,129.03C508.64,129.03 509.19,129.03 509.73,129.03C510.27,129.03 510.82,129.03 511.36,129.03C511.9,129.03 512.44,129.03 512.98,129.03C513.52,129.03 514.07,129.03 514.61,129.03C515.15,129.03 515.7,129.03 516.24,129.03C516.78,129.03 517.33,129.03 517.87,129.03C518.41,129.03 518.95,129.03 519.49,129.03C520.03,129.03 520.58,129.03 521.12,129.03C521.66,129.03 522.21,129.03 522.75,129.03C523.29,129.03 523.83,129.03 524.37,129.03C524.91,129.03 525.46,129.03 526,129.03C526.54,129.03 527.09,129.03 527.63,129.03C528.17,129.03 528.72,129.03 529.26,129.03C529.8,129.03 530.34,129.03 530.88,129.03C531.42,129.03 531.97,129.03 532.51,129.03C533.05,129.03 533.6,129.03 534.14,129.03C534.68,129.03 535.22,129.02 535.76,129.02C536.3,129.01 536.85,129.01 537.39,129C537.93,128.99 538.48,128.99 539.02,128.98C539.56,128.97 540.1,128.97 540.64,128.96C541.18,128.95 541.73,128.94 542.27,128.93C542.81,128.92 543.36,128.92 543.9,128.92C544.44,128.92 544.99,128.91 545.53,128.91C546.07,128.91 546.61,128.92 547.15,128.92C547.69,128.92 548.24,128.92 548.78,128.93C549.32,128.94 549.87,128.95 550.41,128.96C550.95,128.97 551.49,128.97 552.03,128.98C552.57,128.99 553.12,128.99 553.66,129Q554.2,129.01 555.29,129.02L555.29,129.03" style="vector-effect: none; stroke-width: 2px; stroke: rgb(162, 42, 112); stroke-opacity: 1; fill: rgb(203, 52, 140); fill-opacity: 0.5;"/><path class="meanline" d="M85.71,103.54141998291016V129.03" style="fill: none; vector-effect: none; stroke-width: 2px; stroke-dasharray: 4px, 2px; stroke: rgb(162, 42, 112); stroke-opacity: 1;"/></g><g class="trace violins" style="opacity: 1;"><path class="violin" d="M47.4,107.02L47.4,106.26Q48.38,105.73 48.82,105.32C49.33,104.85 49.8,104.23 50.23,103.53C50.75,102.68 51.21,101.64 51.64,100.52C52.16,99.18 52.61,97.61 53.05,95.97C53.56,94.09 54.02,91.98 54.47,89.84C54.96,87.5 55.42,84.96 55.88,82.45C56.36,79.85 56.81,77.13 57.29,74.52C57.76,71.98 58.22,69.38 58.71,66.99C59.16,64.79 59.61,62.61 60.12,60.69C60.56,59.04 60.99,57.43 61.53,56.12C61.96,55.06 62.4,54.06 62.95,53.36C63.38,52.81 63.85,52.34 64.36,52.12C64.8,51.93 65.31,51.92 65.77,51.98C66.25,52.05 66.73,52.29 67.19,52.53C67.67,52.78 68.14,53.12 68.6,53.46C69.08,53.81 69.54,54.2 70.01,54.59C70.48,54.99 70.95,55.41 71.42,55.82C71.89,56.24 72.37,56.66 72.84,57.08C73.31,57.5 73.78,57.93 74.25,58.36C74.72,58.79 75.19,59.22 75.66,59.65C76.13,60.08 76.61,60.52 77.08,60.96C77.55,61.4 78.02,61.84 78.49,62.29C78.96,62.74 79.43,63.2 79.9,63.67C80.38,64.15 80.85,64.63 81.32,65.13C81.8,65.64 82.26,66.16 82.73,66.69C83.21,67.24 83.67,67.8 84.14,68.37C84.61,68.95 85.09,69.54 85.56,70.12C86.03,70.7 86.5,71.29 86.97,71.87C87.44,72.44 87.9,73.01 88.38,73.56C88.85,74.1 89.32,74.62 89.8,75.13C90.27,75.63 90.74,76.12 91.21,76.61C91.68,77.09 92.15,77.56 92.62,78.04C93.09,78.52 93.56,79 94.03,79.48C94.5,79.97 94.98,80.46 95.45,80.96C95.92,81.46 96.39,81.96 96.86,82.46C97.33,82.96 97.8,83.46 98.27,83.95C98.74,84.44 99.22,84.93 99.69,85.41C100.16,85.89 100.63,86.37 101.1,86.84C101.57,87.31 102.04,87.77 102.51,88.23C102.98,88.69 103.46,89.15 103.93,89.6C104.4,90.04 104.87,90.49 105.34,90.91C105.81,91.33 106.27,91.74 106.75,92.12C107.22,92.49 107.69,92.85 108.17,93.18C108.63,93.5 109.1,93.8 109.58,94.06C110.04,94.32 110.52,94.54 110.99,94.75C111.46,94.95 111.93,95.13 112.4,95.3C112.87,95.47 113.35,95.62 113.82,95.78C114.29,95.94 114.76,96.09 115.23,96.25C115.7,96.41 116.17,96.58 116.64,96.76C117.11,96.94 117.59,97.12 118.06,97.31C118.53,97.5 119,97.7 119.47,97.89C119.94,98.08 120.41,98.28 120.88,98.47C121.35,98.66 121.83,98.85 122.3,99.02C122.77,99.19 123.24,99.35 123.71,99.5C124.18,99.65 124.65,99.79 125.12,99.92C125.59,100.05 126.07,100.16 126.54,100.27C127.01,100.37 127.48,100.46 127.95,100.55C128.42,100.64 128.89,100.72 129.36,100.8C129.83,100.88 130.31,100.94 130.78,101.02C131.25,101.09 131.72,101.17 132.19,101.25C132.66,101.33 133.13,101.42 133.6,101.51C134.07,101.6 134.54,101.69 135.01,101.78C135.48,101.87 135.96,101.97 136.43,102.07C136.9,102.16 137.37,102.26 137.84,102.35C138.31,102.44 138.78,102.52 139.25,102.6C139.72,102.68 140.2,102.75 140.67,102.83C141.14,102.9 141.61,102.98 142.08,103.05C142.55,103.12 143.02,103.18 143.49,103.25C143.96,103.32 144.44,103.38 144.91,103.45C145.38,103.52 145.85,103.59 146.32,103.66C146.79,103.73 147.26,103.8 147.73,103.87C148.2,103.94 148.68,104 149.15,104.07C149.62,104.14 150.09,104.21 150.56,104.27C151.03,104.33 151.5,104.39 151.97,104.45C152.44,104.51 152.91,104.57 153.38,104.62C153.85,104.67 154.33,104.72 154.8,104.77C155.27,104.82 155.74,104.87 156.21,104.92C156.68,104.97 157.15,105.02 157.62,105.07C158.09,105.12 158.57,105.17 159.04,105.23C159.51,105.28 159.98,105.34 160.45,105.4C160.92,105.46 161.39,105.52 161.86,105.58C162.33,105.64 162.81,105.69 163.28,105.74C163.75,105.79 164.22,105.84 164.69,105.88C165.16,105.92 165.63,105.95 166.1,105.97C166.57,106 167.05,106.02 167.52,106.03C167.99,106.04 168.46,106.04 168.93,106.04C169.4,106.04 169.87,106.03 170.34,106.03C170.81,106.02 171.29,106.02 171.76,106.01C172.23,106.01 172.7,106 173.17,106C173.64,106 174.11,105.99 174.58,106C175.05,106.01 175.52,106.02 175.99,106.04C176.46,106.06 176.94,106.08 177.41,106.1C177.88,106.12 178.35,106.15 178.82,106.17C179.29,106.19 179.76,106.22 180.23,106.24C180.7,106.26 181.18,106.28 181.65,106.29C182.12,106.3 182.59,106.31 183.06,106.32C183.53,106.33 184,106.33 184.47,106.33C184.94,106.33 185.42,106.33 185.89,106.33C186.36,106.33 186.83,106.33 187.3,106.34C187.77,106.35 188.24,106.36 188.71,106.37C189.18,106.38 189.66,106.39 190.13,106.41C190.6,106.43 191.07,106.46 191.54,106.48C192.01,106.5 192.48,106.53 192.95,106.55C193.42,106.57 193.89,106.6 194.36,106.62C194.83,106.64 195.31,106.65 195.78,106.67C196.25,106.68 196.72,106.7 197.19,106.71C197.66,106.72 198.13,106.73 198.6,106.74C199.07,106.75 199.55,106.74 200.02,106.74C200.49,106.74 200.96,106.73 201.43,106.73C201.9,106.73 202.37,106.72 202.84,106.72C203.31,106.71 203.79,106.71 204.26,106.7C204.73,106.69 205.2,106.68 205.67,106.67C206.14,106.66 206.61,106.66 207.08,106.66C207.55,106.66 208.03,106.65 208.5,106.65C208.97,106.65 209.44,106.66 209.91,106.66C210.38,106.67 210.85,106.67 211.32,106.68C211.79,106.69 212.27,106.7 212.74,106.71C213.21,106.72 213.68,106.73 214.15,106.74C214.62,106.75 215.09,106.77 215.56,106.78C216.03,106.79 216.5,106.8 216.97,106.81C217.44,106.82 217.92,106.82 218.39,106.83C218.86,106.84 219.33,106.84 219.8,106.85C220.27,106.86 220.74,106.86 221.21,106.87C221.68,106.88 222.16,106.88 222.63,106.89C223.1,106.89 223.57,106.9 224.04,106.9C224.51,106.91 224.98,106.92 225.45,106.92C225.92,106.93 226.4,106.93 226.87,106.93C227.34,106.93 227.81,106.94 228.28,106.94C228.75,106.94 229.22,106.94 229.69,106.94C230.16,106.94 230.64,106.94 231.11,106.93C231.58,106.93 232.05,106.92 232.52,106.91C232.99,106.9 233.46,106.9 233.93,106.89C234.4,106.88 234.87,106.87 235.34,106.86C235.81,106.85 236.29,106.85 236.76,106.84C237.23,106.83 237.7,106.83 238.17,106.82C238.64,106.82 239.11,106.81 239.58,106.81C240.05,106.81 240.53,106.81 241,106.81C241.47,106.81 241.94,106.81 242.41,106.81C242.88,106.81 243.35,106.82 243.82,106.82C244.29,106.83 244.77,106.83 245.24,106.84C245.71,106.85 246.18,106.85 246.65,106.86C247.12,106.86 247.59,106.87 248.06,106.87C248.53,106.87 249.01,106.88 249.48,106.88C249.95,106.88 250.42,106.88 250.89,106.88C251.36,106.88 251.83,106.87 252.3,106.87C252.77,106.87 253.25,106.87 253.72,106.86C254.19,106.86 254.66,106.85 255.13,106.84C255.6,106.84 256.07,106.83 256.54,106.83C257.01,106.83 257.48,106.82 257.95,106.82C258.42,106.82 258.9,106.83 259.37,106.83C259.84,106.83 260.31,106.83 260.78,106.83C261.25,106.83 261.72,106.84 262.19,106.84C262.66,106.84 263.14,106.84 263.61,106.84C264.08,106.84 264.55,106.84 265.02,106.84C265.49,106.84 265.96,106.85 266.43,106.85C266.9,106.85 267.38,106.85 267.85,106.85C268.32,106.85 268.79,106.85 269.26,106.85C269.73,106.85 270.2,106.86 270.67,106.86C271.14,106.87 271.62,106.87 272.09,106.88C272.56,106.89 273.03,106.89 273.5,106.9C273.97,106.91 274.44,106.92 274.91,106.93C275.38,106.94 275.85,106.94 276.32,106.95C276.79,106.96 277.27,106.97 277.74,106.98C278.21,106.99 278.68,106.99 279.15,106.99C279.62,107 280.09,107.01 280.56,107.01C281.03,107.01 281.51,107.01 281.98,107.01C282.45,107.01 282.92,107.02 283.39,107.02C283.86,107.02 284.33,107.02 284.8,107.02C285.27,107.02 285.75,107.02 286.22,107.02C286.69,107.02 287.16,107.02 287.63,107.02C288.1,107.02 288.57,107.02 289.04,107.02C289.51,107.02 289.99,107.01 290.46,107.01C290.93,107.01 291.4,107.01 291.87,107.01C292.34,107.01 292.81,107 293.28,107C293.75,107 294.23,106.99 294.7,106.99C295.17,106.99 295.64,106.98 296.11,106.98C296.58,106.98 297.05,106.97 297.52,106.97C297.99,106.97 298.46,106.97 298.93,106.97C299.4,106.97 299.88,106.97 300.35,106.97C300.82,106.97 301.29,106.97 301.76,106.97C302.23,106.97 302.7,106.98 303.17,106.98C303.64,106.98 304.12,106.99 304.59,106.99C305.06,106.99 305.53,107 306,107C306.47,107 306.94,107.01 307.41,107.01C307.88,107.01 308.36,107.01 308.83,107.01C309.3,107.01 309.77,107.02 310.24,107.02C310.71,107.02 311.18,107.02 311.65,107.02C312.12,107.02 312.6,107.02 313.07,107.02C313.54,107.02 314.01,107.02 314.48,107.02C314.95,107.02 315.42,107.02 315.89,107.02C316.36,107.02 316.83,107.02 317.3,107.02C317.77,107.02 318.25,107.02 318.72,107.02C319.19,107.02 319.66,107.02 320.13,107.02C320.6,107.02 321.07,107.01 321.54,107.01C322.01,107.01 322.49,107.01 322.96,107.01C323.43,107.01 323.9,107 324.37,107C324.84,107 325.31,106.99 325.78,106.99C326.25,106.99 326.73,106.98 327.2,106.98C327.67,106.98 328.14,106.97 328.61,106.97C329.08,106.97 329.55,106.97 330.02,106.97C330.49,106.97 330.97,106.97 331.44,106.97C331.91,106.97 332.38,106.98 332.85,106.98C333.32,106.98 333.79,106.99 334.26,106.99C334.73,106.99 335.21,107 335.68,107C336.15,107 336.62,107 337.09,107C337.56,107 338.03,107.01 338.5,107.01C338.97,107.01 339.44,107.01 339.91,107.01C340.38,107.01 340.86,107.01 341.33,107.01C341.8,107.01 342.27,107.01 342.74,107.01C343.21,107.01 343.68,107.01 344.15,107.01C344.62,107.01 345.1,107 345.57,107C346.04,107 346.51,106.99 346.98,106.99C347.45,106.99 347.92,106.98 348.39,106.98C348.86,106.98 349.34,106.97 349.81,106.97C350.28,106.97 350.75,106.97 351.22,106.97C351.69,106.97 352.16,106.97 352.63,106.97C353.1,106.97 353.58,106.97 354.05,106.97C354.52,106.97 354.99,106.98 355.46,106.98C355.93,106.98 356.4,106.98 356.87,106.98C357.34,106.98 357.82,106.98 358.29,106.98C358.76,106.98 359.23,106.97 359.7,106.97C360.17,106.97 360.64,106.96 361.11,106.96C361.58,106.96 362.05,106.95 362.52,106.95C362.99,106.94 363.47,106.93 363.94,106.93C364.41,106.93 364.88,106.93 365.35,106.93C365.82,106.93 366.29,106.93 366.76,106.93C367.23,106.93 367.71,106.94 368.18,106.94C368.65,106.94 369.12,106.95 369.59,106.95C370.06,106.96 370.53,106.97 371,106.97C371.47,106.98 371.95,106.98 372.42,106.98C372.89,106.98 373.36,106.99 373.83,106.99C374.3,107 374.77,107.01 375.24,107.01Q375.71,107.01 376.66,107.01L376.66,107.02" style="vector-effect: none; stroke-width: 2px; stroke: rgb(164, 160, 40); stroke-opacity: 1; fill: rgb(205, 200, 50); fill-opacity: 0.5;"/><path class="meanline" d="M85.9,70.54197692871094V107.02" style="fill: none; vector-effect: none; stroke-width: 2px; stroke-dasharray: 4px, 2px; stroke: rgb(164, 160, 40); stroke-opacity: 1;"/></g><g class="trace violins" style="opacity: 1;"><path class="violin" d="M45.55,85L45.55,83.73Q46.9,82.92 47.52,82.34C48.22,81.68 48.88,80.86 49.49,79.93C50.21,78.84 50.84,77.54 51.46,76.15C52.17,74.55 52.81,72.72 53.43,70.83C54.13,68.72 54.76,66.4 55.4,64.07C56.08,61.59 56.72,58.95 57.37,56.37C58.03,53.76 58.67,51.06 59.34,48.5C59.98,46.06 60.61,43.58 61.31,41.35C61.94,39.34 62.56,37.35 63.28,35.68C63.89,34.27 64.5,32.9 65.25,31.92C65.85,31.14 66.51,30.42 67.22,30.11C67.83,29.85 68.55,29.83 69.19,29.97C69.87,30.11 70.53,30.58 71.16,31.02C71.85,31.5 72.49,32.15 73.13,32.78C73.8,33.44 74.45,34.17 75.1,34.89C75.76,35.61 76.41,36.36 77.07,37.1C77.73,37.84 78.38,38.59 79.04,39.34C79.7,40.09 80.36,40.85 81.01,41.61C81.67,42.38 82.33,43.16 82.98,43.94C83.64,44.73 84.3,45.53 84.95,46.33C85.61,47.14 86.26,47.96 86.92,48.77C87.58,49.58 88.23,50.4 88.89,51.2C89.54,52 90.2,52.8 90.86,53.58C91.51,54.35 92.17,55.1 92.83,55.83C93.48,56.55 94.13,57.26 94.8,57.93C95.45,58.59 96.11,59.22 96.77,59.83C97.42,60.43 98.08,61 98.74,61.55C99.39,62.09 100.05,62.6 100.71,63.11C101.36,63.61 102.02,64.09 102.68,64.57C103.34,65.05 103.99,65.53 104.65,66C105.31,66.47 105.96,66.94 106.62,67.4C107.28,67.86 107.94,68.33 108.6,68.78C109.25,69.22 109.91,69.67 110.57,70.08C111.22,70.48 111.88,70.87 112.54,71.22C113.19,71.56 113.85,71.87 114.51,72.15C115.16,72.42 115.82,72.65 116.48,72.87C117.13,73.08 117.79,73.26 118.45,73.44C119.11,73.62 119.76,73.76 120.42,73.93C121.08,74.1 121.73,74.26 122.39,74.44C123.05,74.62 123.7,74.81 124.36,75C125.02,75.2 125.67,75.4 126.33,75.61C126.99,75.82 127.64,76.04 128.3,76.26C128.96,76.47 129.61,76.69 130.27,76.9C130.93,77.11 131.58,77.31 132.24,77.5C132.9,77.69 133.55,77.87 134.21,78.04C134.86,78.2 135.52,78.35 136.18,78.49C136.84,78.62 137.49,78.74 138.15,78.85C138.81,78.96 139.46,79.05 140.12,79.13C140.78,79.21 141.43,79.28 142.09,79.34C142.75,79.4 143.4,79.45 144.06,79.51C144.72,79.56 145.37,79.61 146.03,79.67C146.69,79.73 147.34,79.79 148,79.85C148.66,79.92 149.31,79.99 149.97,80.06C150.63,80.14 151.28,80.22 151.94,80.3C152.6,80.38 153.25,80.47 153.91,80.55C154.57,80.63 155.22,80.71 155.88,80.79C156.54,80.87 157.19,80.94 157.85,81.01C158.51,81.08 159.16,81.13 159.82,81.19C160.48,81.25 161.13,81.3 161.79,81.35C162.45,81.4 163.1,81.45 163.76,81.5C164.42,81.55 165.07,81.6 165.73,81.65C166.39,81.7 167.04,81.75 167.7,81.8C168.36,81.85 169.01,81.9 169.67,81.95C170.33,82 170.98,82.04 171.64,82.09C172.3,82.14 172.95,82.18 173.61,82.23C174.27,82.28 174.92,82.32 175.58,82.37C176.24,82.41 176.89,82.46 177.55,82.5C178.21,82.55 178.86,82.59 179.52,82.64C180.18,82.69 180.83,82.74 181.49,82.79C182.15,82.84 182.8,82.89 183.46,82.95C184.12,83.01 184.77,83.08 185.43,83.14C186.09,83.21 186.74,83.27 187.4,83.34C188.06,83.41 188.71,83.48 189.37,83.55C190.03,83.62 190.68,83.68 191.34,83.74C192,83.8 192.65,83.85 193.31,83.9C193.97,83.95 194.62,83.98 195.28,84.02C195.94,84.05 196.59,84.08 197.25,84.11C197.91,84.14 198.56,84.16 199.22,84.18C199.88,84.2 200.53,84.21 201.19,84.23C201.85,84.25 202.5,84.27 203.16,84.29C203.82,84.31 204.47,84.33 205.13,84.35C205.79,84.37 206.44,84.39 207.1,84.41C207.76,84.43 208.41,84.45 209.07,84.47C209.73,84.49 210.38,84.5 211.04,84.52C211.7,84.53 212.35,84.55 213.01,84.56C213.67,84.57 214.32,84.57 214.98,84.58C215.64,84.58 216.29,84.59 216.95,84.59C217.61,84.59 218.26,84.59 218.92,84.59C219.58,84.59 220.23,84.58 220.89,84.57C221.55,84.56 222.2,84.55 222.86,84.54C223.52,84.53 224.17,84.51 224.83,84.49C225.49,84.47 226.15,84.46 226.81,84.44C227.47,84.42 228.12,84.41 228.78,84.39C229.44,84.38 230.09,84.36 230.75,84.35C231.41,84.34 232.06,84.35 232.72,84.35C233.38,84.35 234.03,84.36 234.69,84.37C235.35,84.38 236,84.41 236.66,84.43C237.32,84.45 237.97,84.47 238.63,84.49C239.29,84.51 239.94,84.54 240.6,84.56C241.26,84.58 241.91,84.6 242.57,84.62C243.23,84.64 243.88,84.65 244.54,84.67C245.2,84.68 245.85,84.7 246.51,84.71C247.17,84.72 247.82,84.74 248.48,84.75C249.14,84.76 249.79,84.77 250.45,84.78C251.11,84.79 251.76,84.79 252.42,84.79C253.08,84.79 253.73,84.8 254.39,84.8C255.05,84.8 255.7,84.8 256.36,84.8C257.02,84.8 257.67,84.79 258.33,84.79C258.99,84.79 259.64,84.79 260.3,84.79C260.96,84.79 261.61,84.79 262.27,84.79C262.93,84.79 263.58,84.8 264.24,84.8C264.9,84.81 265.55,84.81 266.21,84.82C266.87,84.83 267.52,84.84 268.18,84.85C268.84,84.86 269.49,84.87 270.15,84.88C270.81,84.89 271.46,84.89 272.12,84.89C272.78,84.89 273.43,84.9 274.09,84.9C274.75,84.9 275.4,84.89 276.06,84.89C276.72,84.89 277.37,84.88 278.03,84.88C278.69,84.88 279.34,84.87 280,84.87C280.66,84.87 281.31,84.86 281.97,84.86C282.63,84.86 283.28,84.86 283.94,84.86C284.6,84.86 285.25,84.87 285.91,84.87C286.57,84.87 287.22,84.87 287.88,84.87C288.54,84.87 289.19,84.88 289.85,84.88C290.51,84.88 291.16,84.88 291.82,84.88C292.48,84.88 293.13,84.88 293.79,84.88C294.45,84.88 295.1,84.87 295.76,84.87C296.42,84.87 297.07,84.86 297.73,84.86C298.39,84.86 299.04,84.85 299.7,84.85C300.36,84.85 301.01,84.84 301.67,84.84C302.33,84.84 302.98,84.83 303.64,84.83C304.3,84.83 304.95,84.82 305.61,84.82C306.27,84.82 306.92,84.82 307.58,84.82C308.24,84.82 308.89,84.83 309.55,84.84C310.21,84.85 310.86,84.85 311.52,84.86C312.18,84.87 312.83,84.88 313.49,84.89C314.15,84.9 314.8,84.9 315.46,84.9C316.12,84.9 316.77,84.91 317.43,84.91C318.09,84.91 318.74,84.9 319.4,84.89C320.06,84.88 320.71,84.88 321.37,84.87C322.03,84.86 322.68,84.85 323.34,84.84C324,84.83 324.65,84.83 325.31,84.82C325.97,84.81 326.62,84.8 327.28,84.8C327.94,84.8 328.59,84.8 329.25,84.8C329.91,84.8 330.56,84.8 331.22,84.81C331.88,84.82 332.53,84.83 333.19,84.84C333.85,84.85 334.5,84.85 335.16,84.86C335.82,84.87 336.47,84.88 337.13,84.89C337.79,84.9 338.44,84.91 339.1,84.92C339.76,84.93 340.41,84.94 341.07,84.95C341.73,84.96 342.38,84.96 343.04,84.97C343.7,84.97 344.35,84.98 345.01,84.98C345.67,84.98 346.33,84.99 346.99,84.99C347.65,84.99 348.3,85 348.96,85C349.62,85 350.27,85 350.93,85C351.59,85 352.24,85 352.9,85C353.56,85 354.21,84.99 354.87,84.99C355.53,84.99 356.18,84.98 356.84,84.98C357.5,84.98 358.15,84.97 358.81,84.97C359.47,84.96 360.12,84.96 360.78,84.95C361.44,84.95 362.09,84.94 362.75,84.94C363.41,84.93 364.06,84.92 364.72,84.92C365.38,84.92 366.03,84.92 366.69,84.92C367.35,84.92 368,84.93 368.66,84.93C369.32,84.93 369.97,84.94 370.63,84.94C371.29,84.94 371.94,84.95 372.6,84.95C373.26,84.96 373.91,84.96 374.57,84.97C375.23,84.97 375.88,84.98 376.54,84.98Q377.2,84.98 378.51,84.99L378.51,85" style="vector-effect: none; stroke-width: 2px; stroke: rgb(109, 78, 126); stroke-opacity: 1; fill: rgb(137, 97, 158); fill-opacity: 0.5;"/><path class="meanline" d="M91.53,54.363975524902344V85" style="fill: none; vector-effect: none; stroke-width: 2px; stroke-dasharray: 4px, 2px; stroke: rgb(109, 78, 126); stroke-opacity: 1;"/></g><g class="trace violins" style="opacity: 1;"><path class="violin" d="M40,62.99L40,61.49Q41.97,60.52 42.89,59.81C43.91,59.02 44.88,58.02 45.78,56.87C46.82,55.55 47.76,53.95 48.67,52.25C49.71,50.31 50.65,48.08 51.57,45.79C52.59,43.27 53.52,40.49 54.46,37.73C55.44,34.86 56.38,31.79 57.35,28.88C58.3,26.02 59.23,23.06 60.24,20.41C61.16,17.99 62.06,15.55 63.13,13.58C64.02,11.94 64.91,10.26 66.02,9.31C66.9,8.56 67.95,7.97 68.92,7.95C69.88,7.93 70.91,8.55 71.81,9.19C72.86,9.93 73.77,11.16 74.7,12.31C75.71,13.56 76.64,15.03 77.59,16.43C78.56,17.86 79.51,19.37 80.48,20.8C81.43,22.2 82.39,23.59 83.37,24.91C84.32,26.18 85.28,27.41 86.27,28.57C87.22,29.68 88.18,30.73 89.16,31.74C90.11,32.71 91.07,33.63 92.05,34.52C93,35.39 93.97,36.21 94.94,37.01C95.89,37.79 96.86,38.54 97.83,39.25C98.78,39.95 99.75,40.63 100.72,41.26C101.67,41.88 102.64,42.46 103.61,43.01C104.57,43.55 105.54,44.05 106.51,44.51C107.47,44.97 108.43,45.38 109.4,45.77C110.36,46.16 111.32,46.51 112.29,46.85C113.25,47.19 114.21,47.5 115.18,47.81C116.14,48.11 117.11,48.4 118.07,48.68C119.03,48.96 120,49.23 120.96,49.49C121.93,49.76 122.89,50.01 123.86,50.27C124.82,50.52 125.79,50.77 126.75,51.02C127.71,51.27 128.68,51.52 129.64,51.77C130.6,52.01 131.57,52.25 132.53,52.49C133.49,52.73 134.46,52.97 135.42,53.2C136.38,53.43 137.35,53.64 138.31,53.85C139.27,54.05 140.23,54.25 141.2,54.43C142.16,54.61 143.13,54.77 144.1,54.93C145.06,55.08 146.03,55.22 146.99,55.36C147.95,55.5 148.92,55.63 149.88,55.76C150.84,55.89 151.81,56.01 152.77,56.13C153.73,56.25 154.7,56.37 155.66,56.49C156.62,56.61 157.59,56.73 158.55,56.84C159.52,56.95 160.48,57.06 161.45,57.16C162.41,57.26 163.38,57.36 164.34,57.46C165.3,57.56 166.27,57.65 167.23,57.74C168.19,57.83 169.16,57.92 170.12,58.02C171.08,58.12 172.05,58.22 173.01,58.33C173.97,58.44 174.94,58.55 175.9,58.67C176.87,58.79 177.83,58.92 178.8,59.04C179.76,59.16 180.73,59.28 181.69,59.4C182.65,59.51 183.62,59.63 184.58,59.73C185.54,59.83 186.51,59.92 187.47,60C188.43,60.08 189.4,60.14 190.36,60.19C191.32,60.24 192.29,60.27 193.25,60.3C194.21,60.32 195.18,60.34 196.14,60.34C197.11,60.34 198.07,60.33 199.04,60.32C200,60.31 200.97,60.29 201.93,60.28C202.89,60.26 203.86,60.24 204.82,60.23C205.78,60.22 206.75,60.22 207.71,60.22C208.67,60.22 209.64,60.22 210.6,60.24C211.56,60.26 212.53,60.29 213.49,60.33C214.46,60.37 215.42,60.41 216.39,60.46C217.35,60.51 218.32,60.57 219.28,60.63C220.24,60.69 221.21,60.75 222.17,60.81C223.13,60.87 224.1,60.94 225.06,61C226.02,61.06 226.99,61.12 227.95,61.18C228.91,61.23 229.88,61.28 230.84,61.33C231.8,61.38 232.77,61.42 233.73,61.46C234.7,61.5 235.66,61.54 236.63,61.57C237.59,61.6 238.56,61.62 239.52,61.64C240.48,61.66 241.45,61.67 242.41,61.68C243.37,61.69 244.34,61.69 245.3,61.7C246.26,61.71 247.23,61.71 248.19,61.72C249.15,61.72 250.12,61.73 251.08,61.73C252.05,61.74 253.01,61.74 253.98,61.75C254.94,61.76 255.91,61.76 256.87,61.77C257.83,61.78 258.8,61.78 259.76,61.79C260.72,61.8 261.69,61.8 262.65,61.81C263.61,61.82 264.58,61.83 265.54,61.84C266.5,61.85 267.47,61.86 268.43,61.87C269.4,61.88 270.36,61.89 271.33,61.9C272.29,61.91 273.26,61.92 274.22,61.93C275.18,61.94 276.15,61.94 277.11,61.94C278.07,61.94 279.04,61.94 280,61.93C280.96,61.92 281.93,61.91 282.89,61.9C283.85,61.89 284.82,61.88 285.78,61.87C286.74,61.86 287.71,61.85 288.67,61.85C289.64,61.85 290.6,61.85 291.57,61.85C292.53,61.85 293.5,61.86 294.46,61.87C295.42,61.88 296.39,61.9 297.35,61.92C298.31,61.94 299.28,61.96 300.24,61.98C301.2,62 302.17,62.02 303.13,62.04C304.09,62.06 305.06,62.08 306.02,62.1C306.99,62.12 307.95,62.14 308.92,62.16C309.88,62.18 310.85,62.19 311.81,62.2C312.77,62.21 313.74,62.22 314.7,62.23C315.66,62.24 316.63,62.25 317.59,62.26C318.55,62.27 319.52,62.29 320.48,62.3C321.44,62.31 322.41,62.33 323.37,62.34C324.34,62.35 325.3,62.37 326.27,62.38C327.23,62.39 328.2,62.4 329.16,62.41C330.12,62.42 331.09,62.43 332.05,62.43C333.01,62.43 333.98,62.43 334.94,62.42C335.9,62.41 336.87,62.4 337.83,62.38C338.79,62.36 339.76,62.34 340.72,62.32C341.68,62.3 342.65,62.28 343.61,62.26C344.58,62.24 345.54,62.22 346.51,62.2C347.47,62.19 348.44,62.18 349.4,62.17C350.36,62.16 351.33,62.16 352.29,62.16C353.25,62.16 354.22,62.18 355.18,62.2C356.14,62.22 357.11,62.24 358.07,62.26C359.03,62.28 360,62.32 360.96,62.34C361.93,62.37 362.89,62.39 363.86,62.41C364.82,62.43 365.79,62.46 366.75,62.48C367.71,62.5 368.68,62.52 369.64,62.53C370.6,62.54 371.57,62.55 372.53,62.56C373.49,62.57 374.46,62.57 375.42,62.58C376.38,62.58 377.35,62.59 378.31,62.59C379.27,62.59 380.24,62.6 381.2,62.6C382.17,62.6 383.13,62.61 384.1,62.61C385.06,62.61 386.03,62.62 386.99,62.62C387.95,62.62 388.92,62.63 389.88,62.63C390.84,62.63 391.81,62.64 392.77,62.64C393.73,62.64 394.7,62.65 395.66,62.65C396.62,62.65 397.59,62.64 398.55,62.64C399.52,62.64 400.48,62.64 401.45,62.64C402.41,62.64 403.38,62.63 404.34,62.63C405.3,62.63 406.27,62.63 407.23,62.63C408.19,62.63 409.16,62.63 410.12,62.63C411.08,62.63 412.05,62.64 413.01,62.64C413.97,62.65 414.94,62.65 415.9,62.66C416.87,62.67 417.83,62.68 418.8,62.69C419.76,62.7 420.73,62.72 421.69,62.73C422.65,62.74 423.62,62.75 424.58,62.76C425.54,62.77 426.51,62.78 427.47,62.79C428.43,62.8 429.4,62.8 430.36,62.8C431.32,62.8 432.29,62.81 433.25,62.81C434.21,62.81 435.18,62.82 436.14,62.82C437.11,62.82 438.07,62.82 439.04,62.82C440,62.82 440.97,62.81 441.93,62.81C442.89,62.8 443.86,62.8 444.82,62.79C445.78,62.78 446.75,62.78 447.71,62.77C448.67,62.76 449.64,62.76 450.6,62.75C451.56,62.74 452.53,62.73 453.49,62.73C454.46,62.73 455.42,62.73 456.39,62.73C457.35,62.73 458.32,62.74 459.28,62.74C460.24,62.75 461.21,62.75 462.17,62.76C463.13,62.77 464.1,62.78 465.06,62.79C466.02,62.8 466.99,62.81 467.95,62.82C468.91,62.83 469.88,62.84 470.84,62.85C471.8,62.86 472.77,62.87 473.73,62.88C474.7,62.89 475.66,62.89 476.63,62.9C477.59,62.9 478.56,62.91 479.52,62.91C480.48,62.91 481.45,62.9 482.41,62.9C483.37,62.89 484.34,62.89 485.3,62.88C486.26,62.87 487.23,62.85 488.19,62.84C489.15,62.83 490.12,62.82 491.08,62.81C492.05,62.8 493.01,62.8 493.98,62.79C494.94,62.79 495.91,62.78 496.87,62.78C497.83,62.78 498.8,62.78 499.76,62.78C500.72,62.78 501.69,62.79 502.65,62.79C503.61,62.79 504.58,62.8 505.54,62.8C506.5,62.8 507.47,62.79 508.43,62.79C509.4,62.79 510.36,62.79 511.33,62.78C512.29,62.78 513.26,62.77 514.22,62.76C515.18,62.75 516.15,62.75 517.11,62.74C518.07,62.74 519.04,62.73 520,62.73C520.96,62.73 521.93,62.73 522.89,62.73C523.85,62.73 524.82,62.74 525.78,62.75C526.74,62.76 527.71,62.76 528.67,62.77C529.64,62.78 530.6,62.8 531.57,62.81C532.53,62.82 533.5,62.84 534.46,62.85C535.42,62.86 536.39,62.87 537.35,62.88C538.31,62.89 539.28,62.9 540.24,62.9C541.2,62.9 542.17,62.9 543.13,62.9C544.09,62.9 545.06,62.89 546.02,62.89C546.99,62.88 547.95,62.88 548.92,62.87C549.88,62.86 550.85,62.84 551.81,62.83C552.77,62.82 553.74,62.82 554.7,62.81C555.66,62.8 556.63,62.79 557.59,62.79C558.55,62.79 559.52,62.79 560.48,62.79C561.44,62.79 562.41,62.8 563.37,62.8C564.34,62.81 565.3,62.81 566.27,62.82C567.23,62.83 568.2,62.83 569.16,62.84C570.12,62.85 571.09,62.85 572.05,62.86C573.01,62.86 573.98,62.87 574.94,62.87C575.9,62.87 576.87,62.88 577.83,62.88C578.79,62.88 579.76,62.89 580.72,62.89C581.68,62.89 582.65,62.9 583.61,62.9C584.58,62.9 585.54,62.9 586.51,62.9C587.47,62.9 588.44,62.91 589.4,62.91C590.36,62.91 591.33,62.92 592.29,62.92C593.25,62.92 594.22,62.93 595.18,62.93C596.14,62.94 597.11,62.94 598.07,62.95C599.03,62.95 600,62.96 600.96,62.96C601.93,62.96 602.89,62.97 603.86,62.97C604.82,62.97 605.79,62.98 606.75,62.98C607.71,62.98 608.68,62.98 609.64,62.98C610.6,62.98 611.57,62.99 612.53,62.99C613.49,62.99 614.46,62.99 615.42,62.99C616.38,62.99 617.35,62.99 618.31,62.99C619.27,62.99 620.24,62.99 621.2,62.99C622.17,62.99 623.13,62.98 624.1,62.98C625.06,62.98 626.03,62.98 626.99,62.98C627.95,62.98 628.92,62.97 629.88,62.97C630.84,62.96 631.81,62.96 632.77,62.95C633.73,62.95 634.7,62.94 635.66,62.94C636.62,62.94 637.59,62.93 638.55,62.93C639.52,62.93 640.48,62.92 641.45,62.92C642.41,62.92 643.38,62.92 644.34,62.92C645.3,62.92 646.27,62.93 647.23,62.93C648.19,62.93 649.16,62.94 650.12,62.94C651.08,62.95 652.05,62.95 653.01,62.96C653.97,62.96 654.94,62.97 655.9,62.97C656.87,62.97 657.83,62.98 658.8,62.98C659.76,62.98 660.73,62.98 661.69,62.98C662.65,62.98 663.62,62.99 664.58,62.99C665.54,62.99 666.51,62.99 667.47,62.99C668.43,62.99 669.4,62.99 670.36,62.99C671.32,62.99 672.29,62.99 673.25,62.99C674.21,62.99 675.18,62.99 676.14,62.99C677.11,62.99 678.07,62.99 679.04,62.99C680,62.99 680.97,62.99 681.93,62.99C682.89,62.99 683.86,62.99 684.82,62.99C685.78,62.99 686.75,62.98 687.71,62.98C688.67,62.98 689.64,62.98 690.6,62.98C691.56,62.98 692.53,62.97 693.49,62.97C694.46,62.97 695.42,62.96 696.39,62.96C697.35,62.96 698.32,62.95 699.28,62.95C700.24,62.95 701.21,62.94 702.17,62.94C703.13,62.94 704.1,62.93 705.06,62.93C706.02,62.93 706.99,62.92 707.95,62.92C708.91,62.92 709.88,62.93 710.84,62.93C711.8,62.93 712.77,62.94 713.73,62.94C714.7,62.94 715.66,62.95 716.63,62.95C717.59,62.95 718.56,62.96 719.52,62.96C720.48,62.96 721.45,62.97 722.41,62.97C723.37,62.97 724.34,62.97 725.3,62.97C726.26,62.97 727.23,62.97 728.19,62.97C729.15,62.97 730.12,62.96 731.08,62.96C732.05,62.96 733.01,62.95 733.98,62.95C734.94,62.95 735.91,62.94 736.87,62.94C737.83,62.94 738.8,62.93 739.76,62.93C740.72,62.93 741.69,62.92 742.65,62.92C743.61,62.92 744.58,62.93 745.54,62.93C746.5,62.93 747.47,62.94 748.43,62.94C749.4,62.94 750.36,62.95 751.33,62.95C752.29,62.95 753.26,62.96 754.22,62.96C755.18,62.96 756.15,62.97 757.11,62.97Q758.07,62.97 760,62.98L760,62.99" style="vector-effect: none; stroke-width: 2px; stroke: rgb(7, 74, 197); stroke-opacity: 1; fill: rgb(9, 92, 246); fill-opacity: 0.5;"/><path class="meanline" d="M109.67,45.878170013427734V62.99" style="fill: none; vector-effect: none; stroke-width: 2px; stroke-dasharray: 4px, 2px; stroke: rgb(7, 74, 197); stroke-opacity: 1;"/></g></g></g><g class="overplot"/><path class="xlines-above crisp" d="M0,0" style="fill: none;"/><path class="ylines-above crisp" d="M0,0" style="fill: none;"/><g class="overlines-above"/><g class="xaxislayer-above"><g class="xtick"><text text-anchor="middle" x="0" y="172" transform="translate(54.38,0)" style="font-family: 'Open Sans', verdana, arial, sans-serif; font-size: 12px; fill: rgb(242, 245, 250); fill-opacity: 1; white-space: pre; opacity: 1;">0</text></g><g class="xtick"><text text-anchor="middle" x="0" y="172" style="font-family: 'Open Sans', verdana, arial, sans-serif; font-size: 12px; fill: rgb(242, 245, 250); fill-opacity: 1; white-space: pre; opacity: 1;" transform="translate(205.97,0)">100</text></g><g class="xtick"><text text-anchor="middle" x="0" y="172" style="font-family: 'Open Sans', verdana, arial, sans-serif; font-size: 12px; fill: rgb(242, 245, 250); fill-opacity: 1; white-space: pre; opacity: 1;" transform="translate(357.55,0)">200</text></g><g class="xtick"><text text-anchor="middle" x="0" y="172" style="font-family: 'Open Sans', verdana, arial, sans-serif; font-size: 12px; fill: rgb(242, 245, 250); fill-opacity: 1; white-space: pre; opacity: 1;" transform="translate(509.14,0)">300</text></g><g class="xtick"><text text-anchor="middle" x="0" y="172" style="font-family: 'Open Sans', verdana, arial, sans-serif; font-size: 12px; fill: rgb(242, 245, 250); fill-opacity: 1; white-space: pre; opacity: 1;" transform="translate(660.73,0)">400</text></g></g><g class="yaxislayer-above"/><g class="overaxes-above"/></g></g><g class="polarlayer"/><g class="smithlayer"/><g class="ternarylayer"/><g class="geolayer"/><g class="funnelarealayer"/><g class="pielayer"/><g class="iciclelayer"/><g class="treemaplayer"/><g class="sunburstlayer"/><g class="glimages"/><defs id="topdefs-3cd2f3"><g class="clips"/></defs><g class="layer-above"><g class="imagelayer"/><g class="shapelayer"/></g><g class="infolayer"><g class="g-gtitle"/><g class="g-xtitle" transform="translate(0,-2.3000000000000114)"><text class="xtitle" x="400" y="199.3" text-anchor="middle" style="font-family: 'Open Sans', verdana, arial, sans-serif; font-size: 14px; fill: rgb(242, 245, 250); opacity: 1; white-space: pre;">Life Span</text></g><g class="g-ytitle"/></g></svg>