<svg class="main-svg" xmlns="http://www.w3.org/2000/svg" xmlns:xlink="http://www.w3.org/1999/xlink" width="800" height="200" style="" viewBox="0 0 800 200"><rect x="0" y="0" width="800" height="200" style="fill: rgb(0, 0, 0); fill-opacity: 0;"/><defs id="defs-4cc864"><g class="clips"><clipPath id="clip4cc864xyplot" class="plotclip"><rect width="721" height="144"/></clipPath><clipPath class="axesclip" id="clip4cc864x"><rect x="35" y="0" width="721" height="200"/></clipPath><clipPath class="axesclip" id="clip4cc864y"><rect x="0" y="0" width="800" height="144"/></clipPath><clipPath class="axesclip" id="clip4cc864xy"><rect x="35" y="0" width="721" height="144"/></clipPath></g><g class="gradients"/><g class="patterns"/></defs><g class="bglayer"><rect class="bg" x="35" y="0" width="721" height="144" style="fill: rgb(0, 0, 0); fill-opacity: 0; stroke-width: 0;"/></g><g class="layer-below"><g class="imagelayer"/><g class="shapelayer"/></g><g class="cartesianlayer"><g class="subplot xy"><g class="layer-subplot"><g class="shapelayer"/><g class="imagelayer"/></g><g class="minor-gridlayer"><g class="x"/><g class="y"/></g><g class="gridlayer"><g class="x"/><g class="y"/></g><g class="zerolinelayer"/><g class="layer-between"><g class="shapelayer"/><g class="imagelayer"/></g><path class="xlines-below"/><path class="ylines-below"/><g class="overlines-below"/><g class="xaxislayer-below"/><g class="yaxislayer-below"/><g class="overaxes-below"/><g class="plot" transform="translate(35,0)" clip-path="url(#clip4cc864xyplot)"><g class="violinlayer mlayer"><g class="trace violins" style="opacity: 1;"><path class="violin" d="M-22.96,136.8L-22.96,134.72Q-20.4,133.59 -19.17,132.81C-17.87,131.99 -16.61,130.98 -15.39,129.87C-14.08,128.67 -12.83,127.27 -11.6,125.82C-10.3,124.29 -9.07,122.57 -7.82,120.89C-6.54,119.17 -5.3,117.33 -4.03,115.6C-2.78,113.9 -1.55,112.16 -0.25,110.61C0.98,109.16 2.22,107.73 3.54,106.56C4.75,105.48 6.01,104.5 7.32,103.79C8.54,103.13 9.82,102.63 11.1,102.36C12.34,102.1 13.63,102.05 14.89,102.14C16.16,102.23 17.43,102.52 18.67,102.9C19.95,103.29 21.22,103.85 22.46,104.46C23.74,105.09 24.99,105.86 26.24,106.64C27.52,107.43 28.77,108.33 30.03,109.17C31.29,110.01 32.53,110.92 33.81,111.7C35.06,112.46 36.31,113.23 37.6,113.78C38.83,114.3 40.1,114.76 41.38,114.94C42.63,115.12 43.93,115.11 45.17,114.87C46.45,114.62 47.73,114.08 48.95,113.41C50.26,112.69 51.52,111.68 52.74,110.61C54.05,109.46 55.29,108.08 56.52,106.68C57.81,105.21 59.05,103.58 60.3,101.98C61.57,100.36 62.81,98.63 64.09,97.02C65.34,95.44 66.56,93.81 67.87,92.41C69.09,91.1 70.33,89.77 71.66,88.84C72.86,88 74.14,87.22 75.44,86.95C76.67,86.7 78.01,86.79 79.23,87.18C80.55,87.6 81.81,88.55 83.01,89.53C84.35,90.63 85.57,92.13 86.8,93.58C88.1,95.11 89.31,96.87 90.58,98.5C91.84,100.12 93.07,101.83 94.37,103.33C95.6,104.74 96.83,106.14 98.15,107.27C99.36,108.31 100.62,109.23 101.93,109.91C103.15,110.55 104.44,110.98 105.72,111.3C106.96,111.61 108.24,111.71 109.5,111.84C110.76,111.97 112.03,111.98 113.29,112.1C114.55,112.22 115.82,112.33 117.07,112.56C118.34,112.8 119.61,113.11 120.86,113.51C122.13,113.92 123.39,114.44 124.64,115C125.92,115.57 127.17,116.24 128.43,116.9C129.7,117.56 130.95,118.29 132.21,118.97C133.47,119.65 134.73,120.35 136,120.99C137.25,121.62 138.51,122.23 139.78,122.77C141.03,123.3 142.29,123.79 143.56,124.22C144.81,124.64 146.08,125 147.35,125.31C148.6,125.62 149.87,125.86 151.13,126.09C152.39,126.32 153.66,126.49 154.92,126.68C156.18,126.87 157.44,127.03 158.7,127.21C159.96,127.4 161.23,127.58 162.49,127.79C163.75,128 165.01,128.24 166.27,128.47C167.53,128.7 168.8,128.96 170.06,129.19C171.32,129.42 172.58,129.66 173.84,129.85C175.1,130.04 176.37,130.22 177.63,130.33C178.89,130.44 180.15,130.5 181.41,130.5C182.67,130.5 183.93,130.43 185.19,130.32C186.45,130.21 187.72,130.04 188.98,129.85C190.24,129.66 191.5,129.42 192.76,129.19C194.02,128.96 195.29,128.71 196.55,128.49C197.81,128.27 199.07,128.06 200.33,127.89C201.59,127.73 202.86,127.58 204.12,127.5C205.38,127.42 206.64,127.38 207.9,127.4C209.16,127.42 210.43,127.49 211.69,127.61C212.95,127.73 214.21,127.9 215.47,128.12C216.74,128.34 218,128.62 219.26,128.91C220.52,129.21 221.78,129.54 223.04,129.89C224.31,130.24 225.57,130.62 226.83,131C228.09,131.38 229.35,131.77 230.61,132.15C231.87,132.53 233.13,132.91 234.39,133.26C235.65,133.61 236.91,133.95 238.18,134.25C239.44,134.55 240.7,134.83 241.96,135.07C243.22,135.31 244.49,135.52 245.75,135.7C247.01,135.88 248.27,136.02 249.53,136.15C250.79,136.27 252.06,136.37 253.32,136.45C254.58,136.53 255.84,136.58 257.1,136.62Q258.36,136.67 260.89,136.72L260.89,136.8" style="vector-effect: none; stroke-width: 2px; stroke: rgb(164, 160, 40); stroke-opacity: 1; fill: rgb(205, 200, 50); fill-opacity: 0.5;"/><path class="meanline" d="M80.67,87.83881378173828V136.8" style="fill: none; vector-effect: none; stroke-width: 2px; stroke-dasharray: 4px, 2px; stroke: rgb(164, 160, 40); stroke-opacity: 1;"/></g><g class="trace violins" style="opacity: 1;"><path class="violin" d="M-9.66,116.86L-9.66,116.5Q-7,116.27 -5.67,116.05C-4.33,115.83 -2.99,115.58 -1.67,115.18C-0.32,114.77 1.02,114.28 2.32,113.61C3.69,112.91 5.04,112.05 6.32,111.02C7.71,109.91 9.04,108.57 10.31,107.1C11.71,105.49 13.03,103.62 14.31,101.67C15.7,99.55 17,97.19 18.3,94.81C19.67,92.32 20.97,89.63 22.3,87.03C23.63,84.43 24.91,81.7 26.29,79.22C27.58,76.89 28.85,74.49 30.29,72.57C31.54,70.9 32.81,69.16 34.28,68.24C35.52,67.46 36.97,66.9 38.28,67.02C39.64,67.14 41.03,68.07 42.27,69.06C43.73,70.22 45,72.06 46.27,73.81C47.67,75.74 48.94,78.04 50.26,80.22C51.61,82.44 52.9,84.83 54.26,87.01C55.57,89.1 56.86,91.24 58.26,93.05C59.53,94.69 60.82,96.31 62.25,97.46C63.51,98.47 64.87,99.38 66.25,99.73C67.54,100.05 68.96,100.01 70.24,99.63C71.63,99.22 72.98,98.24 74.24,97.19C75.67,96 76.95,94.34 78.23,92.68C79.63,90.87 80.92,88.75 82.23,86.7C83.58,84.58 84.87,82.26 86.22,80.13C87.53,78.06 88.82,75.9 90.22,74.1C91.49,72.46 92.77,70.78 94.21,69.7C95.46,68.76 96.85,67.92 98.21,67.74C99.51,67.57 100.94,67.94 102.2,68.54C103.62,69.21 104.93,70.52 106.2,71.8C107.61,73.22 108.89,75.04 110.19,76.77C111.55,78.58 112.85,80.59 114.19,82.46C115.51,84.31 116.81,86.22 118.18,87.94C119.48,89.58 120.8,91.18 122.18,92.57C123.47,93.86 124.8,95.06 126.18,96.05C127.47,96.97 128.81,97.75 130.17,98.36C131.47,98.95 132.82,99.36 134.17,99.69C135.49,100.01 136.83,100.18 138.16,100.31C139.49,100.44 140.83,100.45 142.16,100.45C143.49,100.45 144.82,100.37 146.15,100.29C147.48,100.21 148.82,100.09 150.15,99.95C151.48,99.81 152.81,99.64 154.14,99.43C155.48,99.22 156.81,98.98 158.14,98.7C159.48,98.41 160.8,98.08 162.13,97.72C163.47,97.36 164.8,96.94 166.13,96.54C167.46,96.15 168.78,95.69 170.12,95.35C171.45,95.01 172.78,94.66 174.12,94.48C175.44,94.3 176.78,94.18 178.11,94.24C179.45,94.3 180.79,94.51 182.11,94.83C183.46,95.16 184.78,95.67 186.1,96.22C187.45,96.78 188.77,97.49 190.1,98.16C191.44,98.84 192.75,99.6 194.09,100.28C195.42,100.96 196.75,101.64 198.09,102.24C199.41,102.83 200.75,103.37 202.09,103.84C203.41,104.3 204.74,104.69 206.08,105.05C207.41,105.4 208.75,105.68 210.08,105.97C211.41,106.25 212.74,106.49 214.07,106.76C215.4,107.03 216.74,107.28 218.07,107.58C219.4,107.88 220.73,108.2 222.06,108.55C223.4,108.91 224.73,109.3 226.06,109.71C227.39,110.12 228.72,110.59 230.05,111.03C231.38,111.48 232.72,111.94 234.05,112.38C235.38,112.82 236.7,113.26 238.04,113.65C239.37,114.04 240.7,114.4 242.04,114.71C243.37,115.02 244.7,115.3 246.03,115.53C247.36,115.76 248.7,115.94 250.03,116.09C251.36,116.24 252.69,116.35 254.02,116.45C255.35,116.54 256.69,116.61 258.02,116.66Q259.35,116.71 262.01,116.77L262.01,116.86" style="vector-effect: none; stroke-width: 2px; stroke: rgb(58, 146, 136); stroke-opacity: 1; fill: rgb(73, 182, 170); fill-opacity: 0.5;"/><path class="meanline" d="M101.15,68.11103820800781V116.86" style="fill: none; vector-effect: none; stroke-width: 2px; stroke-dasharray: 4px, 2px; stroke: rgb(58, 146, 136); stroke-opacity: 1;"/></g><g class="trace violins" style="opacity: 1;"><path class="violin" d="M29.07,96.92L29.07,96.28Q31.44,95.89 32.61,95.57C33.8,95.24 34.99,94.85 36.15,94.33C37.35,93.78 38.54,93.12 39.69,92.33C40.91,91.49 42.09,90.49 43.23,89.39C44.45,88.21 45.62,86.86 46.77,85.45C47.99,83.95 49.15,82.29 50.31,80.63C51.51,78.91 52.67,77.06 53.85,75.27C55.03,73.47 56.19,71.61 57.39,69.85C58.55,68.14 59.71,66.42 60.93,64.86C62.08,63.39 63.24,61.96 64.47,60.72C65.61,59.56 66.79,58.49 68.01,57.6C69.15,56.77 70.34,56.05 71.55,55.5C72.7,54.97 73.89,54.57 75.09,54.31C76.26,54.06 77.46,53.93 78.64,53.94C79.82,53.95 81.01,54.09 82.18,54.34C83.37,54.59 84.56,54.98 85.72,55.44C86.92,55.91 88.09,56.53 89.26,57.16C90.45,57.81 91.62,58.56 92.8,59.28C93.98,60 95.15,60.78 96.34,61.46C97.51,62.13 98.68,62.83 99.88,63.35C101.04,63.86 102.22,64.32 103.42,64.57C104.58,64.81 105.79,64.94 106.96,64.84C108.15,64.74 109.35,64.43 110.5,63.96C111.72,63.46 112.9,62.69 114.04,61.86C115.26,60.97 116.42,59.84 117.58,58.72C118.79,57.55 119.94,56.2 121.12,54.96C122.3,53.72 123.44,52.38 124.66,51.27C125.81,50.22 126.96,49.15 128.2,48.44C129.33,47.79 130.54,47.24 131.74,47.08C132.9,46.92 134.13,47.1 135.28,47.44C136.5,47.8 137.67,48.56 138.82,49.29C140.03,50.06 141.19,51.07 142.37,51.96C143.55,52.86 144.71,53.85 145.91,54.66C147.07,55.44 148.24,56.2 149.45,56.77C150.6,57.31 151.8,57.73 152.99,58.04C154.16,58.35 155.35,58.48 156.53,58.65C157.71,58.82 158.89,58.87 160.07,59.06C161.25,59.25 162.44,59.44 163.61,59.77C164.8,60.1 165.99,60.54 167.15,61.05C168.35,61.57 169.52,62.23 170.69,62.87C171.88,63.52 173.04,64.28 174.23,64.94C175.4,65.59 176.57,66.28 177.77,66.82C178.93,67.34 180.11,67.83 181.31,68.15C182.48,68.47 183.67,68.66 184.85,68.76C186.03,68.86 187.21,68.82 188.39,68.77C189.57,68.72 190.75,68.56 191.93,68.47C193.11,68.39 194.29,68.26 195.47,68.26C196.65,68.26 197.84,68.28 199.01,68.45C200.2,68.62 201.39,68.88 202.55,69.27C203.75,69.67 204.94,70.2 206.1,70.82C207.31,71.46 208.48,72.24 209.64,73.08C210.85,73.96 212.02,74.96 213.18,75.99C214.38,77.05 215.55,78.21 216.72,79.37C217.91,80.54 219.08,81.79 220.26,82.98C221.44,84.16 222.6,85.38 223.8,86.5C224.96,87.59 226.14,88.67 227.34,89.63C228.5,90.55 229.67,91.42 230.88,92.17C232.04,92.89 233.22,93.51 234.42,94.04C235.58,94.55 236.77,94.96 237.96,95.3C239.13,95.64 240.32,95.88 241.5,96.08C242.68,96.28 243.86,96.41 245.04,96.52C246.22,96.63 247.4,96.68 248.58,96.74Q249.76,96.79 252.12,96.85L252.12,96.92" style="vector-effect: none; stroke-width: 2px; stroke: rgb(109, 78, 126); stroke-opacity: 1; fill: rgb(137, 97, 158); fill-opacity: 0.5;"/><path class="meanline" d="M130.94,47.24110794067383V96.92" style="fill: none; vector-effect: none; stroke-width: 2px; stroke-dasharray: 4px, 2px; stroke: rgb(109, 78, 126); stroke-opacity: 1;"/></g><g class="trace violins" style="opacity: 1;"><path class="violin" d="M96.44,76.98L96.44,76.48Q100.9,76.19 103.12,75.97C105.35,75.74 107.58,75.47 109.8,75.13C112.03,74.79 114.27,74.38 116.49,73.93C118.72,73.48 120.95,72.94 123.17,72.41C125.4,71.87 127.62,71.27 129.85,70.72C132.08,70.17 134.3,69.59 136.53,69.09C138.75,68.59 140.99,68.11 143.22,67.7C145.44,67.29 147.67,66.95 149.9,66.63C152.12,66.31 154.35,66.06 156.58,65.79C158.81,65.52 161.04,65.3 163.27,65.01C165.5,64.72 167.73,64.43 169.95,64.06C172.18,63.69 174.41,63.27 176.63,62.77C178.87,62.26 181.1,61.68 183.32,61.02C185.56,60.36 187.78,59.6 190,58.81C192.24,58.02 194.45,57.12 196.68,56.28C198.91,55.43 201.13,54.52 203.37,53.74C205.59,52.97 207.81,52.21 210.05,51.65C212.26,51.1 214.49,50.65 216.73,50.41C218.95,50.18 221.19,50.14 223.41,50.23C225.64,50.32 227.87,50.64 230.1,50.94C232.33,51.24 234.55,51.71 236.78,52.02C239,52.32 241.23,52.69 243.46,52.77C245.69,52.85 247.94,52.82 250.15,52.49C252.4,52.16 254.64,51.57 256.83,50.77C259.1,49.94 261.32,48.8 263.51,47.56C265.78,46.28 267.99,44.71 270.2,43.17C272.45,41.6 274.64,39.84 276.88,38.22C279.1,36.61 281.29,34.92 283.56,33.49C285.75,32.11 287.96,30.75 290.24,29.75C292.42,28.79 294.67,27.98 296.93,27.55C299.13,27.13 301.39,27 303.61,27.14C305.85,27.28 308.09,27.76 310.29,28.38C312.55,29.01 314.78,29.93 316.98,30.93C319.24,31.95 321.46,33.17 323.66,34.46C325.92,35.79 328.14,37.25 330.34,38.8C332.6,40.39 334.83,42.12 337.03,43.9C339.28,45.72 341.49,47.67 343.71,49.6C345.95,51.55 348.15,53.61 350.39,55.53C352.6,57.43 354.8,59.37 357.07,61.07C359.26,62.71 361.48,64.31 363.76,65.58C365.94,66.79 368.17,67.85 370.44,68.6C372.63,69.33 374.88,69.79 377.12,70.06C379.34,70.33 381.58,70.31 383.81,70.23C386.04,70.15 388.27,69.84 390.49,69.59C392.72,69.34 394.94,68.97 397.17,68.73C399.4,68.49 401.63,68.24 403.86,68.13C406.09,68.02 408.31,67.99 410.54,68.07C412.77,68.15 415,68.35 417.22,68.59C419.45,68.83 421.67,69.19 423.9,69.49C426.13,69.79 428.36,70.15 430.59,70.38C432.81,70.6 435.04,70.81 437.27,70.84C439.5,70.87 441.73,70.78 443.95,70.54C446.19,70.3 448.42,69.88 450.64,69.39C452.88,68.89 455.1,68.21 457.32,67.56C459.55,66.91 461.77,66.13 464,65.5C466.22,64.87 468.45,64.2 470.69,63.76C472.9,63.33 475.14,62.98 477.37,62.88C479.59,62.78 481.83,62.87 484.05,63.15C486.29,63.43 488.53,63.96 490.74,64.56C492.98,65.17 495.2,65.99 497.42,66.78C499.66,67.58 501.87,68.51 504.1,69.35C506.32,70.18 508.54,71.05 510.78,71.79C513,72.52 515.23,73.2 517.47,73.77C519.69,74.33 521.92,74.8 524.15,75.18Q526.37,75.56 530.83,76.07L530.83,76.98" style="vector-effect: none; stroke-width: 2px; stroke: rgb(162, 42, 112); stroke-opacity: 1; fill: rgb(203, 52, 140); fill-opacity: 0.5;"/><path class="meanline" d="M298.57,27.291614532470703V76.98" style="fill: none; vector-effect: none; stroke-width: 2px; stroke-dasharray: 4px, 2px; stroke: rgb(162, 42, 112); stroke-opacity: 1;"/></g><g class="trace violins" style="opacity: 1;"><path class="violin" d="M175,57.05L175,56.93Q178.75,56.86 180.63,56.81C182.51,56.76 184.38,56.69 186.26,56.61C188.14,56.52 190.01,56.43 191.89,56.3C193.77,56.17 195.64,56.02 197.52,55.83C199.4,55.64 201.28,55.42 203.16,55.14C205.04,54.86 206.92,54.55 208.79,54.17C210.67,53.78 212.55,53.34 214.42,52.82C216.31,52.29 218.18,51.69 220.05,51.02C221.94,50.35 223.81,49.57 225.68,48.79C227.56,48 229.43,47.12 231.31,46.31C233.19,45.5 235.06,44.64 236.95,43.93C238.81,43.23 240.69,42.55 242.58,42.08C244.44,41.62 246.33,41.27 248.21,41.13C250.08,40.99 251.97,41.06 253.84,41.25C255.72,41.44 257.6,41.85 259.47,42.28C261.36,42.71 263.22,43.32 265.1,43.84C266.98,44.36 268.85,44.96 270.74,45.41C272.61,45.86 274.49,46.28 276.37,46.55C278.24,46.82 280.12,46.97 282,47.02C283.88,47.07 285.76,46.96 287.63,46.84C289.51,46.72 291.38,46.46 293.26,46.28C295.14,46.1 297.01,45.87 298.89,45.74C300.77,45.61 302.65,45.51 304.53,45.49C306.41,45.47 308.28,45.56 310.16,45.63C312.04,45.7 313.91,45.88 315.79,45.93C317.67,45.98 319.55,46.07 321.42,45.96C323.3,45.85 325.19,45.66 327.05,45.25C328.95,44.83 330.84,44.23 332.68,43.47C334.59,42.68 336.46,41.65 338.31,40.56C340.22,39.43 342.08,38.1 343.95,36.8C345.84,35.48 347.69,34.02 349.58,32.68C351.45,31.36 353.3,29.99 355.21,28.81C357.06,27.67 358.93,26.56 360.84,25.7C362.68,24.87 364.57,24.17 366.47,23.68C368.32,23.21 370.22,22.92 372.1,22.79C373.97,22.66 375.87,22.73 377.74,22.88C379.62,23.03 381.5,23.35 383.37,23.68C385.25,24.01 387.13,24.46 389,24.88C390.88,25.3 392.75,25.78 394.63,26.21C396.5,26.63 398.38,27.08 400.26,27.43C402.13,27.78 404.01,28.11 405.89,28.31C407.76,28.51 409.65,28.65 411.53,28.62C413.41,28.59 415.3,28.43 417.16,28.1C419.05,27.76 420.94,27.24 422.79,26.58C424.69,25.9 426.57,25 428.42,24.03C430.33,23.03 432.19,21.84 434.05,20.65C435.94,19.44 437.8,18.11 439.68,16.85C441.55,15.6 443.41,14.28 445.31,13.13C447.17,12.01 449.04,10.9 450.95,10.02C452.8,9.17 454.68,8.4 456.58,7.93C458.43,7.47 460.33,7.18 462.21,7.2C464.09,7.22 466,7.5 467.84,8.05C469.76,8.62 471.65,9.54 473.47,10.62C475.41,11.77 477.28,13.27 479.1,14.85C481.04,16.53 482.89,18.5 484.74,20.46C486.65,22.49 488.5,24.72 490.37,26.86C492.25,29.01 494.1,31.24 496,33.32C497.85,35.35 499.71,37.38 501.63,39.19C503.46,40.92 505.33,42.56 507.26,43.98C509.09,45.33 510.97,46.54 512.89,47.56C514.73,48.54 516.63,49.34 518.53,50.04C520.39,50.72 522.27,51.23 524.16,51.7C526.03,52.16 527.91,52.51 529.79,52.85C531.66,53.19 533.54,53.45 535.42,53.72C537.3,53.99 539.17,54.24 541.05,54.48C542.93,54.72 544.8,54.94 546.68,55.15C548.56,55.36 550.44,55.56 552.32,55.74C554.2,55.92 556.07,56.08 557.95,56.22C559.83,56.36 561.7,56.46 563.58,56.56C565.46,56.65 567.33,56.73 569.21,56.79Q571.09,56.85 574.84,56.92L574.84,57.05" style="vector-effect: none; stroke-width: 2px; stroke: rgb(7, 74, 197); stroke-opacity: 1; fill: rgb(9, 92, 246); fill-opacity: 0.5;"/><path class="meanline" d="M399.39,27.26118278503418V57.05" style="fill: none; vector-effect: none; stroke-width: 2px; stroke-dasharray: 4px, 2px; stroke: rgb(7, 74, 197); stroke-opacity: 1;"/></g></g></g><g class="overplot"/><path class="xlines-above crisp" d="M0,0" style="fill: none;"/><path class="ylines-above crisp" d="M0,0" style="fill: none;"/><g class="overlines-above"/><g class="xaxislayer-above"><g class="xtick"><text text-anchor="middle" x="0" y="157" transform="translate(35,0)" style="font-family: 'Open Sans', verdana, arial, sans-serif; font-size: 12px; fill: rgb(242, 245, 250); fill-opacity: 1; white-space: pre; opacity: 0;"><tspan class="line" dy="0em" x="0" y="157">00:00:00</tspan><tspan class="line" dy="1.3em" x="0" y="157">Jan 1, 1970</tspan></text></g><g class="xtick"><text text-anchor="middle" x="0" y="157" style="font-family: 'Open Sans', verdana, arial, sans-serif; font-size: 12px; fill: rgb(242, 245, 250); fill-opacity: 1; white-space: pre; opacity: 0;" transform="translate(756,0)">00:00:00.0001</text></g></g><g class="yaxislayer-above"/><g class="overaxes-above"/></g></g><g class="polarlayer"/><g class="smithlayer"/><g class="ternarylayer"/><g class="geolayer"/><g class="funnelarealayer"/><g class="pielayer"/><g class="iciclelayer"/><g class="treemaplayer"/><g class="sunburstlayer"/><g class="glimages"/><defs id="topdefs-4cc864"><g class="clips"/></defs><g class="layer-above"><g class="imagelayer"/><g class="shapelayer"/></g><g class="infolayer"><g class="g-gtitle"/><g class="g-xtitle" transform="translate(0,-2.9093750000000114)"><text class="xtitle" x="395.5" y="199.909375" text-anchor="middle" style="font-family: 'Open Sans', verdana, arial, sans-serif; font-size: 14px; fill: rgb(242, 245, 250); opacity: 1; white-space: pre;">Created</text></g><g class="g-ytitle"/></g></svg>