<svg class="main-svg" xmlns="http://www.w3.org/2000/svg" xmlns:xlink="http://www.w3.org/1999/xlink" width="800" height="200" style="" viewBox="0 0 800 200"><rect x="0" y="0" width="800" height="200" style="fill: rgb(0, 0, 0); fill-opacity: 0;"/><defs id="defs-527a29"><g class="clips"><clipPath id="clip527a29xyplot" class="plotclip"><rect width="800" height="159"/></clipPath><clipPath class="axesclip" id="clip527a29x"><rect x="0" y="0" width="800" height="200"/></clipPath><clipPath class="axesclip" id="clip527a29y"><rect x="0" y="0" width="800" height="159"/></clipPath><clipPath class="axesclip" id="clip527a29xy"><rect x="0" y="0" width="800" height="159"/></clipPath></g><g class="gradients"/><g class="patterns"/></defs><g class="bglayer"><rect class="bg" x="0" y="0" width="800" height="159" style="fill: rgb(0, 0, 0); fill-opacity: 0; stroke-width: 0;"/></g><g class="layer-below"><g class="imagelayer"/><g class="shapelayer"/></g><g class="cartesianlayer"><g class="subplot xy"><g class="layer-subplot"><g class="shapelayer"/><g class="imagelayer"/></g><g class="minor-gridlayer"><g class="x"/><g class="y"/></g><g class="gridlayer"><g class="x"><path class="xgrid crisp" transform="translate(140.59,0)" d="M0,0v159" style="stroke: rgb(40, 52, 66); stroke-opacity: 1; stroke-width: 1px;"/><path class="xgrid crisp" transform="translate(224.9,0)" d="M0,0v159" style="stroke: rgb(40, 52, 66); stroke-opacity: 1; stroke-width: 1px;"/><path class="xgrid crisp" transform="translate(309.21,0)" d="M0,0v159" style="stroke: rgb(40, 52, 66); stroke-opacity: 1; stroke-width: 1px;"/><path class="xgrid crisp" transform="translate(393.51,0)" d="M0,0v159" style="stroke: rgb(40, 52, 66); stroke-opacity: 1; stroke-width: 1px;"/><path class="xgrid crisp" transform="translate(477.82,0)" d="M0,0v159" style="stroke: rgb(40, 52, 66); stroke-opacity: 1; stroke-width: 1px;"/><path class="xgrid crisp" transform="translate(562.13,0)" d="M0,0v159" style="stroke: rgb(40, 52, 66); stroke-opacity: 1; stroke-width: 1px;"/><path class="xgrid crisp" transform="translate(646.44,0)" d="M0,0v159" style="stroke: rgb(40, 52, 66); stroke-opacity: 1; stroke-width: 1px;"/><path class="xgrid crisp" transform="translate(730.75,0)" d="M0,0v159" style="stroke: rgb(40, 52, 66); stroke-opacity: 1; stroke-width: 1px;"/></g><g class="y"/></g><g class="zerolinelayer"><path class="xzl zl crisp" transform="translate(56.28,0)" d="M0,0v159" style="stroke: rgb(40, 52, 66); stroke-opacity: 1; stroke-width: 2px;"/></g><g class="layer-between"><g class="shapelayer"/><g class="imagelayer"/></g><path class="xlines-below"/><path class="ylines-below"/><g class="overlines-below"/><g class="xaxislayer-below"/><g class="yaxislayer-below"/><g class="overaxes-below"/><g class="plot" transform="" clip-path="url(#clip527a29xyplot)"><g class="violinlayer mlayer"><g class="trace violins" style="opacity: 1;"><path class="violin" d="M40,151.05L40,150.96Q42.75,150.9 44.12,150.84C45.49,150.78 46.87,150.72 48.24,150.62C49.61,150.52 50.98,150.4 52.35,150.25C53.72,150.1 55.1,149.91 56.47,149.7C57.85,149.48 59.22,149.23 60.59,148.96C61.97,148.69 63.34,148.38 64.71,148.08C66.08,147.78 67.45,147.45 68.82,147.15C70.19,146.85 71.56,146.54 72.94,146.27C74.31,146 75.68,145.76 77.06,145.55C78.43,145.35 79.81,145.17 81.18,145.04C82.55,144.91 83.92,144.82 85.29,144.77C86.66,144.72 88.04,144.72 89.41,144.75C90.78,144.78 92.16,144.85 93.53,144.94C94.9,145.03 96.28,145.16 97.65,145.3C99.02,145.43 100.39,145.6 101.76,145.75C103.13,145.9 104.51,146.06 105.88,146.19C107.25,146.32 108.63,146.45 110,146.54C111.37,146.63 112.75,146.7 114.12,146.71C115.49,146.72 116.86,146.7 118.23,146.6C119.6,146.5 120.98,146.34 122.35,146.09C123.73,145.83 125.11,145.51 126.47,145.06C127.86,144.6 129.24,144.02 130.59,143.33C131.99,142.61 133.36,141.75 134.7,140.8C136.11,139.8 137.47,138.64 138.82,137.44C140.22,136.19 141.58,134.8 142.94,133.4C144.33,131.97 145.69,130.44 147.06,128.95C148.44,127.45 149.79,125.9 151.17,124.41C152.54,122.93 153.9,121.45 155.29,120.03C156.65,118.63 158.02,117.27 159.41,115.94C160.77,114.64 162.15,113.37 163.53,112.13C164.89,110.9 166.26,109.7 167.64,108.52C169.01,107.35 170.38,106.18 171.76,105.06C173.12,103.95 174.49,102.83 175.88,101.82C177.24,100.83 178.6,99.85 180,99.04C181.34,98.26 182.71,97.52 184.11,97.01C185.46,96.52 186.85,96.14 188.23,96.01C189.59,95.88 190.99,95.95 192.35,96.2C193.74,96.45 195.13,96.94 196.47,97.54C197.87,98.17 199.24,99.01 200.58,99.91C201.98,100.85 203.35,101.95 204.7,103.07C206.1,104.23 207.45,105.52 208.82,106.77C210.2,108.04 211.56,109.38 212.94,110.64C214.3,111.89 215.65,113.16 217.05,114.3C218.4,115.4 219.77,116.47 221.17,117.37C222.51,118.24 223.89,119.01 225.29,119.64C226.64,120.25 228.02,120.71 229.41,121.1C230.77,121.48 232.14,121.73 233.52,121.95C234.89,122.17 236.27,122.29 237.64,122.43C239.01,122.56 240.39,122.66 241.76,122.76C243.13,122.86 244.51,122.95 245.88,123.05C247.25,123.15 248.62,123.24 249.99,123.35C251.36,123.46 252.74,123.56 254.11,123.7C255.48,123.84 256.86,123.99 258.23,124.21C259.61,124.43 260.98,124.68 262.35,125.01C263.73,125.34 265.1,125.74 266.46,126.18C267.84,126.63 269.21,127.16 270.58,127.7C271.96,128.24 273.33,128.85 274.7,129.43C276.07,130.01 277.44,130.63 278.82,131.2C280.19,131.76 281.55,132.31 282.93,132.82C284.3,133.33 285.67,133.81 287.05,134.26C288.42,134.71 289.79,135.12 291.17,135.53C292.54,135.94 293.92,136.33 295.29,136.72C296.66,137.11 298.03,137.49 299.4,137.86C300.77,138.23 302.14,138.59 303.52,138.92C304.89,139.25 306.26,139.57 307.64,139.83C309.01,140.08 310.38,140.3 311.76,140.45C313.13,140.6 314.5,140.7 315.87,140.75C317.24,140.8 318.62,140.77 319.99,140.74C321.36,140.71 322.74,140.61 324.11,140.54C325.48,140.47 326.86,140.38 328.23,140.34C329.6,140.3 330.97,140.26 332.34,140.29C333.71,140.32 335.09,140.4 336.46,140.54C337.84,140.68 339.21,140.88 340.58,141.12C341.96,141.37 343.33,141.68 344.7,142.01C346.07,142.34 347.44,142.72 348.81,143.1C350.18,143.48 351.56,143.88 352.93,144.27C354.3,144.66 355.67,145.05 357.05,145.42C358.42,145.79 359.79,146.14 361.17,146.47C362.54,146.79 363.91,147.1 365.28,147.37C366.65,147.64 368.02,147.88 369.4,148.11C370.77,148.33 372.15,148.54 373.52,148.72C374.89,148.9 376.27,149.07 377.64,149.21C379.01,149.35 380.38,149.47 381.75,149.57C383.12,149.67 384.5,149.74 385.87,149.8C387.24,149.85 388.62,149.89 389.99,149.9C391.36,149.91 392.74,149.89 394.11,149.87C395.48,149.85 396.85,149.8 398.22,149.76C399.59,149.72 400.97,149.67 402.34,149.63C403.71,149.6 405.09,149.56 406.46,149.55C407.83,149.54 409.21,149.55 410.58,149.58C411.95,149.61 413.32,149.66 414.69,149.72C416.06,149.78 417.44,149.87 418.81,149.95C420.18,150.03 421.56,150.13 422.93,150.22C424.3,150.31 425.68,150.39 427.05,150.47C428.42,150.55 429.79,150.63 431.16,150.69C432.53,150.75 433.91,150.8 435.28,150.84C436.65,150.88 438.03,150.91 439.4,150.94Q440.77,150.97 443.52,151L443.52,151.05" style="vector-effect: none; stroke-width: 2px; stroke: rgb(164, 160, 40); stroke-opacity: 1; fill: rgb(205, 200, 50); fill-opacity: 0.5;"/><path class="meanline" d="M216.2,113.58834075927734V151.05" style="fill: none; vector-effect: none; stroke-width: 2px; stroke-dasharray: 4px, 2px; stroke: rgb(164, 160, 40); stroke-opacity: 1;"/></g><g class="trace violins" style="opacity: 1;"><path class="violin" d="M185.44,129.03L185.44,128.95Q187.94,128.91 189.19,128.88C190.44,128.85 191.69,128.81 192.94,128.77C194.19,128.73 195.44,128.68 196.69,128.62C197.94,128.56 199.19,128.5 200.44,128.43C201.69,128.36 202.94,128.28 204.19,128.19C205.44,128.1 206.69,128.02 207.94,127.91C209.19,127.8 210.44,127.68 211.69,127.53C212.94,127.38 214.19,127.23 215.44,127.03C216.69,126.83 217.95,126.6 219.19,126.31C220.45,126.02 221.7,125.7 222.94,125.31C224.2,124.91 225.45,124.47 226.69,123.95C227.95,123.42 229.2,122.81 230.44,122.16C231.7,121.49 232.95,120.74 234.19,119.97C235.45,119.18 236.69,118.32 237.94,117.48C239.19,116.63 240.43,115.74 241.69,114.9C242.93,114.07 244.18,113.23 245.44,112.47C246.68,111.73 247.92,111.03 249.19,110.41C250.43,109.81 251.68,109.27 252.94,108.81C254.18,108.36 255.43,107.98 256.69,107.66C257.93,107.34 259.19,107.09 260.44,106.87C261.69,106.66 262.94,106.49 264.19,106.37C265.44,106.25 266.69,106.16 267.94,106.13C269.19,106.1 270.43,106.12 271.68,106.18C272.93,106.24 274.18,106.37 275.43,106.47C276.68,106.57 277.93,106.74 279.18,106.8C280.43,106.86 281.69,106.95 282.93,106.84C284.19,106.73 285.46,106.55 286.68,106.15C287.96,105.73 289.23,105.11 290.43,104.33C291.74,103.48 292.98,102.36 294.18,101.16C295.49,99.85 296.71,98.28 297.93,96.7C299.22,95.02 300.44,93.15 301.68,91.35C302.94,89.53 304.15,87.59 305.43,85.83C306.66,84.14 307.87,82.4 309.18,80.96C310.38,79.65 311.6,78.36 312.93,77.49C314.12,76.71 315.4,76.09 316.68,75.85C317.9,75.62 319.2,75.74 320.43,75.99C321.7,76.25 322.94,76.86 324.18,77.41C325.45,77.97 326.67,78.75 327.93,79.32C329.17,79.88 330.41,80.51 331.68,80.83C332.91,81.14 334.19,81.34 335.43,81.27C336.69,81.2 337.96,80.84 339.18,80.39C340.46,79.92 341.69,79.17 342.93,78.49C344.19,77.8 345.41,76.93 346.68,76.27C347.91,75.63 349.15,74.94 350.43,74.56C351.65,74.2 352.93,73.97 354.18,74C355.43,74.03 356.7,74.34 357.93,74.73C359.2,75.13 360.44,75.81 361.68,76.4C362.94,77 364.17,77.75 365.43,78.32C366.67,78.87 367.91,79.44 369.18,79.77C370.41,80.09 371.68,80.27 372.93,80.29C374.18,80.31 375.44,80.1 376.68,79.89C377.94,79.68 379.18,79.27 380.43,79.03C381.68,78.79 382.93,78.48 384.18,78.46C385.43,78.44 386.71,78.53 387.93,78.92C389.22,79.33 390.49,80.06 391.68,80.93C393,81.89 394.22,83.21 395.42,84.56C396.72,86.02 397.94,87.75 399.17,89.44C400.44,91.19 401.66,93.1 402.92,94.89C404.16,96.66 405.38,98.49 406.67,100.14C407.89,101.7 409.12,103.24 410.42,104.56C411.63,105.78 412.87,106.91 414.17,107.81C415.38,108.64 416.64,109.33 417.92,109.83C419.14,110.31 420.41,110.6 421.67,110.81C422.91,111.02 424.17,111.06 425.42,111.11C426.67,111.16 427.92,111.09 429.17,111.09C430.42,111.09 431.67,111.06 432.92,111.12C434.17,111.18 435.42,111.27 436.67,111.45C437.92,111.63 439.18,111.88 440.42,112.18C441.68,112.48 442.93,112.87 444.17,113.27C445.43,113.67 446.67,114.14 447.92,114.6C449.17,115.07 450.42,115.57 451.67,116.06C452.92,116.56 454.17,117.06 455.42,117.57C456.67,118.08 457.92,118.6 459.17,119.12C460.42,119.64 461.67,120.17 462.92,120.7C464.17,121.23 465.42,121.77 466.67,122.3C467.92,122.82 469.17,123.35 470.42,123.85C471.67,124.34 472.91,124.83 474.17,125.27C475.41,125.7 476.66,126.11 477.92,126.46C479.16,126.81 480.42,127.12 481.67,127.39C482.92,127.65 484.17,127.87 485.42,128.05C486.67,128.23 487.92,128.37 489.17,128.49C490.42,128.61 491.67,128.68 492.92,128.75C494.17,128.82 495.42,128.86 496.67,128.9Q497.92,128.94 500.42,128.97L500.42,129.03" style="vector-effect: none; stroke-width: 2px; stroke: rgb(58, 146, 136); stroke-opacity: 1; fill: rgb(73, 182, 170); fill-opacity: 0.5;"/><path class="meanline" d="M346.94,76.1336441040039V129.03" style="fill: none; vector-effect: none; stroke-width: 2px; stroke-dasharray: 4px, 2px; stroke: rgb(58, 146, 136); stroke-opacity: 1;"/></g><g class="trace violins" style="opacity: 1;"><path class="violin" d="M338.11,107.02L338.11,106.38Q341.45,106.04 343.11,105.78C344.78,105.52 346.44,105.21 348.1,104.83C349.77,104.45 351.44,104 353.1,103.49C354.77,102.98 356.43,102.39 358.09,101.78C359.76,101.17 361.43,100.49 363.09,99.83C364.76,99.17 366.42,98.47 368.09,97.8C369.75,97.13 371.41,96.47 373.08,95.82C374.74,95.17 376.42,94.56 378.08,93.91C379.75,93.26 381.42,92.64 383.07,91.9C384.75,91.15 386.43,90.38 388.07,89.45C389.76,88.49 391.44,87.42 393.06,86.19C394.77,84.89 396.44,83.4 398.06,81.81C399.77,80.13 401.42,78.23 403.05,76.31C404.75,74.31 406.39,72.13 408.05,70.02C409.72,67.9 411.34,65.67 413.04,63.64C414.67,61.68 416.3,59.69 418.04,58.04C419.64,56.52 421.29,55.04 423.03,54.03C424.63,53.1 426.33,52.39 428.03,52.05C429.66,51.73 431.37,51.79 433.02,51.98C434.7,52.17 436.37,52.74 438.02,53.23C439.7,53.73 441.34,54.42 443.01,54.97C444.67,55.52 446.34,56.08 448.01,56.54C449.67,57 451.34,57.35 453.01,57.75C454.67,58.15 456.35,58.46 458,58.96C459.68,59.47 461.37,60.02 463,60.8C464.7,61.61 466.37,62.63 467.99,63.79C469.71,65.01 471.35,66.5 472.99,68C474.69,69.55 476.31,71.31 477.98,72.95C479.64,74.58 481.28,76.32 482.98,77.82C484.61,79.25 486.25,80.68 487.97,81.79C489.59,82.84 491.26,83.75 492.97,84.37C494.6,84.96 496.29,85.32 497.96,85.5C499.62,85.68 501.3,85.59 502.96,85.45C504.63,85.31 506.29,84.99 507.95,84.66C509.62,84.33 511.29,83.9 512.95,83.48C514.62,83.06 516.28,82.61 517.94,82.15C519.61,81.69 521.28,81.21 522.94,80.72C524.61,80.23 526.27,79.73 527.93,79.2C529.6,78.67 531.27,78.12 532.93,77.55C534.6,76.98 536.27,76.38 537.93,75.78C539.6,75.18 541.25,74.55 542.92,73.97C544.58,73.39 546.25,72.79 547.92,72.29C549.58,71.79 551.24,71.31 552.91,70.97C554.57,70.63 556.24,70.37 557.91,70.25C559.57,70.13 561.24,70.14 562.9,70.25C564.57,70.36 566.24,70.61 567.9,70.91C569.57,71.21 571.23,71.62 572.89,72.06C574.56,72.5 576.23,73 577.89,73.55C579.56,74.11 581.23,74.69 582.88,75.38C584.56,76.08 586.24,76.85 587.88,77.74C589.57,78.66 591.23,79.69 592.87,80.81C594.56,81.96 596.22,83.26 597.87,84.57C599.55,85.91 601.2,87.37 602.86,88.78C604.53,90.19 606.18,91.66 607.86,93.02C609.51,94.35 611.16,95.67 612.85,96.86C614.49,98.01 616.16,99.11 617.85,100.06C619.49,100.98 621.16,101.79 622.84,102.5C624.49,103.19 626.16,103.77 627.84,104.26C629.49,104.74 631.17,105.11 632.84,105.43C634.5,105.75 636.16,105.97 637.83,106.17Q639.49,106.36 642.83,106.6L642.83,107.02" style="vector-effect: none; stroke-width: 2px; stroke: rgb(109, 78, 126); stroke-opacity: 1; fill: rgb(137, 97, 158); fill-opacity: 0.5;"/><path class="meanline" d="M486.08,80.43433380126953V107.02" style="fill: none; vector-effect: none; stroke-width: 2px; stroke-dasharray: 4px, 2px; stroke: rgb(109, 78, 126); stroke-opacity: 1;"/></g><g class="trace violins" style="opacity: 1;"><path class="violin" d="M131.6,85L131.6,84.88Q136.31,84.8 138.67,84.73C141.03,84.66 143.38,84.59 145.74,84.48C148.1,84.37 150.45,84.24 152.81,84.09C155.17,83.93 157.52,83.75 159.88,83.55C162.24,83.35 164.6,83.12 166.96,82.91C169.32,82.7 171.67,82.47 174.03,82.28C176.39,82.09 178.74,81.9 181.1,81.77C183.46,81.64 185.81,81.55 188.17,81.51C190.53,81.47 192.88,81.49 195.24,81.55C197.6,81.61 199.95,81.72 202.31,81.85C204.67,81.98 207.02,82.16 209.38,82.32C211.74,82.48 214.1,82.67 216.46,82.83C218.82,82.99 221.17,83.15 223.53,83.29C225.89,83.43 228.24,83.55 230.6,83.65C232.96,83.75 235.31,83.82 237.67,83.89C240.03,83.95 242.38,84 244.74,84.04C247.1,84.07 249.45,84.1 251.81,84.1C254.17,84.1 256.52,84.08 258.88,84.05C261.24,84.02 263.6,83.97 265.96,83.9C268.32,83.83 270.67,83.74 273.03,83.63C275.39,83.52 277.74,83.39 280.1,83.25C282.46,83.11 284.81,82.94 287.17,82.78C289.53,82.62 291.88,82.45 294.24,82.28C296.6,82.11 298.95,81.94 301.31,81.77C303.67,81.6 306.02,81.44 308.38,81.28C310.74,81.12 313.1,80.96 315.46,80.79C317.82,80.62 320.17,80.46 322.53,80.27C324.89,80.08 327.24,79.89 329.6,79.67C331.96,79.45 334.32,79.21 336.67,78.94C339.03,78.67 341.39,78.37 343.74,78.03C346.1,77.69 348.46,77.3 350.81,76.89C353.17,76.47 355.53,76.02 357.88,75.54C360.24,75.06 362.6,74.53 364.96,74C367.32,73.46 369.67,72.9 372.03,72.33C374.39,71.76 376.74,71.18 379.1,70.6C381.46,70.01 383.81,69.42 386.17,68.82C388.53,68.22 390.88,67.6 393.24,66.98C395.6,66.35 397.95,65.72 400.31,65.07C402.67,64.42 405.02,63.75 407.38,63.09C409.74,62.43 412.09,61.74 414.45,61.1C416.81,60.46 419.17,59.82 421.53,59.24C423.88,58.67 426.24,58.12 428.6,57.65C430.95,57.18 433.31,56.78 435.67,56.44C438.02,56.11 440.38,55.85 442.74,55.64C445.09,55.43 447.45,55.3 449.81,55.17C452.17,55.04 454.52,54.98 456.88,54.88C459.24,54.78 461.59,54.71 463.95,54.56C466.31,54.41 468.68,54.25 471.03,53.97C473.39,53.68 475.76,53.34 478.1,52.85C480.47,52.35 482.83,51.75 485.17,50.99C487.55,50.22 489.91,49.28 492.24,48.25C494.62,47.19 496.97,45.96 499.31,44.71C501.68,43.44 504.02,42.01 506.38,40.67C508.73,39.33 511.07,37.92 513.45,36.68C515.79,35.46 518.14,34.25 520.53,33.3C522.86,32.37 525.22,31.56 527.6,31C529.93,30.45 532.31,30.11 534.67,29.97C537.02,29.83 539.39,29.91 541.74,30.14C544.1,30.37 546.47,30.81 548.81,31.34C551.18,31.88 553.54,32.58 555.88,33.37C558.25,34.17 560.61,35.1 562.95,36.1C565.33,37.11 567.68,38.24 570.03,39.4C572.4,40.57 574.75,41.84 577.1,43.1C579.46,44.36 581.81,45.69 584.17,46.96C586.52,48.22 588.87,49.51 591.24,50.7C593.58,51.87 595.93,53.03 598.31,54.05C600.65,55.05 603,55.99 605.38,56.77C607.72,57.54 610.08,58.19 612.45,58.7C614.79,59.21 617.16,59.57 619.52,59.84C621.87,60.11 624.24,60.22 626.6,60.33C628.96,60.44 631.31,60.43 633.67,60.5C636.03,60.58 638.39,60.61 640.74,60.78C643.1,60.96 645.46,61.18 647.81,61.55C650.18,61.93 652.54,62.42 654.88,63.04C657.25,63.66 659.61,64.44 661.95,65.28C664.32,66.13 666.67,67.12 669.02,68.11C671.39,69.11 673.74,70.2 676.1,71.25C678.46,72.29 680.81,73.38 683.17,74.38C685.52,75.37 687.87,76.36 690.24,77.24C692.58,78.11 694.94,78.94 697.31,79.66C699.65,80.37 702.01,81.01 704.38,81.55C706.73,82.09 709.09,82.54 711.45,82.92C713.8,83.3 716.16,83.59 718.52,83.84C720.88,84.09 723.24,84.25 725.6,84.4C727.96,84.55 730.31,84.64 732.67,84.72Q735.03,84.8 739.74,84.88L739.74,85" style="vector-effect: none; stroke-width: 2px; stroke: rgb(7, 74, 197); stroke-opacity: 1; fill: rgb(9, 92, 246); fill-opacity: 0.5;"/><path class="meanline" d="M515.04,35.85695266723633V85" style="fill: none; vector-effect: none; stroke-width: 2px; stroke-dasharray: 4px, 2px; stroke: rgb(7, 74, 197); stroke-opacity: 1;"/></g><g class="trace violins" style="opacity: 1;"><path class="violin" d="M355.83,62.99L355.83,62.89Q359.08,62.84 360.7,62.8C362.32,62.76 363.95,62.71 365.57,62.65C367.19,62.59 368.82,62.52 370.44,62.45C372.06,62.37 373.69,62.28 375.31,62.2C376.93,62.11 378.56,62.02 380.18,61.94C381.8,61.86 383.43,61.79 385.05,61.74C386.67,61.69 388.3,61.64 389.92,61.62C391.54,61.6 393.17,61.6 394.79,61.62C396.41,61.64 398.04,61.69 399.66,61.73C401.28,61.77 402.91,61.83 404.53,61.88C406.15,61.93 407.78,61.99 409.4,62.04C411.02,62.08 412.65,62.12 414.27,62.15C415.89,62.17 417.52,62.19 419.14,62.19C420.76,62.19 422.39,62.18 424.01,62.16C425.63,62.14 427.26,62.11 428.88,62.07C430.5,62.03 432.13,61.98 433.75,61.93C435.37,61.88 436.99,61.81 438.61,61.76C440.23,61.7 441.86,61.65 443.48,61.6C445.1,61.55 446.73,61.49 448.35,61.45C449.97,61.41 451.6,61.38 453.22,61.35C454.84,61.32 456.47,61.3 458.09,61.27C459.71,61.25 461.34,61.23 462.96,61.2C464.58,61.17 466.21,61.14 467.83,61.1C469.45,61.05 471.08,61 472.7,60.93C474.32,60.86 475.95,60.79 477.57,60.68C479.19,60.57 480.82,60.45 482.44,60.29C484.06,60.13 485.69,59.95 487.31,59.72C488.94,59.49 490.56,59.22 492.18,58.9C493.81,58.57 495.43,58.19 497.05,57.77C498.68,57.34 500.3,56.86 501.92,56.35C503.55,55.84 505.17,55.27 506.79,54.72C508.41,54.17 510.03,53.59 511.66,53.05C513.28,52.51 514.9,51.98 516.53,51.49C518.15,51 519.77,50.56 521.4,50.11C523.02,49.67 524.65,49.27 526.27,48.82C527.89,48.37 529.52,47.93 531.13,47.4C532.76,46.87 534.39,46.3 536,45.63C537.64,44.95 539.27,44.19 540.87,43.35C542.51,42.49 544.14,41.54 545.74,40.52C547.38,39.47 549.01,38.34 550.61,37.14C552.26,35.91 553.88,34.6 555.48,33.23C557.13,31.82 558.75,30.32 560.35,28.78C561.99,27.2 563.6,25.52 565.22,23.86C566.85,22.18 568.46,20.41 570.09,18.74C571.7,17.09 573.29,15.37 574.96,13.89C576.54,12.49 578.14,11.06 579.83,10.05C581.39,9.12 583.04,8.26 584.7,7.95C586.29,7.65 587.99,7.71 589.57,8.12C591.24,8.55 592.88,9.53 594.44,10.59C596.14,11.74 597.73,13.34 599.31,14.89C600.98,16.52 602.56,18.41 604.18,20.16C605.8,21.91 607.39,23.77 609.05,25.4C610.64,26.96 612.24,28.52 613.92,29.76C615.49,30.92 617.11,31.98 618.79,32.68C620.36,33.33 622.02,33.78 623.65,33.91C625.26,34.04 626.92,33.84 628.52,33.47C630.17,33.09 631.8,32.38 633.39,31.62C635.05,30.83 636.66,29.79 638.26,28.76C639.9,27.71 641.51,26.5 643.13,25.37C644.75,24.23 646.36,23.03 648,21.95C649.61,20.9 651.22,19.83 652.87,18.97C654.46,18.14 656.09,17.37 657.74,16.86C659.34,16.37 660.98,16.01 662.61,15.93C664.23,15.85 665.88,16 667.48,16.36C669.13,16.73 670.77,17.38 672.35,18.16C674.02,18.98 675.64,20.07 677.22,21.23C678.89,22.45 680.5,23.88 682.09,25.34C683.74,26.85 685.35,28.52 686.96,30.16C688.6,31.83 690.2,33.58 691.83,35.28C693.45,36.97 695.06,38.69 696.7,40.31C698.31,41.9 699.92,43.47 701.57,44.92C703.17,46.33 704.79,47.67 706.44,48.9C708.04,50.09 709.66,51.19 711.31,52.2C712.91,53.18 714.53,54.06 716.17,54.87C717.77,55.66 719.4,56.36 721.04,57C722.65,57.63 724.28,58.18 725.91,58.68C727.52,59.17 729.15,59.6 730.78,59.98C732.4,60.36 734.02,60.68 735.65,60.97C737.27,61.25 738.89,61.48 740.52,61.69C742.14,61.89 743.77,62.06 745.39,62.2C747.01,62.34 748.64,62.45 750.26,62.54C751.88,62.63 753.51,62.69 755.13,62.75Q756.75,62.8 760,62.87L760,62.99" style="vector-effect: none; stroke-width: 2px; stroke: rgb(162, 42, 112); stroke-opacity: 1; fill: rgb(203, 52, 140); fill-opacity: 0.5;"/><path class="meanline" d="M612.02,28.2114200592041V62.99" style="fill: none; vector-effect: none; stroke-width: 2px; stroke-dasharray: 4px, 2px; stroke: rgb(162, 42, 112); stroke-opacity: 1;"/></g></g></g><g class="overplot"/><path class="xlines-above crisp" d="M0,0" style="fill: none;"/><path class="ylines-above crisp" d="M0,0" style="fill: none;"/><g class="overlines-above"/><g class="xaxislayer-above"><g class="xtick"><text text-anchor="middle" x="0" y="172" transform="translate(56.28,0)" style="font-family: 'Open Sans', verdana, arial, sans-serif; font-size: 12px; fill: rgb(242, 245, 250); fill-opacity: 1; white-space: pre; opacity: 1;">0</text></g><g class="xtick"><text text-anchor="middle" x="0" y="172" style="font-family: 'Open Sans', verdana, arial, sans-serif; font-size: 12px; fill: rgb(242, 245, 250); fill-opacity: 1; white-space: pre; opacity: 1;" transform="translate(140.59,0)">10</text></g><g class="xtick"><text text-anchor="middle" x="0" y="172" style="font-family: 'Open Sans', verdana, arial, sans-serif; font-size: 12px; fill: rgb(242, 245, 250); fill-opacity: 1; white-space: pre; opacity: 1;" transform="translate(224.9,0)">20</text></g><g class="xtick"><text text-anchor="middle" x="0" y="172" style="font-family: 'Open Sans', verdana, arial, sans-serif; font-size: 12px; fill: rgb(242, 245, 250); fill-opacity: 1; white-space: pre; opacity: 1;" transform="translate(309.21,0)">30</text></g><g class="xtick"><text text-anchor="middle" x="0" y="172" style="font-family: 'Open Sans', verdana, arial, sans-serif; font-size: 12px; fill: rgb(242, 245, 250); fill-opacity: 1; white-space: pre; opacity: 1;" transform="translate(393.51,0)">40</text></g><g class="xtick"><text text-anchor="middle" x="0" y="172" style="font-family: 'Open Sans', verdana, arial, sans-serif; font-size: 12px; fill: rgb(242, 245, 250); fill-opacity: 1; white-space: pre; opacity: 1;" transform="translate(477.82,0)">50</text></g><g class="xtick"><text text-anchor="middle" x="0" y="172" style="font-family: 'Open Sans', verdana, arial, sans-serif; font-size: 12px; fill: rgb(242, 245, 250); fill-opacity: 1; white-space: pre; opacity: 1;" transform="translate(562.13,0)">60</text></g><g class="xtick"><text text-anchor="middle" x="0" y="172" style="font-family: 'Open Sans', verdana, arial, sans-serif; font-size: 12px; fill: rgb(242, 245, 250); fill-opacity: 1; white-space: pre; opacity: 1;" transform="translate(646.44,0)">70</text></g><g class="xtick"><text text-anchor="middle" x="0" y="172" style="font-family: 'Open Sans', verdana, arial, sans-serif; font-size: 12px; fill: rgb(242, 245, 250); fill-opacity: 1; white-space: pre; opacity: 1;" transform="translate(730.75,0)">80</text></g></g><g class="yaxislayer-above"/><g class="overaxes-above"/></g></g><g class="polarlayer"/><g class="smithlayer"/><g class="ternarylayer"/><g class="geolayer"/><g class="funnelarealayer"/><g class="pielayer"/><g class="iciclelayer"/><g class="treemaplayer"/><g class="sunburstlayer"/><g class="glimages"/><defs id="topdefs-527a29"><g class="clips"/></defs><g class="layer-above"><g class="imagelayer"/><g class="shapelayer"/></g><g class="infolayer"><g class="g-gtitle"/><g class="g-xtitle" transform="translate(0,-2.3000000000000114)"><text class="xtitle" x="400" y="199.3" text-anchor="middle" style="font-family: 'Open Sans', verdana, arial, sans-serif; font-size: 14px; fill: rgb(242, 245, 250); opacity: 1; white-space: pre;">Kid Energy</text></g><g class="g-ytitle"/></g></svg>