<svg class="main-svg" xmlns="http://www.w3.org/2000/svg" xmlns:xlink="http://www.w3.org/1999/xlink" width="800" height="200" style="" viewBox="0 0 800 200"><rect x="0" y="0" width="800" height="200" style="fill: rgb(0, 0, 0); fill-opacity: 0;"/><defs id="defs-9d7f81"><g class="clips"><clipPath id="clip9d7f81xyplot" class="plotclip"><rect width="800" height="159"/></clipPath><clipPath class="axesclip" id="clip9d7f81x"><rect x="0" y="0" width="800" height="200"/></clipPath><clipPath class="axesclip" id="clip9d7f81y"><rect x="0" y="0" width="800" height="159"/></clipPath><clipPath class="axesclip" id="clip9d7f81xy"><rect x="0" y="0" width="800" height="159"/></clipPath></g><g class="gradients"/><g class="patterns"/></defs><g class="bglayer"><rect class="bg" x="0" y="0" width="800" height="159" style="fill: rgb(0, 0, 0); fill-opacity: 0; stroke-width: 0;"/></g><g class="layer-below"><g class="imagelayer"/><g class="shapelayer"/></g><g class="cartesianlayer"><g class="subplot xy"><g class="layer-subplot"><g class="shapelayer"/><g class="imagelayer"/></g><g class="minor-gridlayer"><g class="x"/><g class="y"/></g><g class="gridlayer"><g class="x"><path class="xgrid crisp" transform="translate(191.13,0)" d="M0,0v159" style="stroke: rgb(40, 52, 66); stroke-opacity: 1; stroke-width: 1px;"/><path class="xgrid crisp" transform="translate(310.76,0)" d="M0,0v159" style="stroke: rgb(40, 52, 66); stroke-opacity: 1; stroke-width: 1px;"/><path class="xgrid crisp" transform="translate(430.38,0)" d="M0,0v159" style="stroke: rgb(40, 52, 66); stroke-opacity: 1; stroke-width: 1px;"/><path class="xgrid crisp" transform="translate(550.01,0)" d="M0,0v159" style="stroke: rgb(40, 52, 66); stroke-opacity: 1; stroke-width: 1px;"/><path class="xgrid crisp" transform="translate(669.64,0)" d="M0,0v159" style="stroke: rgb(40, 52, 66); stroke-opacity: 1; stroke-width: 1px;"/><path class="xgrid crisp" transform="translate(789.26,0)" d="M0,0v159" style="stroke: rgb(40, 52, 66); stroke-opacity: 1; stroke-width: 1px;"/></g><g class="y"/></g><g class="zerolinelayer"><path class="xzl zl crisp" transform="translate(71.5,0)" d="M0,0v159" style="stroke: rgb(40, 52, 66); stroke-opacity: 1; stroke-width: 2px;"/></g><g class="layer-between"><g class="shapelayer"/><g class="imagelayer"/></g><path class="xlines-below"/><path class="ylines-below"/><g class="overlines-below"/><g class="xaxislayer-below"/><g class="yaxislayer-below"/><g class="overaxes-below"/><g class="plot" transform="" clip-path="url(#clip9d7f81xyplot)"><g class="violinlayer mlayer"><g class="trace violins" style="opacity: 1;"><path class="violin" d="M40,151.05L40,145.72Q43.57,142.85 45.23,141.05C47.07,139.05 48.78,136.65 50.45,134.15C52.28,131.42 53.97,128.32 55.68,125.25C57.46,122.06 59.13,118.58 60.9,115.35C62.62,112.2 64.29,108.9 66.13,106.11C67.79,103.6 69.44,101.01 71.35,99.27C72.97,97.8 74.76,96.45 76.58,96.01C78.26,95.61 80.12,95.9 81.8,96.46C83.62,97.07 85.34,98.47 87.03,99.75C88.83,101.12 90.52,102.9 92.26,104.48C94,106.07 95.7,107.79 97.48,109.27C99.19,110.69 100.92,112.07 102.71,113.19C104.41,114.25 106.15,115.15 107.93,115.85C109.64,116.52 111.4,116.98 113.16,117.35C114.89,117.71 116.64,117.87 118.38,118.05C120.12,118.23 121.87,118.3 123.61,118.45C125.35,118.6 127.09,118.72 128.83,118.93C130.58,119.14 132.32,119.41 134.06,119.7C135.81,119.99 137.55,120.35 139.29,120.67C141.03,120.99 142.76,121.36 144.51,121.6C146.25,121.84 148,122.06 149.74,122.12C151.48,122.18 153.23,122.14 154.96,121.96C156.71,121.78 158.46,121.46 160.19,121.05C161.94,120.64 163.68,120.07 165.41,119.5C167.16,118.92 168.9,118.23 170.64,117.58C172.38,116.93 174.11,116.24 175.86,115.62C177.6,115.01 179.34,114.4 181.09,113.88C182.82,113.37 184.57,112.91 186.32,112.53C188.05,112.15 189.79,111.85 191.54,111.61C193.28,111.37 195.03,111.22 196.77,111.11C198.51,111 200.25,110.95 201.99,110.94C203.73,110.93 205.48,110.98 207.22,111.06C208.96,111.14 210.7,111.28 212.44,111.45C214.18,111.63 215.93,111.84 217.67,112.11C219.41,112.38 221.15,112.71 222.89,113.09C224.64,113.47 226.38,113.91 228.12,114.4C229.87,114.89 231.62,115.43 233.35,116.03C235.1,116.63 236.84,117.3 238.57,117.99C240.32,118.69 242.06,119.45 243.8,120.22C245.55,121 247.28,121.82 249.02,122.64C250.76,123.46 252.51,124.31 254.25,125.12C255.99,125.93 257.72,126.76 259.47,127.52C261.21,128.28 262.95,129.02 264.7,129.69C266.43,130.36 268.18,130.98 269.93,131.55C271.66,132.11 273.4,132.64 275.15,133.08C276.88,133.52 278.63,133.91 280.38,134.2C282.11,134.49 283.86,134.72 285.6,134.84C287.34,134.96 289.09,134.99 290.83,134.94C292.57,134.89 294.31,134.71 296.05,134.51C297.8,134.31 299.54,134 301.28,133.74C303.02,133.48 304.76,133.15 306.5,132.94C308.24,132.73 309.99,132.52 311.73,132.47C313.47,132.42 315.22,132.44 316.96,132.62C318.71,132.8 320.45,133.12 322.18,133.54C323.94,133.97 325.68,134.55 327.41,135.18C329.17,135.83 330.9,136.61 332.63,137.39C334.38,138.18 336.12,139.06 337.86,139.9C339.6,140.75 341.33,141.64 343.08,142.46C344.82,143.28 346.56,144.08 348.31,144.81C350.04,145.53 351.78,146.2 353.53,146.79C355.26,147.37 357.01,147.88 358.76,148.32C360.49,148.76 362.24,149.12 363.99,149.42C365.73,149.72 367.47,149.95 369.21,150.14C370.95,150.33 372.7,150.46 374.44,150.57C376.18,150.68 377.92,150.76 379.66,150.82C381.4,150.88 383.15,150.91 384.89,150.94Q386.63,150.97 390.11,151L390.11,151.05" style="vector-effect: none; stroke-width: 2px; stroke: rgb(164, 160, 40); stroke-opacity: 1; fill: rgb(205, 200, 50); fill-opacity: 0.5;"/><path class="meanline" d="M173.94,116.32513427734375V151.05" style="fill: none; vector-effect: none; stroke-width: 2px; stroke-dasharray: 4px, 2px; stroke: rgb(164, 160, 40); stroke-opacity: 1;"/></g><g class="trace violins" style="opacity: 1;"><path class="violin" d="M162.85,129.03L162.85,128.98Q165.99,128.95 167.56,128.93C169.13,128.91 170.7,128.88 172.27,128.85C173.84,128.81 175.42,128.77 176.99,128.72C178.56,128.67 180.13,128.61 181.7,128.53C183.27,128.45 184.84,128.37 186.41,128.26C187.98,128.15 189.56,128.02 191.13,127.88C192.7,127.74 194.27,127.57 195.84,127.4C197.41,127.23 198.98,127.03 200.55,126.84C202.12,126.65 203.69,126.44 205.26,126.26C206.83,126.08 208.41,125.89 209.98,125.75C211.55,125.61 213.12,125.49 214.69,125.4C216.26,125.31 217.83,125.25 219.4,125.22C220.97,125.19 222.54,125.2 224.11,125.21C225.68,125.22 227.26,125.26 228.83,125.3C230.4,125.33 231.97,125.38 233.54,125.42C235.11,125.46 236.68,125.51 238.25,125.54C239.82,125.57 241.39,125.6 242.96,125.61C244.53,125.62 246.11,125.63 247.68,125.59C249.25,125.55 250.82,125.5 252.39,125.38C253.96,125.26 255.53,125.11 257.1,124.89C258.68,124.67 260.25,124.39 261.82,124.04C263.4,123.69 264.97,123.27 266.53,122.8C268.11,122.33 269.67,121.78 271.24,121.23C272.82,120.67 274.38,120.05 275.95,119.47C277.52,118.89 279.09,118.29 280.67,117.76C282.23,117.23 283.8,116.72 285.38,116.3C286.94,115.88 288.51,115.53 290.09,115.23C291.65,114.94 293.23,114.73 294.8,114.53C296.37,114.33 297.95,114.21 299.52,114.03C301.09,113.85 302.66,113.69 304.23,113.44C305.8,113.19 307.38,112.9 308.94,112.51C310.52,112.12 312.1,111.64 313.66,111.1C315.24,110.55 316.81,109.9 318.37,109.25C319.95,108.59 321.51,107.86 323.08,107.17C324.65,106.49 326.21,105.78 327.79,105.14C329.36,104.51 330.93,103.9 332.51,103.36C334.07,102.82 335.65,102.35 337.22,101.89C338.79,101.44 340.36,101.05 341.93,100.63C343.5,100.21 345.07,99.81 346.64,99.37C348.22,98.92 349.79,98.46 351.36,97.96C352.94,97.45 354.5,96.9 356.07,96.34C357.64,95.78 359.21,95.18 360.78,94.62C362.35,94.06 363.91,93.48 365.49,92.99C367.06,92.5 368.63,92.05 370.21,91.67C371.77,91.3 373.35,91.01 374.92,90.73C376.49,90.46 378.06,90.26 379.63,90.02C381.2,89.77 382.78,89.58 384.35,89.26C385.93,88.94 387.5,88.58 389.06,88.1C390.64,87.61 392.22,87.01 393.77,86.33C395.36,85.63 396.92,84.79 398.48,83.94C400.06,83.08 401.63,82.11 403.2,81.2C404.77,80.29 406.32,79.32 407.91,78.48C409.46,77.66 411.03,76.85 412.62,76.21C414.17,75.59 415.74,75.04 417.33,74.67C418.89,74.31 420.47,74.09 422.05,74C423.62,73.91 425.2,73.97 426.76,74.14C428.34,74.31 429.91,74.63 431.47,75.02C433.05,75.42 434.62,75.93 436.18,76.51C437.77,77.1 439.34,77.8 440.9,78.53C442.48,79.27 444.05,80.1 445.61,80.93C447.19,81.77 448.75,82.66 450.32,83.56C451.9,84.46 453.47,85.39 455.04,86.32C456.61,87.26 458.19,88.2 459.75,89.17C461.33,90.15 462.9,91.15 464.46,92.17C466.04,93.2 467.6,94.27 469.17,95.34C470.75,96.42 472.32,97.53 473.89,98.61C475.46,99.69 477.02,100.79 478.6,101.84C480.16,102.88 481.73,103.89 483.31,104.87C484.87,105.84 486.44,106.77 488.02,107.69C489.59,108.61 491.17,109.49 492.74,110.39C494.31,111.29 495.88,112.19 497.45,113.09C499.02,113.99 500.59,114.91 502.16,115.8C503.73,116.68 505.29,117.59 506.87,118.41C508.43,119.22 510,120.01 511.59,120.71C513.15,121.39 514.72,122.02 516.3,122.55C517.86,123.07 519.43,123.5 521.01,123.86C522.57,124.22 524.15,124.47 525.73,124.7C527.3,124.93 528.87,125.08 530.44,125.23C532.01,125.38 533.58,125.49 535.15,125.61C536.72,125.73 538.29,125.84 539.86,125.96C541.43,126.08 543.01,126.21 544.58,126.34C546.15,126.47 547.72,126.6 549.29,126.73C550.86,126.86 552.43,126.99 554,127.1C555.57,127.2 557.14,127.3 558.71,127.36C560.28,127.43 561.86,127.47 563.43,127.49C565,127.51 566.57,127.49 568.14,127.46C569.71,127.43 571.28,127.36 572.85,127.28C574.42,127.2 576,127.1 577.57,126.98C579.14,126.87 580.71,126.73 582.28,126.59C583.85,126.45 585.42,126.3 586.99,126.16C588.56,126.02 590.13,125.87 591.7,125.74C593.27,125.61 594.85,125.48 596.42,125.36C597.99,125.25 599.56,125.14 601.13,125.05C602.7,124.96 604.27,124.89 605.84,124.83C607.41,124.77 608.98,124.73 610.55,124.7C612.12,124.67 613.7,124.65 615.27,124.64C616.84,124.63 618.41,124.62 619.98,124.62C621.55,124.62 623.12,124.61 624.69,124.62C626.26,124.63 627.83,124.65 629.4,124.69C630.97,124.73 632.55,124.79 634.12,124.87C635.69,124.95 637.26,125.06 638.83,125.19C640.4,125.32 641.97,125.49 643.54,125.67C645.11,125.85 646.69,126.06 648.26,126.27C649.83,126.48 651.4,126.7 652.97,126.91C654.54,127.12 656.11,127.33 657.68,127.52C659.25,127.71 660.82,127.89 662.39,128.04C663.96,128.19 665.54,128.31 667.11,128.42C668.68,128.53 670.25,128.62 671.82,128.69C673.39,128.76 674.96,128.82 676.53,128.86C678.1,128.9 679.67,128.93 681.24,128.95Q682.81,128.97 685.96,129L685.96,129.03" style="vector-effect: none; stroke-width: 2px; stroke: rgb(7, 74, 197); stroke-opacity: 1; fill: rgb(9, 92, 246); fill-opacity: 0.5;"/><path class="meanline" d="M407.4,78.7544937133789V129.03" style="fill: none; vector-effect: none; stroke-width: 2px; stroke-dasharray: 4px, 2px; stroke: rgb(7, 74, 197); stroke-opacity: 1;"/></g><g class="trace violins" style="opacity: 1;"><path class="violin" d="M177.04,107.02L177.04,106.92Q179.91,106.87 181.35,106.82C182.78,106.77 184.22,106.71 185.65,106.64C187.09,106.56 188.52,106.48 189.96,106.37C191.4,106.26 192.83,106.14 194.27,106C195.7,105.86 197.14,105.69 198.57,105.53C200.01,105.37 201.44,105.19 202.88,105.02C204.31,104.85 205.75,104.66 207.18,104.51C208.62,104.35 210.05,104.21 211.49,104.09C212.93,103.97 214.36,103.87 215.8,103.78C217.23,103.69 218.67,103.63 220.1,103.56C221.54,103.49 222.97,103.44 224.41,103.36C225.84,103.28 227.28,103.21 228.71,103.1C230.15,102.99 231.58,102.86 233.02,102.7C234.46,102.54 235.9,102.35 237.33,102.14C238.77,101.93 240.2,101.7 241.63,101.45C243.07,101.2 244.5,100.92 245.94,100.65C247.37,100.38 248.81,100.09 250.24,99.81C251.68,99.53 253.11,99.24 254.55,98.97C255.99,98.7 257.42,98.43 258.86,98.17C260.29,97.92 261.72,97.67 263.16,97.44C264.59,97.22 266.03,97 267.47,96.82C268.9,96.64 270.33,96.48 271.77,96.35C273.2,96.22 274.64,96.11 276.08,96.04C277.52,95.97 278.95,95.93 280.39,95.91C281.82,95.89 283.26,95.91 284.69,95.92C286.13,95.93 287.56,95.98 289,95.99C290.43,96 291.87,96.03 293.3,96C294.74,95.97 296.18,95.91 297.61,95.78C299.05,95.65 300.49,95.47 301.92,95.23C303.36,94.99 304.79,94.68 306.22,94.34C307.66,94 309.09,93.58 310.53,93.2C311.96,92.82 313.39,92.4 314.83,92.07C316.26,91.74 317.7,91.42 319.14,91.22C320.57,91.02 322.01,90.89 323.45,90.86C324.88,90.83 326.32,90.92 327.75,91.05C329.19,91.18 330.63,91.42 332.06,91.63C333.5,91.84 334.92,92.12 336.36,92.31C337.79,92.5 339.23,92.69 340.67,92.75C342.1,92.81 343.55,92.82 344.98,92.68C346.42,92.54 347.86,92.29 349.28,91.91C350.73,91.52 352.17,90.99 353.59,90.37C355.05,89.73 356.48,88.95 357.9,88.12C359.36,87.27 360.78,86.29 362.2,85.31C363.65,84.31 365.08,83.22 366.51,82.15C367.95,81.07 369.38,79.95 370.81,78.84C372.25,77.73 373.68,76.61 375.12,75.51C376.56,74.41 377.99,73.3 379.43,72.22C380.86,71.15 382.29,70.07 383.73,69.04C385.16,68.02 386.59,67 388.04,66.06C389.46,65.13 390.89,64.23 392.34,63.42C393.76,62.63 395.2,61.89 396.65,61.26C398.07,60.64 399.51,60.11 400.96,59.65C402.38,59.2 403.82,58.85 405.26,58.53C406.69,58.22 408.13,57.99 409.57,57.76C411,57.53 412.44,57.36 413.87,57.17C415.31,56.97 416.74,56.8 418.18,56.59C419.62,56.38 421.06,56.17 422.49,55.91C423.93,55.65 425.36,55.35 426.79,55.04C428.23,54.73 429.66,54.37 431.1,54.03C432.53,53.69 433.96,53.3 435.4,52.99C436.83,52.69 438.27,52.37 439.71,52.2C441.14,52.03 442.59,51.91 444.02,51.98C445.46,52.05 446.91,52.25 448.32,52.62C449.78,53.01 451.23,53.59 452.63,54.29C454.1,55.02 455.53,55.96 456.93,56.96C458.4,58 459.82,59.22 461.24,60.43C462.7,61.68 464.12,63.03 465.55,64.35C466.99,65.68 468.41,67.07 469.85,68.41C471.28,69.75 472.72,71.08 474.16,72.38C475.59,73.67 477.02,74.93 478.46,76.17C479.89,77.4 481.33,78.61 482.77,79.8C484.2,80.99 485.64,82.16 487.08,83.31C488.51,84.45 489.93,85.6 491.38,86.69C492.8,87.76 494.24,88.83 495.69,89.8C497.11,90.75 498.53,91.66 499.99,92.45C501.4,93.21 502.84,93.91 504.3,94.47C505.72,95.01 507.16,95.45 508.61,95.77C510.03,96.09 511.47,96.27 512.91,96.4C514.34,96.53 515.78,96.55 517.22,96.55C518.65,96.55 520.09,96.47 521.52,96.43C522.96,96.39 524.39,96.32 525.83,96.31C527.27,96.3 528.71,96.29 530.14,96.37C531.58,96.45 533.01,96.58 534.44,96.78C535.88,96.98 537.32,97.25 538.75,97.57C540.19,97.89 541.62,98.3 543.05,98.72C544.49,99.14 545.93,99.63 547.36,100.11C548.8,100.59 550.23,101.1 551.67,101.58C553.1,102.06 554.53,102.55 555.97,102.99C557.4,103.42 558.84,103.83 560.28,104.19C561.71,104.55 563.15,104.87 564.59,105.14C566.02,105.41 567.45,105.64 568.89,105.83C570.32,106.02 571.76,106.16 573.2,106.28C574.63,106.4 576.07,106.48 577.5,106.55C578.94,106.62 580.37,106.66 581.81,106.7C583.25,106.74 584.68,106.77 586.12,106.79C587.55,106.81 588.99,106.82 590.42,106.84C591.86,106.86 593.29,106.88 594.73,106.89C596.16,106.9 597.6,106.91 599.03,106.92C600.47,106.93 601.9,106.95 603.34,106.96C604.78,106.97 606.21,106.97 607.65,106.98Q609.08,106.99 611.95,107L611.95,107.02" style="vector-effect: none; stroke-width: 2px; stroke: rgb(58, 146, 136); stroke-opacity: 1; fill: rgb(73, 182, 170); fill-opacity: 0.5;"/><path class="meanline" d="M409.48,57.774375915527344V107.02" style="fill: none; vector-effect: none; stroke-width: 2px; stroke-dasharray: 4px, 2px; stroke: rgb(58, 146, 136); stroke-opacity: 1;"/></g><g class="trace violins" style="opacity: 1;"><path class="violin" d="M244.32,85L244.32,84.96Q249.03,84.94 251.38,84.92C253.74,84.9 256.09,84.88 258.45,84.86C260.8,84.84 263.16,84.81 265.51,84.78C267.87,84.75 270.22,84.71 272.58,84.66C274.93,84.61 277.29,84.55 279.64,84.48C282,84.4 284.35,84.33 286.71,84.21C289.06,84.09 291.42,83.96 293.77,83.77C296.12,83.58 298.48,83.37 300.83,83.09C303.19,82.81 305.55,82.47 307.9,82.07C310.26,81.67 312.61,81.21 314.96,80.69C317.32,80.17 319.68,79.58 322.03,78.95C324.39,78.32 326.74,77.64 329.09,76.92C331.45,76.2 333.8,75.43 336.15,74.64C338.51,73.84 340.87,73.02 343.22,72.15C345.58,71.28 347.93,70.37 350.28,69.43C352.64,68.48 355,67.49 357.35,66.46C359.71,65.42 362.06,64.32 364.41,63.2C366.77,62.07 369.12,60.88 371.47,59.69C373.83,58.5 376.19,57.27 378.54,56.05C380.9,54.83 383.24,53.59 385.6,52.38C387.95,51.17 390.31,49.97 392.67,48.81C395.02,47.66 397.37,46.53 399.73,45.45C402.07,44.38 404.43,43.34 406.79,42.36C409.14,41.39 411.5,40.47 413.86,39.61C416.21,38.75 418.56,37.96 420.92,37.2C423.27,36.44 425.63,35.74 427.99,35.06C430.34,34.38 432.69,33.73 435.05,33.12C437.4,32.52 439.76,31.91 442.12,31.43C444.47,30.95 446.82,30.47 449.18,30.23C451.53,29.99 453.89,29.83 456.24,29.97C458.6,30.11 460.99,30.46 463.31,31.07C465.7,31.7 468.06,32.66 470.37,33.75C472.77,34.88 475.11,36.32 477.44,37.76C479.82,39.24 482.15,40.93 484.5,42.52C486.85,44.11 489.18,45.79 491.56,47.3C493.89,48.78 496.24,50.24 498.63,51.51C500.96,52.75 503.31,53.89 505.69,54.86C508.02,55.81 510.39,56.62 512.76,57.3C515.1,57.97 517.46,58.51 519.82,58.93C522.16,59.34 524.52,59.64 526.88,59.8C529.23,59.96 531.6,59.98 533.95,59.88C536.31,59.78 538.66,59.51 541.01,59.17C543.37,58.82 545.73,58.32 548.08,57.8C550.44,57.28 552.78,56.63 555.14,56.07C557.49,55.51 559.85,54.89 562.21,54.43C564.56,53.97 566.91,53.56 569.27,53.32C571.62,53.08 573.98,52.96 576.33,52.98C578.69,53 581.05,53.19 583.4,53.45C585.76,53.71 588.11,54.11 590.46,54.53C592.82,54.96 595.18,55.47 597.53,56C599.89,56.53 602.24,57.1 604.59,57.71C606.95,58.32 609.3,58.96 611.65,59.65C614.01,60.35 616.37,61.08 618.72,61.87C621.08,62.66 623.43,63.52 625.78,64.4C628.14,65.29 630.5,66.23 632.85,67.18C635.21,68.13 637.55,69.13 639.91,70.08C642.26,71.03 644.61,71.99 646.97,72.9C649.32,73.8 651.68,74.69 654.04,75.5C656.39,76.31 658.74,77.07 661.1,77.76C663.45,78.44 665.81,79.07 668.17,79.61C670.52,80.15 672.87,80.62 675.23,81.01C677.58,81.4 679.93,81.71 682.29,81.97C684.64,82.23 687,82.4 689.36,82.56C691.71,82.72 694.07,82.81 696.42,82.91C698.78,83.01 701.13,83.06 703.49,83.14C705.84,83.21 708.2,83.28 710.55,83.36C712.91,83.44 715.26,83.53 717.62,83.63C719.97,83.73 722.33,83.84 724.68,83.94C727.03,84.04 729.39,84.15 731.74,84.25C734.1,84.35 736.45,84.44 738.81,84.52C741.16,84.6 743.52,84.66 745.87,84.72C748.23,84.78 750.58,84.82 752.94,84.86Q755.29,84.89 760,84.93L760,85" style="vector-effect: none; stroke-width: 2px; stroke: rgb(162, 42, 112); stroke-opacity: 1; fill: rgb(203, 52, 140); fill-opacity: 0.5;"/><path class="meanline" d="M485.82,43.42319869995117V85" style="fill: none; vector-effect: none; stroke-width: 2px; stroke-dasharray: 4px, 2px; stroke: rgb(162, 42, 112); stroke-opacity: 1;"/></g><g class="trace violins" style="opacity: 1;"><path class="violin" d="M410.04,62.99L410.04,62.89Q412.28,62.84 413.4,62.81C414.52,62.78 415.64,62.74 416.76,62.7C417.88,62.66 419,62.61 420.12,62.56C421.24,62.51 422.36,62.46 423.48,62.41C424.6,62.36 425.72,62.32 426.84,62.28C427.96,62.24 429.08,62.21 430.2,62.18C431.32,62.15 432.44,62.13 433.56,62.1C434.68,62.07 435.8,62.05 436.92,62.01C438.04,61.97 439.16,61.93 440.28,61.88C441.4,61.82 442.52,61.75 443.64,61.68C444.76,61.61 445.88,61.52 447,61.44C448.12,61.37 449.24,61.29 450.36,61.23C451.48,61.17 452.6,61.12 453.72,61.1C454.84,61.08 455.96,61.08 457.08,61.09C458.2,61.1 459.32,61.14 460.44,61.17C461.56,61.2 462.68,61.24 463.8,61.27C464.92,61.3 466.04,61.32 467.16,61.33C468.28,61.34 469.4,61.34 470.52,61.32C471.64,61.3 472.76,61.26 473.88,61.23C475,61.19 476.12,61.15 477.24,61.11C478.36,61.07 479.48,61.03 480.6,60.99C481.72,60.95 482.84,60.9 483.96,60.85C485.08,60.8 486.2,60.75 487.32,60.67C488.44,60.59 489.56,60.5 490.68,60.37C491.8,60.24 492.92,60.09 494.04,59.91C495.16,59.73 496.28,59.52 497.4,59.29C498.52,59.06 499.64,58.79 500.76,58.53C501.88,58.26 503,57.98 504.12,57.7C505.24,57.43 506.36,57.14 507.48,56.88C508.6,56.62 509.72,56.37 510.84,56.15C511.96,55.93 513.08,55.73 514.2,55.54C515.32,55.35 516.44,55.2 517.56,55.03C518.68,54.86 519.8,54.7 520.92,54.5C522.04,54.29 523.17,54.08 524.28,53.8C525.41,53.51 526.53,53.18 527.64,52.78C528.77,52.37 529.89,51.89 531,51.35C532.13,50.79 533.25,50.16 534.36,49.48C535.5,48.78 536.61,48.02 537.72,47.21C538.86,46.38 539.97,45.49 541.08,44.57C542.21,43.63 543.33,42.65 544.44,41.64C545.57,40.61 546.69,39.54 547.8,38.44C548.93,37.32 550.05,36.17 551.16,34.99C552.29,33.79 553.41,32.57 554.52,31.32C555.65,30.05 556.77,28.76 557.88,27.45C559.01,26.13 560.12,24.77 561.24,23.44C562.36,22.11 563.47,20.76 564.6,19.45C565.71,18.17 566.81,16.87 567.95,15.67C569.05,14.52 570.16,13.38 571.31,12.39C572.4,11.46 573.51,10.56 574.67,9.87C575.76,9.23 576.88,8.67 578.03,8.35C579.13,8.04 580.27,7.9 581.39,7.95C582.51,8 583.66,8.28 584.75,8.67C585.9,9.08 587.02,9.72 588.11,10.39C589.26,11.1 590.37,11.97 591.47,12.85C592.61,13.75 593.71,14.76 594.83,15.74C595.95,16.72 597.06,17.75 598.19,18.72C599.3,19.68 600.42,20.64 601.55,21.54C602.66,22.42 603.77,23.27 604.91,24.04C606.01,24.79 607.13,25.5 608.27,26.13C609.38,26.74 610.5,27.31 611.63,27.79C612.74,28.26 613.86,28.66 614.99,28.99C616.1,29.31 617.22,29.57 618.35,29.75C619.46,29.93 620.59,30.03 621.71,30.09C622.83,30.15 623.95,30.14 625.07,30.13C626.19,30.12 627.31,30.06 628.43,30.03C629.55,30.01 630.67,29.96 631.79,29.98C632.91,30 634.03,30.03 635.15,30.13C636.27,30.23 637.39,30.37 638.51,30.56C639.63,30.75 640.75,30.99 641.87,31.25C642.99,31.52 644.12,31.81 645.23,32.15C646.36,32.49 647.48,32.86 648.59,33.29C649.72,33.72 650.84,34.19 651.95,34.74C653.08,35.3 654.21,35.93 655.31,36.62C656.45,37.34 657.57,38.15 658.67,38.99C659.81,39.86 660.92,40.82 662.03,41.77C663.16,42.73 664.27,43.76 665.39,44.73C666.51,45.7 667.62,46.68 668.75,47.59C669.86,48.47 670.97,49.33 672.11,50.11C673.21,50.87 674.34,51.56 675.47,52.2C676.58,52.83 677.7,53.39 678.83,53.92C679.94,54.44 681.07,54.91 682.19,55.37C683.31,55.83 684.43,56.26 685.55,56.68C686.67,57.09 687.79,57.49 688.91,57.86C690.03,58.23 691.15,58.6 692.27,58.92C693.39,59.24 694.51,59.54 695.63,59.8C696.75,60.06 697.87,60.29 698.99,60.5C700.11,60.71 701.23,60.89 702.35,61.05C703.47,61.21 704.59,61.34 705.71,61.47C706.83,61.6 707.95,61.72 709.07,61.83C710.19,61.94 711.31,62.04 712.43,62.14C713.55,62.23 714.67,62.32 715.79,62.4C716.91,62.48 718.03,62.56 719.15,62.62C720.27,62.68 721.39,62.73 722.51,62.77Q723.63,62.81 725.87,62.87L725.87,62.99" style="vector-effect: none; stroke-width: 2px; stroke: rgb(109, 78, 126); stroke-opacity: 1; fill: rgb(137, 97, 158); fill-opacity: 0.5;"/><path class="meanline" d="M595.37,16.217119216918945V62.99" style="fill: none; vector-effect: none; stroke-width: 2px; stroke-dasharray: 4px, 2px; stroke: rgb(109, 78, 126); stroke-opacity: 1;"/></g></g></g><g class="overplot"/><path class="xlines-above crisp" d="M0,0" style="fill: none;"/><path class="ylines-above crisp" d="M0,0" style="fill: none;"/><g class="overlines-above"/><g class="xaxislayer-above"><g class="xtick"><text text-anchor="middle" x="0" y="172" transform="translate(71.5,0)" style="font-family: 'Open Sans', verdana, arial, sans-serif; font-size: 12px; fill: rgb(242, 245, 250); fill-opacity: 1; white-space: pre; opacity: 1;">0</text></g><g class="xtick"><text text-anchor="middle" x="0" y="172" style="font-family: 'Open Sans', verdana, arial, sans-serif; font-size: 12px; fill: rgb(242, 245, 250); fill-opacity: 1; white-space: pre; opacity: 1;" transform="translate(191.13,0)">10</text></g><g class="xtick"><text text-anchor="middle" x="0" y="172" style="font-family: 'Open Sans', verdana, arial, sans-serif; font-size: 12px; fill: rgb(242, 245, 250); fill-opacity: 1; white-space: pre; opacity: 1;" transform="translate(310.76,0)">20</text></g><g class="xtick"><text text-anchor="middle" x="0" y="172" style="font-family: 'Open Sans', verdana, arial, sans-serif; font-size: 12px; fill: rgb(242, 245, 250); fill-opacity: 1; white-space: pre; opacity: 1;" transform="translate(430.38,0)">30</text></g><g class="xtick"><text text-anchor="middle" x="0" y="172" style="font-family: 'Open Sans', verdana, arial, sans-serif; font-size: 12px; fill: rgb(242, 245, 250); fill-opacity: 1; white-space: pre; opacity: 1;" transform="translate(550.01,0)">40</text></g><g class="xtick"><text text-anchor="middle" x="0" y="172" style="font-family: 'Open Sans', verdana, arial, sans-serif; font-size: 12px; fill: rgb(242, 245, 250); fill-opacity: 1; white-space: pre; opacity: 1;" transform="translate(669.64,0)">50</text></g><g class="xtick"><text text-anchor="middle" x="0" y="172" style="font-family: 'Open Sans', verdana, arial, sans-serif; font-size: 12px; fill: rgb(242, 245, 250); fill-opacity: 1; white-space: pre; opacity: 1;" transform="translate(789.26,0)">60</text></g></g><g class="yaxislayer-above"/><g class="overaxes-above"/></g></g><g class="polarlayer"/><g class="smithlayer"/><g class="ternarylayer"/><g class="geolayer"/><g class="funnelarealayer"/><g class="pielayer"/><g class="iciclelayer"/><g class="treemaplayer"/><g class="sunburstlayer"/><g class="glimages"/><defs id="topdefs-9d7f81"><g class="clips"/></defs><g class="layer-above"><g class="imagelayer"/><g class="shapelayer"/></g><g class="infolayer"><g class="g-gtitle"/><g class="g-xtitle" transform="translate(0,-2.3000000000000114)"><text class="xtitle" x="400" y="199.3" text-anchor="middle" style="font-family: 'Open Sans', verdana, arial, sans-serif; font-size: 14px; fill: rgb(242, 245, 250); opacity: 1; white-space: pre;">Speed</text></g><g class="g-ytitle"/></g></svg>