<svg class="main-svg" xmlns="http://www.w3.org/2000/svg" xmlns:xlink="http://www.w3.org/1999/xlink" width="800" height="200" style="" viewBox="0 0 800 200"><rect x="0" y="0" width="800" height="200" style="fill: rgb(0, 0, 0); fill-opacity: 0;"/><defs id="defs-4f6d01"><g class="clips"><clipPath id="clip4f6d01xyplot" class="plotclip"><rect width="800" height="159"/></clipPath><clipPath class="axesclip" id="clip4f6d01x"><rect x="0" y="0" width="800" height="200"/></clipPath><clipPath class="axesclip" id="clip4f6d01y"><rect x="0" y="0" width="800" height="159"/></clipPath><clipPath class="axesclip" id="clip4f6d01xy"><rect x="0" y="0" width="800" height="159"/></clipPath></g><g class="gradients"/><g class="patterns"/></defs><g class="bglayer"><rect class="bg" x="0" y="0" width="800" height="159" style="fill: rgb(0, 0, 0); fill-opacity: 0; stroke-width: 0;"/></g><g class="layer-below"><g class="imagelayer"/><g class="shapelayer"/></g><g class="cartesianlayer"><g class="subplot xy"><g class="layer-subplot"><g class="shapelayer"/><g class="imagelayer"/></g><g class="minor-gridlayer"><g class="x"/><g class="y"/></g><g class="gridlayer"><g class="x"><path class="xgrid crisp" transform="translate(209.06,0)" d="M0,0v159" style="stroke: rgb(40, 52, 66); stroke-opacity: 1; stroke-width: 1px;"/><path class="xgrid crisp" transform="translate(343.06,0)" d="M0,0v159" style="stroke: rgb(40, 52, 66); stroke-opacity: 1; stroke-width: 1px;"/><path class="xgrid crisp" transform="translate(477.06,0)" d="M0,0v159" style="stroke: rgb(40, 52, 66); stroke-opacity: 1; stroke-width: 1px;"/><path class="xgrid crisp" transform="translate(611.05,0)" d="M0,0v159" style="stroke: rgb(40, 52, 66); stroke-opacity: 1; stroke-width: 1px;"/><path class="xgrid crisp" transform="translate(745.05,0)" d="M0,0v159" style="stroke: rgb(40, 52, 66); stroke-opacity: 1; stroke-width: 1px;"/></g><g class="y"/></g><g class="zerolinelayer"><path class="xzl zl crisp" transform="translate(75.06,0)" d="M0,0v159" style="stroke: rgb(40, 52, 66); stroke-opacity: 1; stroke-width: 2px;"/></g><g class="layer-between"><g class="shapelayer"/><g class="imagelayer"/></g><path class="xlines-below"/><path class="ylines-below"/><g class="overlines-below"/><g class="xaxislayer-below"/><g class="yaxislayer-below"/><g class="overaxes-below"/><g class="plot" transform="" clip-path="url(#clip4f6d01xyplot)"><g class="violinlayer mlayer"><g class="trace violins" style="opacity: 1;"><path class="violin" d="M40,151.05L40,150.87Q44.17,150.77 46.25,150.67C48.33,150.57 50.41,150.45 52.49,150.28C54.57,150.11 56.66,149.9 58.74,149.63C60.82,149.36 62.91,149.04 64.98,148.65C67.07,148.26 69.15,147.8 71.23,147.28C73.32,146.76 75.4,146.17 77.47,145.53C79.56,144.89 81.64,144.17 83.72,143.45C85.81,142.73 87.88,141.94 89.96,141.19C92.04,140.43 94.12,139.64 96.21,138.92C98.29,138.2 100.36,137.48 102.45,136.86C104.52,136.25 106.61,135.68 108.7,135.24C110.77,134.81 112.85,134.46 114.94,134.24C117.02,134.02 119.11,133.94 121.19,133.94C123.27,133.94 125.35,134.1 127.43,134.26C129.51,134.43 131.6,134.71 133.68,134.93C135.76,135.15 137.84,135.44 139.93,135.58C142.01,135.72 144.09,135.84 146.17,135.75C148.26,135.66 150.35,135.46 152.42,135.05C154.52,134.63 156.61,134.02 158.66,133.24C160.78,132.44 162.86,131.39 164.91,130.28C167.02,129.13 169.08,127.76 171.15,126.44C173.24,125.1 175.3,123.6 177.4,122.28C179.46,120.98 181.52,119.61 183.64,118.56C185.68,117.54 187.77,116.59 189.89,116.03C191.94,115.49 194.05,115.18 196.13,115.22C198.22,115.26 200.33,115.67 202.38,116.26C204.5,116.87 206.57,117.86 208.62,118.89C210.74,119.96 212.81,121.3 214.87,122.61C216.97,123.94 219.04,125.43 221.12,126.83C223.2,128.23 225.26,129.69 227.36,131.01C229.42,132.31 231.49,133.61 233.61,134.69C235.66,135.73 237.73,136.73 239.85,137.4C241.9,138.05 244.01,138.57 246.1,138.71C248.17,138.85 250.29,138.72 252.34,138.25C254.46,137.76 256.58,136.89 258.59,135.77C260.75,134.56 262.83,132.93 264.83,131.13C267.01,129.17 269.07,126.82 271.08,124.35C273.25,121.69 275.29,118.68 277.32,115.63C279.46,112.41 281.51,108.92 283.57,105.48C285.67,101.97 287.7,98.26 289.81,94.76C291.87,91.34 293.89,87.81 296.06,84.71C298.07,81.84 300.06,78.92 302.3,76.75C304.26,74.85 306.34,72.98 308.55,72.14C310.53,71.38 312.78,71.15 314.8,71.55C316.95,71.97 319.06,73.38 321.04,74.83C323.25,76.45 325.27,78.79 327.29,81.04C329.44,83.43 331.45,86.21 333.53,88.82C335.62,91.45 337.66,94.21 339.78,96.75C341.83,99.2 343.87,101.64 346.02,103.79C348.04,105.82 350.12,107.74 352.27,109.37C354.29,110.91 356.38,112.26 358.51,113.37C360.55,114.43 362.65,115.25 364.76,115.92C366.81,116.57 368.91,116.97 371,117.35C373.07,117.72 375.17,117.89 377.25,118.18C379.33,118.46 381.42,118.65 383.49,119.06C385.58,119.47 387.69,119.94 389.74,120.65C391.85,121.38 393.95,122.31 395.99,123.39C398.11,124.52 400.18,125.9 402.23,127.32C404.34,128.78 406.4,130.45 408.48,132.05C410.57,133.65 412.62,135.37 414.72,136.92C416.78,138.45 418.85,139.98 420.97,141.3C423.02,142.58 425.09,143.76 427.21,144.74C429.26,145.69 431.36,146.47 433.46,147.11C435.52,147.73 437.61,148.18 439.7,148.53C441.77,148.88 443.86,149.06 445.95,149.2C448.03,149.34 450.11,149.36 452.19,149.35C454.27,149.34 456.36,149.26 458.44,149.15C460.52,149.04 462.6,148.88 464.68,148.71C466.76,148.54 468.85,148.32 470.93,148.12C473.01,147.92 475.09,147.69 477.17,147.5C479.25,147.31 481.34,147.12 483.42,146.99C485.5,146.86 487.59,146.75 489.67,146.71C491.75,146.67 493.83,146.69 495.91,146.76C497.99,146.83 500.08,146.97 502.16,147.14C504.24,147.31 506.32,147.56 508.4,147.8C510.48,148.04 512.57,148.32 514.65,148.58C516.73,148.84 518.81,149.11 520.89,149.34C522.97,149.57 525.06,149.8 527.14,149.98C529.22,150.16 531.3,150.31 533.38,150.44C535.46,150.57 537.55,150.66 539.63,150.74C541.71,150.82 543.79,150.86 545.87,150.9C547.95,150.94 550.04,150.97 552.12,150.99C554.2,151.01 556.28,151.02 558.36,151.03C560.44,151.04 562.53,151.04 564.61,151.04C566.69,151.04 568.78,151.05 570.86,151.05C572.94,151.05 575.02,151.05 577.1,151.05C579.18,151.05 581.27,151.05 583.35,151.05C585.43,151.05 587.51,151.05 589.59,151.05C591.67,151.05 593.76,151.05 595.84,151.05C597.92,151.05 600,151.04 602.08,151.04C604.16,151.04 606.25,151.04 608.33,151.03C610.41,151.03 612.49,151.02 614.57,151.01C616.65,151 618.74,150.99 620.82,150.97C622.9,150.96 624.98,150.94 627.06,150.92C629.14,150.9 631.23,150.87 633.31,150.84C635.39,150.81 637.47,150.79 639.55,150.76C641.63,150.73 643.72,150.7 645.8,150.67C647.88,150.64 649.96,150.62 652.04,150.6C654.12,150.58 656.21,150.55 658.29,150.53C660.37,150.51 662.46,150.5 664.54,150.47C666.62,150.44 668.7,150.41 670.78,150.36C672.86,150.31 674.95,150.26 677.03,150.18C679.11,150.11 681.19,150.01 683.27,149.91C685.35,149.81 687.44,149.69 689.52,149.58C691.6,149.47 693.68,149.35 695.76,149.26C697.84,149.17 699.93,149.08 702.01,149.04C704.09,149 706.17,148.98 708.25,149C710.33,149.02 712.42,149.08 714.5,149.16C716.58,149.24 718.66,149.36 720.74,149.48C722.82,149.6 724.91,149.74 726.99,149.87C729.07,150 731.15,150.13 733.23,150.25C735.31,150.37 737.4,150.48 739.48,150.57C741.56,150.66 743.65,150.73 745.73,150.79Q747.81,150.85 751.97,150.92L751.97,151.05" style="vector-effect: none; stroke-width: 2px; stroke: rgb(118, 122, 82); stroke-opacity: 1; fill: rgb(148, 153, 102); fill-opacity: 0.5;"/><path class="meanline" d="M287.94,97.93547821044922V151.05" style="fill: none; vector-effect: none; stroke-width: 2px; stroke-dasharray: 4px, 2px; stroke: rgb(118, 122, 82); stroke-opacity: 1;"/></g><g class="trace violins" style="opacity: 1;"><path class="violin" d="M200.81,119.25L200.81,119.09Q202.91,119 203.96,118.92C205.01,118.84 206.05,118.75 207.1,118.62C208.15,118.49 209.2,118.35 210.25,118.16C211.3,117.97 212.35,117.75 213.4,117.5C214.45,117.25 215.5,116.95 216.55,116.64C217.6,116.33 218.65,115.99 219.7,115.65C220.75,115.31 221.8,114.94 222.85,114.6C223.9,114.26 224.95,113.92 226,113.62C227.05,113.32 228.1,113.05 229.15,112.8C230.2,112.55 231.25,112.35 232.3,112.14C233.35,111.94 234.4,111.77 235.45,111.57C236.5,111.37 237.55,111.19 238.6,110.95C239.65,110.71 240.71,110.44 241.75,110.11C242.8,109.78 243.85,109.4 244.89,108.98C245.95,108.56 247,108.08 248.04,107.59C249.1,107.09 250.14,106.56 251.19,106.02C252.24,105.48 253.29,104.93 254.34,104.37C255.39,103.81 256.45,103.24 257.49,102.64C258.55,102.04 259.6,101.42 260.64,100.76C261.7,100.09 262.75,99.39 263.79,98.67C264.85,97.94 265.89,97.17 266.94,96.42C267.99,95.67 269.03,94.89 270.09,94.18C271.13,93.48 272.18,92.79 273.24,92.17C274.28,91.56 275.33,91 276.39,90.49C277.43,89.99 278.48,89.54 279.54,89.13C280.58,88.73 281.62,88.36 282.68,88.07C283.72,87.78 284.77,87.51 285.83,87.39C286.87,87.27 287.94,87.21 288.98,87.33C290.04,87.45 291.11,87.72 292.13,88.13C293.21,88.56 294.26,89.2 295.28,89.88C296.36,90.59 297.39,91.49 298.43,92.34C299.49,93.2 300.51,94.18 301.58,95.02C302.62,95.84 303.65,96.69 304.73,97.32C305.75,97.92 306.81,98.47 307.88,98.75C308.91,99.02 309.99,99.15 311.03,99.03C312.09,98.91 313.17,98.53 314.18,97.99C315.28,97.4 316.34,96.52 317.33,95.53C318.45,94.41 319.47,93.01 320.47,91.53C321.58,89.88 322.6,87.97 323.62,86.04C324.71,83.97 325.73,81.7 326.77,79.5C327.83,77.28 328.84,74.93 329.92,72.79C330.94,70.77 331.95,68.72 333.07,67C334.06,65.48 335.08,64.02 336.22,62.93C337.2,61.98 338.28,61.25 339.37,60.69C340.38,60.17 341.47,59.94 342.52,59.59C343.57,59.24 344.64,59.03 345.67,58.61C346.74,58.18 347.79,57.64 348.82,57.03C349.89,56.39 350.92,55.55 351.97,54.82C353.02,54.09 354.03,53.22 355.12,52.67C356.14,52.16 357.2,51.64 358.26,51.56C359.3,51.48 360.41,51.74 361.41,52.18C362.52,52.67 363.55,53.62 364.56,54.53C365.66,55.51 366.66,56.79 367.71,57.91C368.76,59.02 369.76,60.29 370.86,61.21C371.87,62.05 372.91,62.95 374.01,63.3C375.02,63.62 376.16,63.69 377.16,63.37C378.27,63.02 379.33,62.05 380.31,61.05C381.46,59.87 382.45,58.2 383.46,56.58C384.56,54.8 385.56,52.72 386.61,50.79C387.66,48.87 388.64,46.76 389.76,45.03C390.76,43.49 391.72,41.76 392.91,40.88C393.86,40.18 395.05,39.58 396.05,39.75C397.16,39.94 398.25,41.18 399.2,42.35C400.42,43.86 401.36,46.2 402.35,48.42C403.48,50.97 404.47,53.96 405.5,56.84C406.57,59.84 407.59,63.05 408.65,66.08C409.69,69.04 410.71,72.04 411.8,74.81C412.81,77.39 413.84,79.9 414.95,82.19C415.95,84.26 416.99,86.23 418.1,87.99C419.1,89.57 420.14,91.03 421.25,92.31C422.25,93.47 423.31,94.51 424.4,95.39C425.41,96.2 426.47,96.89 427.55,97.45C428.57,97.98 429.64,98.37 430.7,98.72C431.74,99.06 432.79,99.27 433.84,99.52C434.89,99.77 435.95,99.94 436.99,100.23C438.05,100.52 439.11,100.83 440.14,101.26C441.21,101.71 442.26,102.25 443.29,102.88C444.36,103.54 445.41,104.33 446.44,105.14C447.51,105.98 448.54,106.94 449.59,107.86C450.64,108.79 451.68,109.78 452.74,110.69C453.78,111.58 454.82,112.48 455.89,113.28C456.92,114.05 457.97,114.78 459.04,115.39C460.07,115.98 461.12,116.49 462.19,116.91C463.23,117.32 464.28,117.63 465.34,117.89C466.38,118.14 467.44,118.31 468.49,118.44C469.53,118.57 470.58,118.64 471.63,118.69C472.68,118.74 473.73,118.74 474.78,118.74C475.83,118.74 476.88,118.71 477.93,118.68C478.98,118.65 480.03,118.59 481.08,118.54C482.13,118.49 483.18,118.43 484.23,118.39C485.28,118.35 486.33,118.3 487.38,118.28C488.43,118.26 489.48,118.24 490.53,118.25C491.58,118.26 492.63,118.29 493.68,118.32C494.73,118.36 495.78,118.4 496.83,118.46C497.88,118.52 498.93,118.59 499.98,118.66C501.03,118.72 502.08,118.79 503.13,118.85C504.18,118.91 505.23,118.96 506.28,119.01Q507.33,119.05 509.42,119.12L509.42,119.25" style="vector-effect: none; stroke-width: 2px; stroke: rgb(53, 78, 151); stroke-opacity: 1; fill: rgb(66, 97, 189); fill-opacity: 0.5;"/><path class="meanline" d="M355.6,52.432430267333984V119.25" style="fill: none; vector-effect: none; stroke-width: 2px; stroke-dasharray: 4px, 2px; stroke: rgb(53, 78, 151); stroke-opacity: 1;"/></g><g class="trace violins" style="opacity: 1;"><path class="violin" d="M366.97,87.45L366.97,87Q370.83,86.75 372.75,86.54C374.68,86.33 376.61,86.08 378.53,85.76C380.46,85.43 382.39,85.05 384.31,84.59C386.24,84.13 388.17,83.59 390.09,83.01C392.02,82.42 393.95,81.77 395.87,81.09C397.8,80.41 399.73,79.67 401.65,78.94C403.58,78.21 405.5,77.45 407.43,76.69C409.36,75.93 411.29,75.18 413.21,74.39C415.14,73.59 417.08,72.8 418.99,71.91C420.93,71.01 422.87,70.08 424.77,69.02C426.72,67.93 428.66,66.74 430.55,65.43C432.51,64.07 434.43,62.56 436.33,60.98C438.29,59.35 440.2,57.56 442.11,55.78C444.05,53.97 445.95,52.03 447.89,50.21C449.81,48.41 451.71,46.55 453.67,44.9C455.56,43.31 457.47,41.75 459.45,40.47C461.33,39.26 463.26,38.17 465.23,37.38C467.12,36.63 469.07,36.09 471.01,35.79C472.92,35.5 474.87,35.48 476.79,35.59C478.72,35.7 480.66,36.06 482.57,36.48C484.51,36.91 486.44,37.51 488.35,38.15C490.29,38.8 492.21,39.56 494.13,40.35C496.07,41.15 497.99,42.03 499.91,42.94C501.85,43.86 503.77,44.84 505.69,45.83C507.62,46.83 509.54,47.91 511.47,48.92C513.39,49.93 515.3,51 517.25,51.89C519.16,52.76 521.07,53.68 523.03,54.2C524.93,54.71 526.89,55.13 528.81,55.03C530.75,54.93 532.75,54.44 534.59,53.56C536.62,52.59 538.55,50.99 540.37,49.24C542.43,47.26 544.29,44.69 546.15,42.12C548.16,39.34 550.02,36.12 551.93,33.07C553.87,29.98 555.72,26.63 557.71,23.7C559.57,20.96 561.4,18.09 563.48,15.99C565.29,14.17 567.21,12.34 569.26,11.6C571.09,10.94 573.18,10.87 575.04,11.34C577.05,11.85 578.98,13.36 580.82,14.81C582.85,16.41 584.7,18.64 586.6,20.69C588.56,22.81 590.43,25.19 592.38,27.32C594.28,29.4 596.17,31.52 598.16,33.34C600.03,35.06 601.95,36.69 603.94,38.02C605.81,39.27 607.75,40.35 609.72,41.17C611.61,41.95 613.55,42.54 615.5,42.87C617.41,43.19 619.36,43.29 621.28,43.15C623.22,43.01 625.17,42.6 627.06,42C629.02,41.38 630.95,40.47 632.84,39.47C634.81,38.42 636.72,37.13 638.62,35.81C640.57,34.46 642.48,32.94 644.4,31.45C646.34,29.95 648.25,28.36 650.18,26.84C652.1,25.33 654.02,23.8 655.96,22.35C657.87,20.92 659.79,19.51 661.74,18.2C663.65,16.91 665.57,15.67 667.52,14.53C669.43,13.42 671.35,12.34 673.3,11.43C675.2,10.54 677.13,9.69 679.08,9.11C680.98,8.54 682.93,8.04 684.86,7.95C686.78,7.86 688.76,7.98 690.64,8.54C692.62,9.13 694.59,10.18 696.42,11.52C698.47,13.02 700.37,15.1 702.2,17.31C704.25,19.8 706.12,22.8 707.98,25.84C709.99,29.13 711.86,32.81 713.76,36.43C715.72,40.16 717.6,44.12 719.54,47.9C721.45,51.62 723.33,55.42 725.32,58.93C727.19,62.24 729.08,65.51 731.1,68.41C732.95,71.07 734.85,73.58 736.88,75.72C738.72,77.66 740.65,79.4 742.66,80.81C744.52,82.12 746.47,83.16 748.44,84C750.33,84.81 752.28,85.35 754.22,85.81Q756.13,86.26 760,86.74L760,87.45" style="vector-effect: none; stroke-width: 2px; stroke: rgb(136, 68, 136); stroke-opacity: 1; fill: rgb(170, 85, 170); fill-opacity: 0.5;"/><path class="meanline" d="M588.54,22.883302688598633V87.45" style="fill: none; vector-effect: none; stroke-width: 2px; stroke-dasharray: 4px, 2px; stroke: rgb(136, 68, 136); stroke-opacity: 1;"/></g></g></g><g class="overplot"/><path class="xlines-above crisp" d="M0,0" style="fill: none;"/><path class="ylines-above crisp" d="M0,0" style="fill: none;"/><g class="overlines-above"/><g class="xaxislayer-above"><g class="xtick"><text text-anchor="middle" x="0" y="172" transform="translate(75.06,0)" style="font-family: 'Open Sans', verdana, arial, sans-serif; font-size: 12px; fill: rgb(242, 245, 250); fill-opacity: 1; white-space: pre; opacity: 1;">0</text></g><g class="xtick"><text text-anchor="middle" x="0" y="172" style="font-family: 'Open Sans', verdana, arial, sans-serif; font-size: 12px; fill: rgb(242, 245, 250); fill-opacity: 1; white-space: pre; opacity: 1;" transform="translate(209.06,0)">100</text></g><g class="xtick"><text text-anchor="middle" x="0" y="172" style="font-family: 'Open Sans', verdana, arial, sans-serif; font-size: 12px; fill: rgb(242, 245, 250); fill-opacity: 1; white-space: pre; opacity: 1;" transform="translate(343.06,0)">200</text></g><g class="xtick"><text text-anchor="middle" x="0" y="172" style="font-family: 'Open Sans', verdana, arial, sans-serif; font-size: 12px; fill: rgb(242, 245, 250); fill-opacity: 1; white-space: pre; opacity: 1;" transform="translate(477.06,0)">300</text></g><g class="xtick"><text text-anchor="middle" x="0" y="172" style="font-family: 'Open Sans', verdana, arial, sans-serif; font-size: 12px; fill: rgb(242, 245, 250); fill-opacity: 1; white-space: pre; opacity: 1;" transform="translate(611.05,0)">400</text></g><g class="xtick"><text text-anchor="middle" x="0" y="172" style="font-family: 'Open Sans', verdana, arial, sans-serif; font-size: 12px; fill: rgb(242, 245, 250); fill-opacity: 1; white-space: pre; opacity: 1;" transform="translate(745.05,0)">500</text></g></g><g class="yaxislayer-above"/><g class="overaxes-above"/></g></g><g class="polarlayer"/><g class="smithlayer"/><g class="ternarylayer"/><g class="geolayer"/><g class="funnelarealayer"/><g class="pielayer"/><g class="iciclelayer"/><g class="treemaplayer"/><g class="sunburstlayer"/><g class="glimages"/><defs id="topdefs-4f6d01"><g class="clips"/></defs><g class="layer-above"><g class="imagelayer"/><g class="shapelayer"/></g><g class="infolayer"><g class="g-gtitle"/><g class="g-xtitle" transform="translate(0,-2.3000000000000114)"><text class="xtitle" x="400" y="199.3" text-anchor="middle" style="font-family: 'Open Sans', verdana, arial, sans-serif; font-size: 14px; fill: rgb(242, 245, 250); opacity: 1; white-space: pre;">Nkids</text></g><g class="g-ytitle"/></g></svg>