<svg class="main-svg" xmlns="http://www.w3.org/2000/svg" xmlns:xlink="http://www.w3.org/1999/xlink" width="800" height="200" style="" viewBox="0 0 800 200"><rect x="0" y="0" width="800" height="200" style="fill: rgb(0, 0, 0); fill-opacity: 0;"/><defs id="defs-452aeb"><g class="clips"><clipPath id="clip452aebxyplot" class="plotclip"><rect width="800" height="159"/></clipPath><clipPath class="axesclip" id="clip452aebx"><rect x="0" y="0" width="800" height="200"/></clipPath><clipPath class="axesclip" id="clip452aeby"><rect x="0" y="0" width="800" height="159"/></clipPath><clipPath class="axesclip" id="clip452aebxy"><rect x="0" y="0" width="800" height="159"/></clipPath></g><g class="gradients"/><g class="patterns"/></defs><g class="bglayer"><rect class="bg" x="0" y="0" width="800" height="159" style="fill: rgb(0, 0, 0); fill-opacity: 0; stroke-width: 0;"/></g><g class="layer-below"><g class="imagelayer"/><g class="shapelayer"/></g><g class="cartesianlayer"><g class="subplot xy"><g class="layer-subplot"><g class="shapelayer"/><g class="imagelayer"/></g><g class="minor-gridlayer"><g class="x"/><g class="y"/></g><g class="gridlayer"><g class="x"><path class="xgrid crisp" transform="translate(139.46,0)" d="M0,0v159" style="stroke: rgb(40, 52, 66); stroke-opacity: 1; stroke-width: 1px;"/><path class="xgrid crisp" transform="translate(222.2,0)" d="M0,0v159" style="stroke: rgb(40, 52, 66); stroke-opacity: 1; stroke-width: 1px;"/><path class="xgrid crisp" transform="translate(304.94,0)" d="M0,0v159" style="stroke: rgb(40, 52, 66); stroke-opacity: 1; stroke-width: 1px;"/><path class="xgrid crisp" transform="translate(387.68,0)" d="M0,0v159" style="stroke: rgb(40, 52, 66); stroke-opacity: 1; stroke-width: 1px;"/><path class="xgrid crisp" transform="translate(470.42,0)" d="M0,0v159" style="stroke: rgb(40, 52, 66); stroke-opacity: 1; stroke-width: 1px;"/><path class="xgrid crisp" transform="translate(553.16,0)" d="M0,0v159" style="stroke: rgb(40, 52, 66); stroke-opacity: 1; stroke-width: 1px;"/><path class="xgrid crisp" transform="translate(635.9,0)" d="M0,0v159" style="stroke: rgb(40, 52, 66); stroke-opacity: 1; stroke-width: 1px;"/><path class="xgrid crisp" transform="translate(718.64,0)" d="M0,0v159" style="stroke: rgb(40, 52, 66); stroke-opacity: 1; stroke-width: 1px;"/></g><g class="y"/></g><g class="zerolinelayer"><path class="xzl zl crisp" transform="translate(56.72,0)" d="M0,0v159" style="stroke: rgb(40, 52, 66); stroke-opacity: 1; stroke-width: 2px;"/></g><g class="layer-between"><g class="shapelayer"/><g class="imagelayer"/></g><path class="xlines-below"/><path class="ylines-below"/><g class="overlines-below"/><g class="xaxislayer-below"/><g class="yaxislayer-below"/><g class="overaxes-below"/><g class="plot" transform="" clip-path="url(#clip452aebxyplot)"><g class="violinlayer mlayer"><g class="trace violins" style="opacity: 1;"><path class="violin" d="M40,151.05L40,150.95Q43.69,150.9 45.53,150.85C47.38,150.8 49.22,150.74 51.07,150.66C52.91,150.58 54.76,150.47 56.6,150.35C58.45,150.23 60.3,150.09 62.14,149.92C63.99,149.75 65.83,149.55 67.67,149.34C69.51,149.13 71.36,148.89 73.2,148.65C75.05,148.41 76.89,148.14 78.74,147.88C80.58,147.62 82.43,147.34 84.27,147.07C86.12,146.8 87.96,146.53 89.81,146.26C91.65,145.99 93.5,145.71 95.34,145.44C97.19,145.17 99.03,144.89 100.88,144.62C102.72,144.35 104.57,144.08 106.41,143.83C108.25,143.58 110.09,143.33 111.94,143.11C113.78,142.89 115.63,142.69 117.48,142.49C119.32,142.3 121.17,142.13 123.01,141.94C124.86,141.75 126.71,141.59 128.55,141.37C130.4,141.15 132.24,140.92 134.08,140.62C135.93,140.32 137.77,139.97 139.61,139.57C141.46,139.17 143.31,138.69 145.15,138.2C147,137.71 148.83,137.16 150.68,136.65C152.52,136.14 154.37,135.6 156.22,135.16C158.06,134.72 159.9,134.3 161.75,134.01C163.59,133.72 165.43,133.51 167.28,133.43C169.12,133.35 170.98,133.39 172.82,133.55C174.67,133.71 176.52,134 178.35,134.37C180.21,134.74 182.05,135.25 183.89,135.78C185.74,136.31 187.58,136.95 189.42,137.55C191.27,138.15 193.11,138.81 194.96,139.39C196.8,139.97 198.64,140.55 200.49,141.02C202.32,141.49 204.17,141.92 206.02,142.22C207.86,142.52 209.71,142.74 211.56,142.83C213.4,142.92 215.25,142.91 217.09,142.77C218.94,142.63 220.8,142.37 222.63,141.99C224.49,141.6 226.34,141.09 228.16,140.46C230.02,139.82 231.87,139.05 233.69,138.18C235.56,137.29 237.41,136.26 239.23,135.16C241.1,134.04 242.94,132.79 244.76,131.5C246.63,130.18 248.46,128.75 250.3,127.33C252.15,125.89 253.98,124.37 255.83,122.91C257.67,121.45 259.49,119.95 261.36,118.58C263.19,117.24 265.02,115.91 266.9,114.76C268.71,113.65 270.56,112.62 272.43,111.77C274.25,110.95 276.11,110.28 277.97,109.73C279.8,109.19 281.65,108.83 283.5,108.5C285.34,108.17 287.19,107.98 289.04,107.75C290.88,107.52 292.73,107.34 294.57,107.11C296.41,106.88 298.26,106.64 300.1,106.37C301.95,106.1 303.8,105.79 305.64,105.49C307.49,105.18 309.33,104.86 311.17,104.54C313.02,104.22 314.87,103.9 316.71,103.56C318.56,103.22 320.4,102.89 322.24,102.49C324.09,102.09 325.93,101.68 327.77,101.17C329.63,100.66 331.48,100.09 333.31,99.42C335.17,98.74 337.01,97.97 338.84,97.11C340.71,96.23 342.55,95.24 344.38,94.19C346.24,93.12 348.08,91.95 349.91,90.77C351.77,89.58 353.6,88.29 355.45,87.07C357.29,85.85 359.12,84.59 360.98,83.45C362.81,82.34 364.64,81.23 366.51,80.31C368.33,79.41 370.18,78.62 372.05,77.96C373.87,77.32 375.73,76.84 377.58,76.38C379.42,75.93 381.27,75.61 383.12,75.22C384.96,74.83 386.81,74.47 388.65,74.05C390.5,73.63 392.33,73.1 394.18,72.68C396.02,72.26 397.86,71.73 399.72,71.55C401.55,71.38 403.44,71.25 405.25,71.62C407.13,72.01 409.03,72.8 410.79,73.91C412.75,75.15 414.56,77 416.32,78.91C418.27,81.03 420.04,83.65 421.85,86.18C423.74,88.82 425.52,91.74 427.39,94.44C429.21,97.08 431,99.8 432.92,102.18C434.7,104.39 436.52,106.53 438.46,108.28C440.23,109.88 442.08,111.26 443.99,112.38C445.78,113.43 447.66,114.19 449.53,114.89C451.35,115.57 453.21,116.03 455.06,116.54C456.9,117.05 458.75,117.49 460.59,117.97C462.44,118.46 464.28,118.97 466.13,119.45C467.97,119.93 469.81,120.44 471.66,120.87C473.5,121.3 475.35,121.7 477.2,122.01C479.04,122.32 480.88,122.55 482.73,122.73C484.57,122.91 486.42,122.99 488.26,123.1C490.11,123.21 491.96,123.25 493.8,123.4C495.65,123.55 497.49,123.7 499.33,124C501.18,124.31 503.04,124.69 504.87,125.23C506.73,125.78 508.58,126.47 510.4,127.27C512.27,128.09 514.11,129.09 515.93,130.13C517.8,131.19 519.63,132.4 521.47,133.59C523.33,134.8 525.15,136.1 527,137.33C528.84,138.55 530.68,139.8 532.54,140.94C534.37,142.06 536.2,143.15 538.07,144.11C539.89,145.05 541.74,145.9 543.61,146.63C545.43,147.34 547.28,147.95 549.14,148.45C550.97,148.95 552.82,149.32 554.67,149.64C556.51,149.96 558.36,150.17 560.21,150.35Q562.05,150.53 565.74,150.73L565.74,151.05" style="vector-effect: none; stroke-width: 2px; stroke: rgb(118, 122, 82); stroke-opacity: 1; fill: rgb(148, 153, 102); fill-opacity: 0.5;"/><path class="meanline" d="M354.69,87.5750961303711V151.05" style="fill: none; vector-effect: none; stroke-width: 2px; stroke-dasharray: 4px, 2px; stroke: rgb(118, 122, 82); stroke-opacity: 1;"/></g><g class="trace violins" style="opacity: 1;"><path class="violin" d="M279.29,119.25L279.29,119.2Q281.67,119.17 282.86,119.15C284.05,119.12 285.24,119.09 286.43,119.05C287.62,119.01 288.82,118.97 290.01,118.91C291.2,118.85 292.39,118.78 293.58,118.71C294.77,118.64 295.96,118.56 297.15,118.47C298.34,118.38 299.53,118.28 300.72,118.18C301.91,118.08 303.11,117.97 304.3,117.86C305.49,117.75 306.68,117.63 307.87,117.5C309.06,117.37 310.25,117.23 311.44,117.07C312.63,116.9 313.82,116.72 315.01,116.51C316.2,116.29 317.4,116.06 318.59,115.78C319.78,115.5 320.97,115.19 322.16,114.84C323.35,114.49 324.55,114.11 325.73,113.69C326.93,113.27 328.11,112.81 329.3,112.33C330.5,111.84 331.7,111.33 332.88,110.77C334.08,110.21 335.27,109.61 336.45,108.96C337.65,108.3 338.85,107.61 340.02,106.84C341.23,106.05 342.42,105.2 343.59,104.29C344.8,103.35 345.99,102.34 347.17,101.28C348.38,100.19 349.56,99.03 350.74,97.85C351.94,96.65 353.12,95.39 354.31,94.16C355.5,92.93 356.68,91.66 357.88,90.45C359.06,89.26 360.25,88.07 361.46,86.95C362.64,85.86 363.83,84.83 365.03,83.83C366.21,82.86 367.41,81.96 368.6,81.04C369.79,80.12 370.99,79.26 372.17,78.32C373.37,77.36 374.58,76.4 375.75,75.33C376.97,74.21 378.16,73.01 379.32,71.73C380.54,70.39 381.72,68.92 382.89,67.43C384.1,65.88 385.28,64.22 386.46,62.58C387.66,60.92 388.84,59.19 390.04,57.53C391.22,55.88 392.4,54.22 393.61,52.65C394.78,51.13 395.96,49.63 397.18,48.24C398.34,46.92 399.52,45.62 400.75,44.5C401.91,43.44 403.09,42.42 404.33,41.65C405.48,40.93 406.68,40.27 407.9,39.96C409.06,39.66 410.3,39.55 411.47,39.75C412.69,39.96 413.91,40.55 415.04,41.28C416.3,42.09 417.48,43.3 418.62,44.54C419.87,45.9 421.03,47.54 422.19,49.15C423.41,50.84 424.57,52.68 425.76,54.45C426.95,56.22 428.12,58.04 429.33,59.77C430.51,61.45 431.7,63.09 432.91,64.68C434.08,66.22 435.28,67.68 436.48,69.15C437.66,70.61 438.87,72.02 440.05,73.48C441.25,74.96 442.44,76.45 443.62,77.98C444.82,79.54 446.01,81.16 447.2,82.76C448.39,84.36 449.56,86.02 450.77,87.56C451.94,89.06 453.11,90.57 454.34,91.89C455.49,93.12 456.67,94.31 457.91,95.26C459.06,96.14 460.26,96.9 461.49,97.47C462.65,98.01 463.86,98.35 465.06,98.64C466.24,98.92 467.44,99.03 468.63,99.2C469.82,99.37 471.01,99.46 472.2,99.65C473.4,99.84 474.59,100.07 475.78,100.36C476.98,100.66 478.16,101.05 479.35,101.43C480.54,101.81 481.72,102.28 482.92,102.66C484.11,103.03 485.29,103.44 486.49,103.68C487.67,103.92 488.88,104.09 490.07,104.09C491.26,104.09 492.46,103.95 493.64,103.68C494.85,103.4 496.04,102.94 497.21,102.44C498.42,101.92 499.6,101.26 500.78,100.61C501.98,99.95 503.17,99.2 504.36,98.51C505.55,97.82 506.73,97.11 507.93,96.48C509.11,95.86 510.3,95.25 511.5,94.74C512.68,94.24 513.87,93.79 515.07,93.44C516.25,93.1 517.45,92.83 518.65,92.66C519.83,92.49 521.03,92.41 522.22,92.41C523.41,92.41 524.6,92.51 525.79,92.65C526.98,92.8 528.17,93.03 529.36,93.28C530.56,93.53 531.75,93.84 532.94,94.16C534.13,94.48 535.32,94.82 536.51,95.2C537.7,95.58 538.9,95.98 540.08,96.44C541.28,96.91 542.47,97.42 543.65,98.01C544.86,98.62 546.06,99.31 547.23,100.06C548.44,100.84 549.62,101.71 550.8,102.61C552.01,103.53 553.18,104.55 554.37,105.54C555.56,106.54 556.74,107.59 557.94,108.58C559.12,109.56 560.31,110.55 561.52,111.44C562.69,112.31 563.88,113.15 565.09,113.88C566.26,114.59 567.45,115.24 568.66,115.79C569.83,116.33 571.03,116.78 572.23,117.17C573.41,117.55 574.6,117.84 575.8,118.09C576.99,118.34 578.19,118.5 579.38,118.65Q580.57,118.79 582.95,118.96L582.95,119.25" style="vector-effect: none; stroke-width: 2px; stroke: rgb(53, 78, 151); stroke-opacity: 1; fill: rgb(66, 97, 189); fill-opacity: 0.5;"/><path class="meanline" d="M430.62,61.58479690551758V119.25" style="fill: none; vector-effect: none; stroke-width: 2px; stroke-dasharray: 4px, 2px; stroke: rgb(53, 78, 151); stroke-opacity: 1;"/></g><g class="trace violins" style="opacity: 1;"><path class="violin" d="M433.2,87.45L433.2,87.4Q435.49,87.36 436.64,87.33C437.79,87.29 438.93,87.25 440.08,87.19C441.23,87.13 442.37,87.06 443.52,86.96C444.67,86.86 445.81,86.75 446.96,86.61C448.11,86.47 449.25,86.29 450.4,86.11C451.55,85.92 452.69,85.71 453.84,85.5C454.99,85.29 456.13,85.06 457.28,84.85C458.43,84.65 459.57,84.43 460.72,84.27C461.86,84.11 463.01,83.96 464.16,83.87C465.3,83.78 466.45,83.75 467.6,83.75C468.75,83.75 469.89,83.81 471.04,83.9C472.19,83.99 473.33,84.14 474.48,84.28C475.63,84.42 476.77,84.59 477.92,84.75C479.07,84.91 480.21,85.08 481.36,85.22C482.51,85.36 483.65,85.49 484.8,85.58C485.95,85.67 487.09,85.74 488.24,85.78C489.39,85.82 490.53,85.83 491.68,85.8C492.83,85.77 493.98,85.7 495.12,85.6C496.27,85.49 497.42,85.35 498.56,85.17C499.71,84.99 500.86,84.76 502,84.51C503.15,84.25 504.3,83.95 505.44,83.64C506.59,83.33 507.73,82.97 508.88,82.63C510.03,82.29 511.17,81.93 512.32,81.59C513.47,81.25 514.61,80.9 515.76,80.57C516.91,80.24 518.05,79.93 519.2,79.61C520.35,79.3 521.49,78.99 522.64,78.68C523.79,78.37 524.93,78.06 526.08,77.73C527.23,77.4 528.38,77.07 529.52,76.71C530.67,76.35 531.82,75.97 532.96,75.56C534.11,75.15 535.26,74.72 536.4,74.27C537.55,73.82 538.7,73.34 539.84,72.85C540.99,72.36 542.13,71.85 543.28,71.34C544.43,70.83 545.57,70.3 546.72,69.79C547.87,69.28 549.01,68.77 550.16,68.26C551.31,67.75 552.45,67.25 553.6,66.75C554.75,66.24 555.9,65.75 557.04,65.23C558.19,64.7 559.34,64.17 560.48,63.59C561.63,63.01 562.79,62.41 563.92,61.75C565.08,61.08 566.23,60.36 567.36,59.58C568.52,58.77 569.68,57.92 570.8,56.97C571.97,55.98 573.12,54.92 574.24,53.75C575.42,52.51 576.57,51.17 577.68,49.73C578.87,48.18 580.01,46.5 581.12,44.73C582.31,42.84 583.44,40.78 584.56,38.69C585.74,36.49 586.86,34.14 588,31.82C589.16,29.45 590.28,26.97 591.44,24.62C592.57,22.33 593.68,19.98 594.88,17.89C595.98,15.96 597.08,14.03 598.32,12.49C599.4,11.15 600.52,9.84 601.76,9.08C602.83,8.42 604.05,7.96 605.2,7.95C606.34,7.94 607.55,8.42 608.64,9.01C609.86,9.67 610.98,10.77 612.08,11.86C613.28,13.06 614.4,14.51 615.52,15.96C616.7,17.48 617.82,19.15 618.96,20.79C620.12,22.46 621.25,24.2 622.4,25.88C623.54,27.54 624.67,29.24 625.84,30.82C626.97,32.35 628.09,33.87 629.28,35.22C630.39,36.49 631.52,37.73 632.72,38.74C633.82,39.67 634.97,40.54 636.16,41.12C637.27,41.66 638.44,42.06 639.6,42.17C640.74,42.28 641.92,42.15 643.04,41.83C644.22,41.49 645.38,40.87 646.48,40.14C647.68,39.34 648.81,38.28 649.92,37.16C651.12,35.95 652.24,34.53 653.36,33.1C654.54,31.59 655.66,29.92 656.8,28.3C657.95,26.66 659.07,24.91 660.24,23.3C661.37,21.75 662.48,20.15 663.68,18.8C664.78,17.56 665.9,16.32 667.12,15.46C668.21,14.69 669.38,14 670.56,13.74C671.68,13.49 672.88,13.54 674,13.83C675.18,14.13 676.34,14.83 677.44,15.6C678.65,16.45 679.78,17.6 680.88,18.79C682.08,20.08 683.2,21.57 684.32,23.1C685.5,24.72 686.64,26.47 687.76,28.25C688.93,30.1 690.07,32.06 691.2,34.01C692.36,36 693.49,38.07 694.64,40.1C695.79,42.13 696.92,44.2 698.08,46.19C699.21,48.14 700.35,50.09 701.52,51.94C702.64,53.72 703.78,55.46 704.96,57.08C706.08,58.62 707.22,60.09 708.4,61.46C709.52,62.75 710.67,63.96 711.84,65.09C712.96,66.18 714.12,67.17 715.28,68.14C716.41,69.08 717.57,69.96 718.72,70.83C719.86,71.69 721.01,72.52 722.16,73.35C723.3,74.18 724.45,75 725.6,75.81C726.74,76.61 727.89,77.41 729.04,78.17C730.18,78.93 731.32,79.68 732.48,80.37C733.62,81.05 734.76,81.71 735.92,82.3C737.06,82.88 738.2,83.42 739.36,83.9C740.5,84.37 741.64,84.79 742.8,85.15C743.94,85.5 745.09,85.8 746.24,86.05C747.38,86.3 748.53,86.49 749.68,86.66C750.82,86.82 751.97,86.94 753.12,87.04C754.27,87.14 755.41,87.2 756.56,87.25Q757.71,87.3 760,87.36L760,87.45" style="vector-effect: none; stroke-width: 2px; stroke: rgb(136, 68, 136); stroke-opacity: 1; fill: rgb(170, 85, 170); fill-opacity: 0.5;"/><path class="meanline" d="M630.34,36.408199310302734V87.45" style="fill: none; vector-effect: none; stroke-width: 2px; stroke-dasharray: 4px, 2px; stroke: rgb(136, 68, 136); stroke-opacity: 1;"/></g></g></g><g class="overplot"/><path class="xlines-above crisp" d="M0,0" style="fill: none;"/><path class="ylines-above crisp" d="M0,0" style="fill: none;"/><g class="overlines-above"/><g class="xaxislayer-above"><g class="xtick"><text text-anchor="middle" x="0" y="172" transform="translate(56.72,0)" style="font-family: 'Open Sans', verdana, arial, sans-serif; font-size: 12px; fill: rgb(242, 245, 250); fill-opacity: 1; white-space: pre; opacity: 1;">0</text></g><g class="xtick"><text text-anchor="middle" x="0" y="172" style="font-family: 'Open Sans', verdana, arial, sans-serif; font-size: 12px; fill: rgb(242, 245, 250); fill-opacity: 1; white-space: pre; opacity: 1;" transform="translate(139.46,0)">20</text></g><g class="xtick"><text text-anchor="middle" x="0" y="172" style="font-family: 'Open Sans', verdana, arial, sans-serif; font-size: 12px; fill: rgb(242, 245, 250); fill-opacity: 1; white-space: pre; opacity: 1;" transform="translate(222.2,0)">40</text></g><g class="xtick"><text text-anchor="middle" x="0" y="172" style="font-family: 'Open Sans', verdana, arial, sans-serif; font-size: 12px; fill: rgb(242, 245, 250); fill-opacity: 1; white-space: pre; opacity: 1;" transform="translate(304.94,0)">60</text></g><g class="xtick"><text text-anchor="middle" x="0" y="172" style="font-family: 'Open Sans', verdana, arial, sans-serif; font-size: 12px; fill: rgb(242, 245, 250); fill-opacity: 1; white-space: pre; opacity: 1;" transform="translate(387.68,0)">80</text></g><g class="xtick"><text text-anchor="middle" x="0" y="172" style="font-family: 'Open Sans', verdana, arial, sans-serif; font-size: 12px; fill: rgb(242, 245, 250); fill-opacity: 1; white-space: pre; opacity: 1;" transform="translate(470.42,0)">100</text></g><g class="xtick"><text text-anchor="middle" x="0" y="172" style="font-family: 'Open Sans', verdana, arial, sans-serif; font-size: 12px; fill: rgb(242, 245, 250); fill-opacity: 1; white-space: pre; opacity: 1;" transform="translate(553.16,0)">120</text></g><g class="xtick"><text text-anchor="middle" x="0" y="172" style="font-family: 'Open Sans', verdana, arial, sans-serif; font-size: 12px; fill: rgb(242, 245, 250); fill-opacity: 1; white-space: pre; opacity: 1;" transform="translate(635.9,0)">140</text></g><g class="xtick"><text text-anchor="middle" x="0" y="172" style="font-family: 'Open Sans', verdana, arial, sans-serif; font-size: 12px; fill: rgb(242, 245, 250); fill-opacity: 1; white-space: pre; opacity: 1;" transform="translate(718.64,0)">160</text></g></g><g class="yaxislayer-above"/><g class="overaxes-above"/></g></g><g class="polarlayer"/><g class="smithlayer"/><g class="ternarylayer"/><g class="geolayer"/><g class="funnelarealayer"/><g class="pielayer"/><g class="iciclelayer"/><g class="treemaplayer"/><g class="sunburstlayer"/><g class="glimages"/><defs id="topdefs-452aeb"><g class="clips"/></defs><g class="layer-above"><g class="imagelayer"/><g class="shapelayer"/></g><g class="infolayer"><g class="g-gtitle"/><g class="g-xtitle" transform="translate(0,-2.3000000000000114)"><text class="xtitle" x="400" y="199.3" text-anchor="middle" style="font-family: 'Open Sans', verdana, arial, sans-serif; font-size: 14px; fill: rgb(242, 245, 250); opacity: 1; white-space: pre;">Max Energy</text></g><g class="g-ytitle"/></g></svg>