<svg class="main-svg" xmlns="http://www.w3.org/2000/svg" xmlns:xlink="http://www.w3.org/1999/xlink" width="800" height="200" style="" viewBox="0 0 800 200"><rect x="0" y="0" width="800" height="200" style="fill: rgb(0, 0, 0); fill-opacity: 0;"/><defs id="defs-7d6a40"><g class="clips"><clipPath id="clip7d6a40xyplot" class="plotclip"><rect width="800" height="159"/></clipPath><clipPath class="axesclip" id="clip7d6a40x"><rect x="0" y="0" width="800" height="200"/></clipPath><clipPath class="axesclip" id="clip7d6a40y"><rect x="0" y="0" width="800" height="159"/></clipPath><clipPath class="axesclip" id="clip7d6a40xy"><rect x="0" y="0" width="800" height="159"/></clipPath></g><g class="gradients"/><g class="patterns"/></defs><g class="bglayer"><rect class="bg" x="0" y="0" width="800" height="159" style="fill: rgb(0, 0, 0); fill-opacity: 0; stroke-width: 0;"/></g><g class="layer-below"><g class="imagelayer"/><g class="shapelayer"/></g><g class="cartesianlayer"><g class="subplot xy"><g class="layer-subplot"><g class="shapelayer"/><g class="imagelayer"/></g><g class="minor-gridlayer"><g class="x"/><g class="y"/></g><g class="gridlayer"><g class="x"><path class="xgrid crisp" transform="translate(191.6,0)" d="M0,0v159" style="stroke: rgb(40, 52, 66); stroke-opacity: 1; stroke-width: 1px;"/><path class="xgrid crisp" transform="translate(311.05,0)" d="M0,0v159" style="stroke: rgb(40, 52, 66); stroke-opacity: 1; stroke-width: 1px;"/><path class="xgrid crisp" transform="translate(430.5,0)" d="M0,0v159" style="stroke: rgb(40, 52, 66); stroke-opacity: 1; stroke-width: 1px;"/><path class="xgrid crisp" transform="translate(549.95,0)" d="M0,0v159" style="stroke: rgb(40, 52, 66); stroke-opacity: 1; stroke-width: 1px;"/><path class="xgrid crisp" transform="translate(669.41,0)" d="M0,0v159" style="stroke: rgb(40, 52, 66); stroke-opacity: 1; stroke-width: 1px;"/><path class="xgrid crisp" transform="translate(788.86,0)" d="M0,0v159" style="stroke: rgb(40, 52, 66); stroke-opacity: 1; stroke-width: 1px;"/></g><g class="y"/></g><g class="zerolinelayer"><path class="xzl zl crisp" transform="translate(72.15,0)" d="M0,0v159" style="stroke: rgb(40, 52, 66); stroke-opacity: 1; stroke-width: 2px;"/></g><g class="layer-between"><g class="shapelayer"/><g class="imagelayer"/></g><path class="xlines-below"/><path class="ylines-below"/><g class="overlines-below"/><g class="xaxislayer-below"/><g class="yaxislayer-below"/><g class="overaxes-below"/><g class="plot" transform="" clip-path="url(#clip7d6a40xyplot)"><g class="violinlayer mlayer"><g class="trace violins" style="opacity: 1;"><path class="violin" d="M40,151.05L40,144.22Q43.65,140.49 45.32,138.2C47.22,135.59 48.94,132.49 50.63,129.26C52.5,125.68 54.22,121.63 55.95,117.62C57.77,113.41 59.47,108.84 61.27,104.56C63.02,100.39 64.69,96.02 66.58,92.28C68.26,88.96 69.88,85.49 71.9,83.18C73.52,81.33 75.34,79.45 77.22,79.01C78.9,78.62 80.88,79.24 82.53,80.13C84.47,81.17 86.15,83.41 87.85,85.38C89.72,87.54 91.39,90.26 93.17,92.67C94.94,95.07 96.64,97.65 98.49,99.82C100.2,101.82 101.93,103.8 103.8,105.27C105.49,106.59 107.29,107.69 109.12,108.4C110.84,109.06 112.66,109.34 114.44,109.5C116.2,109.66 117.98,109.47 119.75,109.36C121.52,109.25 123.3,108.98 125.07,108.85C126.84,108.72 128.62,108.6 130.39,108.58C132.16,108.56 133.93,108.65 135.7,108.7C137.47,108.76 139.25,108.91 141.02,108.91C142.79,108.91 144.58,108.92 146.34,108.69C148.12,108.46 149.91,108.09 151.65,107.53C153.45,106.95 155.23,106.13 156.97,105.22C158.78,104.27 160.54,103.09 162.29,101.92C164.08,100.72 165.83,99.36 167.6,98.1C169.37,96.84 171.13,95.54 172.92,94.37C174.67,93.23 176.44,92.13 178.24,91.15C179.99,90.19 181.78,89.36 183.56,88.55C185.32,87.75 187.1,87.06 188.87,86.32C190.64,85.57 192.43,84.88 194.19,84.08C195.97,83.27 197.75,82.42 199.51,81.51C201.29,80.59 203.05,79.57 204.82,78.59C206.59,77.61 208.35,76.56 210.14,75.65C211.9,74.76 213.66,73.86 215.46,73.2C217.21,72.56 218.98,72.01 220.77,71.74C222.53,71.47 224.33,71.4 226.09,71.55C227.87,71.71 229.66,72.12 231.41,72.68C233.21,73.25 234.98,74.08 236.72,74.98C238.52,75.91 240.29,77.03 242.04,78.2C243.84,79.41 245.61,80.75 247.36,82.13C249.15,83.54 250.91,85.06 252.67,86.58C254.46,88.13 256.22,89.74 257.99,91.35C259.77,92.96 261.53,94.63 263.31,96.24C265.08,97.84 266.84,99.47 268.63,100.99C270.38,102.48 272.14,103.97 273.94,105.28C275.68,106.55 277.45,107.77 279.26,108.75C281,109.69 282.77,110.53 284.58,111.08C286.32,111.61 288.11,111.94 289.89,112.04C291.66,112.14 293.45,111.95 295.21,111.69C296.99,111.42 298.76,110.89 300.53,110.43C302.31,109.97 304.06,109.34 305.84,108.92C307.6,108.5 309.38,108.06 311.16,107.92C312.93,107.78 314.73,107.78 316.48,108.05C318.27,108.33 320.06,108.89 321.79,109.61C323.6,110.37 325.38,111.42 327.11,112.54C328.93,113.71 330.68,115.13 332.43,116.53C334.22,117.97 335.97,119.55 337.74,121.08C339.52,122.62 341.27,124.22 343.06,125.73C344.82,127.22 346.59,128.71 348.38,130.09C350.13,131.44 351.9,132.75 353.69,133.95C355.44,135.12 357.22,136.21 359.01,137.23C360.77,138.22 362.54,139.14 364.33,139.99C366.09,140.83 367.87,141.6 369.65,142.32C371.41,143.03 373.18,143.68 374.96,144.29C376.72,144.89 378.5,145.45 380.28,145.96C382.05,146.46 383.82,146.92 385.6,147.33C387.37,147.74 389.14,148.09 390.91,148.41C392.68,148.72 394.45,148.99 396.23,149.22C398,149.45 399.78,149.64 401.55,149.81C403.32,149.98 405.09,150.1 406.86,150.22C408.63,150.34 410.41,150.43 412.18,150.51C413.95,150.59 415.73,150.65 417.5,150.71C419.27,150.76 421.04,150.8 422.81,150.84C424.58,150.88 426.36,150.9 428.13,150.93C429.9,150.95 431.68,150.97 433.45,150.99Q435.22,151 438.76,151.02L438.76,151.05" style="vector-effect: none; stroke-width: 2px; stroke: rgb(118, 122, 82); stroke-opacity: 1; fill: rgb(148, 153, 102); fill-opacity: 0.5;"/><path class="meanline" d="M197.56,82.49079895019531V151.05" style="fill: none; vector-effect: none; stroke-width: 2px; stroke-dasharray: 4px, 2px; stroke: rgb(118, 122, 82); stroke-opacity: 1;"/></g><g class="trace violins" style="opacity: 1;"><path class="violin" d="M160.73,119.25L160.73,118.62Q165.49,118.27 167.87,118.01C170.25,117.74 172.63,117.43 175,117.03C177.39,116.63 179.77,116.15 182.14,115.62C184.52,115.09 186.9,114.47 189.27,113.86C191.65,113.25 194.02,112.56 196.4,111.94C198.78,111.33 201.15,110.68 203.54,110.17C205.91,109.67 208.28,109.2 210.67,108.9C213.04,108.6 215.43,108.4 217.81,108.35C220.19,108.3 222.57,108.4 224.94,108.57C227.32,108.74 229.69,109.06 232.07,109.35C234.45,109.64 236.83,110.03 239.21,110.32C241.59,110.6 243.96,110.91 246.34,111.06C248.72,111.21 251.1,111.29 253.48,111.21C255.86,111.13 258.24,110.91 260.61,110.59C262.99,110.27 265.37,109.79 267.74,109.28C270.13,108.77 272.5,108.13 274.88,107.52C277.26,106.91 279.63,106.25 282.01,105.63C284.39,105.01 286.77,104.41 289.15,103.82C291.53,103.24 293.9,102.69 296.28,102.12C298.66,101.55 301.05,101.02 303.42,100.4C305.8,99.78 308.18,99.14 310.55,98.42C312.94,97.69 315.31,96.9 317.68,96.03C320.07,95.15 322.45,94.19 324.82,93.19C327.21,92.18 329.58,91.09 331.95,89.99C334.34,88.88 336.71,87.72 339.09,86.57C341.47,85.42 343.84,84.24 346.22,83.08C348.6,81.92 350.97,80.77 353.35,79.63C355.73,78.49 358.11,77.37 360.49,76.26C362.87,75.15 365.24,74.06 367.62,72.96C370,71.86 372.39,70.78 374.76,69.64C377.15,68.49 379.53,67.34 381.89,66.09C384.28,64.83 386.66,63.51 389.02,62.1C391.42,60.67 393.8,59.12 396.16,57.55C398.55,55.96 400.91,54.25 403.29,52.61C405.67,50.97 408.02,49.25 410.43,47.73C412.78,46.24 415.14,44.74 417.56,43.57C419.9,42.44 422.28,41.41 424.7,40.77C427.04,40.15 429.45,39.77 431.83,39.75C434.21,39.73 436.61,40.06 438.96,40.62C441.37,41.2 443.77,42.14 446.1,43.23C448.53,44.36 450.9,45.8 453.23,47.34C455.66,48.94 458.03,50.78 460.37,52.68C462.79,54.65 465.15,56.8 467.5,58.97C469.9,61.18 472.26,63.53 474.63,65.82C477.01,68.12 479.37,70.51 481.77,72.76C484.13,74.98 486.48,77.2 488.9,79.23C491.24,81.19 493.61,83.1 496.04,84.76C498.37,86.35 500.75,87.82 503.17,89.03C505.51,90.2 507.9,91.18 510.31,91.94C512.66,92.68 515.05,93.21 517.44,93.58C519.8,93.94 522.19,94.09 524.57,94.14C526.95,94.19 529.33,94.07 531.71,93.9C534.09,93.73 536.46,93.43 538.84,93.14C541.22,92.85 543.6,92.49 545.98,92.18C548.36,91.87 550.73,91.55 553.11,91.3C555.48,91.06 557.86,90.84 560.24,90.71C562.62,90.58 565,90.53 567.38,90.52C569.76,90.51 572.13,90.59 574.51,90.67C576.89,90.75 579.27,90.89 581.65,91C584.03,91.11 586.4,91.23 588.78,91.32C591.16,91.41 593.53,91.47 595.91,91.52C598.29,91.57 600.67,91.57 603.05,91.61C605.43,91.65 607.8,91.66 610.18,91.74C612.56,91.82 614.94,91.91 617.32,92.08C619.7,92.25 622.08,92.48 624.45,92.78C626.83,93.08 629.22,93.45 631.59,93.89C633.97,94.33 636.35,94.86 638.72,95.42C641.1,95.99 643.48,96.62 645.85,97.28C648.23,97.94 650.61,98.67 652.99,99.4C655.37,100.13 657.74,100.9 660.12,101.67C662.5,102.44 664.88,103.22 667.26,104C669.64,104.78 672.01,105.57 674.39,106.33C676.76,107.09 679.14,107.84 681.52,108.56C683.9,109.28 686.28,109.98 688.66,110.64C691.03,111.3 693.41,111.92 695.79,112.51C698.16,113.09 700.55,113.64 702.93,114.15C705.3,114.65 707.68,115.12 710.06,115.54C712.44,115.96 714.82,116.33 717.2,116.67C719.57,117.01 721.95,117.3 724.33,117.56C726.7,117.82 729.08,118.03 731.46,118.21C733.84,118.39 736.22,118.54 738.6,118.66C740.98,118.78 743.35,118.87 745.73,118.94C748.11,119.01 750.49,119.06 752.87,119.1Q755.25,119.14 760,119.18L760,119.25" style="vector-effect: none; stroke-width: 2px; stroke: rgb(136, 68, 136); stroke-opacity: 1; fill: rgb(170, 85, 170); fill-opacity: 0.5;"/><path class="meanline" d="M452.14,46.630123138427734V119.25" style="fill: none; vector-effect: none; stroke-width: 2px; stroke-dasharray: 4px, 2px; stroke: rgb(136, 68, 136); stroke-opacity: 1;"/></g><g class="trace violins" style="opacity: 1;"><path class="violin" d="M200.05,87.45L200.05,87.19Q204.38,87.04 206.54,86.92C208.71,86.8 210.88,86.66 213.04,86.47C215.21,86.28 217.37,86.05 219.53,85.77C221.7,85.49 223.87,85.16 226.03,84.77C228.2,84.38 230.36,83.93 232.52,83.43C234.69,82.93 236.86,82.37 239.02,81.76C241.19,81.15 243.35,80.46 245.51,79.77C247.68,79.07 249.85,78.32 252.01,77.59C254.18,76.86 256.33,76.08 258.5,75.38C260.66,74.68 262.82,73.97 265,73.39C267.15,72.81 269.32,72.28 271.49,71.89C273.65,71.51 275.82,71.23 277.99,71.08C280.15,70.93 282.32,70.93 284.48,71.01C286.65,71.09 288.81,71.32 290.97,71.57C293.14,71.82 295.31,72.17 297.47,72.5C299.64,72.83 301.79,73.22 303.96,73.54C306.12,73.86 308.29,74.19 310.46,74.44C312.62,74.69 314.78,74.9 316.95,75.04C319.11,75.18 321.28,75.27 323.45,75.26C325.61,75.25 327.78,75.18 329.94,75C332.11,74.82 334.28,74.54 336.44,74.15C338.61,73.75 340.78,73.25 342.93,72.62C345.11,71.98 347.29,71.2 349.43,70.31C351.62,69.4 353.78,68.35 355.92,67.22C358.11,66.06 360.28,64.77 362.42,63.42C364.61,62.04 366.76,60.54 368.91,59.01C371.09,57.45 373.26,55.8 375.41,54.13C377.59,52.44 379.74,50.67 381.9,48.91C384.07,47.14 386.23,45.32 388.4,43.52C390.56,41.73 392.72,39.91 394.89,38.14C397.05,36.38 399.22,34.63 401.39,32.91C403.55,31.21 405.71,29.54 407.88,27.89C410.04,26.25 412.21,24.65 414.38,23.06C416.54,21.49 418.69,19.91 420.87,18.41C423.02,16.92 425.18,15.42 427.37,14.08C429.51,12.77 431.65,11.45 433.86,10.46C435.99,9.5 438.16,8.6 440.36,8.19C442.49,7.79 444.72,7.63 446.85,7.95C449.05,8.28 451.27,9.11 453.35,10.22C455.61,11.42 457.75,13.19 459.84,15.04C462.1,17.04 464.22,19.48 466.34,21.9C468.55,24.43 470.67,27.23 472.83,29.92C475,32.62 477.13,35.45 479.33,38.06C481.46,40.59 483.59,43.13 485.82,45.38C487.93,47.51 490.08,49.54 492.32,51.24C494.42,52.83 496.58,54.26 498.81,55.35C500.92,56.39 503.11,57.17 505.31,57.71C507.45,58.24 509.63,58.49 511.8,58.6C513.96,58.71 516.14,58.58 518.3,58.4C520.47,58.22 522.63,57.86 524.79,57.49C526.96,57.11 529.13,56.65 531.29,56.15C533.46,55.65 535.62,55.1 537.78,54.48C539.95,53.86 542.13,53.18 544.28,52.43C546.46,51.67 548.61,50.83 550.77,49.96C552.95,49.08 555.1,48.09 557.27,47.17C559.43,46.25 561.58,45.23 563.76,44.42C565.91,43.62 568.07,42.8 570.26,42.31C572.4,41.83 574.59,41.48 576.75,41.49C578.92,41.5 581.12,41.81 583.25,42.38C585.45,42.97 587.62,43.95 589.74,45.01C591.95,46.12 594.09,47.55 596.24,48.94C598.43,50.35 600.55,51.96 602.73,53.41C604.88,54.84 607.03,56.33 609.23,57.57C611.36,58.77 613.52,59.91 615.72,60.78C617.85,61.62 620.03,62.28 622.22,62.75C624.37,63.21 626.54,63.44 628.71,63.61C630.87,63.78 633.04,63.74 635.21,63.78C637.37,63.82 639.54,63.76 641.7,63.86C643.87,63.96 646.04,64.07 648.2,64.37C650.37,64.67 652.54,65.09 654.69,65.66C656.87,66.24 659.04,66.99 661.19,67.81C663.37,68.64 665.53,69.64 667.68,70.63C669.86,71.63 672.01,72.74 674.18,73.79C676.34,74.84 678.5,75.94 680.67,76.94C682.83,77.93 684.99,78.91 687.17,79.78C689.32,80.64 691.48,81.45 693.66,82.15C695.81,82.85 697.98,83.46 700.16,83.99C702.31,84.51 704.48,84.95 706.65,85.32C708.81,85.69 710.98,85.97 713.15,86.22C715.31,86.46 717.47,86.64 719.64,86.79C721.8,86.94 723.97,87.03 726.14,87.12Q728.3,87.2 732.63,87.3L732.63,87.45" style="vector-effect: none; stroke-width: 2px; stroke: rgb(53, 78, 151); stroke-opacity: 1; fill: rgb(66, 97, 189); fill-opacity: 0.5;"/><path class="meanline" d="M474.86,32.484195709228516V87.45" style="fill: none; vector-effect: none; stroke-width: 2px; stroke-dasharray: 4px, 2px; stroke: rgb(53, 78, 151); stroke-opacity: 1;"/></g></g></g><g class="overplot"/><path class="xlines-above crisp" d="M0,0" style="fill: none;"/><path class="ylines-above crisp" d="M0,0" style="fill: none;"/><g class="overlines-above"/><g class="xaxislayer-above"><g class="xtick"><text text-anchor="middle" x="0" y="172" transform="translate(72.15,0)" style="font-family: 'Open Sans', verdana, arial, sans-serif; font-size: 12px; fill: rgb(242, 245, 250); fill-opacity: 1; white-space: pre; opacity: 1;">0</text></g><g class="xtick"><text text-anchor="middle" x="0" y="172" style="font-family: 'Open Sans', verdana, arial, sans-serif; font-size: 12px; fill: rgb(242, 245, 250); fill-opacity: 1; white-space: pre; opacity: 1;" transform="translate(191.6,0)">10</text></g><g class="xtick"><text text-anchor="middle" x="0" y="172" style="font-family: 'Open Sans', verdana, arial, sans-serif; font-size: 12px; fill: rgb(242, 245, 250); fill-opacity: 1; white-space: pre; opacity: 1;" transform="translate(311.05,0)">20</text></g><g class="xtick"><text text-anchor="middle" x="0" y="172" style="font-family: 'Open Sans', verdana, arial, sans-serif; font-size: 12px; fill: rgb(242, 245, 250); fill-opacity: 1; white-space: pre; opacity: 1;" transform="translate(430.5,0)">30</text></g><g class="xtick"><text text-anchor="middle" x="0" y="172" style="font-family: 'Open Sans', verdana, arial, sans-serif; font-size: 12px; fill: rgb(242, 245, 250); fill-opacity: 1; white-space: pre; opacity: 1;" transform="translate(549.95,0)">40</text></g><g class="xtick"><text text-anchor="middle" x="0" y="172" style="font-family: 'Open Sans', verdana, arial, sans-serif; font-size: 12px; fill: rgb(242, 245, 250); fill-opacity: 1; white-space: pre; opacity: 1;" transform="translate(669.41,0)">50</text></g><g class="xtick"><text text-anchor="middle" x="0" y="172" style="font-family: 'Open Sans', verdana, arial, sans-serif; font-size: 12px; fill: rgb(242, 245, 250); fill-opacity: 1; white-space: pre; opacity: 1;" transform="translate(788.86,0)">60</text></g></g><g class="yaxislayer-above"/><g class="overaxes-above"/></g></g><g class="polarlayer"/><g class="smithlayer"/><g class="ternarylayer"/><g class="geolayer"/><g class="funnelarealayer"/><g class="pielayer"/><g class="iciclelayer"/><g class="treemaplayer"/><g class="sunburstlayer"/><g class="glimages"/><defs id="topdefs-7d6a40"><g class="clips"/></defs><g class="layer-above"><g class="imagelayer"/><g class="shapelayer"/></g><g class="infolayer"><g class="g-gtitle"/><g class="g-xtitle" transform="translate(0,-2.3000000000000114)"><text class="xtitle" x="400" y="199.3" text-anchor="middle" style="font-family: 'Open Sans', verdana, arial, sans-serif; font-size: 14px; fill: rgb(242, 245, 250); opacity: 1; white-space: pre;">Speed</text></g><g class="g-ytitle"/></g></svg>