<svg class="main-svg" xmlns="http://www.w3.org/2000/svg" xmlns:xlink="http://www.w3.org/1999/xlink" width="800" height="200" style="" viewBox="0 0 800 200"><rect x="0" y="0" width="800" height="200" style="fill: rgb(0, 0, 0); fill-opacity: 0;"/><defs id="defs-cd34da"><g class="clips"><clipPath id="clipcd34daxyplot" class="plotclip"><rect width="800" height="159"/></clipPath><clipPath class="axesclip" id="clipcd34dax"><rect x="0" y="0" width="800" height="200"/></clipPath><clipPath class="axesclip" id="clipcd34day"><rect x="0" y="0" width="800" height="159"/></clipPath><clipPath class="axesclip" id="clipcd34daxy"><rect x="0" y="0" width="800" height="159"/></clipPath></g><g class="gradients"/><g class="patterns"/></defs><g class="bglayer"><rect class="bg" x="0" y="0" width="800" height="159" style="fill: rgb(0, 0, 0); fill-opacity: 0; stroke-width: 0;"/></g><g class="layer-below"><g class="imagelayer"/><g class="shapelayer"/></g><g class="cartesianlayer"><g class="subplot xy"><g class="layer-subplot"><g class="shapelayer"/><g class="imagelayer"/></g><g class="minor-gridlayer"><g class="x"/><g class="y"/></g><g class="gridlayer"><g class="x"><path class="xgrid crisp" transform="translate(187.13,0)" d="M0,0v159" style="stroke: rgb(40, 52, 66); stroke-opacity: 1; stroke-width: 1px;"/><path class="xgrid crisp" transform="translate(322.84,0)" d="M0,0v159" style="stroke: rgb(40, 52, 66); stroke-opacity: 1; stroke-width: 1px;"/><path class="xgrid crisp" transform="translate(458.54,0)" d="M0,0v159" style="stroke: rgb(40, 52, 66); stroke-opacity: 1; stroke-width: 1px;"/><path class="xgrid crisp" transform="translate(594.25,0)" d="M0,0v159" style="stroke: rgb(40, 52, 66); stroke-opacity: 1; stroke-width: 1px;"/><path class="xgrid crisp" transform="translate(729.95,0)" d="M0,0v159" style="stroke: rgb(40, 52, 66); stroke-opacity: 1; stroke-width: 1px;"/></g><g class="y"/></g><g class="zerolinelayer"><path class="xzl zl crisp" transform="translate(51.42,0)" d="M0,0v159" style="stroke: rgb(40, 52, 66); stroke-opacity: 1; stroke-width: 2px;"/></g><g class="layer-between"><g class="shapelayer"/><g class="imagelayer"/></g><path class="xlines-below"/><path class="ylines-below"/><g class="overlines-below"/><g class="xaxislayer-below"/><g class="yaxislayer-below"/><g class="overaxes-below"/><g class="plot" transform="" clip-path="url(#clipcd34daxyplot)"><g class="violinlayer mlayer"><g class="trace violins" style="opacity: 1;"><path class="violin" d="M40,151.05L40,150.78Q44.41,150.61 46.62,150.46C48.83,150.31 51.04,150.13 53.25,149.88C55.46,149.62 57.67,149.32 59.87,148.93C62.08,148.53 64.29,148.06 66.49,147.51C68.71,146.95 70.92,146.3 73.12,145.6C75.34,144.89 77.54,144.08 79.74,143.27C81.95,142.45 84.15,141.55 86.36,140.7C88.57,139.84 90.77,138.95 92.99,138.14C95.19,137.33 97.39,136.53 99.61,135.83C101.81,135.14 104.01,134.5 106.23,133.97C108.43,133.45 110.64,133.01 112.86,132.68C115.06,132.35 117.27,132.13 119.48,132C121.68,131.87 123.89,131.87 126.1,131.91C128.31,131.95 130.52,132.1 132.73,132.23C134.94,132.36 137.14,132.58 139.35,132.69C141.56,132.8 143.77,132.93 145.98,132.89C148.19,132.85 150.4,132.74 152.6,132.42C154.82,132.1 157.04,131.61 159.22,130.96C161.45,130.29 163.67,129.41 165.85,128.45C168.08,127.47 170.28,126.27 172.47,125.1C174.69,123.92 176.87,122.6 179.09,121.4C181.29,120.21 183.49,118.97 185.72,117.94C187.9,116.93 190.1,115.97 192.34,115.28C194.52,114.61 196.74,114.09 198.96,113.85C201.16,113.61 203.39,113.62 205.59,113.84C207.81,114.06 210.03,114.57 212.21,115.19C214.44,115.82 216.64,116.72 218.83,117.63C221.06,118.56 223.25,119.67 225.46,120.71C227.67,121.76 229.86,122.9 232.08,123.9C234.27,124.89 236.47,125.9 238.7,126.67C240.89,127.42 243.1,128.12 245.33,128.49C247.52,128.85 249.76,129.05 251.95,128.87C254.17,128.69 256.42,128.2 258.57,127.4C260.84,126.56 263.06,125.29 265.2,123.83C267.49,122.27 269.68,120.29 271.82,118.22C274.1,116.02 276.27,113.48 278.44,110.93C280.69,108.28 282.87,105.4 285.07,102.59C287.29,99.75 289.46,96.78 291.69,93.97C293.88,91.21 296.05,88.4 298.31,85.85C300.47,83.41 302.65,80.98 304.94,78.95C307.07,77.06 309.26,75.22 311.56,73.97C313.69,72.82 315.95,71.83 318.19,71.55C320.37,71.28 322.68,71.52 324.81,72.24C327.11,73.01 329.33,74.57 331.43,76.27C333.77,78.17 335.93,80.74 338.06,83.31C340.36,86.09 342.5,89.32 344.68,92.43C346.91,95.62 349.06,99.06 351.3,102.23C353.48,105.31 355.63,108.47 357.93,111.19C360.06,113.7 362.21,116.18 364.55,118.02C366.65,119.68 368.88,121.14 371.17,121.93C373.31,122.67 375.6,122.93 377.8,122.81C380.02,122.69 382.25,121.93 384.42,121.16C386.67,120.36 388.84,119.12 391.04,118.04C393.26,116.96 395.43,115.66 397.67,114.68C399.85,113.73 402.05,112.77 404.29,112.23C406.47,111.7 408.71,111.38 410.91,111.43C413.12,111.48 415.37,111.9 417.54,112.54C419.79,113.21 422,114.27 424.16,115.42C426.42,116.62 428.61,118.14 430.78,119.67C433.02,121.25 435.21,123.04 437.41,124.79C439.63,126.56 441.81,128.46 444.03,130.25C446.23,132.02 448.41,133.84 450.65,135.48C452.83,137.08 455.03,138.65 457.28,140C459.45,141.3 461.66,142.5 463.9,143.48C466.07,144.43 468.29,145.2 470.52,145.8C472.71,146.39 474.93,146.78 477.15,147.06C479.35,147.34 481.56,147.44 483.77,147.49C485.98,147.54 488.18,147.46 490.39,147.38C492.6,147.3 494.81,147.12 497.02,146.99C499.23,146.86 501.43,146.69 503.64,146.59C505.85,146.48 508.06,146.39 510.27,146.36C512.48,146.33 514.68,146.34 516.89,146.42C519.1,146.5 521.3,146.64 523.51,146.82C525.72,147 527.93,147.24 530.14,147.49C532.35,147.74 534.55,148.03 536.76,148.3C538.97,148.57 541.17,148.85 543.38,149.1C545.59,149.35 547.8,149.58 550.01,149.78C552.22,149.98 554.42,150.16 556.63,150.3C558.84,150.44 561.04,150.55 563.25,150.64C565.46,150.73 567.67,150.79 569.88,150.84C572.09,150.89 574.29,150.92 576.5,150.95C578.71,150.98 580.91,151 583.12,151.01C585.33,151.02 587.54,151.02 589.75,151.02C591.96,151.02 594.16,151.02 596.37,151.02C598.58,151.02 600.78,151 602.99,150.99C605.2,150.97 607.41,150.96 609.62,150.93C611.83,150.9 614.03,150.86 616.24,150.81C618.45,150.76 620.65,150.7 622.86,150.62C625.07,150.54 627.28,150.45 629.49,150.34C631.7,150.23 633.9,150.1 636.11,149.96C638.32,149.82 640.52,149.67 642.73,149.52C644.94,149.37 647.15,149.2 649.36,149.06C651.57,148.92 653.77,148.77 655.98,148.66C658.19,148.56 660.39,148.47 662.6,148.43C664.81,148.39 667.02,148.39 669.23,148.43C671.44,148.47 673.64,148.55 675.85,148.66C678.06,148.77 680.27,148.92 682.48,149.07C684.69,149.22 686.89,149.41 689.1,149.57C691.31,149.73 693.51,149.9 695.72,150.04C697.93,150.18 700.14,150.32 702.35,150.43C704.56,150.54 706.76,150.63 708.97,150.71Q711.18,150.78 715.59,150.88L715.59,151.05" style="vector-effect: none; stroke-width: 2px; stroke: rgb(118, 122, 82); stroke-opacity: 1; fill: rgb(148, 153, 102); fill-opacity: 0.5;"/><path class="meanline" d="M299.91,84.05570220947266V151.05" style="fill: none; vector-effect: none; stroke-width: 2px; stroke-dasharray: 4px, 2px; stroke: rgb(118, 122, 82); stroke-opacity: 1;"/></g><g class="trace violins" style="opacity: 1;"><path class="violin" d="M211.6,119.25L211.6,119.07Q214,118.97 215.2,118.89C216.4,118.81 217.6,118.71 218.8,118.59C220,118.47 221.2,118.33 222.4,118.16C223.6,117.99 224.79,117.79 225.99,117.58C227.19,117.36 228.39,117.13 229.59,116.87C230.79,116.61 231.99,116.34 233.19,116.04C234.39,115.74 235.59,115.43 236.79,115.08C237.99,114.73 239.19,114.36 240.38,113.95C241.58,113.54 242.79,113.1 243.98,112.61C245.19,112.11 246.39,111.56 247.58,110.97C248.79,110.37 249.99,109.71 251.18,109.01C252.39,108.3 253.58,107.53 254.77,106.74C255.98,105.94 257.18,105.09 258.37,104.24C259.58,103.38 260.77,102.49 261.97,101.61C263.17,100.72 264.37,99.84 265.57,98.93C266.77,98.02 267.97,97.11 269.16,96.16C270.37,95.19 271.57,94.22 272.76,93.18C273.98,92.11 275.17,90.99 276.36,89.84C277.57,88.66 278.76,87.4 279.95,86.17C281.15,84.93 282.33,83.62 283.55,82.41C284.73,81.23 285.91,80.02 287.15,79.02C288.32,78.08 289.51,77.15 290.75,76.53C291.91,75.95 293.13,75.49 294.34,75.33C295.52,75.17 296.76,75.28 297.94,75.52C299.16,75.77 300.36,76.31 301.54,76.85C302.76,77.4 303.94,78.16 305.14,78.81C306.34,79.46 307.51,80.2 308.73,80.76C309.91,81.3 311.11,81.83 312.33,82.11C313.51,82.39 314.74,82.54 315.93,82.47C317.14,82.4 318.36,82.11 319.53,81.68C320.76,81.23 321.95,80.54 323.12,79.79C324.35,79 325.55,78.02 326.72,77C327.95,75.92 329.15,74.71 330.32,73.45C331.55,72.13 332.75,70.72 333.92,69.26C335.14,67.73 336.33,66.12 337.51,64.46C338.73,62.74 339.92,60.94 341.11,59.13C342.32,57.28 343.5,55.35 344.71,53.49C345.9,51.65 347.08,49.74 348.31,48.02C349.48,46.39 350.63,44.71 351.9,43.39C353.04,42.21 354.22,40.99 355.5,40.39C356.63,39.86 357.94,39.53 359.1,39.75C360.35,39.99 361.6,40.92 362.7,41.96C364.04,43.23 365.17,45.17 366.29,47.1C367.59,49.34 368.73,52.04 369.89,54.72C371.14,57.61 372.3,60.8 373.49,63.88C374.7,67 375.86,70.27 377.09,73.3C378.26,76.17 379.39,79.1 380.68,81.61C381.81,83.81 382.93,86.06 384.28,87.61C385.38,88.86 386.6,90.17 387.88,90.48C389.02,90.76 390.38,90.42 391.48,89.78C392.83,88.99 393.97,87.22 395.07,85.53C396.41,83.49 397.53,80.84 398.67,78.22C399.94,75.31 401.09,72.02 402.27,68.84C403.49,65.58 404.64,62.1 405.87,58.89C407.04,55.84 408.17,52.7 409.46,50.03C410.59,47.7 411.7,45.34 413.06,43.71C414.15,42.4 415.37,41.11 416.66,40.72C417.79,40.38 419.13,40.61 420.25,41.1C421.55,41.67 422.72,43.01 423.85,44.27C425.14,45.71 426.29,47.57 427.45,49.4C428.7,51.38 429.87,53.57 431.05,55.75C432.27,58.01 433.45,60.39 434.64,62.74C435.85,65.13 437.04,67.58 438.24,69.98C439.44,72.37 440.63,74.78 441.84,77.11C443.03,79.39 444.22,81.66 445.44,83.82C446.61,85.89 447.8,87.92 449.03,89.83C450.2,91.63 451.39,93.38 452.63,94.98C453.79,96.48 454.99,97.9 456.23,99.19C457.4,100.41 458.6,101.51 459.83,102.54C461,103.52 462.21,104.39 463.42,105.23C464.6,106.04 465.81,106.78 467.02,107.5C468.21,108.21 469.42,108.88 470.62,109.55C471.82,110.21 473.02,110.86 474.22,111.49C475.41,112.11 476.61,112.73 477.81,113.3C479,113.87 480.2,114.42 481.41,114.91C482.6,115.39 483.8,115.84 485.01,116.23C486.2,116.61 487.4,116.94 488.61,117.21C489.8,117.48 491,117.68 492.2,117.84C493.4,118 494.6,118.11 495.8,118.18C497,118.25 498.2,118.27 499.4,118.28C500.6,118.29 501.8,118.27 503,118.26C504.2,118.25 505.39,118.22 506.59,118.21C507.79,118.2 508.99,118.19 510.19,118.2C511.39,118.21 512.59,118.24 513.79,118.28C514.99,118.32 516.19,118.38 517.39,118.44C518.59,118.5 519.78,118.57 520.98,118.64C522.18,118.71 523.38,118.78 524.58,118.84C525.78,118.9 526.98,118.95 528.18,119Q529.38,119.04 531.78,119.11L531.78,119.25" style="vector-effect: none; stroke-width: 2px; stroke: rgb(53, 78, 151); stroke-opacity: 1; fill: rgb(66, 97, 189); fill-opacity: 0.5;"/><path class="meanline" d="M366.24,47.01464080810547V119.25" style="fill: none; vector-effect: none; stroke-width: 2px; stroke-dasharray: 4px, 2px; stroke: rgb(53, 78, 151); stroke-opacity: 1;"/></g><g class="trace violins" style="opacity: 1;"><path class="violin" d="M387.78,87.45L387.78,87.04Q391.38,86.8 393.18,86.6C394.98,86.4 396.78,86.16 398.57,85.83C400.38,85.5 402.18,85.11 403.97,84.62C405.78,84.13 407.58,83.55 409.36,82.88C411.17,82.2 412.98,81.43 414.76,80.58C416.58,79.71 418.37,78.74 420.15,77.71C421.97,76.66 423.76,75.51 425.54,74.31C427.36,73.08 429.16,71.76 430.94,70.39C432.76,68.99 434.55,67.5 436.33,65.97C438.15,64.4 439.94,62.76 441.73,61.09C443.54,59.4 445.33,57.63 447.12,55.88C448.92,54.12 450.71,52.32 452.52,50.57C454.31,48.83 456.09,47.08 457.91,45.42C459.69,43.79 461.48,42.18 463.31,40.71C465.08,39.29 466.86,37.91 468.7,36.73C470.46,35.6 472.25,34.53 474.09,33.77C475.85,33.04 477.67,32.43 479.49,32.22C481.27,32.01 483.12,32.07 484.88,32.47C486.72,32.89 488.55,33.74 490.28,34.77C492.15,35.88 493.92,37.43 495.67,39C497.53,40.67 499.28,42.66 501.07,44.53C502.88,46.41 504.61,48.51 506.46,50.26C508.21,51.92 509.96,53.7 511.86,54.83C513.58,55.85 515.43,56.81 517.25,56.94C519.03,57.06 520.95,56.55 522.64,55.65C524.59,54.61 526.36,52.64 528.04,50.63C529.99,48.3 531.7,45.28 533.43,42.3C535.31,39.07 537.04,35.38 538.83,31.89C540.63,28.38 542.35,24.61 544.22,21.3C545.95,18.24 547.64,15.02 549.62,12.69C551.29,10.73 553.06,8.65 555.01,7.95C556.7,7.35 558.73,7.44 560.41,8.13C562.37,8.94 564.13,11.11 565.8,13.14C567.77,15.54 569.45,18.77 571.19,21.85C573.06,25.18 574.79,28.92 576.59,32.46C578.39,36 580.13,39.7 581.98,43.08C583.73,46.27 585.48,49.46 587.38,52.23C589.1,54.73 590.85,57.15 592.77,59.04C594.47,60.71 596.28,62.23 598.17,63.17C599.89,64.02 601.75,64.58 603.56,64.66C605.35,64.74 607.22,64.34 608.96,63.7C610.82,63.02 612.62,61.85 614.35,60.58C616.22,59.21 617.99,57.46 619.74,55.66C621.6,53.75 623.37,51.57 625.14,49.39C626.97,47.14 628.73,44.7 630.53,42.35C632.33,39.99 634.1,37.53 635.93,35.25C637.7,33.05 639.46,30.81 641.32,28.89C643.06,27.1 644.83,25.34 646.72,24.03C648.44,22.84 650.26,21.79 652.11,21.24C653.86,20.72 655.72,20.54 657.51,20.68C659.32,20.82 661.14,21.41 662.9,22.09C664.74,22.8 666.52,23.86 668.29,24.93C670.12,26.04 671.91,27.34 673.69,28.64C675.51,29.96 677.29,31.39 679.08,32.81C680.89,34.25 682.69,35.74 684.48,37.24C686.28,38.75 688.08,40.29 689.87,41.84C691.67,43.4 693.48,44.99 695.27,46.58C697.07,48.18 698.87,49.8 700.66,51.43C702.46,53.07 704.26,54.71 706.06,56.37C707.86,58.03 709.65,59.71 711.45,61.38C713.25,63.05 715.03,64.74 716.84,66.38C718.63,68.01 720.42,69.65 722.24,71.2C724.02,72.72 725.81,74.23 727.63,75.61C729.4,76.95 731.2,78.24 733.03,79.38C734.8,80.48 736.6,81.48 738.42,82.33C740.19,83.16 742,83.86 743.82,84.45C745.6,85.02 747.4,85.46 749.21,85.83C751,86.19 752.81,86.44 754.61,86.65Q756.4,86.86 760,87.09L760,87.45" style="vector-effect: none; stroke-width: 2px; stroke: rgb(136, 68, 136); stroke-opacity: 1; fill: rgb(170, 85, 170); fill-opacity: 0.5;"/><path class="meanline" d="M577.3,33.870548248291016V87.45" style="fill: none; vector-effect: none; stroke-width: 2px; stroke-dasharray: 4px, 2px; stroke: rgb(136, 68, 136); stroke-opacity: 1;"/></g></g></g><g class="overplot"/><path class="xlines-above crisp" d="M0,0" style="fill: none;"/><path class="ylines-above crisp" d="M0,0" style="fill: none;"/><g class="overlines-above"/><g class="xaxislayer-above"><g class="xtick"><text text-anchor="middle" x="0" y="172" transform="translate(51.42,0)" style="font-family: 'Open Sans', verdana, arial, sans-serif; font-size: 12px; fill: rgb(242, 245, 250); fill-opacity: 1; white-space: pre; opacity: 1;">0</text></g><g class="xtick"><text text-anchor="middle" x="0" y="172" style="font-family: 'Open Sans', verdana, arial, sans-serif; font-size: 12px; fill: rgb(242, 245, 250); fill-opacity: 1; white-space: pre; opacity: 1;" transform="translate(187.13,0)">100</text></g><g class="xtick"><text text-anchor="middle" x="0" y="172" style="font-family: 'Open Sans', verdana, arial, sans-serif; font-size: 12px; fill: rgb(242, 245, 250); fill-opacity: 1; white-space: pre; opacity: 1;" transform="translate(322.84,0)">200</text></g><g class="xtick"><text text-anchor="middle" x="0" y="172" style="font-family: 'Open Sans', verdana, arial, sans-serif; font-size: 12px; fill: rgb(242, 245, 250); fill-opacity: 1; white-space: pre; opacity: 1;" transform="translate(458.54,0)">300</text></g><g class="xtick"><text text-anchor="middle" x="0" y="172" style="font-family: 'Open Sans', verdana, arial, sans-serif; font-size: 12px; fill: rgb(242, 245, 250); fill-opacity: 1; white-space: pre; opacity: 1;" transform="translate(594.25,0)">400</text></g><g class="xtick"><text text-anchor="middle" x="0" y="172" style="font-family: 'Open Sans', verdana, arial, sans-serif; font-size: 12px; fill: rgb(242, 245, 250); fill-opacity: 1; white-space: pre; opacity: 1;" transform="translate(729.95,0)">500</text></g></g><g class="yaxislayer-above"/><g class="overaxes-above"/></g></g><g class="polarlayer"/><g class="smithlayer"/><g class="ternarylayer"/><g class="geolayer"/><g class="funnelarealayer"/><g class="pielayer"/><g class="iciclelayer"/><g class="treemaplayer"/><g class="sunburstlayer"/><g class="glimages"/><defs id="topdefs-cd34da"><g class="clips"/></defs><g class="layer-above"><g class="imagelayer"/><g class="shapelayer"/></g><g class="infolayer"><g class="g-gtitle"/><g class="g-xtitle" transform="translate(0,-2.3000000000000114)"><text class="xtitle" x="400" y="199.3" text-anchor="middle" style="font-family: 'Open Sans', verdana, arial, sans-serif; font-size: 14px; fill: rgb(242, 245, 250); opacity: 1; white-space: pre;">Pgm Death</text></g><g class="g-ytitle"/></g></svg>