<svg class="main-svg" xmlns="http://www.w3.org/2000/svg" xmlns:xlink="http://www.w3.org/1999/xlink" width="800" height="200" style="" viewBox="0 0 800 200"><rect x="0" y="0" width="800" height="200" style="fill: rgb(0, 0, 0); fill-opacity: 0;"/><defs id="defs-05e9e4"><g class="clips"><clipPath id="clip05e9e4xyplot" class="plotclip"><rect width="800" height="159"/></clipPath><clipPath class="axesclip" id="clip05e9e4x"><rect x="0" y="0" width="800" height="200"/></clipPath><clipPath class="axesclip" id="clip05e9e4y"><rect x="0" y="0" width="800" height="159"/></clipPath><clipPath class="axesclip" id="clip05e9e4xy"><rect x="0" y="0" width="800" height="159"/></clipPath></g><g class="gradients"/><g class="patterns"/></defs><g class="bglayer"><rect class="bg" x="0" y="0" width="800" height="159" style="fill: rgb(0, 0, 0); fill-opacity: 0; stroke-width: 0;"/></g><g class="layer-below"><g class="imagelayer"/><g class="shapelayer"/></g><g class="cartesianlayer"><g class="subplot xy"><g class="layer-subplot"><g class="shapelayer"/><g class="imagelayer"/></g><g class="minor-gridlayer"><g class="x"/><g class="y"/></g><g class="gridlayer"><g class="x"><path class="xgrid crisp" transform="translate(208.51,0)" d="M0,0v159" style="stroke: rgb(40, 52, 66); stroke-opacity: 1; stroke-width: 1px;"/><path class="xgrid crisp" transform="translate(366.18,0)" d="M0,0v159" style="stroke: rgb(40, 52, 66); stroke-opacity: 1; stroke-width: 1px;"/><path class="xgrid crisp" transform="translate(523.85,0)" d="M0,0v159" style="stroke: rgb(40, 52, 66); stroke-opacity: 1; stroke-width: 1px;"/><path class="xgrid crisp" transform="translate(681.51,0)" d="M0,0v159" style="stroke: rgb(40, 52, 66); stroke-opacity: 1; stroke-width: 1px;"/></g><g class="y"/></g><g class="zerolinelayer"><path class="xzl zl crisp" transform="translate(50.85,0)" d="M0,0v159" style="stroke: rgb(40, 52, 66); stroke-opacity: 1; stroke-width: 2px;"/></g><g class="layer-between"><g class="shapelayer"/><g class="imagelayer"/></g><path class="xlines-below"/><path class="ylines-below"/><g class="overlines-below"/><g class="xaxislayer-below"/><g class="yaxislayer-below"/><g class="overaxes-below"/><g class="plot" transform="" clip-path="url(#clip05e9e4xyplot)"><g class="violinlayer mlayer"><g class="trace violins" style="opacity: 1;"><path class="violin" d="M44.95,151.05L44.95,149.34Q46,148.2 46.46,147.45C47.03,146.53 47.51,145.39 47.97,144.15C48.53,142.64 49.01,140.86 49.48,138.98C50.03,136.76 50.5,134.25 50.98,131.66C51.51,128.75 52,125.56 52.49,122.35C53.01,118.92 53.5,115.28 54,111.7C54.51,108.07 55,104.31 55.51,100.72C56,97.27 56.49,93.79 57.02,90.58C57.5,87.66 57.98,84.78 58.53,82.25C59,80.09 59.45,78.01 60.03,76.31C60.48,74.97 60.92,73.66 61.54,72.83C61.98,72.23 62.51,71.67 63.05,71.55C63.53,71.45 64.09,71.7 64.56,71.98C65.11,72.32 65.59,72.98 66.07,73.59C66.61,74.28 67.09,75.13 67.58,75.97C68.1,76.86 68.59,77.82 69.08,78.79C69.59,79.79 70.09,80.84 70.59,81.89C71.1,82.97 71.6,84.07 72.1,85.18C72.61,86.3 73.11,87.44 73.61,88.59C74.12,89.75 74.62,90.93 75.12,92.1C75.62,93.28 76.13,94.46 76.63,95.64C77.13,96.81 77.63,97.99 78.13,99.16C78.63,100.32 79.13,101.49 79.64,102.64C80.14,103.79 80.64,104.93 81.15,106.06C81.65,107.18 82.15,108.29 82.66,109.38C83.16,110.45 83.66,111.51 84.17,112.55C84.67,113.56 85.17,114.55 85.68,115.51C86.17,116.43 86.67,117.33 87.18,118.19C87.67,119.01 88.18,119.81 88.69,120.57C89.18,121.3 89.69,121.99 90.2,122.67C90.7,123.33 91.2,123.95 91.71,124.57C92.21,125.17 92.71,125.75 93.22,126.32C93.72,126.88 94.22,127.43 94.73,127.96C95.23,128.48 95.72,129.01 96.23,129.5C96.73,129.98 97.23,130.45 97.74,130.9C98.24,131.33 98.74,131.75 99.25,132.14C99.75,132.52 100.25,132.88 100.76,133.22C101.26,133.56 101.76,133.87 102.27,134.18C102.77,134.49 103.28,134.78 103.78,135.09C104.28,135.39 104.78,135.7 105.28,136.01C105.78,136.33 106.29,136.65 106.79,136.98C107.29,137.31 107.8,137.64 108.3,137.97C108.8,138.3 109.3,138.64 109.81,138.96C110.31,139.27 110.81,139.58 111.32,139.87C111.82,140.15 112.32,140.43 112.83,140.68C113.33,140.92 113.83,141.15 114.33,141.35C114.83,141.55 115.33,141.73 115.84,141.89C116.34,142.05 116.85,142.19 117.35,142.32C117.85,142.45 118.36,142.57 118.86,142.68C119.36,142.79 119.87,142.89 120.37,143C120.87,143.1 121.38,143.2 121.88,143.31C122.38,143.42 122.88,143.54 123.38,143.66C123.88,143.78 124.39,143.9 124.89,144.03C125.39,144.16 125.9,144.3 126.4,144.43C126.9,144.57 127.41,144.71 127.91,144.84C128.41,144.97 128.92,145.1 129.42,145.22C129.92,145.34 130.43,145.45 130.93,145.56C131.43,145.67 131.93,145.77 132.43,145.86C132.93,145.95 133.44,146.03 133.94,146.11C134.44,146.19 134.95,146.26 135.45,146.34C135.95,146.42 136.46,146.49 136.96,146.57C137.46,146.65 137.97,146.73 138.47,146.81C138.97,146.89 139.48,146.97 139.98,147.06C140.48,147.14 140.98,147.24 141.48,147.32C141.98,147.4 142.49,147.48 142.99,147.56C143.49,147.64 144,147.72 144.5,147.79C145,147.86 145.51,147.93 146.01,147.99C146.51,148.05 147.02,148.11 147.52,148.16C148.02,148.21 148.53,148.24 149.03,148.28C149.53,148.31 150.03,148.35 150.53,148.37C151.03,148.39 151.54,148.41 152.04,148.42C152.54,148.43 153.05,148.44 153.55,148.45C154.05,148.46 154.56,148.48 155.06,148.49C155.56,148.5 156.07,148.51 156.57,148.52C157.07,148.53 157.58,148.55 158.08,148.56C158.58,148.57 159.08,148.59 159.58,148.6C160.08,148.62 160.59,148.63 161.09,148.65C161.59,148.67 162.1,148.69 162.6,148.71C163.1,148.73 163.61,148.75 164.11,148.78C164.61,148.81 165.12,148.84 165.62,148.87C166.12,148.9 166.63,148.94 167.13,148.98C167.63,149.02 168.13,149.06 168.63,149.1C169.13,149.14 169.64,149.19 170.14,149.23C170.64,149.27 171.15,149.31 171.65,149.35C172.15,149.39 172.66,149.42 173.16,149.45C173.66,149.48 174.17,149.51 174.67,149.53C175.17,149.55 175.68,149.56 176.18,149.57C176.68,149.58 177.18,149.58 177.68,149.58C178.18,149.58 178.69,149.57 179.19,149.57C179.69,149.57 180.2,149.56 180.7,149.56C181.2,149.56 181.71,149.55 182.21,149.55C182.71,149.55 183.22,149.56 183.72,149.57C184.22,149.58 184.73,149.61 185.23,149.63C185.73,149.65 186.23,149.68 186.73,149.71C187.23,149.74 187.74,149.77 188.24,149.81C188.74,149.85 189.25,149.89 189.75,149.93C190.25,149.97 190.76,150.02 191.26,150.06C191.76,150.1 192.27,150.14 192.77,150.17C193.27,150.2 193.78,150.23 194.28,150.25C194.78,150.27 195.29,150.29 195.79,150.3C196.29,150.31 196.79,150.31 197.29,150.31C197.79,150.31 198.3,150.29 198.8,150.28C199.3,150.27 199.81,150.25 200.31,150.23C200.81,150.22 201.32,150.2 201.82,150.19C202.32,150.18 202.83,150.16 203.33,150.16C203.83,150.16 204.34,150.15 204.84,150.16C205.34,150.17 205.84,150.18 206.34,150.19C206.84,150.2 207.35,150.22 207.85,150.24C208.35,150.26 208.86,150.29 209.36,150.31C209.86,150.33 210.37,150.36 210.87,150.38C211.37,150.41 211.88,150.43 212.38,150.46C212.88,150.49 213.39,150.51 213.89,150.54C214.39,150.56 214.89,150.59 215.39,150.61C215.89,150.63 216.4,150.65 216.9,150.67C217.4,150.69 217.91,150.7 218.41,150.72C218.91,150.73 219.42,150.75 219.92,150.76C220.42,150.77 220.93,150.77 221.43,150.78C221.93,150.78 222.44,150.79 222.94,150.79C223.44,150.79 223.94,150.8 224.44,150.8C224.94,150.8 225.45,150.8 225.95,150.8C226.45,150.8 226.96,150.8 227.46,150.8C227.96,150.8 228.47,150.8 228.97,150.8C229.47,150.8 229.98,150.8 230.48,150.8C230.98,150.8 231.49,150.79 231.99,150.79C232.49,150.79 232.99,150.79 233.49,150.79C233.99,150.79 234.5,150.79 235,150.79C235.5,150.79 236.01,150.79 236.51,150.79C237.01,150.79 237.52,150.8 238.02,150.8C238.52,150.81 239.03,150.81 239.53,150.82C240.03,150.82 240.54,150.82 241.04,150.83C241.54,150.83 242.04,150.84 242.54,150.85C243.04,150.86 243.55,150.87 244.05,150.87C244.55,150.87 245.06,150.87 245.56,150.87C246.06,150.87 246.57,150.87 247.07,150.87C247.57,150.87 248.08,150.87 248.58,150.87C249.08,150.87 249.59,150.86 250.09,150.86C250.59,150.86 251.09,150.87 251.59,150.87C252.09,150.87 252.6,150.88 253.1,150.88C253.6,150.89 254.11,150.89 254.61,150.9C255.11,150.91 255.62,150.91 256.12,150.92C256.62,150.93 257.13,150.93 257.63,150.94C258.13,150.95 258.64,150.96 259.14,150.96C259.64,150.96 260.14,150.96 260.64,150.96C261.14,150.96 261.65,150.97 262.15,150.97C262.65,150.97 263.16,150.96 263.66,150.96C264.16,150.96 264.67,150.95 265.17,150.95C265.67,150.95 266.18,150.94 266.68,150.94C267.18,150.94 267.69,150.94 268.19,150.94C268.69,150.94 269.19,150.93 269.69,150.93C270.19,150.93 270.7,150.94 271.2,150.94C271.7,150.94 272.21,150.95 272.71,150.95C273.21,150.95 273.72,150.95 274.22,150.95C274.72,150.95 275.23,150.95 275.73,150.95C276.23,150.95 276.74,150.94 277.24,150.93C277.74,150.92 278.24,150.9 278.74,150.89C279.24,150.88 279.75,150.87 280.25,150.86C280.75,150.85 281.26,150.84 281.76,150.83C282.26,150.82 282.77,150.81 283.27,150.81C283.77,150.81 284.28,150.81 284.78,150.81C285.28,150.81 285.79,150.81 286.29,150.82C286.79,150.82 287.29,150.83 287.79,150.84C288.29,150.85 288.8,150.85 289.3,150.86C289.8,150.87 290.31,150.88 290.81,150.89C291.31,150.9 291.82,150.9 292.32,150.91C292.82,150.92 293.33,150.92 293.83,150.93C294.33,150.94 294.84,150.95 295.34,150.96C295.84,150.97 296.34,150.97 296.84,150.97C297.34,150.97 297.85,150.98 298.35,150.98C298.85,150.98 299.36,150.99 299.86,150.99C300.36,150.99 300.87,150.99 301.37,150.99C301.87,150.99 302.38,150.98 302.88,150.98C303.38,150.98 303.89,150.98 304.39,150.98C304.89,150.98 305.39,150.97 305.89,150.97C306.39,150.97 306.9,150.97 307.4,150.97C307.9,150.97 308.41,150.96 308.91,150.96C309.41,150.95 309.92,150.95 310.42,150.94C310.92,150.94 311.43,150.93 311.93,150.93C312.43,150.93 312.94,150.92 313.44,150.92C313.94,150.92 314.44,150.92 314.94,150.92C315.44,150.92 315.95,150.92 316.45,150.92C316.95,150.92 317.46,150.93 317.96,150.94C318.46,150.94 318.97,150.95 319.47,150.95C319.97,150.96 320.48,150.96 320.98,150.97C321.48,150.97 321.99,150.98 322.49,150.98C322.99,150.98 323.49,150.99 323.99,150.99C324.49,150.99 325,151 325.5,151C326,151 326.51,150.99 327.01,150.99C327.51,150.99 328.02,150.98 328.52,150.98C329.02,150.98 329.53,150.97 330.03,150.97C330.53,150.96 331.04,150.96 331.54,150.95C332.04,150.95 332.54,150.94 333.04,150.94C333.54,150.94 334.05,150.93 334.55,150.93C335.05,150.93 335.56,150.93 336.06,150.93C336.56,150.93 337.07,150.94 337.57,150.94C338.07,150.94 338.58,150.95 339.08,150.95C339.58,150.95 340.09,150.96 340.59,150.96C341.09,150.96 341.59,150.97 342.09,150.97C342.59,150.97 343.1,150.98 343.6,150.98C344.1,150.99 344.61,150.99 345.11,151C345.61,151 346.12,151.01 346.62,151.01C347.12,151.01 347.63,151.02 348.13,151.02C348.63,151.02 349.14,151.03 349.64,151.03C350.14,151.03 350.64,151.04 351.14,151.04C351.64,151.04 352.15,151.05 352.65,151.05C353.15,151.05 353.66,151.05 354.16,151.05C354.66,151.05 355.17,151.05 355.67,151.05C356.17,151.05 356.68,151.05 357.18,151.05C357.68,151.05 358.19,151.04 358.69,151.04C359.19,151.04 359.69,151.04 360.19,151.04C360.69,151.04 361.2,151.03 361.7,151.03C362.2,151.03 362.71,151.02 363.21,151.02C363.71,151.02 364.22,151.01 364.72,151.01C365.22,151.01 365.73,151 366.23,151C366.73,151 367.24,150.99 367.74,150.99C368.24,150.99 368.74,151 369.24,151C369.74,151 370.25,151 370.75,151C371.25,151 371.76,151.01 372.26,151.01C372.76,151.01 373.27,151.02 373.77,151.02C374.27,151.02 374.78,151.02 375.28,151.02C375.78,151.02 376.29,151.01 376.79,151.01C377.29,151.01 377.79,151.01 378.29,151.01C378.79,151.01 379.3,151 379.8,151C380.3,151 380.81,150.99 381.31,150.99C381.81,150.99 382.32,151 382.82,151C383.32,151 383.83,151 384.33,151C384.83,151 385.34,151.01 385.84,151.01C386.34,151.01 386.84,151.02 387.34,151.02C387.84,151.02 388.35,151.03 388.85,151.03C389.35,151.03 389.86,151.04 390.36,151.04C390.86,151.04 391.37,151.05 391.87,151.05C392.37,151.05 392.88,151.05 393.38,151.05C393.88,151.05 394.39,151.05 394.89,151.05C395.39,151.05 395.89,151.05 396.39,151.05C396.89,151.05 397.4,151.05 397.9,151.05C398.4,151.05 398.91,151.05 399.41,151.05C399.91,151.05 400.42,151.05 400.92,151.05C401.42,151.05 401.93,151.05 402.43,151.05C402.93,151.05 403.44,151.05 403.94,151.05C404.44,151.05 404.94,151.05 405.44,151.05C405.94,151.05 406.45,151.05 406.95,151.05C407.45,151.05 407.96,151.05 408.46,151.05C408.96,151.05 409.47,151.05 409.97,151.05C410.47,151.05 410.98,151.05 411.48,151.05C411.98,151.05 412.49,151.05 412.99,151.05C413.49,151.05 413.99,151.05 414.49,151.05C414.99,151.05 415.5,151.05 416,151.05C416.5,151.05 417.01,151.05 417.51,151.05C418.01,151.05 418.52,151.05 419.02,151.05C419.52,151.05 420.03,151.05 420.53,151.05C421.03,151.05 421.54,151.05 422.04,151.05C422.54,151.05 423.04,151.05 423.54,151.05C424.04,151.05 424.55,151.05 425.05,151.05C425.55,151.05 426.06,151.05 426.56,151.05C427.06,151.05 427.57,151.05 428.07,151.05C428.57,151.05 429.08,151.05 429.58,151.05C430.08,151.05 430.59,151.05 431.09,151.05C431.59,151.05 432.09,151.05 432.59,151.05C433.09,151.05 433.6,151.05 434.1,151.05C434.6,151.05 435.11,151.05 435.61,151.05C436.11,151.05 436.62,151.05 437.12,151.05C437.62,151.05 438.13,151.05 438.63,151.05C439.13,151.05 439.64,151.05 440.14,151.05C440.64,151.05 441.14,151.05 441.64,151.05C442.14,151.05 442.65,151.05 443.15,151.05C443.65,151.05 444.16,151.05 444.66,151.05C445.16,151.05 445.67,151.05 446.17,151.05C446.67,151.05 447.18,151.05 447.68,151.05C448.18,151.05 448.69,151.05 449.19,151.05C449.69,151.05 450.2,151.05 450.7,151.05C451.2,151.05 451.7,151.05 452.2,151.05C452.7,151.05 453.21,151.05 453.71,151.05C454.21,151.05 454.72,151.05 455.22,151.05C455.72,151.05 456.23,151.05 456.73,151.05C457.23,151.05 457.74,151.05 458.24,151.05C458.74,151.05 459.25,151.05 459.75,151.05C460.25,151.05 460.75,151.05 461.25,151.05C461.75,151.05 462.26,151.05 462.76,151.05C463.26,151.05 463.77,151.05 464.27,151.05C464.77,151.05 465.28,151.05 465.78,151.05C466.28,151.05 466.79,151.05 467.29,151.05C467.79,151.05 468.3,151.05 468.8,151.05C469.3,151.05 469.8,151.05 470.3,151.05C470.8,151.05 471.31,151.05 471.81,151.05C472.31,151.05 472.82,151.05 473.32,151.05C473.82,151.05 474.33,151.05 474.83,151.05C475.33,151.05 475.84,151.05 476.34,151.05C476.84,151.05 477.35,151.05 477.85,151.05C478.35,151.05 478.85,151.05 479.35,151.05C479.85,151.05 480.36,151.05 480.86,151.05C481.36,151.05 481.87,151.05 482.37,151.05C482.87,151.05 483.38,151.05 483.88,151.05C484.38,151.05 484.89,151.05 485.39,151.05C485.89,151.05 486.4,151.05 486.9,151.05C487.4,151.05 487.9,151.05 488.4,151.05C488.9,151.05 489.41,151.05 489.91,151.05C490.41,151.05 490.92,151.05 491.42,151.05C491.92,151.05 492.43,151.05 492.93,151.05C493.43,151.05 493.94,151.05 494.44,151.05C494.94,151.05 495.45,151.05 495.95,151.05C496.45,151.05 496.95,151.04 497.45,151.04C497.95,151.04 498.46,151.04 498.96,151.04C499.46,151.04 499.97,151.03 500.47,151.03C500.97,151.03 501.48,151.02 501.98,151.02C502.48,151.02 502.99,151.01 503.49,151.01C503.99,151.01 504.5,151 505,151C505.5,151 506,150.99 506.5,150.99C507,150.99 507.51,151 508.01,151C508.51,151 509.02,151.01 509.52,151.01C510.02,151.01 510.53,151.02 511.03,151.02C511.53,151.02 512.04,151.03 512.54,151.03C513.04,151.03 513.55,151.04 514.05,151.04Q514.55,151.04 515.55,151.04L515.55,151.05" style="vector-effect: none; stroke-width: 2px; stroke: rgb(53, 78, 151); stroke-opacity: 1; fill: rgb(66, 97, 189); fill-opacity: 0.5;"/><path class="meanline" d="M82.24,108.47539520263672V151.05" style="fill: none; vector-effect: none; stroke-width: 2px; stroke-dasharray: 4px, 2px; stroke: rgb(53, 78, 151); stroke-opacity: 1;"/></g><g class="trace violins" style="opacity: 1;"><path class="violin" d="M40,119.25L40,118.03Q41.42,117.17 42.07,116.53C42.82,115.79 43.5,114.84 44.14,113.76C44.91,112.45 45.57,110.85 46.21,109.14C46.97,107.1 47.63,104.74 48.28,102.28C49.02,99.46 49.69,96.31 50.35,93.12C51.07,89.65 51.74,85.9 52.42,82.21C53.12,78.41 53.79,74.42 54.49,70.62C55.17,66.92 55.84,63.15 56.57,59.69C57.23,56.53 57.88,53.39 58.64,50.66C59.28,48.34 59.91,46.07 60.71,44.29C61.33,42.9 61.96,41.52 62.78,40.76C63.4,40.19 64.16,39.76 64.85,39.75C65.54,39.74 66.28,40.22 66.92,40.7C67.67,41.26 68.33,42.15 68.99,43.02C69.72,43.98 70.39,45.11 71.06,46.24C71.77,47.43 72.45,48.72 73.13,50C73.83,51.32 74.51,52.68 75.2,54.03C75.89,55.39 76.58,56.78 77.27,58.14C77.96,59.49 78.64,60.85 79.34,62.17C80.02,63.47 80.71,64.76 81.41,66.02C82.09,67.25 82.78,68.46 83.48,69.64C84.16,70.79 84.86,71.92 85.56,73.02C86.24,74.09 86.93,75.13 87.63,76.15C88.31,77.15 89,78.11 89.7,79.07C90.38,80.01 91.08,80.92 91.77,81.83C92.46,82.73 93.15,83.6 93.84,84.48C94.53,85.35 95.22,86.21 95.91,87.07C96.6,87.92 97.29,88.78 97.98,89.62C98.67,90.46 99.36,91.29 100.05,92.11C100.74,92.92 101.42,93.73 102.12,94.51C102.8,95.28 103.49,96.04 104.19,96.76C104.87,97.47 105.56,98.15 106.26,98.81C106.94,99.45 107.63,100.07 108.33,100.66C109.01,101.23 109.7,101.77 110.4,102.29C111.08,102.79 111.77,103.27 112.47,103.72C113.15,104.16 113.84,104.58 114.54,104.97C115.23,105.35 115.92,105.71 116.62,106.05C117.31,106.39 118,106.7 118.69,107C119.38,107.3 120.07,107.57 120.76,107.84C121.45,108.1 122.14,108.35 122.83,108.59C123.52,108.83 124.21,109.05 124.9,109.26C125.59,109.47 126.28,109.67 126.97,109.87C127.66,110.06 128.35,110.25 129.04,110.43C129.73,110.61 130.42,110.78 131.11,110.95C131.8,111.12 132.49,111.28 133.18,111.44C133.87,111.6 134.56,111.75 135.25,111.9C135.94,112.05 136.63,112.21 137.32,112.36C138.01,112.51 138.7,112.67 139.39,112.82C140.08,112.98 140.77,113.13 141.46,113.29C142.15,113.45 142.84,113.61 143.53,113.76C144.22,113.91 144.92,114.06 145.61,114.21C146.3,114.35 146.99,114.5 147.68,114.63C148.37,114.76 149.06,114.88 149.75,115C150.44,115.12 151.13,115.23 151.82,115.33C152.51,115.43 153.2,115.52 153.89,115.62C154.58,115.71 155.27,115.81 155.96,115.9C156.65,115.99 157.34,116.09 158.03,116.18C158.72,116.27 159.41,116.36 160.1,116.44C160.79,116.52 161.48,116.59 162.17,116.66C162.86,116.73 163.55,116.79 164.24,116.84C164.93,116.89 165.62,116.93 166.31,116.96C167,116.99 167.69,117 168.38,117.01C169.07,117.02 169.76,117.02 170.45,117.02C171.14,117.02 171.83,117.02 172.52,117.03C173.21,117.04 173.9,117.04 174.59,117.06C175.28,117.08 175.98,117.1 176.67,117.13C177.36,117.16 178.05,117.2 178.74,117.24C179.43,117.28 180.12,117.34 180.81,117.39C181.5,117.44 182.19,117.5 182.88,117.55C183.57,117.6 184.26,117.64 184.95,117.69C185.64,117.73 186.33,117.78 187.02,117.82C187.71,117.86 188.4,117.89 189.09,117.93C189.78,117.97 190.47,118.01 191.16,118.04C191.85,118.07 192.54,118.1 193.23,118.13C193.92,118.16 194.61,118.19 195.3,118.22C195.99,118.25 196.68,118.27 197.37,118.29C198.06,118.31 198.75,118.32 199.44,118.33C200.13,118.34 200.82,118.35 201.51,118.35C202.2,118.35 202.89,118.34 203.58,118.34C204.27,118.33 204.96,118.33 205.65,118.32C206.34,118.31 207.04,118.3 207.73,118.3C208.42,118.3 209.11,118.3 209.8,118.3C210.49,118.3 211.18,118.32 211.87,118.33C212.56,118.34 213.25,118.36 213.94,118.38C214.63,118.4 215.32,118.43 216.01,118.45C216.7,118.47 217.39,118.49 218.08,118.51C218.77,118.53 219.46,118.55 220.15,118.56C220.84,118.57 221.53,118.58 222.22,118.59C222.91,118.6 223.6,118.6 224.29,118.61C224.98,118.61 225.67,118.62 226.36,118.62C227.05,118.62 227.74,118.63 228.43,118.63C229.12,118.64 229.81,118.64 230.5,118.65C231.19,118.66 231.88,118.66 232.57,118.67C233.26,118.68 233.95,118.69 234.64,118.69C235.33,118.7 236.03,118.7 236.72,118.7C237.41,118.7 238.1,118.71 238.79,118.71C239.48,118.71 240.17,118.71 240.86,118.71C241.55,118.71 242.24,118.71 242.93,118.71C243.62,118.71 244.31,118.72 245,118.73C245.69,118.74 246.38,118.76 247.07,118.77C247.76,118.79 248.45,118.8 249.14,118.82C249.83,118.84 250.52,118.85 251.21,118.87C251.9,118.89 252.59,118.91 253.28,118.93C253.97,118.95 254.66,118.96 255.35,118.97C256.04,118.98 256.73,118.99 257.42,118.99C258.11,118.99 258.8,118.99 259.49,118.99C260.18,118.99 260.87,118.98 261.56,118.97C262.25,118.96 262.94,118.95 263.63,118.94C264.32,118.93 265.01,118.92 265.7,118.91C266.39,118.9 267.09,118.9 267.78,118.89C268.47,118.89 269.16,118.88 269.85,118.88C270.54,118.88 271.23,118.88 271.92,118.88C272.61,118.88 273.3,118.89 273.99,118.9C274.68,118.91 275.37,118.93 276.06,118.94C276.75,118.96 277.44,118.97 278.13,118.99C278.82,119 279.51,119.02 280.2,119.03C280.89,119.04 281.58,119.06 282.27,119.07C282.96,119.08 283.65,119.09 284.34,119.1C285.03,119.11 285.72,119.11 286.41,119.11C287.1,119.11 287.79,119.12 288.48,119.12C289.17,119.12 289.86,119.12 290.55,119.12C291.24,119.12 291.93,119.13 292.62,119.13C293.31,119.13 294,119.13 294.69,119.13C295.38,119.13 296.08,119.13 296.77,119.13C297.46,119.13 298.15,119.13 298.84,119.13C299.53,119.13 300.22,119.13 300.91,119.13C301.6,119.13 302.29,119.14 302.98,119.14C303.67,119.14 304.36,119.15 305.05,119.15C305.74,119.15 306.43,119.16 307.12,119.16C307.81,119.16 308.5,119.17 309.19,119.17C309.88,119.17 310.57,119.17 311.26,119.17C311.95,119.17 312.64,119.17 313.33,119.17C314.02,119.17 314.71,119.17 315.4,119.17C316.09,119.17 316.78,119.17 317.47,119.17C318.16,119.17 318.85,119.16 319.54,119.16C320.23,119.16 320.92,119.15 321.61,119.15C322.3,119.15 322.99,119.14 323.68,119.14C324.37,119.14 325.06,119.14 325.75,119.14C326.44,119.14 327.14,119.14 327.83,119.14C328.52,119.14 329.21,119.15 329.9,119.15C330.59,119.15 331.28,119.16 331.97,119.16C332.66,119.16 333.35,119.17 334.04,119.17C334.73,119.17 335.42,119.18 336.11,119.18C336.8,119.18 337.49,119.18 338.18,119.18C338.87,119.18 339.56,119.19 340.25,119.19C340.94,119.19 341.63,119.19 342.32,119.19C343.01,119.19 343.7,119.18 344.39,119.18C345.08,119.18 345.77,119.18 346.46,119.17C347.15,119.16 347.84,119.15 348.53,119.14C349.22,119.13 349.91,119.13 350.6,119.12C351.29,119.11 351.98,119.1 352.67,119.09C353.36,119.08 354.05,119.08 354.74,119.08C355.43,119.08 356.13,119.08 356.82,119.08C357.51,119.08 358.2,119.09 358.89,119.09C359.58,119.1 360.27,119.1 360.96,119.11C361.65,119.12 362.34,119.12 363.03,119.13C363.72,119.13 364.41,119.14 365.1,119.14C365.79,119.14 366.48,119.15 367.17,119.15C367.86,119.15 368.55,119.14 369.24,119.14C369.93,119.14 370.62,119.13 371.31,119.13C372,119.13 372.69,119.12 373.38,119.12C374.07,119.12 374.76,119.11 375.45,119.11C376.14,119.11 376.83,119.12 377.52,119.12C378.21,119.13 378.9,119.13 379.59,119.14C380.28,119.15 380.97,119.15 381.66,119.16C382.35,119.17 383.04,119.18 383.73,119.19C384.42,119.2 385.11,119.21 385.8,119.21C386.49,119.22 387.19,119.22 387.88,119.22C388.57,119.22 389.26,119.23 389.95,119.23C390.64,119.23 391.33,119.23 392.02,119.23C392.71,119.23 393.4,119.22 394.09,119.22C394.78,119.22 395.47,119.21 396.16,119.21C396.85,119.2 397.54,119.2 398.23,119.19C398.92,119.18 399.61,119.18 400.3,119.17C400.99,119.17 401.68,119.16 402.37,119.16C403.06,119.16 403.75,119.16 404.44,119.16C405.13,119.16 405.82,119.17 406.51,119.17C407.2,119.17 407.89,119.18 408.58,119.18C409.27,119.19 409.96,119.19 410.65,119.2C411.34,119.2 412.03,119.21 412.72,119.21C413.41,119.22 414.1,119.23 414.79,119.23C415.48,119.24 416.18,119.24 416.87,119.24C417.56,119.24 418.25,119.24 418.94,119.24C419.63,119.24 420.32,119.25 421.01,119.25C421.7,119.25 422.39,119.25 423.08,119.25C423.77,119.25 424.46,119.25 425.15,119.25C425.84,119.25 426.53,119.25 427.22,119.25C427.91,119.25 428.6,119.25 429.29,119.25C429.98,119.25 430.67,119.25 431.36,119.25C432.05,119.25 432.74,119.25 433.43,119.25C434.12,119.25 434.81,119.25 435.5,119.25C436.19,119.25 436.88,119.25 437.57,119.25C438.26,119.25 438.95,119.24 439.64,119.24C440.33,119.24 441.02,119.24 441.71,119.24C442.4,119.24 443.09,119.23 443.78,119.23C444.47,119.23 445.16,119.22 445.85,119.22C446.54,119.22 447.24,119.21 447.93,119.21C448.62,119.21 449.31,119.2 450,119.2C450.69,119.2 451.38,119.2 452.07,119.2C452.76,119.2 453.45,119.21 454.14,119.21C454.83,119.21 455.52,119.22 456.21,119.22C456.9,119.22 457.59,119.22 458.28,119.22C458.97,119.22 459.66,119.23 460.35,119.23C461.04,119.23 461.73,119.24 462.42,119.24C463.11,119.24 463.8,119.25 464.49,119.25C465.18,119.25 465.87,119.25 466.56,119.25C467.25,119.25 467.94,119.25 468.63,119.25C469.32,119.25 470.01,119.25 470.7,119.25C471.39,119.25 472.08,119.25 472.77,119.25C473.46,119.25 474.15,119.25 474.84,119.25C475.53,119.25 476.22,119.25 476.91,119.25C477.6,119.25 478.3,119.25 478.99,119.25C479.68,119.25 480.37,119.25 481.06,119.25C481.75,119.25 482.44,119.25 483.13,119.25C483.82,119.25 484.51,119.24 485.2,119.24C485.89,119.24 486.58,119.23 487.27,119.23C487.96,119.23 488.65,119.22 489.34,119.22C490.03,119.21 490.72,119.21 491.41,119.2C492.1,119.19 492.79,119.19 493.48,119.18C494.17,119.18 494.86,119.17 495.55,119.17C496.24,119.17 496.93,119.16 497.62,119.16C498.31,119.16 499,119.16 499.69,119.16C500.38,119.16 501.07,119.17 501.76,119.17C502.45,119.17 503.14,119.18 503.83,119.18C504.52,119.19 505.21,119.19 505.9,119.2C506.59,119.21 507.29,119.21 507.98,119.22C508.67,119.22 509.36,119.23 510.05,119.23C510.74,119.23 511.43,119.23 512.12,119.23C512.81,119.23 513.5,119.23 514.19,119.23C514.88,119.23 515.57,119.23 516.26,119.23C516.95,119.23 517.64,119.22 518.33,119.22C519.02,119.22 519.71,119.21 520.4,119.21C521.09,119.21 521.78,119.2 522.47,119.2C523.16,119.2 523.85,119.2 524.54,119.2C525.23,119.2 525.92,119.21 526.61,119.21C527.3,119.21 527.99,119.22 528.68,119.22C529.37,119.22 530.06,119.22 530.75,119.22C531.44,119.22 532.13,119.23 532.82,119.23C533.51,119.23 534.2,119.24 534.89,119.24C535.58,119.24 536.27,119.24 536.96,119.24C537.65,119.24 538.35,119.25 539.04,119.25C539.73,119.25 540.42,119.25 541.11,119.25C541.8,119.25 542.49,119.25 543.18,119.25C543.87,119.25 544.56,119.25 545.25,119.25C545.94,119.25 546.63,119.25 547.32,119.25C548.01,119.25 548.7,119.25 549.39,119.25C550.08,119.25 550.77,119.24 551.46,119.24C552.15,119.24 552.84,119.24 553.53,119.24C554.22,119.24 554.91,119.23 555.6,119.23C556.29,119.23 556.98,119.22 557.67,119.22C558.36,119.22 559.05,119.21 559.74,119.21C560.43,119.21 561.12,119.2 561.81,119.2C562.5,119.2 563.19,119.2 563.88,119.2C564.57,119.2 565.26,119.2 565.95,119.2C566.64,119.2 567.34,119.2 568.03,119.2C568.72,119.2 569.41,119.21 570.1,119.21C570.79,119.21 571.48,119.21 572.17,119.21C572.86,119.21 573.55,119.2 574.24,119.2C574.93,119.2 575.62,119.2 576.31,119.2C577,119.2 577.69,119.2 578.38,119.2C579.07,119.2 579.76,119.19 580.45,119.19C581.14,119.19 581.83,119.19 582.52,119.19C583.21,119.19 583.9,119.19 584.59,119.19C585.28,119.19 585.97,119.19 586.66,119.19C587.35,119.19 588.04,119.19 588.73,119.19C589.42,119.19 590.11,119.2 590.8,119.2C591.49,119.2 592.18,119.2 592.87,119.2C593.56,119.2 594.25,119.21 594.94,119.21C595.63,119.21 596.32,119.22 597.01,119.22C597.7,119.22 598.4,119.23 599.09,119.23C599.78,119.23 600.47,119.24 601.16,119.24C601.85,119.24 602.54,119.24 603.23,119.24C603.92,119.24 604.61,119.25 605.3,119.25C605.99,119.25 606.68,119.25 607.37,119.25C608.06,119.25 608.75,119.25 609.44,119.25C610.13,119.25 610.82,119.25 611.51,119.25C612.2,119.25 612.89,119.25 613.58,119.25C614.27,119.25 614.96,119.25 615.65,119.25C616.34,119.25 617.03,119.25 617.72,119.25C618.41,119.25 619.1,119.25 619.79,119.25C620.48,119.25 621.17,119.25 621.86,119.25C622.55,119.25 623.24,119.25 623.93,119.25C624.62,119.25 625.31,119.25 626,119.25C626.69,119.25 627.39,119.25 628.08,119.25C628.77,119.25 629.46,119.25 630.15,119.25C630.84,119.25 631.53,119.25 632.22,119.25C632.91,119.25 633.6,119.25 634.29,119.25C634.98,119.25 635.67,119.25 636.36,119.25C637.05,119.25 637.74,119.25 638.43,119.25C639.12,119.25 639.81,119.25 640.5,119.25C641.19,119.25 641.88,119.25 642.57,119.25C643.26,119.25 643.95,119.25 644.64,119.25C645.33,119.25 646.02,119.25 646.71,119.25C647.4,119.25 648.09,119.25 648.78,119.25C649.47,119.25 650.16,119.24 650.85,119.24C651.54,119.24 652.23,119.24 652.92,119.24C653.61,119.24 654.3,119.23 654.99,119.23C655.68,119.23 656.37,119.22 657.06,119.22C657.75,119.22 658.45,119.21 659.14,119.21C659.83,119.21 660.52,119.2 661.21,119.2C661.9,119.2 662.59,119.19 663.28,119.19C663.97,119.19 664.66,119.19 665.35,119.19C666.04,119.19 666.73,119.19 667.42,119.19C668.11,119.19 668.8,119.19 669.49,119.19C670.18,119.19 670.87,119.19 671.56,119.19C672.25,119.19 672.94,119.19 673.63,119.19C674.32,119.19 675.01,119.2 675.7,119.2C676.39,119.2 677.08,119.21 677.77,119.21C678.46,119.21 679.15,119.22 679.84,119.22C680.53,119.22 681.22,119.23 681.91,119.23C682.6,119.23 683.29,119.24 683.98,119.24Q684.67,119.24 686.05,119.24L686.05,119.25" style="vector-effect: none; stroke-width: 2px; stroke: rgb(118, 122, 82); stroke-opacity: 1; fill: rgb(148, 153, 102); fill-opacity: 0.5;"/><path class="meanline" d="M86.07,73.81269836425781V119.25" style="fill: none; vector-effect: none; stroke-width: 2px; stroke-dasharray: 4px, 2px; stroke: rgb(118, 122, 82); stroke-opacity: 1;"/></g><g class="trace violins" style="opacity: 1;"><path class="violin" d="M40.16,87.45L40.16,85.21Q41.75,83.73 42.46,82.74C43.31,81.56 44.06,80.09 44.77,78.48C45.62,76.55 46.36,74.28 47.08,71.89C47.92,69.11 48.66,65.97 49.39,62.76C50.2,59.21 50.94,55.33 51.69,51.49C52.48,47.48 53.22,43.24 54,39.18C54.76,35.2 55.5,31.1 56.31,27.35C57.05,23.93 57.77,20.49 58.62,17.57C59.33,15.13 59.99,12.69 60.92,10.97C61.6,9.7 62.34,8.33 63.23,7.95C63.93,7.65 64.84,7.83 65.54,8.21C66.41,8.68 67.12,9.9 67.84,10.96C68.68,12.2 69.4,13.77 70.15,15.28C70.95,16.88 71.69,18.63 72.46,20.32C73.23,22.02 73.99,23.77 74.77,25.46C75.53,27.11 76.29,28.74 77.07,30.32C77.82,31.84 78.59,33.32 79.38,34.75C80.14,36.13 80.91,37.45 81.69,38.75C82.45,40 83.21,41.21 83.99,42.4C84.75,43.56 85.52,44.69 86.3,45.82C87.07,46.93 87.84,48.02 88.61,49.11C89.38,50.19 90.15,51.27 90.92,52.34C91.69,53.41 92.45,54.48 93.22,55.53C93.99,56.57 94.75,57.62 95.53,58.63C96.29,59.62 97.06,60.62 97.84,61.55C98.6,62.45 99.36,63.33 100.14,64.15C100.89,64.94 101.66,65.69 102.45,66.37C103.2,67.02 103.97,67.62 104.76,68.16C105.52,68.68 106.29,69.14 107.07,69.56C107.83,69.97 108.6,70.32 109.37,70.64C110.13,70.96 110.91,71.22 111.68,71.48C112.45,71.73 113.22,71.96 113.99,72.17C114.76,72.38 115.52,72.57 116.29,72.76C117.06,72.95 117.83,73.13 118.6,73.31C119.37,73.49 120.14,73.67 120.91,73.86C121.68,74.05 122.45,74.24 123.22,74.45C123.99,74.66 124.75,74.87 125.52,75.1C126.29,75.33 127.06,75.58 127.83,75.83C128.6,76.08 129.37,76.34 130.14,76.6C130.91,76.86 131.68,77.14 132.45,77.39C133.22,77.64 133.98,77.89 134.75,78.12C135.52,78.35 136.29,78.56 137.06,78.75C137.83,78.94 138.6,79.1 139.37,79.24C140.14,79.38 140.9,79.48 141.67,79.58C142.44,79.68 143.21,79.75 143.98,79.82C144.75,79.89 145.52,79.94 146.29,80C147.06,80.06 147.83,80.11 148.6,80.18C149.37,80.25 150.13,80.32 150.9,80.41C151.67,80.5 152.44,80.61 153.21,80.73C153.98,80.85 154.75,80.99 155.52,81.13C156.29,81.27 157.05,81.42 157.82,81.57C158.59,81.72 159.36,81.88 160.13,82.02C160.9,82.16 161.67,82.29 162.44,82.41C163.21,82.53 163.98,82.63 164.75,82.72C165.52,82.81 166.28,82.88 167.05,82.95C167.82,83.02 168.59,83.07 169.36,83.12C170.13,83.17 170.9,83.2 171.67,83.24C172.44,83.27 173.2,83.3 173.97,83.33C174.74,83.36 175.51,83.4 176.28,83.43C177.05,83.47 177.82,83.5 178.59,83.54C179.36,83.58 180.13,83.63 180.9,83.68C181.67,83.73 182.43,83.8 183.2,83.86C183.97,83.93 184.74,84 185.51,84.07C186.28,84.14 187.05,84.22 187.82,84.3C188.59,84.37 189.35,84.45 190.12,84.52C190.89,84.59 191.66,84.65 192.43,84.71C193.2,84.76 193.97,84.81 194.74,84.85C195.51,84.89 196.28,84.92 197.05,84.95C197.82,84.98 198.58,84.99 199.35,85.01C200.12,85.03 200.89,85.04 201.66,85.05C202.43,85.06 203.2,85.07 203.97,85.09C204.74,85.11 205.51,85.13 206.28,85.16C207.05,85.18 207.81,85.21 208.58,85.24C209.35,85.27 210.12,85.3 210.89,85.33C211.66,85.36 212.43,85.38 213.2,85.41C213.97,85.43 214.73,85.46 215.5,85.48C216.27,85.5 217.04,85.51 217.81,85.53C218.58,85.55 219.35,85.56 220.12,85.58C220.89,85.59 221.66,85.61 222.43,85.62C223.2,85.63 223.96,85.65 224.73,85.66C225.5,85.67 226.27,85.67 227.04,85.68C227.81,85.69 228.58,85.69 229.35,85.7C230.12,85.7 230.88,85.71 231.65,85.71C232.42,85.72 233.19,85.72 233.96,85.73C234.73,85.74 235.5,85.76 236.27,85.77C237.04,85.78 237.81,85.79 238.58,85.81C239.35,85.83 240.11,85.85 240.88,85.87C241.65,85.89 242.42,85.91 243.19,85.93C243.96,85.95 244.73,85.97 245.5,85.99C246.27,86.01 247.03,86.02 247.8,86.04C248.57,86.06 249.34,86.07 250.11,86.09C250.88,86.11 251.65,86.13 252.42,86.15C253.19,86.17 253.96,86.19 254.73,86.21C255.5,86.23 256.26,86.26 257.03,86.28C257.8,86.3 258.57,86.31 259.34,86.32C260.11,86.33 260.88,86.34 261.65,86.35C262.42,86.36 263.18,86.37 263.95,86.37C264.72,86.37 265.49,86.37 266.26,86.37C267.03,86.37 267.8,86.38 268.57,86.39C269.34,86.4 270.11,86.41 270.88,86.42C271.65,86.43 272.41,86.45 273.18,86.47C273.95,86.49 274.72,86.51 275.49,86.53C276.26,86.55 277.03,86.57 277.8,86.59C278.57,86.61 279.34,86.63 280.11,86.64C280.88,86.65 281.64,86.66 282.41,86.67C283.18,86.68 283.95,86.68 284.72,86.69C285.49,86.7 286.26,86.7 287.03,86.71C287.8,86.71 288.56,86.72 289.33,86.72C290.1,86.72 290.87,86.72 291.64,86.72C292.41,86.72 293.18,86.72 293.95,86.72C294.72,86.72 295.49,86.73 296.26,86.73C297.03,86.73 297.79,86.73 298.56,86.74C299.33,86.75 300.1,86.76 300.87,86.77C301.64,86.78 302.41,86.79 303.18,86.8C303.95,86.81 304.71,86.83 305.48,86.84C306.25,86.85 307.02,86.86 307.79,86.87C308.56,86.88 309.33,86.88 310.1,86.89C310.87,86.9 311.64,86.9 312.41,86.91C313.18,86.92 313.94,86.92 314.71,86.93C315.48,86.94 316.25,86.94 317.02,86.95C317.79,86.96 318.56,86.96 319.33,86.97C320.1,86.98 320.86,86.99 321.63,87C322.4,87.01 323.17,87.01 323.94,87.01C324.71,87.01 325.48,87.02 326.25,87.02C327.02,87.02 327.79,87.01 328.56,87.01C329.33,87.01 330.09,87 330.86,87C331.63,87 332.4,86.99 333.17,86.99C333.94,86.99 334.71,86.99 335.48,86.99C336.25,86.99 337.01,86.98 337.78,86.98C338.55,86.98 339.32,86.98 340.09,86.98C340.86,86.98 341.63,86.97 342.4,86.97C343.17,86.96 343.94,86.96 344.71,86.95C345.48,86.94 346.24,86.94 347.01,86.93C347.78,86.92 348.55,86.92 349.32,86.91C350.09,86.9 350.86,86.89 351.63,86.88C352.4,86.87 353.17,86.87 353.94,86.87C354.71,86.87 355.47,86.87 356.24,86.87C357.01,86.87 357.78,86.88 358.55,86.89C359.32,86.9 360.09,86.91 360.86,86.93C361.63,86.94 362.39,86.96 363.16,86.98C363.93,87 364.7,87.03 365.47,87.05C366.24,87.07 367.01,87.09 367.78,87.11C368.55,87.13 369.32,87.15 370.09,87.17C370.86,87.19 371.62,87.2 372.39,87.21C373.16,87.22 373.93,87.23 374.7,87.24C375.47,87.25 376.24,87.25 377.01,87.25C377.78,87.25 378.54,87.25 379.31,87.25C380.08,87.25 380.85,87.25 381.62,87.25C382.39,87.25 383.16,87.25 383.93,87.25C384.7,87.25 385.47,87.25 386.24,87.25C387.01,87.25 387.77,87.24 388.54,87.24C389.31,87.24 390.08,87.23 390.85,87.23C391.62,87.23 392.39,87.22 393.16,87.22C393.93,87.22 394.69,87.21 395.46,87.21C396.23,87.21 397,87.2 397.77,87.2C398.54,87.2 399.31,87.2 400.08,87.2C400.85,87.2 401.62,87.19 402.39,87.19C403.16,87.19 403.92,87.19 404.69,87.19C405.46,87.19 406.23,87.18 407,87.18C407.77,87.18 408.54,87.18 409.31,87.18C410.08,87.18 410.84,87.19 411.61,87.19C412.38,87.19 413.15,87.2 413.92,87.2C414.69,87.21 415.46,87.21 416.23,87.22C417,87.23 417.77,87.24 418.54,87.25C419.31,87.26 420.07,87.27 420.84,87.27C421.61,87.28 422.38,87.28 423.15,87.28C423.92,87.28 424.69,87.29 425.46,87.29C426.23,87.29 427,87.3 427.77,87.3C428.54,87.3 429.3,87.31 430.07,87.31C430.84,87.31 431.61,87.32 432.38,87.32C433.15,87.32 433.92,87.33 434.69,87.33C435.46,87.33 436.22,87.34 436.99,87.34C437.76,87.34 438.53,87.34 439.3,87.34C440.07,87.34 440.84,87.34 441.61,87.34C442.38,87.34 443.15,87.34 443.92,87.34C444.69,87.34 445.45,87.34 446.22,87.34C446.99,87.34 447.76,87.35 448.53,87.35C449.3,87.35 450.07,87.36 450.84,87.36C451.61,87.36 452.37,87.37 453.14,87.37C453.91,87.37 454.68,87.37 455.45,87.37C456.22,87.37 456.99,87.36 457.76,87.36C458.53,87.35 459.3,87.35 460.07,87.34C460.84,87.33 461.6,87.33 462.37,87.32C463.14,87.31 463.91,87.3 464.68,87.29C465.45,87.28 466.22,87.28 466.99,87.28C467.76,87.28 468.52,87.27 469.29,87.27C470.06,87.27 470.83,87.28 471.6,87.28C472.37,87.29 473.14,87.29 473.91,87.3C474.68,87.31 475.45,87.31 476.22,87.32C476.99,87.33 477.75,87.33 478.52,87.34C479.29,87.35 480.06,87.36 480.83,87.37C481.6,87.38 482.37,87.38 483.14,87.39C483.91,87.4 484.67,87.4 485.44,87.41C486.21,87.42 486.98,87.42 487.75,87.43C488.52,87.43 489.29,87.44 490.06,87.44C490.83,87.44 491.6,87.44 492.37,87.44C493.14,87.44 493.9,87.44 494.67,87.44C495.44,87.44 496.21,87.44 496.98,87.44C497.75,87.44 498.52,87.43 499.29,87.43C500.06,87.43 500.83,87.42 501.6,87.42C502.37,87.42 503.13,87.41 503.9,87.41C504.67,87.4 505.44,87.4 506.21,87.39C506.98,87.38 507.75,87.38 508.52,87.37C509.29,87.37 510.05,87.36 510.82,87.36C511.59,87.35 512.36,87.35 513.13,87.34C513.9,87.34 514.67,87.33 515.44,87.33C516.21,87.32 516.98,87.32 517.75,87.31C518.52,87.31 519.28,87.3 520.05,87.3C520.82,87.3 521.59,87.29 522.36,87.29C523.13,87.29 523.9,87.29 524.67,87.29C525.44,87.29 526.2,87.29 526.97,87.29C527.74,87.29 528.51,87.29 529.28,87.29C530.05,87.29 530.82,87.29 531.59,87.29C532.36,87.29 533.13,87.29 533.9,87.29C534.67,87.29 535.43,87.28 536.2,87.28C536.97,87.27 537.74,87.27 538.51,87.26C539.28,87.26 540.05,87.25 540.82,87.25C541.59,87.25 542.35,87.24 543.12,87.24C543.89,87.24 544.66,87.24 545.43,87.24C546.2,87.24 546.97,87.24 547.74,87.24C548.51,87.24 549.28,87.24 550.05,87.25C550.82,87.25 551.58,87.26 552.35,87.27C553.12,87.28 553.89,87.28 554.66,87.29C555.43,87.29 556.2,87.29 556.97,87.3C557.74,87.3 558.5,87.32 559.27,87.32C560.04,87.33 560.81,87.33 561.58,87.33C562.35,87.34 563.12,87.34 563.89,87.35C564.66,87.35 565.43,87.36 566.2,87.36C566.97,87.36 567.73,87.36 568.5,87.36C569.27,87.36 570.04,87.37 570.81,87.37C571.58,87.37 572.35,87.38 573.12,87.38C573.89,87.38 574.66,87.39 575.43,87.39C576.2,87.39 576.96,87.4 577.73,87.4C578.5,87.4 579.27,87.4 580.04,87.4C580.81,87.4 581.58,87.41 582.35,87.41C583.12,87.41 583.88,87.4 584.65,87.4C585.42,87.4 586.19,87.4 586.96,87.4C587.73,87.4 588.5,87.39 589.27,87.39C590.04,87.39 590.81,87.39 591.58,87.39C592.35,87.39 593.11,87.39 593.88,87.39C594.65,87.39 595.42,87.39 596.19,87.39C596.96,87.39 597.73,87.39 598.5,87.39C599.27,87.39 600.03,87.39 600.8,87.39C601.57,87.39 602.34,87.39 603.11,87.39C603.88,87.39 604.65,87.39 605.42,87.39C606.19,87.39 606.96,87.39 607.73,87.39C608.5,87.39 609.26,87.4 610.03,87.4C610.8,87.4 611.57,87.41 612.34,87.41C613.11,87.41 613.88,87.42 614.65,87.42C615.42,87.42 616.18,87.43 616.95,87.43C617.72,87.43 618.49,87.44 619.26,87.44C620.03,87.44 620.8,87.44 621.57,87.44C622.34,87.44 623.11,87.45 623.88,87.45C624.65,87.45 625.41,87.45 626.18,87.45C626.95,87.45 627.72,87.45 628.49,87.45C629.26,87.45 630.03,87.45 630.8,87.45C631.57,87.45 632.33,87.45 633.1,87.45C633.87,87.45 634.64,87.45 635.41,87.45C636.18,87.45 636.95,87.45 637.72,87.45C638.49,87.45 639.26,87.45 640.03,87.45C640.8,87.45 641.56,87.45 642.33,87.45C643.1,87.45 643.87,87.45 644.64,87.45C645.41,87.45 646.18,87.45 646.95,87.45C647.72,87.45 648.49,87.45 649.26,87.45C650.03,87.45 650.79,87.45 651.56,87.45C652.33,87.45 653.1,87.45 653.87,87.45C654.64,87.45 655.41,87.45 656.18,87.45C656.95,87.45 657.71,87.45 658.48,87.45C659.25,87.45 660.02,87.45 660.79,87.45C661.56,87.45 662.33,87.45 663.1,87.45C663.87,87.45 664.64,87.45 665.41,87.45C666.18,87.45 666.94,87.45 667.71,87.45C668.48,87.45 669.25,87.45 670.02,87.45C670.79,87.45 671.56,87.45 672.33,87.45C673.1,87.45 673.86,87.45 674.63,87.45C675.4,87.45 676.17,87.45 676.94,87.45C677.71,87.45 678.48,87.45 679.25,87.45C680.02,87.45 680.79,87.45 681.56,87.45C682.33,87.45 683.09,87.45 683.86,87.45C684.63,87.45 685.4,87.45 686.17,87.45C686.94,87.45 687.71,87.45 688.48,87.45C689.25,87.45 690.01,87.45 690.78,87.45C691.55,87.45 692.32,87.45 693.09,87.45C693.86,87.45 694.63,87.45 695.4,87.45C696.17,87.45 696.94,87.44 697.71,87.44C698.48,87.44 699.24,87.44 700.01,87.44C700.78,87.44 701.55,87.43 702.32,87.43C703.09,87.43 703.86,87.42 704.63,87.42C705.4,87.42 706.16,87.41 706.93,87.41C707.7,87.41 708.47,87.4 709.24,87.4C710.01,87.4 710.78,87.39 711.55,87.39C712.32,87.39 713.09,87.4 713.86,87.4C714.63,87.4 715.39,87.41 716.16,87.41C716.93,87.41 717.7,87.42 718.47,87.42C719.24,87.42 720.01,87.43 720.78,87.43C721.55,87.43 722.32,87.44 723.09,87.44C723.86,87.44 724.62,87.44 725.39,87.44C726.16,87.44 726.93,87.44 727.7,87.44C728.47,87.44 729.24,87.44 730.01,87.44C730.78,87.44 731.54,87.44 732.31,87.44C733.08,87.44 733.85,87.44 734.62,87.44C735.39,87.44 736.16,87.43 736.93,87.43C737.7,87.43 738.47,87.42 739.24,87.42C740.01,87.42 740.77,87.41 741.54,87.41C742.31,87.41 743.08,87.4 743.85,87.4C744.62,87.4 745.39,87.39 746.16,87.39C746.93,87.39 747.69,87.4 748.46,87.4C749.23,87.4 750,87.41 750.77,87.41C751.54,87.41 752.31,87.42 753.08,87.42C753.85,87.42 754.62,87.43 755.39,87.43C756.16,87.43 756.92,87.44 757.69,87.44Q758.46,87.44 760,87.44L760,87.45" style="vector-effect: none; stroke-width: 2px; stroke: rgb(136, 68, 136); stroke-opacity: 1; fill: rgb(170, 85, 170); fill-opacity: 0.5;"/><path class="meanline" d="M96.9,60.39432144165039V87.45" style="fill: none; vector-effect: none; stroke-width: 2px; stroke-dasharray: 4px, 2px; stroke: rgb(136, 68, 136); stroke-opacity: 1;"/></g></g></g><g class="overplot"/><path class="xlines-above crisp" d="M0,0" style="fill: none;"/><path class="ylines-above crisp" d="M0,0" style="fill: none;"/><g class="overlines-above"/><g class="xaxislayer-above"><g class="xtick"><text text-anchor="middle" x="0" y="172" transform="translate(50.85,0)" style="font-family: 'Open Sans', verdana, arial, sans-serif; font-size: 12px; fill: rgb(242, 245, 250); fill-opacity: 1; white-space: pre; opacity: 1;">0</text></g><g class="xtick"><text text-anchor="middle" x="0" y="172" style="font-family: 'Open Sans', verdana, arial, sans-serif; font-size: 12px; fill: rgb(242, 245, 250); fill-opacity: 1; white-space: pre; opacity: 1;" transform="translate(208.51,0)">100</text></g><g class="xtick"><text text-anchor="middle" x="0" y="172" style="font-family: 'Open Sans', verdana, arial, sans-serif; font-size: 12px; fill: rgb(242, 245, 250); fill-opacity: 1; white-space: pre; opacity: 1;" transform="translate(366.18,0)">200</text></g><g class="xtick"><text text-anchor="middle" x="0" y="172" style="font-family: 'Open Sans', verdana, arial, sans-serif; font-size: 12px; fill: rgb(242, 245, 250); fill-opacity: 1; white-space: pre; opacity: 1;" transform="translate(523.85,0)">300</text></g><g class="xtick"><text text-anchor="middle" x="0" y="172" style="font-family: 'Open Sans', verdana, arial, sans-serif; font-size: 12px; fill: rgb(242, 245, 250); fill-opacity: 1; white-space: pre; opacity: 1;" transform="translate(681.51,0)">400</text></g></g><g class="yaxislayer-above"/><g class="overaxes-above"/></g></g><g class="polarlayer"/><g class="smithlayer"/><g class="ternarylayer"/><g class="geolayer"/><g class="funnelarealayer"/><g class="pielayer"/><g class="iciclelayer"/><g class="treemaplayer"/><g class="sunburstlayer"/><g class="glimages"/><defs id="topdefs-05e9e4"><g class="clips"/></defs><g class="layer-above"><g class="imagelayer"/><g class="shapelayer"/></g><g class="infolayer"><g class="g-gtitle"/><g class="g-xtitle" transform="translate(0,-2.3000000000000114)"><text class="xtitle" x="400" y="199.3" text-anchor="middle" style="font-family: 'Open Sans', verdana, arial, sans-serif; font-size: 14px; fill: rgb(242, 245, 250); opacity: 1; white-space: pre;">Life Span</text></g><g class="g-ytitle"/></g></svg>