<svg class="main-svg" xmlns="http://www.w3.org/2000/svg" xmlns:xlink="http://www.w3.org/1999/xlink" width="800" height="200" style="" viewBox="0 0 800 200"><rect x="0" y="0" width="800" height="200" style="fill: rgb(0, 0, 0); fill-opacity: 0;"/><defs id="defs-36ff1f"><g class="clips"><clipPath id="clip36ff1fxyplot" class="plotclip"><rect width="721" height="144"/></clipPath><clipPath class="axesclip" id="clip36ff1fx"><rect x="35" y="0" width="721" height="200"/></clipPath><clipPath class="axesclip" id="clip36ff1fy"><rect x="0" y="0" width="800" height="144"/></clipPath><clipPath class="axesclip" id="clip36ff1fxy"><rect x="35" y="0" width="721" height="144"/></clipPath></g><g class="gradients"/><g class="patterns"/></defs><g class="bglayer"><rect class="bg" x="35" y="0" width="721" height="144" style="fill: rgb(0, 0, 0); fill-opacity: 0; stroke-width: 0;"/></g><g class="layer-below"><g class="imagelayer"/><g class="shapelayer"/></g><g class="cartesianlayer"><g class="subplot xy"><g class="layer-subplot"><g class="shapelayer"/><g class="imagelayer"/></g><g class="minor-gridlayer"><g class="x"/><g class="y"/></g><g class="gridlayer"><g class="x"/><g class="y"/></g><g class="zerolinelayer"/><g class="layer-between"><g class="shapelayer"/><g class="imagelayer"/></g><path class="xlines-below"/><path class="ylines-below"/><g class="overlines-below"/><g class="xaxislayer-below"/><g class="yaxislayer-below"/><g class="overaxes-below"/><g class="plot" transform="translate(35,0)" clip-path="url(#clip36ff1fxyplot)"><g class="violinlayer mlayer"><g class="trace violins" style="opacity: 1;"><path class="violin" d="M-31.06,136.8L-31.06,133.13Q-27.54,131.05 -25.9,129.64C-24.09,128.09 -22.38,126.2 -20.75,124.12C-18.93,121.81 -17.25,119.12 -15.6,116.32C-13.8,113.27 -12.13,109.87 -10.45,106.48C-8.69,102.92 -7.01,99.11 -5.29,95.44C-3.57,91.78 -1.91,87.98 -0.14,84.48C1.53,81.18 3.18,77.84 5.01,75.01C6.64,72.49 8.28,69.98 10.16,68.22C11.76,66.72 13.52,65.33 15.32,64.8C16.97,64.31 18.81,64.39 20.47,64.85C22.26,65.35 23.98,66.63 25.62,67.9C27.43,69.29 29.08,71.2 30.77,72.97C32.52,74.81 34.18,76.92 35.93,78.76C37.62,80.53 39.28,82.42 41.08,83.82C42.73,85.1 44.44,86.34 46.23,86.94C47.89,87.5 49.7,87.7 51.39,87.47C53.14,87.24 54.88,86.38 56.54,85.49C58.32,84.54 59.99,83.1 61.69,81.83C63.42,80.53 65.09,79 66.84,77.78C68.53,76.61 70.22,75.38 72,74.61C73.67,73.89 75.42,73.35 77.15,73.19C78.85,73.03 80.6,73.28 82.3,73.63C84.04,73.99 85.74,74.73 87.45,75.35C89.18,75.98 90.88,76.78 92.61,77.38C94.31,77.97 96.03,78.53 97.76,78.9C99.46,79.27 101.19,79.44 102.91,79.61C104.63,79.77 106.35,79.73 108.07,79.89C109.79,80.05 111.53,80.15 113.22,80.59C114.96,81.04 116.71,81.68 118.37,82.58C120.15,83.54 121.86,84.86 123.52,86.28C125.31,87.8 126.99,89.66 128.68,91.49C130.43,93.4 132.11,95.53 133.83,97.53C135.54,99.52 137.23,101.6 138.98,103.48C140.66,105.29 142.36,107.08 144.13,108.62C145.8,110.08 147.52,111.43 149.29,112.54C150.96,113.59 152.69,114.47 154.44,115.15C156.12,115.8 157.86,116.28 159.59,116.56C161.29,116.84 163.03,116.94 164.74,116.85C166.46,116.76 168.2,116.46 169.9,116C171.64,115.53 173.36,114.84 175.05,114.04C176.8,113.21 178.5,112.16 180.2,111.1C181.94,110.02 183.64,108.76 185.36,107.62C187.07,106.49 188.76,105.26 190.51,104.28C192.2,103.34 193.91,102.4 195.66,101.82C197.34,101.27 199.09,100.87 200.81,100.82C202.53,100.77 204.28,101.04 205.97,101.52C207.72,102.02 209.45,102.88 211.12,103.83C212.88,104.83 214.59,106.1 216.27,107.4C218.02,108.75 219.72,110.29 221.42,111.8C223.15,113.34 224.86,114.99 226.58,116.57C228.29,118.15 230,119.76 231.73,121.27C233.43,122.75 235.13,124.23 236.88,125.56C238.57,126.85 240.29,128.08 242.04,129.16C243.73,130.2 245.45,131.15 247.19,131.95C248.88,132.73 250.61,133.39 252.34,133.94C254.04,134.48 255.76,134.89 257.49,135.23C259.2,135.57 260.93,135.79 262.65,135.98C264.36,136.17 266.08,136.27 267.8,136.35C269.52,136.43 271.23,136.46 272.95,136.46C274.67,136.46 276.38,136.42 278.1,136.36C279.82,136.3 281.54,136.21 283.26,136.09C284.98,135.97 286.69,135.81 288.41,135.63C290.13,135.45 291.84,135.24 293.56,135.01C295.28,134.78 296.99,134.52 298.71,134.26C300.43,134 302.15,133.72 303.87,133.47C305.59,133.22 307.3,132.96 309.02,132.75C310.73,132.54 312.45,132.34 314.17,132.2C315.89,132.06 317.61,131.95 319.33,131.91C321.05,131.87 322.76,131.88 324.48,131.93C326.2,131.98 327.91,132.09 329.63,132.23C331.35,132.37 333.06,132.56 334.78,132.76C336.5,132.96 338.22,133.2 339.94,133.44C341.66,133.67 343.37,133.93 345.09,134.17C346.81,134.41 348.52,134.65 350.24,134.87C351.96,135.09 353.67,135.3 355.39,135.48C357.11,135.66 358.83,135.82 360.55,135.96C362.27,136.1 363.98,136.2 365.7,136.3C367.42,136.39 369.13,136.47 370.85,136.53C372.57,136.59 374.29,136.63 376.01,136.67C377.73,136.7 379.44,136.72 381.16,136.74C382.88,136.76 384.59,136.76 386.31,136.77C388.03,136.78 389.74,136.79 391.46,136.79C393.18,136.79 394.9,136.79 396.62,136.79C398.34,136.79 400.05,136.79 401.77,136.79C403.49,136.79 405.2,136.79 406.92,136.78C408.64,136.77 410.35,136.76 412.07,136.75C413.79,136.74 415.51,136.72 417.23,136.7C418.95,136.68 420.66,136.66 422.38,136.63C424.1,136.6 425.81,136.56 427.53,136.53C429.25,136.49 430.96,136.45 432.68,136.42C434.4,136.38 436.12,136.35 437.84,136.32C439.56,136.29 441.27,136.27 442.99,136.26C444.71,136.25 446.42,136.25 448.14,136.25C449.86,136.25 451.58,136.27 453.3,136.29C455.02,136.31 456.73,136.34 458.45,136.37C460.17,136.39 461.88,136.42 463.6,136.44C465.32,136.46 467.03,136.48 468.75,136.48C470.47,136.48 472.19,136.48 473.91,136.46C475.63,136.44 477.34,136.41 479.06,136.37C480.78,136.33 482.49,136.27 484.21,136.21C485.93,136.15 487.64,136.06 489.36,135.99C491.08,135.91 492.8,135.84 494.52,135.76C496.24,135.68 497.95,135.6 499.67,135.53C501.39,135.46 503.1,135.39 504.82,135.33C506.54,135.27 508.26,135.23 509.98,135.18C511.7,135.14 513.41,135.09 515.13,135.06C516.85,135.03 518.56,135.01 520.28,135C522,134.99 523.71,134.99 525.43,135C527.15,135.01 528.87,135.04 530.59,135.08C532.31,135.12 534.02,135.19 535.74,135.26C537.46,135.33 539.17,135.42 540.89,135.51C542.61,135.6 544.32,135.7 546.04,135.8C547.76,135.9 549.48,136 551.2,136.09C552.92,136.18 554.63,136.27 556.35,136.34C558.07,136.41 559.78,136.48 561.5,136.53C563.22,136.58 564.93,136.62 566.65,136.65Q568.37,136.68 571.81,136.73L571.81,136.8" style="vector-effect: none; stroke-width: 2px; stroke: rgb(118, 122, 82); stroke-opacity: 1; fill: rgb(148, 153, 102); fill-opacity: 0.5;"/><path class="meanline" d="M99.44,79.20638275146484V136.8" style="fill: none; vector-effect: none; stroke-width: 2px; stroke-dasharray: 4px, 2px; stroke: rgb(118, 122, 82); stroke-opacity: 1;"/></g><g class="trace violins" style="opacity: 1;"><path class="violin" d="M0.87,108L0.87,107.36Q3.17,106.98 4.31,106.66C5.47,106.34 6.63,105.95 7.75,105.42C8.92,104.87 10.08,104.2 11.19,103.41C12.38,102.57 13.52,101.57 14.63,100.47C15.82,99.29 16.96,97.93 18.07,96.52C19.25,95.02 20.38,93.35 21.51,91.68C22.68,89.94 23.81,88.08 24.95,86.26C26.1,84.42 27.23,82.52 28.39,80.69C29.53,78.9 30.66,77.09 31.83,75.4C32.95,73.77 34.09,72.19 35.27,70.71C36.39,69.3 37.54,67.96 38.71,66.71C39.83,65.52 40.98,64.4 42.15,63.35C43.28,62.34 44.43,61.39 45.59,60.5C46.72,59.64 47.86,58.82 49.03,58.09C50.16,57.39 51.3,56.71 52.47,56.2C53.59,55.71 54.75,55.28 55.91,55.05C57.04,54.82 58.21,54.73 59.35,54.81C60.5,54.89 61.66,55.17 62.79,55.52C63.95,55.88 65.09,56.43 66.23,56.94C67.38,57.46 68.51,58.11 69.67,58.61C70.81,59.1 71.94,59.64 73.11,59.91C74.24,60.17 75.42,60.35 76.55,60.22C77.71,60.08 78.89,59.66 79.99,59.06C81.2,58.39 82.34,57.36 83.43,56.27C84.64,55.06 85.75,53.54 86.87,52.04C88.05,50.45 89.16,48.66 90.31,46.98C91.45,45.31 92.56,43.52 93.75,41.99C94.86,40.57 95.96,39.09 97.19,38.06C98.27,37.16 99.44,36.29 100.63,36C101.74,35.74 102.98,35.84 104.07,36.24C105.28,36.68 106.42,37.7 107.51,38.72C108.74,39.87 109.84,41.41 110.95,42.89C112.13,44.46 113.24,46.25 114.39,47.92C115.54,49.59 116.65,51.35 117.83,52.92C118.95,54.41 120.07,55.88 121.27,57.12C122.37,58.25 123.51,59.32 124.71,60.1C125.81,60.82 126.97,61.39 128.15,61.72C129.27,62.03 130.45,62.13 131.59,62.08C132.74,62.03 133.9,61.75 135.03,61.41C136.2,61.06 137.34,60.52 138.47,59.97C139.63,59.41 140.77,58.72 141.91,58.08C143.06,57.44 144.19,56.72 145.35,56.11C146.49,55.52 147.62,54.9 148.79,54.48C149.92,54.08 151.07,53.73 152.23,53.62C153.37,53.51 154.54,53.56 155.67,53.79C156.83,54.02 157.99,54.5 159.11,55.03C160.28,55.58 161.42,56.32 162.55,57.05C163.71,57.79 164.84,58.66 165.99,59.45C167.14,60.24 168.28,61.05 169.44,61.79C170.58,62.51 171.72,63.18 172.88,63.82C174.02,64.45 175.17,65 176.32,65.59C177.47,66.18 178.63,66.71 179.76,67.35C180.92,68.01 182.08,68.69 183.2,69.49C184.37,70.33 185.52,71.28 186.64,72.31C187.82,73.4 188.96,74.64 190.08,75.9C191.25,77.21 192.38,78.64 193.52,80.04C194.67,81.45 195.8,82.94 196.96,84.33C198.09,85.68 199.22,87.05 200.4,88.26C201.52,89.41 202.65,90.52 203.84,91.44C204.95,92.3 206.1,93.06 207.28,93.64C208.4,94.19 209.56,94.59 210.72,94.88C211.85,95.16 213.01,95.28 214.16,95.36C215.3,95.44 216.45,95.39 217.6,95.38C218.75,95.37 219.89,95.27 221.04,95.27C222.19,95.27 223.34,95.25 224.48,95.35C225.63,95.45 226.78,95.6 227.92,95.86C229.08,96.12 230.23,96.49 231.36,96.92C232.52,97.36 233.66,97.92 234.8,98.5C235.96,99.09 237.1,99.76 238.24,100.41C239.39,101.06 240.53,101.76 241.68,102.39C242.82,103.01 243.96,103.63 245.12,104.17C246.26,104.7 247.4,105.19 248.56,105.6C249.7,106.01 250.85,106.35 252,106.63C253.14,106.91 254.29,107.11 255.44,107.28C256.58,107.45 257.73,107.55 258.88,107.65C260.03,107.74 261.17,107.8 262.32,107.85C263.47,107.9 264.61,107.92 265.76,107.94C266.91,107.96 268.05,107.97 269.2,107.98C270.35,107.99 271.49,107.99 272.64,107.99C273.79,107.99 274.93,107.99 276.08,107.99C277.23,107.99 278.37,107.98 279.52,107.98C280.67,107.98 281.81,107.98 282.96,107.97C284.11,107.96 285.25,107.95 286.4,107.94C287.55,107.92 288.69,107.9 289.84,107.88C290.99,107.86 292.13,107.83 293.28,107.8C294.43,107.77 295.57,107.73 296.72,107.69C297.87,107.65 299.01,107.59 300.16,107.54C301.31,107.49 302.45,107.43 303.6,107.37C304.75,107.31 305.89,107.25 307.04,107.2C308.19,107.15 309.33,107.1 310.48,107.06C311.63,107.02 312.77,106.99 313.92,106.98C315.07,106.97 316.21,106.97 317.36,106.99C318.51,107.01 319.65,107.05 320.8,107.09C321.95,107.14 323.09,107.2 324.24,107.26C325.39,107.32 326.53,107.39 327.68,107.45C328.83,107.51 329.97,107.58 331.12,107.64C332.27,107.69 333.41,107.74 334.56,107.78Q335.71,107.82 338,107.88L338,108" style="vector-effect: none; stroke-width: 2px; stroke: rgb(53, 78, 151); stroke-opacity: 1; fill: rgb(66, 97, 189); fill-opacity: 0.5;"/><path class="meanline" d="M115.81,50.02587890625V108" style="fill: none; vector-effect: none; stroke-width: 2px; stroke-dasharray: 4px, 2px; stroke: rgb(53, 78, 151); stroke-opacity: 1;"/></g><g class="trace violins" style="opacity: 1;"><path class="violin" d="M116.62,79.2L116.62,78.48Q121.27,78.02 123.58,77.61C125.91,77.2 128.24,76.71 130.54,76.02C132.88,75.31 135.21,74.45 137.49,73.4C139.85,72.31 142.17,71.01 144.45,69.56C146.82,68.05 149.13,66.31 151.41,64.5C153.77,62.64 156.06,60.56 158.36,58.53C160.69,56.48 162.99,54.3 165.32,52.24C167.63,50.21 169.92,48.13 172.28,46.26C174.57,44.44 176.88,42.68 179.24,41.14C181.52,39.66 183.83,38.3 186.19,37.18C188.47,36.09 190.8,35.17 193.15,34.47C195.44,33.78 197.78,33.28 200.11,32.98C202.42,32.68 204.75,32.58 207.06,32.66C209.38,32.74 211.71,33.04 214.02,33.45C216.35,33.87 218.67,34.5 220.98,35.15C223.31,35.81 225.62,36.63 227.94,37.37C230.26,38.1 232.56,38.94 234.89,39.56C237.2,40.17 239.52,40.77 241.85,41.07C244.16,41.37 246.5,41.52 248.81,41.38C251.13,41.24 253.47,40.83 255.76,40.22C258.11,39.59 260.43,38.65 262.72,37.62C265.08,36.56 267.38,35.23 269.68,33.92C272.02,32.59 274.31,31.08 276.64,29.71C278.95,28.35 281.24,26.89 283.59,25.73C285.87,24.6 288.19,23.51 290.55,22.82C292.83,22.16 295.19,21.68 297.51,21.62C299.82,21.56 302.17,21.89 304.46,22.43C306.81,22.99 309.13,23.98 311.42,24.96C313.77,25.97 316.06,27.29 318.38,28.43C320.7,29.56 322.99,30.83 325.34,31.78C327.63,32.71 329.95,33.58 332.29,34.1C334.58,34.61 336.93,34.88 339.25,34.9C341.57,34.92 343.9,34.61 346.21,34.23C348.54,33.84 350.85,33.18 353.16,32.57C355.49,31.95 357.8,31.19 360.12,30.54C362.44,29.89 364.75,29.23 367.08,28.69C369.39,28.15 371.71,27.68 374.03,27.29C376.34,26.91 378.67,26.62 380.99,26.38C383.31,26.14 385.63,25.98 387.95,25.85C390.27,25.72 392.59,25.65 394.91,25.6C397.23,25.55 399.54,25.54 401.86,25.53C404.18,25.52 406.5,25.56 408.82,25.54C411.14,25.52 413.46,25.53 415.78,25.39C418.1,25.25 420.42,25.08 422.73,24.72C425.06,24.35 427.39,23.86 429.69,23.19C432.03,22.5 434.36,21.62 436.65,20.62C439,19.6 441.31,18.35 443.61,17.11C445.95,15.85 448.23,14.39 450.56,13.11C452.87,11.84 455.16,10.45 457.52,9.46C459.8,8.5 462.13,7.54 464.48,7.2C466.77,6.87 469.17,6.85 471.43,7.39C473.81,7.96 476.18,9.2 478.39,10.69C480.84,12.34 483.12,14.68 485.35,17.06C487.77,19.64 490.03,22.72 492.31,25.7C494.66,28.77 496.92,32.12 499.26,35.23C501.56,38.29 503.83,41.41 506.22,44.22C508.48,46.88 510.78,49.45 513.18,51.69C515.43,53.79 517.75,55.66 520.13,57.32C522.39,58.9 524.74,60.21 527.09,61.45C529.38,62.66 531.72,63.67 534.05,64.7C536.36,65.72 538.69,66.64 541.01,67.58C543.32,68.52 545.64,69.45 547.96,70.34C550.27,71.23 552.59,72.11 554.92,72.91C557.23,73.7 559.55,74.45 561.88,75.1C564.19,75.74 566.5,76.3 568.83,76.77C571.14,77.23 573.47,77.59 575.79,77.89Q578.11,78.19 582.75,78.57L582.75,79.2" style="vector-effect: none; stroke-width: 2px; stroke: rgb(136, 68, 136); stroke-opacity: 1; fill: rgb(170, 85, 170); fill-opacity: 0.5;"/><path class="meanline" d="M352.85,32.65269088745117V79.2" style="fill: none; vector-effect: none; stroke-width: 2px; stroke-dasharray: 4px, 2px; stroke: rgb(136, 68, 136); stroke-opacity: 1;"/></g></g></g><g class="overplot"/><path class="xlines-above crisp" d="M0,0" style="fill: none;"/><path class="ylines-above crisp" d="M0,0" style="fill: none;"/><g class="overlines-above"/><g class="xaxislayer-above"><g class="xtick"><text text-anchor="middle" x="0" y="157" transform="translate(35,0)" style="font-family: 'Open Sans', verdana, arial, sans-serif; font-size: 12px; fill: rgb(242, 245, 250); fill-opacity: 1; white-space: pre; opacity: 0;"><tspan class="line" dy="0em" x="0" y="157">00:00:00</tspan><tspan class="line" dy="1.3em" x="0" y="157">Jan 1, 1970</tspan></text></g><g class="xtick"><text text-anchor="middle" x="0" y="157" style="font-family: 'Open Sans', verdana, arial, sans-serif; font-size: 12px; fill: rgb(242, 245, 250); fill-opacity: 1; white-space: pre; opacity: 0;" transform="translate(756,0)">00:00:00.0001</text></g></g><g class="yaxislayer-above"/><g class="overaxes-above"/></g></g><g class="polarlayer"/><g class="smithlayer"/><g class="ternarylayer"/><g class="geolayer"/><g class="funnelarealayer"/><g class="pielayer"/><g class="iciclelayer"/><g class="treemaplayer"/><g class="sunburstlayer"/><g class="glimages"/><defs id="topdefs-36ff1f"><g class="clips"/></defs><g class="layer-above"><g class="imagelayer"/><g class="shapelayer"/></g><g class="infolayer"><g class="g-gtitle"/><g class="g-xtitle" transform="translate(0,-2.9093750000000114)"><text class="xtitle" x="395.5" y="199.909375" text-anchor="middle" style="font-family: 'Open Sans', verdana, arial, sans-serif; font-size: 14px; fill: rgb(242, 245, 250); opacity: 1; white-space: pre;">Created</text></g><g class="g-ytitle"/></g></svg>