<svg class="main-svg" xmlns="http://www.w3.org/2000/svg" xmlns:xlink="http://www.w3.org/1999/xlink" width="800" height="200" style="" viewBox="0 0 800 200"><rect x="0" y="0" width="800" height="200" style="fill: rgb(0, 0, 0); fill-opacity: 0;"/><defs id="defs-4ce4bf"><g class="clips"><clipPath id="clip4ce4bfxyplot" class="plotclip"><rect width="800" height="159"/></clipPath><clipPath class="axesclip" id="clip4ce4bfx"><rect x="0" y="0" width="800" height="200"/></clipPath><clipPath class="axesclip" id="clip4ce4bfy"><rect x="0" y="0" width="800" height="159"/></clipPath><clipPath class="axesclip" id="clip4ce4bfxy"><rect x="0" y="0" width="800" height="159"/></clipPath></g><g class="gradients"/><g class="patterns"/></defs><g class="bglayer"><rect class="bg" x="0" y="0" width="800" height="159" style="fill: rgb(0, 0, 0); fill-opacity: 0; stroke-width: 0;"/></g><g class="layer-below"><g class="imagelayer"/><g class="shapelayer"/></g><g class="cartesianlayer"><g class="subplot xy"><g class="layer-subplot"><g class="shapelayer"/><g class="imagelayer"/></g><g class="minor-gridlayer"><g class="x"/><g class="y"/></g><g class="gridlayer"><g class="x"><path class="xgrid crisp" transform="translate(142.04,0)" d="M0,0v159" style="stroke: rgb(40, 52, 66); stroke-opacity: 1; stroke-width: 1px;"/><path class="xgrid crisp" transform="translate(226.02,0)" d="M0,0v159" style="stroke: rgb(40, 52, 66); stroke-opacity: 1; stroke-width: 1px;"/><path class="xgrid crisp" transform="translate(310,0)" d="M0,0v159" style="stroke: rgb(40, 52, 66); stroke-opacity: 1; stroke-width: 1px;"/><path class="xgrid crisp" transform="translate(393.98,0)" d="M0,0v159" style="stroke: rgb(40, 52, 66); stroke-opacity: 1; stroke-width: 1px;"/><path class="xgrid crisp" transform="translate(477.96,0)" d="M0,0v159" style="stroke: rgb(40, 52, 66); stroke-opacity: 1; stroke-width: 1px;"/><path class="xgrid crisp" transform="translate(561.94,0)" d="M0,0v159" style="stroke: rgb(40, 52, 66); stroke-opacity: 1; stroke-width: 1px;"/><path class="xgrid crisp" transform="translate(645.92,0)" d="M0,0v159" style="stroke: rgb(40, 52, 66); stroke-opacity: 1; stroke-width: 1px;"/><path class="xgrid crisp" transform="translate(729.9,0)" d="M0,0v159" style="stroke: rgb(40, 52, 66); stroke-opacity: 1; stroke-width: 1px;"/></g><g class="y"/></g><g class="zerolinelayer"><path class="xzl zl crisp" transform="translate(58.06,0)" d="M0,0v159" style="stroke: rgb(40, 52, 66); stroke-opacity: 1; stroke-width: 2px;"/></g><g class="layer-between"><g class="shapelayer"/><g class="imagelayer"/></g><path class="xlines-below"/><path class="ylines-below"/><g class="overlines-below"/><g class="xaxislayer-below"/><g class="yaxislayer-below"/><g class="overaxes-below"/><g class="plot" transform="" clip-path="url(#clip4ce4bfxyplot)"><g class="violinlayer mlayer"><g class="trace violins" style="opacity: 1;"><path class="violin" d="M40,151.05L40,150.96Q42.93,150.9 44.4,150.85C45.87,150.8 47.33,150.73 48.8,150.64C50.27,150.55 51.73,150.44 53.2,150.29C54.67,150.14 56.14,149.96 57.6,149.75C59.07,149.53 60.54,149.29 62,149C63.47,148.71 64.94,148.38 66.4,148.03C67.87,147.68 69.34,147.28 70.8,146.88C72.27,146.48 73.73,146.04 75.2,145.63C76.67,145.22 78.13,144.78 79.6,144.4C81.06,144.02 82.53,143.64 84,143.33C85.46,143.02 86.93,142.76 88.4,142.56C89.86,142.36 91.33,142.22 92.8,142.15C94.27,142.08 95.73,142.09 97.2,142.13C98.67,142.17 100.13,142.29 101.6,142.4C103.07,142.51 104.54,142.68 106.01,142.81C107.48,142.93 108.94,143.08 110.41,143.15C111.88,143.22 113.34,143.28 114.81,143.23C116.28,143.18 117.75,143.09 119.21,142.87C120.68,142.65 122.16,142.35 123.61,141.91C125.09,141.46 126.57,140.9 128.01,140.19C129.51,139.45 130.99,138.55 132.41,137.51C133.93,136.4 135.39,135.1 136.81,133.68C138.33,132.15 139.79,130.41 141.21,128.58C142.73,126.62 144.18,124.47 145.61,122.26C147.12,119.94 148.56,117.46 150.01,114.97C151.5,112.42 152.94,109.74 154.41,107.13C155.88,104.51 157.32,101.84 158.81,99.28C160.26,96.78 161.71,94.28 163.21,91.94C164.64,89.71 166.09,87.52 167.61,85.52C169.03,83.64 170.49,81.84 172.01,80.26C173.43,78.79 174.89,77.42 176.41,76.28C177.83,75.21 179.3,74.28 180.81,73.56C182.24,72.88 183.72,72.35 185.21,72.02C186.66,71.69 188.14,71.54 189.61,71.55C191.08,71.56 192.56,71.75 194.01,72.1C195.5,72.46 196.98,73.02 198.41,73.71C199.91,74.44 201.38,75.38 202.81,76.42C204.32,77.52 205.77,78.84 207.21,80.16C208.7,81.53 210.14,83.08 211.61,84.53C213.07,85.98 214.5,87.53 216.01,88.85C217.44,90.1 218.88,91.38 220.41,92.28C221.82,93.11 223.31,93.84 224.81,94.16C226.25,94.47 227.77,94.46 229.22,94.24C230.71,94.02 232.18,93.41 233.62,92.8C235.11,92.17 236.56,91.27 238.02,90.48C239.49,89.68 240.93,88.77 242.42,88.04C243.87,87.33 245.33,86.62 246.82,86.15C248.26,85.7 249.75,85.35 251.22,85.24C252.68,85.13 254.17,85.22 255.62,85.5C257.11,85.78 258.58,86.3 260.02,86.94C261.52,87.61 262.99,88.5 264.42,89.45C265.92,90.45 267.38,91.63 268.82,92.83C270.31,94.07 271.76,95.43 273.22,96.77C274.69,98.12 276.15,99.54 277.62,100.89C279.08,102.22 280.53,103.57 282.02,104.82C283.47,106.04 284.93,107.22 286.42,108.31C287.87,109.37 289.34,110.35 290.82,111.27C292.27,112.17 293.74,113 295.22,113.79C296.68,114.57 298.14,115.3 299.62,115.99C301.08,116.67 302.54,117.32 304.02,117.91C305.48,118.49 306.94,119.05 308.42,119.51C309.88,119.96 311.34,120.35 312.82,120.64C314.28,120.92 315.75,121.12 317.22,121.23C318.68,121.34 320.15,121.32 321.62,121.3C323.09,121.28 324.55,121.15 326.02,121.09C327.49,121.03 328.95,120.93 330.42,120.96C331.89,120.99 333.36,121.07 334.82,121.3C336.3,121.53 337.77,121.89 339.22,122.37C340.71,122.86 342.17,123.51 343.62,124.23C345.11,124.97 346.57,125.85 348.02,126.75C349.5,127.67 350.96,128.68 352.42,129.68C353.9,130.69 355.36,131.75 356.83,132.78C358.3,133.8 359.75,134.84 361.23,135.82C362.69,136.79 364.15,137.75 365.63,138.63C367.08,139.49 368.55,140.33 370.03,141.06C371.48,141.77 372.95,142.43 374.43,142.98C375.88,143.52 377.35,143.97 378.83,144.32C380.29,144.66 381.76,144.9 383.23,145.05C384.69,145.2 386.16,145.23 387.63,145.22C389.1,145.21 390.56,145.09 392.03,144.97C393.5,144.85 394.96,144.65 396.43,144.49C397.9,144.33 399.36,144.13 400.83,143.99C402.3,143.85 403.76,143.72 405.23,143.67C406.7,143.62 408.16,143.6 409.63,143.66C411.1,143.72 412.57,143.85 414.03,144.03C415.5,144.21 416.97,144.46 418.43,144.74C419.9,145.02 421.37,145.37 422.83,145.71C424.3,146.05 425.76,146.43 427.23,146.79C428.7,147.15 430.16,147.52 431.63,147.85C433.09,148.18 434.56,148.51 436.03,148.79C437.49,149.07 438.96,149.33 440.43,149.55C441.89,149.77 443.36,149.95 444.83,150.11C446.3,150.27 447.76,150.39 449.23,150.5C450.7,150.61 452.16,150.68 453.63,150.75C455.1,150.82 456.56,150.86 458.03,150.9Q459.5,150.94 462.43,150.98L462.43,151.05" style="vector-effect: none; stroke-width: 2px; stroke: rgb(118, 122, 82); stroke-opacity: 1; fill: rgb(148, 153, 102); fill-opacity: 0.5;"/><path class="meanline" d="M235.12,92.08324432373047V151.05" style="fill: none; vector-effect: none; stroke-width: 2px; stroke-dasharray: 4px, 2px; stroke: rgb(118, 122, 82); stroke-opacity: 1;"/></g><g class="trace violins" style="opacity: 1;"><path class="violin" d="M182.54,119.25L182.54,119.21Q185.48,119.19 186.95,119.17C188.42,119.15 189.9,119.12 191.37,119.08C192.84,119.04 194.31,119 195.78,118.92C197.25,118.84 198.72,118.76 200.19,118.62C201.66,118.48 203.14,118.32 204.61,118.08C206.09,117.83 207.56,117.55 209.02,117.15C210.5,116.75 211.99,116.27 213.44,115.67C214.93,115.05 216.41,114.31 217.85,113.47C219.35,112.59 220.82,111.57 222.26,110.49C223.76,109.37 225.22,108.1 226.68,106.83C228.17,105.54 229.62,104.13 231.09,102.8C232.56,101.47 234.01,100.08 235.51,98.85C236.96,97.66 238.41,96.47 239.92,95.52C241.35,94.62 242.82,93.8 244.33,93.27C245.77,92.76 247.27,92.43 248.75,92.35C250.21,92.27 251.71,92.45 253.16,92.75C254.65,93.05 256.12,93.61 257.58,94.18C259.07,94.76 260.53,95.51 261.99,96.22C263.47,96.93 264.93,97.73 266.41,98.45C267.88,99.17 269.34,99.9 270.82,100.53C272.28,101.15 273.74,101.75 275.23,102.2C276.69,102.64 278.17,103.03 279.65,103.2C281.11,103.37 282.6,103.44 284.06,103.24C285.55,103.04 287.05,102.62 288.48,101.98C290,101.3 291.47,100.31 292.89,99.21C294.42,98.01 295.87,96.51 297.3,94.98C298.82,93.35 300.26,91.49 301.72,89.69C303.2,87.86 304.63,85.88 306.13,84.09C307.58,82.35 309.02,80.56 310.55,79.08C311.97,77.71 313.42,76.38 314.96,75.46C316.37,74.62 317.87,73.96 319.37,73.64C320.81,73.33 322.33,73.37 323.79,73.5C325.27,73.63 326.73,74.09 328.2,74.44C329.68,74.79 331.14,75.29 332.62,75.58C334.08,75.86 335.56,76.14 337.03,76.16C338.5,76.18 339.99,76.03 341.44,75.7C342.93,75.36 344.42,74.79 345.86,74.14C347.36,73.46 348.82,72.58 350.27,71.67C351.77,70.73 353.24,69.66 354.69,68.56C356.18,67.43 357.65,66.21 359.1,64.94C360.59,63.63 362.06,62.24 363.51,60.78C365.01,59.27 366.47,57.66 367.93,56.03C369.42,54.36 370.86,52.56 372.34,50.86C373.81,49.17 375.24,47.38 376.76,45.85C378.19,44.4 379.62,42.91 381.17,41.87C382.58,40.93 384.07,40.07 385.58,39.75C387.02,39.45 388.56,39.55 390,39.89C391.51,40.25 392.97,41.12 394.41,41.94C395.92,42.79 397.35,43.98 398.83,44.94C400.29,45.88 401.73,46.94 403.24,47.65C404.67,48.32 406.16,48.91 407.65,49.13C409.1,49.35 410.61,49.26 412.07,49.02C413.56,48.77 415.02,48.16 416.48,47.62C417.97,47.07 419.41,46.29 420.9,45.74C422.36,45.2 423.82,44.58 425.31,44.32C426.76,44.07 428.27,43.96 429.72,44.19C431.22,44.43 432.72,45.02 434.14,45.78C435.67,46.59 437.12,47.79 438.55,49.01C440.07,50.31 441.52,51.86 442.97,53.37C444.46,54.92 445.91,56.59 447.38,58.18C448.85,59.76 450.31,61.35 451.79,62.88C453.25,64.39 454.74,65.84 456.21,67.32C457.68,68.79 459.16,70.21 460.62,71.72C462.11,73.26 463.59,74.82 465.04,76.47C466.54,78.18 468,79.98 469.45,81.82C470.94,83.72 472.39,85.74 473.86,87.72C475.34,89.71 476.79,91.77 478.28,93.71C479.73,95.6 481.17,97.51 482.69,99.2C484.12,100.79 485.58,102.33 487.11,103.6C488.53,104.77 490,105.83 491.52,106.6C492.94,107.32 494.44,107.85 495.93,108.15C497.38,108.44 498.88,108.49 500.35,108.41C501.83,108.33 503.3,108.04 504.76,107.69C506.25,107.34 507.72,106.82 509.18,106.3C510.66,105.78 512.12,105.16 513.59,104.58C515.06,104 516.52,103.37 518,102.82C519.47,102.28 520.94,101.72 522.42,101.3C523.88,100.88 525.35,100.51 526.83,100.29C528.29,100.08 529.78,99.95 531.25,100C532.72,100.05 534.21,100.25 535.66,100.58C537.15,100.92 538.62,101.43 540.07,102.03C541.56,102.64 543.04,103.42 544.49,104.23C545.98,105.06 547.43,106.02 548.9,106.94C550.38,107.87 551.84,108.87 553.32,109.8C554.78,110.72 556.24,111.66 557.73,112.49C559.18,113.3 560.65,114.08 562.14,114.74C563.6,115.39 565.07,115.96 566.56,116.44C568.02,116.91 569.49,117.3 570.97,117.62C572.44,117.94 573.91,118.17 575.39,118.37C576.86,118.57 578.33,118.69 579.8,118.8C581.27,118.91 582.75,118.98 584.22,119.04Q585.69,119.1 588.63,119.16L588.63,119.25" style="vector-effect: none; stroke-width: 2px; stroke: rgb(53, 78, 151); stroke-opacity: 1; fill: rgb(66, 97, 189); fill-opacity: 0.5;"/><path class="meanline" d="M388.25,39.608787536621094V119.25" style="fill: none; vector-effect: none; stroke-width: 2px; stroke-dasharray: 4px, 2px; stroke: rgb(53, 78, 151); stroke-opacity: 1;"/></g><g class="trace violins" style="opacity: 1;"><path class="violin" d="M179.13,87.45L179.13,87.42Q182.46,87.4 184.13,87.39C185.8,87.38 187.47,87.36 189.14,87.34C190.81,87.32 192.48,87.29 194.15,87.26C195.82,87.23 197.49,87.2 199.16,87.16C200.83,87.12 202.49,87.07 204.16,87.03C205.83,86.99 207.5,86.94 209.17,86.9C210.84,86.86 212.51,86.82 214.18,86.78C215.85,86.75 217.52,86.71 219.19,86.69C220.86,86.67 222.52,86.65 224.19,86.64C225.86,86.63 227.53,86.64 229.2,86.64C230.87,86.64 232.54,86.66 234.21,86.67C235.88,86.68 237.55,86.71 239.22,86.72C240.89,86.73 242.55,86.74 244.22,86.75C245.89,86.76 247.56,86.76 249.23,86.76C250.9,86.76 252.57,86.74 254.24,86.72C255.91,86.7 257.58,86.67 259.25,86.63C260.92,86.59 262.58,86.53 264.25,86.46C265.92,86.38 267.59,86.3 269.26,86.18C270.93,86.06 272.6,85.92 274.27,85.75C275.94,85.58 277.61,85.37 279.28,85.14C280.95,84.9 282.61,84.63 284.28,84.34C285.95,84.05 287.62,83.72 289.29,83.39C290.96,83.06 292.63,82.71 294.3,82.38C295.97,82.05 297.64,81.71 299.31,81.41C300.98,81.11 302.64,80.82 304.31,80.59C305.98,80.36 307.65,80.16 309.32,80.02C310.99,79.88 312.66,79.79 314.33,79.74C316,79.69 317.67,79.7 319.34,79.74C321.01,79.78 322.67,79.88 324.34,80C326.01,80.12 327.68,80.28 329.35,80.45C331.02,80.62 332.69,80.82 334.36,81.01C336.03,81.2 337.7,81.41 339.37,81.59C341.04,81.77 342.7,81.95 344.37,82.07C346.04,82.19 347.71,82.29 349.38,82.31C351.05,82.33 352.72,82.31 354.39,82.21C356.06,82.11 357.73,81.95 359.4,81.73C361.07,81.51 362.74,81.22 364.41,80.9C366.08,80.58 367.74,80.21 369.41,79.83C371.08,79.45 372.75,79.03 374.42,78.63C376.09,78.23 377.76,77.82 379.43,77.41C381.1,77.01 382.77,76.6 384.44,76.2C386.11,75.8 387.77,75.4 389.44,74.99C391.11,74.58 392.78,74.17 394.45,73.74C396.12,73.31 397.79,72.87 399.46,72.43C401.13,71.99 402.8,71.53 404.47,71.11C406.14,70.69 407.8,70.26 409.47,69.89C411.14,69.52 412.81,69.17 414.48,68.89C416.15,68.61 417.82,68.39 419.49,68.23C421.16,68.07 422.83,67.98 424.5,67.93C426.17,67.88 427.83,67.91 429.5,67.94C431.17,67.97 432.84,68.06 434.51,68.14C436.18,68.22 437.85,68.31 439.52,68.4C441.19,68.49 442.86,68.58 444.53,68.66C446.2,68.74 447.86,68.81 449.53,68.89C451.2,68.97 452.87,69.04 454.54,69.12C456.21,69.2 457.88,69.28 459.55,69.37C461.22,69.46 462.89,69.57 464.56,69.67C466.23,69.77 467.89,69.88 469.56,69.99C471.23,70.1 472.9,70.22 474.57,70.32C476.24,70.42 477.91,70.53 479.58,70.57C481.25,70.61 482.92,70.65 484.59,70.59C486.26,70.53 487.93,70.43 489.59,70.21C491.27,69.99 492.94,69.69 494.6,69.28C496.28,68.86 497.95,68.32 499.61,67.72C501.3,67.1 502.96,66.37 504.62,65.61C506.3,64.84 507.96,63.96 509.62,63.1C511.29,62.23 512.96,61.32 514.63,60.42C516.3,59.52 517.97,58.62 519.64,57.72C521.31,56.83 522.99,55.96 524.65,55.05C526.32,54.14 528,53.24 529.65,52.25C531.33,51.24 533.02,50.2 534.66,49.04C536.36,47.84 538.03,46.55 539.67,45.14C541.38,43.67 543.04,42.05 544.68,40.38C546.38,38.65 548.03,36.77 549.68,34.9C551.36,33 553.02,31 554.69,29.07C556.36,27.15 558.01,25.2 559.7,23.36C561.35,21.57 563.01,19.8 564.71,18.18C566.35,16.62 568,15.11 569.71,13.79C571.34,12.53 573,11.33 574.72,10.4C576.35,9.52 578.03,8.69 579.73,8.29C581.37,7.9 583.1,7.7 584.74,7.95C586.44,8.2 588.15,8.91 589.74,9.86C591.51,10.92 593.16,12.53 594.75,14.22C596.52,16.09 598.14,18.4 599.76,20.69C601.48,23.12 603.1,25.83 604.77,28.42C606.44,31.02 608.06,33.75 609.77,36.24C611.4,38.62 613.03,41.01 614.78,43.05C616.38,44.92 618.03,46.7 619.79,48.07C621.38,49.31 623.07,50.36 624.8,51.02C626.42,51.64 628.13,51.95 629.8,52.04C631.46,52.13 633.15,51.88 634.81,51.59C636.49,51.3 638.16,50.76 639.82,50.28C641.5,49.8 643.16,49.2 644.83,48.71C646.49,48.22 648.15,47.71 649.83,47.33C651.49,46.95 653.16,46.63 654.84,46.44C656.5,46.25 658.18,46.16 659.85,46.21C661.52,46.26 663.2,46.42 664.86,46.74C666.54,47.06 668.22,47.53 669.86,48.14C671.56,48.77 673.23,49.58 674.87,50.5C676.58,51.46 678.24,52.6 679.88,53.82C681.59,55.09 683.24,56.54 684.89,58.01C686.58,59.52 688.23,61.16 689.89,62.76C691.56,64.37 693.22,66.05 694.9,67.64C696.56,69.2 698.21,70.78 699.91,72.22C701.55,73.62 703.22,74.96 704.92,76.17C706.56,77.33 708.22,78.41 709.92,79.35C711.56,80.26 713.24,81.06 714.93,81.76C716.58,82.44 718.26,83.02 719.94,83.52C721.6,84.02 723.27,84.41 724.95,84.77C726.61,85.12 728.28,85.41 729.95,85.66C731.62,85.91 733.29,86.11 734.96,86.29C736.63,86.47 738.3,86.6 739.97,86.72C741.64,86.84 743.31,86.94 744.98,87.02C746.65,87.1 748.31,87.16 749.98,87.21C751.65,87.26 753.32,87.29 754.99,87.32Q756.66,87.35 760,87.39L760,87.45" style="vector-effect: none; stroke-width: 2px; stroke: rgb(136, 68, 136); stroke-opacity: 1; fill: rgb(170, 85, 170); fill-opacity: 0.5;"/><path class="meanline" d="M555.92,27.64878273010254V87.45" style="fill: none; vector-effect: none; stroke-width: 2px; stroke-dasharray: 4px, 2px; stroke: rgb(136, 68, 136); stroke-opacity: 1;"/></g></g></g><g class="overplot"/><path class="xlines-above crisp" d="M0,0" style="fill: none;"/><path class="ylines-above crisp" d="M0,0" style="fill: none;"/><g class="overlines-above"/><g class="xaxislayer-above"><g class="xtick"><text text-anchor="middle" x="0" y="172" transform="translate(58.06,0)" style="font-family: 'Open Sans', verdana, arial, sans-serif; font-size: 12px; fill: rgb(242, 245, 250); fill-opacity: 1; white-space: pre; opacity: 1;">0</text></g><g class="xtick"><text text-anchor="middle" x="0" y="172" style="font-family: 'Open Sans', verdana, arial, sans-serif; font-size: 12px; fill: rgb(242, 245, 250); fill-opacity: 1; white-space: pre; opacity: 1;" transform="translate(142.04,0)">10</text></g><g class="xtick"><text text-anchor="middle" x="0" y="172" style="font-family: 'Open Sans', verdana, arial, sans-serif; font-size: 12px; fill: rgb(242, 245, 250); fill-opacity: 1; white-space: pre; opacity: 1;" transform="translate(226.02,0)">20</text></g><g class="xtick"><text text-anchor="middle" x="0" y="172" style="font-family: 'Open Sans', verdana, arial, sans-serif; font-size: 12px; fill: rgb(242, 245, 250); fill-opacity: 1; white-space: pre; opacity: 1;" transform="translate(310,0)">30</text></g><g class="xtick"><text text-anchor="middle" x="0" y="172" style="font-family: 'Open Sans', verdana, arial, sans-serif; font-size: 12px; fill: rgb(242, 245, 250); fill-opacity: 1; white-space: pre; opacity: 1;" transform="translate(393.98,0)">40</text></g><g class="xtick"><text text-anchor="middle" x="0" y="172" style="font-family: 'Open Sans', verdana, arial, sans-serif; font-size: 12px; fill: rgb(242, 245, 250); fill-opacity: 1; white-space: pre; opacity: 1;" transform="translate(477.96,0)">50</text></g><g class="xtick"><text text-anchor="middle" x="0" y="172" style="font-family: 'Open Sans', verdana, arial, sans-serif; font-size: 12px; fill: rgb(242, 245, 250); fill-opacity: 1; white-space: pre; opacity: 1;" transform="translate(561.94,0)">60</text></g><g class="xtick"><text text-anchor="middle" x="0" y="172" style="font-family: 'Open Sans', verdana, arial, sans-serif; font-size: 12px; fill: rgb(242, 245, 250); fill-opacity: 1; white-space: pre; opacity: 1;" transform="translate(645.92,0)">70</text></g><g class="xtick"><text text-anchor="middle" x="0" y="172" style="font-family: 'Open Sans', verdana, arial, sans-serif; font-size: 12px; fill: rgb(242, 245, 250); fill-opacity: 1; white-space: pre; opacity: 1;" transform="translate(729.9,0)">80</text></g></g><g class="yaxislayer-above"/><g class="overaxes-above"/></g></g><g class="polarlayer"/><g class="smithlayer"/><g class="ternarylayer"/><g class="geolayer"/><g class="funnelarealayer"/><g class="pielayer"/><g class="iciclelayer"/><g class="treemaplayer"/><g class="sunburstlayer"/><g class="glimages"/><defs id="topdefs-4ce4bf"><g class="clips"/></defs><g class="layer-above"><g class="imagelayer"/><g class="shapelayer"/></g><g class="infolayer"><g class="g-gtitle"/><g class="g-xtitle" transform="translate(0,-2.3000000000000114)"><text class="xtitle" x="400" y="199.3" text-anchor="middle" style="font-family: 'Open Sans', verdana, arial, sans-serif; font-size: 14px; fill: rgb(242, 245, 250); opacity: 1; white-space: pre;">Kid Energy</text></g><g class="g-ytitle"/></g></svg>